%TF.GenerationSoftware,KiCad,Pcbnew,8.0.1*%
%TF.CreationDate,2024-07-29T23:12:38+02:00*%
%TF.ProjectId,FT_Hall,46545f48-616c-46c2-9e6b-696361645f70,rev?*%
%TF.SameCoordinates,Original*%
%TF.FileFunction,Legend,Top*%
%TF.FilePolarity,Positive*%
%FSLAX46Y46*%
G04 Gerber Fmt 4.6, Leading zero omitted, Abs format (unit mm)*
G04 Created by KiCad (PCBNEW 8.0.1) date 2024-07-29 23:12:38*
%MOMM*%
%LPD*%
G01*
G04 APERTURE LIST*
%ADD10C,0.200000*%
%ADD11C,0.150000*%
%ADD12C,0.120000*%
G04 APERTURE END LIST*
D10*
X101619047Y-105144457D02*
X101523809Y-105096838D01*
X101523809Y-105096838D02*
X101428571Y-105001600D01*
X101428571Y-105001600D02*
X101285714Y-104858742D01*
X101285714Y-104858742D02*
X101190476Y-104811123D01*
X101190476Y-104811123D02*
X101095238Y-104811123D01*
X101142857Y-105049219D02*
X101047619Y-105001600D01*
X101047619Y-105001600D02*
X100952381Y-104906361D01*
X100952381Y-104906361D02*
X100904762Y-104715885D01*
X100904762Y-104715885D02*
X100904762Y-104382552D01*
X100904762Y-104382552D02*
X100952381Y-104192076D01*
X100952381Y-104192076D02*
X101047619Y-104096838D01*
X101047619Y-104096838D02*
X101142857Y-104049219D01*
X101142857Y-104049219D02*
X101333333Y-104049219D01*
X101333333Y-104049219D02*
X101428571Y-104096838D01*
X101428571Y-104096838D02*
X101523809Y-104192076D01*
X101523809Y-104192076D02*
X101571428Y-104382552D01*
X101571428Y-104382552D02*
X101571428Y-104715885D01*
X101571428Y-104715885D02*
X101523809Y-104906361D01*
X101523809Y-104906361D02*
X101428571Y-105001600D01*
X101428571Y-105001600D02*
X101333333Y-105049219D01*
X101333333Y-105049219D02*
X101142857Y-105049219D01*
X103523810Y-104668266D02*
X104285715Y-104668266D01*
X106285715Y-104668266D02*
X107047620Y-104668266D01*
X106666667Y-105049219D02*
X106666667Y-104287314D01*
D11*
X104341333Y-107668819D02*
X104008000Y-107192628D01*
X103769905Y-107668819D02*
X103769905Y-106668819D01*
X103769905Y-106668819D02*
X104150857Y-106668819D01*
X104150857Y-106668819D02*
X104246095Y-106716438D01*
X104246095Y-106716438D02*
X104293714Y-106764057D01*
X104293714Y-106764057D02*
X104341333Y-106859295D01*
X104341333Y-106859295D02*
X104341333Y-107002152D01*
X104341333Y-107002152D02*
X104293714Y-107097390D01*
X104293714Y-107097390D02*
X104246095Y-107145009D01*
X104246095Y-107145009D02*
X104150857Y-107192628D01*
X104150857Y-107192628D02*
X103769905Y-107192628D01*
X105293714Y-107668819D02*
X104722286Y-107668819D01*
X105008000Y-107668819D02*
X105008000Y-106668819D01*
X105008000Y-106668819D02*
X104912762Y-106811676D01*
X104912762Y-106811676D02*
X104817524Y-106906914D01*
X104817524Y-106906914D02*
X104722286Y-106954533D01*
X100300762Y-116758819D02*
X100300762Y-115758819D01*
X100300762Y-116235009D02*
X100872190Y-116235009D01*
X100872190Y-116758819D02*
X100872190Y-115758819D01*
X101300762Y-116473104D02*
X101776952Y-116473104D01*
X101205524Y-116758819D02*
X101538857Y-115758819D01*
X101538857Y-115758819D02*
X101872190Y-116758819D01*
X102681714Y-116758819D02*
X102205524Y-116758819D01*
X102205524Y-116758819D02*
X102205524Y-115758819D01*
X103538857Y-116758819D02*
X102967429Y-116758819D01*
X103253143Y-116758819D02*
X103253143Y-115758819D01*
X103253143Y-115758819D02*
X103157905Y-115901676D01*
X103157905Y-115901676D02*
X103062667Y-115996914D01*
X103062667Y-115996914D02*
X102967429Y-116044533D01*
X101565580Y-111952666D02*
X101613200Y-112000285D01*
X101613200Y-112000285D02*
X101660819Y-112143142D01*
X101660819Y-112143142D02*
X101660819Y-112238380D01*
X101660819Y-112238380D02*
X101613200Y-112381237D01*
X101613200Y-112381237D02*
X101517961Y-112476475D01*
X101517961Y-112476475D02*
X101422723Y-112524094D01*
X101422723Y-112524094D02*
X101232247Y-112571713D01*
X101232247Y-112571713D02*
X101089390Y-112571713D01*
X101089390Y-112571713D02*
X100898914Y-112524094D01*
X100898914Y-112524094D02*
X100803676Y-112476475D01*
X100803676Y-112476475D02*
X100708438Y-112381237D01*
X100708438Y-112381237D02*
X100660819Y-112238380D01*
X100660819Y-112238380D02*
X100660819Y-112143142D01*
X100660819Y-112143142D02*
X100708438Y-112000285D01*
X100708438Y-112000285D02*
X100756057Y-111952666D01*
X100756057Y-111571713D02*
X100708438Y-111524094D01*
X100708438Y-111524094D02*
X100660819Y-111428856D01*
X100660819Y-111428856D02*
X100660819Y-111190761D01*
X100660819Y-111190761D02*
X100708438Y-111095523D01*
X100708438Y-111095523D02*
X100756057Y-111047904D01*
X100756057Y-111047904D02*
X100851295Y-111000285D01*
X100851295Y-111000285D02*
X100946533Y-111000285D01*
X100946533Y-111000285D02*
X101089390Y-111047904D01*
X101089390Y-111047904D02*
X101660819Y-111619332D01*
X101660819Y-111619332D02*
X101660819Y-111000285D01*
X107153580Y-111952666D02*
X107201200Y-112000285D01*
X107201200Y-112000285D02*
X107248819Y-112143142D01*
X107248819Y-112143142D02*
X107248819Y-112238380D01*
X107248819Y-112238380D02*
X107201200Y-112381237D01*
X107201200Y-112381237D02*
X107105961Y-112476475D01*
X107105961Y-112476475D02*
X107010723Y-112524094D01*
X107010723Y-112524094D02*
X106820247Y-112571713D01*
X106820247Y-112571713D02*
X106677390Y-112571713D01*
X106677390Y-112571713D02*
X106486914Y-112524094D01*
X106486914Y-112524094D02*
X106391676Y-112476475D01*
X106391676Y-112476475D02*
X106296438Y-112381237D01*
X106296438Y-112381237D02*
X106248819Y-112238380D01*
X106248819Y-112238380D02*
X106248819Y-112143142D01*
X106248819Y-112143142D02*
X106296438Y-112000285D01*
X106296438Y-112000285D02*
X106344057Y-111952666D01*
X107248819Y-111000285D02*
X107248819Y-111571713D01*
X107248819Y-111285999D02*
X106248819Y-111285999D01*
X106248819Y-111285999D02*
X106391676Y-111381237D01*
X106391676Y-111381237D02*
X106486914Y-111476475D01*
X106486914Y-111476475D02*
X106534533Y-111571713D01*
D12*
%TO.C,R1*%
X106017500Y-107451258D02*
X106017500Y-106976742D01*
X107062500Y-107451258D02*
X107062500Y-106976742D01*
%TO.C,HAL1*%
X102440000Y-113564000D02*
X102440000Y-112914000D01*
X102440000Y-113564000D02*
X102440000Y-114214000D01*
X105560000Y-113564000D02*
X105560000Y-112914000D01*
X105560000Y-113564000D02*
X105560000Y-114214000D01*
X105840000Y-112641500D02*
X105510000Y-112401500D01*
X105840000Y-112161500D01*
X105840000Y-112641500D01*
G36*
X105840000Y-112641500D02*
G01*
X105510000Y-112401500D01*
X105840000Y-112161500D01*
X105840000Y-112641500D01*
G37*
%TO.C,C2*%
X102362580Y-109244000D02*
X102081420Y-109244000D01*
X102362580Y-110264000D02*
X102081420Y-110264000D01*
%TO.C,C1*%
X105918580Y-109244000D02*
X105637420Y-109244000D01*
X105918580Y-110264000D02*
X105637420Y-110264000D01*
%TD*%
M02*
