%TF.GenerationSoftware,KiCad,Pcbnew,8.0.1*%
%TF.CreationDate,2024-07-29T23:12:38+02:00*%
%TF.ProjectId,FT_Hall,46545f48-616c-46c2-9e6b-696361645f70,rev?*%
%TF.SameCoordinates,Original*%
%TF.FileFunction,Soldermask,Top*%
%TF.FilePolarity,Negative*%
%FSLAX46Y46*%
G04 Gerber Fmt 4.6, Leading zero omitted, Abs format (unit mm)*
G04 Created by KiCad (PCBNEW 8.0.1) date 2024-07-29 23:12:38*
%MOMM*%
%LPD*%
G01*
G04 APERTURE LIST*
G04 APERTURE END LIST*
G36*
X104207403Y-113775418D02*
G01*
X104256066Y-113807934D01*
X104288582Y-113856597D01*
X104300000Y-113914000D01*
X104300000Y-115089000D01*
X104288582Y-115146403D01*
X104256066Y-115195066D01*
X104207403Y-115227582D01*
X104150000Y-115239000D01*
X103850000Y-115239000D01*
X103792597Y-115227582D01*
X103743934Y-115195066D01*
X103711418Y-115146403D01*
X103700000Y-115089000D01*
X103700000Y-113914000D01*
X103711418Y-113856597D01*
X103743934Y-113807934D01*
X103792597Y-113775418D01*
X103850000Y-113764000D01*
X104150000Y-113764000D01*
X104207403Y-113775418D01*
G37*
G36*
X103257403Y-111900418D02*
G01*
X103306066Y-111932934D01*
X103338582Y-111981597D01*
X103350000Y-112039000D01*
X103350000Y-113214000D01*
X103338582Y-113271403D01*
X103306066Y-113320066D01*
X103257403Y-113352582D01*
X103200000Y-113364000D01*
X102900000Y-113364000D01*
X102842597Y-113352582D01*
X102793934Y-113320066D01*
X102761418Y-113271403D01*
X102750000Y-113214000D01*
X102750000Y-112039000D01*
X102761418Y-111981597D01*
X102793934Y-111932934D01*
X102842597Y-111900418D01*
X102900000Y-111889000D01*
X103200000Y-111889000D01*
X103257403Y-111900418D01*
G37*
G36*
X105157403Y-111900418D02*
G01*
X105206066Y-111932934D01*
X105238582Y-111981597D01*
X105250000Y-112039000D01*
X105250000Y-113214000D01*
X105238582Y-113271403D01*
X105206066Y-113320066D01*
X105157403Y-113352582D01*
X105100000Y-113364000D01*
X104800000Y-113364000D01*
X104742597Y-113352582D01*
X104693934Y-113320066D01*
X104661418Y-113271403D01*
X104650000Y-113214000D01*
X104650000Y-112039000D01*
X104661418Y-111981597D01*
X104693934Y-111932934D01*
X104742597Y-111900418D01*
X104800000Y-111889000D01*
X105100000Y-111889000D01*
X105157403Y-111900418D01*
G37*
G36*
X101758104Y-109296127D02*
G01*
X101831099Y-109344901D01*
X101879873Y-109417896D01*
X101897000Y-109504000D01*
X101897000Y-110004000D01*
X101879873Y-110090104D01*
X101831099Y-110163099D01*
X101758104Y-110211873D01*
X101672000Y-110229000D01*
X101222000Y-110229000D01*
X101135896Y-110211873D01*
X101062901Y-110163099D01*
X101014127Y-110090104D01*
X100997000Y-110004000D01*
X100997000Y-109504000D01*
X101014127Y-109417896D01*
X101062901Y-109344901D01*
X101135896Y-109296127D01*
X101222000Y-109279000D01*
X101672000Y-109279000D01*
X101758104Y-109296127D01*
G37*
G36*
X103308104Y-109296127D02*
G01*
X103381099Y-109344901D01*
X103429873Y-109417896D01*
X103447000Y-109504000D01*
X103447000Y-110004000D01*
X103429873Y-110090104D01*
X103381099Y-110163099D01*
X103308104Y-110211873D01*
X103222000Y-110229000D01*
X102772000Y-110229000D01*
X102685896Y-110211873D01*
X102612901Y-110163099D01*
X102564127Y-110090104D01*
X102547000Y-110004000D01*
X102547000Y-109504000D01*
X102564127Y-109417896D01*
X102612901Y-109344901D01*
X102685896Y-109296127D01*
X102772000Y-109279000D01*
X103222000Y-109279000D01*
X103308104Y-109296127D01*
G37*
G36*
X105314104Y-109296127D02*
G01*
X105387099Y-109344901D01*
X105435873Y-109417896D01*
X105453000Y-109504000D01*
X105453000Y-110004000D01*
X105435873Y-110090104D01*
X105387099Y-110163099D01*
X105314104Y-110211873D01*
X105228000Y-110229000D01*
X104778000Y-110229000D01*
X104691896Y-110211873D01*
X104618901Y-110163099D01*
X104570127Y-110090104D01*
X104553000Y-110004000D01*
X104553000Y-109504000D01*
X104570127Y-109417896D01*
X104618901Y-109344901D01*
X104691896Y-109296127D01*
X104778000Y-109279000D01*
X105228000Y-109279000D01*
X105314104Y-109296127D01*
G37*
G36*
X106864104Y-109296127D02*
G01*
X106937099Y-109344901D01*
X106985873Y-109417896D01*
X107003000Y-109504000D01*
X107003000Y-110004000D01*
X106985873Y-110090104D01*
X106937099Y-110163099D01*
X106864104Y-110211873D01*
X106778000Y-110229000D01*
X106328000Y-110229000D01*
X106241896Y-110211873D01*
X106168901Y-110163099D01*
X106120127Y-110090104D01*
X106103000Y-110004000D01*
X106103000Y-109504000D01*
X106120127Y-109417896D01*
X106168901Y-109344901D01*
X106241896Y-109296127D01*
X106328000Y-109279000D01*
X106778000Y-109279000D01*
X106864104Y-109296127D01*
G37*
G36*
X106891537Y-107654224D02*
G01*
X106956421Y-107697579D01*
X106999776Y-107762463D01*
X107015000Y-107839000D01*
X107015000Y-108239000D01*
X106999776Y-108315537D01*
X106956421Y-108380421D01*
X106891537Y-108423776D01*
X106815000Y-108439000D01*
X106265000Y-108439000D01*
X106188463Y-108423776D01*
X106123579Y-108380421D01*
X106080224Y-108315537D01*
X106065000Y-108239000D01*
X106065000Y-107839000D01*
X106080224Y-107762463D01*
X106123579Y-107697579D01*
X106188463Y-107654224D01*
X106265000Y-107639000D01*
X106815000Y-107639000D01*
X106891537Y-107654224D01*
G37*
G36*
X106891537Y-106004224D02*
G01*
X106956421Y-106047579D01*
X106999776Y-106112463D01*
X107015000Y-106189000D01*
X107015000Y-106589000D01*
X106999776Y-106665537D01*
X106956421Y-106730421D01*
X106891537Y-106773776D01*
X106815000Y-106789000D01*
X106265000Y-106789000D01*
X106188463Y-106773776D01*
X106123579Y-106730421D01*
X106080224Y-106665537D01*
X106065000Y-106589000D01*
X106065000Y-106189000D01*
X106080224Y-106112463D01*
X106123579Y-106047579D01*
X106188463Y-106004224D01*
X106265000Y-105989000D01*
X106815000Y-105989000D01*
X106891537Y-106004224D01*
G37*
G36*
X101845290Y-100634625D02*
G01*
X101910355Y-100640726D01*
X101926899Y-100646515D01*
X101949713Y-100649839D01*
X101983242Y-100666230D01*
X102018760Y-100678659D01*
X102038569Y-100693278D01*
X102062390Y-100704924D01*
X102085042Y-100727576D01*
X102110002Y-100745997D01*
X102128422Y-100770956D01*
X102151076Y-100793610D01*
X102162721Y-100817431D01*
X102177340Y-100837239D01*
X102189766Y-100872752D01*
X102206161Y-100906287D01*
X102209485Y-100929104D01*
X102215273Y-100945644D01*
X102221372Y-101010692D01*
X102222000Y-101015000D01*
X102222000Y-103253000D01*
X102221372Y-103257309D01*
X102215273Y-103322355D01*
X102209485Y-103338894D01*
X102206161Y-103361713D01*
X102189765Y-103395249D01*
X102177340Y-103430760D01*
X102162723Y-103450565D01*
X102151076Y-103474390D01*
X102128419Y-103497046D01*
X102110002Y-103522002D01*
X102085046Y-103540419D01*
X102062390Y-103563076D01*
X102038565Y-103574723D01*
X102018760Y-103589340D01*
X101983249Y-103601765D01*
X101949713Y-103618161D01*
X101926894Y-103621485D01*
X101910355Y-103627273D01*
X101845309Y-103633372D01*
X101841000Y-103634000D01*
X101079000Y-103634000D01*
X101074692Y-103633372D01*
X101009644Y-103627273D01*
X100993104Y-103621485D01*
X100970287Y-103618161D01*
X100936752Y-103601766D01*
X100901239Y-103589340D01*
X100881431Y-103574721D01*
X100857610Y-103563076D01*
X100834956Y-103540422D01*
X100809997Y-103522002D01*
X100791576Y-103497042D01*
X100768924Y-103474390D01*
X100757278Y-103450569D01*
X100742659Y-103430760D01*
X100730230Y-103395242D01*
X100713839Y-103361713D01*
X100710515Y-103338899D01*
X100704726Y-103322355D01*
X100698625Y-103257290D01*
X100698000Y-103253000D01*
X100698000Y-101015000D01*
X100698624Y-101010711D01*
X100704726Y-100945644D01*
X100710515Y-100929099D01*
X100713839Y-100906287D01*
X100730229Y-100872760D01*
X100742659Y-100837239D01*
X100757280Y-100817427D01*
X100768924Y-100793610D01*
X100791573Y-100770960D01*
X100809997Y-100745997D01*
X100834960Y-100727573D01*
X100857610Y-100704924D01*
X100881427Y-100693280D01*
X100901239Y-100678659D01*
X100936760Y-100666229D01*
X100970287Y-100649839D01*
X100993099Y-100646515D01*
X101009644Y-100640726D01*
X101074711Y-100634624D01*
X101079000Y-100634000D01*
X101841000Y-100634000D01*
X101845290Y-100634625D01*
G37*
G36*
X104385290Y-100634625D02*
G01*
X104450355Y-100640726D01*
X104466899Y-100646515D01*
X104489713Y-100649839D01*
X104523242Y-100666230D01*
X104558760Y-100678659D01*
X104578569Y-100693278D01*
X104602390Y-100704924D01*
X104625042Y-100727576D01*
X104650002Y-100745997D01*
X104668422Y-100770956D01*
X104691076Y-100793610D01*
X104702721Y-100817431D01*
X104717340Y-100837239D01*
X104729766Y-100872752D01*
X104746161Y-100906287D01*
X104749485Y-100929104D01*
X104755273Y-100945644D01*
X104761372Y-101010692D01*
X104762000Y-101015000D01*
X104762000Y-103253000D01*
X104761372Y-103257309D01*
X104755273Y-103322355D01*
X104749485Y-103338894D01*
X104746161Y-103361713D01*
X104729765Y-103395249D01*
X104717340Y-103430760D01*
X104702723Y-103450565D01*
X104691076Y-103474390D01*
X104668419Y-103497046D01*
X104650002Y-103522002D01*
X104625046Y-103540419D01*
X104602390Y-103563076D01*
X104578565Y-103574723D01*
X104558760Y-103589340D01*
X104523249Y-103601765D01*
X104489713Y-103618161D01*
X104466894Y-103621485D01*
X104450355Y-103627273D01*
X104385309Y-103633372D01*
X104381000Y-103634000D01*
X103619000Y-103634000D01*
X103614692Y-103633372D01*
X103549644Y-103627273D01*
X103533104Y-103621485D01*
X103510287Y-103618161D01*
X103476752Y-103601766D01*
X103441239Y-103589340D01*
X103421431Y-103574721D01*
X103397610Y-103563076D01*
X103374956Y-103540422D01*
X103349997Y-103522002D01*
X103331576Y-103497042D01*
X103308924Y-103474390D01*
X103297278Y-103450569D01*
X103282659Y-103430760D01*
X103270230Y-103395242D01*
X103253839Y-103361713D01*
X103250515Y-103338899D01*
X103244726Y-103322355D01*
X103238625Y-103257290D01*
X103238000Y-103253000D01*
X103238000Y-101015000D01*
X103238624Y-101010711D01*
X103244726Y-100945644D01*
X103250515Y-100929099D01*
X103253839Y-100906287D01*
X103270229Y-100872760D01*
X103282659Y-100837239D01*
X103297280Y-100817427D01*
X103308924Y-100793610D01*
X103331573Y-100770960D01*
X103349997Y-100745997D01*
X103374960Y-100727573D01*
X103397610Y-100704924D01*
X103421427Y-100693280D01*
X103441239Y-100678659D01*
X103476760Y-100666229D01*
X103510287Y-100649839D01*
X103533099Y-100646515D01*
X103549644Y-100640726D01*
X103614711Y-100634624D01*
X103619000Y-100634000D01*
X104381000Y-100634000D01*
X104385290Y-100634625D01*
G37*
G36*
X106925290Y-100634625D02*
G01*
X106990355Y-100640726D01*
X107006899Y-100646515D01*
X107029713Y-100649839D01*
X107063242Y-100666230D01*
X107098760Y-100678659D01*
X107118569Y-100693278D01*
X107142390Y-100704924D01*
X107165042Y-100727576D01*
X107190002Y-100745997D01*
X107208422Y-100770956D01*
X107231076Y-100793610D01*
X107242721Y-100817431D01*
X107257340Y-100837239D01*
X107269766Y-100872752D01*
X107286161Y-100906287D01*
X107289485Y-100929104D01*
X107295273Y-100945644D01*
X107301372Y-101010692D01*
X107302000Y-101015000D01*
X107302000Y-103253000D01*
X107301372Y-103257309D01*
X107295273Y-103322355D01*
X107289485Y-103338894D01*
X107286161Y-103361713D01*
X107269765Y-103395249D01*
X107257340Y-103430760D01*
X107242723Y-103450565D01*
X107231076Y-103474390D01*
X107208419Y-103497046D01*
X107190002Y-103522002D01*
X107165046Y-103540419D01*
X107142390Y-103563076D01*
X107118565Y-103574723D01*
X107098760Y-103589340D01*
X107063249Y-103601765D01*
X107029713Y-103618161D01*
X107006894Y-103621485D01*
X106990355Y-103627273D01*
X106925309Y-103633372D01*
X106921000Y-103634000D01*
X106159000Y-103634000D01*
X106154692Y-103633372D01*
X106089644Y-103627273D01*
X106073104Y-103621485D01*
X106050287Y-103618161D01*
X106016752Y-103601766D01*
X105981239Y-103589340D01*
X105961431Y-103574721D01*
X105937610Y-103563076D01*
X105914956Y-103540422D01*
X105889997Y-103522002D01*
X105871576Y-103497042D01*
X105848924Y-103474390D01*
X105837278Y-103450569D01*
X105822659Y-103430760D01*
X105810230Y-103395242D01*
X105793839Y-103361713D01*
X105790515Y-103338899D01*
X105784726Y-103322355D01*
X105778625Y-103257290D01*
X105778000Y-103253000D01*
X105778000Y-101015000D01*
X105778624Y-101010711D01*
X105784726Y-100945644D01*
X105790515Y-100929099D01*
X105793839Y-100906287D01*
X105810229Y-100872760D01*
X105822659Y-100837239D01*
X105837280Y-100817427D01*
X105848924Y-100793610D01*
X105871573Y-100770960D01*
X105889997Y-100745997D01*
X105914960Y-100727573D01*
X105937610Y-100704924D01*
X105961427Y-100693280D01*
X105981239Y-100678659D01*
X106016760Y-100666229D01*
X106050287Y-100649839D01*
X106073099Y-100646515D01*
X106089644Y-100640726D01*
X106154711Y-100634624D01*
X106159000Y-100634000D01*
X106921000Y-100634000D01*
X106925290Y-100634625D01*
G37*
M02*
