%TF.GenerationSoftware,KiCad,Pcbnew,8.0.1*%
%TF.CreationDate,2024-07-29T23:12:38+02:00*%
%TF.ProjectId,FT_Hall,46545f48-616c-46c2-9e6b-696361645f70,rev?*%
%TF.SameCoordinates,Original*%
%TF.FileFunction,Copper,L1,Top*%
%TF.FilePolarity,Positive*%
%FSLAX46Y46*%
G04 Gerber Fmt 4.6, Leading zero omitted, Abs format (unit mm)*
G04 Created by KiCad (PCBNEW 8.0.1) date 2024-07-29 23:12:38*
%MOMM*%
%LPD*%
G01*
G04 APERTURE LIST*
G04 Aperture macros list*
%AMRoundRect*
0 Rectangle with rounded corners*
0 $1 Rounding radius*
0 $2 $3 $4 $5 $6 $7 $8 $9 X,Y pos of 4 corners*
0 Add a 4 corners polygon primitive as box body*
4,1,4,$2,$3,$4,$5,$6,$7,$8,$9,$2,$3,0*
0 Add four circle primitives for the rounded corners*
1,1,$1+$1,$2,$3*
1,1,$1+$1,$4,$5*
1,1,$1+$1,$6,$7*
1,1,$1+$1,$8,$9*
0 Add four rect primitives between the rounded corners*
20,1,$1+$1,$2,$3,$4,$5,0*
20,1,$1+$1,$4,$5,$6,$7,0*
20,1,$1+$1,$6,$7,$8,$9,0*
20,1,$1+$1,$8,$9,$2,$3,0*%
G04 Aperture macros list end*
%TA.AperFunction,SMDPad,CuDef*%
%ADD10RoundRect,0.200000X0.275000X-0.200000X0.275000X0.200000X-0.275000X0.200000X-0.275000X-0.200000X0*%
%TD*%
%TA.AperFunction,SMDPad,CuDef*%
%ADD11RoundRect,0.150000X-0.150000X0.587500X-0.150000X-0.587500X0.150000X-0.587500X0.150000X0.587500X0*%
%TD*%
%TA.AperFunction,SMDPad,CuDef*%
%ADD12RoundRect,0.225000X0.225000X0.250000X-0.225000X0.250000X-0.225000X-0.250000X0.225000X-0.250000X0*%
%TD*%
%TA.AperFunction,SMDPad,CuDef*%
%ADD13RoundRect,0.381000X0.381000X-1.119000X0.381000X1.119000X-0.381000X1.119000X-0.381000X-1.119000X0*%
%TD*%
%TA.AperFunction,Conductor*%
%ADD14C,0.508000*%
%TD*%
G04 APERTURE END LIST*
D10*
%TO.P,R1,1*%
%TO.N,/VS*%
X106540000Y-108039000D03*
%TO.P,R1,2*%
%TO.N,+12V*%
X106540000Y-106389000D03*
%TD*%
D11*
%TO.P,HAL1,1,VS*%
%TO.N,/VS*%
X104950000Y-112626500D03*
%TO.P,HAL1,2,Q*%
%TO.N,/Q*%
X103050000Y-112626500D03*
%TO.P,HAL1,3,GND*%
%TO.N,GND*%
X104000000Y-114501500D03*
%TD*%
D12*
%TO.P,C2,1*%
%TO.N,GND*%
X102997000Y-109754000D03*
%TO.P,C2,2*%
%TO.N,/Q*%
X101447000Y-109754000D03*
%TD*%
%TO.P,C1,1*%
%TO.N,/VS*%
X106553000Y-109754000D03*
%TO.P,C1,2*%
%TO.N,GND*%
X105003000Y-109754000D03*
%TD*%
D13*
%TO.P,CON1,1,Pin_1*%
%TO.N,/Q*%
X101460000Y-102134000D03*
%TO.P,CON1,2,Pin_2*%
%TO.N,GND*%
X104000000Y-102134000D03*
%TO.P,CON1,3,Pin_3*%
%TO.N,+12V*%
X106540000Y-102134000D03*
%TD*%
D14*
%TO.N,/VS*%
X106540000Y-109741000D02*
X106553000Y-109754000D01*
X106540000Y-108039000D02*
X106540000Y-109741000D01*
X104950000Y-111357000D02*
X106553000Y-109754000D01*
X104950000Y-112064000D02*
X104950000Y-111357000D01*
%TO.N,GND*%
X102997000Y-109754000D02*
X104000000Y-109754000D01*
X104000000Y-109754000D02*
X104000000Y-115064000D01*
X104000000Y-102134000D02*
X104000000Y-109500000D01*
X105003000Y-109754000D02*
X104000000Y-109754000D01*
X104000000Y-109500000D02*
X104000000Y-109754000D01*
%TO.N,/Q*%
X103050000Y-112064000D02*
X103050000Y-111357000D01*
X101460000Y-109741000D02*
X101447000Y-109754000D01*
X103050000Y-111357000D02*
X101447000Y-109754000D01*
X101460000Y-102134000D02*
X101460000Y-109741000D01*
%TO.N,+12V*%
X106540000Y-102134000D02*
X106540000Y-106389000D01*
%TD*%
M02*
