%TF.GenerationSoftware,KiCad,Pcbnew,8.0.1*%
%TF.CreationDate,2024-07-29T23:12:38+02:00*%
%TF.ProjectId,FT_Hall,46545f48-616c-46c2-9e6b-696361645f70,rev?*%
%TF.SameCoordinates,Original*%
%TF.FileFunction,Legend,Bot*%
%TF.FilePolarity,Positive*%
%FSLAX46Y46*%
G04 Gerber Fmt 4.6, Leading zero omitted, Abs format (unit mm)*
G04 Created by KiCad (PCBNEW 8.0.1) date 2024-07-29 23:12:38*
%MOMM*%
%LPD*%
G01*
G04 APERTURE LIST*
%ADD10C,0.200000*%
G04 APERTURE END LIST*
D10*
X101561577Y-101821006D02*
X101561577Y-101487673D01*
X102085387Y-101487673D02*
X101085387Y-101487673D01*
X101085387Y-101487673D02*
X101085387Y-101963863D01*
X102085387Y-102344816D02*
X101418720Y-102344816D01*
X101085387Y-102344816D02*
X101133006Y-102297197D01*
X101133006Y-102297197D02*
X101180625Y-102344816D01*
X101180625Y-102344816D02*
X101133006Y-102392435D01*
X101133006Y-102392435D02*
X101085387Y-102344816D01*
X101085387Y-102344816D02*
X101180625Y-102344816D01*
X102085387Y-102821006D02*
X101418720Y-102821006D01*
X101609196Y-102821006D02*
X101513958Y-102868625D01*
X101513958Y-102868625D02*
X101466339Y-102916244D01*
X101466339Y-102916244D02*
X101418720Y-103011482D01*
X101418720Y-103011482D02*
X101418720Y-103106720D01*
X102037768Y-103821006D02*
X102085387Y-103725768D01*
X102085387Y-103725768D02*
X102085387Y-103535292D01*
X102085387Y-103535292D02*
X102037768Y-103440054D01*
X102037768Y-103440054D02*
X101942529Y-103392435D01*
X101942529Y-103392435D02*
X101561577Y-103392435D01*
X101561577Y-103392435D02*
X101466339Y-103440054D01*
X101466339Y-103440054D02*
X101418720Y-103535292D01*
X101418720Y-103535292D02*
X101418720Y-103725768D01*
X101418720Y-103725768D02*
X101466339Y-103821006D01*
X101466339Y-103821006D02*
X101561577Y-103868625D01*
X101561577Y-103868625D02*
X101656815Y-103868625D01*
X101656815Y-103868625D02*
X101752053Y-103392435D01*
X102037768Y-104249578D02*
X102085387Y-104344816D01*
X102085387Y-104344816D02*
X102085387Y-104535292D01*
X102085387Y-104535292D02*
X102037768Y-104630530D01*
X102037768Y-104630530D02*
X101942529Y-104678149D01*
X101942529Y-104678149D02*
X101894910Y-104678149D01*
X101894910Y-104678149D02*
X101799672Y-104630530D01*
X101799672Y-104630530D02*
X101752053Y-104535292D01*
X101752053Y-104535292D02*
X101752053Y-104392435D01*
X101752053Y-104392435D02*
X101704434Y-104297197D01*
X101704434Y-104297197D02*
X101609196Y-104249578D01*
X101609196Y-104249578D02*
X101561577Y-104249578D01*
X101561577Y-104249578D02*
X101466339Y-104297197D01*
X101466339Y-104297197D02*
X101418720Y-104392435D01*
X101418720Y-104392435D02*
X101418720Y-104535292D01*
X101418720Y-104535292D02*
X101466339Y-104630530D01*
X101418720Y-105106721D02*
X102418720Y-105106721D01*
X101466339Y-105106721D02*
X101418720Y-105201959D01*
X101418720Y-105201959D02*
X101418720Y-105392435D01*
X101418720Y-105392435D02*
X101466339Y-105487673D01*
X101466339Y-105487673D02*
X101513958Y-105535292D01*
X101513958Y-105535292D02*
X101609196Y-105582911D01*
X101609196Y-105582911D02*
X101894910Y-105582911D01*
X101894910Y-105582911D02*
X101990148Y-105535292D01*
X101990148Y-105535292D02*
X102037768Y-105487673D01*
X102037768Y-105487673D02*
X102085387Y-105392435D01*
X102085387Y-105392435D02*
X102085387Y-105201959D01*
X102085387Y-105201959D02*
X102037768Y-105106721D01*
X102085387Y-106154340D02*
X102037768Y-106059102D01*
X102037768Y-106059102D02*
X101990148Y-106011483D01*
X101990148Y-106011483D02*
X101894910Y-105963864D01*
X101894910Y-105963864D02*
X101609196Y-105963864D01*
X101609196Y-105963864D02*
X101513958Y-106011483D01*
X101513958Y-106011483D02*
X101466339Y-106059102D01*
X101466339Y-106059102D02*
X101418720Y-106154340D01*
X101418720Y-106154340D02*
X101418720Y-106297197D01*
X101418720Y-106297197D02*
X101466339Y-106392435D01*
X101466339Y-106392435D02*
X101513958Y-106440054D01*
X101513958Y-106440054D02*
X101609196Y-106487673D01*
X101609196Y-106487673D02*
X101894910Y-106487673D01*
X101894910Y-106487673D02*
X101990148Y-106440054D01*
X101990148Y-106440054D02*
X102037768Y-106392435D01*
X102037768Y-106392435D02*
X102085387Y-106297197D01*
X102085387Y-106297197D02*
X102085387Y-106154340D01*
X102085387Y-106916245D02*
X101418720Y-106916245D01*
X101609196Y-106916245D02*
X101513958Y-106963864D01*
X101513958Y-106963864D02*
X101466339Y-107011483D01*
X101466339Y-107011483D02*
X101418720Y-107106721D01*
X101418720Y-107106721D02*
X101418720Y-107201959D01*
X101418720Y-107392436D02*
X101418720Y-107773388D01*
X101085387Y-107535293D02*
X101942529Y-107535293D01*
X101942529Y-107535293D02*
X102037768Y-107582912D01*
X102037768Y-107582912D02*
X102085387Y-107678150D01*
X102085387Y-107678150D02*
X102085387Y-107773388D01*
X101418720Y-108725770D02*
X101418720Y-109106722D01*
X101085387Y-108868627D02*
X101942529Y-108868627D01*
X101942529Y-108868627D02*
X102037768Y-108916246D01*
X102037768Y-108916246D02*
X102085387Y-109011484D01*
X102085387Y-109011484D02*
X102085387Y-109106722D01*
X102085387Y-109440056D02*
X101418720Y-109440056D01*
X101085387Y-109440056D02*
X101133006Y-109392437D01*
X101133006Y-109392437D02*
X101180625Y-109440056D01*
X101180625Y-109440056D02*
X101133006Y-109487675D01*
X101133006Y-109487675D02*
X101085387Y-109440056D01*
X101085387Y-109440056D02*
X101180625Y-109440056D01*
X102085387Y-109916246D02*
X101418720Y-109916246D01*
X101513958Y-109916246D02*
X101466339Y-109963865D01*
X101466339Y-109963865D02*
X101418720Y-110059103D01*
X101418720Y-110059103D02*
X101418720Y-110201960D01*
X101418720Y-110201960D02*
X101466339Y-110297198D01*
X101466339Y-110297198D02*
X101561577Y-110344817D01*
X101561577Y-110344817D02*
X102085387Y-110344817D01*
X101561577Y-110344817D02*
X101466339Y-110392436D01*
X101466339Y-110392436D02*
X101418720Y-110487674D01*
X101418720Y-110487674D02*
X101418720Y-110630531D01*
X101418720Y-110630531D02*
X101466339Y-110725770D01*
X101466339Y-110725770D02*
X101561577Y-110773389D01*
X101561577Y-110773389D02*
X102085387Y-110773389D01*
X102037768Y-111630531D02*
X102085387Y-111535293D01*
X102085387Y-111535293D02*
X102085387Y-111344817D01*
X102085387Y-111344817D02*
X102037768Y-111249579D01*
X102037768Y-111249579D02*
X101942529Y-111201960D01*
X101942529Y-111201960D02*
X101561577Y-111201960D01*
X101561577Y-111201960D02*
X101466339Y-111249579D01*
X101466339Y-111249579D02*
X101418720Y-111344817D01*
X101418720Y-111344817D02*
X101418720Y-111535293D01*
X101418720Y-111535293D02*
X101466339Y-111630531D01*
X101466339Y-111630531D02*
X101561577Y-111678150D01*
X101561577Y-111678150D02*
X101656815Y-111678150D01*
X101656815Y-111678150D02*
X101752053Y-111201960D01*
X102085387Y-112106722D02*
X101418720Y-112106722D01*
X101609196Y-112106722D02*
X101513958Y-112154341D01*
X101513958Y-112154341D02*
X101466339Y-112201960D01*
X101466339Y-112201960D02*
X101418720Y-112297198D01*
X101418720Y-112297198D02*
X101418720Y-112392436D01*
X103695331Y-101487673D02*
X102695331Y-101487673D01*
X103171521Y-101487673D02*
X103171521Y-102059101D01*
X103695331Y-102059101D02*
X102695331Y-102059101D01*
X103695331Y-102963863D02*
X103171521Y-102963863D01*
X103171521Y-102963863D02*
X103076283Y-102916244D01*
X103076283Y-102916244D02*
X103028664Y-102821006D01*
X103028664Y-102821006D02*
X103028664Y-102630530D01*
X103028664Y-102630530D02*
X103076283Y-102535292D01*
X103647712Y-102963863D02*
X103695331Y-102868625D01*
X103695331Y-102868625D02*
X103695331Y-102630530D01*
X103695331Y-102630530D02*
X103647712Y-102535292D01*
X103647712Y-102535292D02*
X103552473Y-102487673D01*
X103552473Y-102487673D02*
X103457235Y-102487673D01*
X103457235Y-102487673D02*
X103361997Y-102535292D01*
X103361997Y-102535292D02*
X103314378Y-102630530D01*
X103314378Y-102630530D02*
X103314378Y-102868625D01*
X103314378Y-102868625D02*
X103266759Y-102963863D01*
X103695331Y-103582911D02*
X103647712Y-103487673D01*
X103647712Y-103487673D02*
X103552473Y-103440054D01*
X103552473Y-103440054D02*
X102695331Y-103440054D01*
X103695331Y-104106721D02*
X103647712Y-104011483D01*
X103647712Y-104011483D02*
X103552473Y-103963864D01*
X103552473Y-103963864D02*
X102695331Y-103963864D01*
X103647712Y-105201960D02*
X103695331Y-105297198D01*
X103695331Y-105297198D02*
X103695331Y-105487674D01*
X103695331Y-105487674D02*
X103647712Y-105582912D01*
X103647712Y-105582912D02*
X103552473Y-105630531D01*
X103552473Y-105630531D02*
X103504854Y-105630531D01*
X103504854Y-105630531D02*
X103409616Y-105582912D01*
X103409616Y-105582912D02*
X103361997Y-105487674D01*
X103361997Y-105487674D02*
X103361997Y-105344817D01*
X103361997Y-105344817D02*
X103314378Y-105249579D01*
X103314378Y-105249579D02*
X103219140Y-105201960D01*
X103219140Y-105201960D02*
X103171521Y-105201960D01*
X103171521Y-105201960D02*
X103076283Y-105249579D01*
X103076283Y-105249579D02*
X103028664Y-105344817D01*
X103028664Y-105344817D02*
X103028664Y-105487674D01*
X103028664Y-105487674D02*
X103076283Y-105582912D01*
X103028664Y-105963865D02*
X103695331Y-106154341D01*
X103695331Y-106154341D02*
X103219140Y-106344817D01*
X103219140Y-106344817D02*
X103695331Y-106535293D01*
X103695331Y-106535293D02*
X103028664Y-106725769D01*
X103695331Y-107106722D02*
X103028664Y-107106722D01*
X102695331Y-107106722D02*
X102742950Y-107059103D01*
X102742950Y-107059103D02*
X102790569Y-107106722D01*
X102790569Y-107106722D02*
X102742950Y-107154341D01*
X102742950Y-107154341D02*
X102695331Y-107106722D01*
X102695331Y-107106722D02*
X102790569Y-107106722D01*
X103028664Y-107440055D02*
X103028664Y-107821007D01*
X102695331Y-107582912D02*
X103552473Y-107582912D01*
X103552473Y-107582912D02*
X103647712Y-107630531D01*
X103647712Y-107630531D02*
X103695331Y-107725769D01*
X103695331Y-107725769D02*
X103695331Y-107821007D01*
X103647712Y-108582912D02*
X103695331Y-108487674D01*
X103695331Y-108487674D02*
X103695331Y-108297198D01*
X103695331Y-108297198D02*
X103647712Y-108201960D01*
X103647712Y-108201960D02*
X103600092Y-108154341D01*
X103600092Y-108154341D02*
X103504854Y-108106722D01*
X103504854Y-108106722D02*
X103219140Y-108106722D01*
X103219140Y-108106722D02*
X103123902Y-108154341D01*
X103123902Y-108154341D02*
X103076283Y-108201960D01*
X103076283Y-108201960D02*
X103028664Y-108297198D01*
X103028664Y-108297198D02*
X103028664Y-108487674D01*
X103028664Y-108487674D02*
X103076283Y-108582912D01*
X103695331Y-109011484D02*
X102695331Y-109011484D01*
X103695331Y-109440055D02*
X103171521Y-109440055D01*
X103171521Y-109440055D02*
X103076283Y-109392436D01*
X103076283Y-109392436D02*
X103028664Y-109297198D01*
X103028664Y-109297198D02*
X103028664Y-109154341D01*
X103028664Y-109154341D02*
X103076283Y-109059103D01*
X103076283Y-109059103D02*
X103123902Y-109011484D01*
X105305275Y-101487673D02*
X104305275Y-101487673D01*
X104305275Y-101487673D02*
X105019560Y-101821006D01*
X105019560Y-101821006D02*
X104305275Y-102154339D01*
X104305275Y-102154339D02*
X105305275Y-102154339D01*
X105305275Y-103059101D02*
X104781465Y-103059101D01*
X104781465Y-103059101D02*
X104686227Y-103011482D01*
X104686227Y-103011482D02*
X104638608Y-102916244D01*
X104638608Y-102916244D02*
X104638608Y-102725768D01*
X104638608Y-102725768D02*
X104686227Y-102630530D01*
X105257656Y-103059101D02*
X105305275Y-102963863D01*
X105305275Y-102963863D02*
X105305275Y-102725768D01*
X105305275Y-102725768D02*
X105257656Y-102630530D01*
X105257656Y-102630530D02*
X105162417Y-102582911D01*
X105162417Y-102582911D02*
X105067179Y-102582911D01*
X105067179Y-102582911D02*
X104971941Y-102630530D01*
X104971941Y-102630530D02*
X104924322Y-102725768D01*
X104924322Y-102725768D02*
X104924322Y-102963863D01*
X104924322Y-102963863D02*
X104876703Y-103059101D01*
X105305275Y-103535292D02*
X104638608Y-103535292D01*
X104829084Y-103535292D02*
X104733846Y-103582911D01*
X104733846Y-103582911D02*
X104686227Y-103630530D01*
X104686227Y-103630530D02*
X104638608Y-103725768D01*
X104638608Y-103725768D02*
X104638608Y-103821006D01*
X104638608Y-104011483D02*
X104638608Y-104392435D01*
X104305275Y-104154340D02*
X105162417Y-104154340D01*
X105162417Y-104154340D02*
X105257656Y-104201959D01*
X105257656Y-104201959D02*
X105305275Y-104297197D01*
X105305275Y-104297197D02*
X105305275Y-104392435D01*
X105305275Y-104725769D02*
X104638608Y-104725769D01*
X104305275Y-104725769D02*
X104352894Y-104678150D01*
X104352894Y-104678150D02*
X104400513Y-104725769D01*
X104400513Y-104725769D02*
X104352894Y-104773388D01*
X104352894Y-104773388D02*
X104305275Y-104725769D01*
X104305275Y-104725769D02*
X104400513Y-104725769D01*
X104638608Y-105201959D02*
X105305275Y-105201959D01*
X104733846Y-105201959D02*
X104686227Y-105249578D01*
X104686227Y-105249578D02*
X104638608Y-105344816D01*
X104638608Y-105344816D02*
X104638608Y-105487673D01*
X104638608Y-105487673D02*
X104686227Y-105582911D01*
X104686227Y-105582911D02*
X104781465Y-105630530D01*
X104781465Y-105630530D02*
X105305275Y-105630530D01*
X104305275Y-106725769D02*
X105305275Y-107059102D01*
X105305275Y-107059102D02*
X104305275Y-107392435D01*
X105257656Y-108106721D02*
X105305275Y-108011483D01*
X105305275Y-108011483D02*
X105305275Y-107821007D01*
X105305275Y-107821007D02*
X105257656Y-107725769D01*
X105257656Y-107725769D02*
X105162417Y-107678150D01*
X105162417Y-107678150D02*
X104781465Y-107678150D01*
X104781465Y-107678150D02*
X104686227Y-107725769D01*
X104686227Y-107725769D02*
X104638608Y-107821007D01*
X104638608Y-107821007D02*
X104638608Y-108011483D01*
X104638608Y-108011483D02*
X104686227Y-108106721D01*
X104686227Y-108106721D02*
X104781465Y-108154340D01*
X104781465Y-108154340D02*
X104876703Y-108154340D01*
X104876703Y-108154340D02*
X104971941Y-107678150D01*
X104638608Y-108582912D02*
X105495751Y-108582912D01*
X105495751Y-108582912D02*
X105590989Y-108535293D01*
X105590989Y-108535293D02*
X105638608Y-108440055D01*
X105638608Y-108440055D02*
X105638608Y-108392436D01*
X104305275Y-108582912D02*
X104352894Y-108535293D01*
X104352894Y-108535293D02*
X104400513Y-108582912D01*
X104400513Y-108582912D02*
X104352894Y-108630531D01*
X104352894Y-108630531D02*
X104305275Y-108582912D01*
X104305275Y-108582912D02*
X104400513Y-108582912D01*
X105305275Y-109059102D02*
X104638608Y-109059102D01*
X104733846Y-109059102D02*
X104686227Y-109106721D01*
X104686227Y-109106721D02*
X104638608Y-109201959D01*
X104638608Y-109201959D02*
X104638608Y-109344816D01*
X104638608Y-109344816D02*
X104686227Y-109440054D01*
X104686227Y-109440054D02*
X104781465Y-109487673D01*
X104781465Y-109487673D02*
X105305275Y-109487673D01*
X104781465Y-109487673D02*
X104686227Y-109535292D01*
X104686227Y-109535292D02*
X104638608Y-109630530D01*
X104638608Y-109630530D02*
X104638608Y-109773387D01*
X104638608Y-109773387D02*
X104686227Y-109868626D01*
X104686227Y-109868626D02*
X104781465Y-109916245D01*
X104781465Y-109916245D02*
X105305275Y-109916245D01*
X105305275Y-110821006D02*
X104781465Y-110821006D01*
X104781465Y-110821006D02*
X104686227Y-110773387D01*
X104686227Y-110773387D02*
X104638608Y-110678149D01*
X104638608Y-110678149D02*
X104638608Y-110487673D01*
X104638608Y-110487673D02*
X104686227Y-110392435D01*
X105257656Y-110821006D02*
X105305275Y-110725768D01*
X105305275Y-110725768D02*
X105305275Y-110487673D01*
X105305275Y-110487673D02*
X105257656Y-110392435D01*
X105257656Y-110392435D02*
X105162417Y-110344816D01*
X105162417Y-110344816D02*
X105067179Y-110344816D01*
X105067179Y-110344816D02*
X104971941Y-110392435D01*
X104971941Y-110392435D02*
X104924322Y-110487673D01*
X104924322Y-110487673D02*
X104924322Y-110725768D01*
X104924322Y-110725768D02*
X104876703Y-110821006D01*
X104638608Y-111297197D02*
X105305275Y-111297197D01*
X104733846Y-111297197D02*
X104686227Y-111344816D01*
X104686227Y-111344816D02*
X104638608Y-111440054D01*
X104638608Y-111440054D02*
X104638608Y-111582911D01*
X104638608Y-111582911D02*
X104686227Y-111678149D01*
X104686227Y-111678149D02*
X104781465Y-111725768D01*
X104781465Y-111725768D02*
X105305275Y-111725768D01*
X106248552Y-101392435D02*
X106915219Y-101630530D01*
X106915219Y-101630530D02*
X106248552Y-101868625D01*
X106915219Y-102773387D02*
X106915219Y-102201959D01*
X106915219Y-102487673D02*
X105915219Y-102487673D01*
X105915219Y-102487673D02*
X106058076Y-102392435D01*
X106058076Y-102392435D02*
X106153314Y-102297197D01*
X106153314Y-102297197D02*
X106200933Y-102201959D01*
M02*
