%TF.GenerationSoftware,KiCad,Pcbnew,8.0.1*%
%TF.CreationDate,2024-08-03T11:03:04+02:00*%
%TF.ProjectId,FT_TargetSwitch,46545f54-6172-4676-9574-537769746368,rev?*%
%TF.SameCoordinates,Original*%
%TF.FileFunction,Legend,Top*%
%TF.FilePolarity,Positive*%
%FSLAX46Y46*%
G04 Gerber Fmt 4.6, Leading zero omitted, Abs format (unit mm)*
G04 Created by KiCad (PCBNEW 8.0.1) date 2024-08-03 11:03:04*
%MOMM*%
%LPD*%
G01*
G04 APERTURE LIST*
%ADD10C,0.200000*%
%ADD11C,0.150000*%
%ADD12C,0.300000*%
%ADD13C,0.120000*%
%ADD14C,0.000000*%
G04 APERTURE END LIST*
D10*
X129327219Y-124630326D02*
X128327219Y-124630326D01*
X128803409Y-124630326D02*
X128803409Y-124058898D01*
X129327219Y-124058898D02*
X128327219Y-124058898D01*
X129041504Y-123630326D02*
X129041504Y-123154136D01*
X129327219Y-123725564D02*
X128327219Y-123392231D01*
X128327219Y-123392231D02*
X129327219Y-123058898D01*
X129327219Y-122249374D02*
X129327219Y-122725564D01*
X129327219Y-122725564D02*
X128327219Y-122725564D01*
D11*
X101388152Y-134110286D02*
X102197676Y-134110286D01*
X102197676Y-134110286D02*
X102292914Y-134157905D01*
X102292914Y-134157905D02*
X102340533Y-134205524D01*
X102340533Y-134205524D02*
X102388152Y-134300762D01*
X102388152Y-134300762D02*
X102388152Y-134443619D01*
X102388152Y-134443619D02*
X102340533Y-134538857D01*
X102007200Y-134110286D02*
X102054819Y-134205524D01*
X102054819Y-134205524D02*
X102054819Y-134396000D01*
X102054819Y-134396000D02*
X102007200Y-134491238D01*
X102007200Y-134491238D02*
X101959580Y-134538857D01*
X101959580Y-134538857D02*
X101864342Y-134586476D01*
X101864342Y-134586476D02*
X101578628Y-134586476D01*
X101578628Y-134586476D02*
X101483390Y-134538857D01*
X101483390Y-134538857D02*
X101435771Y-134491238D01*
X101435771Y-134491238D02*
X101388152Y-134396000D01*
X101388152Y-134396000D02*
X101388152Y-134205524D01*
X101388152Y-134205524D02*
X101435771Y-134110286D01*
X102054819Y-133634095D02*
X101388152Y-133634095D01*
X101054819Y-133634095D02*
X101102438Y-133681714D01*
X101102438Y-133681714D02*
X101150057Y-133634095D01*
X101150057Y-133634095D02*
X101102438Y-133586476D01*
X101102438Y-133586476D02*
X101054819Y-133634095D01*
X101054819Y-133634095D02*
X101150057Y-133634095D01*
X101388152Y-133300762D02*
X101388152Y-132919810D01*
X101054819Y-133157905D02*
X101911961Y-133157905D01*
X101911961Y-133157905D02*
X102007200Y-133110286D01*
X102007200Y-133110286D02*
X102054819Y-133015048D01*
X102054819Y-133015048D02*
X102054819Y-132919810D01*
X102054819Y-132586476D02*
X101054819Y-132586476D01*
X102054819Y-132157905D02*
X101531009Y-132157905D01*
X101531009Y-132157905D02*
X101435771Y-132205524D01*
X101435771Y-132205524D02*
X101388152Y-132300762D01*
X101388152Y-132300762D02*
X101388152Y-132443619D01*
X101388152Y-132443619D02*
X101435771Y-132538857D01*
X101435771Y-132538857D02*
X101483390Y-132586476D01*
X101388152Y-131253143D02*
X102054819Y-131253143D01*
X101388152Y-131681714D02*
X101911961Y-131681714D01*
X101911961Y-131681714D02*
X102007200Y-131634095D01*
X102007200Y-131634095D02*
X102054819Y-131538857D01*
X102054819Y-131538857D02*
X102054819Y-131396000D01*
X102054819Y-131396000D02*
X102007200Y-131300762D01*
X102007200Y-131300762D02*
X101959580Y-131253143D01*
X102054819Y-130776952D02*
X101054819Y-130776952D01*
X101435771Y-130776952D02*
X101388152Y-130681714D01*
X101388152Y-130681714D02*
X101388152Y-130491238D01*
X101388152Y-130491238D02*
X101435771Y-130396000D01*
X101435771Y-130396000D02*
X101483390Y-130348381D01*
X101483390Y-130348381D02*
X101578628Y-130300762D01*
X101578628Y-130300762D02*
X101864342Y-130300762D01*
X101864342Y-130300762D02*
X101959580Y-130348381D01*
X101959580Y-130348381D02*
X102007200Y-130396000D01*
X102007200Y-130396000D02*
X102054819Y-130491238D01*
X102054819Y-130491238D02*
X102054819Y-130681714D01*
X102054819Y-130681714D02*
X102007200Y-130776952D01*
X101959580Y-129872190D02*
X102007200Y-129824571D01*
X102007200Y-129824571D02*
X102054819Y-129872190D01*
X102054819Y-129872190D02*
X102007200Y-129919809D01*
X102007200Y-129919809D02*
X101959580Y-129872190D01*
X101959580Y-129872190D02*
X102054819Y-129872190D01*
X102007200Y-128967429D02*
X102054819Y-129062667D01*
X102054819Y-129062667D02*
X102054819Y-129253143D01*
X102054819Y-129253143D02*
X102007200Y-129348381D01*
X102007200Y-129348381D02*
X101959580Y-129396000D01*
X101959580Y-129396000D02*
X101864342Y-129443619D01*
X101864342Y-129443619D02*
X101578628Y-129443619D01*
X101578628Y-129443619D02*
X101483390Y-129396000D01*
X101483390Y-129396000D02*
X101435771Y-129348381D01*
X101435771Y-129348381D02*
X101388152Y-129253143D01*
X101388152Y-129253143D02*
X101388152Y-129062667D01*
X101388152Y-129062667D02*
X101435771Y-128967429D01*
X102054819Y-128396000D02*
X102007200Y-128491238D01*
X102007200Y-128491238D02*
X101959580Y-128538857D01*
X101959580Y-128538857D02*
X101864342Y-128586476D01*
X101864342Y-128586476D02*
X101578628Y-128586476D01*
X101578628Y-128586476D02*
X101483390Y-128538857D01*
X101483390Y-128538857D02*
X101435771Y-128491238D01*
X101435771Y-128491238D02*
X101388152Y-128396000D01*
X101388152Y-128396000D02*
X101388152Y-128253143D01*
X101388152Y-128253143D02*
X101435771Y-128157905D01*
X101435771Y-128157905D02*
X101483390Y-128110286D01*
X101483390Y-128110286D02*
X101578628Y-128062667D01*
X101578628Y-128062667D02*
X101864342Y-128062667D01*
X101864342Y-128062667D02*
X101959580Y-128110286D01*
X101959580Y-128110286D02*
X102007200Y-128157905D01*
X102007200Y-128157905D02*
X102054819Y-128253143D01*
X102054819Y-128253143D02*
X102054819Y-128396000D01*
X102054819Y-127634095D02*
X101388152Y-127634095D01*
X101483390Y-127634095D02*
X101435771Y-127586476D01*
X101435771Y-127586476D02*
X101388152Y-127491238D01*
X101388152Y-127491238D02*
X101388152Y-127348381D01*
X101388152Y-127348381D02*
X101435771Y-127253143D01*
X101435771Y-127253143D02*
X101531009Y-127205524D01*
X101531009Y-127205524D02*
X102054819Y-127205524D01*
X101531009Y-127205524D02*
X101435771Y-127157905D01*
X101435771Y-127157905D02*
X101388152Y-127062667D01*
X101388152Y-127062667D02*
X101388152Y-126919810D01*
X101388152Y-126919810D02*
X101435771Y-126824571D01*
X101435771Y-126824571D02*
X101531009Y-126776952D01*
X101531009Y-126776952D02*
X102054819Y-126776952D01*
X101007200Y-125586477D02*
X102292914Y-126443619D01*
X101054819Y-125396000D02*
X101054819Y-124824572D01*
X102054819Y-125110286D02*
X101054819Y-125110286D01*
X102007200Y-124110286D02*
X102054819Y-124205524D01*
X102054819Y-124205524D02*
X102054819Y-124396000D01*
X102054819Y-124396000D02*
X102007200Y-124491238D01*
X102007200Y-124491238D02*
X101911961Y-124538857D01*
X101911961Y-124538857D02*
X101531009Y-124538857D01*
X101531009Y-124538857D02*
X101435771Y-124491238D01*
X101435771Y-124491238D02*
X101388152Y-124396000D01*
X101388152Y-124396000D02*
X101388152Y-124205524D01*
X101388152Y-124205524D02*
X101435771Y-124110286D01*
X101435771Y-124110286D02*
X101531009Y-124062667D01*
X101531009Y-124062667D02*
X101626247Y-124062667D01*
X101626247Y-124062667D02*
X101721485Y-124538857D01*
X102054819Y-123491238D02*
X102007200Y-123586476D01*
X102007200Y-123586476D02*
X101911961Y-123634095D01*
X101911961Y-123634095D02*
X101054819Y-123634095D01*
X102007200Y-122729333D02*
X102054819Y-122824571D01*
X102054819Y-122824571D02*
X102054819Y-123015047D01*
X102054819Y-123015047D02*
X102007200Y-123110285D01*
X102007200Y-123110285D02*
X101911961Y-123157904D01*
X101911961Y-123157904D02*
X101531009Y-123157904D01*
X101531009Y-123157904D02*
X101435771Y-123110285D01*
X101435771Y-123110285D02*
X101388152Y-123015047D01*
X101388152Y-123015047D02*
X101388152Y-122824571D01*
X101388152Y-122824571D02*
X101435771Y-122729333D01*
X101435771Y-122729333D02*
X101531009Y-122681714D01*
X101531009Y-122681714D02*
X101626247Y-122681714D01*
X101626247Y-122681714D02*
X101721485Y-123157904D01*
X102054819Y-122253142D02*
X101054819Y-122253142D01*
X101673866Y-122157904D02*
X102054819Y-121872190D01*
X101388152Y-121872190D02*
X101769104Y-122253142D01*
X102054819Y-121300761D02*
X102007200Y-121395999D01*
X102007200Y-121395999D02*
X101959580Y-121443618D01*
X101959580Y-121443618D02*
X101864342Y-121491237D01*
X101864342Y-121491237D02*
X101578628Y-121491237D01*
X101578628Y-121491237D02*
X101483390Y-121443618D01*
X101483390Y-121443618D02*
X101435771Y-121395999D01*
X101435771Y-121395999D02*
X101388152Y-121300761D01*
X101388152Y-121300761D02*
X101388152Y-121157904D01*
X101388152Y-121157904D02*
X101435771Y-121062666D01*
X101435771Y-121062666D02*
X101483390Y-121015047D01*
X101483390Y-121015047D02*
X101578628Y-120967428D01*
X101578628Y-120967428D02*
X101864342Y-120967428D01*
X101864342Y-120967428D02*
X101959580Y-121015047D01*
X101959580Y-121015047D02*
X102007200Y-121062666D01*
X102007200Y-121062666D02*
X102054819Y-121157904D01*
X102054819Y-121157904D02*
X102054819Y-121300761D01*
X102054819Y-120538856D02*
X101388152Y-120538856D01*
X101483390Y-120538856D02*
X101435771Y-120491237D01*
X101435771Y-120491237D02*
X101388152Y-120395999D01*
X101388152Y-120395999D02*
X101388152Y-120253142D01*
X101388152Y-120253142D02*
X101435771Y-120157904D01*
X101435771Y-120157904D02*
X101531009Y-120110285D01*
X101531009Y-120110285D02*
X102054819Y-120110285D01*
X101531009Y-120110285D02*
X101435771Y-120062666D01*
X101435771Y-120062666D02*
X101388152Y-119967428D01*
X101388152Y-119967428D02*
X101388152Y-119824571D01*
X101388152Y-119824571D02*
X101435771Y-119729332D01*
X101435771Y-119729332D02*
X101531009Y-119681713D01*
X101531009Y-119681713D02*
X102054819Y-119681713D01*
X102054819Y-118776952D02*
X101531009Y-118776952D01*
X101531009Y-118776952D02*
X101435771Y-118824571D01*
X101435771Y-118824571D02*
X101388152Y-118919809D01*
X101388152Y-118919809D02*
X101388152Y-119110285D01*
X101388152Y-119110285D02*
X101435771Y-119205523D01*
X102007200Y-118776952D02*
X102054819Y-118872190D01*
X102054819Y-118872190D02*
X102054819Y-119110285D01*
X102054819Y-119110285D02*
X102007200Y-119205523D01*
X102007200Y-119205523D02*
X101911961Y-119253142D01*
X101911961Y-119253142D02*
X101816723Y-119253142D01*
X101816723Y-119253142D02*
X101721485Y-119205523D01*
X101721485Y-119205523D02*
X101673866Y-119110285D01*
X101673866Y-119110285D02*
X101673866Y-118872190D01*
X101673866Y-118872190D02*
X101626247Y-118776952D01*
X102054819Y-118300761D02*
X101054819Y-118300761D01*
X101673866Y-118205523D02*
X102054819Y-117919809D01*
X101388152Y-117919809D02*
X101769104Y-118300761D01*
X101007200Y-116776952D02*
X102292914Y-117634094D01*
X101531009Y-116110285D02*
X101531009Y-116443618D01*
X102054819Y-116443618D02*
X101054819Y-116443618D01*
X101054819Y-116443618D02*
X101054819Y-115967428D01*
X102054819Y-115586475D02*
X101388152Y-115586475D01*
X101054819Y-115586475D02*
X101102438Y-115634094D01*
X101102438Y-115634094D02*
X101150057Y-115586475D01*
X101150057Y-115586475D02*
X101102438Y-115538856D01*
X101102438Y-115538856D02*
X101054819Y-115586475D01*
X101054819Y-115586475D02*
X101150057Y-115586475D01*
X102054819Y-115110285D02*
X101388152Y-115110285D01*
X101578628Y-115110285D02*
X101483390Y-115062666D01*
X101483390Y-115062666D02*
X101435771Y-115015047D01*
X101435771Y-115015047D02*
X101388152Y-114919809D01*
X101388152Y-114919809D02*
X101388152Y-114824571D01*
X102007200Y-114110285D02*
X102054819Y-114205523D01*
X102054819Y-114205523D02*
X102054819Y-114395999D01*
X102054819Y-114395999D02*
X102007200Y-114491237D01*
X102007200Y-114491237D02*
X101911961Y-114538856D01*
X101911961Y-114538856D02*
X101531009Y-114538856D01*
X101531009Y-114538856D02*
X101435771Y-114491237D01*
X101435771Y-114491237D02*
X101388152Y-114395999D01*
X101388152Y-114395999D02*
X101388152Y-114205523D01*
X101388152Y-114205523D02*
X101435771Y-114110285D01*
X101435771Y-114110285D02*
X101531009Y-114062666D01*
X101531009Y-114062666D02*
X101626247Y-114062666D01*
X101626247Y-114062666D02*
X101721485Y-114538856D01*
X102007200Y-113681713D02*
X102054819Y-113586475D01*
X102054819Y-113586475D02*
X102054819Y-113395999D01*
X102054819Y-113395999D02*
X102007200Y-113300761D01*
X102007200Y-113300761D02*
X101911961Y-113253142D01*
X101911961Y-113253142D02*
X101864342Y-113253142D01*
X101864342Y-113253142D02*
X101769104Y-113300761D01*
X101769104Y-113300761D02*
X101721485Y-113395999D01*
X101721485Y-113395999D02*
X101721485Y-113538856D01*
X101721485Y-113538856D02*
X101673866Y-113634094D01*
X101673866Y-113634094D02*
X101578628Y-113681713D01*
X101578628Y-113681713D02*
X101531009Y-113681713D01*
X101531009Y-113681713D02*
X101435771Y-113634094D01*
X101435771Y-113634094D02*
X101388152Y-113538856D01*
X101388152Y-113538856D02*
X101388152Y-113395999D01*
X101388152Y-113395999D02*
X101435771Y-113300761D01*
X101388152Y-112824570D02*
X102388152Y-112824570D01*
X101435771Y-112824570D02*
X101388152Y-112729332D01*
X101388152Y-112729332D02*
X101388152Y-112538856D01*
X101388152Y-112538856D02*
X101435771Y-112443618D01*
X101435771Y-112443618D02*
X101483390Y-112395999D01*
X101483390Y-112395999D02*
X101578628Y-112348380D01*
X101578628Y-112348380D02*
X101864342Y-112348380D01*
X101864342Y-112348380D02*
X101959580Y-112395999D01*
X101959580Y-112395999D02*
X102007200Y-112443618D01*
X102007200Y-112443618D02*
X102054819Y-112538856D01*
X102054819Y-112538856D02*
X102054819Y-112729332D01*
X102054819Y-112729332D02*
X102007200Y-112824570D01*
X102054819Y-111776951D02*
X102007200Y-111872189D01*
X102007200Y-111872189D02*
X101959580Y-111919808D01*
X101959580Y-111919808D02*
X101864342Y-111967427D01*
X101864342Y-111967427D02*
X101578628Y-111967427D01*
X101578628Y-111967427D02*
X101483390Y-111919808D01*
X101483390Y-111919808D02*
X101435771Y-111872189D01*
X101435771Y-111872189D02*
X101388152Y-111776951D01*
X101388152Y-111776951D02*
X101388152Y-111634094D01*
X101388152Y-111634094D02*
X101435771Y-111538856D01*
X101435771Y-111538856D02*
X101483390Y-111491237D01*
X101483390Y-111491237D02*
X101578628Y-111443618D01*
X101578628Y-111443618D02*
X101864342Y-111443618D01*
X101864342Y-111443618D02*
X101959580Y-111491237D01*
X101959580Y-111491237D02*
X102007200Y-111538856D01*
X102007200Y-111538856D02*
X102054819Y-111634094D01*
X102054819Y-111634094D02*
X102054819Y-111776951D01*
X102054819Y-111015046D02*
X101388152Y-111015046D01*
X101578628Y-111015046D02*
X101483390Y-110967427D01*
X101483390Y-110967427D02*
X101435771Y-110919808D01*
X101435771Y-110919808D02*
X101388152Y-110824570D01*
X101388152Y-110824570D02*
X101388152Y-110729332D01*
X101388152Y-110538855D02*
X101388152Y-110157903D01*
X101054819Y-110395998D02*
X101911961Y-110395998D01*
X101911961Y-110395998D02*
X102007200Y-110348379D01*
X102007200Y-110348379D02*
X102054819Y-110253141D01*
X102054819Y-110253141D02*
X102054819Y-110157903D01*
X101054819Y-109967426D02*
X101054819Y-109395998D01*
X102054819Y-109681712D02*
X101054819Y-109681712D01*
X102054819Y-109062664D02*
X101388152Y-109062664D01*
X101054819Y-109062664D02*
X101102438Y-109110283D01*
X101102438Y-109110283D02*
X101150057Y-109062664D01*
X101150057Y-109062664D02*
X101102438Y-109015045D01*
X101102438Y-109015045D02*
X101054819Y-109062664D01*
X101054819Y-109062664D02*
X101150057Y-109062664D01*
X102054819Y-108586474D02*
X101388152Y-108586474D01*
X101483390Y-108586474D02*
X101435771Y-108538855D01*
X101435771Y-108538855D02*
X101388152Y-108443617D01*
X101388152Y-108443617D02*
X101388152Y-108300760D01*
X101388152Y-108300760D02*
X101435771Y-108205522D01*
X101435771Y-108205522D02*
X101531009Y-108157903D01*
X101531009Y-108157903D02*
X102054819Y-108157903D01*
X101531009Y-108157903D02*
X101435771Y-108110284D01*
X101435771Y-108110284D02*
X101388152Y-108015046D01*
X101388152Y-108015046D02*
X101388152Y-107872189D01*
X101388152Y-107872189D02*
X101435771Y-107776950D01*
X101435771Y-107776950D02*
X101531009Y-107729331D01*
X101531009Y-107729331D02*
X102054819Y-107729331D01*
X102007200Y-106872189D02*
X102054819Y-106967427D01*
X102054819Y-106967427D02*
X102054819Y-107157903D01*
X102054819Y-107157903D02*
X102007200Y-107253141D01*
X102007200Y-107253141D02*
X101911961Y-107300760D01*
X101911961Y-107300760D02*
X101531009Y-107300760D01*
X101531009Y-107300760D02*
X101435771Y-107253141D01*
X101435771Y-107253141D02*
X101388152Y-107157903D01*
X101388152Y-107157903D02*
X101388152Y-106967427D01*
X101388152Y-106967427D02*
X101435771Y-106872189D01*
X101435771Y-106872189D02*
X101531009Y-106824570D01*
X101531009Y-106824570D02*
X101626247Y-106824570D01*
X101626247Y-106824570D02*
X101721485Y-107300760D01*
X102054819Y-106395998D02*
X101388152Y-106395998D01*
X101578628Y-106395998D02*
X101483390Y-106348379D01*
X101483390Y-106348379D02*
X101435771Y-106300760D01*
X101435771Y-106300760D02*
X101388152Y-106205522D01*
X101388152Y-106205522D02*
X101388152Y-106110284D01*
D10*
X128531838Y-118749292D02*
X128484219Y-118844530D01*
X128484219Y-118844530D02*
X128484219Y-118987387D01*
X128484219Y-118987387D02*
X128531838Y-119130244D01*
X128531838Y-119130244D02*
X128627076Y-119225482D01*
X128627076Y-119225482D02*
X128722314Y-119273101D01*
X128722314Y-119273101D02*
X128912790Y-119320720D01*
X128912790Y-119320720D02*
X129055647Y-119320720D01*
X129055647Y-119320720D02*
X129246123Y-119273101D01*
X129246123Y-119273101D02*
X129341361Y-119225482D01*
X129341361Y-119225482D02*
X129436600Y-119130244D01*
X129436600Y-119130244D02*
X129484219Y-118987387D01*
X129484219Y-118987387D02*
X129484219Y-118892149D01*
X129484219Y-118892149D02*
X129436600Y-118749292D01*
X129436600Y-118749292D02*
X129388980Y-118701673D01*
X129388980Y-118701673D02*
X129055647Y-118701673D01*
X129055647Y-118701673D02*
X129055647Y-118892149D01*
X129484219Y-118273101D02*
X128484219Y-118273101D01*
X128484219Y-118273101D02*
X129484219Y-117701673D01*
X129484219Y-117701673D02*
X128484219Y-117701673D01*
X129484219Y-117225482D02*
X128484219Y-117225482D01*
X128484219Y-117225482D02*
X128484219Y-116987387D01*
X128484219Y-116987387D02*
X128531838Y-116844530D01*
X128531838Y-116844530D02*
X128627076Y-116749292D01*
X128627076Y-116749292D02*
X128722314Y-116701673D01*
X128722314Y-116701673D02*
X128912790Y-116654054D01*
X128912790Y-116654054D02*
X129055647Y-116654054D01*
X129055647Y-116654054D02*
X129246123Y-116701673D01*
X129246123Y-116701673D02*
X129341361Y-116749292D01*
X129341361Y-116749292D02*
X129436600Y-116844530D01*
X129436600Y-116844530D02*
X129484219Y-116987387D01*
X129484219Y-116987387D02*
X129484219Y-117225482D01*
X126420733Y-116701673D02*
X126420733Y-117463578D01*
X126039780Y-117082625D02*
X126801685Y-117082625D01*
X126039780Y-118463577D02*
X126039780Y-117892149D01*
X126039780Y-118177863D02*
X127039780Y-118177863D01*
X127039780Y-118177863D02*
X126896923Y-118082625D01*
X126896923Y-118082625D02*
X126801685Y-117987387D01*
X126801685Y-117987387D02*
X126754066Y-117892149D01*
X126944542Y-118844530D02*
X126992161Y-118892149D01*
X126992161Y-118892149D02*
X127039780Y-118987387D01*
X127039780Y-118987387D02*
X127039780Y-119225482D01*
X127039780Y-119225482D02*
X126992161Y-119320720D01*
X126992161Y-119320720D02*
X126944542Y-119368339D01*
X126944542Y-119368339D02*
X126849304Y-119415958D01*
X126849304Y-119415958D02*
X126754066Y-119415958D01*
X126754066Y-119415958D02*
X126611209Y-119368339D01*
X126611209Y-119368339D02*
X126039780Y-118796911D01*
X126039780Y-118796911D02*
X126039780Y-119415958D01*
X127039780Y-119701673D02*
X126039780Y-120035006D01*
X126039780Y-120035006D02*
X127039780Y-120368339D01*
D12*
X104818328Y-113434286D02*
X103318328Y-113434286D01*
X103318328Y-113434286D02*
X103318328Y-112862857D01*
X103318328Y-112862857D02*
X103389757Y-112720000D01*
X103389757Y-112720000D02*
X103461185Y-112648571D01*
X103461185Y-112648571D02*
X103604042Y-112577143D01*
X103604042Y-112577143D02*
X103818328Y-112577143D01*
X103818328Y-112577143D02*
X103961185Y-112648571D01*
X103961185Y-112648571D02*
X104032614Y-112720000D01*
X104032614Y-112720000D02*
X104104042Y-112862857D01*
X104104042Y-112862857D02*
X104104042Y-113434286D01*
X104246900Y-111934286D02*
X104246900Y-110791429D01*
X103318328Y-110291428D02*
X103318328Y-109434286D01*
X104818328Y-109862857D02*
X103318328Y-109862857D01*
X104818328Y-108934286D02*
X103318328Y-108934286D01*
X104032614Y-108934286D02*
X104032614Y-108077143D01*
X104818328Y-108077143D02*
X103318328Y-108077143D01*
X104818328Y-106505714D02*
X104104042Y-107005714D01*
X104818328Y-107362857D02*
X103318328Y-107362857D01*
X103318328Y-107362857D02*
X103318328Y-106791428D01*
X103318328Y-106791428D02*
X103389757Y-106648571D01*
X103389757Y-106648571D02*
X103461185Y-106577142D01*
X103461185Y-106577142D02*
X103604042Y-106505714D01*
X103604042Y-106505714D02*
X103818328Y-106505714D01*
X103818328Y-106505714D02*
X103961185Y-106577142D01*
X103961185Y-106577142D02*
X104032614Y-106648571D01*
X104032614Y-106648571D02*
X104104042Y-106791428D01*
X104104042Y-106791428D02*
X104104042Y-107362857D01*
X103318328Y-105862857D02*
X104532614Y-105862857D01*
X104532614Y-105862857D02*
X104675471Y-105791428D01*
X104675471Y-105791428D02*
X104746900Y-105720000D01*
X104746900Y-105720000D02*
X104818328Y-105577142D01*
X104818328Y-105577142D02*
X104818328Y-105291428D01*
X104818328Y-105291428D02*
X104746900Y-105148571D01*
X104746900Y-105148571D02*
X104675471Y-105077142D01*
X104675471Y-105077142D02*
X104532614Y-105005714D01*
X104532614Y-105005714D02*
X103318328Y-105005714D01*
D10*
X126190476Y-134564219D02*
X126190476Y-133564219D01*
X126190476Y-133564219D02*
X126523809Y-134278504D01*
X126523809Y-134278504D02*
X126857142Y-133564219D01*
X126857142Y-133564219D02*
X126857142Y-134564219D01*
X127761904Y-133897552D02*
X127761904Y-134564219D01*
X127523809Y-133516600D02*
X127285714Y-134230885D01*
X127285714Y-134230885D02*
X127904761Y-134230885D01*
X132550457Y-117558816D02*
X132502838Y-117654054D01*
X132502838Y-117654054D02*
X132407600Y-117749292D01*
X132407600Y-117749292D02*
X132264742Y-117892149D01*
X132264742Y-117892149D02*
X132217123Y-117987387D01*
X132217123Y-117987387D02*
X132217123Y-118082625D01*
X132455219Y-118035006D02*
X132407600Y-118130244D01*
X132407600Y-118130244D02*
X132312361Y-118225482D01*
X132312361Y-118225482D02*
X132121885Y-118273101D01*
X132121885Y-118273101D02*
X131788552Y-118273101D01*
X131788552Y-118273101D02*
X131598076Y-118225482D01*
X131598076Y-118225482D02*
X131502838Y-118130244D01*
X131502838Y-118130244D02*
X131455219Y-118035006D01*
X131455219Y-118035006D02*
X131455219Y-117844530D01*
X131455219Y-117844530D02*
X131502838Y-117749292D01*
X131502838Y-117749292D02*
X131598076Y-117654054D01*
X131598076Y-117654054D02*
X131788552Y-117606435D01*
X131788552Y-117606435D02*
X132121885Y-117606435D01*
X132121885Y-117606435D02*
X132312361Y-117654054D01*
X132312361Y-117654054D02*
X132407600Y-117749292D01*
X132407600Y-117749292D02*
X132455219Y-117844530D01*
X132455219Y-117844530D02*
X132455219Y-118035006D01*
X132455219Y-116654054D02*
X132455219Y-117225482D01*
X132455219Y-116939768D02*
X131455219Y-116939768D01*
X131455219Y-116939768D02*
X131598076Y-117035006D01*
X131598076Y-117035006D02*
X131693314Y-117130244D01*
X131693314Y-117130244D02*
X131740933Y-117225482D01*
D12*
X138428328Y-134535714D02*
X136928328Y-134535714D01*
X137642614Y-134535714D02*
X137642614Y-133678571D01*
X138428328Y-133678571D02*
X136928328Y-133678571D01*
X137999757Y-133035713D02*
X137999757Y-132321428D01*
X138428328Y-133178570D02*
X136928328Y-132678570D01*
X136928328Y-132678570D02*
X138428328Y-132178570D01*
X138428328Y-130964285D02*
X138428328Y-131678571D01*
X138428328Y-131678571D02*
X136928328Y-131678571D01*
X138428328Y-129749999D02*
X138428328Y-130464285D01*
X138428328Y-130464285D02*
X136928328Y-130464285D01*
D10*
X109227838Y-118749292D02*
X109180219Y-118844530D01*
X109180219Y-118844530D02*
X109180219Y-118987387D01*
X109180219Y-118987387D02*
X109227838Y-119130244D01*
X109227838Y-119130244D02*
X109323076Y-119225482D01*
X109323076Y-119225482D02*
X109418314Y-119273101D01*
X109418314Y-119273101D02*
X109608790Y-119320720D01*
X109608790Y-119320720D02*
X109751647Y-119320720D01*
X109751647Y-119320720D02*
X109942123Y-119273101D01*
X109942123Y-119273101D02*
X110037361Y-119225482D01*
X110037361Y-119225482D02*
X110132600Y-119130244D01*
X110132600Y-119130244D02*
X110180219Y-118987387D01*
X110180219Y-118987387D02*
X110180219Y-118892149D01*
X110180219Y-118892149D02*
X110132600Y-118749292D01*
X110132600Y-118749292D02*
X110084980Y-118701673D01*
X110084980Y-118701673D02*
X109751647Y-118701673D01*
X109751647Y-118701673D02*
X109751647Y-118892149D01*
X110180219Y-118273101D02*
X109180219Y-118273101D01*
X109180219Y-118273101D02*
X110180219Y-117701673D01*
X110180219Y-117701673D02*
X109180219Y-117701673D01*
X110180219Y-117225482D02*
X109180219Y-117225482D01*
X109180219Y-117225482D02*
X109180219Y-116987387D01*
X109180219Y-116987387D02*
X109227838Y-116844530D01*
X109227838Y-116844530D02*
X109323076Y-116749292D01*
X109323076Y-116749292D02*
X109418314Y-116701673D01*
X109418314Y-116701673D02*
X109608790Y-116654054D01*
X109608790Y-116654054D02*
X109751647Y-116654054D01*
X109751647Y-116654054D02*
X109942123Y-116701673D01*
X109942123Y-116701673D02*
X110037361Y-116749292D01*
X110037361Y-116749292D02*
X110132600Y-116844530D01*
X110132600Y-116844530D02*
X110180219Y-116987387D01*
X110180219Y-116987387D02*
X110180219Y-117225482D01*
X111815780Y-116701673D02*
X112815780Y-116701673D01*
X111815780Y-117177863D02*
X112815780Y-117177863D01*
X112815780Y-117177863D02*
X111815780Y-117749291D01*
X111815780Y-117749291D02*
X112815780Y-117749291D01*
X111617219Y-124122136D02*
X111617219Y-124598326D01*
X111617219Y-124598326D02*
X110617219Y-124598326D01*
X111093409Y-123788802D02*
X111093409Y-123455469D01*
X111617219Y-123312612D02*
X111617219Y-123788802D01*
X111617219Y-123788802D02*
X110617219Y-123788802D01*
X110617219Y-123788802D02*
X110617219Y-123312612D01*
X111617219Y-122884040D02*
X110617219Y-122884040D01*
X110617219Y-122884040D02*
X110617219Y-122645945D01*
X110617219Y-122645945D02*
X110664838Y-122503088D01*
X110664838Y-122503088D02*
X110760076Y-122407850D01*
X110760076Y-122407850D02*
X110855314Y-122360231D01*
X110855314Y-122360231D02*
X111045790Y-122312612D01*
X111045790Y-122312612D02*
X111188647Y-122312612D01*
X111188647Y-122312612D02*
X111379123Y-122360231D01*
X111379123Y-122360231D02*
X111474361Y-122407850D01*
X111474361Y-122407850D02*
X111569600Y-122503088D01*
X111569600Y-122503088D02*
X111617219Y-122645945D01*
X111617219Y-122645945D02*
X111617219Y-122884040D01*
X111236266Y-121884040D02*
X111236266Y-121122136D01*
X111617219Y-121503088D02*
X110855314Y-121503088D01*
X134026266Y-124630326D02*
X134026266Y-123868422D01*
X134407219Y-124249374D02*
X133645314Y-124249374D01*
X134407219Y-122868422D02*
X134407219Y-123439850D01*
X134407219Y-123154136D02*
X133407219Y-123154136D01*
X133407219Y-123154136D02*
X133550076Y-123249374D01*
X133550076Y-123249374D02*
X133645314Y-123344612D01*
X133645314Y-123344612D02*
X133692933Y-123439850D01*
X133502457Y-122487469D02*
X133454838Y-122439850D01*
X133454838Y-122439850D02*
X133407219Y-122344612D01*
X133407219Y-122344612D02*
X133407219Y-122106517D01*
X133407219Y-122106517D02*
X133454838Y-122011279D01*
X133454838Y-122011279D02*
X133502457Y-121963660D01*
X133502457Y-121963660D02*
X133597695Y-121916041D01*
X133597695Y-121916041D02*
X133692933Y-121916041D01*
X133692933Y-121916041D02*
X133835790Y-121963660D01*
X133835790Y-121963660D02*
X134407219Y-122535088D01*
X134407219Y-122535088D02*
X134407219Y-121916041D01*
X133407219Y-121630326D02*
X134407219Y-121296993D01*
X134407219Y-121296993D02*
X133407219Y-120963660D01*
X130914838Y-124106517D02*
X130867219Y-124201755D01*
X130867219Y-124201755D02*
X130867219Y-124344612D01*
X130867219Y-124344612D02*
X130914838Y-124487469D01*
X130914838Y-124487469D02*
X131010076Y-124582707D01*
X131010076Y-124582707D02*
X131105314Y-124630326D01*
X131105314Y-124630326D02*
X131295790Y-124677945D01*
X131295790Y-124677945D02*
X131438647Y-124677945D01*
X131438647Y-124677945D02*
X131629123Y-124630326D01*
X131629123Y-124630326D02*
X131724361Y-124582707D01*
X131724361Y-124582707D02*
X131819600Y-124487469D01*
X131819600Y-124487469D02*
X131867219Y-124344612D01*
X131867219Y-124344612D02*
X131867219Y-124249374D01*
X131867219Y-124249374D02*
X131819600Y-124106517D01*
X131819600Y-124106517D02*
X131771980Y-124058898D01*
X131771980Y-124058898D02*
X131438647Y-124058898D01*
X131438647Y-124058898D02*
X131438647Y-124249374D01*
X131867219Y-123630326D02*
X130867219Y-123630326D01*
X130867219Y-123630326D02*
X131867219Y-123058898D01*
X131867219Y-123058898D02*
X130867219Y-123058898D01*
X131867219Y-122582707D02*
X130867219Y-122582707D01*
X130867219Y-122582707D02*
X130867219Y-122344612D01*
X130867219Y-122344612D02*
X130914838Y-122201755D01*
X130914838Y-122201755D02*
X131010076Y-122106517D01*
X131010076Y-122106517D02*
X131105314Y-122058898D01*
X131105314Y-122058898D02*
X131295790Y-122011279D01*
X131295790Y-122011279D02*
X131438647Y-122011279D01*
X131438647Y-122011279D02*
X131629123Y-122058898D01*
X131629123Y-122058898D02*
X131724361Y-122106517D01*
X131724361Y-122106517D02*
X131819600Y-122201755D01*
X131819600Y-122201755D02*
X131867219Y-122344612D01*
X131867219Y-122344612D02*
X131867219Y-122582707D01*
X135090457Y-117558816D02*
X135042838Y-117654054D01*
X135042838Y-117654054D02*
X134947600Y-117749292D01*
X134947600Y-117749292D02*
X134804742Y-117892149D01*
X134804742Y-117892149D02*
X134757123Y-117987387D01*
X134757123Y-117987387D02*
X134757123Y-118082625D01*
X134995219Y-118035006D02*
X134947600Y-118130244D01*
X134947600Y-118130244D02*
X134852361Y-118225482D01*
X134852361Y-118225482D02*
X134661885Y-118273101D01*
X134661885Y-118273101D02*
X134328552Y-118273101D01*
X134328552Y-118273101D02*
X134138076Y-118225482D01*
X134138076Y-118225482D02*
X134042838Y-118130244D01*
X134042838Y-118130244D02*
X133995219Y-118035006D01*
X133995219Y-118035006D02*
X133995219Y-117844530D01*
X133995219Y-117844530D02*
X134042838Y-117749292D01*
X134042838Y-117749292D02*
X134138076Y-117654054D01*
X134138076Y-117654054D02*
X134328552Y-117606435D01*
X134328552Y-117606435D02*
X134661885Y-117606435D01*
X134661885Y-117606435D02*
X134852361Y-117654054D01*
X134852361Y-117654054D02*
X134947600Y-117749292D01*
X134947600Y-117749292D02*
X134995219Y-117844530D01*
X134995219Y-117844530D02*
X134995219Y-118035006D01*
X134090457Y-117225482D02*
X134042838Y-117177863D01*
X134042838Y-117177863D02*
X133995219Y-117082625D01*
X133995219Y-117082625D02*
X133995219Y-116844530D01*
X133995219Y-116844530D02*
X134042838Y-116749292D01*
X134042838Y-116749292D02*
X134090457Y-116701673D01*
X134090457Y-116701673D02*
X134185695Y-116654054D01*
X134185695Y-116654054D02*
X134280933Y-116654054D01*
X134280933Y-116654054D02*
X134423790Y-116701673D01*
X134423790Y-116701673D02*
X134995219Y-117273101D01*
X134995219Y-117273101D02*
X134995219Y-116654054D01*
D12*
X104928328Y-132964285D02*
X104928328Y-133678571D01*
X104928328Y-133678571D02*
X103428328Y-133678571D01*
X104142614Y-132464285D02*
X104142614Y-131964285D01*
X104928328Y-131749999D02*
X104928328Y-132464285D01*
X104928328Y-132464285D02*
X103428328Y-132464285D01*
X103428328Y-132464285D02*
X103428328Y-131749999D01*
X104928328Y-131107142D02*
X103428328Y-131107142D01*
X103428328Y-131107142D02*
X103428328Y-130749999D01*
X103428328Y-130749999D02*
X103499757Y-130535713D01*
X103499757Y-130535713D02*
X103642614Y-130392856D01*
X103642614Y-130392856D02*
X103785471Y-130321427D01*
X103785471Y-130321427D02*
X104071185Y-130249999D01*
X104071185Y-130249999D02*
X104285471Y-130249999D01*
X104285471Y-130249999D02*
X104571185Y-130321427D01*
X104571185Y-130321427D02*
X104714042Y-130392856D01*
X104714042Y-130392856D02*
X104856900Y-130535713D01*
X104856900Y-130535713D02*
X104928328Y-130749999D01*
X104928328Y-130749999D02*
X104928328Y-131107142D01*
D10*
X108119838Y-124074517D02*
X108072219Y-124169755D01*
X108072219Y-124169755D02*
X108072219Y-124312612D01*
X108072219Y-124312612D02*
X108119838Y-124455469D01*
X108119838Y-124455469D02*
X108215076Y-124550707D01*
X108215076Y-124550707D02*
X108310314Y-124598326D01*
X108310314Y-124598326D02*
X108500790Y-124645945D01*
X108500790Y-124645945D02*
X108643647Y-124645945D01*
X108643647Y-124645945D02*
X108834123Y-124598326D01*
X108834123Y-124598326D02*
X108929361Y-124550707D01*
X108929361Y-124550707D02*
X109024600Y-124455469D01*
X109024600Y-124455469D02*
X109072219Y-124312612D01*
X109072219Y-124312612D02*
X109072219Y-124217374D01*
X109072219Y-124217374D02*
X109024600Y-124074517D01*
X109024600Y-124074517D02*
X108976980Y-124026898D01*
X108976980Y-124026898D02*
X108643647Y-124026898D01*
X108643647Y-124026898D02*
X108643647Y-124217374D01*
X109072219Y-123598326D02*
X108072219Y-123598326D01*
X108072219Y-123598326D02*
X109072219Y-123026898D01*
X109072219Y-123026898D02*
X108072219Y-123026898D01*
X109072219Y-122550707D02*
X108072219Y-122550707D01*
X108072219Y-122550707D02*
X108072219Y-122312612D01*
X108072219Y-122312612D02*
X108119838Y-122169755D01*
X108119838Y-122169755D02*
X108215076Y-122074517D01*
X108215076Y-122074517D02*
X108310314Y-122026898D01*
X108310314Y-122026898D02*
X108500790Y-121979279D01*
X108500790Y-121979279D02*
X108643647Y-121979279D01*
X108643647Y-121979279D02*
X108834123Y-122026898D01*
X108834123Y-122026898D02*
X108929361Y-122074517D01*
X108929361Y-122074517D02*
X109024600Y-122169755D01*
X109024600Y-122169755D02*
X109072219Y-122312612D01*
X109072219Y-122312612D02*
X109072219Y-122550707D01*
D12*
X136846328Y-110719999D02*
X136846328Y-110434285D01*
X136846328Y-110434285D02*
X136917757Y-110291428D01*
X136917757Y-110291428D02*
X137060614Y-110148571D01*
X137060614Y-110148571D02*
X137346328Y-110077142D01*
X137346328Y-110077142D02*
X137846328Y-110077142D01*
X137846328Y-110077142D02*
X138132042Y-110148571D01*
X138132042Y-110148571D02*
X138274900Y-110291428D01*
X138274900Y-110291428D02*
X138346328Y-110434285D01*
X138346328Y-110434285D02*
X138346328Y-110719999D01*
X138346328Y-110719999D02*
X138274900Y-110862857D01*
X138274900Y-110862857D02*
X138132042Y-111005714D01*
X138132042Y-111005714D02*
X137846328Y-111077142D01*
X137846328Y-111077142D02*
X137346328Y-111077142D01*
X137346328Y-111077142D02*
X137060614Y-111005714D01*
X137060614Y-111005714D02*
X136917757Y-110862857D01*
X136917757Y-110862857D02*
X136846328Y-110719999D01*
X136846328Y-109434285D02*
X138060614Y-109434285D01*
X138060614Y-109434285D02*
X138203471Y-109362856D01*
X138203471Y-109362856D02*
X138274900Y-109291428D01*
X138274900Y-109291428D02*
X138346328Y-109148570D01*
X138346328Y-109148570D02*
X138346328Y-108862856D01*
X138346328Y-108862856D02*
X138274900Y-108719999D01*
X138274900Y-108719999D02*
X138203471Y-108648570D01*
X138203471Y-108648570D02*
X138060614Y-108577142D01*
X138060614Y-108577142D02*
X136846328Y-108577142D01*
X136846328Y-108077141D02*
X136846328Y-107219999D01*
X138346328Y-107648570D02*
X136846328Y-107648570D01*
D10*
X107116733Y-116701673D02*
X107116733Y-117463578D01*
X106735780Y-117082625D02*
X107497685Y-117082625D01*
X106735780Y-118463577D02*
X106735780Y-117892149D01*
X106735780Y-118177863D02*
X107735780Y-118177863D01*
X107735780Y-118177863D02*
X107592923Y-118082625D01*
X107592923Y-118082625D02*
X107497685Y-117987387D01*
X107497685Y-117987387D02*
X107450066Y-117892149D01*
X107640542Y-118844530D02*
X107688161Y-118892149D01*
X107688161Y-118892149D02*
X107735780Y-118987387D01*
X107735780Y-118987387D02*
X107735780Y-119225482D01*
X107735780Y-119225482D02*
X107688161Y-119320720D01*
X107688161Y-119320720D02*
X107640542Y-119368339D01*
X107640542Y-119368339D02*
X107545304Y-119415958D01*
X107545304Y-119415958D02*
X107450066Y-119415958D01*
X107450066Y-119415958D02*
X107307209Y-119368339D01*
X107307209Y-119368339D02*
X106735780Y-118796911D01*
X106735780Y-118796911D02*
X106735780Y-119415958D01*
X107735780Y-119701673D02*
X106735780Y-120035006D01*
X106735780Y-120035006D02*
X107735780Y-120368339D01*
D13*
%TO.C,Q1*%
X119598000Y-114554000D02*
X119598000Y-113904000D01*
X119598000Y-114554000D02*
X119598000Y-115204000D01*
X122718000Y-114554000D02*
X122718000Y-113904000D01*
X122718000Y-114554000D02*
X122718000Y-115204000D01*
X119648000Y-115716500D02*
X119318000Y-115956500D01*
X119318000Y-115476500D01*
X119648000Y-115716500D01*
G36*
X119648000Y-115716500D02*
G01*
X119318000Y-115956500D01*
X119318000Y-115476500D01*
X119648000Y-115716500D01*
G37*
%TO.C,CON4*%
X107130000Y-128440000D02*
X107130000Y-131100000D01*
X107130000Y-131100000D02*
X112330000Y-131100000D01*
X108080000Y-128042929D02*
X108080000Y-128440000D01*
X108080000Y-137100000D02*
X108080000Y-131100000D01*
X108840000Y-128042929D02*
X108840000Y-128440000D01*
X108840000Y-131100000D02*
X108840000Y-137100000D01*
X108840000Y-137100000D02*
X108080000Y-137100000D01*
X109730000Y-128440000D02*
X109730000Y-131100000D01*
X110620000Y-128110000D02*
X110620000Y-128440000D01*
X110620000Y-137100000D02*
X110620000Y-131100000D01*
X110720000Y-131100000D02*
X110720000Y-137100000D01*
X110840000Y-131100000D02*
X110840000Y-137100000D01*
X110960000Y-131100000D02*
X110960000Y-137100000D01*
X111000000Y-125730000D02*
X112270000Y-125730000D01*
X111080000Y-131100000D02*
X111080000Y-137100000D01*
X111200000Y-131100000D02*
X111200000Y-137100000D01*
X111320000Y-131100000D02*
X111320000Y-137100000D01*
X111380000Y-128110000D02*
X111380000Y-128440000D01*
X111380000Y-131100000D02*
X111380000Y-137100000D01*
X111380000Y-137100000D02*
X110620000Y-137100000D01*
X112270000Y-125730000D02*
X112270000Y-127000000D01*
X112330000Y-128440000D02*
X107130000Y-128440000D01*
X112330000Y-131100000D02*
X112330000Y-128440000D01*
%TO.C,F1*%
X121912779Y-110240000D02*
X121587221Y-110240000D01*
X121912779Y-111260000D02*
X121587221Y-111260000D01*
%TO.C,R1*%
X117841500Y-114062742D02*
X117841500Y-114537258D01*
X118886500Y-114062742D02*
X118886500Y-114537258D01*
%TO.C,CON2*%
X105873000Y-110003000D02*
X105873000Y-112663000D01*
X105873000Y-112663000D02*
X113613000Y-112663000D01*
X105933000Y-115373000D02*
X105933000Y-114103000D01*
X106823000Y-104003000D02*
X107583000Y-104003000D01*
X106823000Y-110003000D02*
X106823000Y-104003000D01*
X106823000Y-112993000D02*
X106823000Y-112663000D01*
X106883000Y-110003000D02*
X106883000Y-104003000D01*
X107003000Y-110003000D02*
X107003000Y-104003000D01*
X107123000Y-110003000D02*
X107123000Y-104003000D01*
X107203000Y-115373000D02*
X105933000Y-115373000D01*
X107243000Y-110003000D02*
X107243000Y-104003000D01*
X107363000Y-110003000D02*
X107363000Y-104003000D01*
X107483000Y-110003000D02*
X107483000Y-104003000D01*
X107583000Y-104003000D02*
X107583000Y-110003000D01*
X107583000Y-112993000D02*
X107583000Y-112663000D01*
X108473000Y-112663000D02*
X108473000Y-110003000D01*
X109363000Y-104003000D02*
X110123000Y-104003000D01*
X109363000Y-110003000D02*
X109363000Y-104003000D01*
X109363000Y-113060071D02*
X109363000Y-112663000D01*
X110123000Y-104003000D02*
X110123000Y-110003000D01*
X110123000Y-113060071D02*
X110123000Y-112663000D01*
X111013000Y-112663000D02*
X111013000Y-110003000D01*
X111903000Y-104003000D02*
X112663000Y-104003000D01*
X111903000Y-110003000D02*
X111903000Y-104003000D01*
X111903000Y-113060071D02*
X111903000Y-112663000D01*
X112663000Y-104003000D02*
X112663000Y-110003000D01*
X112663000Y-113060071D02*
X112663000Y-112663000D01*
X113613000Y-110003000D02*
X105873000Y-110003000D01*
X113613000Y-112663000D02*
X113613000Y-110003000D01*
%TO.C,Q2*%
X116438000Y-119890000D02*
X116708000Y-119890000D01*
X116438000Y-126310000D02*
X116438000Y-119890000D01*
X123338000Y-119890000D02*
X123068000Y-119890000D01*
X123338000Y-126310000D02*
X123338000Y-119890000D01*
X123358000Y-118710000D02*
X123028000Y-118470000D01*
X123358000Y-118230000D01*
X123358000Y-118710000D01*
G36*
X123358000Y-118710000D02*
G01*
X123028000Y-118470000D01*
X123358000Y-118230000D01*
X123358000Y-118710000D01*
G37*
%TO.C,CON1*%
X125426000Y-110003000D02*
X125426000Y-112663000D01*
X125426000Y-112663000D02*
X135706000Y-112663000D01*
X125486000Y-115373000D02*
X125486000Y-114103000D01*
X126376000Y-104003000D02*
X127136000Y-104003000D01*
X126376000Y-110003000D02*
X126376000Y-104003000D01*
X126376000Y-112993000D02*
X126376000Y-112663000D01*
X126436000Y-110003000D02*
X126436000Y-104003000D01*
X126556000Y-110003000D02*
X126556000Y-104003000D01*
X126676000Y-110003000D02*
X126676000Y-104003000D01*
X126756000Y-115373000D02*
X125486000Y-115373000D01*
X126796000Y-110003000D02*
X126796000Y-104003000D01*
X126916000Y-110003000D02*
X126916000Y-104003000D01*
X127036000Y-110003000D02*
X127036000Y-104003000D01*
X127136000Y-104003000D02*
X127136000Y-110003000D01*
X127136000Y-112993000D02*
X127136000Y-112663000D01*
X128026000Y-112663000D02*
X128026000Y-110003000D01*
X128916000Y-104003000D02*
X129676000Y-104003000D01*
X128916000Y-110003000D02*
X128916000Y-104003000D01*
X128916000Y-113060071D02*
X128916000Y-112663000D01*
X129676000Y-104003000D02*
X129676000Y-110003000D01*
X129676000Y-113060071D02*
X129676000Y-112663000D01*
X130566000Y-112663000D02*
X130566000Y-110003000D01*
X131456000Y-104003000D02*
X132216000Y-104003000D01*
X131456000Y-110003000D02*
X131456000Y-104003000D01*
X131456000Y-113060071D02*
X131456000Y-112663000D01*
X132216000Y-104003000D02*
X132216000Y-110003000D01*
X132216000Y-113060071D02*
X132216000Y-112663000D01*
X133106000Y-112663000D02*
X133106000Y-110003000D01*
X133996000Y-104003000D02*
X134756000Y-104003000D01*
X133996000Y-110003000D02*
X133996000Y-104003000D01*
X133996000Y-113060071D02*
X133996000Y-112663000D01*
X134756000Y-104003000D02*
X134756000Y-110003000D01*
X134756000Y-113060071D02*
X134756000Y-112663000D01*
X135706000Y-110003000D02*
X125426000Y-110003000D01*
X135706000Y-112663000D02*
X135706000Y-110003000D01*
%TO.C,CON3*%
X127590000Y-128440000D02*
X127590000Y-131100000D01*
X127590000Y-131100000D02*
X135330000Y-131100000D01*
X128540000Y-128042929D02*
X128540000Y-128440000D01*
X128540000Y-137100000D02*
X128540000Y-131100000D01*
X129300000Y-128042929D02*
X129300000Y-128440000D01*
X129300000Y-131100000D02*
X129300000Y-137100000D01*
X129300000Y-137100000D02*
X128540000Y-137100000D01*
X130190000Y-128440000D02*
X130190000Y-131100000D01*
X131080000Y-128042929D02*
X131080000Y-128440000D01*
X131080000Y-137100000D02*
X131080000Y-131100000D01*
X131840000Y-128042929D02*
X131840000Y-128440000D01*
X131840000Y-131100000D02*
X131840000Y-137100000D01*
X131840000Y-137100000D02*
X131080000Y-137100000D01*
X132730000Y-128440000D02*
X132730000Y-131100000D01*
X133620000Y-128110000D02*
X133620000Y-128440000D01*
X133620000Y-137100000D02*
X133620000Y-131100000D01*
X133720000Y-131100000D02*
X133720000Y-137100000D01*
X133840000Y-131100000D02*
X133840000Y-137100000D01*
X133960000Y-131100000D02*
X133960000Y-137100000D01*
X134000000Y-125730000D02*
X135270000Y-125730000D01*
X134080000Y-131100000D02*
X134080000Y-137100000D01*
X134200000Y-131100000D02*
X134200000Y-137100000D01*
X134320000Y-131100000D02*
X134320000Y-137100000D01*
X134380000Y-128110000D02*
X134380000Y-128440000D01*
X134380000Y-131100000D02*
X134380000Y-137100000D01*
X134380000Y-137100000D02*
X133620000Y-137100000D01*
X135270000Y-125730000D02*
X135270000Y-127000000D01*
X135330000Y-128440000D02*
X127590000Y-128440000D01*
X135330000Y-131100000D02*
X135330000Y-128440000D01*
D14*
%TO.C,G\u002A\u002A\u002A*%
G36*
X125811442Y-130616773D02*
G01*
X125876074Y-130635517D01*
X125886436Y-130640137D01*
X125926812Y-130667015D01*
X125991079Y-130718557D01*
X126072220Y-130788266D01*
X126163215Y-130869646D01*
X126257046Y-130956203D01*
X126346696Y-131041438D01*
X126425144Y-131118857D01*
X126485374Y-131181963D01*
X126520366Y-131224260D01*
X126524088Y-131230327D01*
X126533698Y-131289314D01*
X126519456Y-131384423D01*
X126505462Y-131452071D01*
X126505862Y-131493905D01*
X126524436Y-131527268D01*
X126558382Y-131562962D01*
X126602751Y-131602855D01*
X126639968Y-131616843D01*
X126690973Y-131610303D01*
X126717418Y-131603786D01*
X126789156Y-131591625D01*
X126851918Y-131590973D01*
X126864753Y-131593200D01*
X126903187Y-131615633D01*
X126963239Y-131665555D01*
X127038382Y-131736058D01*
X127122089Y-131820233D01*
X127207833Y-131911174D01*
X127289085Y-132001971D01*
X127359317Y-132085719D01*
X127412003Y-132155508D01*
X127439220Y-132201118D01*
X127464484Y-132286880D01*
X127452723Y-132351468D01*
X127402739Y-132400013D01*
X127391174Y-132406602D01*
X127334066Y-132421208D01*
X127234765Y-132426986D01*
X127094631Y-132423971D01*
X126915024Y-132412198D01*
X126697302Y-132391702D01*
X126663349Y-132388083D01*
X126303143Y-132349188D01*
X125986107Y-132666790D01*
X125878305Y-132775269D01*
X125798241Y-132857632D01*
X125741947Y-132918909D01*
X125705456Y-132964131D01*
X125684801Y-132998327D01*
X125676013Y-133026528D01*
X125675126Y-133053765D01*
X125675623Y-133060435D01*
X125674042Y-133116787D01*
X125652709Y-133144545D01*
X125639329Y-133150076D01*
X125584475Y-133154683D01*
X125558555Y-133149120D01*
X125514587Y-133154569D01*
X125453965Y-133199336D01*
X125445509Y-133207372D01*
X125397526Y-133261282D01*
X125379992Y-133305654D01*
X125382223Y-133339334D01*
X125377128Y-133401433D01*
X125339518Y-133439540D01*
X125278618Y-133444930D01*
X125272125Y-133443466D01*
X125219071Y-133450317D01*
X125163201Y-133486318D01*
X125116958Y-133538874D01*
X125092782Y-133595391D01*
X125093558Y-133624220D01*
X125091535Y-133685177D01*
X125055942Y-133724880D01*
X124996115Y-133733651D01*
X124989112Y-133732445D01*
X124934748Y-133739871D01*
X124877154Y-133774065D01*
X124828287Y-133823642D01*
X124800103Y-133877216D01*
X124799634Y-133912868D01*
X124806249Y-133977943D01*
X124778748Y-134015977D01*
X124719867Y-134023560D01*
X124711753Y-134022415D01*
X124659568Y-134020695D01*
X124615768Y-134040891D01*
X124569364Y-134083482D01*
X124523982Y-134138396D01*
X124509293Y-134183036D01*
X124512819Y-134211802D01*
X124509879Y-134275335D01*
X124490243Y-134303917D01*
X124451417Y-134335066D01*
X124417388Y-134333746D01*
X124390288Y-134318733D01*
X124353199Y-134318518D01*
X124305630Y-134346090D01*
X124258567Y-134390320D01*
X124222998Y-134440081D01*
X124209912Y-134484243D01*
X124213437Y-134497854D01*
X124225132Y-134546932D01*
X124221423Y-134571322D01*
X124187916Y-134608117D01*
X124137344Y-134622766D01*
X124093034Y-134609445D01*
X124065938Y-134603530D01*
X124026857Y-134627708D01*
X123989154Y-134663770D01*
X123940560Y-134721866D01*
X123920764Y-134772418D01*
X123920142Y-134816844D01*
X123918570Y-134872377D01*
X123896942Y-134899989D01*
X123881483Y-134906359D01*
X123825715Y-134908945D01*
X123796618Y-134899968D01*
X123777761Y-134898413D01*
X123744635Y-134908570D01*
X123693624Y-134932443D01*
X123621109Y-134972038D01*
X123523474Y-135029362D01*
X123397103Y-135106420D01*
X123238377Y-135205218D01*
X123179112Y-135242412D01*
X123034657Y-135332715D01*
X122901712Y-135414879D01*
X122785081Y-135486009D01*
X122689568Y-135543209D01*
X122619978Y-135583586D01*
X122581115Y-135604244D01*
X122575143Y-135606343D01*
X122539898Y-135592574D01*
X122512754Y-135570913D01*
X122489429Y-135528457D01*
X122490163Y-135499254D01*
X122509497Y-135460846D01*
X122549076Y-135391174D01*
X122605214Y-135296159D01*
X122646482Y-135227726D01*
X122856364Y-135227726D01*
X122863454Y-135225846D01*
X122883116Y-135215342D01*
X122919820Y-135193590D01*
X122978039Y-135157969D01*
X123062244Y-135105857D01*
X123176906Y-135034631D01*
X123268000Y-134978015D01*
X123381435Y-134907292D01*
X123482727Y-134843703D01*
X123565459Y-134791313D01*
X123623216Y-134754182D01*
X123649570Y-134736385D01*
X123655253Y-134713839D01*
X123639899Y-134667804D01*
X123601566Y-134593589D01*
X123563445Y-134528077D01*
X123514066Y-134448372D01*
X123471786Y-134385484D01*
X123442349Y-134347673D01*
X123433007Y-134340445D01*
X123410057Y-134357037D01*
X123369086Y-134407383D01*
X123309537Y-134492337D01*
X123230853Y-134612753D01*
X123132477Y-134769484D01*
X123013852Y-134963386D01*
X122874421Y-135195312D01*
X122862013Y-135216101D01*
X122857374Y-135223604D01*
X122856364Y-135227726D01*
X122646482Y-135227726D01*
X122674225Y-135181722D01*
X122752423Y-135053783D01*
X122836122Y-134918265D01*
X122921635Y-134781087D01*
X123005277Y-134648170D01*
X123083362Y-134525436D01*
X123152204Y-134418804D01*
X123208116Y-134334197D01*
X123247412Y-134277536D01*
X123263222Y-134257498D01*
X123307947Y-134196666D01*
X123569406Y-134196666D01*
X123684865Y-134390777D01*
X123734297Y-134471900D01*
X123775834Y-134536382D01*
X123804124Y-134576125D01*
X123813136Y-134584889D01*
X123834793Y-134570309D01*
X123875288Y-134533283D01*
X123899567Y-134508934D01*
X123973186Y-134432979D01*
X123857990Y-134242268D01*
X123807974Y-134161997D01*
X123765433Y-134098395D01*
X123735985Y-134059607D01*
X123726424Y-134051556D01*
X123702417Y-134066184D01*
X123660765Y-134103132D01*
X123639729Y-134124111D01*
X123569406Y-134196666D01*
X123307947Y-134196666D01*
X123314205Y-134188155D01*
X123332594Y-134114630D01*
X123333096Y-134101943D01*
X123336900Y-134047230D01*
X123354377Y-134023755D01*
X123398834Y-134018313D01*
X123417453Y-134018223D01*
X123506866Y-133998184D01*
X123576338Y-133944075D01*
X123595257Y-133907112D01*
X123860243Y-133907112D01*
X123975233Y-134101000D01*
X124024472Y-134182159D01*
X124065754Y-134246740D01*
X124093751Y-134286604D01*
X124102530Y-134295444D01*
X124123796Y-134281192D01*
X124164216Y-134244273D01*
X124190491Y-134217946D01*
X124266145Y-134139891D01*
X124223872Y-134067946D01*
X124189208Y-134010372D01*
X124141998Y-133933716D01*
X124101234Y-133868528D01*
X124020869Y-133741055D01*
X123940556Y-133824083D01*
X123860243Y-133907112D01*
X123595257Y-133907112D01*
X123616862Y-133864901D01*
X123623556Y-133812120D01*
X123626361Y-133757817D01*
X123643521Y-133734671D01*
X123688155Y-133729410D01*
X123705391Y-133729334D01*
X123787231Y-133712775D01*
X123854963Y-133669406D01*
X123894986Y-133613940D01*
X124168000Y-133613940D01*
X124178858Y-133640561D01*
X124208084Y-133695764D01*
X124250657Y-133770338D01*
X124281713Y-133822530D01*
X124395426Y-134010787D01*
X124470602Y-133937923D01*
X124515160Y-133890753D01*
X124542115Y-133854534D01*
X124545778Y-133844727D01*
X124534920Y-133818107D01*
X124505695Y-133762904D01*
X124463122Y-133688329D01*
X124432065Y-133636138D01*
X124318353Y-133447881D01*
X124243177Y-133520744D01*
X124198618Y-133567915D01*
X124171663Y-133604133D01*
X124168000Y-133613940D01*
X123894986Y-133613940D01*
X123898778Y-133608685D01*
X123908870Y-133540073D01*
X123907836Y-133534068D01*
X123910196Y-133470624D01*
X123940187Y-133430421D01*
X123988801Y-133421792D01*
X124017893Y-133432249D01*
X124050886Y-133441474D01*
X124086120Y-133426914D01*
X124136378Y-133383230D01*
X124137205Y-133382429D01*
X124183979Y-133331425D01*
X124188662Y-133320887D01*
X124456889Y-133320887D01*
X124467630Y-133345673D01*
X124496573Y-133399498D01*
X124538804Y-133473444D01*
X124571465Y-133528766D01*
X124686041Y-133720476D01*
X124769587Y-133638895D01*
X124853134Y-133557314D01*
X124763980Y-133409991D01*
X124716111Y-133331222D01*
X124673082Y-133260992D01*
X124643502Y-133213349D01*
X124641575Y-133210305D01*
X124608324Y-133157942D01*
X124532607Y-133231331D01*
X124487982Y-133277710D01*
X124460780Y-133312011D01*
X124456889Y-133320887D01*
X124188662Y-133320887D01*
X124202437Y-133289892D01*
X124199918Y-133240768D01*
X124199380Y-133237844D01*
X124195795Y-133183310D01*
X124216098Y-133151826D01*
X124232553Y-133141576D01*
X124292629Y-133129107D01*
X124320312Y-133138709D01*
X124365408Y-133140697D01*
X124413756Y-133110103D01*
X124456367Y-133057069D01*
X124469262Y-133026857D01*
X124739460Y-133026857D01*
X124858505Y-133227942D01*
X124977551Y-133429028D01*
X125061369Y-133347182D01*
X125145187Y-133265336D01*
X125098735Y-133186224D01*
X125026540Y-133063980D01*
X124973501Y-132976010D01*
X124936838Y-132917934D01*
X124913770Y-132885372D01*
X124901520Y-132873941D01*
X124900501Y-132873778D01*
X124878951Y-132888360D01*
X124838469Y-132925420D01*
X124813645Y-132950318D01*
X124739460Y-133026857D01*
X124469262Y-133026857D01*
X124484252Y-132991737D01*
X124490223Y-132947002D01*
X124502962Y-132876874D01*
X124536780Y-132837056D01*
X124585083Y-132833217D01*
X124609452Y-132844530D01*
X124638937Y-132855484D01*
X124670041Y-132844127D01*
X124714380Y-132805113D01*
X124730449Y-132788812D01*
X124777693Y-132734862D01*
X124778280Y-132733588D01*
X125032595Y-132733588D01*
X125147533Y-132925905D01*
X125197171Y-133006618D01*
X125239217Y-133070654D01*
X125268171Y-133109876D01*
X125277543Y-133118223D01*
X125300654Y-133103609D01*
X125341934Y-133066592D01*
X125364677Y-133043873D01*
X125436740Y-132969524D01*
X125321801Y-132777207D01*
X125272163Y-132696493D01*
X125230117Y-132632458D01*
X125201163Y-132593236D01*
X125191791Y-132584889D01*
X125168680Y-132599503D01*
X125127400Y-132636520D01*
X125104657Y-132659239D01*
X125032595Y-132733588D01*
X124778280Y-132733588D01*
X124794846Y-132697660D01*
X124787981Y-132668517D01*
X124779201Y-132621145D01*
X124797983Y-132577570D01*
X124833403Y-132546818D01*
X124874534Y-132537912D01*
X124910454Y-132559876D01*
X124913690Y-132564681D01*
X124937421Y-132565450D01*
X124983076Y-132533943D01*
X125013929Y-132505662D01*
X125063682Y-132452560D01*
X125070288Y-132440445D01*
X125324390Y-132440445D01*
X125440135Y-132634889D01*
X125489425Y-132716041D01*
X125530501Y-132780585D01*
X125558109Y-132820444D01*
X125566599Y-132829334D01*
X125584831Y-132814385D01*
X125629744Y-132772586D01*
X125696585Y-132708508D01*
X125780601Y-132626720D01*
X125877040Y-132531795D01*
X125912508Y-132496652D01*
X126023953Y-132386390D01*
X126108905Y-132303806D01*
X126172238Y-132245091D01*
X126218826Y-132206436D01*
X126253544Y-132184033D01*
X126281266Y-132174072D01*
X126306865Y-132172744D01*
X126324516Y-132174684D01*
X126393791Y-132183447D01*
X126489555Y-132194326D01*
X126604150Y-132206579D01*
X126729920Y-132219466D01*
X126859206Y-132232247D01*
X126984352Y-132244180D01*
X127097700Y-132254525D01*
X127191594Y-132262541D01*
X127258376Y-132267488D01*
X127290388Y-132268625D01*
X127292029Y-132268268D01*
X127279820Y-132250810D01*
X127241039Y-132207621D01*
X127180805Y-132144134D01*
X127104234Y-132065781D01*
X127049580Y-132010903D01*
X126799318Y-131761350D01*
X126682427Y-131788332D01*
X126565536Y-131815314D01*
X126430615Y-131680393D01*
X126295695Y-131545472D01*
X126323533Y-131429430D01*
X126351371Y-131313387D01*
X126087464Y-131048547D01*
X126000482Y-130963242D01*
X125924829Y-130892817D01*
X125865671Y-130841777D01*
X125828172Y-130814622D01*
X125817261Y-130813012D01*
X125817812Y-130842780D01*
X125822834Y-130909986D01*
X125831703Y-131007920D01*
X125843795Y-131129870D01*
X125858485Y-131269123D01*
X125866414Y-131341381D01*
X125921862Y-131840445D01*
X125623126Y-132140445D01*
X125324390Y-132440445D01*
X125070288Y-132440445D01*
X125083635Y-132415966D01*
X125079198Y-132385266D01*
X125077258Y-132381426D01*
X125068865Y-132323761D01*
X125080481Y-132293442D01*
X125108403Y-132261147D01*
X125153039Y-132254991D01*
X125178006Y-132258183D01*
X125207615Y-132260759D01*
X125236028Y-132255068D01*
X125269300Y-132236668D01*
X125313484Y-132201117D01*
X125374635Y-132143976D01*
X125458805Y-132060801D01*
X125490981Y-132028573D01*
X125731587Y-131787219D01*
X125693971Y-131402721D01*
X125674900Y-131193389D01*
X125663034Y-131023889D01*
X125658707Y-130890145D01*
X125662255Y-130788076D01*
X125674016Y-130713607D01*
X125694325Y-130662658D01*
X125723517Y-130631151D01*
X125758816Y-130615753D01*
X125811442Y-130616773D01*
G37*
%TD*%
M02*
