%TF.GenerationSoftware,KiCad,Pcbnew,8.0.1*%
%TF.CreationDate,2024-08-03T11:03:04+02:00*%
%TF.ProjectId,FT_TargetSwitch,46545f54-6172-4676-9574-537769746368,rev?*%
%TF.SameCoordinates,Original*%
%TF.FileFunction,Copper,L2,Bot*%
%TF.FilePolarity,Positive*%
%FSLAX46Y46*%
G04 Gerber Fmt 4.6, Leading zero omitted, Abs format (unit mm)*
G04 Created by KiCad (PCBNEW 8.0.1) date 2024-08-03 11:03:04*
%MOMM*%
%LPD*%
G01*
G04 APERTURE LIST*
%TA.AperFunction,ComponentPad*%
%ADD10R,1.700000X1.700000*%
%TD*%
%TA.AperFunction,ComponentPad*%
%ADD11O,1.700000X1.700000*%
%TD*%
%TA.AperFunction,ViaPad*%
%ADD12C,0.610000*%
%TD*%
%TA.AperFunction,Conductor*%
%ADD13C,0.762000*%
%TD*%
G04 APERTURE END LIST*
D10*
%TO.P,CON4,1,Pin_1*%
%TO.N,/LED_OUT*%
X111000000Y-127000000D03*
D11*
%TO.P,CON4,2,Pin_2*%
%TO.N,GND*%
X108460000Y-127000000D03*
%TD*%
D10*
%TO.P,CON2,1,Pin_1*%
%TO.N,Net-(CON1-Pin_1)*%
X107203000Y-114103000D03*
D11*
%TO.P,CON2,2,Pin_2*%
%TO.N,GND*%
X109743000Y-114103000D03*
%TO.P,CON2,3,Pin_3*%
%TO.N,/PASSTHRU*%
X112283000Y-114103000D03*
%TD*%
D10*
%TO.P,CON1,1,Pin_1*%
%TO.N,Net-(CON1-Pin_1)*%
X126756000Y-114103000D03*
D11*
%TO.P,CON1,2,Pin_2*%
%TO.N,GND*%
X129296000Y-114103000D03*
%TO.P,CON1,3,Pin_3*%
%TO.N,/OUT*%
X131836000Y-114103000D03*
%TO.P,CON1,4,Pin_4*%
%TO.N,/PASSTHRU*%
X134376000Y-114103000D03*
%TD*%
D10*
%TO.P,CON3,1,Pin_1*%
%TO.N,+12V*%
X134000000Y-127000000D03*
D11*
%TO.P,CON3,2,Pin_2*%
%TO.N,GND*%
X131460000Y-127000000D03*
%TO.P,CON3,3,Pin_3*%
%TO.N,/HAL_IN*%
X128920000Y-127000000D03*
%TD*%
D12*
%TO.N,GND*%
X122108000Y-116434000D03*
%TO.N,/LED_OUT*%
X122000000Y-127000000D03*
X117500000Y-127000000D03*
X122000000Y-122000000D03*
X117500000Y-124500000D03*
X122000000Y-124500000D03*
X117500000Y-122000000D03*
X120000000Y-124500000D03*
X120000000Y-127000000D03*
X120000000Y-122000000D03*
%TD*%
D13*
%TO.N,GND*%
X109728000Y-114118000D02*
X109743000Y-114103000D01*
X122108000Y-116434000D02*
X122174000Y-116500000D01*
X122108000Y-116434000D02*
X122042000Y-116500000D01*
%TD*%
%TA.AperFunction,Conductor*%
%TO.N,/LED_OUT*%
G36*
X139943039Y-100019685D02*
G01*
X139988794Y-100072489D01*
X140000000Y-100124000D01*
X140000000Y-139876000D01*
X139980315Y-139943039D01*
X139927511Y-139988794D01*
X139876000Y-140000000D01*
X100124000Y-140000000D01*
X100056961Y-139980315D01*
X100011206Y-139927511D01*
X100000000Y-139876000D01*
X100000000Y-133157142D01*
X117502467Y-133157142D01*
X117541852Y-133468906D01*
X117541854Y-133468919D01*
X117620007Y-133773306D01*
X117620008Y-133773309D01*
X117735691Y-134065492D01*
X117735695Y-134065500D01*
X117887085Y-134340878D01*
X117887091Y-134340887D01*
X117887093Y-134340891D01*
X118071813Y-134595135D01*
X118286940Y-134824223D01*
X118529084Y-135024542D01*
X118529088Y-135024545D01*
X118748676Y-135163899D01*
X118794425Y-135192932D01*
X118960322Y-135270997D01*
X119078772Y-135326736D01*
X119078776Y-135326737D01*
X119078779Y-135326739D01*
X119377661Y-135423852D01*
X119686357Y-135482739D01*
X119686361Y-135482739D01*
X119686365Y-135482740D01*
X119686362Y-135482740D01*
X119999995Y-135502472D01*
X120000000Y-135502472D01*
X120000005Y-135502472D01*
X120313635Y-135482740D01*
X120313638Y-135482739D01*
X120313643Y-135482739D01*
X120622339Y-135423852D01*
X120921221Y-135326739D01*
X121205575Y-135192932D01*
X121470916Y-135024542D01*
X121713060Y-134824223D01*
X121928187Y-134595135D01*
X122112907Y-134340891D01*
X122264304Y-134065501D01*
X122379992Y-133773306D01*
X122458146Y-133468916D01*
X122497533Y-133157131D01*
X122500000Y-133000000D01*
X122497533Y-132842869D01*
X122497531Y-132842857D01*
X122458147Y-132531093D01*
X122458145Y-132531080D01*
X122379992Y-132226693D01*
X122379991Y-132226690D01*
X122264308Y-131934507D01*
X122264304Y-131934499D01*
X122112914Y-131659121D01*
X122112911Y-131659116D01*
X122112907Y-131659109D01*
X121928187Y-131404865D01*
X121713060Y-131175777D01*
X121470916Y-130975458D01*
X121470915Y-130975457D01*
X121470911Y-130975454D01*
X121205577Y-130807069D01*
X121205571Y-130807066D01*
X120921227Y-130673263D01*
X120921222Y-130673261D01*
X120782553Y-130628205D01*
X120622339Y-130576148D01*
X120313643Y-130517261D01*
X120313640Y-130517260D01*
X120313636Y-130517260D01*
X120313632Y-130517259D01*
X120000005Y-130497529D01*
X119999995Y-130497529D01*
X119686367Y-130517259D01*
X119686363Y-130517260D01*
X119686358Y-130517260D01*
X119686357Y-130517261D01*
X119377661Y-130576148D01*
X119377655Y-130576150D01*
X119078777Y-130673261D01*
X119078772Y-130673263D01*
X118794428Y-130807066D01*
X118794422Y-130807069D01*
X118529088Y-130975454D01*
X118286938Y-131175779D01*
X118071817Y-131404860D01*
X117887092Y-131659110D01*
X117887085Y-131659121D01*
X117735695Y-131934499D01*
X117735691Y-131934507D01*
X117620008Y-132226690D01*
X117620007Y-132226693D01*
X117541854Y-132531080D01*
X117541852Y-132531093D01*
X117502467Y-132842857D01*
X117502467Y-133157142D01*
X100000000Y-133157142D01*
X100000000Y-129351000D01*
X104994500Y-129351000D01*
X105011723Y-129481828D01*
X105011726Y-129481841D01*
X105031684Y-129556325D01*
X105031684Y-129556326D01*
X105076295Y-129667760D01*
X105162513Y-129782934D01*
X105162519Y-129782940D01*
X105162520Y-129782942D01*
X105217058Y-129837480D01*
X105311405Y-129911676D01*
X105311407Y-129911677D01*
X105311410Y-129911679D01*
X105443657Y-129968310D01*
X105443662Y-129968311D01*
X105443668Y-129968314D01*
X105518168Y-129988276D01*
X105616292Y-130001194D01*
X105648999Y-130005500D01*
X105649000Y-130005500D01*
X109601001Y-130005500D01*
X109627166Y-130002055D01*
X109731832Y-129988276D01*
X109806332Y-129968314D01*
X109917760Y-129923705D01*
X110032942Y-129837480D01*
X110087480Y-129782942D01*
X110161676Y-129688595D01*
X110218314Y-129556332D01*
X110238276Y-129481832D01*
X110255500Y-129351000D01*
X110255500Y-128474000D01*
X110275185Y-128406961D01*
X110327989Y-128361206D01*
X110379500Y-128350000D01*
X110750000Y-128350000D01*
X110750000Y-127433012D01*
X110807007Y-127465925D01*
X110934174Y-127500000D01*
X111065826Y-127500000D01*
X111192993Y-127465925D01*
X111250000Y-127433012D01*
X111250000Y-128350000D01*
X111897828Y-128350000D01*
X111897844Y-128349999D01*
X111957372Y-128343598D01*
X111957379Y-128343596D01*
X112092086Y-128293354D01*
X112092093Y-128293350D01*
X112207187Y-128207190D01*
X112207190Y-128207187D01*
X112293350Y-128092093D01*
X112293354Y-128092086D01*
X112343596Y-127957379D01*
X112343598Y-127957372D01*
X112349999Y-127897844D01*
X112350000Y-127897827D01*
X112350000Y-127250000D01*
X111433012Y-127250000D01*
X111465925Y-127192993D01*
X111500000Y-127065826D01*
X111500000Y-126934174D01*
X111465925Y-126807007D01*
X111433012Y-126750000D01*
X112350000Y-126750000D01*
X112350000Y-126102172D01*
X112349999Y-126102155D01*
X112343598Y-126042627D01*
X112343596Y-126042620D01*
X112293354Y-125907913D01*
X112293350Y-125907906D01*
X112207190Y-125792812D01*
X112207187Y-125792809D01*
X112092093Y-125706649D01*
X112092086Y-125706645D01*
X111957379Y-125656403D01*
X111957372Y-125656401D01*
X111897844Y-125650000D01*
X111250000Y-125650000D01*
X111250000Y-126566988D01*
X111192993Y-126534075D01*
X111065826Y-126500000D01*
X110934174Y-126500000D01*
X110807007Y-126534075D01*
X110750000Y-126566988D01*
X110750000Y-125650000D01*
X110379500Y-125650000D01*
X110312461Y-125630315D01*
X110266706Y-125577511D01*
X110255500Y-125526000D01*
X110255500Y-121129500D01*
X110275185Y-121062461D01*
X110327989Y-121016706D01*
X110379500Y-121005500D01*
X123120500Y-121005500D01*
X123187539Y-121025185D01*
X123233294Y-121077989D01*
X123244500Y-121129500D01*
X123244500Y-129351000D01*
X123261723Y-129481828D01*
X123261726Y-129481841D01*
X123281684Y-129556325D01*
X123281684Y-129556326D01*
X123326295Y-129667760D01*
X123412513Y-129782934D01*
X123412519Y-129782940D01*
X123412520Y-129782942D01*
X123467058Y-129837480D01*
X123561405Y-129911676D01*
X123561407Y-129911677D01*
X123561410Y-129911679D01*
X123693657Y-129968310D01*
X123693662Y-129968311D01*
X123693668Y-129968314D01*
X123768168Y-129988276D01*
X123866292Y-130001194D01*
X123898999Y-130005500D01*
X123899000Y-130005500D01*
X135851001Y-130005500D01*
X135877166Y-130002055D01*
X135981832Y-129988276D01*
X136056332Y-129968314D01*
X136167760Y-129923705D01*
X136282942Y-129837480D01*
X136337480Y-129782942D01*
X136411676Y-129688595D01*
X136468314Y-129556332D01*
X136488276Y-129481832D01*
X136505500Y-129351000D01*
X136505500Y-114391848D01*
X136501175Y-114325868D01*
X136496098Y-114287304D01*
X136486174Y-114234108D01*
X136486173Y-114234107D01*
X136486173Y-114234104D01*
X136452227Y-114149312D01*
X136445585Y-114079758D01*
X136453357Y-114054410D01*
X136468311Y-114019489D01*
X136468314Y-114019483D01*
X136488276Y-113944983D01*
X136505500Y-113814151D01*
X136505500Y-109649000D01*
X136488276Y-109518168D01*
X136468314Y-109443668D01*
X136423705Y-109332240D01*
X136402269Y-109303605D01*
X136337486Y-109217065D01*
X136337477Y-109217055D01*
X136282942Y-109162520D01*
X136188595Y-109088324D01*
X136188592Y-109088323D01*
X136188589Y-109088320D01*
X136056342Y-109031689D01*
X136056325Y-109031684D01*
X135981841Y-109011726D01*
X135981828Y-109011723D01*
X135851001Y-108994500D01*
X135851000Y-108994500D01*
X105649000Y-108994500D01*
X105648999Y-108994500D01*
X105518171Y-109011723D01*
X105518158Y-109011726D01*
X105443674Y-109031684D01*
X105443673Y-109031684D01*
X105332239Y-109076295D01*
X105217065Y-109162513D01*
X105217055Y-109162522D01*
X105162519Y-109217059D01*
X105088320Y-109311410D01*
X105031689Y-109443657D01*
X105031684Y-109443674D01*
X105011726Y-109518158D01*
X105011723Y-109518171D01*
X104994500Y-109648999D01*
X104994500Y-129351000D01*
X100000000Y-129351000D01*
X100000000Y-105157142D01*
X117502467Y-105157142D01*
X117541852Y-105468906D01*
X117541854Y-105468919D01*
X117620007Y-105773306D01*
X117620008Y-105773309D01*
X117735691Y-106065492D01*
X117735695Y-106065500D01*
X117887085Y-106340878D01*
X117887091Y-106340887D01*
X117887093Y-106340891D01*
X118071813Y-106595135D01*
X118286940Y-106824223D01*
X118529084Y-107024542D01*
X118529088Y-107024545D01*
X118748676Y-107163899D01*
X118794425Y-107192932D01*
X118960322Y-107270997D01*
X119078772Y-107326736D01*
X119078776Y-107326737D01*
X119078779Y-107326739D01*
X119377661Y-107423852D01*
X119686357Y-107482739D01*
X119686361Y-107482739D01*
X119686365Y-107482740D01*
X119686362Y-107482740D01*
X119999995Y-107502472D01*
X120000000Y-107502472D01*
X120000005Y-107502472D01*
X120313635Y-107482740D01*
X120313638Y-107482739D01*
X120313643Y-107482739D01*
X120622339Y-107423852D01*
X120921221Y-107326739D01*
X121205575Y-107192932D01*
X121470916Y-107024542D01*
X121713060Y-106824223D01*
X121928187Y-106595135D01*
X122112907Y-106340891D01*
X122264304Y-106065501D01*
X122379992Y-105773306D01*
X122458146Y-105468916D01*
X122497533Y-105157131D01*
X122500000Y-105000000D01*
X122497533Y-104842869D01*
X122497531Y-104842857D01*
X122458147Y-104531093D01*
X122458145Y-104531080D01*
X122379992Y-104226693D01*
X122379991Y-104226690D01*
X122264308Y-103934507D01*
X122264304Y-103934499D01*
X122112914Y-103659121D01*
X122112911Y-103659116D01*
X122112907Y-103659109D01*
X121928187Y-103404865D01*
X121713060Y-103175777D01*
X121470916Y-102975458D01*
X121470915Y-102975457D01*
X121470911Y-102975454D01*
X121205577Y-102807069D01*
X121205571Y-102807066D01*
X120921227Y-102673263D01*
X120921222Y-102673261D01*
X120782553Y-102628205D01*
X120622339Y-102576148D01*
X120313643Y-102517261D01*
X120313640Y-102517260D01*
X120313636Y-102517260D01*
X120313632Y-102517259D01*
X120000005Y-102497529D01*
X119999995Y-102497529D01*
X119686367Y-102517259D01*
X119686363Y-102517260D01*
X119686358Y-102517260D01*
X119686357Y-102517261D01*
X119377661Y-102576148D01*
X119377655Y-102576150D01*
X119078777Y-102673261D01*
X119078772Y-102673263D01*
X118794428Y-102807066D01*
X118794422Y-102807069D01*
X118529088Y-102975454D01*
X118286938Y-103175779D01*
X118071817Y-103404860D01*
X117887092Y-103659110D01*
X117887085Y-103659121D01*
X117735695Y-103934499D01*
X117735691Y-103934507D01*
X117620008Y-104226690D01*
X117620007Y-104226693D01*
X117541854Y-104531080D01*
X117541852Y-104531093D01*
X117502467Y-104842857D01*
X117502467Y-105157142D01*
X100000000Y-105157142D01*
X100000000Y-100124000D01*
X100019685Y-100056961D01*
X100072489Y-100011206D01*
X100124000Y-100000000D01*
X139876000Y-100000000D01*
X139943039Y-100019685D01*
G37*
%TD.AperFunction*%
%TD*%
%TA.AperFunction,Conductor*%
%TO.N,GND*%
G36*
X135925500Y-109519962D02*
G01*
X135980038Y-109574500D01*
X136000000Y-109649000D01*
X136000000Y-113814151D01*
X135980038Y-113888651D01*
X135925500Y-113943189D01*
X135851000Y-113963151D01*
X135776500Y-113943189D01*
X135721962Y-113888651D01*
X135707077Y-113852715D01*
X135691878Y-113795993D01*
X135649903Y-113639337D01*
X135550035Y-113425171D01*
X135414495Y-113231599D01*
X135247401Y-113064505D01*
X135053830Y-112928965D01*
X134839663Y-112829097D01*
X134839661Y-112829096D01*
X134611409Y-112767937D01*
X134376000Y-112747341D01*
X134140590Y-112767937D01*
X133912340Y-112829096D01*
X133912339Y-112829096D01*
X133912337Y-112829097D01*
X133698171Y-112928965D01*
X133698168Y-112928966D01*
X133698168Y-112928967D01*
X133504596Y-113064507D01*
X133337506Y-113231597D01*
X133228054Y-113387912D01*
X133168970Y-113437489D01*
X133093014Y-113450882D01*
X133020537Y-113424503D01*
X132983946Y-113387912D01*
X132874495Y-113231599D01*
X132707401Y-113064505D01*
X132513830Y-112928965D01*
X132299663Y-112829097D01*
X132299661Y-112829096D01*
X132071409Y-112767937D01*
X131836000Y-112747341D01*
X131600590Y-112767937D01*
X131372340Y-112829096D01*
X131372339Y-112829096D01*
X131372337Y-112829097D01*
X131158171Y-112928965D01*
X131158168Y-112928966D01*
X131158168Y-112928967D01*
X130964596Y-113064507D01*
X130797503Y-113231600D01*
X130687747Y-113388348D01*
X130628664Y-113437925D01*
X130552707Y-113451318D01*
X130480231Y-113424938D01*
X130443640Y-113388348D01*
X130334108Y-113231920D01*
X130167076Y-113064888D01*
X129973588Y-112929406D01*
X129973579Y-112929400D01*
X129759491Y-112829569D01*
X129759489Y-112829568D01*
X129546000Y-112772364D01*
X129546000Y-113669988D01*
X129488993Y-113637075D01*
X129361826Y-113603000D01*
X129230174Y-113603000D01*
X129103007Y-113637075D01*
X129046000Y-113669988D01*
X129046000Y-112772364D01*
X129045999Y-112772364D01*
X128832512Y-112829568D01*
X128618419Y-112929402D01*
X128424916Y-113064894D01*
X128330371Y-113159439D01*
X128263576Y-113198003D01*
X128186448Y-113198003D01*
X128119654Y-113159438D01*
X128085407Y-113106148D01*
X128049798Y-113010672D01*
X128049795Y-113010666D01*
X127963547Y-112895455D01*
X127963544Y-112895452D01*
X127848333Y-112809204D01*
X127848329Y-112809202D01*
X127713482Y-112758908D01*
X127653876Y-112752500D01*
X125858136Y-112752500D01*
X125858111Y-112752502D01*
X125798521Y-112758908D01*
X125798515Y-112758909D01*
X125663670Y-112809202D01*
X125663666Y-112809204D01*
X125548455Y-112895452D01*
X125548452Y-112895455D01*
X125462204Y-113010666D01*
X125462202Y-113010670D01*
X125411908Y-113145517D01*
X125405500Y-113205114D01*
X125405500Y-115000863D01*
X125405502Y-115000888D01*
X125411908Y-115060478D01*
X125411909Y-115060484D01*
X125462202Y-115195329D01*
X125462204Y-115195333D01*
X125548452Y-115310544D01*
X125548455Y-115310547D01*
X125663666Y-115396795D01*
X125663670Y-115396797D01*
X125798517Y-115447091D01*
X125858114Y-115453499D01*
X125858118Y-115453499D01*
X125858127Y-115453500D01*
X127653872Y-115453499D01*
X127713483Y-115447091D01*
X127809447Y-115411298D01*
X127848329Y-115396797D01*
X127848333Y-115396795D01*
X127905938Y-115353671D01*
X127963546Y-115310546D01*
X128049796Y-115195331D01*
X128085408Y-115099848D01*
X128130144Y-115037024D01*
X128200302Y-115004982D01*
X128277081Y-115012313D01*
X128330372Y-115046560D01*
X128424923Y-115141111D01*
X128618411Y-115276593D01*
X128618420Y-115276599D01*
X128832508Y-115376430D01*
X128832513Y-115376432D01*
X129046000Y-115433634D01*
X129046000Y-114536012D01*
X129103007Y-114568925D01*
X129230174Y-114603000D01*
X129361826Y-114603000D01*
X129488993Y-114568925D01*
X129546000Y-114536012D01*
X129546000Y-115433633D01*
X129759486Y-115376432D01*
X129759491Y-115376430D01*
X129973579Y-115276599D01*
X129973588Y-115276593D01*
X130167076Y-115141111D01*
X130334108Y-114974079D01*
X130443640Y-114817652D01*
X130502724Y-114768075D01*
X130578680Y-114754682D01*
X130651157Y-114781061D01*
X130687747Y-114817652D01*
X130797503Y-114974399D01*
X130797505Y-114974401D01*
X130964599Y-115141495D01*
X131158170Y-115277035D01*
X131372337Y-115376903D01*
X131600592Y-115438063D01*
X131836000Y-115458659D01*
X132071408Y-115438063D01*
X132299663Y-115376903D01*
X132513830Y-115277035D01*
X132707401Y-115141495D01*
X132874495Y-114974401D01*
X132983947Y-114818086D01*
X133043030Y-114768511D01*
X133118986Y-114755118D01*
X133191463Y-114781497D01*
X133228051Y-114818085D01*
X133337505Y-114974401D01*
X133504599Y-115141495D01*
X133698170Y-115277035D01*
X133912337Y-115376903D01*
X134140592Y-115438063D01*
X134376000Y-115458659D01*
X134611408Y-115438063D01*
X134839663Y-115376903D01*
X135053830Y-115277035D01*
X135247401Y-115141495D01*
X135414495Y-114974401D01*
X135550035Y-114780830D01*
X135649903Y-114566663D01*
X135707077Y-114353283D01*
X135745641Y-114286489D01*
X135812436Y-114247925D01*
X135889564Y-114247925D01*
X135956359Y-114286489D01*
X135994923Y-114353284D01*
X136000000Y-114391848D01*
X136000000Y-129351000D01*
X135980038Y-129425500D01*
X135925500Y-129480038D01*
X135851000Y-129500000D01*
X123899000Y-129500000D01*
X123824500Y-129480038D01*
X123769962Y-129425500D01*
X123750000Y-129351000D01*
X123750000Y-127000000D01*
X127564341Y-127000000D01*
X127584937Y-127235409D01*
X127646050Y-127463491D01*
X127646097Y-127463663D01*
X127745965Y-127677830D01*
X127881505Y-127871401D01*
X128048599Y-128038495D01*
X128242170Y-128174035D01*
X128456337Y-128273903D01*
X128684592Y-128335063D01*
X128920000Y-128355659D01*
X129155408Y-128335063D01*
X129383663Y-128273903D01*
X129597830Y-128174035D01*
X129791401Y-128038495D01*
X129958495Y-127871401D01*
X130068253Y-127714650D01*
X130127335Y-127665075D01*
X130203291Y-127651682D01*
X130275768Y-127678061D01*
X130312358Y-127714652D01*
X130421888Y-127871076D01*
X130588923Y-128038111D01*
X130782411Y-128173593D01*
X130782420Y-128173599D01*
X130996508Y-128273430D01*
X130996513Y-128273432D01*
X131210000Y-128330634D01*
X131210000Y-127433012D01*
X131267007Y-127465925D01*
X131394174Y-127500000D01*
X131525826Y-127500000D01*
X131652993Y-127465925D01*
X131710000Y-127433012D01*
X131710000Y-128330633D01*
X131923486Y-128273432D01*
X131923491Y-128273430D01*
X132137579Y-128173599D01*
X132137588Y-128173593D01*
X132331079Y-128038109D01*
X132425627Y-127943561D01*
X132492421Y-127904996D01*
X132569549Y-127904996D01*
X132636344Y-127943560D01*
X132670592Y-127996850D01*
X132706202Y-128092329D01*
X132706204Y-128092333D01*
X132792452Y-128207544D01*
X132792455Y-128207547D01*
X132907666Y-128293795D01*
X132907670Y-128293797D01*
X133042517Y-128344091D01*
X133102114Y-128350499D01*
X133102118Y-128350499D01*
X133102127Y-128350500D01*
X134897872Y-128350499D01*
X134957483Y-128344091D01*
X135053447Y-128308298D01*
X135092329Y-128293797D01*
X135092333Y-128293795D01*
X135149938Y-128250671D01*
X135207546Y-128207546D01*
X135250671Y-128149938D01*
X135293795Y-128092333D01*
X135293797Y-128092329D01*
X135344091Y-127957482D01*
X135350499Y-127897885D01*
X135350499Y-127897882D01*
X135350500Y-127897873D01*
X135350499Y-126102128D01*
X135344091Y-126042517D01*
X135329408Y-126003149D01*
X135293797Y-125907670D01*
X135293795Y-125907666D01*
X135207547Y-125792455D01*
X135207544Y-125792452D01*
X135092333Y-125706204D01*
X135092329Y-125706202D01*
X134957482Y-125655908D01*
X134897876Y-125649500D01*
X133102136Y-125649500D01*
X133102111Y-125649502D01*
X133042521Y-125655908D01*
X133042515Y-125655909D01*
X132907670Y-125706202D01*
X132907666Y-125706204D01*
X132792455Y-125792452D01*
X132792452Y-125792455D01*
X132706204Y-125907666D01*
X132706202Y-125907670D01*
X132670592Y-126003149D01*
X132625854Y-126065976D01*
X132555696Y-126098017D01*
X132478917Y-126090686D01*
X132425627Y-126056439D01*
X132331076Y-125961888D01*
X132137588Y-125826406D01*
X132137579Y-125826400D01*
X131923491Y-125726569D01*
X131923489Y-125726568D01*
X131710000Y-125669364D01*
X131710000Y-126566988D01*
X131652993Y-126534075D01*
X131525826Y-126500000D01*
X131394174Y-126500000D01*
X131267007Y-126534075D01*
X131210000Y-126566988D01*
X131210000Y-125669364D01*
X131209999Y-125669364D01*
X130996512Y-125726568D01*
X130782419Y-125826402D01*
X130588920Y-125961891D01*
X130421888Y-126128923D01*
X130312358Y-126285348D01*
X130253275Y-126334925D01*
X130177318Y-126348318D01*
X130104842Y-126321938D01*
X130068251Y-126285348D01*
X130001070Y-126189403D01*
X129958495Y-126128599D01*
X129791401Y-125961505D01*
X129597830Y-125825965D01*
X129383663Y-125726097D01*
X129383661Y-125726096D01*
X129155409Y-125664937D01*
X128920000Y-125644341D01*
X128684590Y-125664937D01*
X128456340Y-125726096D01*
X128456339Y-125726096D01*
X128456337Y-125726097D01*
X128242171Y-125825965D01*
X128242168Y-125825966D01*
X128242168Y-125825967D01*
X128048596Y-125961507D01*
X127881507Y-126128596D01*
X127782722Y-126269677D01*
X127745965Y-126322171D01*
X127647152Y-126534075D01*
X127646096Y-126536340D01*
X127584937Y-126764590D01*
X127564341Y-127000000D01*
X123750000Y-127000000D01*
X123750000Y-120500000D01*
X109750000Y-120500000D01*
X109750000Y-125799572D01*
X109730038Y-125874072D01*
X109720280Y-125888865D01*
X109706205Y-125907666D01*
X109706202Y-125907670D01*
X109670592Y-126003149D01*
X109625854Y-126065976D01*
X109555696Y-126098017D01*
X109478917Y-126090686D01*
X109425627Y-126056439D01*
X109331076Y-125961888D01*
X109137588Y-125826406D01*
X109137579Y-125826400D01*
X108923491Y-125726569D01*
X108923489Y-125726568D01*
X108710000Y-125669364D01*
X108710000Y-126566988D01*
X108652993Y-126534075D01*
X108525826Y-126500000D01*
X108394174Y-126500000D01*
X108267007Y-126534075D01*
X108210000Y-126566988D01*
X108210000Y-125669364D01*
X108209999Y-125669364D01*
X107996512Y-125726568D01*
X107782419Y-125826402D01*
X107588920Y-125961891D01*
X107421891Y-126128920D01*
X107286402Y-126322419D01*
X107186568Y-126536512D01*
X107129364Y-126749999D01*
X107129364Y-126750000D01*
X108026988Y-126750000D01*
X107994075Y-126807007D01*
X107960000Y-126934174D01*
X107960000Y-127065826D01*
X107994075Y-127192993D01*
X108026988Y-127250000D01*
X107129364Y-127250000D01*
X107186568Y-127463489D01*
X107186569Y-127463491D01*
X107286400Y-127677579D01*
X107286406Y-127677588D01*
X107421888Y-127871076D01*
X107588923Y-128038111D01*
X107782411Y-128173593D01*
X107782420Y-128173599D01*
X107996508Y-128273430D01*
X107996513Y-128273432D01*
X108210000Y-128330634D01*
X108210000Y-127433012D01*
X108267007Y-127465925D01*
X108394174Y-127500000D01*
X108525826Y-127500000D01*
X108652993Y-127465925D01*
X108710000Y-127433012D01*
X108710000Y-128330633D01*
X108923486Y-128273432D01*
X108923491Y-128273430D01*
X109137579Y-128173599D01*
X109137588Y-128173593D01*
X109331079Y-128038109D01*
X109425627Y-127943561D01*
X109492421Y-127904996D01*
X109569549Y-127904996D01*
X109636344Y-127943560D01*
X109670590Y-127996847D01*
X109706204Y-128092331D01*
X109720280Y-128111134D01*
X109748946Y-128182734D01*
X109750000Y-128200426D01*
X109750000Y-129351000D01*
X109730038Y-129425500D01*
X109675500Y-129480038D01*
X109601000Y-129500000D01*
X105649000Y-129500000D01*
X105574500Y-129480038D01*
X105519962Y-129425500D01*
X105500000Y-129351000D01*
X105500000Y-115000863D01*
X105852500Y-115000863D01*
X105852502Y-115000888D01*
X105858908Y-115060478D01*
X105858909Y-115060484D01*
X105909202Y-115195329D01*
X105909204Y-115195333D01*
X105995452Y-115310544D01*
X105995455Y-115310547D01*
X106110666Y-115396795D01*
X106110670Y-115396797D01*
X106245517Y-115447091D01*
X106305114Y-115453499D01*
X106305118Y-115453499D01*
X106305127Y-115453500D01*
X108100872Y-115453499D01*
X108160483Y-115447091D01*
X108256447Y-115411298D01*
X108295329Y-115396797D01*
X108295333Y-115396795D01*
X108352938Y-115353671D01*
X108410546Y-115310546D01*
X108496796Y-115195331D01*
X108532408Y-115099848D01*
X108577144Y-115037024D01*
X108647302Y-115004982D01*
X108724081Y-115012313D01*
X108777372Y-115046560D01*
X108871923Y-115141111D01*
X109065411Y-115276593D01*
X109065420Y-115276599D01*
X109279508Y-115376430D01*
X109279513Y-115376432D01*
X109493000Y-115433634D01*
X109493000Y-114536012D01*
X109550007Y-114568925D01*
X109677174Y-114603000D01*
X109808826Y-114603000D01*
X109935993Y-114568925D01*
X109993000Y-114536012D01*
X109993000Y-115433633D01*
X110206486Y-115376432D01*
X110206491Y-115376430D01*
X110420579Y-115276599D01*
X110420588Y-115276593D01*
X110614076Y-115141111D01*
X110781108Y-114974079D01*
X110890640Y-114817652D01*
X110949724Y-114768075D01*
X111025680Y-114754682D01*
X111098157Y-114781061D01*
X111134747Y-114817652D01*
X111244503Y-114974399D01*
X111244505Y-114974401D01*
X111411599Y-115141495D01*
X111605170Y-115277035D01*
X111819337Y-115376903D01*
X112047592Y-115438063D01*
X112283000Y-115458659D01*
X112518408Y-115438063D01*
X112746663Y-115376903D01*
X112960830Y-115277035D01*
X113154401Y-115141495D01*
X113321495Y-114974401D01*
X113457035Y-114780830D01*
X113556903Y-114566663D01*
X113618063Y-114338408D01*
X113638659Y-114103000D01*
X113618063Y-113867592D01*
X113556903Y-113639337D01*
X113457035Y-113425171D01*
X113321495Y-113231599D01*
X113154401Y-113064505D01*
X112960830Y-112928965D01*
X112746663Y-112829097D01*
X112746661Y-112829096D01*
X112518409Y-112767937D01*
X112283000Y-112747341D01*
X112047590Y-112767937D01*
X111819340Y-112829096D01*
X111819339Y-112829096D01*
X111819337Y-112829097D01*
X111605171Y-112928965D01*
X111605168Y-112928966D01*
X111605168Y-112928967D01*
X111411596Y-113064507D01*
X111244503Y-113231600D01*
X111134747Y-113388348D01*
X111075664Y-113437925D01*
X110999707Y-113451318D01*
X110927231Y-113424938D01*
X110890640Y-113388348D01*
X110781108Y-113231920D01*
X110614076Y-113064888D01*
X110420588Y-112929406D01*
X110420579Y-112929400D01*
X110206491Y-112829569D01*
X110206489Y-112829568D01*
X109993000Y-112772364D01*
X109993000Y-113669988D01*
X109935993Y-113637075D01*
X109808826Y-113603000D01*
X109677174Y-113603000D01*
X109550007Y-113637075D01*
X109493000Y-113669988D01*
X109493000Y-112772364D01*
X109492999Y-112772364D01*
X109279512Y-112829568D01*
X109065419Y-112929402D01*
X108871916Y-113064894D01*
X108777371Y-113159439D01*
X108710576Y-113198003D01*
X108633448Y-113198003D01*
X108566654Y-113159438D01*
X108532407Y-113106148D01*
X108496798Y-113010672D01*
X108496795Y-113010666D01*
X108410547Y-112895455D01*
X108410544Y-112895452D01*
X108295333Y-112809204D01*
X108295329Y-112809202D01*
X108160482Y-112758908D01*
X108100876Y-112752500D01*
X106305136Y-112752500D01*
X106305111Y-112752502D01*
X106245521Y-112758908D01*
X106245515Y-112758909D01*
X106110670Y-112809202D01*
X106110666Y-112809204D01*
X105995455Y-112895452D01*
X105995452Y-112895455D01*
X105909204Y-113010666D01*
X105909202Y-113010670D01*
X105858908Y-113145517D01*
X105852500Y-113205114D01*
X105852500Y-115000863D01*
X105500000Y-115000863D01*
X105500000Y-109649000D01*
X105519962Y-109574500D01*
X105574500Y-109519962D01*
X105649000Y-109500000D01*
X135851000Y-109500000D01*
X135925500Y-109519962D01*
G37*
%TD.AperFunction*%
%TD*%
M02*
