%TF.GenerationSoftware,KiCad,Pcbnew,8.0.1*%
%TF.CreationDate,2024-08-03T11:03:04+02:00*%
%TF.ProjectId,FT_TargetSwitch,46545f54-6172-4676-9574-537769746368,rev?*%
%TF.SameCoordinates,Original*%
%TF.FileFunction,Soldermask,Top*%
%TF.FilePolarity,Negative*%
%FSLAX46Y46*%
G04 Gerber Fmt 4.6, Leading zero omitted, Abs format (unit mm)*
G04 Created by KiCad (PCBNEW 8.0.1) date 2024-08-03 11:03:04*
%MOMM*%
%LPD*%
G01*
G04 APERTURE LIST*
G04 APERTURE END LIST*
G36*
X111850000Y-127850000D02*
G01*
X110150000Y-127850000D01*
X110150000Y-126150000D01*
X111850000Y-126150000D01*
X111850000Y-127850000D01*
G37*
G36*
X134850000Y-127850000D02*
G01*
X133150000Y-127850000D01*
X133150000Y-126150000D01*
X134850000Y-126150000D01*
X134850000Y-127850000D01*
G37*
G36*
X108722664Y-126191602D02*
G01*
X108885000Y-126263878D01*
X109028761Y-126368327D01*
X109147664Y-126500383D01*
X109236514Y-126654274D01*
X109291425Y-126823275D01*
X109310000Y-127000000D01*
X109291425Y-127176725D01*
X109236514Y-127345726D01*
X109147664Y-127499617D01*
X109028761Y-127631673D01*
X108885000Y-127736122D01*
X108722664Y-127808398D01*
X108548849Y-127845344D01*
X108371151Y-127845344D01*
X108197336Y-127808398D01*
X108035000Y-127736122D01*
X107891239Y-127631673D01*
X107772336Y-127499617D01*
X107683486Y-127345726D01*
X107628575Y-127176725D01*
X107610000Y-127000000D01*
X107628575Y-126823275D01*
X107683486Y-126654274D01*
X107772336Y-126500383D01*
X107891239Y-126368327D01*
X108035000Y-126263878D01*
X108197336Y-126191602D01*
X108371151Y-126154656D01*
X108548849Y-126154656D01*
X108722664Y-126191602D01*
G37*
G36*
X129182664Y-126191602D02*
G01*
X129345000Y-126263878D01*
X129488761Y-126368327D01*
X129607664Y-126500383D01*
X129696514Y-126654274D01*
X129751425Y-126823275D01*
X129770000Y-127000000D01*
X129751425Y-127176725D01*
X129696514Y-127345726D01*
X129607664Y-127499617D01*
X129488761Y-127631673D01*
X129345000Y-127736122D01*
X129182664Y-127808398D01*
X129008849Y-127845344D01*
X128831151Y-127845344D01*
X128657336Y-127808398D01*
X128495000Y-127736122D01*
X128351239Y-127631673D01*
X128232336Y-127499617D01*
X128143486Y-127345726D01*
X128088575Y-127176725D01*
X128070000Y-127000000D01*
X128088575Y-126823275D01*
X128143486Y-126654274D01*
X128232336Y-126500383D01*
X128351239Y-126368327D01*
X128495000Y-126263878D01*
X128657336Y-126191602D01*
X128831151Y-126154656D01*
X129008849Y-126154656D01*
X129182664Y-126191602D01*
G37*
G36*
X131722664Y-126191602D02*
G01*
X131885000Y-126263878D01*
X132028761Y-126368327D01*
X132147664Y-126500383D01*
X132236514Y-126654274D01*
X132291425Y-126823275D01*
X132310000Y-127000000D01*
X132291425Y-127176725D01*
X132236514Y-127345726D01*
X132147664Y-127499617D01*
X132028761Y-127631673D01*
X131885000Y-127736122D01*
X131722664Y-127808398D01*
X131548849Y-127845344D01*
X131371151Y-127845344D01*
X131197336Y-127808398D01*
X131035000Y-127736122D01*
X130891239Y-127631673D01*
X130772336Y-127499617D01*
X130683486Y-127345726D01*
X130628575Y-127176725D01*
X130610000Y-127000000D01*
X130628575Y-126823275D01*
X130683486Y-126654274D01*
X130772336Y-126500383D01*
X130891239Y-126368327D01*
X131035000Y-126263878D01*
X131197336Y-126191602D01*
X131371151Y-126154656D01*
X131548849Y-126154656D01*
X131722664Y-126191602D01*
G37*
G36*
X122542119Y-121260818D02*
G01*
X122593381Y-121266766D01*
X122610895Y-121274499D01*
X122633673Y-121279030D01*
X122658056Y-121295322D01*
X122678790Y-121304477D01*
X122692950Y-121318637D01*
X122714778Y-121333222D01*
X122729362Y-121355049D01*
X122743522Y-121369209D01*
X122752675Y-121389940D01*
X122768970Y-121414327D01*
X122773500Y-121437105D01*
X122781233Y-121454618D01*
X122787182Y-121505894D01*
X122787999Y-121509998D01*
X122787999Y-121512928D01*
X122788000Y-121512937D01*
X122788000Y-126150000D01*
X122788000Y-127410003D01*
X122787180Y-127414120D01*
X122781233Y-127465381D01*
X122773501Y-127482891D01*
X122768970Y-127505673D01*
X122752674Y-127530061D01*
X122743522Y-127550790D01*
X122729364Y-127564947D01*
X122714778Y-127586778D01*
X122692947Y-127601364D01*
X122678790Y-127615522D01*
X122658061Y-127624674D01*
X122633673Y-127640970D01*
X122610892Y-127645501D01*
X122593381Y-127653233D01*
X122542106Y-127659182D01*
X122538002Y-127659999D01*
X122535070Y-127659999D01*
X122535062Y-127660000D01*
X117240938Y-127660000D01*
X117240937Y-127659999D01*
X117237997Y-127660000D01*
X117233879Y-127659181D01*
X117182618Y-127653233D01*
X117165106Y-127645501D01*
X117142327Y-127640970D01*
X117117940Y-127624675D01*
X117097209Y-127615522D01*
X117083049Y-127601362D01*
X117061222Y-127586778D01*
X117046637Y-127564950D01*
X117032477Y-127550790D01*
X117023322Y-127530056D01*
X117007030Y-127505673D01*
X117002499Y-127482896D01*
X116994766Y-127465381D01*
X116988817Y-127414105D01*
X116988001Y-127410002D01*
X116988000Y-127407070D01*
X116988000Y-127407062D01*
X116988000Y-121512937D01*
X116988000Y-121512936D01*
X116988000Y-121509997D01*
X116988818Y-121505882D01*
X116994766Y-121454618D01*
X117002499Y-121437102D01*
X117007030Y-121414327D01*
X117023321Y-121389944D01*
X117032477Y-121369209D01*
X117046639Y-121355046D01*
X117061222Y-121333222D01*
X117083046Y-121318639D01*
X117097209Y-121304477D01*
X117117944Y-121295321D01*
X117142327Y-121279030D01*
X117165101Y-121274500D01*
X117182618Y-121266766D01*
X117233894Y-121260817D01*
X117237998Y-121260001D01*
X117240929Y-121260000D01*
X117240938Y-121260000D01*
X122535062Y-121260000D01*
X122538003Y-121260000D01*
X122542119Y-121260818D01*
G37*
G36*
X117962116Y-117060818D02*
G01*
X118013379Y-117066766D01*
X118030892Y-117074499D01*
X118053671Y-117079030D01*
X118078057Y-117095324D01*
X118098788Y-117104478D01*
X118112946Y-117118636D01*
X118134777Y-117133223D01*
X118149363Y-117155053D01*
X118163521Y-117169211D01*
X118172673Y-117189939D01*
X118188970Y-117214329D01*
X118193501Y-117237109D01*
X118201233Y-117254620D01*
X118207178Y-117305872D01*
X118208000Y-117310000D01*
X118208000Y-119010000D01*
X118207178Y-119014128D01*
X118201233Y-119065379D01*
X118193501Y-119082888D01*
X118188970Y-119105671D01*
X118172672Y-119130062D01*
X118163521Y-119150788D01*
X118149365Y-119164943D01*
X118134777Y-119186777D01*
X118112943Y-119201365D01*
X118098788Y-119215521D01*
X118078062Y-119224672D01*
X118053671Y-119240970D01*
X118030888Y-119245501D01*
X118013379Y-119253233D01*
X117962129Y-119259178D01*
X117958000Y-119260000D01*
X117258000Y-119260000D01*
X117253873Y-119259179D01*
X117202620Y-119253233D01*
X117185109Y-119245501D01*
X117162329Y-119240970D01*
X117137939Y-119224673D01*
X117117211Y-119215521D01*
X117103053Y-119201363D01*
X117081223Y-119186777D01*
X117066636Y-119164946D01*
X117052478Y-119150788D01*
X117043324Y-119130057D01*
X117027030Y-119105671D01*
X117022499Y-119082892D01*
X117014766Y-119065379D01*
X117008818Y-119014117D01*
X117008000Y-119010000D01*
X117008000Y-117310000D01*
X117008818Y-117305885D01*
X117014766Y-117254620D01*
X117022499Y-117237105D01*
X117027030Y-117214329D01*
X117043323Y-117189944D01*
X117052478Y-117169211D01*
X117066638Y-117155050D01*
X117081223Y-117133223D01*
X117103050Y-117118638D01*
X117117211Y-117104478D01*
X117137944Y-117095323D01*
X117162329Y-117079030D01*
X117185105Y-117074499D01*
X117202620Y-117066766D01*
X117253884Y-117060818D01*
X117258000Y-117060000D01*
X117958000Y-117060000D01*
X117962116Y-117060818D01*
G37*
G36*
X122522116Y-117060818D02*
G01*
X122573379Y-117066766D01*
X122590892Y-117074499D01*
X122613671Y-117079030D01*
X122638057Y-117095324D01*
X122658788Y-117104478D01*
X122672946Y-117118636D01*
X122694777Y-117133223D01*
X122709363Y-117155053D01*
X122723521Y-117169211D01*
X122732673Y-117189939D01*
X122748970Y-117214329D01*
X122753501Y-117237109D01*
X122761233Y-117254620D01*
X122767178Y-117305872D01*
X122768000Y-117310000D01*
X122768000Y-119010000D01*
X122767178Y-119014128D01*
X122761233Y-119065379D01*
X122753501Y-119082888D01*
X122748970Y-119105671D01*
X122732672Y-119130062D01*
X122723521Y-119150788D01*
X122709365Y-119164943D01*
X122694777Y-119186777D01*
X122672943Y-119201365D01*
X122658788Y-119215521D01*
X122638062Y-119224672D01*
X122613671Y-119240970D01*
X122590888Y-119245501D01*
X122573379Y-119253233D01*
X122522129Y-119259178D01*
X122518000Y-119260000D01*
X121818000Y-119260000D01*
X121813873Y-119259179D01*
X121762620Y-119253233D01*
X121745109Y-119245501D01*
X121722329Y-119240970D01*
X121697939Y-119224673D01*
X121677211Y-119215521D01*
X121663053Y-119201363D01*
X121641223Y-119186777D01*
X121626636Y-119164946D01*
X121612478Y-119150788D01*
X121603324Y-119130057D01*
X121587030Y-119105671D01*
X121582499Y-119082892D01*
X121574766Y-119065379D01*
X121568818Y-119014117D01*
X121568000Y-119010000D01*
X121568000Y-117310000D01*
X121568818Y-117305885D01*
X121574766Y-117254620D01*
X121582499Y-117237105D01*
X121587030Y-117214329D01*
X121603323Y-117189944D01*
X121612478Y-117169211D01*
X121626638Y-117155050D01*
X121641223Y-117133223D01*
X121663050Y-117118638D01*
X121677211Y-117104478D01*
X121697944Y-117095323D01*
X121722329Y-117079030D01*
X121745105Y-117074499D01*
X121762620Y-117066766D01*
X121813884Y-117060818D01*
X121818000Y-117060000D01*
X122518000Y-117060000D01*
X122522116Y-117060818D01*
G37*
G36*
X120415403Y-114765418D02*
G01*
X120464066Y-114797934D01*
X120496582Y-114846597D01*
X120508000Y-114904000D01*
X120508000Y-116079000D01*
X120496582Y-116136403D01*
X120464066Y-116185066D01*
X120415403Y-116217582D01*
X120358000Y-116229000D01*
X120058000Y-116229000D01*
X120000597Y-116217582D01*
X119951934Y-116185066D01*
X119919418Y-116136403D01*
X119908000Y-116079000D01*
X119908000Y-114904000D01*
X119919418Y-114846597D01*
X119951934Y-114797934D01*
X120000597Y-114765418D01*
X120058000Y-114754000D01*
X120358000Y-114754000D01*
X120415403Y-114765418D01*
G37*
G36*
X122315403Y-114765418D02*
G01*
X122364066Y-114797934D01*
X122396582Y-114846597D01*
X122408000Y-114904000D01*
X122408000Y-116079000D01*
X122396582Y-116136403D01*
X122364066Y-116185066D01*
X122315403Y-116217582D01*
X122258000Y-116229000D01*
X121958000Y-116229000D01*
X121900597Y-116217582D01*
X121851934Y-116185066D01*
X121819418Y-116136403D01*
X121808000Y-116079000D01*
X121808000Y-114904000D01*
X121819418Y-114846597D01*
X121851934Y-114797934D01*
X121900597Y-114765418D01*
X121958000Y-114754000D01*
X122258000Y-114754000D01*
X122315403Y-114765418D01*
G37*
G36*
X118715537Y-114740224D02*
G01*
X118780421Y-114783579D01*
X118823776Y-114848463D01*
X118839000Y-114925000D01*
X118839000Y-115325000D01*
X118823776Y-115401537D01*
X118780421Y-115466421D01*
X118715537Y-115509776D01*
X118639000Y-115525000D01*
X118089000Y-115525000D01*
X118012463Y-115509776D01*
X117947579Y-115466421D01*
X117904224Y-115401537D01*
X117889000Y-115325000D01*
X117889000Y-114925000D01*
X117904224Y-114848463D01*
X117947579Y-114783579D01*
X118012463Y-114740224D01*
X118089000Y-114725000D01*
X118639000Y-114725000D01*
X118715537Y-114740224D01*
G37*
G36*
X108053000Y-114953000D02*
G01*
X106353000Y-114953000D01*
X106353000Y-113253000D01*
X108053000Y-113253000D01*
X108053000Y-114953000D01*
G37*
G36*
X127606000Y-114953000D02*
G01*
X125906000Y-114953000D01*
X125906000Y-113253000D01*
X127606000Y-113253000D01*
X127606000Y-114953000D01*
G37*
G36*
X110005664Y-113294602D02*
G01*
X110168000Y-113366878D01*
X110311761Y-113471327D01*
X110430664Y-113603383D01*
X110519514Y-113757274D01*
X110574425Y-113926275D01*
X110593000Y-114103000D01*
X110574425Y-114279725D01*
X110519514Y-114448726D01*
X110430664Y-114602617D01*
X110311761Y-114734673D01*
X110168000Y-114839122D01*
X110005664Y-114911398D01*
X109831849Y-114948344D01*
X109654151Y-114948344D01*
X109480336Y-114911398D01*
X109318000Y-114839122D01*
X109174239Y-114734673D01*
X109055336Y-114602617D01*
X108966486Y-114448726D01*
X108911575Y-114279725D01*
X108893000Y-114103000D01*
X108911575Y-113926275D01*
X108966486Y-113757274D01*
X109055336Y-113603383D01*
X109174239Y-113471327D01*
X109318000Y-113366878D01*
X109480336Y-113294602D01*
X109654151Y-113257656D01*
X109831849Y-113257656D01*
X110005664Y-113294602D01*
G37*
G36*
X112545664Y-113294602D02*
G01*
X112708000Y-113366878D01*
X112851761Y-113471327D01*
X112970664Y-113603383D01*
X113059514Y-113757274D01*
X113114425Y-113926275D01*
X113133000Y-114103000D01*
X113114425Y-114279725D01*
X113059514Y-114448726D01*
X112970664Y-114602617D01*
X112851761Y-114734673D01*
X112708000Y-114839122D01*
X112545664Y-114911398D01*
X112371849Y-114948344D01*
X112194151Y-114948344D01*
X112020336Y-114911398D01*
X111858000Y-114839122D01*
X111714239Y-114734673D01*
X111595336Y-114602617D01*
X111506486Y-114448726D01*
X111451575Y-114279725D01*
X111433000Y-114103000D01*
X111451575Y-113926275D01*
X111506486Y-113757274D01*
X111595336Y-113603383D01*
X111714239Y-113471327D01*
X111858000Y-113366878D01*
X112020336Y-113294602D01*
X112194151Y-113257656D01*
X112371849Y-113257656D01*
X112545664Y-113294602D01*
G37*
G36*
X129558664Y-113294602D02*
G01*
X129721000Y-113366878D01*
X129864761Y-113471327D01*
X129983664Y-113603383D01*
X130072514Y-113757274D01*
X130127425Y-113926275D01*
X130146000Y-114103000D01*
X130127425Y-114279725D01*
X130072514Y-114448726D01*
X129983664Y-114602617D01*
X129864761Y-114734673D01*
X129721000Y-114839122D01*
X129558664Y-114911398D01*
X129384849Y-114948344D01*
X129207151Y-114948344D01*
X129033336Y-114911398D01*
X128871000Y-114839122D01*
X128727239Y-114734673D01*
X128608336Y-114602617D01*
X128519486Y-114448726D01*
X128464575Y-114279725D01*
X128446000Y-114103000D01*
X128464575Y-113926275D01*
X128519486Y-113757274D01*
X128608336Y-113603383D01*
X128727239Y-113471327D01*
X128871000Y-113366878D01*
X129033336Y-113294602D01*
X129207151Y-113257656D01*
X129384849Y-113257656D01*
X129558664Y-113294602D01*
G37*
G36*
X132098664Y-113294602D02*
G01*
X132261000Y-113366878D01*
X132404761Y-113471327D01*
X132523664Y-113603383D01*
X132612514Y-113757274D01*
X132667425Y-113926275D01*
X132686000Y-114103000D01*
X132667425Y-114279725D01*
X132612514Y-114448726D01*
X132523664Y-114602617D01*
X132404761Y-114734673D01*
X132261000Y-114839122D01*
X132098664Y-114911398D01*
X131924849Y-114948344D01*
X131747151Y-114948344D01*
X131573336Y-114911398D01*
X131411000Y-114839122D01*
X131267239Y-114734673D01*
X131148336Y-114602617D01*
X131059486Y-114448726D01*
X131004575Y-114279725D01*
X130986000Y-114103000D01*
X131004575Y-113926275D01*
X131059486Y-113757274D01*
X131148336Y-113603383D01*
X131267239Y-113471327D01*
X131411000Y-113366878D01*
X131573336Y-113294602D01*
X131747151Y-113257656D01*
X131924849Y-113257656D01*
X132098664Y-113294602D01*
G37*
G36*
X134638664Y-113294602D02*
G01*
X134801000Y-113366878D01*
X134944761Y-113471327D01*
X135063664Y-113603383D01*
X135152514Y-113757274D01*
X135207425Y-113926275D01*
X135226000Y-114103000D01*
X135207425Y-114279725D01*
X135152514Y-114448726D01*
X135063664Y-114602617D01*
X134944761Y-114734673D01*
X134801000Y-114839122D01*
X134638664Y-114911398D01*
X134464849Y-114948344D01*
X134287151Y-114948344D01*
X134113336Y-114911398D01*
X133951000Y-114839122D01*
X133807239Y-114734673D01*
X133688336Y-114602617D01*
X133599486Y-114448726D01*
X133544575Y-114279725D01*
X133526000Y-114103000D01*
X133544575Y-113926275D01*
X133599486Y-113757274D01*
X133688336Y-113603383D01*
X133807239Y-113471327D01*
X133951000Y-113366878D01*
X134113336Y-113294602D01*
X134287151Y-113257656D01*
X134464849Y-113257656D01*
X134638664Y-113294602D01*
G37*
G36*
X121365403Y-112890418D02*
G01*
X121414066Y-112922934D01*
X121446582Y-112971597D01*
X121458000Y-113029000D01*
X121458000Y-114204000D01*
X121446582Y-114261403D01*
X121414066Y-114310066D01*
X121365403Y-114342582D01*
X121308000Y-114354000D01*
X121008000Y-114354000D01*
X120950597Y-114342582D01*
X120901934Y-114310066D01*
X120869418Y-114261403D01*
X120858000Y-114204000D01*
X120858000Y-113029000D01*
X120869418Y-112971597D01*
X120901934Y-112922934D01*
X120950597Y-112890418D01*
X121008000Y-112879000D01*
X121308000Y-112879000D01*
X121365403Y-112890418D01*
G37*
G36*
X118715537Y-113090224D02*
G01*
X118780421Y-113133579D01*
X118823776Y-113198463D01*
X118839000Y-113275000D01*
X118839000Y-113675000D01*
X118823776Y-113751537D01*
X118780421Y-113816421D01*
X118715537Y-113859776D01*
X118639000Y-113875000D01*
X118089000Y-113875000D01*
X118012463Y-113859776D01*
X117947579Y-113816421D01*
X117904224Y-113751537D01*
X117889000Y-113675000D01*
X117889000Y-113275000D01*
X117904224Y-113198463D01*
X117947579Y-113133579D01*
X118012463Y-113090224D01*
X118089000Y-113075000D01*
X118639000Y-113075000D01*
X118715537Y-113090224D01*
G37*
G36*
X121264962Y-110291651D02*
G01*
X121335930Y-110339070D01*
X121383349Y-110410038D01*
X121400000Y-110493750D01*
X121400000Y-111006250D01*
X121383349Y-111089962D01*
X121335930Y-111160930D01*
X121264962Y-111208349D01*
X121181250Y-111225000D01*
X120743750Y-111225000D01*
X120660038Y-111208349D01*
X120589070Y-111160930D01*
X120541651Y-111089962D01*
X120525000Y-111006250D01*
X120525000Y-110493750D01*
X120541651Y-110410038D01*
X120589070Y-110339070D01*
X120660038Y-110291651D01*
X120743750Y-110275000D01*
X121181250Y-110275000D01*
X121264962Y-110291651D01*
G37*
G36*
X122839962Y-110291651D02*
G01*
X122910930Y-110339070D01*
X122958349Y-110410038D01*
X122975000Y-110493750D01*
X122975000Y-111006250D01*
X122958349Y-111089962D01*
X122910930Y-111160930D01*
X122839962Y-111208349D01*
X122756250Y-111225000D01*
X122318750Y-111225000D01*
X122235038Y-111208349D01*
X122164070Y-111160930D01*
X122116651Y-111089962D01*
X122100000Y-111006250D01*
X122100000Y-110493750D01*
X122116651Y-110410038D01*
X122164070Y-110339070D01*
X122235038Y-110291651D01*
X122318750Y-110275000D01*
X122756250Y-110275000D01*
X122839962Y-110291651D01*
G37*
M02*
