%TF.GenerationSoftware,KiCad,Pcbnew,8.0.1*%
%TF.CreationDate,2024-08-03T11:03:04+02:00*%
%TF.ProjectId,FT_TargetSwitch,46545f54-6172-4676-9574-537769746368,rev?*%
%TF.SameCoordinates,Original*%
%TF.FileFunction,Legend,Bot*%
%TF.FilePolarity,Positive*%
%FSLAX46Y46*%
G04 Gerber Fmt 4.6, Leading zero omitted, Abs format (unit mm)*
G04 Created by KiCad (PCBNEW 8.0.1) date 2024-08-03 11:03:04*
%MOMM*%
%LPD*%
G01*
G04 APERTURE LIST*
%ADD10C,0.400000*%
G04 APERTURE END LIST*
D10*
X137277985Y-117215043D02*
X137944652Y-117215043D01*
X137944652Y-118262662D02*
X137944652Y-116262662D01*
X137944652Y-116262662D02*
X136992271Y-116262662D01*
X136230366Y-118262662D02*
X136230366Y-116929328D01*
X136230366Y-116262662D02*
X136325604Y-116357900D01*
X136325604Y-116357900D02*
X136230366Y-116453138D01*
X136230366Y-116453138D02*
X136135128Y-116357900D01*
X136135128Y-116357900D02*
X136230366Y-116262662D01*
X136230366Y-116262662D02*
X136230366Y-116453138D01*
X135277985Y-118262662D02*
X135277985Y-116929328D01*
X135277985Y-117310281D02*
X135182747Y-117119804D01*
X135182747Y-117119804D02*
X135087509Y-117024566D01*
X135087509Y-117024566D02*
X134897033Y-116929328D01*
X134897033Y-116929328D02*
X134706556Y-116929328D01*
X133277985Y-118167424D02*
X133468461Y-118262662D01*
X133468461Y-118262662D02*
X133849414Y-118262662D01*
X133849414Y-118262662D02*
X134039890Y-118167424D01*
X134039890Y-118167424D02*
X134135128Y-117976947D01*
X134135128Y-117976947D02*
X134135128Y-117215043D01*
X134135128Y-117215043D02*
X134039890Y-117024566D01*
X134039890Y-117024566D02*
X133849414Y-116929328D01*
X133849414Y-116929328D02*
X133468461Y-116929328D01*
X133468461Y-116929328D02*
X133277985Y-117024566D01*
X133277985Y-117024566D02*
X133182747Y-117215043D01*
X133182747Y-117215043D02*
X133182747Y-117405519D01*
X133182747Y-117405519D02*
X134135128Y-117595995D01*
X132420842Y-118167424D02*
X132230366Y-118262662D01*
X132230366Y-118262662D02*
X131849414Y-118262662D01*
X131849414Y-118262662D02*
X131658937Y-118167424D01*
X131658937Y-118167424D02*
X131563699Y-117976947D01*
X131563699Y-117976947D02*
X131563699Y-117881709D01*
X131563699Y-117881709D02*
X131658937Y-117691233D01*
X131658937Y-117691233D02*
X131849414Y-117595995D01*
X131849414Y-117595995D02*
X132135128Y-117595995D01*
X132135128Y-117595995D02*
X132325604Y-117500757D01*
X132325604Y-117500757D02*
X132420842Y-117310281D01*
X132420842Y-117310281D02*
X132420842Y-117215043D01*
X132420842Y-117215043D02*
X132325604Y-117024566D01*
X132325604Y-117024566D02*
X132135128Y-116929328D01*
X132135128Y-116929328D02*
X131849414Y-116929328D01*
X131849414Y-116929328D02*
X131658937Y-117024566D01*
X130706556Y-116929328D02*
X130706556Y-118929328D01*
X130706556Y-117024566D02*
X130516080Y-116929328D01*
X130516080Y-116929328D02*
X130135127Y-116929328D01*
X130135127Y-116929328D02*
X129944651Y-117024566D01*
X129944651Y-117024566D02*
X129849413Y-117119804D01*
X129849413Y-117119804D02*
X129754175Y-117310281D01*
X129754175Y-117310281D02*
X129754175Y-117881709D01*
X129754175Y-117881709D02*
X129849413Y-118072185D01*
X129849413Y-118072185D02*
X129944651Y-118167424D01*
X129944651Y-118167424D02*
X130135127Y-118262662D01*
X130135127Y-118262662D02*
X130516080Y-118262662D01*
X130516080Y-118262662D02*
X130706556Y-118167424D01*
X128611318Y-118262662D02*
X128801794Y-118167424D01*
X128801794Y-118167424D02*
X128897032Y-118072185D01*
X128897032Y-118072185D02*
X128992270Y-117881709D01*
X128992270Y-117881709D02*
X128992270Y-117310281D01*
X128992270Y-117310281D02*
X128897032Y-117119804D01*
X128897032Y-117119804D02*
X128801794Y-117024566D01*
X128801794Y-117024566D02*
X128611318Y-116929328D01*
X128611318Y-116929328D02*
X128325603Y-116929328D01*
X128325603Y-116929328D02*
X128135127Y-117024566D01*
X128135127Y-117024566D02*
X128039889Y-117119804D01*
X128039889Y-117119804D02*
X127944651Y-117310281D01*
X127944651Y-117310281D02*
X127944651Y-117881709D01*
X127944651Y-117881709D02*
X128039889Y-118072185D01*
X128039889Y-118072185D02*
X128135127Y-118167424D01*
X128135127Y-118167424D02*
X128325603Y-118262662D01*
X128325603Y-118262662D02*
X128611318Y-118262662D01*
X127087508Y-118262662D02*
X127087508Y-116929328D01*
X127087508Y-117310281D02*
X126992270Y-117119804D01*
X126992270Y-117119804D02*
X126897032Y-117024566D01*
X126897032Y-117024566D02*
X126706556Y-116929328D01*
X126706556Y-116929328D02*
X126516079Y-116929328D01*
X126135127Y-116929328D02*
X125373223Y-116929328D01*
X125849413Y-116262662D02*
X125849413Y-117976947D01*
X125849413Y-117976947D02*
X125754175Y-118167424D01*
X125754175Y-118167424D02*
X125563699Y-118262662D01*
X125563699Y-118262662D02*
X125373223Y-118262662D01*
X123468460Y-116929328D02*
X122706556Y-116929328D01*
X123182746Y-116262662D02*
X123182746Y-117976947D01*
X123182746Y-117976947D02*
X123087508Y-118167424D01*
X123087508Y-118167424D02*
X122897032Y-118262662D01*
X122897032Y-118262662D02*
X122706556Y-118262662D01*
X122039889Y-118262662D02*
X122039889Y-116929328D01*
X122039889Y-116262662D02*
X122135127Y-116357900D01*
X122135127Y-116357900D02*
X122039889Y-116453138D01*
X122039889Y-116453138D02*
X121944651Y-116357900D01*
X121944651Y-116357900D02*
X122039889Y-116262662D01*
X122039889Y-116262662D02*
X122039889Y-116453138D01*
X121087508Y-118262662D02*
X121087508Y-116929328D01*
X121087508Y-117119804D02*
X120992270Y-117024566D01*
X120992270Y-117024566D02*
X120801794Y-116929328D01*
X120801794Y-116929328D02*
X120516079Y-116929328D01*
X120516079Y-116929328D02*
X120325603Y-117024566D01*
X120325603Y-117024566D02*
X120230365Y-117215043D01*
X120230365Y-117215043D02*
X120230365Y-118262662D01*
X120230365Y-117215043D02*
X120135127Y-117024566D01*
X120135127Y-117024566D02*
X119944651Y-116929328D01*
X119944651Y-116929328D02*
X119658937Y-116929328D01*
X119658937Y-116929328D02*
X119468460Y-117024566D01*
X119468460Y-117024566D02*
X119373222Y-117215043D01*
X119373222Y-117215043D02*
X119373222Y-118262662D01*
X117658936Y-118167424D02*
X117849412Y-118262662D01*
X117849412Y-118262662D02*
X118230365Y-118262662D01*
X118230365Y-118262662D02*
X118420841Y-118167424D01*
X118420841Y-118167424D02*
X118516079Y-117976947D01*
X118516079Y-117976947D02*
X118516079Y-117215043D01*
X118516079Y-117215043D02*
X118420841Y-117024566D01*
X118420841Y-117024566D02*
X118230365Y-116929328D01*
X118230365Y-116929328D02*
X117849412Y-116929328D01*
X117849412Y-116929328D02*
X117658936Y-117024566D01*
X117658936Y-117024566D02*
X117563698Y-117215043D01*
X117563698Y-117215043D02*
X117563698Y-117405519D01*
X117563698Y-117405519D02*
X118516079Y-117595995D01*
X116706555Y-118262662D02*
X116706555Y-116929328D01*
X116706555Y-117310281D02*
X116611317Y-117119804D01*
X116611317Y-117119804D02*
X116516079Y-117024566D01*
X116516079Y-117024566D02*
X116325603Y-116929328D01*
X116325603Y-116929328D02*
X116135126Y-116929328D01*
X136992271Y-121482550D02*
X137944652Y-121482550D01*
X137944652Y-121482550D02*
X137944652Y-119482550D01*
X136325604Y-121482550D02*
X136325604Y-120149216D01*
X136325604Y-119482550D02*
X136420842Y-119577788D01*
X136420842Y-119577788D02*
X136325604Y-119673026D01*
X136325604Y-119673026D02*
X136230366Y-119577788D01*
X136230366Y-119577788D02*
X136325604Y-119482550D01*
X136325604Y-119482550D02*
X136325604Y-119673026D01*
X134516080Y-120149216D02*
X134516080Y-121768264D01*
X134516080Y-121768264D02*
X134611318Y-121958740D01*
X134611318Y-121958740D02*
X134706556Y-122053978D01*
X134706556Y-122053978D02*
X134897033Y-122149216D01*
X134897033Y-122149216D02*
X135182747Y-122149216D01*
X135182747Y-122149216D02*
X135373223Y-122053978D01*
X134516080Y-121387312D02*
X134706556Y-121482550D01*
X134706556Y-121482550D02*
X135087509Y-121482550D01*
X135087509Y-121482550D02*
X135277985Y-121387312D01*
X135277985Y-121387312D02*
X135373223Y-121292073D01*
X135373223Y-121292073D02*
X135468461Y-121101597D01*
X135468461Y-121101597D02*
X135468461Y-120530169D01*
X135468461Y-120530169D02*
X135373223Y-120339692D01*
X135373223Y-120339692D02*
X135277985Y-120244454D01*
X135277985Y-120244454D02*
X135087509Y-120149216D01*
X135087509Y-120149216D02*
X134706556Y-120149216D01*
X134706556Y-120149216D02*
X134516080Y-120244454D01*
X133563699Y-121482550D02*
X133563699Y-119482550D01*
X132706556Y-121482550D02*
X132706556Y-120434931D01*
X132706556Y-120434931D02*
X132801794Y-120244454D01*
X132801794Y-120244454D02*
X132992270Y-120149216D01*
X132992270Y-120149216D02*
X133277985Y-120149216D01*
X133277985Y-120149216D02*
X133468461Y-120244454D01*
X133468461Y-120244454D02*
X133563699Y-120339692D01*
X132039889Y-120149216D02*
X131277985Y-120149216D01*
X131754175Y-119482550D02*
X131754175Y-121196835D01*
X131754175Y-121196835D02*
X131658937Y-121387312D01*
X131658937Y-121387312D02*
X131468461Y-121482550D01*
X131468461Y-121482550D02*
X131277985Y-121482550D01*
X129182746Y-121387312D02*
X128992270Y-121482550D01*
X128992270Y-121482550D02*
X128611318Y-121482550D01*
X128611318Y-121482550D02*
X128420841Y-121387312D01*
X128420841Y-121387312D02*
X128325603Y-121196835D01*
X128325603Y-121196835D02*
X128325603Y-121101597D01*
X128325603Y-121101597D02*
X128420841Y-120911121D01*
X128420841Y-120911121D02*
X128611318Y-120815883D01*
X128611318Y-120815883D02*
X128897032Y-120815883D01*
X128897032Y-120815883D02*
X129087508Y-120720645D01*
X129087508Y-120720645D02*
X129182746Y-120530169D01*
X129182746Y-120530169D02*
X129182746Y-120434931D01*
X129182746Y-120434931D02*
X129087508Y-120244454D01*
X129087508Y-120244454D02*
X128897032Y-120149216D01*
X128897032Y-120149216D02*
X128611318Y-120149216D01*
X128611318Y-120149216D02*
X128420841Y-120244454D01*
X127658936Y-120149216D02*
X127277984Y-121482550D01*
X127277984Y-121482550D02*
X126897031Y-120530169D01*
X126897031Y-120530169D02*
X126516079Y-121482550D01*
X126516079Y-121482550D02*
X126135127Y-120149216D01*
X125373222Y-121482550D02*
X125373222Y-120149216D01*
X125373222Y-119482550D02*
X125468460Y-119577788D01*
X125468460Y-119577788D02*
X125373222Y-119673026D01*
X125373222Y-119673026D02*
X125277984Y-119577788D01*
X125277984Y-119577788D02*
X125373222Y-119482550D01*
X125373222Y-119482550D02*
X125373222Y-119673026D01*
X124706555Y-120149216D02*
X123944651Y-120149216D01*
X124420841Y-119482550D02*
X124420841Y-121196835D01*
X124420841Y-121196835D02*
X124325603Y-121387312D01*
X124325603Y-121387312D02*
X124135127Y-121482550D01*
X124135127Y-121482550D02*
X123944651Y-121482550D01*
X122420841Y-121387312D02*
X122611317Y-121482550D01*
X122611317Y-121482550D02*
X122992270Y-121482550D01*
X122992270Y-121482550D02*
X123182746Y-121387312D01*
X123182746Y-121387312D02*
X123277984Y-121292073D01*
X123277984Y-121292073D02*
X123373222Y-121101597D01*
X123373222Y-121101597D02*
X123373222Y-120530169D01*
X123373222Y-120530169D02*
X123277984Y-120339692D01*
X123277984Y-120339692D02*
X123182746Y-120244454D01*
X123182746Y-120244454D02*
X122992270Y-120149216D01*
X122992270Y-120149216D02*
X122611317Y-120149216D01*
X122611317Y-120149216D02*
X122420841Y-120244454D01*
X121563698Y-121482550D02*
X121563698Y-119482550D01*
X120706555Y-121482550D02*
X120706555Y-120434931D01*
X120706555Y-120434931D02*
X120801793Y-120244454D01*
X120801793Y-120244454D02*
X120992269Y-120149216D01*
X120992269Y-120149216D02*
X121277984Y-120149216D01*
X121277984Y-120149216D02*
X121468460Y-120244454D01*
X121468460Y-120244454D02*
X121563698Y-120339692D01*
X118420840Y-120149216D02*
X117944650Y-121482550D01*
X117944650Y-121482550D02*
X117468459Y-120149216D01*
X115658935Y-121482550D02*
X116801792Y-121482550D01*
X116230364Y-121482550D02*
X116230364Y-119482550D01*
X116230364Y-119482550D02*
X116420840Y-119768264D01*
X116420840Y-119768264D02*
X116611316Y-119958740D01*
X116611316Y-119958740D02*
X116801792Y-120053978D01*
X137944652Y-124702438D02*
X137944652Y-122702438D01*
X137944652Y-122702438D02*
X137277985Y-124131009D01*
X137277985Y-124131009D02*
X136611319Y-122702438D01*
X136611319Y-122702438D02*
X136611319Y-124702438D01*
X134801795Y-124702438D02*
X134801795Y-123654819D01*
X134801795Y-123654819D02*
X134897033Y-123464342D01*
X134897033Y-123464342D02*
X135087509Y-123369104D01*
X135087509Y-123369104D02*
X135468462Y-123369104D01*
X135468462Y-123369104D02*
X135658938Y-123464342D01*
X134801795Y-124607200D02*
X134992271Y-124702438D01*
X134992271Y-124702438D02*
X135468462Y-124702438D01*
X135468462Y-124702438D02*
X135658938Y-124607200D01*
X135658938Y-124607200D02*
X135754176Y-124416723D01*
X135754176Y-124416723D02*
X135754176Y-124226247D01*
X135754176Y-124226247D02*
X135658938Y-124035771D01*
X135658938Y-124035771D02*
X135468462Y-123940533D01*
X135468462Y-123940533D02*
X134992271Y-123940533D01*
X134992271Y-123940533D02*
X134801795Y-123845295D01*
X133849414Y-124702438D02*
X133849414Y-123369104D01*
X133849414Y-123750057D02*
X133754176Y-123559580D01*
X133754176Y-123559580D02*
X133658938Y-123464342D01*
X133658938Y-123464342D02*
X133468462Y-123369104D01*
X133468462Y-123369104D02*
X133277985Y-123369104D01*
X132897033Y-123369104D02*
X132135129Y-123369104D01*
X132611319Y-122702438D02*
X132611319Y-124416723D01*
X132611319Y-124416723D02*
X132516081Y-124607200D01*
X132516081Y-124607200D02*
X132325605Y-124702438D01*
X132325605Y-124702438D02*
X132135129Y-124702438D01*
X131468462Y-124702438D02*
X131468462Y-123369104D01*
X131468462Y-122702438D02*
X131563700Y-122797676D01*
X131563700Y-122797676D02*
X131468462Y-122892914D01*
X131468462Y-122892914D02*
X131373224Y-122797676D01*
X131373224Y-122797676D02*
X131468462Y-122702438D01*
X131468462Y-122702438D02*
X131468462Y-122892914D01*
X130516081Y-123369104D02*
X130516081Y-124702438D01*
X130516081Y-123559580D02*
X130420843Y-123464342D01*
X130420843Y-123464342D02*
X130230367Y-123369104D01*
X130230367Y-123369104D02*
X129944652Y-123369104D01*
X129944652Y-123369104D02*
X129754176Y-123464342D01*
X129754176Y-123464342D02*
X129658938Y-123654819D01*
X129658938Y-123654819D02*
X129658938Y-124702438D01*
X127468461Y-122702438D02*
X126801795Y-124702438D01*
X126801795Y-124702438D02*
X126135128Y-122702438D01*
X124706556Y-124607200D02*
X124897032Y-124702438D01*
X124897032Y-124702438D02*
X125277985Y-124702438D01*
X125277985Y-124702438D02*
X125468461Y-124607200D01*
X125468461Y-124607200D02*
X125563699Y-124416723D01*
X125563699Y-124416723D02*
X125563699Y-123654819D01*
X125563699Y-123654819D02*
X125468461Y-123464342D01*
X125468461Y-123464342D02*
X125277985Y-123369104D01*
X125277985Y-123369104D02*
X124897032Y-123369104D01*
X124897032Y-123369104D02*
X124706556Y-123464342D01*
X124706556Y-123464342D02*
X124611318Y-123654819D01*
X124611318Y-123654819D02*
X124611318Y-123845295D01*
X124611318Y-123845295D02*
X125563699Y-124035771D01*
X123754175Y-123369104D02*
X123754175Y-125083390D01*
X123754175Y-125083390D02*
X123849413Y-125273866D01*
X123849413Y-125273866D02*
X124039889Y-125369104D01*
X124039889Y-125369104D02*
X124135127Y-125369104D01*
X123754175Y-122702438D02*
X123849413Y-122797676D01*
X123849413Y-122797676D02*
X123754175Y-122892914D01*
X123754175Y-122892914D02*
X123658937Y-122797676D01*
X123658937Y-122797676D02*
X123754175Y-122702438D01*
X123754175Y-122702438D02*
X123754175Y-122892914D01*
X122801794Y-124702438D02*
X122801794Y-123369104D01*
X122801794Y-123559580D02*
X122706556Y-123464342D01*
X122706556Y-123464342D02*
X122516080Y-123369104D01*
X122516080Y-123369104D02*
X122230365Y-123369104D01*
X122230365Y-123369104D02*
X122039889Y-123464342D01*
X122039889Y-123464342D02*
X121944651Y-123654819D01*
X121944651Y-123654819D02*
X121944651Y-124702438D01*
X121944651Y-123654819D02*
X121849413Y-123464342D01*
X121849413Y-123464342D02*
X121658937Y-123369104D01*
X121658937Y-123369104D02*
X121373223Y-123369104D01*
X121373223Y-123369104D02*
X121182746Y-123464342D01*
X121182746Y-123464342D02*
X121087508Y-123654819D01*
X121087508Y-123654819D02*
X121087508Y-124702438D01*
X119277984Y-124702438D02*
X119277984Y-123654819D01*
X119277984Y-123654819D02*
X119373222Y-123464342D01*
X119373222Y-123464342D02*
X119563698Y-123369104D01*
X119563698Y-123369104D02*
X119944651Y-123369104D01*
X119944651Y-123369104D02*
X120135127Y-123464342D01*
X119277984Y-124607200D02*
X119468460Y-124702438D01*
X119468460Y-124702438D02*
X119944651Y-124702438D01*
X119944651Y-124702438D02*
X120135127Y-124607200D01*
X120135127Y-124607200D02*
X120230365Y-124416723D01*
X120230365Y-124416723D02*
X120230365Y-124226247D01*
X120230365Y-124226247D02*
X120135127Y-124035771D01*
X120135127Y-124035771D02*
X119944651Y-123940533D01*
X119944651Y-123940533D02*
X119468460Y-123940533D01*
X119468460Y-123940533D02*
X119277984Y-123845295D01*
X118325603Y-123369104D02*
X118325603Y-124702438D01*
X118325603Y-123559580D02*
X118230365Y-123464342D01*
X118230365Y-123464342D02*
X118039889Y-123369104D01*
X118039889Y-123369104D02*
X117754174Y-123369104D01*
X117754174Y-123369104D02*
X117563698Y-123464342D01*
X117563698Y-123464342D02*
X117468460Y-123654819D01*
X117468460Y-123654819D02*
X117468460Y-124702438D01*
M02*
