%TF.GenerationSoftware,KiCad,Pcbnew,8.0.1*%
%TF.CreationDate,2024-08-03T11:03:04+02:00*%
%TF.ProjectId,FT_TargetSwitch,46545f54-6172-4676-9574-537769746368,rev?*%
%TF.SameCoordinates,Original*%
%TF.FileFunction,Soldermask,Bot*%
%TF.FilePolarity,Negative*%
%FSLAX46Y46*%
G04 Gerber Fmt 4.6, Leading zero omitted, Abs format (unit mm)*
G04 Created by KiCad (PCBNEW 8.0.1) date 2024-08-03 11:03:04*
%MOMM*%
%LPD*%
G01*
G04 APERTURE LIST*
G04 APERTURE END LIST*
G36*
X111850000Y-127850000D02*
G01*
X110150000Y-127850000D01*
X110150000Y-126150000D01*
X111850000Y-126150000D01*
X111850000Y-127850000D01*
G37*
G36*
X134850000Y-127850000D02*
G01*
X133150000Y-127850000D01*
X133150000Y-126150000D01*
X134850000Y-126150000D01*
X134850000Y-127850000D01*
G37*
G36*
X108722664Y-126191602D02*
G01*
X108885000Y-126263878D01*
X109028761Y-126368327D01*
X109147664Y-126500383D01*
X109236514Y-126654274D01*
X109291425Y-126823275D01*
X109310000Y-127000000D01*
X109291425Y-127176725D01*
X109236514Y-127345726D01*
X109147664Y-127499617D01*
X109028761Y-127631673D01*
X108885000Y-127736122D01*
X108722664Y-127808398D01*
X108548849Y-127845344D01*
X108371151Y-127845344D01*
X108197336Y-127808398D01*
X108035000Y-127736122D01*
X107891239Y-127631673D01*
X107772336Y-127499617D01*
X107683486Y-127345726D01*
X107628575Y-127176725D01*
X107610000Y-127000000D01*
X107628575Y-126823275D01*
X107683486Y-126654274D01*
X107772336Y-126500383D01*
X107891239Y-126368327D01*
X108035000Y-126263878D01*
X108197336Y-126191602D01*
X108371151Y-126154656D01*
X108548849Y-126154656D01*
X108722664Y-126191602D01*
G37*
G36*
X129182664Y-126191602D02*
G01*
X129345000Y-126263878D01*
X129488761Y-126368327D01*
X129607664Y-126500383D01*
X129696514Y-126654274D01*
X129751425Y-126823275D01*
X129770000Y-127000000D01*
X129751425Y-127176725D01*
X129696514Y-127345726D01*
X129607664Y-127499617D01*
X129488761Y-127631673D01*
X129345000Y-127736122D01*
X129182664Y-127808398D01*
X129008849Y-127845344D01*
X128831151Y-127845344D01*
X128657336Y-127808398D01*
X128495000Y-127736122D01*
X128351239Y-127631673D01*
X128232336Y-127499617D01*
X128143486Y-127345726D01*
X128088575Y-127176725D01*
X128070000Y-127000000D01*
X128088575Y-126823275D01*
X128143486Y-126654274D01*
X128232336Y-126500383D01*
X128351239Y-126368327D01*
X128495000Y-126263878D01*
X128657336Y-126191602D01*
X128831151Y-126154656D01*
X129008849Y-126154656D01*
X129182664Y-126191602D01*
G37*
G36*
X131722664Y-126191602D02*
G01*
X131885000Y-126263878D01*
X132028761Y-126368327D01*
X132147664Y-126500383D01*
X132236514Y-126654274D01*
X132291425Y-126823275D01*
X132310000Y-127000000D01*
X132291425Y-127176725D01*
X132236514Y-127345726D01*
X132147664Y-127499617D01*
X132028761Y-127631673D01*
X131885000Y-127736122D01*
X131722664Y-127808398D01*
X131548849Y-127845344D01*
X131371151Y-127845344D01*
X131197336Y-127808398D01*
X131035000Y-127736122D01*
X130891239Y-127631673D01*
X130772336Y-127499617D01*
X130683486Y-127345726D01*
X130628575Y-127176725D01*
X130610000Y-127000000D01*
X130628575Y-126823275D01*
X130683486Y-126654274D01*
X130772336Y-126500383D01*
X130891239Y-126368327D01*
X131035000Y-126263878D01*
X131197336Y-126191602D01*
X131371151Y-126154656D01*
X131548849Y-126154656D01*
X131722664Y-126191602D01*
G37*
G36*
X108053000Y-114953000D02*
G01*
X106353000Y-114953000D01*
X106353000Y-113253000D01*
X108053000Y-113253000D01*
X108053000Y-114953000D01*
G37*
G36*
X127606000Y-114953000D02*
G01*
X125906000Y-114953000D01*
X125906000Y-113253000D01*
X127606000Y-113253000D01*
X127606000Y-114953000D01*
G37*
G36*
X110005664Y-113294602D02*
G01*
X110168000Y-113366878D01*
X110311761Y-113471327D01*
X110430664Y-113603383D01*
X110519514Y-113757274D01*
X110574425Y-113926275D01*
X110593000Y-114103000D01*
X110574425Y-114279725D01*
X110519514Y-114448726D01*
X110430664Y-114602617D01*
X110311761Y-114734673D01*
X110168000Y-114839122D01*
X110005664Y-114911398D01*
X109831849Y-114948344D01*
X109654151Y-114948344D01*
X109480336Y-114911398D01*
X109318000Y-114839122D01*
X109174239Y-114734673D01*
X109055336Y-114602617D01*
X108966486Y-114448726D01*
X108911575Y-114279725D01*
X108893000Y-114103000D01*
X108911575Y-113926275D01*
X108966486Y-113757274D01*
X109055336Y-113603383D01*
X109174239Y-113471327D01*
X109318000Y-113366878D01*
X109480336Y-113294602D01*
X109654151Y-113257656D01*
X109831849Y-113257656D01*
X110005664Y-113294602D01*
G37*
G36*
X112545664Y-113294602D02*
G01*
X112708000Y-113366878D01*
X112851761Y-113471327D01*
X112970664Y-113603383D01*
X113059514Y-113757274D01*
X113114425Y-113926275D01*
X113133000Y-114103000D01*
X113114425Y-114279725D01*
X113059514Y-114448726D01*
X112970664Y-114602617D01*
X112851761Y-114734673D01*
X112708000Y-114839122D01*
X112545664Y-114911398D01*
X112371849Y-114948344D01*
X112194151Y-114948344D01*
X112020336Y-114911398D01*
X111858000Y-114839122D01*
X111714239Y-114734673D01*
X111595336Y-114602617D01*
X111506486Y-114448726D01*
X111451575Y-114279725D01*
X111433000Y-114103000D01*
X111451575Y-113926275D01*
X111506486Y-113757274D01*
X111595336Y-113603383D01*
X111714239Y-113471327D01*
X111858000Y-113366878D01*
X112020336Y-113294602D01*
X112194151Y-113257656D01*
X112371849Y-113257656D01*
X112545664Y-113294602D01*
G37*
G36*
X129558664Y-113294602D02*
G01*
X129721000Y-113366878D01*
X129864761Y-113471327D01*
X129983664Y-113603383D01*
X130072514Y-113757274D01*
X130127425Y-113926275D01*
X130146000Y-114103000D01*
X130127425Y-114279725D01*
X130072514Y-114448726D01*
X129983664Y-114602617D01*
X129864761Y-114734673D01*
X129721000Y-114839122D01*
X129558664Y-114911398D01*
X129384849Y-114948344D01*
X129207151Y-114948344D01*
X129033336Y-114911398D01*
X128871000Y-114839122D01*
X128727239Y-114734673D01*
X128608336Y-114602617D01*
X128519486Y-114448726D01*
X128464575Y-114279725D01*
X128446000Y-114103000D01*
X128464575Y-113926275D01*
X128519486Y-113757274D01*
X128608336Y-113603383D01*
X128727239Y-113471327D01*
X128871000Y-113366878D01*
X129033336Y-113294602D01*
X129207151Y-113257656D01*
X129384849Y-113257656D01*
X129558664Y-113294602D01*
G37*
G36*
X132098664Y-113294602D02*
G01*
X132261000Y-113366878D01*
X132404761Y-113471327D01*
X132523664Y-113603383D01*
X132612514Y-113757274D01*
X132667425Y-113926275D01*
X132686000Y-114103000D01*
X132667425Y-114279725D01*
X132612514Y-114448726D01*
X132523664Y-114602617D01*
X132404761Y-114734673D01*
X132261000Y-114839122D01*
X132098664Y-114911398D01*
X131924849Y-114948344D01*
X131747151Y-114948344D01*
X131573336Y-114911398D01*
X131411000Y-114839122D01*
X131267239Y-114734673D01*
X131148336Y-114602617D01*
X131059486Y-114448726D01*
X131004575Y-114279725D01*
X130986000Y-114103000D01*
X131004575Y-113926275D01*
X131059486Y-113757274D01*
X131148336Y-113603383D01*
X131267239Y-113471327D01*
X131411000Y-113366878D01*
X131573336Y-113294602D01*
X131747151Y-113257656D01*
X131924849Y-113257656D01*
X132098664Y-113294602D01*
G37*
G36*
X134638664Y-113294602D02*
G01*
X134801000Y-113366878D01*
X134944761Y-113471327D01*
X135063664Y-113603383D01*
X135152514Y-113757274D01*
X135207425Y-113926275D01*
X135226000Y-114103000D01*
X135207425Y-114279725D01*
X135152514Y-114448726D01*
X135063664Y-114602617D01*
X134944761Y-114734673D01*
X134801000Y-114839122D01*
X134638664Y-114911398D01*
X134464849Y-114948344D01*
X134287151Y-114948344D01*
X134113336Y-114911398D01*
X133951000Y-114839122D01*
X133807239Y-114734673D01*
X133688336Y-114602617D01*
X133599486Y-114448726D01*
X133544575Y-114279725D01*
X133526000Y-114103000D01*
X133544575Y-113926275D01*
X133599486Y-113757274D01*
X133688336Y-113603383D01*
X133807239Y-113471327D01*
X133951000Y-113366878D01*
X134113336Y-113294602D01*
X134287151Y-113257656D01*
X134464849Y-113257656D01*
X134638664Y-113294602D01*
G37*
M02*
