%TF.GenerationSoftware,KiCad,Pcbnew,8.0.1*%
%TF.CreationDate,2024-08-08T01:36:49+02:00*%
%TF.ProjectId,panel,70616e65-6c2e-46b6-9963-61645f706362,rev?*%
%TF.SameCoordinates,Original*%
%TF.FileFunction,Legend,Top*%
%TF.FilePolarity,Positive*%
%FSLAX46Y46*%
G04 Gerber Fmt 4.6, Leading zero omitted, Abs format (unit mm)*
G04 Created by KiCad (PCBNEW 8.0.1) date 2024-08-08 01:36:49*
%MOMM*%
%LPD*%
G01*
G04 APERTURE LIST*
%ADD10C,0.200000*%
%ADD11C,0.300000*%
%ADD12C,0.150000*%
%ADD13C,0.400000*%
%ADD14C,0.100000*%
%ADD15C,0.120000*%
%ADD16C,0.000000*%
G04 APERTURE END LIST*
D10*
X166619047Y-129144457D02*
X166523809Y-129096838D01*
X166523809Y-129096838D02*
X166428571Y-129001600D01*
X166428571Y-129001600D02*
X166285714Y-128858742D01*
X166285714Y-128858742D02*
X166190476Y-128811123D01*
X166190476Y-128811123D02*
X166095238Y-128811123D01*
X166142857Y-129049219D02*
X166047619Y-129001600D01*
X166047619Y-129001600D02*
X165952381Y-128906361D01*
X165952381Y-128906361D02*
X165904762Y-128715885D01*
X165904762Y-128715885D02*
X165904762Y-128382552D01*
X165904762Y-128382552D02*
X165952381Y-128192076D01*
X165952381Y-128192076D02*
X166047619Y-128096838D01*
X166047619Y-128096838D02*
X166142857Y-128049219D01*
X166142857Y-128049219D02*
X166333333Y-128049219D01*
X166333333Y-128049219D02*
X166428571Y-128096838D01*
X166428571Y-128096838D02*
X166523809Y-128192076D01*
X166523809Y-128192076D02*
X166571428Y-128382552D01*
X166571428Y-128382552D02*
X166571428Y-128715885D01*
X166571428Y-128715885D02*
X166523809Y-128906361D01*
X166523809Y-128906361D02*
X166428571Y-129001600D01*
X166428571Y-129001600D02*
X166333333Y-129049219D01*
X166333333Y-129049219D02*
X166142857Y-129049219D01*
X168523810Y-128668266D02*
X169285715Y-128668266D01*
X171285715Y-128668266D02*
X172047620Y-128668266D01*
X171666667Y-129049219D02*
X171666667Y-128287314D01*
X147090457Y-115558816D02*
X147042838Y-115654054D01*
X147042838Y-115654054D02*
X146947600Y-115749292D01*
X146947600Y-115749292D02*
X146804742Y-115892149D01*
X146804742Y-115892149D02*
X146757123Y-115987387D01*
X146757123Y-115987387D02*
X146757123Y-116082625D01*
X146995219Y-116035006D02*
X146947600Y-116130244D01*
X146947600Y-116130244D02*
X146852361Y-116225482D01*
X146852361Y-116225482D02*
X146661885Y-116273101D01*
X146661885Y-116273101D02*
X146328552Y-116273101D01*
X146328552Y-116273101D02*
X146138076Y-116225482D01*
X146138076Y-116225482D02*
X146042838Y-116130244D01*
X146042838Y-116130244D02*
X145995219Y-116035006D01*
X145995219Y-116035006D02*
X145995219Y-115844530D01*
X145995219Y-115844530D02*
X146042838Y-115749292D01*
X146042838Y-115749292D02*
X146138076Y-115654054D01*
X146138076Y-115654054D02*
X146328552Y-115606435D01*
X146328552Y-115606435D02*
X146661885Y-115606435D01*
X146661885Y-115606435D02*
X146852361Y-115654054D01*
X146852361Y-115654054D02*
X146947600Y-115749292D01*
X146947600Y-115749292D02*
X146995219Y-115844530D01*
X146995219Y-115844530D02*
X146995219Y-116035006D01*
X146090457Y-115225482D02*
X146042838Y-115177863D01*
X146042838Y-115177863D02*
X145995219Y-115082625D01*
X145995219Y-115082625D02*
X145995219Y-114844530D01*
X145995219Y-114844530D02*
X146042838Y-114749292D01*
X146042838Y-114749292D02*
X146090457Y-114701673D01*
X146090457Y-114701673D02*
X146185695Y-114654054D01*
X146185695Y-114654054D02*
X146280933Y-114654054D01*
X146280933Y-114654054D02*
X146423790Y-114701673D01*
X146423790Y-114701673D02*
X146995219Y-115273101D01*
X146995219Y-115273101D02*
X146995219Y-114654054D01*
D11*
X150428328Y-132535714D02*
X148928328Y-132535714D01*
X149642614Y-132535714D02*
X149642614Y-131678571D01*
X150428328Y-131678571D02*
X148928328Y-131678571D01*
X149999757Y-131035713D02*
X149999757Y-130321428D01*
X150428328Y-131178570D02*
X148928328Y-130678570D01*
X148928328Y-130678570D02*
X150428328Y-130178570D01*
X150428328Y-128964285D02*
X150428328Y-129678571D01*
X150428328Y-129678571D02*
X148928328Y-129678571D01*
X150428328Y-127749999D02*
X150428328Y-128464285D01*
X150428328Y-128464285D02*
X148928328Y-128464285D01*
D10*
X119116733Y-114701673D02*
X119116733Y-115463578D01*
X118735780Y-115082625D02*
X119497685Y-115082625D01*
X118735780Y-116463577D02*
X118735780Y-115892149D01*
X118735780Y-116177863D02*
X119735780Y-116177863D01*
X119735780Y-116177863D02*
X119592923Y-116082625D01*
X119592923Y-116082625D02*
X119497685Y-115987387D01*
X119497685Y-115987387D02*
X119450066Y-115892149D01*
X119640542Y-116844530D02*
X119688161Y-116892149D01*
X119688161Y-116892149D02*
X119735780Y-116987387D01*
X119735780Y-116987387D02*
X119735780Y-117225482D01*
X119735780Y-117225482D02*
X119688161Y-117320720D01*
X119688161Y-117320720D02*
X119640542Y-117368339D01*
X119640542Y-117368339D02*
X119545304Y-117415958D01*
X119545304Y-117415958D02*
X119450066Y-117415958D01*
X119450066Y-117415958D02*
X119307209Y-117368339D01*
X119307209Y-117368339D02*
X118735780Y-116796911D01*
X118735780Y-116796911D02*
X118735780Y-117415958D01*
X119735780Y-117701673D02*
X118735780Y-118035006D01*
X118735780Y-118035006D02*
X119735780Y-118368339D01*
X123815780Y-114701673D02*
X124815780Y-114701673D01*
X123815780Y-115177863D02*
X124815780Y-115177863D01*
X124815780Y-115177863D02*
X123815780Y-115749291D01*
X123815780Y-115749291D02*
X124815780Y-115749291D01*
X141327219Y-122630326D02*
X140327219Y-122630326D01*
X140803409Y-122630326D02*
X140803409Y-122058898D01*
X141327219Y-122058898D02*
X140327219Y-122058898D01*
X141041504Y-121630326D02*
X141041504Y-121154136D01*
X141327219Y-121725564D02*
X140327219Y-121392231D01*
X140327219Y-121392231D02*
X141327219Y-121058898D01*
X141327219Y-120249374D02*
X141327219Y-120725564D01*
X141327219Y-120725564D02*
X140327219Y-120725564D01*
X144550457Y-115558816D02*
X144502838Y-115654054D01*
X144502838Y-115654054D02*
X144407600Y-115749292D01*
X144407600Y-115749292D02*
X144264742Y-115892149D01*
X144264742Y-115892149D02*
X144217123Y-115987387D01*
X144217123Y-115987387D02*
X144217123Y-116082625D01*
X144455219Y-116035006D02*
X144407600Y-116130244D01*
X144407600Y-116130244D02*
X144312361Y-116225482D01*
X144312361Y-116225482D02*
X144121885Y-116273101D01*
X144121885Y-116273101D02*
X143788552Y-116273101D01*
X143788552Y-116273101D02*
X143598076Y-116225482D01*
X143598076Y-116225482D02*
X143502838Y-116130244D01*
X143502838Y-116130244D02*
X143455219Y-116035006D01*
X143455219Y-116035006D02*
X143455219Y-115844530D01*
X143455219Y-115844530D02*
X143502838Y-115749292D01*
X143502838Y-115749292D02*
X143598076Y-115654054D01*
X143598076Y-115654054D02*
X143788552Y-115606435D01*
X143788552Y-115606435D02*
X144121885Y-115606435D01*
X144121885Y-115606435D02*
X144312361Y-115654054D01*
X144312361Y-115654054D02*
X144407600Y-115749292D01*
X144407600Y-115749292D02*
X144455219Y-115844530D01*
X144455219Y-115844530D02*
X144455219Y-116035006D01*
X144455219Y-114654054D02*
X144455219Y-115225482D01*
X144455219Y-114939768D02*
X143455219Y-114939768D01*
X143455219Y-114939768D02*
X143598076Y-115035006D01*
X143598076Y-115035006D02*
X143693314Y-115130244D01*
X143693314Y-115130244D02*
X143740933Y-115225482D01*
D11*
X116928328Y-130964285D02*
X116928328Y-131678571D01*
X116928328Y-131678571D02*
X115428328Y-131678571D01*
X116142614Y-130464285D02*
X116142614Y-129964285D01*
X116928328Y-129749999D02*
X116928328Y-130464285D01*
X116928328Y-130464285D02*
X115428328Y-130464285D01*
X115428328Y-130464285D02*
X115428328Y-129749999D01*
X116928328Y-129107142D02*
X115428328Y-129107142D01*
X115428328Y-129107142D02*
X115428328Y-128749999D01*
X115428328Y-128749999D02*
X115499757Y-128535713D01*
X115499757Y-128535713D02*
X115642614Y-128392856D01*
X115642614Y-128392856D02*
X115785471Y-128321427D01*
X115785471Y-128321427D02*
X116071185Y-128249999D01*
X116071185Y-128249999D02*
X116285471Y-128249999D01*
X116285471Y-128249999D02*
X116571185Y-128321427D01*
X116571185Y-128321427D02*
X116714042Y-128392856D01*
X116714042Y-128392856D02*
X116856900Y-128535713D01*
X116856900Y-128535713D02*
X116928328Y-128749999D01*
X116928328Y-128749999D02*
X116928328Y-129107142D01*
X116818328Y-111434286D02*
X115318328Y-111434286D01*
X115318328Y-111434286D02*
X115318328Y-110862857D01*
X115318328Y-110862857D02*
X115389757Y-110720000D01*
X115389757Y-110720000D02*
X115461185Y-110648571D01*
X115461185Y-110648571D02*
X115604042Y-110577143D01*
X115604042Y-110577143D02*
X115818328Y-110577143D01*
X115818328Y-110577143D02*
X115961185Y-110648571D01*
X115961185Y-110648571D02*
X116032614Y-110720000D01*
X116032614Y-110720000D02*
X116104042Y-110862857D01*
X116104042Y-110862857D02*
X116104042Y-111434286D01*
X116246900Y-109934286D02*
X116246900Y-108791429D01*
X115318328Y-108291428D02*
X115318328Y-107434286D01*
X116818328Y-107862857D02*
X115318328Y-107862857D01*
X116818328Y-106934286D02*
X115318328Y-106934286D01*
X116032614Y-106934286D02*
X116032614Y-106077143D01*
X116818328Y-106077143D02*
X115318328Y-106077143D01*
X116818328Y-104505714D02*
X116104042Y-105005714D01*
X116818328Y-105362857D02*
X115318328Y-105362857D01*
X115318328Y-105362857D02*
X115318328Y-104791428D01*
X115318328Y-104791428D02*
X115389757Y-104648571D01*
X115389757Y-104648571D02*
X115461185Y-104577142D01*
X115461185Y-104577142D02*
X115604042Y-104505714D01*
X115604042Y-104505714D02*
X115818328Y-104505714D01*
X115818328Y-104505714D02*
X115961185Y-104577142D01*
X115961185Y-104577142D02*
X116032614Y-104648571D01*
X116032614Y-104648571D02*
X116104042Y-104791428D01*
X116104042Y-104791428D02*
X116104042Y-105362857D01*
X115318328Y-103862857D02*
X116532614Y-103862857D01*
X116532614Y-103862857D02*
X116675471Y-103791428D01*
X116675471Y-103791428D02*
X116746900Y-103720000D01*
X116746900Y-103720000D02*
X116818328Y-103577142D01*
X116818328Y-103577142D02*
X116818328Y-103291428D01*
X116818328Y-103291428D02*
X116746900Y-103148571D01*
X116746900Y-103148571D02*
X116675471Y-103077142D01*
X116675471Y-103077142D02*
X116532614Y-103005714D01*
X116532614Y-103005714D02*
X115318328Y-103005714D01*
D10*
X142914838Y-122106517D02*
X142867219Y-122201755D01*
X142867219Y-122201755D02*
X142867219Y-122344612D01*
X142867219Y-122344612D02*
X142914838Y-122487469D01*
X142914838Y-122487469D02*
X143010076Y-122582707D01*
X143010076Y-122582707D02*
X143105314Y-122630326D01*
X143105314Y-122630326D02*
X143295790Y-122677945D01*
X143295790Y-122677945D02*
X143438647Y-122677945D01*
X143438647Y-122677945D02*
X143629123Y-122630326D01*
X143629123Y-122630326D02*
X143724361Y-122582707D01*
X143724361Y-122582707D02*
X143819600Y-122487469D01*
X143819600Y-122487469D02*
X143867219Y-122344612D01*
X143867219Y-122344612D02*
X143867219Y-122249374D01*
X143867219Y-122249374D02*
X143819600Y-122106517D01*
X143819600Y-122106517D02*
X143771980Y-122058898D01*
X143771980Y-122058898D02*
X143438647Y-122058898D01*
X143438647Y-122058898D02*
X143438647Y-122249374D01*
X143867219Y-121630326D02*
X142867219Y-121630326D01*
X142867219Y-121630326D02*
X143867219Y-121058898D01*
X143867219Y-121058898D02*
X142867219Y-121058898D01*
X143867219Y-120582707D02*
X142867219Y-120582707D01*
X142867219Y-120582707D02*
X142867219Y-120344612D01*
X142867219Y-120344612D02*
X142914838Y-120201755D01*
X142914838Y-120201755D02*
X143010076Y-120106517D01*
X143010076Y-120106517D02*
X143105314Y-120058898D01*
X143105314Y-120058898D02*
X143295790Y-120011279D01*
X143295790Y-120011279D02*
X143438647Y-120011279D01*
X143438647Y-120011279D02*
X143629123Y-120058898D01*
X143629123Y-120058898D02*
X143724361Y-120106517D01*
X143724361Y-120106517D02*
X143819600Y-120201755D01*
X143819600Y-120201755D02*
X143867219Y-120344612D01*
X143867219Y-120344612D02*
X143867219Y-120582707D01*
X138420733Y-114701673D02*
X138420733Y-115463578D01*
X138039780Y-115082625D02*
X138801685Y-115082625D01*
X138039780Y-116463577D02*
X138039780Y-115892149D01*
X138039780Y-116177863D02*
X139039780Y-116177863D01*
X139039780Y-116177863D02*
X138896923Y-116082625D01*
X138896923Y-116082625D02*
X138801685Y-115987387D01*
X138801685Y-115987387D02*
X138754066Y-115892149D01*
X138944542Y-116844530D02*
X138992161Y-116892149D01*
X138992161Y-116892149D02*
X139039780Y-116987387D01*
X139039780Y-116987387D02*
X139039780Y-117225482D01*
X139039780Y-117225482D02*
X138992161Y-117320720D01*
X138992161Y-117320720D02*
X138944542Y-117368339D01*
X138944542Y-117368339D02*
X138849304Y-117415958D01*
X138849304Y-117415958D02*
X138754066Y-117415958D01*
X138754066Y-117415958D02*
X138611209Y-117368339D01*
X138611209Y-117368339D02*
X138039780Y-116796911D01*
X138039780Y-116796911D02*
X138039780Y-117415958D01*
X139039780Y-117701673D02*
X138039780Y-118035006D01*
X138039780Y-118035006D02*
X139039780Y-118368339D01*
X140531838Y-116749292D02*
X140484219Y-116844530D01*
X140484219Y-116844530D02*
X140484219Y-116987387D01*
X140484219Y-116987387D02*
X140531838Y-117130244D01*
X140531838Y-117130244D02*
X140627076Y-117225482D01*
X140627076Y-117225482D02*
X140722314Y-117273101D01*
X140722314Y-117273101D02*
X140912790Y-117320720D01*
X140912790Y-117320720D02*
X141055647Y-117320720D01*
X141055647Y-117320720D02*
X141246123Y-117273101D01*
X141246123Y-117273101D02*
X141341361Y-117225482D01*
X141341361Y-117225482D02*
X141436600Y-117130244D01*
X141436600Y-117130244D02*
X141484219Y-116987387D01*
X141484219Y-116987387D02*
X141484219Y-116892149D01*
X141484219Y-116892149D02*
X141436600Y-116749292D01*
X141436600Y-116749292D02*
X141388980Y-116701673D01*
X141388980Y-116701673D02*
X141055647Y-116701673D01*
X141055647Y-116701673D02*
X141055647Y-116892149D01*
X141484219Y-116273101D02*
X140484219Y-116273101D01*
X140484219Y-116273101D02*
X141484219Y-115701673D01*
X141484219Y-115701673D02*
X140484219Y-115701673D01*
X141484219Y-115225482D02*
X140484219Y-115225482D01*
X140484219Y-115225482D02*
X140484219Y-114987387D01*
X140484219Y-114987387D02*
X140531838Y-114844530D01*
X140531838Y-114844530D02*
X140627076Y-114749292D01*
X140627076Y-114749292D02*
X140722314Y-114701673D01*
X140722314Y-114701673D02*
X140912790Y-114654054D01*
X140912790Y-114654054D02*
X141055647Y-114654054D01*
X141055647Y-114654054D02*
X141246123Y-114701673D01*
X141246123Y-114701673D02*
X141341361Y-114749292D01*
X141341361Y-114749292D02*
X141436600Y-114844530D01*
X141436600Y-114844530D02*
X141484219Y-114987387D01*
X141484219Y-114987387D02*
X141484219Y-115225482D01*
D12*
X113388152Y-132110286D02*
X114197676Y-132110286D01*
X114197676Y-132110286D02*
X114292914Y-132157905D01*
X114292914Y-132157905D02*
X114340533Y-132205524D01*
X114340533Y-132205524D02*
X114388152Y-132300762D01*
X114388152Y-132300762D02*
X114388152Y-132443619D01*
X114388152Y-132443619D02*
X114340533Y-132538857D01*
X114007200Y-132110286D02*
X114054819Y-132205524D01*
X114054819Y-132205524D02*
X114054819Y-132396000D01*
X114054819Y-132396000D02*
X114007200Y-132491238D01*
X114007200Y-132491238D02*
X113959580Y-132538857D01*
X113959580Y-132538857D02*
X113864342Y-132586476D01*
X113864342Y-132586476D02*
X113578628Y-132586476D01*
X113578628Y-132586476D02*
X113483390Y-132538857D01*
X113483390Y-132538857D02*
X113435771Y-132491238D01*
X113435771Y-132491238D02*
X113388152Y-132396000D01*
X113388152Y-132396000D02*
X113388152Y-132205524D01*
X113388152Y-132205524D02*
X113435771Y-132110286D01*
X114054819Y-131634095D02*
X113388152Y-131634095D01*
X113054819Y-131634095D02*
X113102438Y-131681714D01*
X113102438Y-131681714D02*
X113150057Y-131634095D01*
X113150057Y-131634095D02*
X113102438Y-131586476D01*
X113102438Y-131586476D02*
X113054819Y-131634095D01*
X113054819Y-131634095D02*
X113150057Y-131634095D01*
X113388152Y-131300762D02*
X113388152Y-130919810D01*
X113054819Y-131157905D02*
X113911961Y-131157905D01*
X113911961Y-131157905D02*
X114007200Y-131110286D01*
X114007200Y-131110286D02*
X114054819Y-131015048D01*
X114054819Y-131015048D02*
X114054819Y-130919810D01*
X114054819Y-130586476D02*
X113054819Y-130586476D01*
X114054819Y-130157905D02*
X113531009Y-130157905D01*
X113531009Y-130157905D02*
X113435771Y-130205524D01*
X113435771Y-130205524D02*
X113388152Y-130300762D01*
X113388152Y-130300762D02*
X113388152Y-130443619D01*
X113388152Y-130443619D02*
X113435771Y-130538857D01*
X113435771Y-130538857D02*
X113483390Y-130586476D01*
X113388152Y-129253143D02*
X114054819Y-129253143D01*
X113388152Y-129681714D02*
X113911961Y-129681714D01*
X113911961Y-129681714D02*
X114007200Y-129634095D01*
X114007200Y-129634095D02*
X114054819Y-129538857D01*
X114054819Y-129538857D02*
X114054819Y-129396000D01*
X114054819Y-129396000D02*
X114007200Y-129300762D01*
X114007200Y-129300762D02*
X113959580Y-129253143D01*
X114054819Y-128776952D02*
X113054819Y-128776952D01*
X113435771Y-128776952D02*
X113388152Y-128681714D01*
X113388152Y-128681714D02*
X113388152Y-128491238D01*
X113388152Y-128491238D02*
X113435771Y-128396000D01*
X113435771Y-128396000D02*
X113483390Y-128348381D01*
X113483390Y-128348381D02*
X113578628Y-128300762D01*
X113578628Y-128300762D02*
X113864342Y-128300762D01*
X113864342Y-128300762D02*
X113959580Y-128348381D01*
X113959580Y-128348381D02*
X114007200Y-128396000D01*
X114007200Y-128396000D02*
X114054819Y-128491238D01*
X114054819Y-128491238D02*
X114054819Y-128681714D01*
X114054819Y-128681714D02*
X114007200Y-128776952D01*
X113959580Y-127872190D02*
X114007200Y-127824571D01*
X114007200Y-127824571D02*
X114054819Y-127872190D01*
X114054819Y-127872190D02*
X114007200Y-127919809D01*
X114007200Y-127919809D02*
X113959580Y-127872190D01*
X113959580Y-127872190D02*
X114054819Y-127872190D01*
X114007200Y-126967429D02*
X114054819Y-127062667D01*
X114054819Y-127062667D02*
X114054819Y-127253143D01*
X114054819Y-127253143D02*
X114007200Y-127348381D01*
X114007200Y-127348381D02*
X113959580Y-127396000D01*
X113959580Y-127396000D02*
X113864342Y-127443619D01*
X113864342Y-127443619D02*
X113578628Y-127443619D01*
X113578628Y-127443619D02*
X113483390Y-127396000D01*
X113483390Y-127396000D02*
X113435771Y-127348381D01*
X113435771Y-127348381D02*
X113388152Y-127253143D01*
X113388152Y-127253143D02*
X113388152Y-127062667D01*
X113388152Y-127062667D02*
X113435771Y-126967429D01*
X114054819Y-126396000D02*
X114007200Y-126491238D01*
X114007200Y-126491238D02*
X113959580Y-126538857D01*
X113959580Y-126538857D02*
X113864342Y-126586476D01*
X113864342Y-126586476D02*
X113578628Y-126586476D01*
X113578628Y-126586476D02*
X113483390Y-126538857D01*
X113483390Y-126538857D02*
X113435771Y-126491238D01*
X113435771Y-126491238D02*
X113388152Y-126396000D01*
X113388152Y-126396000D02*
X113388152Y-126253143D01*
X113388152Y-126253143D02*
X113435771Y-126157905D01*
X113435771Y-126157905D02*
X113483390Y-126110286D01*
X113483390Y-126110286D02*
X113578628Y-126062667D01*
X113578628Y-126062667D02*
X113864342Y-126062667D01*
X113864342Y-126062667D02*
X113959580Y-126110286D01*
X113959580Y-126110286D02*
X114007200Y-126157905D01*
X114007200Y-126157905D02*
X114054819Y-126253143D01*
X114054819Y-126253143D02*
X114054819Y-126396000D01*
X114054819Y-125634095D02*
X113388152Y-125634095D01*
X113483390Y-125634095D02*
X113435771Y-125586476D01*
X113435771Y-125586476D02*
X113388152Y-125491238D01*
X113388152Y-125491238D02*
X113388152Y-125348381D01*
X113388152Y-125348381D02*
X113435771Y-125253143D01*
X113435771Y-125253143D02*
X113531009Y-125205524D01*
X113531009Y-125205524D02*
X114054819Y-125205524D01*
X113531009Y-125205524D02*
X113435771Y-125157905D01*
X113435771Y-125157905D02*
X113388152Y-125062667D01*
X113388152Y-125062667D02*
X113388152Y-124919810D01*
X113388152Y-124919810D02*
X113435771Y-124824571D01*
X113435771Y-124824571D02*
X113531009Y-124776952D01*
X113531009Y-124776952D02*
X114054819Y-124776952D01*
X113007200Y-123586477D02*
X114292914Y-124443619D01*
X113054819Y-123396000D02*
X113054819Y-122824572D01*
X114054819Y-123110286D02*
X113054819Y-123110286D01*
X114007200Y-122110286D02*
X114054819Y-122205524D01*
X114054819Y-122205524D02*
X114054819Y-122396000D01*
X114054819Y-122396000D02*
X114007200Y-122491238D01*
X114007200Y-122491238D02*
X113911961Y-122538857D01*
X113911961Y-122538857D02*
X113531009Y-122538857D01*
X113531009Y-122538857D02*
X113435771Y-122491238D01*
X113435771Y-122491238D02*
X113388152Y-122396000D01*
X113388152Y-122396000D02*
X113388152Y-122205524D01*
X113388152Y-122205524D02*
X113435771Y-122110286D01*
X113435771Y-122110286D02*
X113531009Y-122062667D01*
X113531009Y-122062667D02*
X113626247Y-122062667D01*
X113626247Y-122062667D02*
X113721485Y-122538857D01*
X114054819Y-121491238D02*
X114007200Y-121586476D01*
X114007200Y-121586476D02*
X113911961Y-121634095D01*
X113911961Y-121634095D02*
X113054819Y-121634095D01*
X114007200Y-120729333D02*
X114054819Y-120824571D01*
X114054819Y-120824571D02*
X114054819Y-121015047D01*
X114054819Y-121015047D02*
X114007200Y-121110285D01*
X114007200Y-121110285D02*
X113911961Y-121157904D01*
X113911961Y-121157904D02*
X113531009Y-121157904D01*
X113531009Y-121157904D02*
X113435771Y-121110285D01*
X113435771Y-121110285D02*
X113388152Y-121015047D01*
X113388152Y-121015047D02*
X113388152Y-120824571D01*
X113388152Y-120824571D02*
X113435771Y-120729333D01*
X113435771Y-120729333D02*
X113531009Y-120681714D01*
X113531009Y-120681714D02*
X113626247Y-120681714D01*
X113626247Y-120681714D02*
X113721485Y-121157904D01*
X114054819Y-120253142D02*
X113054819Y-120253142D01*
X113673866Y-120157904D02*
X114054819Y-119872190D01*
X113388152Y-119872190D02*
X113769104Y-120253142D01*
X114054819Y-119300761D02*
X114007200Y-119395999D01*
X114007200Y-119395999D02*
X113959580Y-119443618D01*
X113959580Y-119443618D02*
X113864342Y-119491237D01*
X113864342Y-119491237D02*
X113578628Y-119491237D01*
X113578628Y-119491237D02*
X113483390Y-119443618D01*
X113483390Y-119443618D02*
X113435771Y-119395999D01*
X113435771Y-119395999D02*
X113388152Y-119300761D01*
X113388152Y-119300761D02*
X113388152Y-119157904D01*
X113388152Y-119157904D02*
X113435771Y-119062666D01*
X113435771Y-119062666D02*
X113483390Y-119015047D01*
X113483390Y-119015047D02*
X113578628Y-118967428D01*
X113578628Y-118967428D02*
X113864342Y-118967428D01*
X113864342Y-118967428D02*
X113959580Y-119015047D01*
X113959580Y-119015047D02*
X114007200Y-119062666D01*
X114007200Y-119062666D02*
X114054819Y-119157904D01*
X114054819Y-119157904D02*
X114054819Y-119300761D01*
X114054819Y-118538856D02*
X113388152Y-118538856D01*
X113483390Y-118538856D02*
X113435771Y-118491237D01*
X113435771Y-118491237D02*
X113388152Y-118395999D01*
X113388152Y-118395999D02*
X113388152Y-118253142D01*
X113388152Y-118253142D02*
X113435771Y-118157904D01*
X113435771Y-118157904D02*
X113531009Y-118110285D01*
X113531009Y-118110285D02*
X114054819Y-118110285D01*
X113531009Y-118110285D02*
X113435771Y-118062666D01*
X113435771Y-118062666D02*
X113388152Y-117967428D01*
X113388152Y-117967428D02*
X113388152Y-117824571D01*
X113388152Y-117824571D02*
X113435771Y-117729332D01*
X113435771Y-117729332D02*
X113531009Y-117681713D01*
X113531009Y-117681713D02*
X114054819Y-117681713D01*
X114054819Y-116776952D02*
X113531009Y-116776952D01*
X113531009Y-116776952D02*
X113435771Y-116824571D01*
X113435771Y-116824571D02*
X113388152Y-116919809D01*
X113388152Y-116919809D02*
X113388152Y-117110285D01*
X113388152Y-117110285D02*
X113435771Y-117205523D01*
X114007200Y-116776952D02*
X114054819Y-116872190D01*
X114054819Y-116872190D02*
X114054819Y-117110285D01*
X114054819Y-117110285D02*
X114007200Y-117205523D01*
X114007200Y-117205523D02*
X113911961Y-117253142D01*
X113911961Y-117253142D02*
X113816723Y-117253142D01*
X113816723Y-117253142D02*
X113721485Y-117205523D01*
X113721485Y-117205523D02*
X113673866Y-117110285D01*
X113673866Y-117110285D02*
X113673866Y-116872190D01*
X113673866Y-116872190D02*
X113626247Y-116776952D01*
X114054819Y-116300761D02*
X113054819Y-116300761D01*
X113673866Y-116205523D02*
X114054819Y-115919809D01*
X113388152Y-115919809D02*
X113769104Y-116300761D01*
X113007200Y-114776952D02*
X114292914Y-115634094D01*
X113531009Y-114110285D02*
X113531009Y-114443618D01*
X114054819Y-114443618D02*
X113054819Y-114443618D01*
X113054819Y-114443618D02*
X113054819Y-113967428D01*
X114054819Y-113586475D02*
X113388152Y-113586475D01*
X113054819Y-113586475D02*
X113102438Y-113634094D01*
X113102438Y-113634094D02*
X113150057Y-113586475D01*
X113150057Y-113586475D02*
X113102438Y-113538856D01*
X113102438Y-113538856D02*
X113054819Y-113586475D01*
X113054819Y-113586475D02*
X113150057Y-113586475D01*
X114054819Y-113110285D02*
X113388152Y-113110285D01*
X113578628Y-113110285D02*
X113483390Y-113062666D01*
X113483390Y-113062666D02*
X113435771Y-113015047D01*
X113435771Y-113015047D02*
X113388152Y-112919809D01*
X113388152Y-112919809D02*
X113388152Y-112824571D01*
X114007200Y-112110285D02*
X114054819Y-112205523D01*
X114054819Y-112205523D02*
X114054819Y-112395999D01*
X114054819Y-112395999D02*
X114007200Y-112491237D01*
X114007200Y-112491237D02*
X113911961Y-112538856D01*
X113911961Y-112538856D02*
X113531009Y-112538856D01*
X113531009Y-112538856D02*
X113435771Y-112491237D01*
X113435771Y-112491237D02*
X113388152Y-112395999D01*
X113388152Y-112395999D02*
X113388152Y-112205523D01*
X113388152Y-112205523D02*
X113435771Y-112110285D01*
X113435771Y-112110285D02*
X113531009Y-112062666D01*
X113531009Y-112062666D02*
X113626247Y-112062666D01*
X113626247Y-112062666D02*
X113721485Y-112538856D01*
X114007200Y-111681713D02*
X114054819Y-111586475D01*
X114054819Y-111586475D02*
X114054819Y-111395999D01*
X114054819Y-111395999D02*
X114007200Y-111300761D01*
X114007200Y-111300761D02*
X113911961Y-111253142D01*
X113911961Y-111253142D02*
X113864342Y-111253142D01*
X113864342Y-111253142D02*
X113769104Y-111300761D01*
X113769104Y-111300761D02*
X113721485Y-111395999D01*
X113721485Y-111395999D02*
X113721485Y-111538856D01*
X113721485Y-111538856D02*
X113673866Y-111634094D01*
X113673866Y-111634094D02*
X113578628Y-111681713D01*
X113578628Y-111681713D02*
X113531009Y-111681713D01*
X113531009Y-111681713D02*
X113435771Y-111634094D01*
X113435771Y-111634094D02*
X113388152Y-111538856D01*
X113388152Y-111538856D02*
X113388152Y-111395999D01*
X113388152Y-111395999D02*
X113435771Y-111300761D01*
X113388152Y-110824570D02*
X114388152Y-110824570D01*
X113435771Y-110824570D02*
X113388152Y-110729332D01*
X113388152Y-110729332D02*
X113388152Y-110538856D01*
X113388152Y-110538856D02*
X113435771Y-110443618D01*
X113435771Y-110443618D02*
X113483390Y-110395999D01*
X113483390Y-110395999D02*
X113578628Y-110348380D01*
X113578628Y-110348380D02*
X113864342Y-110348380D01*
X113864342Y-110348380D02*
X113959580Y-110395999D01*
X113959580Y-110395999D02*
X114007200Y-110443618D01*
X114007200Y-110443618D02*
X114054819Y-110538856D01*
X114054819Y-110538856D02*
X114054819Y-110729332D01*
X114054819Y-110729332D02*
X114007200Y-110824570D01*
X114054819Y-109776951D02*
X114007200Y-109872189D01*
X114007200Y-109872189D02*
X113959580Y-109919808D01*
X113959580Y-109919808D02*
X113864342Y-109967427D01*
X113864342Y-109967427D02*
X113578628Y-109967427D01*
X113578628Y-109967427D02*
X113483390Y-109919808D01*
X113483390Y-109919808D02*
X113435771Y-109872189D01*
X113435771Y-109872189D02*
X113388152Y-109776951D01*
X113388152Y-109776951D02*
X113388152Y-109634094D01*
X113388152Y-109634094D02*
X113435771Y-109538856D01*
X113435771Y-109538856D02*
X113483390Y-109491237D01*
X113483390Y-109491237D02*
X113578628Y-109443618D01*
X113578628Y-109443618D02*
X113864342Y-109443618D01*
X113864342Y-109443618D02*
X113959580Y-109491237D01*
X113959580Y-109491237D02*
X114007200Y-109538856D01*
X114007200Y-109538856D02*
X114054819Y-109634094D01*
X114054819Y-109634094D02*
X114054819Y-109776951D01*
X114054819Y-109015046D02*
X113388152Y-109015046D01*
X113578628Y-109015046D02*
X113483390Y-108967427D01*
X113483390Y-108967427D02*
X113435771Y-108919808D01*
X113435771Y-108919808D02*
X113388152Y-108824570D01*
X113388152Y-108824570D02*
X113388152Y-108729332D01*
X113388152Y-108538855D02*
X113388152Y-108157903D01*
X113054819Y-108395998D02*
X113911961Y-108395998D01*
X113911961Y-108395998D02*
X114007200Y-108348379D01*
X114007200Y-108348379D02*
X114054819Y-108253141D01*
X114054819Y-108253141D02*
X114054819Y-108157903D01*
X113054819Y-107967426D02*
X113054819Y-107395998D01*
X114054819Y-107681712D02*
X113054819Y-107681712D01*
X114054819Y-107062664D02*
X113388152Y-107062664D01*
X113054819Y-107062664D02*
X113102438Y-107110283D01*
X113102438Y-107110283D02*
X113150057Y-107062664D01*
X113150057Y-107062664D02*
X113102438Y-107015045D01*
X113102438Y-107015045D02*
X113054819Y-107062664D01*
X113054819Y-107062664D02*
X113150057Y-107062664D01*
X114054819Y-106586474D02*
X113388152Y-106586474D01*
X113483390Y-106586474D02*
X113435771Y-106538855D01*
X113435771Y-106538855D02*
X113388152Y-106443617D01*
X113388152Y-106443617D02*
X113388152Y-106300760D01*
X113388152Y-106300760D02*
X113435771Y-106205522D01*
X113435771Y-106205522D02*
X113531009Y-106157903D01*
X113531009Y-106157903D02*
X114054819Y-106157903D01*
X113531009Y-106157903D02*
X113435771Y-106110284D01*
X113435771Y-106110284D02*
X113388152Y-106015046D01*
X113388152Y-106015046D02*
X113388152Y-105872189D01*
X113388152Y-105872189D02*
X113435771Y-105776950D01*
X113435771Y-105776950D02*
X113531009Y-105729331D01*
X113531009Y-105729331D02*
X114054819Y-105729331D01*
X114007200Y-104872189D02*
X114054819Y-104967427D01*
X114054819Y-104967427D02*
X114054819Y-105157903D01*
X114054819Y-105157903D02*
X114007200Y-105253141D01*
X114007200Y-105253141D02*
X113911961Y-105300760D01*
X113911961Y-105300760D02*
X113531009Y-105300760D01*
X113531009Y-105300760D02*
X113435771Y-105253141D01*
X113435771Y-105253141D02*
X113388152Y-105157903D01*
X113388152Y-105157903D02*
X113388152Y-104967427D01*
X113388152Y-104967427D02*
X113435771Y-104872189D01*
X113435771Y-104872189D02*
X113531009Y-104824570D01*
X113531009Y-104824570D02*
X113626247Y-104824570D01*
X113626247Y-104824570D02*
X113721485Y-105300760D01*
X114054819Y-104395998D02*
X113388152Y-104395998D01*
X113578628Y-104395998D02*
X113483390Y-104348379D01*
X113483390Y-104348379D02*
X113435771Y-104300760D01*
X113435771Y-104300760D02*
X113388152Y-104205522D01*
X113388152Y-104205522D02*
X113388152Y-104110284D01*
D10*
X138190476Y-132564219D02*
X138190476Y-131564219D01*
X138190476Y-131564219D02*
X138523809Y-132278504D01*
X138523809Y-132278504D02*
X138857142Y-131564219D01*
X138857142Y-131564219D02*
X138857142Y-132564219D01*
X139761904Y-131897552D02*
X139761904Y-132564219D01*
X139523809Y-131516600D02*
X139285714Y-132230885D01*
X139285714Y-132230885D02*
X139904761Y-132230885D01*
X123617219Y-122122136D02*
X123617219Y-122598326D01*
X123617219Y-122598326D02*
X122617219Y-122598326D01*
X123093409Y-121788802D02*
X123093409Y-121455469D01*
X123617219Y-121312612D02*
X123617219Y-121788802D01*
X123617219Y-121788802D02*
X122617219Y-121788802D01*
X122617219Y-121788802D02*
X122617219Y-121312612D01*
X123617219Y-120884040D02*
X122617219Y-120884040D01*
X122617219Y-120884040D02*
X122617219Y-120645945D01*
X122617219Y-120645945D02*
X122664838Y-120503088D01*
X122664838Y-120503088D02*
X122760076Y-120407850D01*
X122760076Y-120407850D02*
X122855314Y-120360231D01*
X122855314Y-120360231D02*
X123045790Y-120312612D01*
X123045790Y-120312612D02*
X123188647Y-120312612D01*
X123188647Y-120312612D02*
X123379123Y-120360231D01*
X123379123Y-120360231D02*
X123474361Y-120407850D01*
X123474361Y-120407850D02*
X123569600Y-120503088D01*
X123569600Y-120503088D02*
X123617219Y-120645945D01*
X123617219Y-120645945D02*
X123617219Y-120884040D01*
X123236266Y-119884040D02*
X123236266Y-119122136D01*
X123617219Y-119503088D02*
X122855314Y-119503088D01*
X146026266Y-122630326D02*
X146026266Y-121868422D01*
X146407219Y-122249374D02*
X145645314Y-122249374D01*
X146407219Y-120868422D02*
X146407219Y-121439850D01*
X146407219Y-121154136D02*
X145407219Y-121154136D01*
X145407219Y-121154136D02*
X145550076Y-121249374D01*
X145550076Y-121249374D02*
X145645314Y-121344612D01*
X145645314Y-121344612D02*
X145692933Y-121439850D01*
X145502457Y-120487469D02*
X145454838Y-120439850D01*
X145454838Y-120439850D02*
X145407219Y-120344612D01*
X145407219Y-120344612D02*
X145407219Y-120106517D01*
X145407219Y-120106517D02*
X145454838Y-120011279D01*
X145454838Y-120011279D02*
X145502457Y-119963660D01*
X145502457Y-119963660D02*
X145597695Y-119916041D01*
X145597695Y-119916041D02*
X145692933Y-119916041D01*
X145692933Y-119916041D02*
X145835790Y-119963660D01*
X145835790Y-119963660D02*
X146407219Y-120535088D01*
X146407219Y-120535088D02*
X146407219Y-119916041D01*
X145407219Y-119630326D02*
X146407219Y-119296993D01*
X146407219Y-119296993D02*
X145407219Y-118963660D01*
X121227838Y-116749292D02*
X121180219Y-116844530D01*
X121180219Y-116844530D02*
X121180219Y-116987387D01*
X121180219Y-116987387D02*
X121227838Y-117130244D01*
X121227838Y-117130244D02*
X121323076Y-117225482D01*
X121323076Y-117225482D02*
X121418314Y-117273101D01*
X121418314Y-117273101D02*
X121608790Y-117320720D01*
X121608790Y-117320720D02*
X121751647Y-117320720D01*
X121751647Y-117320720D02*
X121942123Y-117273101D01*
X121942123Y-117273101D02*
X122037361Y-117225482D01*
X122037361Y-117225482D02*
X122132600Y-117130244D01*
X122132600Y-117130244D02*
X122180219Y-116987387D01*
X122180219Y-116987387D02*
X122180219Y-116892149D01*
X122180219Y-116892149D02*
X122132600Y-116749292D01*
X122132600Y-116749292D02*
X122084980Y-116701673D01*
X122084980Y-116701673D02*
X121751647Y-116701673D01*
X121751647Y-116701673D02*
X121751647Y-116892149D01*
X122180219Y-116273101D02*
X121180219Y-116273101D01*
X121180219Y-116273101D02*
X122180219Y-115701673D01*
X122180219Y-115701673D02*
X121180219Y-115701673D01*
X122180219Y-115225482D02*
X121180219Y-115225482D01*
X121180219Y-115225482D02*
X121180219Y-114987387D01*
X121180219Y-114987387D02*
X121227838Y-114844530D01*
X121227838Y-114844530D02*
X121323076Y-114749292D01*
X121323076Y-114749292D02*
X121418314Y-114701673D01*
X121418314Y-114701673D02*
X121608790Y-114654054D01*
X121608790Y-114654054D02*
X121751647Y-114654054D01*
X121751647Y-114654054D02*
X121942123Y-114701673D01*
X121942123Y-114701673D02*
X122037361Y-114749292D01*
X122037361Y-114749292D02*
X122132600Y-114844530D01*
X122132600Y-114844530D02*
X122180219Y-114987387D01*
X122180219Y-114987387D02*
X122180219Y-115225482D01*
X120119838Y-122074517D02*
X120072219Y-122169755D01*
X120072219Y-122169755D02*
X120072219Y-122312612D01*
X120072219Y-122312612D02*
X120119838Y-122455469D01*
X120119838Y-122455469D02*
X120215076Y-122550707D01*
X120215076Y-122550707D02*
X120310314Y-122598326D01*
X120310314Y-122598326D02*
X120500790Y-122645945D01*
X120500790Y-122645945D02*
X120643647Y-122645945D01*
X120643647Y-122645945D02*
X120834123Y-122598326D01*
X120834123Y-122598326D02*
X120929361Y-122550707D01*
X120929361Y-122550707D02*
X121024600Y-122455469D01*
X121024600Y-122455469D02*
X121072219Y-122312612D01*
X121072219Y-122312612D02*
X121072219Y-122217374D01*
X121072219Y-122217374D02*
X121024600Y-122074517D01*
X121024600Y-122074517D02*
X120976980Y-122026898D01*
X120976980Y-122026898D02*
X120643647Y-122026898D01*
X120643647Y-122026898D02*
X120643647Y-122217374D01*
X121072219Y-121598326D02*
X120072219Y-121598326D01*
X120072219Y-121598326D02*
X121072219Y-121026898D01*
X121072219Y-121026898D02*
X120072219Y-121026898D01*
X121072219Y-120550707D02*
X120072219Y-120550707D01*
X120072219Y-120550707D02*
X120072219Y-120312612D01*
X120072219Y-120312612D02*
X120119838Y-120169755D01*
X120119838Y-120169755D02*
X120215076Y-120074517D01*
X120215076Y-120074517D02*
X120310314Y-120026898D01*
X120310314Y-120026898D02*
X120500790Y-119979279D01*
X120500790Y-119979279D02*
X120643647Y-119979279D01*
X120643647Y-119979279D02*
X120834123Y-120026898D01*
X120834123Y-120026898D02*
X120929361Y-120074517D01*
X120929361Y-120074517D02*
X121024600Y-120169755D01*
X121024600Y-120169755D02*
X121072219Y-120312612D01*
X121072219Y-120312612D02*
X121072219Y-120550707D01*
D11*
X148846328Y-108719999D02*
X148846328Y-108434285D01*
X148846328Y-108434285D02*
X148917757Y-108291428D01*
X148917757Y-108291428D02*
X149060614Y-108148571D01*
X149060614Y-108148571D02*
X149346328Y-108077142D01*
X149346328Y-108077142D02*
X149846328Y-108077142D01*
X149846328Y-108077142D02*
X150132042Y-108148571D01*
X150132042Y-108148571D02*
X150274900Y-108291428D01*
X150274900Y-108291428D02*
X150346328Y-108434285D01*
X150346328Y-108434285D02*
X150346328Y-108719999D01*
X150346328Y-108719999D02*
X150274900Y-108862857D01*
X150274900Y-108862857D02*
X150132042Y-109005714D01*
X150132042Y-109005714D02*
X149846328Y-109077142D01*
X149846328Y-109077142D02*
X149346328Y-109077142D01*
X149346328Y-109077142D02*
X149060614Y-109005714D01*
X149060614Y-109005714D02*
X148917757Y-108862857D01*
X148917757Y-108862857D02*
X148846328Y-108719999D01*
X148846328Y-107434285D02*
X150060614Y-107434285D01*
X150060614Y-107434285D02*
X150203471Y-107362856D01*
X150203471Y-107362856D02*
X150274900Y-107291428D01*
X150274900Y-107291428D02*
X150346328Y-107148570D01*
X150346328Y-107148570D02*
X150346328Y-106862856D01*
X150346328Y-106862856D02*
X150274900Y-106719999D01*
X150274900Y-106719999D02*
X150203471Y-106648570D01*
X150203471Y-106648570D02*
X150060614Y-106577142D01*
X150060614Y-106577142D02*
X148846328Y-106577142D01*
X148846328Y-106077141D02*
X148846328Y-105219999D01*
X150346328Y-105648570D02*
X148846328Y-105648570D01*
D12*
X85020000Y-54000000D02*
X165020000Y-54000000D01*
X165020000Y-90000000D01*
X85020000Y-90000000D01*
X85020000Y-54000000D01*
X72020000Y-32000000D02*
X72020000Y-83000000D01*
X168020000Y-95000000D02*
X168020000Y-83000000D01*
X82020000Y-83000000D02*
X82020000Y-95000000D01*
X168020000Y-83000000D02*
X180020000Y-83000000D01*
X178020000Y-83000000D02*
X178020000Y-32000000D01*
X168020000Y-32000000D02*
X168020000Y-20000000D01*
X82020000Y-93000000D02*
X168020000Y-93000000D01*
X82020000Y-20000000D02*
X82020000Y-32000000D01*
X82020000Y-32000000D02*
X70020000Y-32000000D01*
X168020000Y-22000000D02*
X82020000Y-22000000D01*
X70020000Y-83000000D02*
X82020000Y-83000000D01*
X180020000Y-32000000D02*
X168020000Y-32000000D01*
D11*
X94198571Y-45856900D02*
X95341429Y-45856900D01*
X94770000Y-46428328D02*
X94770000Y-45285471D01*
X86341671Y-54678571D02*
X87841671Y-54678571D01*
X87841671Y-54678571D02*
X87841671Y-55250000D01*
X87841671Y-55250000D02*
X87770242Y-55392857D01*
X87770242Y-55392857D02*
X87698814Y-55464286D01*
X87698814Y-55464286D02*
X87555957Y-55535714D01*
X87555957Y-55535714D02*
X87341671Y-55535714D01*
X87341671Y-55535714D02*
X87198814Y-55464286D01*
X87198814Y-55464286D02*
X87127385Y-55392857D01*
X87127385Y-55392857D02*
X87055957Y-55250000D01*
X87055957Y-55250000D02*
X87055957Y-54678571D01*
X86341671Y-57035714D02*
X87055957Y-56535714D01*
X86341671Y-56178571D02*
X87841671Y-56178571D01*
X87841671Y-56178571D02*
X87841671Y-56750000D01*
X87841671Y-56750000D02*
X87770242Y-56892857D01*
X87770242Y-56892857D02*
X87698814Y-56964286D01*
X87698814Y-56964286D02*
X87555957Y-57035714D01*
X87555957Y-57035714D02*
X87341671Y-57035714D01*
X87341671Y-57035714D02*
X87198814Y-56964286D01*
X87198814Y-56964286D02*
X87127385Y-56892857D01*
X87127385Y-56892857D02*
X87055957Y-56750000D01*
X87055957Y-56750000D02*
X87055957Y-56178571D01*
X87841671Y-57964286D02*
X87841671Y-58250000D01*
X87841671Y-58250000D02*
X87770242Y-58392857D01*
X87770242Y-58392857D02*
X87627385Y-58535714D01*
X87627385Y-58535714D02*
X87341671Y-58607143D01*
X87341671Y-58607143D02*
X86841671Y-58607143D01*
X86841671Y-58607143D02*
X86555957Y-58535714D01*
X86555957Y-58535714D02*
X86413100Y-58392857D01*
X86413100Y-58392857D02*
X86341671Y-58250000D01*
X86341671Y-58250000D02*
X86341671Y-57964286D01*
X86341671Y-57964286D02*
X86413100Y-57821429D01*
X86413100Y-57821429D02*
X86555957Y-57678571D01*
X86555957Y-57678571D02*
X86841671Y-57607143D01*
X86841671Y-57607143D02*
X87341671Y-57607143D01*
X87341671Y-57607143D02*
X87627385Y-57678571D01*
X87627385Y-57678571D02*
X87770242Y-57821429D01*
X87770242Y-57821429D02*
X87841671Y-57964286D01*
X87770242Y-60035715D02*
X87841671Y-59892858D01*
X87841671Y-59892858D02*
X87841671Y-59678572D01*
X87841671Y-59678572D02*
X87770242Y-59464286D01*
X87770242Y-59464286D02*
X87627385Y-59321429D01*
X87627385Y-59321429D02*
X87484528Y-59250000D01*
X87484528Y-59250000D02*
X87198814Y-59178572D01*
X87198814Y-59178572D02*
X86984528Y-59178572D01*
X86984528Y-59178572D02*
X86698814Y-59250000D01*
X86698814Y-59250000D02*
X86555957Y-59321429D01*
X86555957Y-59321429D02*
X86413100Y-59464286D01*
X86413100Y-59464286D02*
X86341671Y-59678572D01*
X86341671Y-59678572D02*
X86341671Y-59821429D01*
X86341671Y-59821429D02*
X86413100Y-60035715D01*
X86413100Y-60035715D02*
X86484528Y-60107143D01*
X86484528Y-60107143D02*
X86984528Y-60107143D01*
X86984528Y-60107143D02*
X86984528Y-59821429D01*
X86341671Y-61607143D02*
X87055957Y-61107143D01*
X86341671Y-60750000D02*
X87841671Y-60750000D01*
X87841671Y-60750000D02*
X87841671Y-61321429D01*
X87841671Y-61321429D02*
X87770242Y-61464286D01*
X87770242Y-61464286D02*
X87698814Y-61535715D01*
X87698814Y-61535715D02*
X87555957Y-61607143D01*
X87555957Y-61607143D02*
X87341671Y-61607143D01*
X87341671Y-61607143D02*
X87198814Y-61535715D01*
X87198814Y-61535715D02*
X87127385Y-61464286D01*
X87127385Y-61464286D02*
X87055957Y-61321429D01*
X87055957Y-61321429D02*
X87055957Y-60750000D01*
X86770242Y-62178572D02*
X86770242Y-62892858D01*
X86341671Y-62035715D02*
X87841671Y-62535715D01*
X87841671Y-62535715D02*
X86341671Y-63035715D01*
X86341671Y-63535714D02*
X87841671Y-63535714D01*
X87841671Y-63535714D02*
X86770242Y-64035714D01*
X86770242Y-64035714D02*
X87841671Y-64535714D01*
X87841671Y-64535714D02*
X86341671Y-64535714D01*
X86341671Y-66392857D02*
X87841671Y-66392857D01*
X86413100Y-67035715D02*
X86341671Y-67250001D01*
X86341671Y-67250001D02*
X86341671Y-67607143D01*
X86341671Y-67607143D02*
X86413100Y-67750001D01*
X86413100Y-67750001D02*
X86484528Y-67821429D01*
X86484528Y-67821429D02*
X86627385Y-67892858D01*
X86627385Y-67892858D02*
X86770242Y-67892858D01*
X86770242Y-67892858D02*
X86913100Y-67821429D01*
X86913100Y-67821429D02*
X86984528Y-67750001D01*
X86984528Y-67750001D02*
X87055957Y-67607143D01*
X87055957Y-67607143D02*
X87127385Y-67321429D01*
X87127385Y-67321429D02*
X87198814Y-67178572D01*
X87198814Y-67178572D02*
X87270242Y-67107143D01*
X87270242Y-67107143D02*
X87413100Y-67035715D01*
X87413100Y-67035715D02*
X87555957Y-67035715D01*
X87555957Y-67035715D02*
X87698814Y-67107143D01*
X87698814Y-67107143D02*
X87770242Y-67178572D01*
X87770242Y-67178572D02*
X87841671Y-67321429D01*
X87841671Y-67321429D02*
X87841671Y-67678572D01*
X87841671Y-67678572D02*
X87770242Y-67892858D01*
X86341671Y-68535714D02*
X87841671Y-68535714D01*
X87841671Y-68535714D02*
X87841671Y-69107143D01*
X87841671Y-69107143D02*
X87770242Y-69250000D01*
X87770242Y-69250000D02*
X87698814Y-69321429D01*
X87698814Y-69321429D02*
X87555957Y-69392857D01*
X87555957Y-69392857D02*
X87341671Y-69392857D01*
X87341671Y-69392857D02*
X87198814Y-69321429D01*
X87198814Y-69321429D02*
X87127385Y-69250000D01*
X87127385Y-69250000D02*
X87055957Y-69107143D01*
X87055957Y-69107143D02*
X87055957Y-68535714D01*
X73377143Y-76178328D02*
X74234286Y-76178328D01*
X73805714Y-77678328D02*
X73805714Y-76178328D01*
X75591428Y-77678328D02*
X75091428Y-76964042D01*
X74734285Y-77678328D02*
X74734285Y-76178328D01*
X74734285Y-76178328D02*
X75305714Y-76178328D01*
X75305714Y-76178328D02*
X75448571Y-76249757D01*
X75448571Y-76249757D02*
X75520000Y-76321185D01*
X75520000Y-76321185D02*
X75591428Y-76464042D01*
X75591428Y-76464042D02*
X75591428Y-76678328D01*
X75591428Y-76678328D02*
X75520000Y-76821185D01*
X75520000Y-76821185D02*
X75448571Y-76892614D01*
X75448571Y-76892614D02*
X75305714Y-76964042D01*
X75305714Y-76964042D02*
X74734285Y-76964042D01*
X76234285Y-77678328D02*
X76234285Y-76178328D01*
X76948571Y-77678328D02*
X76948571Y-76178328D01*
X76948571Y-76178328D02*
X77448571Y-77249757D01*
X77448571Y-77249757D02*
X77948571Y-76178328D01*
X77948571Y-76178328D02*
X77948571Y-77678328D01*
X104198571Y-46106900D02*
X105341429Y-46106900D01*
X104770000Y-46678328D02*
X104770000Y-45535471D01*
X157377142Y-46428328D02*
X157377142Y-44928328D01*
X157377142Y-44928328D02*
X157948571Y-44928328D01*
X157948571Y-44928328D02*
X158091428Y-44999757D01*
X158091428Y-44999757D02*
X158162857Y-45071185D01*
X158162857Y-45071185D02*
X158234285Y-45214042D01*
X158234285Y-45214042D02*
X158234285Y-45428328D01*
X158234285Y-45428328D02*
X158162857Y-45571185D01*
X158162857Y-45571185D02*
X158091428Y-45642614D01*
X158091428Y-45642614D02*
X157948571Y-45714042D01*
X157948571Y-45714042D02*
X157377142Y-45714042D01*
X155734285Y-46428328D02*
X155019999Y-46428328D01*
X155019999Y-46428328D02*
X155019999Y-44928328D01*
X152198571Y-45856900D02*
X153341429Y-45856900D01*
X150234286Y-42178328D02*
X151091429Y-42178328D01*
X150662857Y-43678328D02*
X150662857Y-42178328D01*
X151591428Y-42892614D02*
X152091428Y-42892614D01*
X152305714Y-43678328D02*
X151591428Y-43678328D01*
X151591428Y-43678328D02*
X151591428Y-42178328D01*
X151591428Y-42178328D02*
X152305714Y-42178328D01*
X153805714Y-43678328D02*
X153305714Y-42964042D01*
X152948571Y-43678328D02*
X152948571Y-42178328D01*
X152948571Y-42178328D02*
X153520000Y-42178328D01*
X153520000Y-42178328D02*
X153662857Y-42249757D01*
X153662857Y-42249757D02*
X153734286Y-42321185D01*
X153734286Y-42321185D02*
X153805714Y-42464042D01*
X153805714Y-42464042D02*
X153805714Y-42678328D01*
X153805714Y-42678328D02*
X153734286Y-42821185D01*
X153734286Y-42821185D02*
X153662857Y-42892614D01*
X153662857Y-42892614D02*
X153520000Y-42964042D01*
X153520000Y-42964042D02*
X152948571Y-42964042D01*
X155305714Y-43535471D02*
X155234286Y-43606900D01*
X155234286Y-43606900D02*
X155020000Y-43678328D01*
X155020000Y-43678328D02*
X154877143Y-43678328D01*
X154877143Y-43678328D02*
X154662857Y-43606900D01*
X154662857Y-43606900D02*
X154520000Y-43464042D01*
X154520000Y-43464042D02*
X154448571Y-43321185D01*
X154448571Y-43321185D02*
X154377143Y-43035471D01*
X154377143Y-43035471D02*
X154377143Y-42821185D01*
X154377143Y-42821185D02*
X154448571Y-42535471D01*
X154448571Y-42535471D02*
X154520000Y-42392614D01*
X154520000Y-42392614D02*
X154662857Y-42249757D01*
X154662857Y-42249757D02*
X154877143Y-42178328D01*
X154877143Y-42178328D02*
X155020000Y-42178328D01*
X155020000Y-42178328D02*
X155234286Y-42249757D01*
X155234286Y-42249757D02*
X155305714Y-42321185D01*
X154662857Y-41606900D02*
X154948571Y-41821185D01*
X154948571Y-41821185D02*
X155234286Y-41606900D01*
X155948571Y-42892614D02*
X156448571Y-42892614D01*
X156662857Y-43678328D02*
X155948571Y-43678328D01*
X155948571Y-43678328D02*
X155948571Y-42178328D01*
X155948571Y-42178328D02*
X156662857Y-42178328D01*
X91127144Y-42178328D02*
X91627144Y-43678328D01*
X91627144Y-43678328D02*
X92127144Y-42178328D01*
X93484286Y-43535471D02*
X93412858Y-43606900D01*
X93412858Y-43606900D02*
X93198572Y-43678328D01*
X93198572Y-43678328D02*
X93055715Y-43678328D01*
X93055715Y-43678328D02*
X92841429Y-43606900D01*
X92841429Y-43606900D02*
X92698572Y-43464042D01*
X92698572Y-43464042D02*
X92627143Y-43321185D01*
X92627143Y-43321185D02*
X92555715Y-43035471D01*
X92555715Y-43035471D02*
X92555715Y-42821185D01*
X92555715Y-42821185D02*
X92627143Y-42535471D01*
X92627143Y-42535471D02*
X92698572Y-42392614D01*
X92698572Y-42392614D02*
X92841429Y-42249757D01*
X92841429Y-42249757D02*
X93055715Y-42178328D01*
X93055715Y-42178328D02*
X93198572Y-42178328D01*
X93198572Y-42178328D02*
X93412858Y-42249757D01*
X93412858Y-42249757D02*
X93484286Y-42321185D01*
X94984286Y-43535471D02*
X94912858Y-43606900D01*
X94912858Y-43606900D02*
X94698572Y-43678328D01*
X94698572Y-43678328D02*
X94555715Y-43678328D01*
X94555715Y-43678328D02*
X94341429Y-43606900D01*
X94341429Y-43606900D02*
X94198572Y-43464042D01*
X94198572Y-43464042D02*
X94127143Y-43321185D01*
X94127143Y-43321185D02*
X94055715Y-43035471D01*
X94055715Y-43035471D02*
X94055715Y-42821185D01*
X94055715Y-42821185D02*
X94127143Y-42535471D01*
X94127143Y-42535471D02*
X94198572Y-42392614D01*
X94198572Y-42392614D02*
X94341429Y-42249757D01*
X94341429Y-42249757D02*
X94555715Y-42178328D01*
X94555715Y-42178328D02*
X94698572Y-42178328D01*
X94698572Y-42178328D02*
X94912858Y-42249757D01*
X94912858Y-42249757D02*
X94984286Y-42321185D01*
X97555715Y-43678328D02*
X96698572Y-43678328D01*
X97127143Y-43678328D02*
X97127143Y-42178328D01*
X97127143Y-42178328D02*
X96984286Y-42392614D01*
X96984286Y-42392614D02*
X96841429Y-42535471D01*
X96841429Y-42535471D02*
X96698572Y-42606900D01*
X98127143Y-42321185D02*
X98198571Y-42249757D01*
X98198571Y-42249757D02*
X98341429Y-42178328D01*
X98341429Y-42178328D02*
X98698571Y-42178328D01*
X98698571Y-42178328D02*
X98841429Y-42249757D01*
X98841429Y-42249757D02*
X98912857Y-42321185D01*
X98912857Y-42321185D02*
X98984286Y-42464042D01*
X98984286Y-42464042D02*
X98984286Y-42606900D01*
X98984286Y-42606900D02*
X98912857Y-42821185D01*
X98912857Y-42821185D02*
X98055714Y-43678328D01*
X98055714Y-43678328D02*
X98984286Y-43678328D01*
X99412857Y-42178328D02*
X99912857Y-43678328D01*
X99912857Y-43678328D02*
X100412857Y-42178328D01*
X125698571Y-45856900D02*
X126841429Y-45856900D01*
X107948328Y-46821428D02*
X106448328Y-46821428D01*
X106448328Y-46821428D02*
X106448328Y-46464285D01*
X106448328Y-46464285D02*
X106519757Y-46249999D01*
X106519757Y-46249999D02*
X106662614Y-46107142D01*
X106662614Y-46107142D02*
X106805471Y-46035713D01*
X106805471Y-46035713D02*
X107091185Y-45964285D01*
X107091185Y-45964285D02*
X107305471Y-45964285D01*
X107305471Y-45964285D02*
X107591185Y-46035713D01*
X107591185Y-46035713D02*
X107734042Y-46107142D01*
X107734042Y-46107142D02*
X107876900Y-46249999D01*
X107876900Y-46249999D02*
X107948328Y-46464285D01*
X107948328Y-46464285D02*
X107948328Y-46821428D01*
X107376900Y-45321428D02*
X107376900Y-44178571D01*
X107948328Y-44749999D02*
X106805471Y-44749999D01*
X149698571Y-45856900D02*
X150841429Y-45856900D01*
X150270000Y-46428328D02*
X150270000Y-45285471D01*
X96698571Y-45856900D02*
X97841429Y-45856900D01*
D13*
X173509347Y-81484438D02*
X173509347Y-79484438D01*
X173509347Y-79484438D02*
X174176014Y-80913009D01*
X174176014Y-80913009D02*
X174842680Y-79484438D01*
X174842680Y-79484438D02*
X174842680Y-81484438D01*
X176652204Y-80151104D02*
X176652204Y-81484438D01*
X176176013Y-79389200D02*
X175699823Y-80817771D01*
X175699823Y-80817771D02*
X176937918Y-80817771D01*
D11*
X76448571Y-79356900D02*
X77591429Y-79356900D01*
X116591428Y-82928328D02*
X116591428Y-81428328D01*
X116591428Y-81428328D02*
X117162857Y-81428328D01*
X117162857Y-81428328D02*
X117305714Y-81499757D01*
X117305714Y-81499757D02*
X117377143Y-81571185D01*
X117377143Y-81571185D02*
X117448571Y-81714042D01*
X117448571Y-81714042D02*
X117448571Y-81928328D01*
X117448571Y-81928328D02*
X117377143Y-82071185D01*
X117377143Y-82071185D02*
X117305714Y-82142614D01*
X117305714Y-82142614D02*
X117162857Y-82214042D01*
X117162857Y-82214042D02*
X116591428Y-82214042D01*
X118948571Y-82928328D02*
X118448571Y-82214042D01*
X118091428Y-82928328D02*
X118091428Y-81428328D01*
X118091428Y-81428328D02*
X118662857Y-81428328D01*
X118662857Y-81428328D02*
X118805714Y-81499757D01*
X118805714Y-81499757D02*
X118877143Y-81571185D01*
X118877143Y-81571185D02*
X118948571Y-81714042D01*
X118948571Y-81714042D02*
X118948571Y-81928328D01*
X118948571Y-81928328D02*
X118877143Y-82071185D01*
X118877143Y-82071185D02*
X118805714Y-82142614D01*
X118805714Y-82142614D02*
X118662857Y-82214042D01*
X118662857Y-82214042D02*
X118091428Y-82214042D01*
X119877143Y-81428328D02*
X120162857Y-81428328D01*
X120162857Y-81428328D02*
X120305714Y-81499757D01*
X120305714Y-81499757D02*
X120448571Y-81642614D01*
X120448571Y-81642614D02*
X120520000Y-81928328D01*
X120520000Y-81928328D02*
X120520000Y-82428328D01*
X120520000Y-82428328D02*
X120448571Y-82714042D01*
X120448571Y-82714042D02*
X120305714Y-82856900D01*
X120305714Y-82856900D02*
X120162857Y-82928328D01*
X120162857Y-82928328D02*
X119877143Y-82928328D01*
X119877143Y-82928328D02*
X119734286Y-82856900D01*
X119734286Y-82856900D02*
X119591428Y-82714042D01*
X119591428Y-82714042D02*
X119520000Y-82428328D01*
X119520000Y-82428328D02*
X119520000Y-81928328D01*
X119520000Y-81928328D02*
X119591428Y-81642614D01*
X119591428Y-81642614D02*
X119734286Y-81499757D01*
X119734286Y-81499757D02*
X119877143Y-81428328D01*
X121948572Y-81499757D02*
X121805715Y-81428328D01*
X121805715Y-81428328D02*
X121591429Y-81428328D01*
X121591429Y-81428328D02*
X121377143Y-81499757D01*
X121377143Y-81499757D02*
X121234286Y-81642614D01*
X121234286Y-81642614D02*
X121162857Y-81785471D01*
X121162857Y-81785471D02*
X121091429Y-82071185D01*
X121091429Y-82071185D02*
X121091429Y-82285471D01*
X121091429Y-82285471D02*
X121162857Y-82571185D01*
X121162857Y-82571185D02*
X121234286Y-82714042D01*
X121234286Y-82714042D02*
X121377143Y-82856900D01*
X121377143Y-82856900D02*
X121591429Y-82928328D01*
X121591429Y-82928328D02*
X121734286Y-82928328D01*
X121734286Y-82928328D02*
X121948572Y-82856900D01*
X121948572Y-82856900D02*
X122020000Y-82785471D01*
X122020000Y-82785471D02*
X122020000Y-82285471D01*
X122020000Y-82285471D02*
X121734286Y-82285471D01*
X123520000Y-82928328D02*
X123020000Y-82214042D01*
X122662857Y-82928328D02*
X122662857Y-81428328D01*
X122662857Y-81428328D02*
X123234286Y-81428328D01*
X123234286Y-81428328D02*
X123377143Y-81499757D01*
X123377143Y-81499757D02*
X123448572Y-81571185D01*
X123448572Y-81571185D02*
X123520000Y-81714042D01*
X123520000Y-81714042D02*
X123520000Y-81928328D01*
X123520000Y-81928328D02*
X123448572Y-82071185D01*
X123448572Y-82071185D02*
X123377143Y-82142614D01*
X123377143Y-82142614D02*
X123234286Y-82214042D01*
X123234286Y-82214042D02*
X122662857Y-82214042D01*
X124091429Y-82499757D02*
X124805715Y-82499757D01*
X123948572Y-82928328D02*
X124448572Y-81428328D01*
X124448572Y-81428328D02*
X124948572Y-82928328D01*
X125448571Y-82928328D02*
X125448571Y-81428328D01*
X125448571Y-81428328D02*
X125948571Y-82499757D01*
X125948571Y-82499757D02*
X126448571Y-81428328D01*
X126448571Y-81428328D02*
X126448571Y-82928328D01*
X111698571Y-46106900D02*
X112841429Y-46106900D01*
X110448328Y-46821428D02*
X108948328Y-46821428D01*
X108948328Y-46821428D02*
X108948328Y-46464285D01*
X108948328Y-46464285D02*
X109019757Y-46249999D01*
X109019757Y-46249999D02*
X109162614Y-46107142D01*
X109162614Y-46107142D02*
X109305471Y-46035713D01*
X109305471Y-46035713D02*
X109591185Y-45964285D01*
X109591185Y-45964285D02*
X109805471Y-45964285D01*
X109805471Y-45964285D02*
X110091185Y-46035713D01*
X110091185Y-46035713D02*
X110234042Y-46107142D01*
X110234042Y-46107142D02*
X110376900Y-46249999D01*
X110376900Y-46249999D02*
X110448328Y-46464285D01*
X110448328Y-46464285D02*
X110448328Y-46821428D01*
X109876900Y-45321428D02*
X109876900Y-44178571D01*
X124341428Y-46571185D02*
X124198571Y-46499757D01*
X124198571Y-46499757D02*
X124055714Y-46356900D01*
X124055714Y-46356900D02*
X123841428Y-46142614D01*
X123841428Y-46142614D02*
X123698571Y-46071185D01*
X123698571Y-46071185D02*
X123555714Y-46071185D01*
X123627143Y-46428328D02*
X123484286Y-46356900D01*
X123484286Y-46356900D02*
X123341428Y-46214042D01*
X123341428Y-46214042D02*
X123270000Y-45928328D01*
X123270000Y-45928328D02*
X123270000Y-45428328D01*
X123270000Y-45428328D02*
X123341428Y-45142614D01*
X123341428Y-45142614D02*
X123484286Y-44999757D01*
X123484286Y-44999757D02*
X123627143Y-44928328D01*
X123627143Y-44928328D02*
X123912857Y-44928328D01*
X123912857Y-44928328D02*
X124055714Y-44999757D01*
X124055714Y-44999757D02*
X124198571Y-45142614D01*
X124198571Y-45142614D02*
X124270000Y-45428328D01*
X124270000Y-45428328D02*
X124270000Y-45928328D01*
X124270000Y-45928328D02*
X124198571Y-46214042D01*
X124198571Y-46214042D02*
X124055714Y-46356900D01*
X124055714Y-46356900D02*
X123912857Y-46428328D01*
X123912857Y-46428328D02*
X123627143Y-46428328D01*
X117734285Y-56970870D02*
X117734285Y-55470870D01*
X117734285Y-55470870D02*
X118234285Y-56542299D01*
X118234285Y-56542299D02*
X118734285Y-55470870D01*
X118734285Y-55470870D02*
X118734285Y-56970870D01*
X120305714Y-56828013D02*
X120234286Y-56899442D01*
X120234286Y-56899442D02*
X120020000Y-56970870D01*
X120020000Y-56970870D02*
X119877143Y-56970870D01*
X119877143Y-56970870D02*
X119662857Y-56899442D01*
X119662857Y-56899442D02*
X119520000Y-56756584D01*
X119520000Y-56756584D02*
X119448571Y-56613727D01*
X119448571Y-56613727D02*
X119377143Y-56328013D01*
X119377143Y-56328013D02*
X119377143Y-56113727D01*
X119377143Y-56113727D02*
X119448571Y-55828013D01*
X119448571Y-55828013D02*
X119520000Y-55685156D01*
X119520000Y-55685156D02*
X119662857Y-55542299D01*
X119662857Y-55542299D02*
X119877143Y-55470870D01*
X119877143Y-55470870D02*
X120020000Y-55470870D01*
X120020000Y-55470870D02*
X120234286Y-55542299D01*
X120234286Y-55542299D02*
X120305714Y-55613727D01*
X120948571Y-55470870D02*
X120948571Y-56685156D01*
X120948571Y-56685156D02*
X121020000Y-56828013D01*
X121020000Y-56828013D02*
X121091429Y-56899442D01*
X121091429Y-56899442D02*
X121234286Y-56970870D01*
X121234286Y-56970870D02*
X121520000Y-56970870D01*
X121520000Y-56970870D02*
X121662857Y-56899442D01*
X121662857Y-56899442D02*
X121734286Y-56828013D01*
X121734286Y-56828013D02*
X121805714Y-56685156D01*
X121805714Y-56685156D02*
X121805714Y-55470870D01*
X117591428Y-59385786D02*
X117091428Y-58671500D01*
X116734285Y-59385786D02*
X116734285Y-57885786D01*
X116734285Y-57885786D02*
X117305714Y-57885786D01*
X117305714Y-57885786D02*
X117448571Y-57957215D01*
X117448571Y-57957215D02*
X117520000Y-58028643D01*
X117520000Y-58028643D02*
X117591428Y-58171500D01*
X117591428Y-58171500D02*
X117591428Y-58385786D01*
X117591428Y-58385786D02*
X117520000Y-58528643D01*
X117520000Y-58528643D02*
X117448571Y-58600072D01*
X117448571Y-58600072D02*
X117305714Y-58671500D01*
X117305714Y-58671500D02*
X116734285Y-58671500D01*
X118234285Y-58600072D02*
X118734285Y-58600072D01*
X118948571Y-59385786D02*
X118234285Y-59385786D01*
X118234285Y-59385786D02*
X118234285Y-57885786D01*
X118234285Y-57885786D02*
X118948571Y-57885786D01*
X119520000Y-59314358D02*
X119734286Y-59385786D01*
X119734286Y-59385786D02*
X120091428Y-59385786D01*
X120091428Y-59385786D02*
X120234286Y-59314358D01*
X120234286Y-59314358D02*
X120305714Y-59242929D01*
X120305714Y-59242929D02*
X120377143Y-59100072D01*
X120377143Y-59100072D02*
X120377143Y-58957215D01*
X120377143Y-58957215D02*
X120305714Y-58814358D01*
X120305714Y-58814358D02*
X120234286Y-58742929D01*
X120234286Y-58742929D02*
X120091428Y-58671500D01*
X120091428Y-58671500D02*
X119805714Y-58600072D01*
X119805714Y-58600072D02*
X119662857Y-58528643D01*
X119662857Y-58528643D02*
X119591428Y-58457215D01*
X119591428Y-58457215D02*
X119520000Y-58314358D01*
X119520000Y-58314358D02*
X119520000Y-58171500D01*
X119520000Y-58171500D02*
X119591428Y-58028643D01*
X119591428Y-58028643D02*
X119662857Y-57957215D01*
X119662857Y-57957215D02*
X119805714Y-57885786D01*
X119805714Y-57885786D02*
X120162857Y-57885786D01*
X120162857Y-57885786D02*
X120377143Y-57957215D01*
X121019999Y-58600072D02*
X121519999Y-58600072D01*
X121734285Y-59385786D02*
X121019999Y-59385786D01*
X121019999Y-59385786D02*
X121019999Y-57885786D01*
X121019999Y-57885786D02*
X121734285Y-57885786D01*
X122162857Y-57885786D02*
X123020000Y-57885786D01*
X122591428Y-59385786D02*
X122591428Y-57885786D01*
X73841428Y-74356900D02*
X74984286Y-74356900D01*
X74412857Y-74928328D02*
X74412857Y-73785471D01*
X76412857Y-73428328D02*
X75698571Y-73428328D01*
X75698571Y-73428328D02*
X75627143Y-74142614D01*
X75627143Y-74142614D02*
X75698571Y-74071185D01*
X75698571Y-74071185D02*
X75841429Y-73999757D01*
X75841429Y-73999757D02*
X76198571Y-73999757D01*
X76198571Y-73999757D02*
X76341429Y-74071185D01*
X76341429Y-74071185D02*
X76412857Y-74142614D01*
X76412857Y-74142614D02*
X76484286Y-74285471D01*
X76484286Y-74285471D02*
X76484286Y-74642614D01*
X76484286Y-74642614D02*
X76412857Y-74785471D01*
X76412857Y-74785471D02*
X76341429Y-74856900D01*
X76341429Y-74856900D02*
X76198571Y-74928328D01*
X76198571Y-74928328D02*
X75841429Y-74928328D01*
X75841429Y-74928328D02*
X75698571Y-74856900D01*
X75698571Y-74856900D02*
X75627143Y-74785471D01*
X76912857Y-73428328D02*
X77412857Y-74928328D01*
X77412857Y-74928328D02*
X77912857Y-73428328D01*
X122055715Y-43606900D02*
X122270001Y-43678328D01*
X122270001Y-43678328D02*
X122627143Y-43678328D01*
X122627143Y-43678328D02*
X122770001Y-43606900D01*
X122770001Y-43606900D02*
X122841429Y-43535471D01*
X122841429Y-43535471D02*
X122912858Y-43392614D01*
X122912858Y-43392614D02*
X122912858Y-43249757D01*
X122912858Y-43249757D02*
X122841429Y-43106900D01*
X122841429Y-43106900D02*
X122770001Y-43035471D01*
X122770001Y-43035471D02*
X122627143Y-42964042D01*
X122627143Y-42964042D02*
X122341429Y-42892614D01*
X122341429Y-42892614D02*
X122198572Y-42821185D01*
X122198572Y-42821185D02*
X122127143Y-42749757D01*
X122127143Y-42749757D02*
X122055715Y-42606900D01*
X122055715Y-42606900D02*
X122055715Y-42464042D01*
X122055715Y-42464042D02*
X122127143Y-42321185D01*
X122127143Y-42321185D02*
X122198572Y-42249757D01*
X122198572Y-42249757D02*
X122341429Y-42178328D01*
X122341429Y-42178328D02*
X122698572Y-42178328D01*
X122698572Y-42178328D02*
X122912858Y-42249757D01*
X123341429Y-42178328D02*
X124198572Y-42178328D01*
X123770000Y-43678328D02*
X123770000Y-42178328D01*
X124627143Y-43249757D02*
X125341429Y-43249757D01*
X124484286Y-43678328D02*
X124984286Y-42178328D01*
X124984286Y-42178328D02*
X125484286Y-43678328D01*
X126841428Y-43678328D02*
X126341428Y-42964042D01*
X125984285Y-43678328D02*
X125984285Y-42178328D01*
X125984285Y-42178328D02*
X126555714Y-42178328D01*
X126555714Y-42178328D02*
X126698571Y-42249757D01*
X126698571Y-42249757D02*
X126770000Y-42321185D01*
X126770000Y-42321185D02*
X126841428Y-42464042D01*
X126841428Y-42464042D02*
X126841428Y-42678328D01*
X126841428Y-42678328D02*
X126770000Y-42821185D01*
X126770000Y-42821185D02*
X126698571Y-42892614D01*
X126698571Y-42892614D02*
X126555714Y-42964042D01*
X126555714Y-42964042D02*
X125984285Y-42964042D01*
X127270000Y-42178328D02*
X128127143Y-42178328D01*
X127698571Y-43678328D02*
X127698571Y-42178328D01*
X106627142Y-41678328D02*
X106627142Y-42892614D01*
X106627142Y-42892614D02*
X106698571Y-43035471D01*
X106698571Y-43035471D02*
X106770000Y-43106900D01*
X106770000Y-43106900D02*
X106912857Y-43178328D01*
X106912857Y-43178328D02*
X107198571Y-43178328D01*
X107198571Y-43178328D02*
X107341428Y-43106900D01*
X107341428Y-43106900D02*
X107412857Y-43035471D01*
X107412857Y-43035471D02*
X107484285Y-42892614D01*
X107484285Y-42892614D02*
X107484285Y-41678328D01*
X108127143Y-43106900D02*
X108341429Y-43178328D01*
X108341429Y-43178328D02*
X108698571Y-43178328D01*
X108698571Y-43178328D02*
X108841429Y-43106900D01*
X108841429Y-43106900D02*
X108912857Y-43035471D01*
X108912857Y-43035471D02*
X108984286Y-42892614D01*
X108984286Y-42892614D02*
X108984286Y-42749757D01*
X108984286Y-42749757D02*
X108912857Y-42606900D01*
X108912857Y-42606900D02*
X108841429Y-42535471D01*
X108841429Y-42535471D02*
X108698571Y-42464042D01*
X108698571Y-42464042D02*
X108412857Y-42392614D01*
X108412857Y-42392614D02*
X108270000Y-42321185D01*
X108270000Y-42321185D02*
X108198571Y-42249757D01*
X108198571Y-42249757D02*
X108127143Y-42106900D01*
X108127143Y-42106900D02*
X108127143Y-41964042D01*
X108127143Y-41964042D02*
X108198571Y-41821185D01*
X108198571Y-41821185D02*
X108270000Y-41749757D01*
X108270000Y-41749757D02*
X108412857Y-41678328D01*
X108412857Y-41678328D02*
X108770000Y-41678328D01*
X108770000Y-41678328D02*
X108984286Y-41749757D01*
X110127142Y-42392614D02*
X110341428Y-42464042D01*
X110341428Y-42464042D02*
X110412857Y-42535471D01*
X110412857Y-42535471D02*
X110484285Y-42678328D01*
X110484285Y-42678328D02*
X110484285Y-42892614D01*
X110484285Y-42892614D02*
X110412857Y-43035471D01*
X110412857Y-43035471D02*
X110341428Y-43106900D01*
X110341428Y-43106900D02*
X110198571Y-43178328D01*
X110198571Y-43178328D02*
X109627142Y-43178328D01*
X109627142Y-43178328D02*
X109627142Y-41678328D01*
X109627142Y-41678328D02*
X110127142Y-41678328D01*
X110127142Y-41678328D02*
X110270000Y-41749757D01*
X110270000Y-41749757D02*
X110341428Y-41821185D01*
X110341428Y-41821185D02*
X110412857Y-41964042D01*
X110412857Y-41964042D02*
X110412857Y-42106900D01*
X110412857Y-42106900D02*
X110341428Y-42249757D01*
X110341428Y-42249757D02*
X110270000Y-42321185D01*
X110270000Y-42321185D02*
X110127142Y-42392614D01*
X110127142Y-42392614D02*
X109627142Y-42392614D01*
D10*
X99327219Y-122630326D02*
X98327219Y-122630326D01*
X98803409Y-122630326D02*
X98803409Y-122058898D01*
X99327219Y-122058898D02*
X98327219Y-122058898D01*
X99041504Y-121630326D02*
X99041504Y-121154136D01*
X99327219Y-121725564D02*
X98327219Y-121392231D01*
X98327219Y-121392231D02*
X99327219Y-121058898D01*
X99327219Y-120249374D02*
X99327219Y-120725564D01*
X99327219Y-120725564D02*
X98327219Y-120725564D01*
D12*
X71388152Y-132110286D02*
X72197676Y-132110286D01*
X72197676Y-132110286D02*
X72292914Y-132157905D01*
X72292914Y-132157905D02*
X72340533Y-132205524D01*
X72340533Y-132205524D02*
X72388152Y-132300762D01*
X72388152Y-132300762D02*
X72388152Y-132443619D01*
X72388152Y-132443619D02*
X72340533Y-132538857D01*
X72007200Y-132110286D02*
X72054819Y-132205524D01*
X72054819Y-132205524D02*
X72054819Y-132396000D01*
X72054819Y-132396000D02*
X72007200Y-132491238D01*
X72007200Y-132491238D02*
X71959580Y-132538857D01*
X71959580Y-132538857D02*
X71864342Y-132586476D01*
X71864342Y-132586476D02*
X71578628Y-132586476D01*
X71578628Y-132586476D02*
X71483390Y-132538857D01*
X71483390Y-132538857D02*
X71435771Y-132491238D01*
X71435771Y-132491238D02*
X71388152Y-132396000D01*
X71388152Y-132396000D02*
X71388152Y-132205524D01*
X71388152Y-132205524D02*
X71435771Y-132110286D01*
X72054819Y-131634095D02*
X71388152Y-131634095D01*
X71054819Y-131634095D02*
X71102438Y-131681714D01*
X71102438Y-131681714D02*
X71150057Y-131634095D01*
X71150057Y-131634095D02*
X71102438Y-131586476D01*
X71102438Y-131586476D02*
X71054819Y-131634095D01*
X71054819Y-131634095D02*
X71150057Y-131634095D01*
X71388152Y-131300762D02*
X71388152Y-130919810D01*
X71054819Y-131157905D02*
X71911961Y-131157905D01*
X71911961Y-131157905D02*
X72007200Y-131110286D01*
X72007200Y-131110286D02*
X72054819Y-131015048D01*
X72054819Y-131015048D02*
X72054819Y-130919810D01*
X72054819Y-130586476D02*
X71054819Y-130586476D01*
X72054819Y-130157905D02*
X71531009Y-130157905D01*
X71531009Y-130157905D02*
X71435771Y-130205524D01*
X71435771Y-130205524D02*
X71388152Y-130300762D01*
X71388152Y-130300762D02*
X71388152Y-130443619D01*
X71388152Y-130443619D02*
X71435771Y-130538857D01*
X71435771Y-130538857D02*
X71483390Y-130586476D01*
X71388152Y-129253143D02*
X72054819Y-129253143D01*
X71388152Y-129681714D02*
X71911961Y-129681714D01*
X71911961Y-129681714D02*
X72007200Y-129634095D01*
X72007200Y-129634095D02*
X72054819Y-129538857D01*
X72054819Y-129538857D02*
X72054819Y-129396000D01*
X72054819Y-129396000D02*
X72007200Y-129300762D01*
X72007200Y-129300762D02*
X71959580Y-129253143D01*
X72054819Y-128776952D02*
X71054819Y-128776952D01*
X71435771Y-128776952D02*
X71388152Y-128681714D01*
X71388152Y-128681714D02*
X71388152Y-128491238D01*
X71388152Y-128491238D02*
X71435771Y-128396000D01*
X71435771Y-128396000D02*
X71483390Y-128348381D01*
X71483390Y-128348381D02*
X71578628Y-128300762D01*
X71578628Y-128300762D02*
X71864342Y-128300762D01*
X71864342Y-128300762D02*
X71959580Y-128348381D01*
X71959580Y-128348381D02*
X72007200Y-128396000D01*
X72007200Y-128396000D02*
X72054819Y-128491238D01*
X72054819Y-128491238D02*
X72054819Y-128681714D01*
X72054819Y-128681714D02*
X72007200Y-128776952D01*
X71959580Y-127872190D02*
X72007200Y-127824571D01*
X72007200Y-127824571D02*
X72054819Y-127872190D01*
X72054819Y-127872190D02*
X72007200Y-127919809D01*
X72007200Y-127919809D02*
X71959580Y-127872190D01*
X71959580Y-127872190D02*
X72054819Y-127872190D01*
X72007200Y-126967429D02*
X72054819Y-127062667D01*
X72054819Y-127062667D02*
X72054819Y-127253143D01*
X72054819Y-127253143D02*
X72007200Y-127348381D01*
X72007200Y-127348381D02*
X71959580Y-127396000D01*
X71959580Y-127396000D02*
X71864342Y-127443619D01*
X71864342Y-127443619D02*
X71578628Y-127443619D01*
X71578628Y-127443619D02*
X71483390Y-127396000D01*
X71483390Y-127396000D02*
X71435771Y-127348381D01*
X71435771Y-127348381D02*
X71388152Y-127253143D01*
X71388152Y-127253143D02*
X71388152Y-127062667D01*
X71388152Y-127062667D02*
X71435771Y-126967429D01*
X72054819Y-126396000D02*
X72007200Y-126491238D01*
X72007200Y-126491238D02*
X71959580Y-126538857D01*
X71959580Y-126538857D02*
X71864342Y-126586476D01*
X71864342Y-126586476D02*
X71578628Y-126586476D01*
X71578628Y-126586476D02*
X71483390Y-126538857D01*
X71483390Y-126538857D02*
X71435771Y-126491238D01*
X71435771Y-126491238D02*
X71388152Y-126396000D01*
X71388152Y-126396000D02*
X71388152Y-126253143D01*
X71388152Y-126253143D02*
X71435771Y-126157905D01*
X71435771Y-126157905D02*
X71483390Y-126110286D01*
X71483390Y-126110286D02*
X71578628Y-126062667D01*
X71578628Y-126062667D02*
X71864342Y-126062667D01*
X71864342Y-126062667D02*
X71959580Y-126110286D01*
X71959580Y-126110286D02*
X72007200Y-126157905D01*
X72007200Y-126157905D02*
X72054819Y-126253143D01*
X72054819Y-126253143D02*
X72054819Y-126396000D01*
X72054819Y-125634095D02*
X71388152Y-125634095D01*
X71483390Y-125634095D02*
X71435771Y-125586476D01*
X71435771Y-125586476D02*
X71388152Y-125491238D01*
X71388152Y-125491238D02*
X71388152Y-125348381D01*
X71388152Y-125348381D02*
X71435771Y-125253143D01*
X71435771Y-125253143D02*
X71531009Y-125205524D01*
X71531009Y-125205524D02*
X72054819Y-125205524D01*
X71531009Y-125205524D02*
X71435771Y-125157905D01*
X71435771Y-125157905D02*
X71388152Y-125062667D01*
X71388152Y-125062667D02*
X71388152Y-124919810D01*
X71388152Y-124919810D02*
X71435771Y-124824571D01*
X71435771Y-124824571D02*
X71531009Y-124776952D01*
X71531009Y-124776952D02*
X72054819Y-124776952D01*
X71007200Y-123586477D02*
X72292914Y-124443619D01*
X71054819Y-123396000D02*
X71054819Y-122824572D01*
X72054819Y-123110286D02*
X71054819Y-123110286D01*
X72007200Y-122110286D02*
X72054819Y-122205524D01*
X72054819Y-122205524D02*
X72054819Y-122396000D01*
X72054819Y-122396000D02*
X72007200Y-122491238D01*
X72007200Y-122491238D02*
X71911961Y-122538857D01*
X71911961Y-122538857D02*
X71531009Y-122538857D01*
X71531009Y-122538857D02*
X71435771Y-122491238D01*
X71435771Y-122491238D02*
X71388152Y-122396000D01*
X71388152Y-122396000D02*
X71388152Y-122205524D01*
X71388152Y-122205524D02*
X71435771Y-122110286D01*
X71435771Y-122110286D02*
X71531009Y-122062667D01*
X71531009Y-122062667D02*
X71626247Y-122062667D01*
X71626247Y-122062667D02*
X71721485Y-122538857D01*
X72054819Y-121491238D02*
X72007200Y-121586476D01*
X72007200Y-121586476D02*
X71911961Y-121634095D01*
X71911961Y-121634095D02*
X71054819Y-121634095D01*
X72007200Y-120729333D02*
X72054819Y-120824571D01*
X72054819Y-120824571D02*
X72054819Y-121015047D01*
X72054819Y-121015047D02*
X72007200Y-121110285D01*
X72007200Y-121110285D02*
X71911961Y-121157904D01*
X71911961Y-121157904D02*
X71531009Y-121157904D01*
X71531009Y-121157904D02*
X71435771Y-121110285D01*
X71435771Y-121110285D02*
X71388152Y-121015047D01*
X71388152Y-121015047D02*
X71388152Y-120824571D01*
X71388152Y-120824571D02*
X71435771Y-120729333D01*
X71435771Y-120729333D02*
X71531009Y-120681714D01*
X71531009Y-120681714D02*
X71626247Y-120681714D01*
X71626247Y-120681714D02*
X71721485Y-121157904D01*
X72054819Y-120253142D02*
X71054819Y-120253142D01*
X71673866Y-120157904D02*
X72054819Y-119872190D01*
X71388152Y-119872190D02*
X71769104Y-120253142D01*
X72054819Y-119300761D02*
X72007200Y-119395999D01*
X72007200Y-119395999D02*
X71959580Y-119443618D01*
X71959580Y-119443618D02*
X71864342Y-119491237D01*
X71864342Y-119491237D02*
X71578628Y-119491237D01*
X71578628Y-119491237D02*
X71483390Y-119443618D01*
X71483390Y-119443618D02*
X71435771Y-119395999D01*
X71435771Y-119395999D02*
X71388152Y-119300761D01*
X71388152Y-119300761D02*
X71388152Y-119157904D01*
X71388152Y-119157904D02*
X71435771Y-119062666D01*
X71435771Y-119062666D02*
X71483390Y-119015047D01*
X71483390Y-119015047D02*
X71578628Y-118967428D01*
X71578628Y-118967428D02*
X71864342Y-118967428D01*
X71864342Y-118967428D02*
X71959580Y-119015047D01*
X71959580Y-119015047D02*
X72007200Y-119062666D01*
X72007200Y-119062666D02*
X72054819Y-119157904D01*
X72054819Y-119157904D02*
X72054819Y-119300761D01*
X72054819Y-118538856D02*
X71388152Y-118538856D01*
X71483390Y-118538856D02*
X71435771Y-118491237D01*
X71435771Y-118491237D02*
X71388152Y-118395999D01*
X71388152Y-118395999D02*
X71388152Y-118253142D01*
X71388152Y-118253142D02*
X71435771Y-118157904D01*
X71435771Y-118157904D02*
X71531009Y-118110285D01*
X71531009Y-118110285D02*
X72054819Y-118110285D01*
X71531009Y-118110285D02*
X71435771Y-118062666D01*
X71435771Y-118062666D02*
X71388152Y-117967428D01*
X71388152Y-117967428D02*
X71388152Y-117824571D01*
X71388152Y-117824571D02*
X71435771Y-117729332D01*
X71435771Y-117729332D02*
X71531009Y-117681713D01*
X71531009Y-117681713D02*
X72054819Y-117681713D01*
X72054819Y-116776952D02*
X71531009Y-116776952D01*
X71531009Y-116776952D02*
X71435771Y-116824571D01*
X71435771Y-116824571D02*
X71388152Y-116919809D01*
X71388152Y-116919809D02*
X71388152Y-117110285D01*
X71388152Y-117110285D02*
X71435771Y-117205523D01*
X72007200Y-116776952D02*
X72054819Y-116872190D01*
X72054819Y-116872190D02*
X72054819Y-117110285D01*
X72054819Y-117110285D02*
X72007200Y-117205523D01*
X72007200Y-117205523D02*
X71911961Y-117253142D01*
X71911961Y-117253142D02*
X71816723Y-117253142D01*
X71816723Y-117253142D02*
X71721485Y-117205523D01*
X71721485Y-117205523D02*
X71673866Y-117110285D01*
X71673866Y-117110285D02*
X71673866Y-116872190D01*
X71673866Y-116872190D02*
X71626247Y-116776952D01*
X72054819Y-116300761D02*
X71054819Y-116300761D01*
X71673866Y-116205523D02*
X72054819Y-115919809D01*
X71388152Y-115919809D02*
X71769104Y-116300761D01*
X71007200Y-114776952D02*
X72292914Y-115634094D01*
X71531009Y-114110285D02*
X71531009Y-114443618D01*
X72054819Y-114443618D02*
X71054819Y-114443618D01*
X71054819Y-114443618D02*
X71054819Y-113967428D01*
X72054819Y-113586475D02*
X71388152Y-113586475D01*
X71054819Y-113586475D02*
X71102438Y-113634094D01*
X71102438Y-113634094D02*
X71150057Y-113586475D01*
X71150057Y-113586475D02*
X71102438Y-113538856D01*
X71102438Y-113538856D02*
X71054819Y-113586475D01*
X71054819Y-113586475D02*
X71150057Y-113586475D01*
X72054819Y-113110285D02*
X71388152Y-113110285D01*
X71578628Y-113110285D02*
X71483390Y-113062666D01*
X71483390Y-113062666D02*
X71435771Y-113015047D01*
X71435771Y-113015047D02*
X71388152Y-112919809D01*
X71388152Y-112919809D02*
X71388152Y-112824571D01*
X72007200Y-112110285D02*
X72054819Y-112205523D01*
X72054819Y-112205523D02*
X72054819Y-112395999D01*
X72054819Y-112395999D02*
X72007200Y-112491237D01*
X72007200Y-112491237D02*
X71911961Y-112538856D01*
X71911961Y-112538856D02*
X71531009Y-112538856D01*
X71531009Y-112538856D02*
X71435771Y-112491237D01*
X71435771Y-112491237D02*
X71388152Y-112395999D01*
X71388152Y-112395999D02*
X71388152Y-112205523D01*
X71388152Y-112205523D02*
X71435771Y-112110285D01*
X71435771Y-112110285D02*
X71531009Y-112062666D01*
X71531009Y-112062666D02*
X71626247Y-112062666D01*
X71626247Y-112062666D02*
X71721485Y-112538856D01*
X72007200Y-111681713D02*
X72054819Y-111586475D01*
X72054819Y-111586475D02*
X72054819Y-111395999D01*
X72054819Y-111395999D02*
X72007200Y-111300761D01*
X72007200Y-111300761D02*
X71911961Y-111253142D01*
X71911961Y-111253142D02*
X71864342Y-111253142D01*
X71864342Y-111253142D02*
X71769104Y-111300761D01*
X71769104Y-111300761D02*
X71721485Y-111395999D01*
X71721485Y-111395999D02*
X71721485Y-111538856D01*
X71721485Y-111538856D02*
X71673866Y-111634094D01*
X71673866Y-111634094D02*
X71578628Y-111681713D01*
X71578628Y-111681713D02*
X71531009Y-111681713D01*
X71531009Y-111681713D02*
X71435771Y-111634094D01*
X71435771Y-111634094D02*
X71388152Y-111538856D01*
X71388152Y-111538856D02*
X71388152Y-111395999D01*
X71388152Y-111395999D02*
X71435771Y-111300761D01*
X71388152Y-110824570D02*
X72388152Y-110824570D01*
X71435771Y-110824570D02*
X71388152Y-110729332D01*
X71388152Y-110729332D02*
X71388152Y-110538856D01*
X71388152Y-110538856D02*
X71435771Y-110443618D01*
X71435771Y-110443618D02*
X71483390Y-110395999D01*
X71483390Y-110395999D02*
X71578628Y-110348380D01*
X71578628Y-110348380D02*
X71864342Y-110348380D01*
X71864342Y-110348380D02*
X71959580Y-110395999D01*
X71959580Y-110395999D02*
X72007200Y-110443618D01*
X72007200Y-110443618D02*
X72054819Y-110538856D01*
X72054819Y-110538856D02*
X72054819Y-110729332D01*
X72054819Y-110729332D02*
X72007200Y-110824570D01*
X72054819Y-109776951D02*
X72007200Y-109872189D01*
X72007200Y-109872189D02*
X71959580Y-109919808D01*
X71959580Y-109919808D02*
X71864342Y-109967427D01*
X71864342Y-109967427D02*
X71578628Y-109967427D01*
X71578628Y-109967427D02*
X71483390Y-109919808D01*
X71483390Y-109919808D02*
X71435771Y-109872189D01*
X71435771Y-109872189D02*
X71388152Y-109776951D01*
X71388152Y-109776951D02*
X71388152Y-109634094D01*
X71388152Y-109634094D02*
X71435771Y-109538856D01*
X71435771Y-109538856D02*
X71483390Y-109491237D01*
X71483390Y-109491237D02*
X71578628Y-109443618D01*
X71578628Y-109443618D02*
X71864342Y-109443618D01*
X71864342Y-109443618D02*
X71959580Y-109491237D01*
X71959580Y-109491237D02*
X72007200Y-109538856D01*
X72007200Y-109538856D02*
X72054819Y-109634094D01*
X72054819Y-109634094D02*
X72054819Y-109776951D01*
X72054819Y-109015046D02*
X71388152Y-109015046D01*
X71578628Y-109015046D02*
X71483390Y-108967427D01*
X71483390Y-108967427D02*
X71435771Y-108919808D01*
X71435771Y-108919808D02*
X71388152Y-108824570D01*
X71388152Y-108824570D02*
X71388152Y-108729332D01*
X71388152Y-108538855D02*
X71388152Y-108157903D01*
X71054819Y-108395998D02*
X71911961Y-108395998D01*
X71911961Y-108395998D02*
X72007200Y-108348379D01*
X72007200Y-108348379D02*
X72054819Y-108253141D01*
X72054819Y-108253141D02*
X72054819Y-108157903D01*
X71054819Y-107967426D02*
X71054819Y-107395998D01*
X72054819Y-107681712D02*
X71054819Y-107681712D01*
X72054819Y-107062664D02*
X71388152Y-107062664D01*
X71054819Y-107062664D02*
X71102438Y-107110283D01*
X71102438Y-107110283D02*
X71150057Y-107062664D01*
X71150057Y-107062664D02*
X71102438Y-107015045D01*
X71102438Y-107015045D02*
X71054819Y-107062664D01*
X71054819Y-107062664D02*
X71150057Y-107062664D01*
X72054819Y-106586474D02*
X71388152Y-106586474D01*
X71483390Y-106586474D02*
X71435771Y-106538855D01*
X71435771Y-106538855D02*
X71388152Y-106443617D01*
X71388152Y-106443617D02*
X71388152Y-106300760D01*
X71388152Y-106300760D02*
X71435771Y-106205522D01*
X71435771Y-106205522D02*
X71531009Y-106157903D01*
X71531009Y-106157903D02*
X72054819Y-106157903D01*
X71531009Y-106157903D02*
X71435771Y-106110284D01*
X71435771Y-106110284D02*
X71388152Y-106015046D01*
X71388152Y-106015046D02*
X71388152Y-105872189D01*
X71388152Y-105872189D02*
X71435771Y-105776950D01*
X71435771Y-105776950D02*
X71531009Y-105729331D01*
X71531009Y-105729331D02*
X72054819Y-105729331D01*
X72007200Y-104872189D02*
X72054819Y-104967427D01*
X72054819Y-104967427D02*
X72054819Y-105157903D01*
X72054819Y-105157903D02*
X72007200Y-105253141D01*
X72007200Y-105253141D02*
X71911961Y-105300760D01*
X71911961Y-105300760D02*
X71531009Y-105300760D01*
X71531009Y-105300760D02*
X71435771Y-105253141D01*
X71435771Y-105253141D02*
X71388152Y-105157903D01*
X71388152Y-105157903D02*
X71388152Y-104967427D01*
X71388152Y-104967427D02*
X71435771Y-104872189D01*
X71435771Y-104872189D02*
X71531009Y-104824570D01*
X71531009Y-104824570D02*
X71626247Y-104824570D01*
X71626247Y-104824570D02*
X71721485Y-105300760D01*
X72054819Y-104395998D02*
X71388152Y-104395998D01*
X71578628Y-104395998D02*
X71483390Y-104348379D01*
X71483390Y-104348379D02*
X71435771Y-104300760D01*
X71435771Y-104300760D02*
X71388152Y-104205522D01*
X71388152Y-104205522D02*
X71388152Y-104110284D01*
D10*
X98531838Y-116749292D02*
X98484219Y-116844530D01*
X98484219Y-116844530D02*
X98484219Y-116987387D01*
X98484219Y-116987387D02*
X98531838Y-117130244D01*
X98531838Y-117130244D02*
X98627076Y-117225482D01*
X98627076Y-117225482D02*
X98722314Y-117273101D01*
X98722314Y-117273101D02*
X98912790Y-117320720D01*
X98912790Y-117320720D02*
X99055647Y-117320720D01*
X99055647Y-117320720D02*
X99246123Y-117273101D01*
X99246123Y-117273101D02*
X99341361Y-117225482D01*
X99341361Y-117225482D02*
X99436600Y-117130244D01*
X99436600Y-117130244D02*
X99484219Y-116987387D01*
X99484219Y-116987387D02*
X99484219Y-116892149D01*
X99484219Y-116892149D02*
X99436600Y-116749292D01*
X99436600Y-116749292D02*
X99388980Y-116701673D01*
X99388980Y-116701673D02*
X99055647Y-116701673D01*
X99055647Y-116701673D02*
X99055647Y-116892149D01*
X99484219Y-116273101D02*
X98484219Y-116273101D01*
X98484219Y-116273101D02*
X99484219Y-115701673D01*
X99484219Y-115701673D02*
X98484219Y-115701673D01*
X99484219Y-115225482D02*
X98484219Y-115225482D01*
X98484219Y-115225482D02*
X98484219Y-114987387D01*
X98484219Y-114987387D02*
X98531838Y-114844530D01*
X98531838Y-114844530D02*
X98627076Y-114749292D01*
X98627076Y-114749292D02*
X98722314Y-114701673D01*
X98722314Y-114701673D02*
X98912790Y-114654054D01*
X98912790Y-114654054D02*
X99055647Y-114654054D01*
X99055647Y-114654054D02*
X99246123Y-114701673D01*
X99246123Y-114701673D02*
X99341361Y-114749292D01*
X99341361Y-114749292D02*
X99436600Y-114844530D01*
X99436600Y-114844530D02*
X99484219Y-114987387D01*
X99484219Y-114987387D02*
X99484219Y-115225482D01*
X96420733Y-114701673D02*
X96420733Y-115463578D01*
X96039780Y-115082625D02*
X96801685Y-115082625D01*
X96039780Y-116463577D02*
X96039780Y-115892149D01*
X96039780Y-116177863D02*
X97039780Y-116177863D01*
X97039780Y-116177863D02*
X96896923Y-116082625D01*
X96896923Y-116082625D02*
X96801685Y-115987387D01*
X96801685Y-115987387D02*
X96754066Y-115892149D01*
X96944542Y-116844530D02*
X96992161Y-116892149D01*
X96992161Y-116892149D02*
X97039780Y-116987387D01*
X97039780Y-116987387D02*
X97039780Y-117225482D01*
X97039780Y-117225482D02*
X96992161Y-117320720D01*
X96992161Y-117320720D02*
X96944542Y-117368339D01*
X96944542Y-117368339D02*
X96849304Y-117415958D01*
X96849304Y-117415958D02*
X96754066Y-117415958D01*
X96754066Y-117415958D02*
X96611209Y-117368339D01*
X96611209Y-117368339D02*
X96039780Y-116796911D01*
X96039780Y-116796911D02*
X96039780Y-117415958D01*
X97039780Y-117701673D02*
X96039780Y-118035006D01*
X96039780Y-118035006D02*
X97039780Y-118368339D01*
D11*
X74818328Y-111434286D02*
X73318328Y-111434286D01*
X73318328Y-111434286D02*
X73318328Y-110862857D01*
X73318328Y-110862857D02*
X73389757Y-110720000D01*
X73389757Y-110720000D02*
X73461185Y-110648571D01*
X73461185Y-110648571D02*
X73604042Y-110577143D01*
X73604042Y-110577143D02*
X73818328Y-110577143D01*
X73818328Y-110577143D02*
X73961185Y-110648571D01*
X73961185Y-110648571D02*
X74032614Y-110720000D01*
X74032614Y-110720000D02*
X74104042Y-110862857D01*
X74104042Y-110862857D02*
X74104042Y-111434286D01*
X74246900Y-109934286D02*
X74246900Y-108791429D01*
X73318328Y-108291428D02*
X73318328Y-107434286D01*
X74818328Y-107862857D02*
X73318328Y-107862857D01*
X74818328Y-106934286D02*
X73318328Y-106934286D01*
X74032614Y-106934286D02*
X74032614Y-106077143D01*
X74818328Y-106077143D02*
X73318328Y-106077143D01*
X74818328Y-104505714D02*
X74104042Y-105005714D01*
X74818328Y-105362857D02*
X73318328Y-105362857D01*
X73318328Y-105362857D02*
X73318328Y-104791428D01*
X73318328Y-104791428D02*
X73389757Y-104648571D01*
X73389757Y-104648571D02*
X73461185Y-104577142D01*
X73461185Y-104577142D02*
X73604042Y-104505714D01*
X73604042Y-104505714D02*
X73818328Y-104505714D01*
X73818328Y-104505714D02*
X73961185Y-104577142D01*
X73961185Y-104577142D02*
X74032614Y-104648571D01*
X74032614Y-104648571D02*
X74104042Y-104791428D01*
X74104042Y-104791428D02*
X74104042Y-105362857D01*
X73318328Y-103862857D02*
X74532614Y-103862857D01*
X74532614Y-103862857D02*
X74675471Y-103791428D01*
X74675471Y-103791428D02*
X74746900Y-103720000D01*
X74746900Y-103720000D02*
X74818328Y-103577142D01*
X74818328Y-103577142D02*
X74818328Y-103291428D01*
X74818328Y-103291428D02*
X74746900Y-103148571D01*
X74746900Y-103148571D02*
X74675471Y-103077142D01*
X74675471Y-103077142D02*
X74532614Y-103005714D01*
X74532614Y-103005714D02*
X73318328Y-103005714D01*
D10*
X96190476Y-132564219D02*
X96190476Y-131564219D01*
X96190476Y-131564219D02*
X96523809Y-132278504D01*
X96523809Y-132278504D02*
X96857142Y-131564219D01*
X96857142Y-131564219D02*
X96857142Y-132564219D01*
X97761904Y-131897552D02*
X97761904Y-132564219D01*
X97523809Y-131516600D02*
X97285714Y-132230885D01*
X97285714Y-132230885D02*
X97904761Y-132230885D01*
X102550457Y-115558816D02*
X102502838Y-115654054D01*
X102502838Y-115654054D02*
X102407600Y-115749292D01*
X102407600Y-115749292D02*
X102264742Y-115892149D01*
X102264742Y-115892149D02*
X102217123Y-115987387D01*
X102217123Y-115987387D02*
X102217123Y-116082625D01*
X102455219Y-116035006D02*
X102407600Y-116130244D01*
X102407600Y-116130244D02*
X102312361Y-116225482D01*
X102312361Y-116225482D02*
X102121885Y-116273101D01*
X102121885Y-116273101D02*
X101788552Y-116273101D01*
X101788552Y-116273101D02*
X101598076Y-116225482D01*
X101598076Y-116225482D02*
X101502838Y-116130244D01*
X101502838Y-116130244D02*
X101455219Y-116035006D01*
X101455219Y-116035006D02*
X101455219Y-115844530D01*
X101455219Y-115844530D02*
X101502838Y-115749292D01*
X101502838Y-115749292D02*
X101598076Y-115654054D01*
X101598076Y-115654054D02*
X101788552Y-115606435D01*
X101788552Y-115606435D02*
X102121885Y-115606435D01*
X102121885Y-115606435D02*
X102312361Y-115654054D01*
X102312361Y-115654054D02*
X102407600Y-115749292D01*
X102407600Y-115749292D02*
X102455219Y-115844530D01*
X102455219Y-115844530D02*
X102455219Y-116035006D01*
X102455219Y-114654054D02*
X102455219Y-115225482D01*
X102455219Y-114939768D02*
X101455219Y-114939768D01*
X101455219Y-114939768D02*
X101598076Y-115035006D01*
X101598076Y-115035006D02*
X101693314Y-115130244D01*
X101693314Y-115130244D02*
X101740933Y-115225482D01*
D11*
X108428328Y-132535714D02*
X106928328Y-132535714D01*
X107642614Y-132535714D02*
X107642614Y-131678571D01*
X108428328Y-131678571D02*
X106928328Y-131678571D01*
X107999757Y-131035713D02*
X107999757Y-130321428D01*
X108428328Y-131178570D02*
X106928328Y-130678570D01*
X106928328Y-130678570D02*
X108428328Y-130178570D01*
X108428328Y-128964285D02*
X108428328Y-129678571D01*
X108428328Y-129678571D02*
X106928328Y-129678571D01*
X108428328Y-127749999D02*
X108428328Y-128464285D01*
X108428328Y-128464285D02*
X106928328Y-128464285D01*
D10*
X79227838Y-116749292D02*
X79180219Y-116844530D01*
X79180219Y-116844530D02*
X79180219Y-116987387D01*
X79180219Y-116987387D02*
X79227838Y-117130244D01*
X79227838Y-117130244D02*
X79323076Y-117225482D01*
X79323076Y-117225482D02*
X79418314Y-117273101D01*
X79418314Y-117273101D02*
X79608790Y-117320720D01*
X79608790Y-117320720D02*
X79751647Y-117320720D01*
X79751647Y-117320720D02*
X79942123Y-117273101D01*
X79942123Y-117273101D02*
X80037361Y-117225482D01*
X80037361Y-117225482D02*
X80132600Y-117130244D01*
X80132600Y-117130244D02*
X80180219Y-116987387D01*
X80180219Y-116987387D02*
X80180219Y-116892149D01*
X80180219Y-116892149D02*
X80132600Y-116749292D01*
X80132600Y-116749292D02*
X80084980Y-116701673D01*
X80084980Y-116701673D02*
X79751647Y-116701673D01*
X79751647Y-116701673D02*
X79751647Y-116892149D01*
X80180219Y-116273101D02*
X79180219Y-116273101D01*
X79180219Y-116273101D02*
X80180219Y-115701673D01*
X80180219Y-115701673D02*
X79180219Y-115701673D01*
X80180219Y-115225482D02*
X79180219Y-115225482D01*
X79180219Y-115225482D02*
X79180219Y-114987387D01*
X79180219Y-114987387D02*
X79227838Y-114844530D01*
X79227838Y-114844530D02*
X79323076Y-114749292D01*
X79323076Y-114749292D02*
X79418314Y-114701673D01*
X79418314Y-114701673D02*
X79608790Y-114654054D01*
X79608790Y-114654054D02*
X79751647Y-114654054D01*
X79751647Y-114654054D02*
X79942123Y-114701673D01*
X79942123Y-114701673D02*
X80037361Y-114749292D01*
X80037361Y-114749292D02*
X80132600Y-114844530D01*
X80132600Y-114844530D02*
X80180219Y-114987387D01*
X80180219Y-114987387D02*
X80180219Y-115225482D01*
X81815780Y-114701673D02*
X82815780Y-114701673D01*
X81815780Y-115177863D02*
X82815780Y-115177863D01*
X82815780Y-115177863D02*
X81815780Y-115749291D01*
X81815780Y-115749291D02*
X82815780Y-115749291D01*
X81617219Y-122122136D02*
X81617219Y-122598326D01*
X81617219Y-122598326D02*
X80617219Y-122598326D01*
X81093409Y-121788802D02*
X81093409Y-121455469D01*
X81617219Y-121312612D02*
X81617219Y-121788802D01*
X81617219Y-121788802D02*
X80617219Y-121788802D01*
X80617219Y-121788802D02*
X80617219Y-121312612D01*
X81617219Y-120884040D02*
X80617219Y-120884040D01*
X80617219Y-120884040D02*
X80617219Y-120645945D01*
X80617219Y-120645945D02*
X80664838Y-120503088D01*
X80664838Y-120503088D02*
X80760076Y-120407850D01*
X80760076Y-120407850D02*
X80855314Y-120360231D01*
X80855314Y-120360231D02*
X81045790Y-120312612D01*
X81045790Y-120312612D02*
X81188647Y-120312612D01*
X81188647Y-120312612D02*
X81379123Y-120360231D01*
X81379123Y-120360231D02*
X81474361Y-120407850D01*
X81474361Y-120407850D02*
X81569600Y-120503088D01*
X81569600Y-120503088D02*
X81617219Y-120645945D01*
X81617219Y-120645945D02*
X81617219Y-120884040D01*
X81236266Y-119884040D02*
X81236266Y-119122136D01*
X81617219Y-119503088D02*
X80855314Y-119503088D01*
X104026266Y-122630326D02*
X104026266Y-121868422D01*
X104407219Y-122249374D02*
X103645314Y-122249374D01*
X104407219Y-120868422D02*
X104407219Y-121439850D01*
X104407219Y-121154136D02*
X103407219Y-121154136D01*
X103407219Y-121154136D02*
X103550076Y-121249374D01*
X103550076Y-121249374D02*
X103645314Y-121344612D01*
X103645314Y-121344612D02*
X103692933Y-121439850D01*
X103502457Y-120487469D02*
X103454838Y-120439850D01*
X103454838Y-120439850D02*
X103407219Y-120344612D01*
X103407219Y-120344612D02*
X103407219Y-120106517D01*
X103407219Y-120106517D02*
X103454838Y-120011279D01*
X103454838Y-120011279D02*
X103502457Y-119963660D01*
X103502457Y-119963660D02*
X103597695Y-119916041D01*
X103597695Y-119916041D02*
X103692933Y-119916041D01*
X103692933Y-119916041D02*
X103835790Y-119963660D01*
X103835790Y-119963660D02*
X104407219Y-120535088D01*
X104407219Y-120535088D02*
X104407219Y-119916041D01*
X103407219Y-119630326D02*
X104407219Y-119296993D01*
X104407219Y-119296993D02*
X103407219Y-118963660D01*
X100914838Y-122106517D02*
X100867219Y-122201755D01*
X100867219Y-122201755D02*
X100867219Y-122344612D01*
X100867219Y-122344612D02*
X100914838Y-122487469D01*
X100914838Y-122487469D02*
X101010076Y-122582707D01*
X101010076Y-122582707D02*
X101105314Y-122630326D01*
X101105314Y-122630326D02*
X101295790Y-122677945D01*
X101295790Y-122677945D02*
X101438647Y-122677945D01*
X101438647Y-122677945D02*
X101629123Y-122630326D01*
X101629123Y-122630326D02*
X101724361Y-122582707D01*
X101724361Y-122582707D02*
X101819600Y-122487469D01*
X101819600Y-122487469D02*
X101867219Y-122344612D01*
X101867219Y-122344612D02*
X101867219Y-122249374D01*
X101867219Y-122249374D02*
X101819600Y-122106517D01*
X101819600Y-122106517D02*
X101771980Y-122058898D01*
X101771980Y-122058898D02*
X101438647Y-122058898D01*
X101438647Y-122058898D02*
X101438647Y-122249374D01*
X101867219Y-121630326D02*
X100867219Y-121630326D01*
X100867219Y-121630326D02*
X101867219Y-121058898D01*
X101867219Y-121058898D02*
X100867219Y-121058898D01*
X101867219Y-120582707D02*
X100867219Y-120582707D01*
X100867219Y-120582707D02*
X100867219Y-120344612D01*
X100867219Y-120344612D02*
X100914838Y-120201755D01*
X100914838Y-120201755D02*
X101010076Y-120106517D01*
X101010076Y-120106517D02*
X101105314Y-120058898D01*
X101105314Y-120058898D02*
X101295790Y-120011279D01*
X101295790Y-120011279D02*
X101438647Y-120011279D01*
X101438647Y-120011279D02*
X101629123Y-120058898D01*
X101629123Y-120058898D02*
X101724361Y-120106517D01*
X101724361Y-120106517D02*
X101819600Y-120201755D01*
X101819600Y-120201755D02*
X101867219Y-120344612D01*
X101867219Y-120344612D02*
X101867219Y-120582707D01*
X105090457Y-115558816D02*
X105042838Y-115654054D01*
X105042838Y-115654054D02*
X104947600Y-115749292D01*
X104947600Y-115749292D02*
X104804742Y-115892149D01*
X104804742Y-115892149D02*
X104757123Y-115987387D01*
X104757123Y-115987387D02*
X104757123Y-116082625D01*
X104995219Y-116035006D02*
X104947600Y-116130244D01*
X104947600Y-116130244D02*
X104852361Y-116225482D01*
X104852361Y-116225482D02*
X104661885Y-116273101D01*
X104661885Y-116273101D02*
X104328552Y-116273101D01*
X104328552Y-116273101D02*
X104138076Y-116225482D01*
X104138076Y-116225482D02*
X104042838Y-116130244D01*
X104042838Y-116130244D02*
X103995219Y-116035006D01*
X103995219Y-116035006D02*
X103995219Y-115844530D01*
X103995219Y-115844530D02*
X104042838Y-115749292D01*
X104042838Y-115749292D02*
X104138076Y-115654054D01*
X104138076Y-115654054D02*
X104328552Y-115606435D01*
X104328552Y-115606435D02*
X104661885Y-115606435D01*
X104661885Y-115606435D02*
X104852361Y-115654054D01*
X104852361Y-115654054D02*
X104947600Y-115749292D01*
X104947600Y-115749292D02*
X104995219Y-115844530D01*
X104995219Y-115844530D02*
X104995219Y-116035006D01*
X104090457Y-115225482D02*
X104042838Y-115177863D01*
X104042838Y-115177863D02*
X103995219Y-115082625D01*
X103995219Y-115082625D02*
X103995219Y-114844530D01*
X103995219Y-114844530D02*
X104042838Y-114749292D01*
X104042838Y-114749292D02*
X104090457Y-114701673D01*
X104090457Y-114701673D02*
X104185695Y-114654054D01*
X104185695Y-114654054D02*
X104280933Y-114654054D01*
X104280933Y-114654054D02*
X104423790Y-114701673D01*
X104423790Y-114701673D02*
X104995219Y-115273101D01*
X104995219Y-115273101D02*
X104995219Y-114654054D01*
D11*
X74928328Y-130964285D02*
X74928328Y-131678571D01*
X74928328Y-131678571D02*
X73428328Y-131678571D01*
X74142614Y-130464285D02*
X74142614Y-129964285D01*
X74928328Y-129749999D02*
X74928328Y-130464285D01*
X74928328Y-130464285D02*
X73428328Y-130464285D01*
X73428328Y-130464285D02*
X73428328Y-129749999D01*
X74928328Y-129107142D02*
X73428328Y-129107142D01*
X73428328Y-129107142D02*
X73428328Y-128749999D01*
X73428328Y-128749999D02*
X73499757Y-128535713D01*
X73499757Y-128535713D02*
X73642614Y-128392856D01*
X73642614Y-128392856D02*
X73785471Y-128321427D01*
X73785471Y-128321427D02*
X74071185Y-128249999D01*
X74071185Y-128249999D02*
X74285471Y-128249999D01*
X74285471Y-128249999D02*
X74571185Y-128321427D01*
X74571185Y-128321427D02*
X74714042Y-128392856D01*
X74714042Y-128392856D02*
X74856900Y-128535713D01*
X74856900Y-128535713D02*
X74928328Y-128749999D01*
X74928328Y-128749999D02*
X74928328Y-129107142D01*
D10*
X78119838Y-122074517D02*
X78072219Y-122169755D01*
X78072219Y-122169755D02*
X78072219Y-122312612D01*
X78072219Y-122312612D02*
X78119838Y-122455469D01*
X78119838Y-122455469D02*
X78215076Y-122550707D01*
X78215076Y-122550707D02*
X78310314Y-122598326D01*
X78310314Y-122598326D02*
X78500790Y-122645945D01*
X78500790Y-122645945D02*
X78643647Y-122645945D01*
X78643647Y-122645945D02*
X78834123Y-122598326D01*
X78834123Y-122598326D02*
X78929361Y-122550707D01*
X78929361Y-122550707D02*
X79024600Y-122455469D01*
X79024600Y-122455469D02*
X79072219Y-122312612D01*
X79072219Y-122312612D02*
X79072219Y-122217374D01*
X79072219Y-122217374D02*
X79024600Y-122074517D01*
X79024600Y-122074517D02*
X78976980Y-122026898D01*
X78976980Y-122026898D02*
X78643647Y-122026898D01*
X78643647Y-122026898D02*
X78643647Y-122217374D01*
X79072219Y-121598326D02*
X78072219Y-121598326D01*
X78072219Y-121598326D02*
X79072219Y-121026898D01*
X79072219Y-121026898D02*
X78072219Y-121026898D01*
X79072219Y-120550707D02*
X78072219Y-120550707D01*
X78072219Y-120550707D02*
X78072219Y-120312612D01*
X78072219Y-120312612D02*
X78119838Y-120169755D01*
X78119838Y-120169755D02*
X78215076Y-120074517D01*
X78215076Y-120074517D02*
X78310314Y-120026898D01*
X78310314Y-120026898D02*
X78500790Y-119979279D01*
X78500790Y-119979279D02*
X78643647Y-119979279D01*
X78643647Y-119979279D02*
X78834123Y-120026898D01*
X78834123Y-120026898D02*
X78929361Y-120074517D01*
X78929361Y-120074517D02*
X79024600Y-120169755D01*
X79024600Y-120169755D02*
X79072219Y-120312612D01*
X79072219Y-120312612D02*
X79072219Y-120550707D01*
D11*
X106846328Y-108719999D02*
X106846328Y-108434285D01*
X106846328Y-108434285D02*
X106917757Y-108291428D01*
X106917757Y-108291428D02*
X107060614Y-108148571D01*
X107060614Y-108148571D02*
X107346328Y-108077142D01*
X107346328Y-108077142D02*
X107846328Y-108077142D01*
X107846328Y-108077142D02*
X108132042Y-108148571D01*
X108132042Y-108148571D02*
X108274900Y-108291428D01*
X108274900Y-108291428D02*
X108346328Y-108434285D01*
X108346328Y-108434285D02*
X108346328Y-108719999D01*
X108346328Y-108719999D02*
X108274900Y-108862857D01*
X108274900Y-108862857D02*
X108132042Y-109005714D01*
X108132042Y-109005714D02*
X107846328Y-109077142D01*
X107846328Y-109077142D02*
X107346328Y-109077142D01*
X107346328Y-109077142D02*
X107060614Y-109005714D01*
X107060614Y-109005714D02*
X106917757Y-108862857D01*
X106917757Y-108862857D02*
X106846328Y-108719999D01*
X106846328Y-107434285D02*
X108060614Y-107434285D01*
X108060614Y-107434285D02*
X108203471Y-107362856D01*
X108203471Y-107362856D02*
X108274900Y-107291428D01*
X108274900Y-107291428D02*
X108346328Y-107148570D01*
X108346328Y-107148570D02*
X108346328Y-106862856D01*
X108346328Y-106862856D02*
X108274900Y-106719999D01*
X108274900Y-106719999D02*
X108203471Y-106648570D01*
X108203471Y-106648570D02*
X108060614Y-106577142D01*
X108060614Y-106577142D02*
X106846328Y-106577142D01*
X106846328Y-106077141D02*
X106846328Y-105219999D01*
X108346328Y-105648570D02*
X106846328Y-105648570D01*
D10*
X77116733Y-114701673D02*
X77116733Y-115463578D01*
X76735780Y-115082625D02*
X77497685Y-115082625D01*
X76735780Y-116463577D02*
X76735780Y-115892149D01*
X76735780Y-116177863D02*
X77735780Y-116177863D01*
X77735780Y-116177863D02*
X77592923Y-116082625D01*
X77592923Y-116082625D02*
X77497685Y-115987387D01*
X77497685Y-115987387D02*
X77450066Y-115892149D01*
X77640542Y-116844530D02*
X77688161Y-116892149D01*
X77688161Y-116892149D02*
X77735780Y-116987387D01*
X77735780Y-116987387D02*
X77735780Y-117225482D01*
X77735780Y-117225482D02*
X77688161Y-117320720D01*
X77688161Y-117320720D02*
X77640542Y-117368339D01*
X77640542Y-117368339D02*
X77545304Y-117415958D01*
X77545304Y-117415958D02*
X77450066Y-117415958D01*
X77450066Y-117415958D02*
X77307209Y-117368339D01*
X77307209Y-117368339D02*
X76735780Y-116796911D01*
X76735780Y-116796911D02*
X76735780Y-117415958D01*
X77735780Y-117701673D02*
X76735780Y-118035006D01*
X76735780Y-118035006D02*
X77735780Y-118368339D01*
X156619047Y-129144457D02*
X156523809Y-129096838D01*
X156523809Y-129096838D02*
X156428571Y-129001600D01*
X156428571Y-129001600D02*
X156285714Y-128858742D01*
X156285714Y-128858742D02*
X156190476Y-128811123D01*
X156190476Y-128811123D02*
X156095238Y-128811123D01*
X156142857Y-129049219D02*
X156047619Y-129001600D01*
X156047619Y-129001600D02*
X155952381Y-128906361D01*
X155952381Y-128906361D02*
X155904762Y-128715885D01*
X155904762Y-128715885D02*
X155904762Y-128382552D01*
X155904762Y-128382552D02*
X155952381Y-128192076D01*
X155952381Y-128192076D02*
X156047619Y-128096838D01*
X156047619Y-128096838D02*
X156142857Y-128049219D01*
X156142857Y-128049219D02*
X156333333Y-128049219D01*
X156333333Y-128049219D02*
X156428571Y-128096838D01*
X156428571Y-128096838D02*
X156523809Y-128192076D01*
X156523809Y-128192076D02*
X156571428Y-128382552D01*
X156571428Y-128382552D02*
X156571428Y-128715885D01*
X156571428Y-128715885D02*
X156523809Y-128906361D01*
X156523809Y-128906361D02*
X156428571Y-129001600D01*
X156428571Y-129001600D02*
X156333333Y-129049219D01*
X156333333Y-129049219D02*
X156142857Y-129049219D01*
X158523810Y-128668266D02*
X159285715Y-128668266D01*
X161285715Y-128668266D02*
X162047620Y-128668266D01*
X161666667Y-129049219D02*
X161666667Y-128287314D01*
D14*
%TO.C,mouse-bite-2mm-slot*%
X173000000Y-133500000D02*
G75*
G02*
X175000000Y-133500000I1000000J0D01*
G01*
X175000000Y-129500000D02*
G75*
G02*
X173000000Y-129500000I-1000000J0D01*
G01*
X163000000Y-133500000D02*
G75*
G02*
X165000000Y-133500000I1000000J0D01*
G01*
X165000000Y-129500000D02*
G75*
G02*
X163000000Y-129500000I-1000000J0D01*
G01*
X171000000Y-124000000D02*
G75*
G02*
X171000000Y-122000000I0J1000000D01*
G01*
X167000000Y-122000000D02*
G75*
G02*
X167000000Y-124000000I0J-1000000D01*
G01*
X161000000Y-124000000D02*
G75*
G02*
X161000000Y-122000000I0J1000000D01*
G01*
X157000000Y-122000000D02*
G75*
G02*
X157000000Y-124000000I0J-1000000D01*
G01*
X179000000Y-97000000D02*
G75*
G02*
X179000000Y-95000000I0J1000000D01*
G01*
X175000000Y-95000000D02*
G75*
G02*
X175000000Y-97000000I0J-1000000D01*
G01*
X160000000Y-97000000D02*
G75*
G02*
X160000000Y-95000000I0J1000000D01*
G01*
X156000000Y-95000000D02*
G75*
G02*
X156000000Y-97000000I0J-1000000D01*
G01*
%TO.C,mouse-bite-3mm-slot*%
X152000000Y-136500000D02*
G75*
G02*
X155000000Y-136500000I1500000J0D01*
G01*
X155000000Y-130500000D02*
G75*
G02*
X152000000Y-130500000I-1500000J0D01*
G01*
X152000000Y-120500000D02*
G75*
G02*
X155000000Y-120500000I1500000J0D01*
G01*
X155000000Y-114500000D02*
G75*
G02*
X152000000Y-114500000I-1500000J0D01*
G01*
X152000000Y-105500000D02*
G75*
G02*
X155000000Y-105500000I1500000J0D01*
G01*
X155000000Y-99500000D02*
G75*
G02*
X152000000Y-99500000I-1500000J0D01*
G01*
X144500000Y-95000000D02*
G75*
G02*
X144500000Y-98000000I0J-1500000D01*
G01*
X150500000Y-98000000D02*
G75*
G02*
X150500000Y-95000000I0J1500000D01*
G01*
X113500000Y-95000000D02*
G75*
G02*
X113500000Y-98000000I0J-1500000D01*
G01*
X119500000Y-98000000D02*
G75*
G02*
X119500000Y-95000000I0J1500000D01*
G01*
%TO.C,mouse-bite-2mm-slot*%
X110000000Y-137000000D02*
G75*
G02*
X112000000Y-137000000I1000000J0D01*
G01*
X112000000Y-133000000D02*
G75*
G02*
X110000000Y-133000000I-1000000J0D01*
G01*
X110000000Y-103000000D02*
G75*
G02*
X112000000Y-103000000I1000000J0D01*
G01*
X112000000Y-99000000D02*
G75*
G02*
X110000000Y-99000000I-1000000J0D01*
G01*
%TO.C,mouse-bite-3mm-slot*%
X102476000Y-95000000D02*
G75*
G02*
X102476000Y-98000000I0J-1500000D01*
G01*
X108476000Y-98000000D02*
G75*
G02*
X108476000Y-95000000I0J1500000D01*
G01*
X71500000Y-95000000D02*
G75*
G02*
X71500000Y-98000000I0J-1500000D01*
G01*
X77500000Y-98000000D02*
G75*
G02*
X77500000Y-95000000I0J1500000D01*
G01*
D15*
%TO.C,C101*%
X170918580Y-133244000D02*
X170637420Y-133244000D01*
X170918580Y-134264000D02*
X170637420Y-134264000D01*
%TO.C,C102*%
X167362580Y-133244000D02*
X167081420Y-133244000D01*
X167362580Y-134264000D02*
X167081420Y-134264000D01*
%TO.C,Q101*%
X167440000Y-137564000D02*
X167440000Y-136914000D01*
X167440000Y-137564000D02*
X167440000Y-138214000D01*
X170560000Y-137564000D02*
X170560000Y-136914000D01*
X170560000Y-137564000D02*
X170560000Y-138214000D01*
X170840000Y-136641500D02*
X170510000Y-136401500D01*
X170840000Y-136161500D01*
X170840000Y-136641500D01*
G36*
X170840000Y-136641500D02*
G01*
X170510000Y-136401500D01*
X170840000Y-136161500D01*
X170840000Y-136641500D01*
G37*
%TO.C,R101*%
X171017500Y-131451258D02*
X171017500Y-130976742D01*
X172062500Y-131451258D02*
X172062500Y-130976742D01*
%TO.C,CON202*%
X117873000Y-108003000D02*
X117873000Y-110663000D01*
X117873000Y-110663000D02*
X125613000Y-110663000D01*
X117933000Y-113373000D02*
X117933000Y-112103000D01*
X118823000Y-102003000D02*
X119583000Y-102003000D01*
X118823000Y-108003000D02*
X118823000Y-102003000D01*
X118823000Y-110993000D02*
X118823000Y-110663000D01*
X118883000Y-108003000D02*
X118883000Y-102003000D01*
X119003000Y-108003000D02*
X119003000Y-102003000D01*
X119123000Y-108003000D02*
X119123000Y-102003000D01*
X119203000Y-113373000D02*
X117933000Y-113373000D01*
X119243000Y-108003000D02*
X119243000Y-102003000D01*
X119363000Y-108003000D02*
X119363000Y-102003000D01*
X119483000Y-108003000D02*
X119483000Y-102003000D01*
X119583000Y-102003000D02*
X119583000Y-108003000D01*
X119583000Y-110993000D02*
X119583000Y-110663000D01*
X120473000Y-110663000D02*
X120473000Y-108003000D01*
X121363000Y-102003000D02*
X122123000Y-102003000D01*
X121363000Y-108003000D02*
X121363000Y-102003000D01*
X121363000Y-111060071D02*
X121363000Y-110663000D01*
X122123000Y-102003000D02*
X122123000Y-108003000D01*
X122123000Y-111060071D02*
X122123000Y-110663000D01*
X123013000Y-110663000D02*
X123013000Y-108003000D01*
X123903000Y-102003000D02*
X124663000Y-102003000D01*
X123903000Y-108003000D02*
X123903000Y-102003000D01*
X123903000Y-111060071D02*
X123903000Y-110663000D01*
X124663000Y-102003000D02*
X124663000Y-108003000D01*
X124663000Y-111060071D02*
X124663000Y-110663000D01*
X125613000Y-108003000D02*
X117873000Y-108003000D01*
X125613000Y-110663000D02*
X125613000Y-108003000D01*
%TO.C,CON204*%
X119130000Y-126440000D02*
X119130000Y-129100000D01*
X119130000Y-129100000D02*
X124330000Y-129100000D01*
X120080000Y-126042929D02*
X120080000Y-126440000D01*
X120080000Y-135100000D02*
X120080000Y-129100000D01*
X120840000Y-126042929D02*
X120840000Y-126440000D01*
X120840000Y-129100000D02*
X120840000Y-135100000D01*
X120840000Y-135100000D02*
X120080000Y-135100000D01*
X121730000Y-126440000D02*
X121730000Y-129100000D01*
X122620000Y-126110000D02*
X122620000Y-126440000D01*
X122620000Y-135100000D02*
X122620000Y-129100000D01*
X122720000Y-129100000D02*
X122720000Y-135100000D01*
X122840000Y-129100000D02*
X122840000Y-135100000D01*
X122960000Y-129100000D02*
X122960000Y-135100000D01*
X123000000Y-123730000D02*
X124270000Y-123730000D01*
X123080000Y-129100000D02*
X123080000Y-135100000D01*
X123200000Y-129100000D02*
X123200000Y-135100000D01*
X123320000Y-129100000D02*
X123320000Y-135100000D01*
X123380000Y-126110000D02*
X123380000Y-126440000D01*
X123380000Y-129100000D02*
X123380000Y-135100000D01*
X123380000Y-135100000D02*
X122620000Y-135100000D01*
X124270000Y-123730000D02*
X124270000Y-125000000D01*
X124330000Y-126440000D02*
X119130000Y-126440000D01*
X124330000Y-129100000D02*
X124330000Y-126440000D01*
%TO.C,R201*%
X129841500Y-112062742D02*
X129841500Y-112537258D01*
X130886500Y-112062742D02*
X130886500Y-112537258D01*
%TO.C,F201*%
X133912779Y-108240000D02*
X133587221Y-108240000D01*
X133912779Y-109260000D02*
X133587221Y-109260000D01*
%TO.C,CON201*%
X137426000Y-108003000D02*
X137426000Y-110663000D01*
X137426000Y-110663000D02*
X147706000Y-110663000D01*
X137486000Y-113373000D02*
X137486000Y-112103000D01*
X138376000Y-102003000D02*
X139136000Y-102003000D01*
X138376000Y-108003000D02*
X138376000Y-102003000D01*
X138376000Y-110993000D02*
X138376000Y-110663000D01*
X138436000Y-108003000D02*
X138436000Y-102003000D01*
X138556000Y-108003000D02*
X138556000Y-102003000D01*
X138676000Y-108003000D02*
X138676000Y-102003000D01*
X138756000Y-113373000D02*
X137486000Y-113373000D01*
X138796000Y-108003000D02*
X138796000Y-102003000D01*
X138916000Y-108003000D02*
X138916000Y-102003000D01*
X139036000Y-108003000D02*
X139036000Y-102003000D01*
X139136000Y-102003000D02*
X139136000Y-108003000D01*
X139136000Y-110993000D02*
X139136000Y-110663000D01*
X140026000Y-110663000D02*
X140026000Y-108003000D01*
X140916000Y-102003000D02*
X141676000Y-102003000D01*
X140916000Y-108003000D02*
X140916000Y-102003000D01*
X140916000Y-111060071D02*
X140916000Y-110663000D01*
X141676000Y-102003000D02*
X141676000Y-108003000D01*
X141676000Y-111060071D02*
X141676000Y-110663000D01*
X142566000Y-110663000D02*
X142566000Y-108003000D01*
X143456000Y-102003000D02*
X144216000Y-102003000D01*
X143456000Y-108003000D02*
X143456000Y-102003000D01*
X143456000Y-111060071D02*
X143456000Y-110663000D01*
X144216000Y-102003000D02*
X144216000Y-108003000D01*
X144216000Y-111060071D02*
X144216000Y-110663000D01*
X145106000Y-110663000D02*
X145106000Y-108003000D01*
X145996000Y-102003000D02*
X146756000Y-102003000D01*
X145996000Y-108003000D02*
X145996000Y-102003000D01*
X145996000Y-111060071D02*
X145996000Y-110663000D01*
X146756000Y-102003000D02*
X146756000Y-108003000D01*
X146756000Y-111060071D02*
X146756000Y-110663000D01*
X147706000Y-108003000D02*
X137426000Y-108003000D01*
X147706000Y-110663000D02*
X147706000Y-108003000D01*
D16*
%TO.C,G\u002A\u002A\u002A*%
G36*
X137811442Y-128616773D02*
G01*
X137876074Y-128635517D01*
X137886436Y-128640137D01*
X137926812Y-128667015D01*
X137991079Y-128718557D01*
X138072220Y-128788266D01*
X138163215Y-128869646D01*
X138257046Y-128956203D01*
X138346696Y-129041438D01*
X138425144Y-129118857D01*
X138485374Y-129181963D01*
X138520366Y-129224260D01*
X138524088Y-129230327D01*
X138533698Y-129289314D01*
X138519456Y-129384423D01*
X138505462Y-129452071D01*
X138505862Y-129493905D01*
X138524436Y-129527268D01*
X138558382Y-129562962D01*
X138602751Y-129602855D01*
X138639968Y-129616843D01*
X138690973Y-129610303D01*
X138717418Y-129603786D01*
X138789156Y-129591625D01*
X138851918Y-129590973D01*
X138864753Y-129593200D01*
X138903187Y-129615633D01*
X138963239Y-129665555D01*
X139038382Y-129736058D01*
X139122089Y-129820233D01*
X139207833Y-129911174D01*
X139289085Y-130001971D01*
X139359317Y-130085719D01*
X139412003Y-130155508D01*
X139439220Y-130201118D01*
X139464484Y-130286880D01*
X139452723Y-130351468D01*
X139402739Y-130400013D01*
X139391174Y-130406602D01*
X139334066Y-130421208D01*
X139234765Y-130426986D01*
X139094631Y-130423971D01*
X138915024Y-130412198D01*
X138697302Y-130391702D01*
X138663349Y-130388083D01*
X138303143Y-130349188D01*
X137986107Y-130666790D01*
X137878305Y-130775269D01*
X137798241Y-130857632D01*
X137741947Y-130918909D01*
X137705456Y-130964131D01*
X137684801Y-130998327D01*
X137676013Y-131026528D01*
X137675126Y-131053765D01*
X137675623Y-131060435D01*
X137674042Y-131116787D01*
X137652709Y-131144545D01*
X137639329Y-131150076D01*
X137584475Y-131154683D01*
X137558555Y-131149120D01*
X137514587Y-131154569D01*
X137453965Y-131199336D01*
X137445509Y-131207372D01*
X137397526Y-131261282D01*
X137379992Y-131305654D01*
X137382223Y-131339334D01*
X137377128Y-131401433D01*
X137339518Y-131439540D01*
X137278618Y-131444930D01*
X137272125Y-131443466D01*
X137219071Y-131450317D01*
X137163201Y-131486318D01*
X137116958Y-131538874D01*
X137092782Y-131595391D01*
X137093558Y-131624220D01*
X137091535Y-131685177D01*
X137055942Y-131724880D01*
X136996115Y-131733651D01*
X136989112Y-131732445D01*
X136934748Y-131739871D01*
X136877154Y-131774065D01*
X136828287Y-131823642D01*
X136800103Y-131877216D01*
X136799634Y-131912868D01*
X136806249Y-131977943D01*
X136778748Y-132015977D01*
X136719867Y-132023560D01*
X136711753Y-132022415D01*
X136659568Y-132020695D01*
X136615768Y-132040891D01*
X136569364Y-132083482D01*
X136523982Y-132138396D01*
X136509293Y-132183036D01*
X136512819Y-132211802D01*
X136509879Y-132275335D01*
X136490243Y-132303917D01*
X136451417Y-132335066D01*
X136417388Y-132333746D01*
X136390288Y-132318733D01*
X136353199Y-132318518D01*
X136305630Y-132346090D01*
X136258567Y-132390320D01*
X136222998Y-132440081D01*
X136209912Y-132484243D01*
X136213437Y-132497854D01*
X136225132Y-132546932D01*
X136221423Y-132571322D01*
X136187916Y-132608117D01*
X136137344Y-132622766D01*
X136093034Y-132609445D01*
X136065938Y-132603530D01*
X136026857Y-132627708D01*
X135989154Y-132663770D01*
X135940560Y-132721866D01*
X135920764Y-132772418D01*
X135920142Y-132816844D01*
X135918570Y-132872377D01*
X135896942Y-132899989D01*
X135881483Y-132906359D01*
X135825715Y-132908945D01*
X135796618Y-132899968D01*
X135777761Y-132898413D01*
X135744635Y-132908570D01*
X135693624Y-132932443D01*
X135621109Y-132972038D01*
X135523474Y-133029362D01*
X135397103Y-133106420D01*
X135238377Y-133205218D01*
X135179112Y-133242412D01*
X135034657Y-133332715D01*
X134901712Y-133414879D01*
X134785081Y-133486009D01*
X134689568Y-133543209D01*
X134619978Y-133583586D01*
X134581115Y-133604244D01*
X134575143Y-133606343D01*
X134539898Y-133592574D01*
X134512754Y-133570913D01*
X134489429Y-133528457D01*
X134490163Y-133499254D01*
X134509497Y-133460846D01*
X134549076Y-133391174D01*
X134605214Y-133296159D01*
X134646482Y-133227726D01*
X134856364Y-133227726D01*
X134863454Y-133225846D01*
X134883116Y-133215342D01*
X134919820Y-133193590D01*
X134978039Y-133157969D01*
X135062244Y-133105857D01*
X135176906Y-133034631D01*
X135268000Y-132978015D01*
X135381435Y-132907292D01*
X135482727Y-132843703D01*
X135565459Y-132791313D01*
X135623216Y-132754182D01*
X135649570Y-132736385D01*
X135655253Y-132713839D01*
X135639899Y-132667804D01*
X135601566Y-132593589D01*
X135563445Y-132528077D01*
X135514066Y-132448372D01*
X135471786Y-132385484D01*
X135442349Y-132347673D01*
X135433007Y-132340445D01*
X135410057Y-132357037D01*
X135369086Y-132407383D01*
X135309537Y-132492337D01*
X135230853Y-132612753D01*
X135132477Y-132769484D01*
X135013852Y-132963386D01*
X134874421Y-133195312D01*
X134862013Y-133216101D01*
X134857374Y-133223604D01*
X134856364Y-133227726D01*
X134646482Y-133227726D01*
X134674225Y-133181722D01*
X134752423Y-133053783D01*
X134836122Y-132918265D01*
X134921635Y-132781087D01*
X135005277Y-132648170D01*
X135083362Y-132525436D01*
X135152204Y-132418804D01*
X135208116Y-132334197D01*
X135247412Y-132277536D01*
X135263222Y-132257498D01*
X135307947Y-132196666D01*
X135569406Y-132196666D01*
X135684865Y-132390777D01*
X135734297Y-132471900D01*
X135775834Y-132536382D01*
X135804124Y-132576125D01*
X135813136Y-132584889D01*
X135834793Y-132570309D01*
X135875288Y-132533283D01*
X135899567Y-132508934D01*
X135973186Y-132432979D01*
X135857990Y-132242268D01*
X135807974Y-132161997D01*
X135765433Y-132098395D01*
X135735985Y-132059607D01*
X135726424Y-132051556D01*
X135702417Y-132066184D01*
X135660765Y-132103132D01*
X135639729Y-132124111D01*
X135569406Y-132196666D01*
X135307947Y-132196666D01*
X135314205Y-132188155D01*
X135332594Y-132114630D01*
X135333096Y-132101943D01*
X135336900Y-132047230D01*
X135354377Y-132023755D01*
X135398834Y-132018313D01*
X135417453Y-132018223D01*
X135506866Y-131998184D01*
X135576338Y-131944075D01*
X135595257Y-131907112D01*
X135860243Y-131907112D01*
X135975233Y-132101000D01*
X136024472Y-132182159D01*
X136065754Y-132246740D01*
X136093751Y-132286604D01*
X136102530Y-132295444D01*
X136123796Y-132281192D01*
X136164216Y-132244273D01*
X136190491Y-132217946D01*
X136266145Y-132139891D01*
X136223872Y-132067946D01*
X136189208Y-132010372D01*
X136141998Y-131933716D01*
X136101234Y-131868528D01*
X136020869Y-131741055D01*
X135940556Y-131824083D01*
X135860243Y-131907112D01*
X135595257Y-131907112D01*
X135616862Y-131864901D01*
X135623556Y-131812120D01*
X135626361Y-131757817D01*
X135643521Y-131734671D01*
X135688155Y-131729410D01*
X135705391Y-131729334D01*
X135787231Y-131712775D01*
X135854963Y-131669406D01*
X135894986Y-131613940D01*
X136168000Y-131613940D01*
X136178858Y-131640561D01*
X136208084Y-131695764D01*
X136250657Y-131770338D01*
X136281713Y-131822530D01*
X136395426Y-132010787D01*
X136470602Y-131937923D01*
X136515160Y-131890753D01*
X136542115Y-131854534D01*
X136545778Y-131844727D01*
X136534920Y-131818107D01*
X136505695Y-131762904D01*
X136463122Y-131688329D01*
X136432065Y-131636138D01*
X136318353Y-131447881D01*
X136243177Y-131520744D01*
X136198618Y-131567915D01*
X136171663Y-131604133D01*
X136168000Y-131613940D01*
X135894986Y-131613940D01*
X135898778Y-131608685D01*
X135908870Y-131540073D01*
X135907836Y-131534068D01*
X135910196Y-131470624D01*
X135940187Y-131430421D01*
X135988801Y-131421792D01*
X136017893Y-131432249D01*
X136050886Y-131441474D01*
X136086120Y-131426914D01*
X136136378Y-131383230D01*
X136137205Y-131382429D01*
X136183979Y-131331425D01*
X136188662Y-131320887D01*
X136456889Y-131320887D01*
X136467630Y-131345673D01*
X136496573Y-131399498D01*
X136538804Y-131473444D01*
X136571465Y-131528766D01*
X136686041Y-131720476D01*
X136769587Y-131638895D01*
X136853134Y-131557314D01*
X136763980Y-131409991D01*
X136716111Y-131331222D01*
X136673082Y-131260992D01*
X136643502Y-131213349D01*
X136641575Y-131210305D01*
X136608324Y-131157942D01*
X136532607Y-131231331D01*
X136487982Y-131277710D01*
X136460780Y-131312011D01*
X136456889Y-131320887D01*
X136188662Y-131320887D01*
X136202437Y-131289892D01*
X136199918Y-131240768D01*
X136199380Y-131237844D01*
X136195795Y-131183310D01*
X136216098Y-131151826D01*
X136232553Y-131141576D01*
X136292629Y-131129107D01*
X136320312Y-131138709D01*
X136365408Y-131140697D01*
X136413756Y-131110103D01*
X136456367Y-131057069D01*
X136469262Y-131026857D01*
X136739460Y-131026857D01*
X136858505Y-131227942D01*
X136977551Y-131429028D01*
X137061369Y-131347182D01*
X137145187Y-131265336D01*
X137098735Y-131186224D01*
X137026540Y-131063980D01*
X136973501Y-130976010D01*
X136936838Y-130917934D01*
X136913770Y-130885372D01*
X136901520Y-130873941D01*
X136900501Y-130873778D01*
X136878951Y-130888360D01*
X136838469Y-130925420D01*
X136813645Y-130950318D01*
X136739460Y-131026857D01*
X136469262Y-131026857D01*
X136484252Y-130991737D01*
X136490223Y-130947002D01*
X136502962Y-130876874D01*
X136536780Y-130837056D01*
X136585083Y-130833217D01*
X136609452Y-130844530D01*
X136638937Y-130855484D01*
X136670041Y-130844127D01*
X136714380Y-130805113D01*
X136730449Y-130788812D01*
X136777693Y-130734862D01*
X136778280Y-130733588D01*
X137032595Y-130733588D01*
X137147533Y-130925905D01*
X137197171Y-131006618D01*
X137239217Y-131070654D01*
X137268171Y-131109876D01*
X137277543Y-131118223D01*
X137300654Y-131103609D01*
X137341934Y-131066592D01*
X137364677Y-131043873D01*
X137436740Y-130969524D01*
X137321801Y-130777207D01*
X137272163Y-130696493D01*
X137230117Y-130632458D01*
X137201163Y-130593236D01*
X137191791Y-130584889D01*
X137168680Y-130599503D01*
X137127400Y-130636520D01*
X137104657Y-130659239D01*
X137032595Y-130733588D01*
X136778280Y-130733588D01*
X136794846Y-130697660D01*
X136787981Y-130668517D01*
X136779201Y-130621145D01*
X136797983Y-130577570D01*
X136833403Y-130546818D01*
X136874534Y-130537912D01*
X136910454Y-130559876D01*
X136913690Y-130564681D01*
X136937421Y-130565450D01*
X136983076Y-130533943D01*
X137013929Y-130505662D01*
X137063682Y-130452560D01*
X137070288Y-130440445D01*
X137324390Y-130440445D01*
X137440135Y-130634889D01*
X137489425Y-130716041D01*
X137530501Y-130780585D01*
X137558109Y-130820444D01*
X137566599Y-130829334D01*
X137584831Y-130814385D01*
X137629744Y-130772586D01*
X137696585Y-130708508D01*
X137780601Y-130626720D01*
X137877040Y-130531795D01*
X137912508Y-130496652D01*
X138023953Y-130386390D01*
X138108905Y-130303806D01*
X138172238Y-130245091D01*
X138218826Y-130206436D01*
X138253544Y-130184033D01*
X138281266Y-130174072D01*
X138306865Y-130172744D01*
X138324516Y-130174684D01*
X138393791Y-130183447D01*
X138489555Y-130194326D01*
X138604150Y-130206579D01*
X138729920Y-130219466D01*
X138859206Y-130232247D01*
X138984352Y-130244180D01*
X139097700Y-130254525D01*
X139191594Y-130262541D01*
X139258376Y-130267488D01*
X139290388Y-130268625D01*
X139292029Y-130268268D01*
X139279820Y-130250810D01*
X139241039Y-130207621D01*
X139180805Y-130144134D01*
X139104234Y-130065781D01*
X139049580Y-130010903D01*
X138799318Y-129761350D01*
X138682427Y-129788332D01*
X138565536Y-129815314D01*
X138430615Y-129680393D01*
X138295695Y-129545472D01*
X138323533Y-129429430D01*
X138351371Y-129313387D01*
X138087464Y-129048547D01*
X138000482Y-128963242D01*
X137924829Y-128892817D01*
X137865671Y-128841777D01*
X137828172Y-128814622D01*
X137817261Y-128813012D01*
X137817812Y-128842780D01*
X137822834Y-128909986D01*
X137831703Y-129007920D01*
X137843795Y-129129870D01*
X137858485Y-129269123D01*
X137866414Y-129341381D01*
X137921862Y-129840445D01*
X137623126Y-130140445D01*
X137324390Y-130440445D01*
X137070288Y-130440445D01*
X137083635Y-130415966D01*
X137079198Y-130385266D01*
X137077258Y-130381426D01*
X137068865Y-130323761D01*
X137080481Y-130293442D01*
X137108403Y-130261147D01*
X137153039Y-130254991D01*
X137178006Y-130258183D01*
X137207615Y-130260759D01*
X137236028Y-130255068D01*
X137269300Y-130236668D01*
X137313484Y-130201117D01*
X137374635Y-130143976D01*
X137458805Y-130060801D01*
X137490981Y-130028573D01*
X137731587Y-129787219D01*
X137693971Y-129402721D01*
X137674900Y-129193389D01*
X137663034Y-129023889D01*
X137658707Y-128890145D01*
X137662255Y-128788076D01*
X137674016Y-128713607D01*
X137694325Y-128662658D01*
X137723517Y-128631151D01*
X137758816Y-128615753D01*
X137811442Y-128616773D01*
G37*
D15*
%TO.C,Q201*%
X131598000Y-112554000D02*
X131598000Y-111904000D01*
X131598000Y-112554000D02*
X131598000Y-113204000D01*
X134718000Y-112554000D02*
X134718000Y-111904000D01*
X134718000Y-112554000D02*
X134718000Y-113204000D01*
X131648000Y-113716500D02*
X131318000Y-113956500D01*
X131318000Y-113476500D01*
X131648000Y-113716500D01*
G36*
X131648000Y-113716500D02*
G01*
X131318000Y-113956500D01*
X131318000Y-113476500D01*
X131648000Y-113716500D01*
G37*
%TO.C,CON203*%
X139590000Y-126440000D02*
X139590000Y-129100000D01*
X139590000Y-129100000D02*
X147330000Y-129100000D01*
X140540000Y-126042929D02*
X140540000Y-126440000D01*
X140540000Y-135100000D02*
X140540000Y-129100000D01*
X141300000Y-126042929D02*
X141300000Y-126440000D01*
X141300000Y-129100000D02*
X141300000Y-135100000D01*
X141300000Y-135100000D02*
X140540000Y-135100000D01*
X142190000Y-126440000D02*
X142190000Y-129100000D01*
X143080000Y-126042929D02*
X143080000Y-126440000D01*
X143080000Y-135100000D02*
X143080000Y-129100000D01*
X143840000Y-126042929D02*
X143840000Y-126440000D01*
X143840000Y-129100000D02*
X143840000Y-135100000D01*
X143840000Y-135100000D02*
X143080000Y-135100000D01*
X144730000Y-126440000D02*
X144730000Y-129100000D01*
X145620000Y-126110000D02*
X145620000Y-126440000D01*
X145620000Y-135100000D02*
X145620000Y-129100000D01*
X145720000Y-129100000D02*
X145720000Y-135100000D01*
X145840000Y-129100000D02*
X145840000Y-135100000D01*
X145960000Y-129100000D02*
X145960000Y-135100000D01*
X146000000Y-123730000D02*
X147270000Y-123730000D01*
X146080000Y-129100000D02*
X146080000Y-135100000D01*
X146200000Y-129100000D02*
X146200000Y-135100000D01*
X146320000Y-129100000D02*
X146320000Y-135100000D01*
X146380000Y-126110000D02*
X146380000Y-126440000D01*
X146380000Y-129100000D02*
X146380000Y-135100000D01*
X146380000Y-135100000D02*
X145620000Y-135100000D01*
X147270000Y-123730000D02*
X147270000Y-125000000D01*
X147330000Y-126440000D02*
X139590000Y-126440000D01*
X147330000Y-129100000D02*
X147330000Y-126440000D01*
%TO.C,Q202*%
X128438000Y-117890000D02*
X128708000Y-117890000D01*
X128438000Y-124310000D02*
X128438000Y-117890000D01*
X135338000Y-117890000D02*
X135068000Y-117890000D01*
X135338000Y-124310000D02*
X135338000Y-117890000D01*
X135358000Y-116710000D02*
X135028000Y-116470000D01*
X135358000Y-116230000D01*
X135358000Y-116710000D01*
G36*
X135358000Y-116710000D02*
G01*
X135028000Y-116470000D01*
X135358000Y-116230000D01*
X135358000Y-116710000D01*
G37*
%TO.C,CON6*%
X74442500Y-54255000D02*
X83562500Y-54255000D01*
X74442500Y-69755000D02*
X74442500Y-54255000D01*
X75752500Y-55555000D02*
X82252500Y-55555000D01*
X75752500Y-68455000D02*
X75752500Y-55555000D01*
X82252500Y-55555000D02*
X82252500Y-59955000D01*
X82252500Y-59955000D02*
X82252500Y-59955000D01*
X82252500Y-59955000D02*
X83562500Y-59955000D01*
X82252500Y-64055000D02*
X82252500Y-68455000D01*
X82252500Y-68455000D02*
X75752500Y-68455000D01*
X83562500Y-54255000D02*
X83562500Y-69755000D01*
X83562500Y-64055000D02*
X82252500Y-64055000D01*
X83562500Y-69755000D02*
X74442500Y-69755000D01*
X83952500Y-64545000D02*
X84952500Y-65045000D01*
X84952500Y-64045000D02*
X83952500Y-64545000D01*
X84952500Y-65045000D02*
X84952500Y-64045000D01*
%TO.C,C14*%
X157008580Y-77694000D02*
X156727420Y-77694000D01*
X157008580Y-78714000D02*
X156727420Y-78714000D01*
%TO.C,C16*%
X123006000Y-68490580D02*
X123006000Y-68209420D01*
X124026000Y-68490580D02*
X124026000Y-68209420D01*
%TO.C,R13*%
X161299420Y-72106000D02*
X161580580Y-72106000D01*
X161299420Y-73126000D02*
X161580580Y-73126000D01*
%TO.C,C3*%
X134551420Y-80432000D02*
X134832580Y-80432000D01*
X134551420Y-81452000D02*
X134832580Y-81452000D01*
%TO.C,C1*%
X129979420Y-75352000D02*
X130260580Y-75352000D01*
X129979420Y-76372000D02*
X130260580Y-76372000D01*
%TO.C,R11*%
X146787742Y-77879500D02*
X147262258Y-77879500D01*
X146787742Y-78924500D02*
X147262258Y-78924500D01*
%TO.C,R5*%
X113925258Y-63711500D02*
X113450742Y-63711500D01*
X113925258Y-64756500D02*
X113450742Y-64756500D01*
D12*
%TO.C,IC2*%
X108881000Y-69723000D02*
X109991000Y-69723000D01*
X108881000Y-73873000D02*
X108881000Y-69723000D01*
X109991000Y-73873000D02*
X108881000Y-73873000D01*
X117831000Y-69723000D02*
X116721000Y-69723000D01*
X117831000Y-73873000D02*
X116721000Y-73873000D01*
X117831000Y-73873000D02*
X117831000Y-69723000D01*
D15*
X109991000Y-74435500D02*
X109661000Y-74675500D01*
X109661000Y-74195500D01*
X109991000Y-74435500D01*
G36*
X109991000Y-74435500D02*
G01*
X109661000Y-74675500D01*
X109661000Y-74195500D01*
X109991000Y-74435500D01*
G37*
%TO.C,CON1*%
X122420000Y-51284000D02*
X122420000Y-49954000D01*
X123750000Y-51284000D02*
X122420000Y-51284000D01*
X125020000Y-48624000D02*
X127620000Y-48624000D01*
X125020000Y-51284000D02*
X125020000Y-48624000D01*
X125020000Y-51284000D02*
X127620000Y-51284000D01*
X127620000Y-51284000D02*
X127620000Y-48624000D01*
%TO.C,R14*%
X161299420Y-70582000D02*
X161580580Y-70582000D01*
X161299420Y-71602000D02*
X161580580Y-71602000D01*
%TO.C,C9*%
X150948420Y-77892000D02*
X151229580Y-77892000D01*
X150948420Y-78912000D02*
X151229580Y-78912000D01*
%TO.C,D1*%
X159796000Y-73798000D02*
X159796000Y-75498000D01*
X159796000Y-73798000D02*
X162456000Y-73798000D01*
X159796000Y-75498000D02*
X162456000Y-75498000D01*
%TO.C,R21*%
X109894742Y-65997500D02*
X110369258Y-65997500D01*
X109894742Y-67042500D02*
X110369258Y-67042500D01*
%TO.C,D2*%
X158478000Y-73798000D02*
X155818000Y-73798000D01*
X158478000Y-75498000D02*
X155818000Y-75498000D01*
X158478000Y-75498000D02*
X158478000Y-73798000D01*
%TO.C,OSC1*%
X136692000Y-76244000D02*
X132692000Y-76244000D01*
X136692000Y-79544000D02*
X136692000Y-76244000D01*
%TO.C,C4*%
X137738000Y-77753420D02*
X137738000Y-78034580D01*
X138758000Y-77753420D02*
X138758000Y-78034580D01*
%TO.C,CON5*%
X148880000Y-51284000D02*
X148880000Y-49954000D01*
X150210000Y-51284000D02*
X148880000Y-51284000D01*
X151480000Y-48624000D02*
X159160000Y-48624000D01*
X151480000Y-51284000D02*
X151480000Y-48624000D01*
X151480000Y-51284000D02*
X159160000Y-51284000D01*
X159160000Y-51284000D02*
X159160000Y-48624000D01*
%TO.C,LED2*%
X113903000Y-78791000D02*
X113903000Y-80261000D01*
X113903000Y-80261000D02*
X116188000Y-80261000D01*
X116188000Y-78791000D02*
X113903000Y-78791000D01*
%TO.C,R3*%
X111594742Y-79003500D02*
X112069258Y-79003500D01*
X111594742Y-80048500D02*
X112069258Y-80048500D01*
%TO.C,R7*%
X151265500Y-72378742D02*
X151265500Y-72853258D01*
X152310500Y-72378742D02*
X152310500Y-72853258D01*
%TO.C,C6*%
X113547420Y-60676000D02*
X113828580Y-60676000D01*
X113547420Y-61696000D02*
X113828580Y-61696000D01*
%TO.C,R6*%
X149741500Y-72378742D02*
X149741500Y-72853258D01*
X150786500Y-72378742D02*
X150786500Y-72853258D01*
%TO.C,C18*%
X117418000Y-78877420D02*
X117418000Y-79158580D01*
X118438000Y-78877420D02*
X118438000Y-79158580D01*
%TO.C,C10*%
X147165580Y-76368000D02*
X146884420Y-76368000D01*
X147165580Y-77388000D02*
X146884420Y-77388000D01*
%TO.C,CON4*%
X93420000Y-51284000D02*
X93420000Y-49954000D01*
X94750000Y-51284000D02*
X93420000Y-51284000D01*
X96020000Y-48624000D02*
X98620000Y-48624000D01*
X96020000Y-51284000D02*
X96020000Y-48624000D01*
X96020000Y-51284000D02*
X98620000Y-51284000D01*
X98620000Y-51284000D02*
X98620000Y-48624000D01*
%TO.C,Q1*%
X155308000Y-81252000D02*
X155308000Y-80602000D01*
X155308000Y-81252000D02*
X155308000Y-81902000D01*
X158428000Y-81252000D02*
X158428000Y-80602000D01*
X158428000Y-81252000D02*
X158428000Y-81902000D01*
X158708000Y-80329500D02*
X158378000Y-80089500D01*
X158708000Y-79849500D01*
X158708000Y-80329500D01*
G36*
X158708000Y-80329500D02*
G01*
X158378000Y-80089500D01*
X158708000Y-79849500D01*
X158708000Y-80329500D01*
G37*
%TO.C,R16*%
X106771000Y-79079258D02*
X106771000Y-78604742D01*
X107816000Y-79079258D02*
X107816000Y-78604742D01*
%TO.C,C2*%
X131276580Y-62252000D02*
X130995420Y-62252000D01*
X131276580Y-63272000D02*
X130995420Y-63272000D01*
%TO.C,Q2*%
X159880000Y-81252000D02*
X159880000Y-80602000D01*
X159880000Y-81252000D02*
X159880000Y-81902000D01*
X163000000Y-81252000D02*
X163000000Y-80602000D01*
X163000000Y-81252000D02*
X163000000Y-81902000D01*
X163280000Y-80329500D02*
X162950000Y-80089500D01*
X163280000Y-79849500D01*
X163280000Y-80329500D01*
G36*
X163280000Y-80329500D02*
G01*
X162950000Y-80089500D01*
X163280000Y-79849500D01*
X163280000Y-80329500D01*
G37*
%TO.C,IC4*%
X99269000Y-72308000D02*
X99539000Y-72308000D01*
X99269000Y-78728000D02*
X99269000Y-72308000D01*
X106169000Y-72308000D02*
X105899000Y-72308000D01*
X106169000Y-78728000D02*
X106169000Y-72308000D01*
X106189000Y-71128000D02*
X105859000Y-70888000D01*
X106189000Y-70648000D01*
X106189000Y-71128000D01*
G36*
X106189000Y-71128000D02*
G01*
X105859000Y-70888000D01*
X106189000Y-70648000D01*
X106189000Y-71128000D01*
G37*
D12*
%TO.C,IC1*%
X126495000Y-65633000D02*
X126495000Y-65958000D01*
X126495000Y-65633000D02*
X126820000Y-65633000D01*
X126495000Y-72883000D02*
X126495000Y-72558000D01*
X126495000Y-72883000D02*
X126720000Y-72883000D01*
X133745000Y-65633000D02*
X133420000Y-65633000D01*
X133745000Y-65633000D02*
X133745000Y-65958000D01*
X133745000Y-72883000D02*
X133420000Y-72883000D01*
X133745000Y-72883000D02*
X133745000Y-72558000D01*
D15*
X126780000Y-73648000D02*
X126310000Y-73988000D01*
X126310000Y-73308000D01*
X126780000Y-73648000D01*
G36*
X126780000Y-73648000D02*
G01*
X126310000Y-73988000D01*
X126310000Y-73308000D01*
X126780000Y-73648000D01*
G37*
%TO.C,R2*%
X112069258Y-76463500D02*
X111594742Y-76463500D01*
X112069258Y-77508500D02*
X111594742Y-77508500D01*
%TO.C,CON3*%
X103380000Y-51330000D02*
X103380000Y-50000000D01*
X104710000Y-51330000D02*
X103380000Y-51330000D01*
X105980000Y-48670000D02*
X113660000Y-48670000D01*
X105980000Y-51330000D02*
X105980000Y-48670000D01*
X105980000Y-51330000D02*
X113660000Y-51330000D01*
X113660000Y-51330000D02*
X113660000Y-48670000D01*
%TO.C,LED3*%
X106558500Y-73801000D02*
X106558500Y-76086000D01*
X108028500Y-73801000D02*
X106558500Y-73801000D01*
X108028500Y-76086000D02*
X108028500Y-73801000D01*
%TO.C,R18*%
X157105258Y-76157500D02*
X156630742Y-76157500D01*
X157105258Y-77202500D02*
X156630742Y-77202500D01*
%TO.C,R12*%
X122993500Y-65064742D02*
X122993500Y-65539258D01*
X124038500Y-65064742D02*
X124038500Y-65539258D01*
%TO.C,LED1*%
X113903000Y-76251000D02*
X113903000Y-77721000D01*
X113903000Y-77721000D02*
X116188000Y-77721000D01*
X116188000Y-76251000D02*
X113903000Y-76251000D01*
%TO.C,R10*%
X151326258Y-76355500D02*
X150851742Y-76355500D01*
X151326258Y-77400500D02*
X150851742Y-77400500D01*
%TO.C,C15*%
X161580580Y-77694000D02*
X161299420Y-77694000D01*
X161580580Y-78714000D02*
X161299420Y-78714000D01*
%TO.C,R8*%
X148217500Y-72378742D02*
X148217500Y-72853258D01*
X149262500Y-72378742D02*
X149262500Y-72853258D01*
%TO.C,R17*%
X161677258Y-76157500D02*
X161202742Y-76157500D01*
X161677258Y-77202500D02*
X161202742Y-77202500D01*
%TO.C,C8*%
X147165580Y-74844000D02*
X146884420Y-74844000D01*
X147165580Y-75864000D02*
X146884420Y-75864000D01*
%TO.C,R20*%
X157008580Y-70582000D02*
X156727420Y-70582000D01*
X157008580Y-71602000D02*
X156727420Y-71602000D01*
D16*
%TO.C,G\u002A\u002A\u002A*%
G36*
X171613442Y-76770773D02*
G01*
X171678074Y-76789517D01*
X171688436Y-76794137D01*
X171728812Y-76821015D01*
X171793079Y-76872557D01*
X171874220Y-76942266D01*
X171965215Y-77023646D01*
X172059046Y-77110203D01*
X172148696Y-77195438D01*
X172227144Y-77272857D01*
X172287374Y-77335963D01*
X172322366Y-77378260D01*
X172326088Y-77384327D01*
X172335698Y-77443314D01*
X172321456Y-77538423D01*
X172307462Y-77606071D01*
X172307862Y-77647905D01*
X172326436Y-77681268D01*
X172360382Y-77716962D01*
X172404751Y-77756855D01*
X172441968Y-77770843D01*
X172492973Y-77764303D01*
X172519418Y-77757786D01*
X172591156Y-77745625D01*
X172653918Y-77744973D01*
X172666753Y-77747200D01*
X172705187Y-77769633D01*
X172765239Y-77819555D01*
X172840382Y-77890058D01*
X172924089Y-77974233D01*
X173009833Y-78065174D01*
X173091085Y-78155971D01*
X173161317Y-78239719D01*
X173214003Y-78309508D01*
X173241220Y-78355118D01*
X173266484Y-78440880D01*
X173254723Y-78505468D01*
X173204739Y-78554013D01*
X173193174Y-78560602D01*
X173136066Y-78575208D01*
X173036765Y-78580986D01*
X172896631Y-78577971D01*
X172717024Y-78566198D01*
X172499302Y-78545702D01*
X172465349Y-78542083D01*
X172105143Y-78503188D01*
X171788107Y-78820790D01*
X171680305Y-78929269D01*
X171600241Y-79011632D01*
X171543947Y-79072909D01*
X171507456Y-79118131D01*
X171486801Y-79152327D01*
X171478013Y-79180528D01*
X171477126Y-79207765D01*
X171477623Y-79214435D01*
X171476042Y-79270787D01*
X171454709Y-79298545D01*
X171441329Y-79304076D01*
X171386475Y-79308683D01*
X171360555Y-79303120D01*
X171316587Y-79308569D01*
X171255965Y-79353336D01*
X171247509Y-79361372D01*
X171199526Y-79415282D01*
X171181992Y-79459654D01*
X171184223Y-79493334D01*
X171179128Y-79555433D01*
X171141518Y-79593540D01*
X171080618Y-79598930D01*
X171074125Y-79597466D01*
X171021071Y-79604317D01*
X170965201Y-79640318D01*
X170918958Y-79692874D01*
X170894782Y-79749391D01*
X170895558Y-79778220D01*
X170893535Y-79839177D01*
X170857942Y-79878880D01*
X170798115Y-79887651D01*
X170791112Y-79886445D01*
X170736748Y-79893871D01*
X170679154Y-79928065D01*
X170630287Y-79977642D01*
X170602103Y-80031216D01*
X170601634Y-80066868D01*
X170608249Y-80131943D01*
X170580748Y-80169977D01*
X170521867Y-80177560D01*
X170513753Y-80176415D01*
X170461568Y-80174695D01*
X170417768Y-80194891D01*
X170371364Y-80237482D01*
X170325982Y-80292396D01*
X170311293Y-80337036D01*
X170314819Y-80365802D01*
X170311879Y-80429335D01*
X170292243Y-80457917D01*
X170253417Y-80489066D01*
X170219388Y-80487746D01*
X170192288Y-80472733D01*
X170155199Y-80472518D01*
X170107630Y-80500090D01*
X170060567Y-80544320D01*
X170024998Y-80594081D01*
X170011912Y-80638243D01*
X170015437Y-80651854D01*
X170027132Y-80700932D01*
X170023423Y-80725322D01*
X169989916Y-80762117D01*
X169939344Y-80776766D01*
X169895034Y-80763445D01*
X169867938Y-80757530D01*
X169828857Y-80781708D01*
X169791154Y-80817770D01*
X169742560Y-80875866D01*
X169722764Y-80926418D01*
X169722142Y-80970844D01*
X169720570Y-81026377D01*
X169698942Y-81053989D01*
X169683483Y-81060359D01*
X169627715Y-81062945D01*
X169598618Y-81053968D01*
X169579761Y-81052413D01*
X169546635Y-81062570D01*
X169495624Y-81086443D01*
X169423109Y-81126038D01*
X169325474Y-81183362D01*
X169199103Y-81260420D01*
X169040377Y-81359218D01*
X168981112Y-81396412D01*
X168836657Y-81486715D01*
X168703712Y-81568879D01*
X168587081Y-81640009D01*
X168491568Y-81697209D01*
X168421978Y-81737586D01*
X168383115Y-81758244D01*
X168377143Y-81760343D01*
X168341898Y-81746574D01*
X168314754Y-81724913D01*
X168291429Y-81682457D01*
X168292163Y-81653254D01*
X168311497Y-81614846D01*
X168351076Y-81545174D01*
X168407214Y-81450159D01*
X168448482Y-81381726D01*
X168658364Y-81381726D01*
X168665454Y-81379846D01*
X168685116Y-81369342D01*
X168721820Y-81347590D01*
X168780039Y-81311969D01*
X168864244Y-81259857D01*
X168978906Y-81188631D01*
X169070000Y-81132015D01*
X169183435Y-81061292D01*
X169284727Y-80997703D01*
X169367459Y-80945313D01*
X169425216Y-80908182D01*
X169451570Y-80890385D01*
X169457253Y-80867839D01*
X169441899Y-80821804D01*
X169403566Y-80747589D01*
X169365445Y-80682077D01*
X169316066Y-80602372D01*
X169273786Y-80539484D01*
X169244349Y-80501673D01*
X169235007Y-80494445D01*
X169212057Y-80511037D01*
X169171086Y-80561383D01*
X169111537Y-80646337D01*
X169032853Y-80766753D01*
X168934477Y-80923484D01*
X168815852Y-81117386D01*
X168676421Y-81349312D01*
X168664013Y-81370101D01*
X168659374Y-81377604D01*
X168658364Y-81381726D01*
X168448482Y-81381726D01*
X168476225Y-81335722D01*
X168554423Y-81207783D01*
X168638122Y-81072265D01*
X168723635Y-80935087D01*
X168807277Y-80802170D01*
X168885362Y-80679436D01*
X168954204Y-80572804D01*
X169010116Y-80488197D01*
X169049412Y-80431536D01*
X169065222Y-80411498D01*
X169109947Y-80350666D01*
X169371406Y-80350666D01*
X169486865Y-80544777D01*
X169536297Y-80625900D01*
X169577834Y-80690382D01*
X169606124Y-80730125D01*
X169615136Y-80738889D01*
X169636793Y-80724309D01*
X169677288Y-80687283D01*
X169701567Y-80662934D01*
X169775186Y-80586979D01*
X169659990Y-80396268D01*
X169609974Y-80315997D01*
X169567433Y-80252395D01*
X169537985Y-80213607D01*
X169528424Y-80205556D01*
X169504417Y-80220184D01*
X169462765Y-80257132D01*
X169441729Y-80278111D01*
X169371406Y-80350666D01*
X169109947Y-80350666D01*
X169116205Y-80342155D01*
X169134594Y-80268630D01*
X169135096Y-80255943D01*
X169138900Y-80201230D01*
X169156377Y-80177755D01*
X169200834Y-80172313D01*
X169219453Y-80172223D01*
X169308866Y-80152184D01*
X169378338Y-80098075D01*
X169397257Y-80061112D01*
X169662243Y-80061112D01*
X169777233Y-80255000D01*
X169826472Y-80336159D01*
X169867754Y-80400740D01*
X169895751Y-80440604D01*
X169904530Y-80449444D01*
X169925796Y-80435192D01*
X169966216Y-80398273D01*
X169992491Y-80371946D01*
X170068145Y-80293891D01*
X170025872Y-80221946D01*
X169991208Y-80164372D01*
X169943998Y-80087716D01*
X169903234Y-80022528D01*
X169822869Y-79895055D01*
X169742556Y-79978083D01*
X169662243Y-80061112D01*
X169397257Y-80061112D01*
X169418862Y-80018901D01*
X169425556Y-79966120D01*
X169428361Y-79911817D01*
X169445521Y-79888671D01*
X169490155Y-79883410D01*
X169507391Y-79883334D01*
X169589231Y-79866775D01*
X169656963Y-79823406D01*
X169696986Y-79767940D01*
X169970000Y-79767940D01*
X169980858Y-79794561D01*
X170010084Y-79849764D01*
X170052657Y-79924338D01*
X170083713Y-79976530D01*
X170197426Y-80164787D01*
X170272602Y-80091923D01*
X170317160Y-80044753D01*
X170344115Y-80008534D01*
X170347778Y-79998727D01*
X170336920Y-79972107D01*
X170307695Y-79916904D01*
X170265122Y-79842329D01*
X170234065Y-79790138D01*
X170120353Y-79601881D01*
X170045177Y-79674744D01*
X170000618Y-79721915D01*
X169973663Y-79758133D01*
X169970000Y-79767940D01*
X169696986Y-79767940D01*
X169700778Y-79762685D01*
X169710870Y-79694073D01*
X169709836Y-79688068D01*
X169712196Y-79624624D01*
X169742187Y-79584421D01*
X169790801Y-79575792D01*
X169819893Y-79586249D01*
X169852886Y-79595474D01*
X169888120Y-79580914D01*
X169938378Y-79537230D01*
X169939205Y-79536429D01*
X169985979Y-79485425D01*
X169990662Y-79474887D01*
X170258889Y-79474887D01*
X170269630Y-79499673D01*
X170298573Y-79553498D01*
X170340804Y-79627444D01*
X170373465Y-79682766D01*
X170488041Y-79874476D01*
X170571587Y-79792895D01*
X170655134Y-79711314D01*
X170565980Y-79563991D01*
X170518111Y-79485222D01*
X170475082Y-79414992D01*
X170445502Y-79367349D01*
X170443575Y-79364305D01*
X170410324Y-79311942D01*
X170334607Y-79385331D01*
X170289982Y-79431710D01*
X170262780Y-79466011D01*
X170258889Y-79474887D01*
X169990662Y-79474887D01*
X170004437Y-79443892D01*
X170001918Y-79394768D01*
X170001380Y-79391844D01*
X169997795Y-79337310D01*
X170018098Y-79305826D01*
X170034553Y-79295576D01*
X170094629Y-79283107D01*
X170122312Y-79292709D01*
X170167408Y-79294697D01*
X170215756Y-79264103D01*
X170258367Y-79211069D01*
X170271262Y-79180857D01*
X170541460Y-79180857D01*
X170660505Y-79381942D01*
X170779551Y-79583028D01*
X170863369Y-79501182D01*
X170947187Y-79419336D01*
X170900735Y-79340224D01*
X170828540Y-79217980D01*
X170775501Y-79130010D01*
X170738838Y-79071934D01*
X170715770Y-79039372D01*
X170703520Y-79027941D01*
X170702501Y-79027778D01*
X170680951Y-79042360D01*
X170640469Y-79079420D01*
X170615645Y-79104318D01*
X170541460Y-79180857D01*
X170271262Y-79180857D01*
X170286252Y-79145737D01*
X170292223Y-79101002D01*
X170304962Y-79030874D01*
X170338780Y-78991056D01*
X170387083Y-78987217D01*
X170411452Y-78998530D01*
X170440937Y-79009484D01*
X170472041Y-78998127D01*
X170516380Y-78959113D01*
X170532449Y-78942812D01*
X170579693Y-78888862D01*
X170580280Y-78887588D01*
X170834595Y-78887588D01*
X170949533Y-79079905D01*
X170999171Y-79160618D01*
X171041217Y-79224654D01*
X171070171Y-79263876D01*
X171079543Y-79272223D01*
X171102654Y-79257609D01*
X171143934Y-79220592D01*
X171166677Y-79197873D01*
X171238740Y-79123524D01*
X171123801Y-78931207D01*
X171074163Y-78850493D01*
X171032117Y-78786458D01*
X171003163Y-78747236D01*
X170993791Y-78738889D01*
X170970680Y-78753503D01*
X170929400Y-78790520D01*
X170906657Y-78813239D01*
X170834595Y-78887588D01*
X170580280Y-78887588D01*
X170596846Y-78851660D01*
X170589981Y-78822517D01*
X170581201Y-78775145D01*
X170599983Y-78731570D01*
X170635403Y-78700818D01*
X170676534Y-78691912D01*
X170712454Y-78713876D01*
X170715690Y-78718681D01*
X170739421Y-78719450D01*
X170785076Y-78687943D01*
X170815929Y-78659662D01*
X170865682Y-78606560D01*
X170872288Y-78594445D01*
X171126390Y-78594445D01*
X171242135Y-78788889D01*
X171291425Y-78870041D01*
X171332501Y-78934585D01*
X171360109Y-78974444D01*
X171368599Y-78983334D01*
X171386831Y-78968385D01*
X171431744Y-78926586D01*
X171498585Y-78862508D01*
X171582601Y-78780720D01*
X171679040Y-78685795D01*
X171714508Y-78650652D01*
X171825953Y-78540390D01*
X171910905Y-78457806D01*
X171974238Y-78399091D01*
X172020826Y-78360436D01*
X172055544Y-78338033D01*
X172083266Y-78328072D01*
X172108865Y-78326744D01*
X172126516Y-78328684D01*
X172195791Y-78337447D01*
X172291555Y-78348326D01*
X172406150Y-78360579D01*
X172531920Y-78373466D01*
X172661206Y-78386247D01*
X172786352Y-78398180D01*
X172899700Y-78408525D01*
X172993594Y-78416541D01*
X173060376Y-78421488D01*
X173092388Y-78422625D01*
X173094029Y-78422268D01*
X173081820Y-78404810D01*
X173043039Y-78361621D01*
X172982805Y-78298134D01*
X172906234Y-78219781D01*
X172851580Y-78164903D01*
X172601318Y-77915350D01*
X172484427Y-77942332D01*
X172367536Y-77969314D01*
X172232615Y-77834393D01*
X172097695Y-77699472D01*
X172125533Y-77583430D01*
X172153371Y-77467387D01*
X171889464Y-77202547D01*
X171802482Y-77117242D01*
X171726829Y-77046817D01*
X171667671Y-76995777D01*
X171630172Y-76968622D01*
X171619261Y-76967012D01*
X171619812Y-76996780D01*
X171624834Y-77063986D01*
X171633703Y-77161920D01*
X171645795Y-77283870D01*
X171660485Y-77423123D01*
X171668414Y-77495381D01*
X171723862Y-77994445D01*
X171425126Y-78294445D01*
X171126390Y-78594445D01*
X170872288Y-78594445D01*
X170885635Y-78569966D01*
X170881198Y-78539266D01*
X170879258Y-78535426D01*
X170870865Y-78477761D01*
X170882481Y-78447442D01*
X170910403Y-78415147D01*
X170955039Y-78408991D01*
X170980006Y-78412183D01*
X171009615Y-78414759D01*
X171038028Y-78409068D01*
X171071300Y-78390668D01*
X171115484Y-78355117D01*
X171176635Y-78297976D01*
X171260805Y-78214801D01*
X171292981Y-78182573D01*
X171533587Y-77941219D01*
X171495971Y-77556721D01*
X171476900Y-77347389D01*
X171465034Y-77177889D01*
X171460707Y-77044145D01*
X171464255Y-76942076D01*
X171476016Y-76867607D01*
X171496325Y-76816658D01*
X171525517Y-76785151D01*
X171560816Y-76769753D01*
X171613442Y-76770773D01*
G37*
D15*
%TO.C,R9*%
X151326258Y-74831500D02*
X150851742Y-74831500D01*
X151326258Y-75876500D02*
X150851742Y-75876500D01*
%TO.C,IC3*%
X149311000Y-79840000D02*
X147811000Y-79840000D01*
X149311000Y-79840000D02*
X150811000Y-79840000D01*
X149311000Y-83060000D02*
X147811000Y-83060000D01*
X149311000Y-83060000D02*
X150811000Y-83060000D01*
X151763500Y-83215000D02*
X151283500Y-83215000D01*
X151523500Y-82885000D01*
X151763500Y-83215000D01*
G36*
X151763500Y-83215000D02*
G01*
X151283500Y-83215000D01*
X151523500Y-82885000D01*
X151763500Y-83215000D01*
G37*
%TO.C,R4*%
X113925258Y-62187500D02*
X113450742Y-62187500D01*
X113925258Y-63232500D02*
X113450742Y-63232500D01*
D14*
%TO.C,SW4*%
X118460000Y-61544000D02*
X118460000Y-65444000D01*
X118460000Y-61544000D02*
X118910000Y-61544000D01*
X118460000Y-65444000D02*
X118910000Y-65444000D01*
X121460000Y-61544000D02*
X121010000Y-61544000D01*
X121460000Y-61544000D02*
X121460000Y-65444000D01*
X121460000Y-65444000D02*
X121010000Y-65444000D01*
X120810000Y-63494000D02*
G75*
G02*
X119110000Y-63494000I-850000J0D01*
G01*
X119110000Y-63494000D02*
G75*
G02*
X120810000Y-63494000I850000J0D01*
G01*
D15*
%TO.C,R19*%
X157008580Y-72106000D02*
X156727420Y-72106000D01*
X157008580Y-73126000D02*
X156727420Y-73126000D01*
%TO.C,C5*%
X113547420Y-66772000D02*
X113828580Y-66772000D01*
X113547420Y-67792000D02*
X113828580Y-67792000D01*
%TO.C,SW5*%
X119064000Y-70554500D02*
X119064000Y-80454500D01*
X120849000Y-73474500D02*
X120849000Y-77534500D01*
X120849000Y-77534500D02*
X122119000Y-77534500D01*
X120919000Y-73474500D02*
X120919000Y-74827833D01*
X121039000Y-73474500D02*
X121039000Y-74827833D01*
X121159000Y-73474500D02*
X121159000Y-74827833D01*
X121279000Y-73474500D02*
X121279000Y-74827833D01*
X121399000Y-73474500D02*
X121399000Y-74827833D01*
X121519000Y-73474500D02*
X121519000Y-74827833D01*
X121639000Y-73474500D02*
X121639000Y-74827833D01*
X121759000Y-73474500D02*
X121759000Y-74827833D01*
X121879000Y-73474500D02*
X121879000Y-74827833D01*
X121999000Y-73474500D02*
X121999000Y-74827833D01*
X122119000Y-73474500D02*
X120849000Y-73474500D01*
X122119000Y-74827833D02*
X120849000Y-74827833D01*
X122119000Y-77534500D02*
X122119000Y-73474500D01*
X123904000Y-70554500D02*
X119064000Y-70554500D01*
X123904000Y-70554500D02*
X123904000Y-80454500D01*
X123904000Y-80454500D02*
X119064000Y-80454500D01*
X124144000Y-70314500D02*
X122761000Y-70314500D01*
X124144000Y-70314500D02*
X124144000Y-71698500D01*
%TO.C,C11*%
X104910580Y-67740000D02*
X104629420Y-67740000D01*
X104910580Y-68760000D02*
X104629420Y-68760000D01*
%TO.C,R1*%
X126257258Y-83977500D02*
X125782742Y-83977500D01*
X126257258Y-85022500D02*
X125782742Y-85022500D01*
%TO.C,C7*%
X113547420Y-65248000D02*
X113828580Y-65248000D01*
X113547420Y-66268000D02*
X113828580Y-66268000D01*
%TO.C,C17*%
X100546420Y-67732000D02*
X100827580Y-67732000D01*
X100546420Y-68752000D02*
X100827580Y-68752000D01*
%TO.C,R15*%
X120961500Y-68587258D02*
X120961500Y-68112742D01*
X122006500Y-68587258D02*
X122006500Y-68112742D01*
%TO.C,R22*%
X109894742Y-64473500D02*
X110369258Y-64473500D01*
X109894742Y-65518500D02*
X110369258Y-65518500D01*
%TO.C,Q201*%
X89598000Y-112554000D02*
X89598000Y-111904000D01*
X89598000Y-112554000D02*
X89598000Y-113204000D01*
X92718000Y-112554000D02*
X92718000Y-111904000D01*
X92718000Y-112554000D02*
X92718000Y-113204000D01*
X89648000Y-113716500D02*
X89318000Y-113956500D01*
X89318000Y-113476500D01*
X89648000Y-113716500D01*
G36*
X89648000Y-113716500D02*
G01*
X89318000Y-113956500D01*
X89318000Y-113476500D01*
X89648000Y-113716500D01*
G37*
%TO.C,CON204*%
X77130000Y-126440000D02*
X77130000Y-129100000D01*
X77130000Y-129100000D02*
X82330000Y-129100000D01*
X78080000Y-126042929D02*
X78080000Y-126440000D01*
X78080000Y-135100000D02*
X78080000Y-129100000D01*
X78840000Y-126042929D02*
X78840000Y-126440000D01*
X78840000Y-129100000D02*
X78840000Y-135100000D01*
X78840000Y-135100000D02*
X78080000Y-135100000D01*
X79730000Y-126440000D02*
X79730000Y-129100000D01*
X80620000Y-126110000D02*
X80620000Y-126440000D01*
X80620000Y-135100000D02*
X80620000Y-129100000D01*
X80720000Y-129100000D02*
X80720000Y-135100000D01*
X80840000Y-129100000D02*
X80840000Y-135100000D01*
X80960000Y-129100000D02*
X80960000Y-135100000D01*
X81000000Y-123730000D02*
X82270000Y-123730000D01*
X81080000Y-129100000D02*
X81080000Y-135100000D01*
X81200000Y-129100000D02*
X81200000Y-135100000D01*
X81320000Y-129100000D02*
X81320000Y-135100000D01*
X81380000Y-126110000D02*
X81380000Y-126440000D01*
X81380000Y-129100000D02*
X81380000Y-135100000D01*
X81380000Y-135100000D02*
X80620000Y-135100000D01*
X82270000Y-123730000D02*
X82270000Y-125000000D01*
X82330000Y-126440000D02*
X77130000Y-126440000D01*
X82330000Y-129100000D02*
X82330000Y-126440000D01*
%TO.C,F201*%
X91912779Y-108240000D02*
X91587221Y-108240000D01*
X91912779Y-109260000D02*
X91587221Y-109260000D01*
%TO.C,R201*%
X87841500Y-112062742D02*
X87841500Y-112537258D01*
X88886500Y-112062742D02*
X88886500Y-112537258D01*
%TO.C,CON202*%
X75873000Y-108003000D02*
X75873000Y-110663000D01*
X75873000Y-110663000D02*
X83613000Y-110663000D01*
X75933000Y-113373000D02*
X75933000Y-112103000D01*
X76823000Y-102003000D02*
X77583000Y-102003000D01*
X76823000Y-108003000D02*
X76823000Y-102003000D01*
X76823000Y-110993000D02*
X76823000Y-110663000D01*
X76883000Y-108003000D02*
X76883000Y-102003000D01*
X77003000Y-108003000D02*
X77003000Y-102003000D01*
X77123000Y-108003000D02*
X77123000Y-102003000D01*
X77203000Y-113373000D02*
X75933000Y-113373000D01*
X77243000Y-108003000D02*
X77243000Y-102003000D01*
X77363000Y-108003000D02*
X77363000Y-102003000D01*
X77483000Y-108003000D02*
X77483000Y-102003000D01*
X77583000Y-102003000D02*
X77583000Y-108003000D01*
X77583000Y-110993000D02*
X77583000Y-110663000D01*
X78473000Y-110663000D02*
X78473000Y-108003000D01*
X79363000Y-102003000D02*
X80123000Y-102003000D01*
X79363000Y-108003000D02*
X79363000Y-102003000D01*
X79363000Y-111060071D02*
X79363000Y-110663000D01*
X80123000Y-102003000D02*
X80123000Y-108003000D01*
X80123000Y-111060071D02*
X80123000Y-110663000D01*
X81013000Y-110663000D02*
X81013000Y-108003000D01*
X81903000Y-102003000D02*
X82663000Y-102003000D01*
X81903000Y-108003000D02*
X81903000Y-102003000D01*
X81903000Y-111060071D02*
X81903000Y-110663000D01*
X82663000Y-102003000D02*
X82663000Y-108003000D01*
X82663000Y-111060071D02*
X82663000Y-110663000D01*
X83613000Y-108003000D02*
X75873000Y-108003000D01*
X83613000Y-110663000D02*
X83613000Y-108003000D01*
%TO.C,Q202*%
X86438000Y-117890000D02*
X86708000Y-117890000D01*
X86438000Y-124310000D02*
X86438000Y-117890000D01*
X93338000Y-117890000D02*
X93068000Y-117890000D01*
X93338000Y-124310000D02*
X93338000Y-117890000D01*
X93358000Y-116710000D02*
X93028000Y-116470000D01*
X93358000Y-116230000D01*
X93358000Y-116710000D01*
G36*
X93358000Y-116710000D02*
G01*
X93028000Y-116470000D01*
X93358000Y-116230000D01*
X93358000Y-116710000D01*
G37*
%TO.C,CON201*%
X95426000Y-108003000D02*
X95426000Y-110663000D01*
X95426000Y-110663000D02*
X105706000Y-110663000D01*
X95486000Y-113373000D02*
X95486000Y-112103000D01*
X96376000Y-102003000D02*
X97136000Y-102003000D01*
X96376000Y-108003000D02*
X96376000Y-102003000D01*
X96376000Y-110993000D02*
X96376000Y-110663000D01*
X96436000Y-108003000D02*
X96436000Y-102003000D01*
X96556000Y-108003000D02*
X96556000Y-102003000D01*
X96676000Y-108003000D02*
X96676000Y-102003000D01*
X96756000Y-113373000D02*
X95486000Y-113373000D01*
X96796000Y-108003000D02*
X96796000Y-102003000D01*
X96916000Y-108003000D02*
X96916000Y-102003000D01*
X97036000Y-108003000D02*
X97036000Y-102003000D01*
X97136000Y-102003000D02*
X97136000Y-108003000D01*
X97136000Y-110993000D02*
X97136000Y-110663000D01*
X98026000Y-110663000D02*
X98026000Y-108003000D01*
X98916000Y-102003000D02*
X99676000Y-102003000D01*
X98916000Y-108003000D02*
X98916000Y-102003000D01*
X98916000Y-111060071D02*
X98916000Y-110663000D01*
X99676000Y-102003000D02*
X99676000Y-108003000D01*
X99676000Y-111060071D02*
X99676000Y-110663000D01*
X100566000Y-110663000D02*
X100566000Y-108003000D01*
X101456000Y-102003000D02*
X102216000Y-102003000D01*
X101456000Y-108003000D02*
X101456000Y-102003000D01*
X101456000Y-111060071D02*
X101456000Y-110663000D01*
X102216000Y-102003000D02*
X102216000Y-108003000D01*
X102216000Y-111060071D02*
X102216000Y-110663000D01*
X103106000Y-110663000D02*
X103106000Y-108003000D01*
X103996000Y-102003000D02*
X104756000Y-102003000D01*
X103996000Y-108003000D02*
X103996000Y-102003000D01*
X103996000Y-111060071D02*
X103996000Y-110663000D01*
X104756000Y-102003000D02*
X104756000Y-108003000D01*
X104756000Y-111060071D02*
X104756000Y-110663000D01*
X105706000Y-108003000D02*
X95426000Y-108003000D01*
X105706000Y-110663000D02*
X105706000Y-108003000D01*
%TO.C,CON203*%
X97590000Y-126440000D02*
X97590000Y-129100000D01*
X97590000Y-129100000D02*
X105330000Y-129100000D01*
X98540000Y-126042929D02*
X98540000Y-126440000D01*
X98540000Y-135100000D02*
X98540000Y-129100000D01*
X99300000Y-126042929D02*
X99300000Y-126440000D01*
X99300000Y-129100000D02*
X99300000Y-135100000D01*
X99300000Y-135100000D02*
X98540000Y-135100000D01*
X100190000Y-126440000D02*
X100190000Y-129100000D01*
X101080000Y-126042929D02*
X101080000Y-126440000D01*
X101080000Y-135100000D02*
X101080000Y-129100000D01*
X101840000Y-126042929D02*
X101840000Y-126440000D01*
X101840000Y-129100000D02*
X101840000Y-135100000D01*
X101840000Y-135100000D02*
X101080000Y-135100000D01*
X102730000Y-126440000D02*
X102730000Y-129100000D01*
X103620000Y-126110000D02*
X103620000Y-126440000D01*
X103620000Y-135100000D02*
X103620000Y-129100000D01*
X103720000Y-129100000D02*
X103720000Y-135100000D01*
X103840000Y-129100000D02*
X103840000Y-135100000D01*
X103960000Y-129100000D02*
X103960000Y-135100000D01*
X104000000Y-123730000D02*
X105270000Y-123730000D01*
X104080000Y-129100000D02*
X104080000Y-135100000D01*
X104200000Y-129100000D02*
X104200000Y-135100000D01*
X104320000Y-129100000D02*
X104320000Y-135100000D01*
X104380000Y-126110000D02*
X104380000Y-126440000D01*
X104380000Y-129100000D02*
X104380000Y-135100000D01*
X104380000Y-135100000D02*
X103620000Y-135100000D01*
X105270000Y-123730000D02*
X105270000Y-125000000D01*
X105330000Y-126440000D02*
X97590000Y-126440000D01*
X105330000Y-129100000D02*
X105330000Y-126440000D01*
D16*
%TO.C,G\u002A\u002A\u002A*%
G36*
X95811442Y-128616773D02*
G01*
X95876074Y-128635517D01*
X95886436Y-128640137D01*
X95926812Y-128667015D01*
X95991079Y-128718557D01*
X96072220Y-128788266D01*
X96163215Y-128869646D01*
X96257046Y-128956203D01*
X96346696Y-129041438D01*
X96425144Y-129118857D01*
X96485374Y-129181963D01*
X96520366Y-129224260D01*
X96524088Y-129230327D01*
X96533698Y-129289314D01*
X96519456Y-129384423D01*
X96505462Y-129452071D01*
X96505862Y-129493905D01*
X96524436Y-129527268D01*
X96558382Y-129562962D01*
X96602751Y-129602855D01*
X96639968Y-129616843D01*
X96690973Y-129610303D01*
X96717418Y-129603786D01*
X96789156Y-129591625D01*
X96851918Y-129590973D01*
X96864753Y-129593200D01*
X96903187Y-129615633D01*
X96963239Y-129665555D01*
X97038382Y-129736058D01*
X97122089Y-129820233D01*
X97207833Y-129911174D01*
X97289085Y-130001971D01*
X97359317Y-130085719D01*
X97412003Y-130155508D01*
X97439220Y-130201118D01*
X97464484Y-130286880D01*
X97452723Y-130351468D01*
X97402739Y-130400013D01*
X97391174Y-130406602D01*
X97334066Y-130421208D01*
X97234765Y-130426986D01*
X97094631Y-130423971D01*
X96915024Y-130412198D01*
X96697302Y-130391702D01*
X96663349Y-130388083D01*
X96303143Y-130349188D01*
X95986107Y-130666790D01*
X95878305Y-130775269D01*
X95798241Y-130857632D01*
X95741947Y-130918909D01*
X95705456Y-130964131D01*
X95684801Y-130998327D01*
X95676013Y-131026528D01*
X95675126Y-131053765D01*
X95675623Y-131060435D01*
X95674042Y-131116787D01*
X95652709Y-131144545D01*
X95639329Y-131150076D01*
X95584475Y-131154683D01*
X95558555Y-131149120D01*
X95514587Y-131154569D01*
X95453965Y-131199336D01*
X95445509Y-131207372D01*
X95397526Y-131261282D01*
X95379992Y-131305654D01*
X95382223Y-131339334D01*
X95377128Y-131401433D01*
X95339518Y-131439540D01*
X95278618Y-131444930D01*
X95272125Y-131443466D01*
X95219071Y-131450317D01*
X95163201Y-131486318D01*
X95116958Y-131538874D01*
X95092782Y-131595391D01*
X95093558Y-131624220D01*
X95091535Y-131685177D01*
X95055942Y-131724880D01*
X94996115Y-131733651D01*
X94989112Y-131732445D01*
X94934748Y-131739871D01*
X94877154Y-131774065D01*
X94828287Y-131823642D01*
X94800103Y-131877216D01*
X94799634Y-131912868D01*
X94806249Y-131977943D01*
X94778748Y-132015977D01*
X94719867Y-132023560D01*
X94711753Y-132022415D01*
X94659568Y-132020695D01*
X94615768Y-132040891D01*
X94569364Y-132083482D01*
X94523982Y-132138396D01*
X94509293Y-132183036D01*
X94512819Y-132211802D01*
X94509879Y-132275335D01*
X94490243Y-132303917D01*
X94451417Y-132335066D01*
X94417388Y-132333746D01*
X94390288Y-132318733D01*
X94353199Y-132318518D01*
X94305630Y-132346090D01*
X94258567Y-132390320D01*
X94222998Y-132440081D01*
X94209912Y-132484243D01*
X94213437Y-132497854D01*
X94225132Y-132546932D01*
X94221423Y-132571322D01*
X94187916Y-132608117D01*
X94137344Y-132622766D01*
X94093034Y-132609445D01*
X94065938Y-132603530D01*
X94026857Y-132627708D01*
X93989154Y-132663770D01*
X93940560Y-132721866D01*
X93920764Y-132772418D01*
X93920142Y-132816844D01*
X93918570Y-132872377D01*
X93896942Y-132899989D01*
X93881483Y-132906359D01*
X93825715Y-132908945D01*
X93796618Y-132899968D01*
X93777761Y-132898413D01*
X93744635Y-132908570D01*
X93693624Y-132932443D01*
X93621109Y-132972038D01*
X93523474Y-133029362D01*
X93397103Y-133106420D01*
X93238377Y-133205218D01*
X93179112Y-133242412D01*
X93034657Y-133332715D01*
X92901712Y-133414879D01*
X92785081Y-133486009D01*
X92689568Y-133543209D01*
X92619978Y-133583586D01*
X92581115Y-133604244D01*
X92575143Y-133606343D01*
X92539898Y-133592574D01*
X92512754Y-133570913D01*
X92489429Y-133528457D01*
X92490163Y-133499254D01*
X92509497Y-133460846D01*
X92549076Y-133391174D01*
X92605214Y-133296159D01*
X92646482Y-133227726D01*
X92856364Y-133227726D01*
X92863454Y-133225846D01*
X92883116Y-133215342D01*
X92919820Y-133193590D01*
X92978039Y-133157969D01*
X93062244Y-133105857D01*
X93176906Y-133034631D01*
X93268000Y-132978015D01*
X93381435Y-132907292D01*
X93482727Y-132843703D01*
X93565459Y-132791313D01*
X93623216Y-132754182D01*
X93649570Y-132736385D01*
X93655253Y-132713839D01*
X93639899Y-132667804D01*
X93601566Y-132593589D01*
X93563445Y-132528077D01*
X93514066Y-132448372D01*
X93471786Y-132385484D01*
X93442349Y-132347673D01*
X93433007Y-132340445D01*
X93410057Y-132357037D01*
X93369086Y-132407383D01*
X93309537Y-132492337D01*
X93230853Y-132612753D01*
X93132477Y-132769484D01*
X93013852Y-132963386D01*
X92874421Y-133195312D01*
X92862013Y-133216101D01*
X92857374Y-133223604D01*
X92856364Y-133227726D01*
X92646482Y-133227726D01*
X92674225Y-133181722D01*
X92752423Y-133053783D01*
X92836122Y-132918265D01*
X92921635Y-132781087D01*
X93005277Y-132648170D01*
X93083362Y-132525436D01*
X93152204Y-132418804D01*
X93208116Y-132334197D01*
X93247412Y-132277536D01*
X93263222Y-132257498D01*
X93307947Y-132196666D01*
X93569406Y-132196666D01*
X93684865Y-132390777D01*
X93734297Y-132471900D01*
X93775834Y-132536382D01*
X93804124Y-132576125D01*
X93813136Y-132584889D01*
X93834793Y-132570309D01*
X93875288Y-132533283D01*
X93899567Y-132508934D01*
X93973186Y-132432979D01*
X93857990Y-132242268D01*
X93807974Y-132161997D01*
X93765433Y-132098395D01*
X93735985Y-132059607D01*
X93726424Y-132051556D01*
X93702417Y-132066184D01*
X93660765Y-132103132D01*
X93639729Y-132124111D01*
X93569406Y-132196666D01*
X93307947Y-132196666D01*
X93314205Y-132188155D01*
X93332594Y-132114630D01*
X93333096Y-132101943D01*
X93336900Y-132047230D01*
X93354377Y-132023755D01*
X93398834Y-132018313D01*
X93417453Y-132018223D01*
X93506866Y-131998184D01*
X93576338Y-131944075D01*
X93595257Y-131907112D01*
X93860243Y-131907112D01*
X93975233Y-132101000D01*
X94024472Y-132182159D01*
X94065754Y-132246740D01*
X94093751Y-132286604D01*
X94102530Y-132295444D01*
X94123796Y-132281192D01*
X94164216Y-132244273D01*
X94190491Y-132217946D01*
X94266145Y-132139891D01*
X94223872Y-132067946D01*
X94189208Y-132010372D01*
X94141998Y-131933716D01*
X94101234Y-131868528D01*
X94020869Y-131741055D01*
X93940556Y-131824083D01*
X93860243Y-131907112D01*
X93595257Y-131907112D01*
X93616862Y-131864901D01*
X93623556Y-131812120D01*
X93626361Y-131757817D01*
X93643521Y-131734671D01*
X93688155Y-131729410D01*
X93705391Y-131729334D01*
X93787231Y-131712775D01*
X93854963Y-131669406D01*
X93894986Y-131613940D01*
X94168000Y-131613940D01*
X94178858Y-131640561D01*
X94208084Y-131695764D01*
X94250657Y-131770338D01*
X94281713Y-131822530D01*
X94395426Y-132010787D01*
X94470602Y-131937923D01*
X94515160Y-131890753D01*
X94542115Y-131854534D01*
X94545778Y-131844727D01*
X94534920Y-131818107D01*
X94505695Y-131762904D01*
X94463122Y-131688329D01*
X94432065Y-131636138D01*
X94318353Y-131447881D01*
X94243177Y-131520744D01*
X94198618Y-131567915D01*
X94171663Y-131604133D01*
X94168000Y-131613940D01*
X93894986Y-131613940D01*
X93898778Y-131608685D01*
X93908870Y-131540073D01*
X93907836Y-131534068D01*
X93910196Y-131470624D01*
X93940187Y-131430421D01*
X93988801Y-131421792D01*
X94017893Y-131432249D01*
X94050886Y-131441474D01*
X94086120Y-131426914D01*
X94136378Y-131383230D01*
X94137205Y-131382429D01*
X94183979Y-131331425D01*
X94188662Y-131320887D01*
X94456889Y-131320887D01*
X94467630Y-131345673D01*
X94496573Y-131399498D01*
X94538804Y-131473444D01*
X94571465Y-131528766D01*
X94686041Y-131720476D01*
X94769587Y-131638895D01*
X94853134Y-131557314D01*
X94763980Y-131409991D01*
X94716111Y-131331222D01*
X94673082Y-131260992D01*
X94643502Y-131213349D01*
X94641575Y-131210305D01*
X94608324Y-131157942D01*
X94532607Y-131231331D01*
X94487982Y-131277710D01*
X94460780Y-131312011D01*
X94456889Y-131320887D01*
X94188662Y-131320887D01*
X94202437Y-131289892D01*
X94199918Y-131240768D01*
X94199380Y-131237844D01*
X94195795Y-131183310D01*
X94216098Y-131151826D01*
X94232553Y-131141576D01*
X94292629Y-131129107D01*
X94320312Y-131138709D01*
X94365408Y-131140697D01*
X94413756Y-131110103D01*
X94456367Y-131057069D01*
X94469262Y-131026857D01*
X94739460Y-131026857D01*
X94858505Y-131227942D01*
X94977551Y-131429028D01*
X95061369Y-131347182D01*
X95145187Y-131265336D01*
X95098735Y-131186224D01*
X95026540Y-131063980D01*
X94973501Y-130976010D01*
X94936838Y-130917934D01*
X94913770Y-130885372D01*
X94901520Y-130873941D01*
X94900501Y-130873778D01*
X94878951Y-130888360D01*
X94838469Y-130925420D01*
X94813645Y-130950318D01*
X94739460Y-131026857D01*
X94469262Y-131026857D01*
X94484252Y-130991737D01*
X94490223Y-130947002D01*
X94502962Y-130876874D01*
X94536780Y-130837056D01*
X94585083Y-130833217D01*
X94609452Y-130844530D01*
X94638937Y-130855484D01*
X94670041Y-130844127D01*
X94714380Y-130805113D01*
X94730449Y-130788812D01*
X94777693Y-130734862D01*
X94778280Y-130733588D01*
X95032595Y-130733588D01*
X95147533Y-130925905D01*
X95197171Y-131006618D01*
X95239217Y-131070654D01*
X95268171Y-131109876D01*
X95277543Y-131118223D01*
X95300654Y-131103609D01*
X95341934Y-131066592D01*
X95364677Y-131043873D01*
X95436740Y-130969524D01*
X95321801Y-130777207D01*
X95272163Y-130696493D01*
X95230117Y-130632458D01*
X95201163Y-130593236D01*
X95191791Y-130584889D01*
X95168680Y-130599503D01*
X95127400Y-130636520D01*
X95104657Y-130659239D01*
X95032595Y-130733588D01*
X94778280Y-130733588D01*
X94794846Y-130697660D01*
X94787981Y-130668517D01*
X94779201Y-130621145D01*
X94797983Y-130577570D01*
X94833403Y-130546818D01*
X94874534Y-130537912D01*
X94910454Y-130559876D01*
X94913690Y-130564681D01*
X94937421Y-130565450D01*
X94983076Y-130533943D01*
X95013929Y-130505662D01*
X95063682Y-130452560D01*
X95070288Y-130440445D01*
X95324390Y-130440445D01*
X95440135Y-130634889D01*
X95489425Y-130716041D01*
X95530501Y-130780585D01*
X95558109Y-130820444D01*
X95566599Y-130829334D01*
X95584831Y-130814385D01*
X95629744Y-130772586D01*
X95696585Y-130708508D01*
X95780601Y-130626720D01*
X95877040Y-130531795D01*
X95912508Y-130496652D01*
X96023953Y-130386390D01*
X96108905Y-130303806D01*
X96172238Y-130245091D01*
X96218826Y-130206436D01*
X96253544Y-130184033D01*
X96281266Y-130174072D01*
X96306865Y-130172744D01*
X96324516Y-130174684D01*
X96393791Y-130183447D01*
X96489555Y-130194326D01*
X96604150Y-130206579D01*
X96729920Y-130219466D01*
X96859206Y-130232247D01*
X96984352Y-130244180D01*
X97097700Y-130254525D01*
X97191594Y-130262541D01*
X97258376Y-130267488D01*
X97290388Y-130268625D01*
X97292029Y-130268268D01*
X97279820Y-130250810D01*
X97241039Y-130207621D01*
X97180805Y-130144134D01*
X97104234Y-130065781D01*
X97049580Y-130010903D01*
X96799318Y-129761350D01*
X96682427Y-129788332D01*
X96565536Y-129815314D01*
X96430615Y-129680393D01*
X96295695Y-129545472D01*
X96323533Y-129429430D01*
X96351371Y-129313387D01*
X96087464Y-129048547D01*
X96000482Y-128963242D01*
X95924829Y-128892817D01*
X95865671Y-128841777D01*
X95828172Y-128814622D01*
X95817261Y-128813012D01*
X95817812Y-128842780D01*
X95822834Y-128909986D01*
X95831703Y-129007920D01*
X95843795Y-129129870D01*
X95858485Y-129269123D01*
X95866414Y-129341381D01*
X95921862Y-129840445D01*
X95623126Y-130140445D01*
X95324390Y-130440445D01*
X95070288Y-130440445D01*
X95083635Y-130415966D01*
X95079198Y-130385266D01*
X95077258Y-130381426D01*
X95068865Y-130323761D01*
X95080481Y-130293442D01*
X95108403Y-130261147D01*
X95153039Y-130254991D01*
X95178006Y-130258183D01*
X95207615Y-130260759D01*
X95236028Y-130255068D01*
X95269300Y-130236668D01*
X95313484Y-130201117D01*
X95374635Y-130143976D01*
X95458805Y-130060801D01*
X95490981Y-130028573D01*
X95731587Y-129787219D01*
X95693971Y-129402721D01*
X95674900Y-129193389D01*
X95663034Y-129023889D01*
X95658707Y-128890145D01*
X95662255Y-128788076D01*
X95674016Y-128713607D01*
X95694325Y-128662658D01*
X95723517Y-128631151D01*
X95758816Y-128615753D01*
X95811442Y-128616773D01*
G37*
D15*
%TO.C,CON301*%
X160450000Y-103217500D02*
X174550000Y-103217500D01*
X160450000Y-108017500D02*
X160450000Y-103217500D01*
X160450000Y-116317500D02*
X160450000Y-111517500D01*
X168250000Y-102517500D02*
X168750000Y-103017500D01*
X168750000Y-103017500D02*
X169250000Y-102517500D01*
X169250000Y-102517500D02*
X168250000Y-102517500D01*
X174550000Y-103217500D02*
X174550000Y-108017500D01*
X174550000Y-111517500D02*
X174550000Y-116317500D01*
X174550000Y-116317500D02*
X160450000Y-116317500D01*
%TO.C,R101*%
X161017500Y-131451258D02*
X161017500Y-130976742D01*
X162062500Y-131451258D02*
X162062500Y-130976742D01*
%TO.C,Q101*%
X157440000Y-137564000D02*
X157440000Y-136914000D01*
X157440000Y-137564000D02*
X157440000Y-138214000D01*
X160560000Y-137564000D02*
X160560000Y-136914000D01*
X160560000Y-137564000D02*
X160560000Y-138214000D01*
X160840000Y-136641500D02*
X160510000Y-136401500D01*
X160840000Y-136161500D01*
X160840000Y-136641500D01*
G36*
X160840000Y-136641500D02*
G01*
X160510000Y-136401500D01*
X160840000Y-136161500D01*
X160840000Y-136641500D01*
G37*
%TO.C,C102*%
X157362580Y-133244000D02*
X157081420Y-133244000D01*
X157362580Y-134264000D02*
X157081420Y-134264000D01*
%TO.C,C101*%
X160918580Y-133244000D02*
X160637420Y-133244000D01*
X160918580Y-134264000D02*
X160637420Y-134264000D01*
%TD*%
M02*
