M48
; DRILL file {KiCad 8.0.1} date 2024-08-08T01:36:53+0200
; FORMAT={-:-/ absolute / inch / decimal}
; #@! TF.CreationDate,2024-08-08T01:36:53+02:00
; #@! TF.GenerationSoftware,Kicad,Pcbnew,8.0.1
; #@! TF.FileFunction,Plated,1,2,PTH
FMAT,2
INCH
; #@! TA.AperFunction,Plated,PTH,ViaDrill
T1C0.0100
; #@! TA.AperFunction,Plated,PTH,ViaDrill
T2C0.0118
; #@! TA.AperFunction,Plated,PTH,ComponentDrill
T3C0.0315
; #@! TA.AperFunction,Plated,PTH,ComponentDrill
T4C0.0362
; #@! TA.AperFunction,Plated,PTH,ComponentDrill
T5C0.0394
; #@! TA.AperFunction,Plated,PTH,ComponentDrill
T6C0.0512
; #@! TA.AperFunction,Plated,PTH,ComponentDrill
T7C0.0906
%
G90
G05
T1
X4.4009Y-2.8889
X4.4759Y-2.9289
X4.5259Y-2.7639
X5.7459Y-3.1687
X5.7459Y-3.2197
X5.9059Y-3.2189
T2
X3.4449Y-4.7244
X3.4449Y-4.8228
X3.4449Y-4.9213
X3.5433Y-4.7244
X3.5433Y-4.8228
X3.5433Y-4.9213
X3.622Y-4.7244
X3.622Y-4.8228
X3.622Y-4.9213
X3.6263Y-4.5053
X3.984Y-2.9607
X3.984Y-3.0926
X4.1041Y-2.9607
X4.1041Y-3.0926
X4.4081Y-2.5766
X4.6459Y-2.8239
X4.6459Y-2.9389
X5.0106Y-2.8369
X5.0118Y-2.9528
X5.0984Y-4.7244
X5.0984Y-4.8228
X5.0984Y-4.9213
X5.1681Y-2.8445
X5.1969Y-4.7244
X5.1969Y-4.8228
X5.1969Y-4.9213
X5.2756Y-4.7244
X5.2756Y-4.8228
X5.2756Y-4.9213
X5.2798Y-4.5053
X5.3453Y-2.7729
X5.3453Y-2.8049
X5.3453Y-2.8369
X5.4459Y-3.189
X5.7559Y-2.9189
X5.8559Y-2.8602
X5.9159Y-2.8602
X5.9759Y-2.8602
X6.1454Y-2.7589
X6.1759Y-3.2889
X6.3559Y-3.2889
X6.3859Y-2.7589
T3
X4.7828Y-2.8226
X4.7828Y-3.1226
T4
X6.5453Y-4.2133
X6.5453Y-4.3393
X6.6437Y-4.2133
X6.6437Y-4.3393
T5
X3.0395Y-4.4135
X3.0603Y-2.3411
X3.0603Y-2.4411
X3.0603Y-2.5411
X3.089Y-4.9213
X3.1395Y-4.4135
X3.1559Y-2.9189
X3.1559Y-3.0189
X3.1559Y-3.1189
X3.1603Y-2.3411
X3.1603Y-2.4411
X3.1603Y-2.5411
X3.189Y-4.9213
X3.2395Y-4.4135
X3.6228Y-3.4646
X3.7228Y-3.4646
X3.7303Y-1.9667
X3.8093Y-4.4135
X3.8228Y-3.4646
X3.8303Y-1.9667
X3.8945Y-4.9213
X3.9093Y-4.4135
X3.9228Y-3.4646
X3.9945Y-4.9213
X4.0093Y-4.4135
X4.0228Y-3.4646
X4.0945Y-4.9213
X4.1093Y-4.4135
X4.1224Y-1.9685
X4.1228Y-3.4646
X4.2224Y-1.9685
X4.2228Y-3.4646
X4.3224Y-1.9685
X4.3228Y-3.4646
X4.4224Y-1.9685
X4.4228Y-3.4646
X4.5228Y-3.4646
X4.6228Y-3.4646
X4.693Y-4.4135
X4.7228Y-3.4646
X4.7425Y-4.9213
X4.793Y-4.4135
X4.8228Y-3.4646
X4.8425Y-4.9213
X4.872Y-1.9667
X4.893Y-4.4135
X4.9228Y-3.4646
X4.972Y-1.9667
X5.0228Y-3.4646
X5.1228Y-3.4646
X5.4628Y-4.4135
X5.548Y-4.9213
X5.5628Y-4.4135
X5.648Y-4.9213
X5.6628Y-4.4135
X5.748Y-4.9213
X5.7628Y-4.4135
X5.9138Y-1.9667
X6.0138Y-1.9667
X6.1138Y-1.9667
X6.2138Y-1.9667
X6.4441Y-4.685
X6.5441Y-4.685
X6.6441Y-4.685
X6.7441Y-4.685
T6
X3.3276Y-1.2598
X3.3276Y-1.4567
X3.8197Y-1.2598
X3.8197Y-1.4567
X4.6661Y-1.2598
X4.6661Y-1.4567
X5.1583Y-1.2598
X5.1583Y-1.4567
X6.0047Y-1.2598
X6.0047Y-1.4567
X6.4969Y-1.2598
X6.4969Y-1.4567
T7
X6.3575Y-4.32
X6.8315Y-4.32
M30
