%TF.GenerationSoftware,KiCad,Pcbnew,8.0.1*%
%TF.CreationDate,2024-08-08T01:36:49+02:00*%
%TF.ProjectId,panel,70616e65-6c2e-46b6-9963-61645f706362,rev?*%
%TF.SameCoordinates,Original*%
%TF.FileFunction,Paste,Top*%
%TF.FilePolarity,Positive*%
%FSLAX46Y46*%
G04 Gerber Fmt 4.6, Leading zero omitted, Abs format (unit mm)*
G04 Created by KiCad (PCBNEW 8.0.1) date 2024-08-08 01:36:49*
%MOMM*%
%LPD*%
G01*
G04 APERTURE LIST*
G04 Aperture macros list*
%AMRoundRect*
0 Rectangle with rounded corners*
0 $1 Rounding radius*
0 $2 $3 $4 $5 $6 $7 $8 $9 X,Y pos of 4 corners*
0 Add a 4 corners polygon primitive as box body*
4,1,4,$2,$3,$4,$5,$6,$7,$8,$9,$2,$3,0*
0 Add four circle primitives for the rounded corners*
1,1,$1+$1,$2,$3*
1,1,$1+$1,$4,$5*
1,1,$1+$1,$6,$7*
1,1,$1+$1,$8,$9*
0 Add four rect primitives between the rounded corners*
20,1,$1+$1,$2,$3,$4,$5,0*
20,1,$1+$1,$4,$5,$6,$7,0*
20,1,$1+$1,$6,$7,$8,$9,0*
20,1,$1+$1,$8,$9,$2,$3,0*%
G04 Aperture macros list end*
%ADD10RoundRect,0.225000X0.225000X0.250000X-0.225000X0.250000X-0.225000X-0.250000X0.225000X-0.250000X0*%
%ADD11RoundRect,0.150000X-0.150000X0.587500X-0.150000X-0.587500X0.150000X-0.587500X0.150000X0.587500X0*%
%ADD12RoundRect,0.200000X0.275000X-0.200000X0.275000X0.200000X-0.275000X0.200000X-0.275000X-0.200000X0*%
%ADD13RoundRect,0.381000X0.381000X-1.119000X0.381000X1.119000X-0.381000X1.119000X-0.381000X-1.119000X0*%
%ADD14RoundRect,0.200000X-0.275000X0.200000X-0.275000X-0.200000X0.275000X-0.200000X0.275000X0.200000X0*%
%ADD15RoundRect,0.218750X0.218750X0.256250X-0.218750X0.256250X-0.218750X-0.256250X0.218750X-0.256250X0*%
%ADD16RoundRect,0.150000X0.150000X-0.587500X0.150000X0.587500X-0.150000X0.587500X-0.150000X-0.587500X0*%
%ADD17RoundRect,0.250000X-0.350000X0.850000X-0.350000X-0.850000X0.350000X-0.850000X0.350000X0.850000X0*%
%ADD18RoundRect,0.250000X-1.125000X1.275000X-1.125000X-1.275000X1.125000X-1.275000X1.125000X1.275000X0*%
%ADD19RoundRect,0.225000X0.250000X-0.225000X0.250000X0.225000X-0.250000X0.225000X-0.250000X-0.225000X0*%
%ADD20RoundRect,0.225000X-0.225000X-0.250000X0.225000X-0.250000X0.225000X0.250000X-0.225000X0.250000X0*%
%ADD21RoundRect,0.200000X-0.200000X-0.275000X0.200000X-0.275000X0.200000X0.275000X-0.200000X0.275000X0*%
%ADD22RoundRect,0.200000X0.200000X0.275000X-0.200000X0.275000X-0.200000X-0.275000X0.200000X-0.275000X0*%
%ADD23R,0.400000X1.200000*%
%ADD24RoundRect,0.112500X-0.187500X-0.112500X0.187500X-0.112500X0.187500X0.112500X-0.187500X0.112500X0*%
%ADD25RoundRect,0.112500X0.187500X0.112500X-0.187500X0.112500X-0.187500X-0.112500X0.187500X-0.112500X0*%
%ADD26R,1.400000X1.200000*%
%ADD27RoundRect,0.225000X-0.250000X0.225000X-0.250000X-0.225000X0.250000X-0.225000X0.250000X0.225000X0*%
%ADD28RoundRect,0.218750X-0.218750X-0.256250X0.218750X-0.256250X0.218750X0.256250X-0.218750X0.256250X0*%
%ADD29R,0.550000X1.600000*%
%ADD30R,1.600000X0.550000*%
%ADD31RoundRect,0.218750X-0.256250X0.218750X-0.256250X-0.218750X0.256250X-0.218750X0.256250X0.218750X0*%
%ADD32RoundRect,0.100000X0.712500X0.100000X-0.712500X0.100000X-0.712500X-0.100000X0.712500X-0.100000X0*%
%ADD33RoundRect,0.275000X0.725000X-0.275000X0.725000X0.275000X-0.725000X0.275000X-0.725000X-0.275000X0*%
G04 APERTURE END LIST*
D10*
%TO.C,C101*%
X171553000Y-133754000D03*
X170003000Y-133754000D03*
%TD*%
%TO.C,C102*%
X167997000Y-133754000D03*
X166447000Y-133754000D03*
%TD*%
D11*
%TO.C,Q101*%
X169950000Y-136626500D03*
X168050000Y-136626500D03*
X169000000Y-138501500D03*
%TD*%
D12*
%TO.C,R101*%
X171540000Y-132039000D03*
X171540000Y-130389000D03*
%TD*%
D13*
%TO.C,CON101*%
X166460000Y-126134000D03*
X169000000Y-126134000D03*
X171540000Y-126134000D03*
%TD*%
D14*
%TO.C,R201*%
X130364000Y-111475000D03*
X130364000Y-113125000D03*
%TD*%
D15*
%TO.C,F201*%
X134537500Y-108750000D03*
X132962500Y-108750000D03*
%TD*%
D16*
%TO.C,Q201*%
X132208000Y-113491500D03*
X134108000Y-113491500D03*
X133158000Y-111616500D03*
%TD*%
D17*
%TO.C,Q202*%
X134168000Y-116160000D03*
D18*
X133413000Y-120785000D03*
X130363000Y-120785000D03*
X133413000Y-124135000D03*
X130363000Y-124135000D03*
D17*
X129608000Y-116160000D03*
%TD*%
D10*
%TO.C,C14*%
X157643000Y-78204000D03*
X156093000Y-78204000D03*
%TD*%
D19*
%TO.C,C16*%
X123516000Y-69125000D03*
X123516000Y-67575000D03*
%TD*%
D20*
%TO.C,R13*%
X160665000Y-72616000D03*
X162215000Y-72616000D03*
%TD*%
%TO.C,C3*%
X133917000Y-80942000D03*
X135467000Y-80942000D03*
%TD*%
%TO.C,C1*%
X129345000Y-75862000D03*
X130895000Y-75862000D03*
%TD*%
D21*
%TO.C,R11*%
X146200000Y-78402000D03*
X147850000Y-78402000D03*
%TD*%
D22*
%TO.C,R5*%
X114513000Y-64234000D03*
X112863000Y-64234000D03*
%TD*%
D23*
%TO.C,IC2*%
X110498500Y-74398000D03*
X111133500Y-74398000D03*
X111768500Y-74398000D03*
X112403500Y-74398000D03*
X113038500Y-74398000D03*
X113673500Y-74398000D03*
X114308500Y-74398000D03*
X114943500Y-74398000D03*
X115578500Y-74398000D03*
X116213500Y-74398000D03*
X116213500Y-69198000D03*
X115578500Y-69198000D03*
X114943500Y-69198000D03*
X114308500Y-69198000D03*
X113673500Y-69198000D03*
X113038500Y-69198000D03*
X112403500Y-69198000D03*
X111768500Y-69198000D03*
X111133500Y-69198000D03*
X110498500Y-69198000D03*
%TD*%
D20*
%TO.C,R14*%
X160665000Y-71092000D03*
X162215000Y-71092000D03*
%TD*%
%TO.C,C9*%
X150314000Y-78402000D03*
X151864000Y-78402000D03*
%TD*%
D24*
%TO.C,D1*%
X160356000Y-74648000D03*
X162456000Y-74648000D03*
%TD*%
D21*
%TO.C,R21*%
X109307000Y-66520000D03*
X110957000Y-66520000D03*
%TD*%
D25*
%TO.C,D2*%
X157918000Y-74648000D03*
X155818000Y-74648000D03*
%TD*%
D26*
%TO.C,OSC1*%
X135792000Y-77044000D03*
X133592000Y-77044000D03*
X133592000Y-78744000D03*
X135792000Y-78744000D03*
%TD*%
D27*
%TO.C,C4*%
X138248000Y-77119000D03*
X138248000Y-78669000D03*
%TD*%
D28*
%TO.C,LED2*%
X114600500Y-79526000D03*
X116175500Y-79526000D03*
%TD*%
D21*
%TO.C,R3*%
X111007000Y-79526000D03*
X112657000Y-79526000D03*
%TD*%
D14*
%TO.C,R7*%
X151788000Y-71791000D03*
X151788000Y-73441000D03*
%TD*%
D20*
%TO.C,C6*%
X112913000Y-61186000D03*
X114463000Y-61186000D03*
%TD*%
D14*
%TO.C,R6*%
X150264000Y-71791000D03*
X150264000Y-73441000D03*
%TD*%
D27*
%TO.C,C18*%
X117928000Y-78243000D03*
X117928000Y-79793000D03*
%TD*%
D10*
%TO.C,C10*%
X147800000Y-76878000D03*
X146250000Y-76878000D03*
%TD*%
D11*
%TO.C,Q1*%
X157818000Y-80314500D03*
X155918000Y-80314500D03*
X156868000Y-82189500D03*
%TD*%
D12*
%TO.C,R16*%
X107293500Y-79667000D03*
X107293500Y-78017000D03*
%TD*%
D10*
%TO.C,C2*%
X131911000Y-62762000D03*
X130361000Y-62762000D03*
%TD*%
D11*
%TO.C,Q2*%
X162390000Y-80314500D03*
X160490000Y-80314500D03*
X161440000Y-82189500D03*
%TD*%
D17*
%TO.C,IC4*%
X104999000Y-70578000D03*
D18*
X104244000Y-75203000D03*
X101194000Y-75203000D03*
X104244000Y-78553000D03*
X101194000Y-78553000D03*
D17*
X100439000Y-70578000D03*
%TD*%
D29*
%TO.C,IC1*%
X127320000Y-73508000D03*
X128120000Y-73508000D03*
X128920000Y-73508000D03*
X129720000Y-73508000D03*
X130520000Y-73508000D03*
X131320000Y-73508000D03*
X132120000Y-73508000D03*
X132920000Y-73508000D03*
D30*
X134370000Y-72058000D03*
X134370000Y-71258000D03*
X134370000Y-70458000D03*
X134370000Y-69658000D03*
X134370000Y-68858000D03*
X134370000Y-68058000D03*
X134370000Y-67258000D03*
X134370000Y-66458000D03*
D29*
X132920000Y-65008000D03*
X132120000Y-65008000D03*
X131320000Y-65008000D03*
X130520000Y-65008000D03*
X129720000Y-65008000D03*
X128920000Y-65008000D03*
X128120000Y-65008000D03*
X127320000Y-65008000D03*
D30*
X125870000Y-66458000D03*
X125870000Y-67258000D03*
X125870000Y-68058000D03*
X125870000Y-68858000D03*
X125870000Y-69658000D03*
X125870000Y-70458000D03*
X125870000Y-71258000D03*
X125870000Y-72058000D03*
%TD*%
D22*
%TO.C,R2*%
X112657000Y-76986000D03*
X111007000Y-76986000D03*
%TD*%
D31*
%TO.C,LED3*%
X107293500Y-74498500D03*
X107293500Y-76073500D03*
%TD*%
D22*
%TO.C,R18*%
X157693000Y-76680000D03*
X156043000Y-76680000D03*
%TD*%
D14*
%TO.C,R12*%
X123516000Y-64477000D03*
X123516000Y-66127000D03*
%TD*%
D28*
%TO.C,LED1*%
X114600500Y-76986000D03*
X116175500Y-76986000D03*
%TD*%
D22*
%TO.C,R10*%
X151914000Y-76878000D03*
X150264000Y-76878000D03*
%TD*%
D10*
%TO.C,C15*%
X162215000Y-78204000D03*
X160665000Y-78204000D03*
%TD*%
D14*
%TO.C,R8*%
X148740000Y-71791000D03*
X148740000Y-73441000D03*
%TD*%
D22*
%TO.C,R17*%
X162265000Y-76680000D03*
X160615000Y-76680000D03*
%TD*%
D10*
%TO.C,C8*%
X147800000Y-75354000D03*
X146250000Y-75354000D03*
%TD*%
%TO.C,R20*%
X157643000Y-71092000D03*
X156093000Y-71092000D03*
%TD*%
D22*
%TO.C,R9*%
X151914000Y-75354000D03*
X150264000Y-75354000D03*
%TD*%
D32*
%TO.C,IC3*%
X151423500Y-82425000D03*
X151423500Y-81775000D03*
X151423500Y-81125000D03*
X151423500Y-80475000D03*
X147198500Y-80475000D03*
X147198500Y-81125000D03*
X147198500Y-81775000D03*
X147198500Y-82425000D03*
%TD*%
D22*
%TO.C,R4*%
X114513000Y-62710000D03*
X112863000Y-62710000D03*
%TD*%
D33*
%TO.C,SW4*%
X119960000Y-65744000D03*
X119960000Y-61244000D03*
%TD*%
D10*
%TO.C,R19*%
X157643000Y-72616000D03*
X156093000Y-72616000D03*
%TD*%
D20*
%TO.C,C5*%
X112913000Y-67282000D03*
X114463000Y-67282000D03*
%TD*%
D10*
%TO.C,C11*%
X105545000Y-68250000D03*
X103995000Y-68250000D03*
%TD*%
D22*
%TO.C,R1*%
X126845000Y-84500000D03*
X125195000Y-84500000D03*
%TD*%
D20*
%TO.C,C7*%
X112913000Y-65758000D03*
X114463000Y-65758000D03*
%TD*%
%TO.C,C17*%
X99912000Y-68242000D03*
X101462000Y-68242000D03*
%TD*%
D12*
%TO.C,R15*%
X121484000Y-69175000D03*
X121484000Y-67525000D03*
%TD*%
D21*
%TO.C,R22*%
X109307000Y-64996000D03*
X110957000Y-64996000D03*
%TD*%
D16*
%TO.C,Q201*%
X90208000Y-113491500D03*
X92108000Y-113491500D03*
X91158000Y-111616500D03*
%TD*%
D15*
%TO.C,F201*%
X92537500Y-108750000D03*
X90962500Y-108750000D03*
%TD*%
D14*
%TO.C,R201*%
X88364000Y-111475000D03*
X88364000Y-113125000D03*
%TD*%
D17*
%TO.C,Q202*%
X92168000Y-116160000D03*
D18*
X91413000Y-120785000D03*
X88363000Y-120785000D03*
X91413000Y-124135000D03*
X88363000Y-124135000D03*
D17*
X87608000Y-116160000D03*
%TD*%
D12*
%TO.C,R101*%
X161540000Y-132039000D03*
X161540000Y-130389000D03*
%TD*%
D11*
%TO.C,Q101*%
X159950000Y-136626500D03*
X158050000Y-136626500D03*
X159000000Y-138501500D03*
%TD*%
D10*
%TO.C,C102*%
X157997000Y-133754000D03*
X156447000Y-133754000D03*
%TD*%
%TO.C,C101*%
X161553000Y-133754000D03*
X160003000Y-133754000D03*
%TD*%
D13*
%TO.C,CON101*%
X156460000Y-126134000D03*
X159000000Y-126134000D03*
X161540000Y-126134000D03*
%TD*%
M02*
