M48
; DRILL file {KiCad 8.0.1} date 2024-08-08T01:36:53+0200
; FORMAT={-:-/ absolute / inch / decimal}
; #@! TF.CreationDate,2024-08-08T01:36:53+02:00
; #@! TF.GenerationSoftware,Kicad,Pcbnew,8.0.1
; #@! TF.FileFunction,NonPlated,1,2,NPTH
FMAT,2
INCH
; #@! TA.AperFunction,NonPlated,NPTH,ComponentDrill
T1C0.0197
%
G90
G05
T1
X2.8735Y-3.7402
X2.8735Y-3.8583
X2.9031Y-3.8583
X2.9035Y-3.7402
X2.9331Y-3.7402
X2.9331Y-3.8583
X2.9626Y-3.7402
X2.9626Y-3.8583
X2.9931Y-3.7402
X2.9931Y-3.8583
X4.0931Y-3.7402
X4.0931Y-3.8583
X4.1226Y-3.8583
X4.1231Y-3.7402
X4.1526Y-3.7402
X4.1526Y-3.8583
X4.1821Y-3.7402
X4.1821Y-3.8583
X4.2126Y-3.7402
X4.2126Y-3.8583
X4.3406Y-3.9469
X4.3406Y-3.9764
X4.3406Y-4.0059
X4.3406Y-5.2854
X4.3406Y-5.315
X4.3406Y-5.3445
X4.3996Y-3.9469
X4.3996Y-3.9764
X4.3996Y-4.0059
X4.3996Y-5.2854
X4.3996Y-5.315
X4.3996Y-5.3445
X4.5271Y-3.7402
X4.5271Y-3.8583
X4.5566Y-3.8583
X4.5571Y-3.7402
X4.5866Y-3.7402
X4.5866Y-3.8583
X4.6161Y-3.7402
X4.6161Y-3.8583
X4.6466Y-3.7402
X4.6466Y-3.8583
X5.7476Y-3.7402
X5.7476Y-3.8583
X5.7771Y-3.8583
X5.7776Y-3.7402
X5.8071Y-3.7402
X5.8071Y-3.8583
X5.8366Y-3.7402
X5.8366Y-3.8583
X5.8671Y-3.7402
X5.8671Y-3.8583
X5.9843Y-3.9754
X5.9843Y-4.0059
X5.9843Y-4.0354
X5.9843Y-4.065
X5.9843Y-4.095
X5.9843Y-4.566
X5.9843Y-4.5965
X5.9843Y-4.626
X5.9843Y-4.6555
X5.9843Y-4.6855
X5.9843Y-5.1959
X5.9843Y-5.2264
X5.9843Y-5.2559
X5.9843Y-5.2854
X5.9843Y-5.3154
X6.1024Y-3.9754
X6.1024Y-4.0059
X6.1024Y-4.0354
X6.1024Y-4.0654
X6.1024Y-4.095
X6.1024Y-4.566
X6.1024Y-4.5965
X6.1024Y-4.626
X6.1024Y-4.656
X6.1024Y-4.6855
X6.1024Y-5.1959
X6.1024Y-5.2264
X6.1024Y-5.2559
X6.1024Y-5.2859
X6.1024Y-5.3154
X6.1909Y-3.75
X6.1909Y-3.8091
X6.2205Y-3.75
X6.2205Y-3.8091
X6.2303Y-4.813
X6.2303Y-4.872
X6.25Y-3.75
X6.25Y-3.8091
X6.2598Y-4.813
X6.2598Y-4.872
X6.2894Y-4.813
X6.2894Y-4.872
X6.4272Y-5.1476
X6.4272Y-5.1772
X6.4272Y-5.2067
X6.4862Y-5.1476
X6.4862Y-5.1772
X6.4862Y-5.2067
X6.624Y-4.813
X6.624Y-4.872
X6.6535Y-4.813
X6.6535Y-4.872
X6.6831Y-4.813
X6.6831Y-4.872
X6.8209Y-5.1476
X6.8209Y-5.1772
X6.8209Y-5.2067
X6.8799Y-5.1476
X6.8799Y-5.1772
X6.8799Y-5.2067
X6.939Y-3.75
X6.939Y-3.8091
X6.9685Y-3.75
X6.9685Y-3.8091
X6.998Y-3.75
X6.998Y-3.8091
M30
