%TF.GenerationSoftware,KiCad,Pcbnew,8.0.1*%
%TF.CreationDate,2024-08-08T01:36:49+02:00*%
%TF.ProjectId,panel,70616e65-6c2e-46b6-9963-61645f706362,rev?*%
%TF.SameCoordinates,Original*%
%TF.FileFunction,Profile,NP*%
%FSLAX46Y46*%
G04 Gerber Fmt 4.6, Leading zero omitted, Abs format (unit mm)*
G04 Created by KiCad (PCBNEW 8.0.1) date 2024-08-08 01:36:49*
%MOMM*%
%LPD*%
G01*
G04 APERTURE LIST*
%TA.AperFunction,Profile*%
%ADD10C,0.050000*%
%TD*%
G04 APERTURE END LIST*
D10*
X71500000Y-138000000D02*
X77500000Y-138000000D01*
X108500000Y-138000000D02*
X102500000Y-138000000D01*
X113500000Y-138000000D02*
X119500000Y-138000000D01*
X144500000Y-138000000D02*
X150500000Y-138000000D01*
X110000000Y-133000000D02*
G75*
G02*
X112000000Y-133000000I1000000J0D01*
G01*
X110000000Y-133000000D02*
X110000000Y-103000000D01*
X110000000Y-99000000D02*
G75*
G02*
X112000000Y-99000000I1000000J0D01*
G01*
X110000000Y-98000000D02*
X110000000Y-99000000D01*
X112000000Y-98000000D02*
X112000000Y-99000000D01*
X71500000Y-98000000D02*
G75*
G02*
X71500000Y-95000000I0J1500000D01*
G01*
X77500000Y-95000000D02*
G75*
G02*
X77500000Y-98000000I0J-1500000D01*
G01*
X102500000Y-98000000D02*
G75*
G02*
X102500000Y-95000000I0J1500000D01*
G01*
X108500000Y-95000000D02*
G75*
G02*
X108500000Y-98000000I0J-1500000D01*
G01*
X113500000Y-98000000D02*
G75*
G02*
X113500000Y-95000000I0J1500000D01*
G01*
X119500000Y-95000000D02*
G75*
G02*
X119500000Y-98000000I0J-1500000D01*
G01*
X144500000Y-98000000D02*
G75*
G02*
X144500000Y-95000000I0J1500000D01*
G01*
X150500000Y-95000000D02*
G75*
G02*
X150500000Y-98000000I0J-1500000D01*
G01*
X179000000Y-95000000D02*
G75*
G02*
X179000000Y-97000000I0J-1000000D01*
G01*
X175000000Y-97000000D02*
G75*
G02*
X175000000Y-95000000I0J1000000D01*
G01*
X160000000Y-95000000D02*
G75*
G02*
X160000000Y-97000000I0J-1000000D01*
G01*
X156000000Y-97000000D02*
G75*
G02*
X156000000Y-95000000I0J1000000D01*
G01*
X152000000Y-99500000D02*
G75*
G02*
X155000000Y-99500000I1500000J0D01*
G01*
X155000000Y-105500000D02*
G75*
G02*
X152000000Y-105500000I-1500000J0D01*
G01*
X171000000Y-122000000D02*
G75*
G02*
X171000000Y-124000000I0J-1000000D01*
G01*
X167000000Y-124000000D02*
G75*
G02*
X167000000Y-122000000I0J1000000D01*
G01*
X173000000Y-129500000D02*
G75*
G02*
X175000000Y-129500000I1000000J0D01*
G01*
X175000000Y-133500000D02*
G75*
G02*
X173000000Y-133500000I-1000000J0D01*
G01*
X165000000Y-133500000D02*
G75*
G02*
X163000000Y-133500000I-1000000J0D01*
G01*
X163000000Y-129500000D02*
G75*
G02*
X165000000Y-129500000I1000000J0D01*
G01*
X161000000Y-122000000D02*
G75*
G02*
X161000000Y-124000000I0J-1000000D01*
G01*
X157000000Y-124000000D02*
G75*
G02*
X157000000Y-122000000I0J1000000D01*
G01*
X152000000Y-114500000D02*
G75*
G02*
X155000000Y-114500000I1500000J0D01*
G01*
X155000000Y-120500000D02*
G75*
G02*
X152000000Y-120500000I-1500000J0D01*
G01*
X152000000Y-130500000D02*
G75*
G02*
X155000000Y-130500000I1500000J0D01*
G01*
X155000000Y-136500000D02*
G75*
G02*
X152000000Y-136500000I-1500000J0D01*
G01*
X175000000Y-141000000D02*
X175000000Y-133500000D01*
X180000000Y-141000000D02*
X175000000Y-141000000D01*
X180000000Y-124000000D02*
X180000000Y-141000000D01*
X175000000Y-124000000D02*
X180000000Y-124000000D01*
X175000000Y-129500000D02*
X175000000Y-124000000D01*
X173000000Y-133500000D02*
X173000000Y-141000000D01*
X173000000Y-124000000D02*
X173000000Y-129500000D01*
X71500000Y-138000000D02*
X70000000Y-138000000D01*
X102500000Y-138000000D02*
X77500000Y-138000000D01*
X110000000Y-138000000D02*
X108500000Y-138000000D01*
X113500000Y-138000000D02*
X112000000Y-138000000D01*
X144500000Y-138000000D02*
X119500000Y-138000000D01*
X152000000Y-138000000D02*
X150500000Y-138000000D01*
X152000000Y-136500000D02*
X152000000Y-138000000D01*
X155000000Y-141000000D02*
X155000000Y-136500000D01*
X163000000Y-141000000D02*
X155000000Y-141000000D01*
X163000000Y-133500000D02*
X163000000Y-141000000D01*
X165000000Y-141000000D02*
X165000000Y-133500000D01*
X173000000Y-141000000D02*
X165000000Y-141000000D01*
X171000000Y-124000000D02*
X173000000Y-124000000D01*
X180000000Y-122000000D02*
X180000000Y-97000000D01*
X171000000Y-122000000D02*
X180000000Y-122000000D01*
X161000000Y-122000000D02*
X167000000Y-122000000D01*
X165000000Y-124000000D02*
X167000000Y-124000000D01*
X165000000Y-129500000D02*
X165000000Y-124000000D01*
X163000000Y-124000000D02*
X163000000Y-129500000D01*
X161000000Y-124000000D02*
X163000000Y-124000000D01*
X155000000Y-124000000D02*
X155000000Y-130500000D01*
X157000000Y-124000000D02*
X155000000Y-124000000D01*
X152000000Y-120500000D02*
X152000000Y-130500000D01*
X155000000Y-122000000D02*
X157000000Y-122000000D01*
X155000000Y-120500000D02*
X155000000Y-122000000D01*
X179000000Y-97000000D02*
X180000000Y-97000000D01*
X179000000Y-95000000D02*
X180020000Y-95000000D01*
X175000000Y-95000000D02*
X160000000Y-95000000D01*
X160000000Y-97000000D02*
X175000000Y-97000000D01*
X152000000Y-105500000D02*
X152000000Y-114500000D01*
X155000000Y-105500000D02*
X155000000Y-114500000D01*
X155000000Y-97000000D02*
X156000000Y-97000000D01*
X155000000Y-99500000D02*
X155000000Y-97000000D01*
X152000000Y-98000000D02*
X152000000Y-99500000D01*
X150500000Y-95000000D02*
X156000000Y-95000000D01*
X150500000Y-98000000D02*
X152000000Y-98000000D01*
X144500000Y-95000000D02*
X119500000Y-95000000D01*
X119500000Y-98000000D02*
X144500000Y-98000000D01*
X112000000Y-98000000D02*
X113500000Y-98000000D01*
X108500000Y-98000000D02*
X110000000Y-98000000D01*
X108500000Y-95000000D02*
X113500000Y-95000000D01*
X102500000Y-95000000D02*
X77500000Y-95000000D01*
X77500000Y-98000000D02*
X102500000Y-98000000D01*
X70000000Y-98000000D02*
X71500000Y-98000000D01*
X70020000Y-95000000D02*
X71500000Y-95000000D01*
X112000000Y-103000000D02*
G75*
G02*
X110000000Y-103000000I-1000000J0D01*
G01*
X112000000Y-103000000D02*
X112000000Y-133000000D01*
X70000000Y-98000000D02*
X70000000Y-138000000D01*
X112000000Y-137000000D02*
X112000000Y-138000000D01*
X112000000Y-137000000D02*
G75*
G02*
X110000000Y-137000000I-1000000J0D01*
G01*
X110000000Y-138000000D02*
X110000000Y-137000000D01*
X70000000Y-20000000D02*
X76520000Y-20000000D01*
X70020000Y-26500000D02*
X70000000Y-20000000D01*
X134500000Y-131000000D02*
G75*
G02*
X129500000Y-131000000I-2500000J0D01*
G01*
X129500000Y-131000000D02*
G75*
G02*
X134500000Y-131000000I2500000J0D01*
G01*
X134500000Y-103000000D02*
G75*
G02*
X129500000Y-103000000I-2500000J0D01*
G01*
X129500000Y-103000000D02*
G75*
G02*
X134500000Y-103000000I2500000J0D01*
G01*
X70020000Y-95000000D02*
X70020000Y-88500000D01*
X180020000Y-88500000D02*
X180020000Y-95000000D01*
X180020000Y-20000000D02*
X180020000Y-26500000D01*
X173520000Y-20000000D02*
X180020000Y-20000000D01*
X178020000Y-88500000D02*
G75*
G02*
X169020000Y-88500000I-4500000J0D01*
G01*
X169020000Y-88500000D02*
G75*
G02*
X178020000Y-88500000I4500000J0D01*
G01*
X180020000Y-26500000D02*
X180020000Y-88500000D01*
X81020000Y-26500000D02*
G75*
G02*
X72020000Y-26500000I-4500000J0D01*
G01*
X72020000Y-26500000D02*
G75*
G02*
X81020000Y-26500000I4500000J0D01*
G01*
X76520000Y-20000000D02*
X173520000Y-20000000D01*
X81020000Y-88500000D02*
G75*
G02*
X72020000Y-88500000I-4500000J0D01*
G01*
X72020000Y-88500000D02*
G75*
G02*
X81020000Y-88500000I4500000J0D01*
G01*
X70020000Y-88500000D02*
X70020000Y-26500000D01*
X178020000Y-26500000D02*
G75*
G02*
X169020000Y-26500000I-4500000J0D01*
G01*
X169020000Y-26500000D02*
G75*
G02*
X178020000Y-26500000I4500000J0D01*
G01*
X92500000Y-131000000D02*
G75*
G02*
X87500000Y-131000000I-2500000J0D01*
G01*
X87500000Y-131000000D02*
G75*
G02*
X92500000Y-131000000I2500000J0D01*
G01*
X92500000Y-103000000D02*
G75*
G02*
X87500000Y-103000000I-2500000J0D01*
G01*
X87500000Y-103000000D02*
G75*
G02*
X92500000Y-103000000I2500000J0D01*
G01*
X178550000Y-100000000D02*
G75*
G02*
X175450000Y-100000000I-1550000J0D01*
G01*
X175450000Y-100000000D02*
G75*
G02*
X178550000Y-100000000I1550000J0D01*
G01*
X159550000Y-100000000D02*
G75*
G02*
X156450000Y-100000000I-1550000J0D01*
G01*
X156450000Y-100000000D02*
G75*
G02*
X159550000Y-100000000I1550000J0D01*
G01*
X159550000Y-119000000D02*
G75*
G02*
X156450000Y-119000000I-1550000J0D01*
G01*
X156450000Y-119000000D02*
G75*
G02*
X159550000Y-119000000I1550000J0D01*
G01*
X178550000Y-119000000D02*
G75*
G02*
X175450000Y-119000000I-1550000J0D01*
G01*
X175450000Y-119000000D02*
G75*
G02*
X178550000Y-119000000I1550000J0D01*
G01*
M02*
