%TF.GenerationSoftware,KiCad,Pcbnew,8.0.1*%
%TF.CreationDate,2024-08-04T22:51:27+02:00*%
%TF.ProjectId,FT_MainBoard,46545f4d-6169-46e4-926f-6172642e6b69,rev?*%
%TF.SameCoordinates,Original*%
%TF.FileFunction,Soldermask,Top*%
%TF.FilePolarity,Negative*%
%FSLAX46Y46*%
G04 Gerber Fmt 4.6, Leading zero omitted, Abs format (unit mm)*
G04 Created by KiCad (PCBNEW 8.0.1) date 2024-08-04 22:51:27*
%MOMM*%
%LPD*%
G01*
G04 APERTURE LIST*
G04 APERTURE END LIST*
G36*
X138850000Y-118850000D02*
G01*
X137150000Y-118850000D01*
X137150000Y-117150000D01*
X138850000Y-117150000D01*
X138850000Y-118850000D01*
G37*
G36*
X100162664Y-117191602D02*
G01*
X100325000Y-117263878D01*
X100468761Y-117368327D01*
X100587664Y-117500383D01*
X100676514Y-117654274D01*
X100731425Y-117823275D01*
X100750000Y-118000000D01*
X100731425Y-118176725D01*
X100676514Y-118345726D01*
X100587664Y-118499617D01*
X100468761Y-118631673D01*
X100325000Y-118736122D01*
X100162664Y-118808398D01*
X99988849Y-118845344D01*
X99811151Y-118845344D01*
X99637336Y-118808398D01*
X99475000Y-118736122D01*
X99331239Y-118631673D01*
X99212336Y-118499617D01*
X99123486Y-118345726D01*
X99068575Y-118176725D01*
X99050000Y-118000000D01*
X99068575Y-117823275D01*
X99123486Y-117654274D01*
X99212336Y-117500383D01*
X99331239Y-117368327D01*
X99475000Y-117263878D01*
X99637336Y-117191602D01*
X99811151Y-117154656D01*
X99988849Y-117154656D01*
X100162664Y-117191602D01*
G37*
G36*
X102702664Y-117191602D02*
G01*
X102865000Y-117263878D01*
X103008761Y-117368327D01*
X103127664Y-117500383D01*
X103216514Y-117654274D01*
X103271425Y-117823275D01*
X103290000Y-118000000D01*
X103271425Y-118176725D01*
X103216514Y-118345726D01*
X103127664Y-118499617D01*
X103008761Y-118631673D01*
X102865000Y-118736122D01*
X102702664Y-118808398D01*
X102528849Y-118845344D01*
X102351151Y-118845344D01*
X102177336Y-118808398D01*
X102015000Y-118736122D01*
X101871239Y-118631673D01*
X101752336Y-118499617D01*
X101663486Y-118345726D01*
X101608575Y-118176725D01*
X101590000Y-118000000D01*
X101608575Y-117823275D01*
X101663486Y-117654274D01*
X101752336Y-117500383D01*
X101871239Y-117368327D01*
X102015000Y-117263878D01*
X102177336Y-117191602D01*
X102351151Y-117154656D01*
X102528849Y-117154656D01*
X102702664Y-117191602D01*
G37*
G36*
X105242664Y-117191602D02*
G01*
X105405000Y-117263878D01*
X105548761Y-117368327D01*
X105667664Y-117500383D01*
X105756514Y-117654274D01*
X105811425Y-117823275D01*
X105830000Y-118000000D01*
X105811425Y-118176725D01*
X105756514Y-118345726D01*
X105667664Y-118499617D01*
X105548761Y-118631673D01*
X105405000Y-118736122D01*
X105242664Y-118808398D01*
X105068849Y-118845344D01*
X104891151Y-118845344D01*
X104717336Y-118808398D01*
X104555000Y-118736122D01*
X104411239Y-118631673D01*
X104292336Y-118499617D01*
X104203486Y-118345726D01*
X104148575Y-118176725D01*
X104130000Y-118000000D01*
X104148575Y-117823275D01*
X104203486Y-117654274D01*
X104292336Y-117500383D01*
X104411239Y-117368327D01*
X104555000Y-117263878D01*
X104717336Y-117191602D01*
X104891151Y-117154656D01*
X105068849Y-117154656D01*
X105242664Y-117191602D01*
G37*
G36*
X107782664Y-117191602D02*
G01*
X107945000Y-117263878D01*
X108088761Y-117368327D01*
X108207664Y-117500383D01*
X108296514Y-117654274D01*
X108351425Y-117823275D01*
X108370000Y-118000000D01*
X108351425Y-118176725D01*
X108296514Y-118345726D01*
X108207664Y-118499617D01*
X108088761Y-118631673D01*
X107945000Y-118736122D01*
X107782664Y-118808398D01*
X107608849Y-118845344D01*
X107431151Y-118845344D01*
X107257336Y-118808398D01*
X107095000Y-118736122D01*
X106951239Y-118631673D01*
X106832336Y-118499617D01*
X106743486Y-118345726D01*
X106688575Y-118176725D01*
X106670000Y-118000000D01*
X106688575Y-117823275D01*
X106743486Y-117654274D01*
X106832336Y-117500383D01*
X106951239Y-117368327D01*
X107095000Y-117263878D01*
X107257336Y-117191602D01*
X107431151Y-117154656D01*
X107608849Y-117154656D01*
X107782664Y-117191602D01*
G37*
G36*
X110322664Y-117191602D02*
G01*
X110485000Y-117263878D01*
X110628761Y-117368327D01*
X110747664Y-117500383D01*
X110836514Y-117654274D01*
X110891425Y-117823275D01*
X110910000Y-118000000D01*
X110891425Y-118176725D01*
X110836514Y-118345726D01*
X110747664Y-118499617D01*
X110628761Y-118631673D01*
X110485000Y-118736122D01*
X110322664Y-118808398D01*
X110148849Y-118845344D01*
X109971151Y-118845344D01*
X109797336Y-118808398D01*
X109635000Y-118736122D01*
X109491239Y-118631673D01*
X109372336Y-118499617D01*
X109283486Y-118345726D01*
X109228575Y-118176725D01*
X109210000Y-118000000D01*
X109228575Y-117823275D01*
X109283486Y-117654274D01*
X109372336Y-117500383D01*
X109491239Y-117368327D01*
X109635000Y-117263878D01*
X109797336Y-117191602D01*
X109971151Y-117154656D01*
X110148849Y-117154656D01*
X110322664Y-117191602D01*
G37*
G36*
X112862664Y-117191602D02*
G01*
X113025000Y-117263878D01*
X113168761Y-117368327D01*
X113287664Y-117500383D01*
X113376514Y-117654274D01*
X113431425Y-117823275D01*
X113450000Y-118000000D01*
X113431425Y-118176725D01*
X113376514Y-118345726D01*
X113287664Y-118499617D01*
X113168761Y-118631673D01*
X113025000Y-118736122D01*
X112862664Y-118808398D01*
X112688849Y-118845344D01*
X112511151Y-118845344D01*
X112337336Y-118808398D01*
X112175000Y-118736122D01*
X112031239Y-118631673D01*
X111912336Y-118499617D01*
X111823486Y-118345726D01*
X111768575Y-118176725D01*
X111750000Y-118000000D01*
X111768575Y-117823275D01*
X111823486Y-117654274D01*
X111912336Y-117500383D01*
X112031239Y-117368327D01*
X112175000Y-117263878D01*
X112337336Y-117191602D01*
X112511151Y-117154656D01*
X112688849Y-117154656D01*
X112862664Y-117191602D01*
G37*
G36*
X115402664Y-117191602D02*
G01*
X115565000Y-117263878D01*
X115708761Y-117368327D01*
X115827664Y-117500383D01*
X115916514Y-117654274D01*
X115971425Y-117823275D01*
X115990000Y-118000000D01*
X115971425Y-118176725D01*
X115916514Y-118345726D01*
X115827664Y-118499617D01*
X115708761Y-118631673D01*
X115565000Y-118736122D01*
X115402664Y-118808398D01*
X115228849Y-118845344D01*
X115051151Y-118845344D01*
X114877336Y-118808398D01*
X114715000Y-118736122D01*
X114571239Y-118631673D01*
X114452336Y-118499617D01*
X114363486Y-118345726D01*
X114308575Y-118176725D01*
X114290000Y-118000000D01*
X114308575Y-117823275D01*
X114363486Y-117654274D01*
X114452336Y-117500383D01*
X114571239Y-117368327D01*
X114715000Y-117263878D01*
X114877336Y-117191602D01*
X115051151Y-117154656D01*
X115228849Y-117154656D01*
X115402664Y-117191602D01*
G37*
G36*
X117942664Y-117191602D02*
G01*
X118105000Y-117263878D01*
X118248761Y-117368327D01*
X118367664Y-117500383D01*
X118456514Y-117654274D01*
X118511425Y-117823275D01*
X118530000Y-118000000D01*
X118511425Y-118176725D01*
X118456514Y-118345726D01*
X118367664Y-118499617D01*
X118248761Y-118631673D01*
X118105000Y-118736122D01*
X117942664Y-118808398D01*
X117768849Y-118845344D01*
X117591151Y-118845344D01*
X117417336Y-118808398D01*
X117255000Y-118736122D01*
X117111239Y-118631673D01*
X116992336Y-118499617D01*
X116903486Y-118345726D01*
X116848575Y-118176725D01*
X116830000Y-118000000D01*
X116848575Y-117823275D01*
X116903486Y-117654274D01*
X116992336Y-117500383D01*
X117111239Y-117368327D01*
X117255000Y-117263878D01*
X117417336Y-117191602D01*
X117591151Y-117154656D01*
X117768849Y-117154656D01*
X117942664Y-117191602D01*
G37*
G36*
X120482664Y-117191602D02*
G01*
X120645000Y-117263878D01*
X120788761Y-117368327D01*
X120907664Y-117500383D01*
X120996514Y-117654274D01*
X121051425Y-117823275D01*
X121070000Y-118000000D01*
X121051425Y-118176725D01*
X120996514Y-118345726D01*
X120907664Y-118499617D01*
X120788761Y-118631673D01*
X120645000Y-118736122D01*
X120482664Y-118808398D01*
X120308849Y-118845344D01*
X120131151Y-118845344D01*
X119957336Y-118808398D01*
X119795000Y-118736122D01*
X119651239Y-118631673D01*
X119532336Y-118499617D01*
X119443486Y-118345726D01*
X119388575Y-118176725D01*
X119370000Y-118000000D01*
X119388575Y-117823275D01*
X119443486Y-117654274D01*
X119532336Y-117500383D01*
X119651239Y-117368327D01*
X119795000Y-117263878D01*
X119957336Y-117191602D01*
X120131151Y-117154656D01*
X120308849Y-117154656D01*
X120482664Y-117191602D01*
G37*
G36*
X123022664Y-117191602D02*
G01*
X123185000Y-117263878D01*
X123328761Y-117368327D01*
X123447664Y-117500383D01*
X123536514Y-117654274D01*
X123591425Y-117823275D01*
X123610000Y-118000000D01*
X123591425Y-118176725D01*
X123536514Y-118345726D01*
X123447664Y-118499617D01*
X123328761Y-118631673D01*
X123185000Y-118736122D01*
X123022664Y-118808398D01*
X122848849Y-118845344D01*
X122671151Y-118845344D01*
X122497336Y-118808398D01*
X122335000Y-118736122D01*
X122191239Y-118631673D01*
X122072336Y-118499617D01*
X121983486Y-118345726D01*
X121928575Y-118176725D01*
X121910000Y-118000000D01*
X121928575Y-117823275D01*
X121983486Y-117654274D01*
X122072336Y-117500383D01*
X122191239Y-117368327D01*
X122335000Y-117263878D01*
X122497336Y-117191602D01*
X122671151Y-117154656D01*
X122848849Y-117154656D01*
X123022664Y-117191602D01*
G37*
G36*
X125562664Y-117191602D02*
G01*
X125725000Y-117263878D01*
X125868761Y-117368327D01*
X125987664Y-117500383D01*
X126076514Y-117654274D01*
X126131425Y-117823275D01*
X126150000Y-118000000D01*
X126131425Y-118176725D01*
X126076514Y-118345726D01*
X125987664Y-118499617D01*
X125868761Y-118631673D01*
X125725000Y-118736122D01*
X125562664Y-118808398D01*
X125388849Y-118845344D01*
X125211151Y-118845344D01*
X125037336Y-118808398D01*
X124875000Y-118736122D01*
X124731239Y-118631673D01*
X124612336Y-118499617D01*
X124523486Y-118345726D01*
X124468575Y-118176725D01*
X124450000Y-118000000D01*
X124468575Y-117823275D01*
X124523486Y-117654274D01*
X124612336Y-117500383D01*
X124731239Y-117368327D01*
X124875000Y-117263878D01*
X125037336Y-117191602D01*
X125211151Y-117154656D01*
X125388849Y-117154656D01*
X125562664Y-117191602D01*
G37*
G36*
X128102664Y-117191602D02*
G01*
X128265000Y-117263878D01*
X128408761Y-117368327D01*
X128527664Y-117500383D01*
X128616514Y-117654274D01*
X128671425Y-117823275D01*
X128690000Y-118000000D01*
X128671425Y-118176725D01*
X128616514Y-118345726D01*
X128527664Y-118499617D01*
X128408761Y-118631673D01*
X128265000Y-118736122D01*
X128102664Y-118808398D01*
X127928849Y-118845344D01*
X127751151Y-118845344D01*
X127577336Y-118808398D01*
X127415000Y-118736122D01*
X127271239Y-118631673D01*
X127152336Y-118499617D01*
X127063486Y-118345726D01*
X127008575Y-118176725D01*
X126990000Y-118000000D01*
X127008575Y-117823275D01*
X127063486Y-117654274D01*
X127152336Y-117500383D01*
X127271239Y-117368327D01*
X127415000Y-117263878D01*
X127577336Y-117191602D01*
X127751151Y-117154656D01*
X127928849Y-117154656D01*
X128102664Y-117191602D01*
G37*
G36*
X130642664Y-117191602D02*
G01*
X130805000Y-117263878D01*
X130948761Y-117368327D01*
X131067664Y-117500383D01*
X131156514Y-117654274D01*
X131211425Y-117823275D01*
X131230000Y-118000000D01*
X131211425Y-118176725D01*
X131156514Y-118345726D01*
X131067664Y-118499617D01*
X130948761Y-118631673D01*
X130805000Y-118736122D01*
X130642664Y-118808398D01*
X130468849Y-118845344D01*
X130291151Y-118845344D01*
X130117336Y-118808398D01*
X129955000Y-118736122D01*
X129811239Y-118631673D01*
X129692336Y-118499617D01*
X129603486Y-118345726D01*
X129548575Y-118176725D01*
X129530000Y-118000000D01*
X129548575Y-117823275D01*
X129603486Y-117654274D01*
X129692336Y-117500383D01*
X129811239Y-117368327D01*
X129955000Y-117263878D01*
X130117336Y-117191602D01*
X130291151Y-117154656D01*
X130468849Y-117154656D01*
X130642664Y-117191602D01*
G37*
G36*
X133182664Y-117191602D02*
G01*
X133345000Y-117263878D01*
X133488761Y-117368327D01*
X133607664Y-117500383D01*
X133696514Y-117654274D01*
X133751425Y-117823275D01*
X133770000Y-118000000D01*
X133751425Y-118176725D01*
X133696514Y-118345726D01*
X133607664Y-118499617D01*
X133488761Y-118631673D01*
X133345000Y-118736122D01*
X133182664Y-118808398D01*
X133008849Y-118845344D01*
X132831151Y-118845344D01*
X132657336Y-118808398D01*
X132495000Y-118736122D01*
X132351239Y-118631673D01*
X132232336Y-118499617D01*
X132143486Y-118345726D01*
X132088575Y-118176725D01*
X132070000Y-118000000D01*
X132088575Y-117823275D01*
X132143486Y-117654274D01*
X132232336Y-117500383D01*
X132351239Y-117368327D01*
X132495000Y-117263878D01*
X132657336Y-117191602D01*
X132831151Y-117154656D01*
X133008849Y-117154656D01*
X133182664Y-117191602D01*
G37*
G36*
X135722664Y-117191602D02*
G01*
X135885000Y-117263878D01*
X136028761Y-117368327D01*
X136147664Y-117500383D01*
X136236514Y-117654274D01*
X136291425Y-117823275D01*
X136310000Y-118000000D01*
X136291425Y-118176725D01*
X136236514Y-118345726D01*
X136147664Y-118499617D01*
X136028761Y-118631673D01*
X135885000Y-118736122D01*
X135722664Y-118808398D01*
X135548849Y-118845344D01*
X135371151Y-118845344D01*
X135197336Y-118808398D01*
X135035000Y-118736122D01*
X134891239Y-118631673D01*
X134772336Y-118499617D01*
X134683486Y-118345726D01*
X134628575Y-118176725D01*
X134610000Y-118000000D01*
X134628575Y-117823275D01*
X134683486Y-117654274D01*
X134772336Y-117500383D01*
X134891239Y-117368327D01*
X135035000Y-117263878D01*
X135197336Y-117191602D01*
X135371151Y-117154656D01*
X135548849Y-117154656D01*
X135722664Y-117191602D01*
G37*
G36*
X91500000Y-117000000D02*
G01*
X90500000Y-117000000D01*
X90500000Y-116000000D01*
X91500000Y-116000000D01*
X91500000Y-117000000D01*
G37*
G36*
X91500000Y-113022000D02*
G01*
X90500000Y-113022000D01*
X90500000Y-112022000D01*
X91500000Y-112022000D01*
X91500000Y-113022000D01*
G37*
G36*
X108577367Y-108519161D02*
G01*
X108619593Y-108519161D01*
X108667228Y-108529286D01*
X108714017Y-108534558D01*
X108748039Y-108546462D01*
X108783127Y-108553921D01*
X108833695Y-108576435D01*
X108883107Y-108593725D01*
X108908823Y-108609883D01*
X108935860Y-108621921D01*
X108986275Y-108658550D01*
X109034792Y-108689035D01*
X109052214Y-108706457D01*
X109071117Y-108720191D01*
X109117844Y-108772087D01*
X109161465Y-108815708D01*
X109171499Y-108831677D01*
X109182986Y-108844435D01*
X109222285Y-108912503D01*
X109256775Y-108967393D01*
X109261080Y-108979697D01*
X109266580Y-108989223D01*
X109294740Y-109075892D01*
X109315942Y-109136483D01*
X109316746Y-109143618D01*
X109318244Y-109148229D01*
X109331820Y-109277404D01*
X109336000Y-109314500D01*
X109331819Y-109351598D01*
X109318244Y-109480770D01*
X109316746Y-109485379D01*
X109315942Y-109492517D01*
X109294736Y-109553120D01*
X109266580Y-109639776D01*
X109261081Y-109649299D01*
X109256775Y-109661607D01*
X109222278Y-109716507D01*
X109182986Y-109784564D01*
X109171501Y-109797318D01*
X109161465Y-109813292D01*
X109117835Y-109856921D01*
X109071117Y-109908808D01*
X109052218Y-109922538D01*
X109034792Y-109939965D01*
X108986265Y-109970456D01*
X108935860Y-110007078D01*
X108908829Y-110019112D01*
X108883107Y-110035275D01*
X108833685Y-110052568D01*
X108783127Y-110075078D01*
X108748045Y-110082535D01*
X108714017Y-110094442D01*
X108667225Y-110099714D01*
X108619593Y-110109839D01*
X108577367Y-110109839D01*
X108536000Y-110114500D01*
X108494633Y-110109839D01*
X108452407Y-110109839D01*
X108404774Y-110099714D01*
X108357983Y-110094442D01*
X108323955Y-110082535D01*
X108288872Y-110075078D01*
X108238309Y-110052566D01*
X108188893Y-110035275D01*
X108163173Y-110019114D01*
X108136139Y-110007078D01*
X108085726Y-109970451D01*
X108037208Y-109939965D01*
X108019784Y-109922541D01*
X108000882Y-109908808D01*
X107954154Y-109856911D01*
X107910535Y-109813292D01*
X107900500Y-109797322D01*
X107889013Y-109784564D01*
X107849709Y-109716487D01*
X107815225Y-109661607D01*
X107810919Y-109649303D01*
X107805419Y-109639776D01*
X107777249Y-109553080D01*
X107756058Y-109492517D01*
X107755254Y-109485384D01*
X107753755Y-109480770D01*
X107740165Y-109351466D01*
X107736000Y-109314500D01*
X107740164Y-109277536D01*
X107753755Y-109148229D01*
X107755254Y-109143613D01*
X107756058Y-109136483D01*
X107777245Y-109075932D01*
X107805419Y-108989223D01*
X107810920Y-108979693D01*
X107815225Y-108967393D01*
X107849701Y-108912523D01*
X107889013Y-108844435D01*
X107900502Y-108831674D01*
X107910535Y-108815708D01*
X107954145Y-108772097D01*
X108000882Y-108720191D01*
X108019787Y-108706455D01*
X108037208Y-108689035D01*
X108085721Y-108658552D01*
X108136140Y-108621921D01*
X108163176Y-108609883D01*
X108188893Y-108593725D01*
X108238301Y-108576436D01*
X108288872Y-108553921D01*
X108323961Y-108546462D01*
X108357983Y-108534558D01*
X108404771Y-108529286D01*
X108452407Y-108519161D01*
X108494633Y-108519161D01*
X108536000Y-108514500D01*
X108577367Y-108519161D01*
G37*
G36*
X150710000Y-110070000D02*
G01*
X149010000Y-110070000D01*
X149010000Y-108370000D01*
X150710000Y-108370000D01*
X150710000Y-110070000D01*
G37*
G36*
X150122664Y-105871602D02*
G01*
X150285000Y-105943878D01*
X150428761Y-106048327D01*
X150547664Y-106180383D01*
X150636514Y-106334274D01*
X150691425Y-106503275D01*
X150710000Y-106680000D01*
X150691425Y-106856725D01*
X150636514Y-107025726D01*
X150547664Y-107179617D01*
X150428761Y-107311673D01*
X150285000Y-107416122D01*
X150122664Y-107488398D01*
X149948849Y-107525344D01*
X149771151Y-107525344D01*
X149597336Y-107488398D01*
X149435000Y-107416122D01*
X149291239Y-107311673D01*
X149172336Y-107179617D01*
X149083486Y-107025726D01*
X149028575Y-106856725D01*
X149010000Y-106680000D01*
X149028575Y-106503275D01*
X149083486Y-106334274D01*
X149172336Y-106180383D01*
X149291239Y-106048327D01*
X149435000Y-105943878D01*
X149597336Y-105871602D01*
X149771151Y-105834656D01*
X149948849Y-105834656D01*
X150122664Y-105871602D01*
G37*
G36*
X112514000Y-105148000D02*
G01*
X111514000Y-105148000D01*
X111514000Y-104148000D01*
X112514000Y-104148000D01*
X112514000Y-105148000D01*
G37*
G36*
X150122664Y-103331602D02*
G01*
X150285000Y-103403878D01*
X150428761Y-103508327D01*
X150547664Y-103640383D01*
X150636514Y-103794274D01*
X150691425Y-103963275D01*
X150710000Y-104140000D01*
X150691425Y-104316725D01*
X150636514Y-104485726D01*
X150547664Y-104639617D01*
X150428761Y-104771673D01*
X150285000Y-104876122D01*
X150122664Y-104948398D01*
X149948849Y-104985344D01*
X149771151Y-104985344D01*
X149597336Y-104948398D01*
X149435000Y-104876122D01*
X149291239Y-104771673D01*
X149172336Y-104639617D01*
X149083486Y-104485726D01*
X149028575Y-104316725D01*
X149010000Y-104140000D01*
X149028575Y-103963275D01*
X149083486Y-103794274D01*
X149172336Y-103640383D01*
X149291239Y-103508327D01*
X149435000Y-103403878D01*
X149597336Y-103331602D01*
X149771151Y-103294656D01*
X149948849Y-103294656D01*
X150122664Y-103331602D01*
G37*
G36*
X89500000Y-104000000D02*
G01*
X88500000Y-104000000D01*
X88500000Y-103000000D01*
X89500000Y-103000000D01*
X89500000Y-104000000D01*
G37*
G36*
X92500000Y-104000000D02*
G01*
X91500000Y-104000000D01*
X91500000Y-103000000D01*
X92500000Y-103000000D01*
X92500000Y-104000000D01*
G37*
G36*
X95500000Y-104000000D02*
G01*
X94500000Y-104000000D01*
X94500000Y-103000000D01*
X95500000Y-103000000D01*
X95500000Y-104000000D01*
G37*
G36*
X109336000Y-102494500D02*
G01*
X107736000Y-102494500D01*
X107736000Y-100894500D01*
X109336000Y-100894500D01*
X109336000Y-102494500D01*
G37*
G36*
X112514000Y-102227000D02*
G01*
X111514000Y-102227000D01*
X111514000Y-101227000D01*
X112514000Y-101227000D01*
X112514000Y-102227000D01*
G37*
G36*
X150351616Y-93695818D02*
G01*
X150402879Y-93701766D01*
X150420392Y-93709499D01*
X150443171Y-93714030D01*
X150467557Y-93730324D01*
X150488288Y-93739478D01*
X150502446Y-93753636D01*
X150524277Y-93768223D01*
X150538863Y-93790053D01*
X150553021Y-93804211D01*
X150562173Y-93824939D01*
X150578470Y-93849329D01*
X150583001Y-93872109D01*
X150590733Y-93889620D01*
X150596678Y-93940872D01*
X150597500Y-93945000D01*
X150597500Y-95145000D01*
X150596678Y-95149128D01*
X150590733Y-95200379D01*
X150583001Y-95217888D01*
X150578470Y-95240671D01*
X150562172Y-95265062D01*
X150553021Y-95285788D01*
X150538865Y-95299943D01*
X150524277Y-95321777D01*
X150502443Y-95336365D01*
X150488288Y-95350521D01*
X150467562Y-95359672D01*
X150443171Y-95375970D01*
X150420388Y-95380501D01*
X150402879Y-95388233D01*
X150351629Y-95394178D01*
X150347500Y-95395000D01*
X149147500Y-95395000D01*
X149143373Y-95394179D01*
X149092120Y-95388233D01*
X149074609Y-95380501D01*
X149051829Y-95375970D01*
X149027439Y-95359673D01*
X149006711Y-95350521D01*
X148992553Y-95336363D01*
X148970723Y-95321777D01*
X148956136Y-95299946D01*
X148941978Y-95285788D01*
X148932824Y-95265057D01*
X148916530Y-95240671D01*
X148911999Y-95217892D01*
X148904266Y-95200379D01*
X148898318Y-95149117D01*
X148897500Y-95145000D01*
X148897500Y-93945000D01*
X148898318Y-93940885D01*
X148904266Y-93889620D01*
X148911999Y-93872105D01*
X148916530Y-93849329D01*
X148932823Y-93824944D01*
X148941978Y-93804211D01*
X148956138Y-93790050D01*
X148970723Y-93768223D01*
X148992550Y-93753638D01*
X149006711Y-93739478D01*
X149027444Y-93730323D01*
X149051829Y-93714030D01*
X149074605Y-93709499D01*
X149092120Y-93701766D01*
X149143384Y-93695818D01*
X149147500Y-93695000D01*
X150347500Y-93695000D01*
X150351616Y-93695818D01*
G37*
G36*
X152550164Y-93736602D02*
G01*
X152712500Y-93808878D01*
X152856261Y-93913327D01*
X152975164Y-94045383D01*
X153064014Y-94199274D01*
X153118925Y-94368275D01*
X153137500Y-94545000D01*
X153118925Y-94721725D01*
X153064014Y-94890726D01*
X152975164Y-95044617D01*
X152856261Y-95176673D01*
X152712500Y-95281122D01*
X152550164Y-95353398D01*
X152376349Y-95390344D01*
X152198651Y-95390344D01*
X152024836Y-95353398D01*
X151862500Y-95281122D01*
X151718739Y-95176673D01*
X151599836Y-95044617D01*
X151510986Y-94890726D01*
X151456075Y-94721725D01*
X151437500Y-94545000D01*
X151456075Y-94368275D01*
X151510986Y-94199274D01*
X151599836Y-94045383D01*
X151718739Y-93913327D01*
X151862500Y-93808878D01*
X152024836Y-93736602D01*
X152198651Y-93699656D01*
X152376349Y-93699656D01*
X152550164Y-93736602D01*
G37*
G36*
X150010164Y-91196602D02*
G01*
X150172500Y-91268878D01*
X150316261Y-91373327D01*
X150435164Y-91505383D01*
X150524014Y-91659274D01*
X150578925Y-91828275D01*
X150597500Y-92005000D01*
X150578925Y-92181725D01*
X150524014Y-92350726D01*
X150435164Y-92504617D01*
X150316261Y-92636673D01*
X150172500Y-92741122D01*
X150010164Y-92813398D01*
X149836349Y-92850344D01*
X149658651Y-92850344D01*
X149484836Y-92813398D01*
X149322500Y-92741122D01*
X149178739Y-92636673D01*
X149059836Y-92504617D01*
X148970986Y-92350726D01*
X148916075Y-92181725D01*
X148897500Y-92005000D01*
X148916075Y-91828275D01*
X148970986Y-91659274D01*
X149059836Y-91505383D01*
X149178739Y-91373327D01*
X149322500Y-91268878D01*
X149484836Y-91196602D01*
X149658651Y-91159656D01*
X149836349Y-91159656D01*
X150010164Y-91196602D01*
G37*
G36*
X152550164Y-91196602D02*
G01*
X152712500Y-91268878D01*
X152856261Y-91373327D01*
X152975164Y-91505383D01*
X153064014Y-91659274D01*
X153118925Y-91828275D01*
X153137500Y-92005000D01*
X153118925Y-92181725D01*
X153064014Y-92350726D01*
X152975164Y-92504617D01*
X152856261Y-92636673D01*
X152712500Y-92741122D01*
X152550164Y-92813398D01*
X152376349Y-92850344D01*
X152198651Y-92850344D01*
X152024836Y-92813398D01*
X151862500Y-92741122D01*
X151718739Y-92636673D01*
X151599836Y-92504617D01*
X151510986Y-92350726D01*
X151456075Y-92181725D01*
X151437500Y-92005000D01*
X151456075Y-91828275D01*
X151510986Y-91659274D01*
X151599836Y-91505383D01*
X151718739Y-91373327D01*
X151862500Y-91268878D01*
X152024836Y-91196602D01*
X152198651Y-91159656D01*
X152376349Y-91159656D01*
X152550164Y-91196602D01*
G37*
G36*
X150010164Y-88656602D02*
G01*
X150172500Y-88728878D01*
X150316261Y-88833327D01*
X150435164Y-88965383D01*
X150524014Y-89119274D01*
X150578925Y-89288275D01*
X150597500Y-89465000D01*
X150578925Y-89641725D01*
X150524014Y-89810726D01*
X150435164Y-89964617D01*
X150316261Y-90096673D01*
X150172500Y-90201122D01*
X150010164Y-90273398D01*
X149836349Y-90310344D01*
X149658651Y-90310344D01*
X149484836Y-90273398D01*
X149322500Y-90201122D01*
X149178739Y-90096673D01*
X149059836Y-89964617D01*
X148970986Y-89810726D01*
X148916075Y-89641725D01*
X148897500Y-89465000D01*
X148916075Y-89288275D01*
X148970986Y-89119274D01*
X149059836Y-88965383D01*
X149178739Y-88833327D01*
X149322500Y-88728878D01*
X149484836Y-88656602D01*
X149658651Y-88619656D01*
X149836349Y-88619656D01*
X150010164Y-88656602D01*
G37*
G36*
X152550164Y-88656602D02*
G01*
X152712500Y-88728878D01*
X152856261Y-88833327D01*
X152975164Y-88965383D01*
X153064014Y-89119274D01*
X153118925Y-89288275D01*
X153137500Y-89465000D01*
X153118925Y-89641725D01*
X153064014Y-89810726D01*
X152975164Y-89964617D01*
X152856261Y-90096673D01*
X152712500Y-90201122D01*
X152550164Y-90273398D01*
X152376349Y-90310344D01*
X152198651Y-90310344D01*
X152024836Y-90273398D01*
X151862500Y-90201122D01*
X151718739Y-90096673D01*
X151599836Y-89964617D01*
X151510986Y-89810726D01*
X151456075Y-89641725D01*
X151437500Y-89465000D01*
X151456075Y-89288275D01*
X151510986Y-89119274D01*
X151599836Y-88965383D01*
X151718739Y-88833327D01*
X151862500Y-88728878D01*
X152024836Y-88656602D01*
X152198651Y-88619656D01*
X152376349Y-88619656D01*
X152550164Y-88656602D01*
G37*
G36*
X126160000Y-80850000D02*
G01*
X124460000Y-80850000D01*
X124460000Y-79150000D01*
X126160000Y-79150000D01*
X126160000Y-80850000D01*
G37*
G36*
X117952664Y-79191602D02*
G01*
X118115000Y-79263878D01*
X118258761Y-79368327D01*
X118377664Y-79500383D01*
X118466514Y-79654274D01*
X118521425Y-79823275D01*
X118540000Y-80000000D01*
X118521425Y-80176725D01*
X118466514Y-80345726D01*
X118377664Y-80499617D01*
X118258761Y-80631673D01*
X118115000Y-80736122D01*
X117952664Y-80808398D01*
X117778849Y-80845344D01*
X117601151Y-80845344D01*
X117427336Y-80808398D01*
X117265000Y-80736122D01*
X117121239Y-80631673D01*
X117002336Y-80499617D01*
X116913486Y-80345726D01*
X116858575Y-80176725D01*
X116840000Y-80000000D01*
X116858575Y-79823275D01*
X116913486Y-79654274D01*
X117002336Y-79500383D01*
X117121239Y-79368327D01*
X117265000Y-79263878D01*
X117427336Y-79191602D01*
X117601151Y-79154656D01*
X117778849Y-79154656D01*
X117952664Y-79191602D01*
G37*
G36*
X120492664Y-79191602D02*
G01*
X120655000Y-79263878D01*
X120798761Y-79368327D01*
X120917664Y-79500383D01*
X121006514Y-79654274D01*
X121061425Y-79823275D01*
X121080000Y-80000000D01*
X121061425Y-80176725D01*
X121006514Y-80345726D01*
X120917664Y-80499617D01*
X120798761Y-80631673D01*
X120655000Y-80736122D01*
X120492664Y-80808398D01*
X120318849Y-80845344D01*
X120141151Y-80845344D01*
X119967336Y-80808398D01*
X119805000Y-80736122D01*
X119661239Y-80631673D01*
X119542336Y-80499617D01*
X119453486Y-80345726D01*
X119398575Y-80176725D01*
X119380000Y-80000000D01*
X119398575Y-79823275D01*
X119453486Y-79654274D01*
X119542336Y-79500383D01*
X119661239Y-79368327D01*
X119805000Y-79263878D01*
X119967336Y-79191602D01*
X120141151Y-79154656D01*
X120318849Y-79154656D01*
X120492664Y-79191602D01*
G37*
G36*
X123032664Y-79191602D02*
G01*
X123195000Y-79263878D01*
X123338761Y-79368327D01*
X123457664Y-79500383D01*
X123546514Y-79654274D01*
X123601425Y-79823275D01*
X123620000Y-80000000D01*
X123601425Y-80176725D01*
X123546514Y-80345726D01*
X123457664Y-80499617D01*
X123338761Y-80631673D01*
X123195000Y-80736122D01*
X123032664Y-80808398D01*
X122858849Y-80845344D01*
X122681151Y-80845344D01*
X122507336Y-80808398D01*
X122345000Y-80736122D01*
X122201239Y-80631673D01*
X122082336Y-80499617D01*
X121993486Y-80345726D01*
X121938575Y-80176725D01*
X121920000Y-80000000D01*
X121938575Y-79823275D01*
X121993486Y-79654274D01*
X122082336Y-79500383D01*
X122201239Y-79368327D01*
X122345000Y-79263878D01*
X122507336Y-79191602D01*
X122681151Y-79154656D01*
X122858849Y-79154656D01*
X123032664Y-79191602D01*
G37*
G36*
X80660000Y-80804000D02*
G01*
X78960000Y-80804000D01*
X78960000Y-79104000D01*
X80660000Y-79104000D01*
X80660000Y-80804000D01*
G37*
G36*
X107120000Y-80804000D02*
G01*
X105420000Y-80804000D01*
X105420000Y-79104000D01*
X107120000Y-79104000D01*
X107120000Y-80804000D01*
G37*
G36*
X136120000Y-80804000D02*
G01*
X134420000Y-80804000D01*
X134420000Y-79104000D01*
X136120000Y-79104000D01*
X136120000Y-80804000D01*
G37*
G36*
X72452664Y-79145602D02*
G01*
X72615000Y-79217878D01*
X72758761Y-79322327D01*
X72877664Y-79454383D01*
X72966514Y-79608274D01*
X73021425Y-79777275D01*
X73040000Y-79954000D01*
X73021425Y-80130725D01*
X72966514Y-80299726D01*
X72877664Y-80453617D01*
X72758761Y-80585673D01*
X72615000Y-80690122D01*
X72452664Y-80762398D01*
X72278849Y-80799344D01*
X72101151Y-80799344D01*
X71927336Y-80762398D01*
X71765000Y-80690122D01*
X71621239Y-80585673D01*
X71502336Y-80453617D01*
X71413486Y-80299726D01*
X71358575Y-80130725D01*
X71340000Y-79954000D01*
X71358575Y-79777275D01*
X71413486Y-79608274D01*
X71502336Y-79454383D01*
X71621239Y-79322327D01*
X71765000Y-79217878D01*
X71927336Y-79145602D01*
X72101151Y-79108656D01*
X72278849Y-79108656D01*
X72452664Y-79145602D01*
G37*
G36*
X74992664Y-79145602D02*
G01*
X75155000Y-79217878D01*
X75298761Y-79322327D01*
X75417664Y-79454383D01*
X75506514Y-79608274D01*
X75561425Y-79777275D01*
X75580000Y-79954000D01*
X75561425Y-80130725D01*
X75506514Y-80299726D01*
X75417664Y-80453617D01*
X75298761Y-80585673D01*
X75155000Y-80690122D01*
X74992664Y-80762398D01*
X74818849Y-80799344D01*
X74641151Y-80799344D01*
X74467336Y-80762398D01*
X74305000Y-80690122D01*
X74161239Y-80585673D01*
X74042336Y-80453617D01*
X73953486Y-80299726D01*
X73898575Y-80130725D01*
X73880000Y-79954000D01*
X73898575Y-79777275D01*
X73953486Y-79608274D01*
X74042336Y-79454383D01*
X74161239Y-79322327D01*
X74305000Y-79217878D01*
X74467336Y-79145602D01*
X74641151Y-79108656D01*
X74818849Y-79108656D01*
X74992664Y-79145602D01*
G37*
G36*
X77532664Y-79145602D02*
G01*
X77695000Y-79217878D01*
X77838761Y-79322327D01*
X77957664Y-79454383D01*
X78046514Y-79608274D01*
X78101425Y-79777275D01*
X78120000Y-79954000D01*
X78101425Y-80130725D01*
X78046514Y-80299726D01*
X77957664Y-80453617D01*
X77838761Y-80585673D01*
X77695000Y-80690122D01*
X77532664Y-80762398D01*
X77358849Y-80799344D01*
X77181151Y-80799344D01*
X77007336Y-80762398D01*
X76845000Y-80690122D01*
X76701239Y-80585673D01*
X76582336Y-80453617D01*
X76493486Y-80299726D01*
X76438575Y-80130725D01*
X76420000Y-79954000D01*
X76438575Y-79777275D01*
X76493486Y-79608274D01*
X76582336Y-79454383D01*
X76701239Y-79322327D01*
X76845000Y-79217878D01*
X77007336Y-79145602D01*
X77181151Y-79108656D01*
X77358849Y-79108656D01*
X77532664Y-79145602D01*
G37*
G36*
X103992664Y-79145602D02*
G01*
X104155000Y-79217878D01*
X104298761Y-79322327D01*
X104417664Y-79454383D01*
X104506514Y-79608274D01*
X104561425Y-79777275D01*
X104580000Y-79954000D01*
X104561425Y-80130725D01*
X104506514Y-80299726D01*
X104417664Y-80453617D01*
X104298761Y-80585673D01*
X104155000Y-80690122D01*
X103992664Y-80762398D01*
X103818849Y-80799344D01*
X103641151Y-80799344D01*
X103467336Y-80762398D01*
X103305000Y-80690122D01*
X103161239Y-80585673D01*
X103042336Y-80453617D01*
X102953486Y-80299726D01*
X102898575Y-80130725D01*
X102880000Y-79954000D01*
X102898575Y-79777275D01*
X102953486Y-79608274D01*
X103042336Y-79454383D01*
X103161239Y-79322327D01*
X103305000Y-79217878D01*
X103467336Y-79145602D01*
X103641151Y-79108656D01*
X103818849Y-79108656D01*
X103992664Y-79145602D01*
G37*
G36*
X132992664Y-79145602D02*
G01*
X133155000Y-79217878D01*
X133298761Y-79322327D01*
X133417664Y-79454383D01*
X133506514Y-79608274D01*
X133561425Y-79777275D01*
X133580000Y-79954000D01*
X133561425Y-80130725D01*
X133506514Y-80299726D01*
X133417664Y-80453617D01*
X133298761Y-80585673D01*
X133155000Y-80690122D01*
X132992664Y-80762398D01*
X132818849Y-80799344D01*
X132641151Y-80799344D01*
X132467336Y-80762398D01*
X132305000Y-80690122D01*
X132161239Y-80585673D01*
X132042336Y-80453617D01*
X131953486Y-80299726D01*
X131898575Y-80130725D01*
X131880000Y-79954000D01*
X131898575Y-79777275D01*
X131953486Y-79608274D01*
X132042336Y-79454383D01*
X132161239Y-79322327D01*
X132305000Y-79217878D01*
X132467336Y-79145602D01*
X132641151Y-79108656D01*
X132818849Y-79108656D01*
X132992664Y-79145602D01*
G37*
G36*
X65743116Y-66054575D02*
G01*
X65925770Y-66090907D01*
X66097827Y-66162175D01*
X66252674Y-66265640D01*
X66384360Y-66397326D01*
X66487825Y-66552173D01*
X66559093Y-66724230D01*
X66595425Y-66906884D01*
X66595425Y-67093116D01*
X66559093Y-67275770D01*
X66487825Y-67447827D01*
X66384360Y-67602674D01*
X66252674Y-67734360D01*
X66097827Y-67837825D01*
X65925770Y-67909093D01*
X65743116Y-67945425D01*
X64350000Y-67950000D01*
X64256884Y-67945425D01*
X64074230Y-67909093D01*
X63902173Y-67837825D01*
X63747326Y-67734360D01*
X63615640Y-67602674D01*
X63512175Y-67447827D01*
X63440907Y-67275770D01*
X63404575Y-67093116D01*
X63404575Y-66906884D01*
X63440907Y-66724230D01*
X63512175Y-66552173D01*
X63615640Y-66397326D01*
X63747326Y-66265640D01*
X63902173Y-66162175D01*
X64074230Y-66090907D01*
X64256884Y-66054575D01*
X65650000Y-66050000D01*
X65743116Y-66054575D01*
G37*
G36*
X78243116Y-66054575D02*
G01*
X78425770Y-66090907D01*
X78597827Y-66162175D01*
X78752674Y-66265640D01*
X78884360Y-66397326D01*
X78987825Y-66552173D01*
X79059093Y-66724230D01*
X79095425Y-66906884D01*
X79095425Y-67093116D01*
X79059093Y-67275770D01*
X78987825Y-67447827D01*
X78884360Y-67602674D01*
X78752674Y-67734360D01*
X78597827Y-67837825D01*
X78425770Y-67909093D01*
X78243116Y-67945425D01*
X76850000Y-67950000D01*
X76756884Y-67945425D01*
X76574230Y-67909093D01*
X76402173Y-67837825D01*
X76247326Y-67734360D01*
X76115640Y-67602674D01*
X76012175Y-67447827D01*
X75940907Y-67275770D01*
X75904575Y-67093116D01*
X75904575Y-66906884D01*
X75940907Y-66724230D01*
X76012175Y-66552173D01*
X76115640Y-66397326D01*
X76247326Y-66265640D01*
X76402173Y-66162175D01*
X76574230Y-66090907D01*
X76756884Y-66054575D01*
X78150000Y-66050000D01*
X78243116Y-66054575D01*
G37*
G36*
X99743116Y-66054575D02*
G01*
X99925770Y-66090907D01*
X100097827Y-66162175D01*
X100252674Y-66265640D01*
X100384360Y-66397326D01*
X100487825Y-66552173D01*
X100559093Y-66724230D01*
X100595425Y-66906884D01*
X100595425Y-67093116D01*
X100559093Y-67275770D01*
X100487825Y-67447827D01*
X100384360Y-67602674D01*
X100252674Y-67734360D01*
X100097827Y-67837825D01*
X99925770Y-67909093D01*
X99743116Y-67945425D01*
X98350000Y-67950000D01*
X98256884Y-67945425D01*
X98074230Y-67909093D01*
X97902173Y-67837825D01*
X97747326Y-67734360D01*
X97615640Y-67602674D01*
X97512175Y-67447827D01*
X97440907Y-67275770D01*
X97404575Y-67093116D01*
X97404575Y-66906884D01*
X97440907Y-66724230D01*
X97512175Y-66552173D01*
X97615640Y-66397326D01*
X97747326Y-66265640D01*
X97902173Y-66162175D01*
X98074230Y-66090907D01*
X98256884Y-66054575D01*
X99650000Y-66050000D01*
X99743116Y-66054575D01*
G37*
G36*
X112243116Y-66054575D02*
G01*
X112425770Y-66090907D01*
X112597827Y-66162175D01*
X112752674Y-66265640D01*
X112884360Y-66397326D01*
X112987825Y-66552173D01*
X113059093Y-66724230D01*
X113095425Y-66906884D01*
X113095425Y-67093116D01*
X113059093Y-67275770D01*
X112987825Y-67447827D01*
X112884360Y-67602674D01*
X112752674Y-67734360D01*
X112597827Y-67837825D01*
X112425770Y-67909093D01*
X112243116Y-67945425D01*
X110850000Y-67950000D01*
X110756884Y-67945425D01*
X110574230Y-67909093D01*
X110402173Y-67837825D01*
X110247326Y-67734360D01*
X110115640Y-67602674D01*
X110012175Y-67447827D01*
X109940907Y-67275770D01*
X109904575Y-67093116D01*
X109904575Y-66906884D01*
X109940907Y-66724230D01*
X110012175Y-66552173D01*
X110115640Y-66397326D01*
X110247326Y-66265640D01*
X110402173Y-66162175D01*
X110574230Y-66090907D01*
X110756884Y-66054575D01*
X112150000Y-66050000D01*
X112243116Y-66054575D01*
G37*
G36*
X133743116Y-66054575D02*
G01*
X133925770Y-66090907D01*
X134097827Y-66162175D01*
X134252674Y-66265640D01*
X134384360Y-66397326D01*
X134487825Y-66552173D01*
X134559093Y-66724230D01*
X134595425Y-66906884D01*
X134595425Y-67093116D01*
X134559093Y-67275770D01*
X134487825Y-67447827D01*
X134384360Y-67602674D01*
X134252674Y-67734360D01*
X134097827Y-67837825D01*
X133925770Y-67909093D01*
X133743116Y-67945425D01*
X132350000Y-67950000D01*
X132256884Y-67945425D01*
X132074230Y-67909093D01*
X131902173Y-67837825D01*
X131747326Y-67734360D01*
X131615640Y-67602674D01*
X131512175Y-67447827D01*
X131440907Y-67275770D01*
X131404575Y-67093116D01*
X131404575Y-66906884D01*
X131440907Y-66724230D01*
X131512175Y-66552173D01*
X131615640Y-66397326D01*
X131747326Y-66265640D01*
X131902173Y-66162175D01*
X132074230Y-66090907D01*
X132256884Y-66054575D01*
X133650000Y-66050000D01*
X133743116Y-66054575D01*
G37*
G36*
X146243116Y-66054575D02*
G01*
X146425770Y-66090907D01*
X146597827Y-66162175D01*
X146752674Y-66265640D01*
X146884360Y-66397326D01*
X146987825Y-66552173D01*
X147059093Y-66724230D01*
X147095425Y-66906884D01*
X147095425Y-67093116D01*
X147059093Y-67275770D01*
X146987825Y-67447827D01*
X146884360Y-67602674D01*
X146752674Y-67734360D01*
X146597827Y-67837825D01*
X146425770Y-67909093D01*
X146243116Y-67945425D01*
X144850000Y-67950000D01*
X144756884Y-67945425D01*
X144574230Y-67909093D01*
X144402173Y-67837825D01*
X144247326Y-67734360D01*
X144115640Y-67602674D01*
X144012175Y-67447827D01*
X143940907Y-67275770D01*
X143904575Y-67093116D01*
X143904575Y-66906884D01*
X143940907Y-66724230D01*
X144012175Y-66552173D01*
X144115640Y-66397326D01*
X144247326Y-66265640D01*
X144402173Y-66162175D01*
X144574230Y-66090907D01*
X144756884Y-66054575D01*
X146150000Y-66050000D01*
X146243116Y-66054575D01*
G37*
G36*
X65743116Y-61054575D02*
G01*
X65925770Y-61090907D01*
X66097827Y-61162175D01*
X66252674Y-61265640D01*
X66384360Y-61397326D01*
X66487825Y-61552173D01*
X66559093Y-61724230D01*
X66595425Y-61906884D01*
X66595425Y-62093116D01*
X66559093Y-62275770D01*
X66487825Y-62447827D01*
X66384360Y-62602674D01*
X66252674Y-62734360D01*
X66097827Y-62837825D01*
X65925770Y-62909093D01*
X65743116Y-62945425D01*
X64350000Y-62950000D01*
X64256884Y-62945425D01*
X64074230Y-62909093D01*
X63902173Y-62837825D01*
X63747326Y-62734360D01*
X63615640Y-62602674D01*
X63512175Y-62447827D01*
X63440907Y-62275770D01*
X63404575Y-62093116D01*
X63404575Y-61906884D01*
X63440907Y-61724230D01*
X63512175Y-61552173D01*
X63615640Y-61397326D01*
X63747326Y-61265640D01*
X63902173Y-61162175D01*
X64074230Y-61090907D01*
X64256884Y-61054575D01*
X65650000Y-61050000D01*
X65743116Y-61054575D01*
G37*
G36*
X78243116Y-61054575D02*
G01*
X78425770Y-61090907D01*
X78597827Y-61162175D01*
X78752674Y-61265640D01*
X78884360Y-61397326D01*
X78987825Y-61552173D01*
X79059093Y-61724230D01*
X79095425Y-61906884D01*
X79095425Y-62093116D01*
X79059093Y-62275770D01*
X78987825Y-62447827D01*
X78884360Y-62602674D01*
X78752674Y-62734360D01*
X78597827Y-62837825D01*
X78425770Y-62909093D01*
X78243116Y-62945425D01*
X76850000Y-62950000D01*
X76756884Y-62945425D01*
X76574230Y-62909093D01*
X76402173Y-62837825D01*
X76247326Y-62734360D01*
X76115640Y-62602674D01*
X76012175Y-62447827D01*
X75940907Y-62275770D01*
X75904575Y-62093116D01*
X75904575Y-61906884D01*
X75940907Y-61724230D01*
X76012175Y-61552173D01*
X76115640Y-61397326D01*
X76247326Y-61265640D01*
X76402173Y-61162175D01*
X76574230Y-61090907D01*
X76756884Y-61054575D01*
X78150000Y-61050000D01*
X78243116Y-61054575D01*
G37*
G36*
X99743116Y-61054575D02*
G01*
X99925770Y-61090907D01*
X100097827Y-61162175D01*
X100252674Y-61265640D01*
X100384360Y-61397326D01*
X100487825Y-61552173D01*
X100559093Y-61724230D01*
X100595425Y-61906884D01*
X100595425Y-62093116D01*
X100559093Y-62275770D01*
X100487825Y-62447827D01*
X100384360Y-62602674D01*
X100252674Y-62734360D01*
X100097827Y-62837825D01*
X99925770Y-62909093D01*
X99743116Y-62945425D01*
X98350000Y-62950000D01*
X98256884Y-62945425D01*
X98074230Y-62909093D01*
X97902173Y-62837825D01*
X97747326Y-62734360D01*
X97615640Y-62602674D01*
X97512175Y-62447827D01*
X97440907Y-62275770D01*
X97404575Y-62093116D01*
X97404575Y-61906884D01*
X97440907Y-61724230D01*
X97512175Y-61552173D01*
X97615640Y-61397326D01*
X97747326Y-61265640D01*
X97902173Y-61162175D01*
X98074230Y-61090907D01*
X98256884Y-61054575D01*
X99650000Y-61050000D01*
X99743116Y-61054575D01*
G37*
G36*
X112243116Y-61054575D02*
G01*
X112425770Y-61090907D01*
X112597827Y-61162175D01*
X112752674Y-61265640D01*
X112884360Y-61397326D01*
X112987825Y-61552173D01*
X113059093Y-61724230D01*
X113095425Y-61906884D01*
X113095425Y-62093116D01*
X113059093Y-62275770D01*
X112987825Y-62447827D01*
X112884360Y-62602674D01*
X112752674Y-62734360D01*
X112597827Y-62837825D01*
X112425770Y-62909093D01*
X112243116Y-62945425D01*
X110850000Y-62950000D01*
X110756884Y-62945425D01*
X110574230Y-62909093D01*
X110402173Y-62837825D01*
X110247326Y-62734360D01*
X110115640Y-62602674D01*
X110012175Y-62447827D01*
X109940907Y-62275770D01*
X109904575Y-62093116D01*
X109904575Y-61906884D01*
X109940907Y-61724230D01*
X110012175Y-61552173D01*
X110115640Y-61397326D01*
X110247326Y-61265640D01*
X110402173Y-61162175D01*
X110574230Y-61090907D01*
X110756884Y-61054575D01*
X112150000Y-61050000D01*
X112243116Y-61054575D01*
G37*
G36*
X133743116Y-61054575D02*
G01*
X133925770Y-61090907D01*
X134097827Y-61162175D01*
X134252674Y-61265640D01*
X134384360Y-61397326D01*
X134487825Y-61552173D01*
X134559093Y-61724230D01*
X134595425Y-61906884D01*
X134595425Y-62093116D01*
X134559093Y-62275770D01*
X134487825Y-62447827D01*
X134384360Y-62602674D01*
X134252674Y-62734360D01*
X134097827Y-62837825D01*
X133925770Y-62909093D01*
X133743116Y-62945425D01*
X132350000Y-62950000D01*
X132256884Y-62945425D01*
X132074230Y-62909093D01*
X131902173Y-62837825D01*
X131747326Y-62734360D01*
X131615640Y-62602674D01*
X131512175Y-62447827D01*
X131440907Y-62275770D01*
X131404575Y-62093116D01*
X131404575Y-61906884D01*
X131440907Y-61724230D01*
X131512175Y-61552173D01*
X131615640Y-61397326D01*
X131747326Y-61265640D01*
X131902173Y-61162175D01*
X132074230Y-61090907D01*
X132256884Y-61054575D01*
X133650000Y-61050000D01*
X133743116Y-61054575D01*
G37*
G36*
X146243116Y-61054575D02*
G01*
X146425770Y-61090907D01*
X146597827Y-61162175D01*
X146752674Y-61265640D01*
X146884360Y-61397326D01*
X146987825Y-61552173D01*
X147059093Y-61724230D01*
X147095425Y-61906884D01*
X147095425Y-62093116D01*
X147059093Y-62275770D01*
X146987825Y-62447827D01*
X146884360Y-62602674D01*
X146752674Y-62734360D01*
X146597827Y-62837825D01*
X146425770Y-62909093D01*
X146243116Y-62945425D01*
X144850000Y-62950000D01*
X144756884Y-62945425D01*
X144574230Y-62909093D01*
X144402173Y-62837825D01*
X144247326Y-62734360D01*
X144115640Y-62602674D01*
X144012175Y-62447827D01*
X143940907Y-62275770D01*
X143904575Y-62093116D01*
X143904575Y-61906884D01*
X143940907Y-61724230D01*
X144012175Y-61552173D01*
X144115640Y-61397326D01*
X144247326Y-61265640D01*
X144402173Y-61162175D01*
X144574230Y-61090907D01*
X144756884Y-61054575D01*
X146150000Y-61050000D01*
X146243116Y-61054575D01*
G37*
M02*
