%TF.GenerationSoftware,KiCad,Pcbnew,8.0.1*%
%TF.CreationDate,2024-08-04T22:51:27+02:00*%
%TF.ProjectId,FT_MainBoard,46545f4d-6169-46e4-926f-6172642e6b69,rev?*%
%TF.SameCoordinates,Original*%
%TF.FileFunction,Legend,Top*%
%TF.FilePolarity,Positive*%
%FSLAX46Y46*%
G04 Gerber Fmt 4.6, Leading zero omitted, Abs format (unit mm)*
G04 Created by KiCad (PCBNEW 8.0.1) date 2024-08-04 22:51:27*
%MOMM*%
%LPD*%
G01*
G04 APERTURE LIST*
%ADD10C,0.300000*%
%ADD11C,0.400000*%
%ADD12C,0.200000*%
%ADD13C,0.500000*%
%ADD14C,0.120000*%
%ADD15C,0.000000*%
G04 APERTURE END LIST*
D10*
X155000000Y-99500000D02*
X160000000Y-99500000D01*
X93000000Y-50000000D02*
X93000000Y-55000000D01*
X121750000Y-50000000D02*
X121750000Y-55000000D01*
X93000000Y-55000000D02*
X117000000Y-55000000D01*
X64000000Y-55000000D02*
X88000000Y-55000000D01*
X117000000Y-55000000D02*
X117000000Y-50000000D01*
X160000000Y-75500000D02*
X155000000Y-75500000D01*
X64000000Y-50000000D02*
X64000000Y-55000000D01*
X155000000Y-75500000D02*
X155000000Y-99500000D01*
X145750000Y-55000000D02*
X145750000Y-50000000D01*
X88000000Y-55000000D02*
X88000000Y-50000000D01*
X121750000Y-55000000D02*
X145750000Y-55000000D01*
X158321671Y-85607142D02*
X157107385Y-85607142D01*
X157107385Y-85607142D02*
X156964528Y-85678571D01*
X156964528Y-85678571D02*
X156893100Y-85750000D01*
X156893100Y-85750000D02*
X156821671Y-85892857D01*
X156821671Y-85892857D02*
X156821671Y-86178571D01*
X156821671Y-86178571D02*
X156893100Y-86321428D01*
X156893100Y-86321428D02*
X156964528Y-86392857D01*
X156964528Y-86392857D02*
X157107385Y-86464285D01*
X157107385Y-86464285D02*
X158321671Y-86464285D01*
X156893100Y-87107143D02*
X156821671Y-87321429D01*
X156821671Y-87321429D02*
X156821671Y-87678571D01*
X156821671Y-87678571D02*
X156893100Y-87821429D01*
X156893100Y-87821429D02*
X156964528Y-87892857D01*
X156964528Y-87892857D02*
X157107385Y-87964286D01*
X157107385Y-87964286D02*
X157250242Y-87964286D01*
X157250242Y-87964286D02*
X157393100Y-87892857D01*
X157393100Y-87892857D02*
X157464528Y-87821429D01*
X157464528Y-87821429D02*
X157535957Y-87678571D01*
X157535957Y-87678571D02*
X157607385Y-87392857D01*
X157607385Y-87392857D02*
X157678814Y-87250000D01*
X157678814Y-87250000D02*
X157750242Y-87178571D01*
X157750242Y-87178571D02*
X157893100Y-87107143D01*
X157893100Y-87107143D02*
X158035957Y-87107143D01*
X158035957Y-87107143D02*
X158178814Y-87178571D01*
X158178814Y-87178571D02*
X158250242Y-87250000D01*
X158250242Y-87250000D02*
X158321671Y-87392857D01*
X158321671Y-87392857D02*
X158321671Y-87750000D01*
X158321671Y-87750000D02*
X158250242Y-87964286D01*
X157607385Y-89107142D02*
X157535957Y-89321428D01*
X157535957Y-89321428D02*
X157464528Y-89392857D01*
X157464528Y-89392857D02*
X157321671Y-89464285D01*
X157321671Y-89464285D02*
X157107385Y-89464285D01*
X157107385Y-89464285D02*
X156964528Y-89392857D01*
X156964528Y-89392857D02*
X156893100Y-89321428D01*
X156893100Y-89321428D02*
X156821671Y-89178571D01*
X156821671Y-89178571D02*
X156821671Y-88607142D01*
X156821671Y-88607142D02*
X158321671Y-88607142D01*
X158321671Y-88607142D02*
X158321671Y-89107142D01*
X158321671Y-89107142D02*
X158250242Y-89250000D01*
X158250242Y-89250000D02*
X158178814Y-89321428D01*
X158178814Y-89321428D02*
X158035957Y-89392857D01*
X158035957Y-89392857D02*
X157893100Y-89392857D01*
X157893100Y-89392857D02*
X157750242Y-89321428D01*
X157750242Y-89321428D02*
X157678814Y-89250000D01*
X157678814Y-89250000D02*
X157607385Y-89107142D01*
X157607385Y-89107142D02*
X157607385Y-88607142D01*
D11*
X53747043Y-86093985D02*
X53747043Y-86760652D01*
X54794662Y-86760652D02*
X52794662Y-86760652D01*
X52794662Y-86760652D02*
X52794662Y-85808271D01*
X54794662Y-85046366D02*
X53461328Y-85046366D01*
X52794662Y-85046366D02*
X52889900Y-85141604D01*
X52889900Y-85141604D02*
X52985138Y-85046366D01*
X52985138Y-85046366D02*
X52889900Y-84951128D01*
X52889900Y-84951128D02*
X52794662Y-85046366D01*
X52794662Y-85046366D02*
X52985138Y-85046366D01*
X54794662Y-84093985D02*
X53461328Y-84093985D01*
X53842281Y-84093985D02*
X53651804Y-83998747D01*
X53651804Y-83998747D02*
X53556566Y-83903509D01*
X53556566Y-83903509D02*
X53461328Y-83713033D01*
X53461328Y-83713033D02*
X53461328Y-83522556D01*
X54699424Y-82093985D02*
X54794662Y-82284461D01*
X54794662Y-82284461D02*
X54794662Y-82665414D01*
X54794662Y-82665414D02*
X54699424Y-82855890D01*
X54699424Y-82855890D02*
X54508947Y-82951128D01*
X54508947Y-82951128D02*
X53747043Y-82951128D01*
X53747043Y-82951128D02*
X53556566Y-82855890D01*
X53556566Y-82855890D02*
X53461328Y-82665414D01*
X53461328Y-82665414D02*
X53461328Y-82284461D01*
X53461328Y-82284461D02*
X53556566Y-82093985D01*
X53556566Y-82093985D02*
X53747043Y-81998747D01*
X53747043Y-81998747D02*
X53937519Y-81998747D01*
X53937519Y-81998747D02*
X54127995Y-82951128D01*
X54699424Y-81236842D02*
X54794662Y-81046366D01*
X54794662Y-81046366D02*
X54794662Y-80665414D01*
X54794662Y-80665414D02*
X54699424Y-80474937D01*
X54699424Y-80474937D02*
X54508947Y-80379699D01*
X54508947Y-80379699D02*
X54413709Y-80379699D01*
X54413709Y-80379699D02*
X54223233Y-80474937D01*
X54223233Y-80474937D02*
X54127995Y-80665414D01*
X54127995Y-80665414D02*
X54127995Y-80951128D01*
X54127995Y-80951128D02*
X54032757Y-81141604D01*
X54032757Y-81141604D02*
X53842281Y-81236842D01*
X53842281Y-81236842D02*
X53747043Y-81236842D01*
X53747043Y-81236842D02*
X53556566Y-81141604D01*
X53556566Y-81141604D02*
X53461328Y-80951128D01*
X53461328Y-80951128D02*
X53461328Y-80665414D01*
X53461328Y-80665414D02*
X53556566Y-80474937D01*
X53461328Y-79522556D02*
X55461328Y-79522556D01*
X53556566Y-79522556D02*
X53461328Y-79332080D01*
X53461328Y-79332080D02*
X53461328Y-78951127D01*
X53461328Y-78951127D02*
X53556566Y-78760651D01*
X53556566Y-78760651D02*
X53651804Y-78665413D01*
X53651804Y-78665413D02*
X53842281Y-78570175D01*
X53842281Y-78570175D02*
X54413709Y-78570175D01*
X54413709Y-78570175D02*
X54604185Y-78665413D01*
X54604185Y-78665413D02*
X54699424Y-78760651D01*
X54699424Y-78760651D02*
X54794662Y-78951127D01*
X54794662Y-78951127D02*
X54794662Y-79332080D01*
X54794662Y-79332080D02*
X54699424Y-79522556D01*
X54794662Y-77427318D02*
X54699424Y-77617794D01*
X54699424Y-77617794D02*
X54604185Y-77713032D01*
X54604185Y-77713032D02*
X54413709Y-77808270D01*
X54413709Y-77808270D02*
X53842281Y-77808270D01*
X53842281Y-77808270D02*
X53651804Y-77713032D01*
X53651804Y-77713032D02*
X53556566Y-77617794D01*
X53556566Y-77617794D02*
X53461328Y-77427318D01*
X53461328Y-77427318D02*
X53461328Y-77141603D01*
X53461328Y-77141603D02*
X53556566Y-76951127D01*
X53556566Y-76951127D02*
X53651804Y-76855889D01*
X53651804Y-76855889D02*
X53842281Y-76760651D01*
X53842281Y-76760651D02*
X54413709Y-76760651D01*
X54413709Y-76760651D02*
X54604185Y-76855889D01*
X54604185Y-76855889D02*
X54699424Y-76951127D01*
X54699424Y-76951127D02*
X54794662Y-77141603D01*
X54794662Y-77141603D02*
X54794662Y-77427318D01*
X54794662Y-75903508D02*
X53461328Y-75903508D01*
X53842281Y-75903508D02*
X53651804Y-75808270D01*
X53651804Y-75808270D02*
X53556566Y-75713032D01*
X53556566Y-75713032D02*
X53461328Y-75522556D01*
X53461328Y-75522556D02*
X53461328Y-75332079D01*
X53461328Y-74951127D02*
X53461328Y-74189223D01*
X52794662Y-74665413D02*
X54508947Y-74665413D01*
X54508947Y-74665413D02*
X54699424Y-74570175D01*
X54699424Y-74570175D02*
X54794662Y-74379699D01*
X54794662Y-74379699D02*
X54794662Y-74189223D01*
X53461328Y-72284460D02*
X53461328Y-71522556D01*
X52794662Y-71998746D02*
X54508947Y-71998746D01*
X54508947Y-71998746D02*
X54699424Y-71903508D01*
X54699424Y-71903508D02*
X54794662Y-71713032D01*
X54794662Y-71713032D02*
X54794662Y-71522556D01*
X54794662Y-70855889D02*
X53461328Y-70855889D01*
X52794662Y-70855889D02*
X52889900Y-70951127D01*
X52889900Y-70951127D02*
X52985138Y-70855889D01*
X52985138Y-70855889D02*
X52889900Y-70760651D01*
X52889900Y-70760651D02*
X52794662Y-70855889D01*
X52794662Y-70855889D02*
X52985138Y-70855889D01*
X54794662Y-69903508D02*
X53461328Y-69903508D01*
X53651804Y-69903508D02*
X53556566Y-69808270D01*
X53556566Y-69808270D02*
X53461328Y-69617794D01*
X53461328Y-69617794D02*
X53461328Y-69332079D01*
X53461328Y-69332079D02*
X53556566Y-69141603D01*
X53556566Y-69141603D02*
X53747043Y-69046365D01*
X53747043Y-69046365D02*
X54794662Y-69046365D01*
X53747043Y-69046365D02*
X53556566Y-68951127D01*
X53556566Y-68951127D02*
X53461328Y-68760651D01*
X53461328Y-68760651D02*
X53461328Y-68474937D01*
X53461328Y-68474937D02*
X53556566Y-68284460D01*
X53556566Y-68284460D02*
X53747043Y-68189222D01*
X53747043Y-68189222D02*
X54794662Y-68189222D01*
X54699424Y-66474936D02*
X54794662Y-66665412D01*
X54794662Y-66665412D02*
X54794662Y-67046365D01*
X54794662Y-67046365D02*
X54699424Y-67236841D01*
X54699424Y-67236841D02*
X54508947Y-67332079D01*
X54508947Y-67332079D02*
X53747043Y-67332079D01*
X53747043Y-67332079D02*
X53556566Y-67236841D01*
X53556566Y-67236841D02*
X53461328Y-67046365D01*
X53461328Y-67046365D02*
X53461328Y-66665412D01*
X53461328Y-66665412D02*
X53556566Y-66474936D01*
X53556566Y-66474936D02*
X53747043Y-66379698D01*
X53747043Y-66379698D02*
X53937519Y-66379698D01*
X53937519Y-66379698D02*
X54127995Y-67332079D01*
X54794662Y-65522555D02*
X53461328Y-65522555D01*
X53842281Y-65522555D02*
X53651804Y-65427317D01*
X53651804Y-65427317D02*
X53556566Y-65332079D01*
X53556566Y-65332079D02*
X53461328Y-65141603D01*
X53461328Y-65141603D02*
X53461328Y-64951126D01*
X58014550Y-86760652D02*
X56014550Y-86760652D01*
X56014550Y-86760652D02*
X57443121Y-86093985D01*
X57443121Y-86093985D02*
X56014550Y-85427319D01*
X56014550Y-85427319D02*
X58014550Y-85427319D01*
X58014550Y-83617795D02*
X56966931Y-83617795D01*
X56966931Y-83617795D02*
X56776454Y-83713033D01*
X56776454Y-83713033D02*
X56681216Y-83903509D01*
X56681216Y-83903509D02*
X56681216Y-84284462D01*
X56681216Y-84284462D02*
X56776454Y-84474938D01*
X57919312Y-83617795D02*
X58014550Y-83808271D01*
X58014550Y-83808271D02*
X58014550Y-84284462D01*
X58014550Y-84284462D02*
X57919312Y-84474938D01*
X57919312Y-84474938D02*
X57728835Y-84570176D01*
X57728835Y-84570176D02*
X57538359Y-84570176D01*
X57538359Y-84570176D02*
X57347883Y-84474938D01*
X57347883Y-84474938D02*
X57252645Y-84284462D01*
X57252645Y-84284462D02*
X57252645Y-83808271D01*
X57252645Y-83808271D02*
X57157407Y-83617795D01*
X58014550Y-82665414D02*
X56681216Y-82665414D01*
X56014550Y-82665414D02*
X56109788Y-82760652D01*
X56109788Y-82760652D02*
X56205026Y-82665414D01*
X56205026Y-82665414D02*
X56109788Y-82570176D01*
X56109788Y-82570176D02*
X56014550Y-82665414D01*
X56014550Y-82665414D02*
X56205026Y-82665414D01*
X56681216Y-81713033D02*
X58014550Y-81713033D01*
X56871692Y-81713033D02*
X56776454Y-81617795D01*
X56776454Y-81617795D02*
X56681216Y-81427319D01*
X56681216Y-81427319D02*
X56681216Y-81141604D01*
X56681216Y-81141604D02*
X56776454Y-80951128D01*
X56776454Y-80951128D02*
X56966931Y-80855890D01*
X56966931Y-80855890D02*
X58014550Y-80855890D01*
X58014550Y-78379699D02*
X56014550Y-78379699D01*
X56776454Y-78379699D02*
X56681216Y-78189223D01*
X56681216Y-78189223D02*
X56681216Y-77808270D01*
X56681216Y-77808270D02*
X56776454Y-77617794D01*
X56776454Y-77617794D02*
X56871692Y-77522556D01*
X56871692Y-77522556D02*
X57062169Y-77427318D01*
X57062169Y-77427318D02*
X57633597Y-77427318D01*
X57633597Y-77427318D02*
X57824073Y-77522556D01*
X57824073Y-77522556D02*
X57919312Y-77617794D01*
X57919312Y-77617794D02*
X58014550Y-77808270D01*
X58014550Y-77808270D02*
X58014550Y-78189223D01*
X58014550Y-78189223D02*
X57919312Y-78379699D01*
X58014550Y-76284461D02*
X57919312Y-76474937D01*
X57919312Y-76474937D02*
X57824073Y-76570175D01*
X57824073Y-76570175D02*
X57633597Y-76665413D01*
X57633597Y-76665413D02*
X57062169Y-76665413D01*
X57062169Y-76665413D02*
X56871692Y-76570175D01*
X56871692Y-76570175D02*
X56776454Y-76474937D01*
X56776454Y-76474937D02*
X56681216Y-76284461D01*
X56681216Y-76284461D02*
X56681216Y-75998746D01*
X56681216Y-75998746D02*
X56776454Y-75808270D01*
X56776454Y-75808270D02*
X56871692Y-75713032D01*
X56871692Y-75713032D02*
X57062169Y-75617794D01*
X57062169Y-75617794D02*
X57633597Y-75617794D01*
X57633597Y-75617794D02*
X57824073Y-75713032D01*
X57824073Y-75713032D02*
X57919312Y-75808270D01*
X57919312Y-75808270D02*
X58014550Y-75998746D01*
X58014550Y-75998746D02*
X58014550Y-76284461D01*
X58014550Y-73903508D02*
X56966931Y-73903508D01*
X56966931Y-73903508D02*
X56776454Y-73998746D01*
X56776454Y-73998746D02*
X56681216Y-74189222D01*
X56681216Y-74189222D02*
X56681216Y-74570175D01*
X56681216Y-74570175D02*
X56776454Y-74760651D01*
X57919312Y-73903508D02*
X58014550Y-74093984D01*
X58014550Y-74093984D02*
X58014550Y-74570175D01*
X58014550Y-74570175D02*
X57919312Y-74760651D01*
X57919312Y-74760651D02*
X57728835Y-74855889D01*
X57728835Y-74855889D02*
X57538359Y-74855889D01*
X57538359Y-74855889D02*
X57347883Y-74760651D01*
X57347883Y-74760651D02*
X57252645Y-74570175D01*
X57252645Y-74570175D02*
X57252645Y-74093984D01*
X57252645Y-74093984D02*
X57157407Y-73903508D01*
X58014550Y-72951127D02*
X56681216Y-72951127D01*
X57062169Y-72951127D02*
X56871692Y-72855889D01*
X56871692Y-72855889D02*
X56776454Y-72760651D01*
X56776454Y-72760651D02*
X56681216Y-72570175D01*
X56681216Y-72570175D02*
X56681216Y-72379698D01*
X58014550Y-70855889D02*
X56014550Y-70855889D01*
X57919312Y-70855889D02*
X58014550Y-71046365D01*
X58014550Y-71046365D02*
X58014550Y-71427318D01*
X58014550Y-71427318D02*
X57919312Y-71617794D01*
X57919312Y-71617794D02*
X57824073Y-71713032D01*
X57824073Y-71713032D02*
X57633597Y-71808270D01*
X57633597Y-71808270D02*
X57062169Y-71808270D01*
X57062169Y-71808270D02*
X56871692Y-71713032D01*
X56871692Y-71713032D02*
X56776454Y-71617794D01*
X56776454Y-71617794D02*
X56681216Y-71427318D01*
X56681216Y-71427318D02*
X56681216Y-71046365D01*
X56681216Y-71046365D02*
X56776454Y-70855889D01*
X56681216Y-68570174D02*
X58014550Y-68093984D01*
X58014550Y-68093984D02*
X56681216Y-67617793D01*
X58014550Y-65808269D02*
X58014550Y-66951126D01*
X58014550Y-66379698D02*
X56014550Y-66379698D01*
X56014550Y-66379698D02*
X56300264Y-66570174D01*
X56300264Y-66570174D02*
X56490740Y-66760650D01*
X56490740Y-66760650D02*
X56585978Y-66951126D01*
X61234438Y-86760652D02*
X59234438Y-86760652D01*
X59234438Y-86760652D02*
X60663009Y-86093985D01*
X60663009Y-86093985D02*
X59234438Y-85427319D01*
X59234438Y-85427319D02*
X61234438Y-85427319D01*
X61234438Y-83617795D02*
X60186819Y-83617795D01*
X60186819Y-83617795D02*
X59996342Y-83713033D01*
X59996342Y-83713033D02*
X59901104Y-83903509D01*
X59901104Y-83903509D02*
X59901104Y-84284462D01*
X59901104Y-84284462D02*
X59996342Y-84474938D01*
X61139200Y-83617795D02*
X61234438Y-83808271D01*
X61234438Y-83808271D02*
X61234438Y-84284462D01*
X61234438Y-84284462D02*
X61139200Y-84474938D01*
X61139200Y-84474938D02*
X60948723Y-84570176D01*
X60948723Y-84570176D02*
X60758247Y-84570176D01*
X60758247Y-84570176D02*
X60567771Y-84474938D01*
X60567771Y-84474938D02*
X60472533Y-84284462D01*
X60472533Y-84284462D02*
X60472533Y-83808271D01*
X60472533Y-83808271D02*
X60377295Y-83617795D01*
X61234438Y-82665414D02*
X59901104Y-82665414D01*
X60282057Y-82665414D02*
X60091580Y-82570176D01*
X60091580Y-82570176D02*
X59996342Y-82474938D01*
X59996342Y-82474938D02*
X59901104Y-82284462D01*
X59901104Y-82284462D02*
X59901104Y-82093985D01*
X59901104Y-81713033D02*
X59901104Y-80951129D01*
X59234438Y-81427319D02*
X60948723Y-81427319D01*
X60948723Y-81427319D02*
X61139200Y-81332081D01*
X61139200Y-81332081D02*
X61234438Y-81141605D01*
X61234438Y-81141605D02*
X61234438Y-80951129D01*
X61234438Y-80284462D02*
X59901104Y-80284462D01*
X59234438Y-80284462D02*
X59329676Y-80379700D01*
X59329676Y-80379700D02*
X59424914Y-80284462D01*
X59424914Y-80284462D02*
X59329676Y-80189224D01*
X59329676Y-80189224D02*
X59234438Y-80284462D01*
X59234438Y-80284462D02*
X59424914Y-80284462D01*
X59901104Y-79332081D02*
X61234438Y-79332081D01*
X60091580Y-79332081D02*
X59996342Y-79236843D01*
X59996342Y-79236843D02*
X59901104Y-79046367D01*
X59901104Y-79046367D02*
X59901104Y-78760652D01*
X59901104Y-78760652D02*
X59996342Y-78570176D01*
X59996342Y-78570176D02*
X60186819Y-78474938D01*
X60186819Y-78474938D02*
X61234438Y-78474938D01*
X59234438Y-76284461D02*
X61234438Y-75617795D01*
X61234438Y-75617795D02*
X59234438Y-74951128D01*
X61139200Y-73522556D02*
X61234438Y-73713032D01*
X61234438Y-73713032D02*
X61234438Y-74093985D01*
X61234438Y-74093985D02*
X61139200Y-74284461D01*
X61139200Y-74284461D02*
X60948723Y-74379699D01*
X60948723Y-74379699D02*
X60186819Y-74379699D01*
X60186819Y-74379699D02*
X59996342Y-74284461D01*
X59996342Y-74284461D02*
X59901104Y-74093985D01*
X59901104Y-74093985D02*
X59901104Y-73713032D01*
X59901104Y-73713032D02*
X59996342Y-73522556D01*
X59996342Y-73522556D02*
X60186819Y-73427318D01*
X60186819Y-73427318D02*
X60377295Y-73427318D01*
X60377295Y-73427318D02*
X60567771Y-74379699D01*
X59901104Y-72570175D02*
X61615390Y-72570175D01*
X61615390Y-72570175D02*
X61805866Y-72665413D01*
X61805866Y-72665413D02*
X61901104Y-72855889D01*
X61901104Y-72855889D02*
X61901104Y-72951127D01*
X59234438Y-72570175D02*
X59329676Y-72665413D01*
X59329676Y-72665413D02*
X59424914Y-72570175D01*
X59424914Y-72570175D02*
X59329676Y-72474937D01*
X59329676Y-72474937D02*
X59234438Y-72570175D01*
X59234438Y-72570175D02*
X59424914Y-72570175D01*
X61234438Y-71617794D02*
X59901104Y-71617794D01*
X60091580Y-71617794D02*
X59996342Y-71522556D01*
X59996342Y-71522556D02*
X59901104Y-71332080D01*
X59901104Y-71332080D02*
X59901104Y-71046365D01*
X59901104Y-71046365D02*
X59996342Y-70855889D01*
X59996342Y-70855889D02*
X60186819Y-70760651D01*
X60186819Y-70760651D02*
X61234438Y-70760651D01*
X60186819Y-70760651D02*
X59996342Y-70665413D01*
X59996342Y-70665413D02*
X59901104Y-70474937D01*
X59901104Y-70474937D02*
X59901104Y-70189223D01*
X59901104Y-70189223D02*
X59996342Y-69998746D01*
X59996342Y-69998746D02*
X60186819Y-69903508D01*
X60186819Y-69903508D02*
X61234438Y-69903508D01*
X61234438Y-68093984D02*
X60186819Y-68093984D01*
X60186819Y-68093984D02*
X59996342Y-68189222D01*
X59996342Y-68189222D02*
X59901104Y-68379698D01*
X59901104Y-68379698D02*
X59901104Y-68760651D01*
X59901104Y-68760651D02*
X59996342Y-68951127D01*
X61139200Y-68093984D02*
X61234438Y-68284460D01*
X61234438Y-68284460D02*
X61234438Y-68760651D01*
X61234438Y-68760651D02*
X61139200Y-68951127D01*
X61139200Y-68951127D02*
X60948723Y-69046365D01*
X60948723Y-69046365D02*
X60758247Y-69046365D01*
X60758247Y-69046365D02*
X60567771Y-68951127D01*
X60567771Y-68951127D02*
X60472533Y-68760651D01*
X60472533Y-68760651D02*
X60472533Y-68284460D01*
X60472533Y-68284460D02*
X60377295Y-68093984D01*
X59901104Y-67141603D02*
X61234438Y-67141603D01*
X60091580Y-67141603D02*
X59996342Y-67046365D01*
X59996342Y-67046365D02*
X59901104Y-66855889D01*
X59901104Y-66855889D02*
X59901104Y-66570174D01*
X59901104Y-66570174D02*
X59996342Y-66379698D01*
X59996342Y-66379698D02*
X60186819Y-66284460D01*
X60186819Y-66284460D02*
X61234438Y-66284460D01*
D10*
X138642855Y-53071671D02*
X138142855Y-51571671D01*
X138142855Y-51571671D02*
X137642855Y-53071671D01*
X136285713Y-51714528D02*
X136357141Y-51643100D01*
X136357141Y-51643100D02*
X136571427Y-51571671D01*
X136571427Y-51571671D02*
X136714284Y-51571671D01*
X136714284Y-51571671D02*
X136928570Y-51643100D01*
X136928570Y-51643100D02*
X137071427Y-51785957D01*
X137071427Y-51785957D02*
X137142856Y-51928814D01*
X137142856Y-51928814D02*
X137214284Y-52214528D01*
X137214284Y-52214528D02*
X137214284Y-52428814D01*
X137214284Y-52428814D02*
X137142856Y-52714528D01*
X137142856Y-52714528D02*
X137071427Y-52857385D01*
X137071427Y-52857385D02*
X136928570Y-53000242D01*
X136928570Y-53000242D02*
X136714284Y-53071671D01*
X136714284Y-53071671D02*
X136571427Y-53071671D01*
X136571427Y-53071671D02*
X136357141Y-53000242D01*
X136357141Y-53000242D02*
X136285713Y-52928814D01*
X134785713Y-51714528D02*
X134857141Y-51643100D01*
X134857141Y-51643100D02*
X135071427Y-51571671D01*
X135071427Y-51571671D02*
X135214284Y-51571671D01*
X135214284Y-51571671D02*
X135428570Y-51643100D01*
X135428570Y-51643100D02*
X135571427Y-51785957D01*
X135571427Y-51785957D02*
X135642856Y-51928814D01*
X135642856Y-51928814D02*
X135714284Y-52214528D01*
X135714284Y-52214528D02*
X135714284Y-52428814D01*
X135714284Y-52428814D02*
X135642856Y-52714528D01*
X135642856Y-52714528D02*
X135571427Y-52857385D01*
X135571427Y-52857385D02*
X135428570Y-53000242D01*
X135428570Y-53000242D02*
X135214284Y-53071671D01*
X135214284Y-53071671D02*
X135071427Y-53071671D01*
X135071427Y-53071671D02*
X134857141Y-53000242D01*
X134857141Y-53000242D02*
X134785713Y-52928814D01*
X132214284Y-51571671D02*
X133071427Y-51571671D01*
X132642856Y-51571671D02*
X132642856Y-53071671D01*
X132642856Y-53071671D02*
X132785713Y-52857385D01*
X132785713Y-52857385D02*
X132928570Y-52714528D01*
X132928570Y-52714528D02*
X133071427Y-52643100D01*
X131642856Y-52928814D02*
X131571428Y-53000242D01*
X131571428Y-53000242D02*
X131428571Y-53071671D01*
X131428571Y-53071671D02*
X131071428Y-53071671D01*
X131071428Y-53071671D02*
X130928571Y-53000242D01*
X130928571Y-53000242D02*
X130857142Y-52928814D01*
X130857142Y-52928814D02*
X130785713Y-52785957D01*
X130785713Y-52785957D02*
X130785713Y-52643100D01*
X130785713Y-52643100D02*
X130857142Y-52428814D01*
X130857142Y-52428814D02*
X131714285Y-51571671D01*
X131714285Y-51571671D02*
X130785713Y-51571671D01*
X130357142Y-53071671D02*
X129857142Y-51571671D01*
X129857142Y-51571671D02*
X129357142Y-53071671D01*
X108214284Y-51643100D02*
X107999999Y-51571671D01*
X107999999Y-51571671D02*
X107642856Y-51571671D01*
X107642856Y-51571671D02*
X107499999Y-51643100D01*
X107499999Y-51643100D02*
X107428570Y-51714528D01*
X107428570Y-51714528D02*
X107357141Y-51857385D01*
X107357141Y-51857385D02*
X107357141Y-52000242D01*
X107357141Y-52000242D02*
X107428570Y-52143100D01*
X107428570Y-52143100D02*
X107499999Y-52214528D01*
X107499999Y-52214528D02*
X107642856Y-52285957D01*
X107642856Y-52285957D02*
X107928570Y-52357385D01*
X107928570Y-52357385D02*
X108071427Y-52428814D01*
X108071427Y-52428814D02*
X108142856Y-52500242D01*
X108142856Y-52500242D02*
X108214284Y-52643100D01*
X108214284Y-52643100D02*
X108214284Y-52785957D01*
X108214284Y-52785957D02*
X108142856Y-52928814D01*
X108142856Y-52928814D02*
X108071427Y-53000242D01*
X108071427Y-53000242D02*
X107928570Y-53071671D01*
X107928570Y-53071671D02*
X107571427Y-53071671D01*
X107571427Y-53071671D02*
X107357141Y-53000242D01*
X106928570Y-53071671D02*
X106071428Y-53071671D01*
X106499999Y-51571671D02*
X106499999Y-53071671D01*
X105642856Y-52000242D02*
X104928571Y-52000242D01*
X105785713Y-51571671D02*
X105285713Y-53071671D01*
X105285713Y-53071671D02*
X104785713Y-51571671D01*
X103428571Y-51571671D02*
X103928571Y-52285957D01*
X104285714Y-51571671D02*
X104285714Y-53071671D01*
X104285714Y-53071671D02*
X103714285Y-53071671D01*
X103714285Y-53071671D02*
X103571428Y-53000242D01*
X103571428Y-53000242D02*
X103499999Y-52928814D01*
X103499999Y-52928814D02*
X103428571Y-52785957D01*
X103428571Y-52785957D02*
X103428571Y-52571671D01*
X103428571Y-52571671D02*
X103499999Y-52428814D01*
X103499999Y-52428814D02*
X103571428Y-52357385D01*
X103571428Y-52357385D02*
X103714285Y-52285957D01*
X103714285Y-52285957D02*
X104285714Y-52285957D01*
X102999999Y-53071671D02*
X102142857Y-53071671D01*
X102571428Y-51571671D02*
X102571428Y-53071671D01*
D12*
X107369673Y-107867219D02*
X107369673Y-106867219D01*
X107369673Y-106867219D02*
X107607768Y-106867219D01*
X107607768Y-106867219D02*
X107750625Y-106914838D01*
X107750625Y-106914838D02*
X107845863Y-107010076D01*
X107845863Y-107010076D02*
X107893482Y-107105314D01*
X107893482Y-107105314D02*
X107941101Y-107295790D01*
X107941101Y-107295790D02*
X107941101Y-107438647D01*
X107941101Y-107438647D02*
X107893482Y-107629123D01*
X107893482Y-107629123D02*
X107845863Y-107724361D01*
X107845863Y-107724361D02*
X107750625Y-107819600D01*
X107750625Y-107819600D02*
X107607768Y-107867219D01*
X107607768Y-107867219D02*
X107369673Y-107867219D01*
X108226816Y-106867219D02*
X108798244Y-106867219D01*
X108512530Y-107867219D02*
X108512530Y-106867219D01*
X109703006Y-107867219D02*
X109369673Y-107391028D01*
X109131578Y-107867219D02*
X109131578Y-106867219D01*
X109131578Y-106867219D02*
X109512530Y-106867219D01*
X109512530Y-106867219D02*
X109607768Y-106914838D01*
X109607768Y-106914838D02*
X109655387Y-106962457D01*
X109655387Y-106962457D02*
X109703006Y-107057695D01*
X109703006Y-107057695D02*
X109703006Y-107200552D01*
X109703006Y-107200552D02*
X109655387Y-107295790D01*
X109655387Y-107295790D02*
X109607768Y-107343409D01*
X109607768Y-107343409D02*
X109512530Y-107391028D01*
X109512530Y-107391028D02*
X109131578Y-107391028D01*
D13*
X143357142Y-73638142D02*
X144357142Y-75066714D01*
X145071428Y-73638142D02*
X145071428Y-76638142D01*
X145071428Y-76638142D02*
X143928571Y-76638142D01*
X143928571Y-76638142D02*
X143642856Y-76495285D01*
X143642856Y-76495285D02*
X143499999Y-76352428D01*
X143499999Y-76352428D02*
X143357142Y-76066714D01*
X143357142Y-76066714D02*
X143357142Y-75638142D01*
X143357142Y-75638142D02*
X143499999Y-75352428D01*
X143499999Y-75352428D02*
X143642856Y-75209571D01*
X143642856Y-75209571D02*
X143928571Y-75066714D01*
X143928571Y-75066714D02*
X145071428Y-75066714D01*
X142071428Y-75209571D02*
X141071428Y-75209571D01*
X140642856Y-73638142D02*
X142071428Y-73638142D01*
X142071428Y-73638142D02*
X142071428Y-76638142D01*
X142071428Y-76638142D02*
X140642856Y-76638142D01*
X139499999Y-73781000D02*
X139071428Y-73638142D01*
X139071428Y-73638142D02*
X138357142Y-73638142D01*
X138357142Y-73638142D02*
X138071428Y-73781000D01*
X138071428Y-73781000D02*
X137928570Y-73923857D01*
X137928570Y-73923857D02*
X137785713Y-74209571D01*
X137785713Y-74209571D02*
X137785713Y-74495285D01*
X137785713Y-74495285D02*
X137928570Y-74781000D01*
X137928570Y-74781000D02*
X138071428Y-74923857D01*
X138071428Y-74923857D02*
X138357142Y-75066714D01*
X138357142Y-75066714D02*
X138928570Y-75209571D01*
X138928570Y-75209571D02*
X139214285Y-75352428D01*
X139214285Y-75352428D02*
X139357142Y-75495285D01*
X139357142Y-75495285D02*
X139499999Y-75781000D01*
X139499999Y-75781000D02*
X139499999Y-76066714D01*
X139499999Y-76066714D02*
X139357142Y-76352428D01*
X139357142Y-76352428D02*
X139214285Y-76495285D01*
X139214285Y-76495285D02*
X138928570Y-76638142D01*
X138928570Y-76638142D02*
X138214285Y-76638142D01*
X138214285Y-76638142D02*
X137785713Y-76495285D01*
X136499999Y-75209571D02*
X135499999Y-75209571D01*
X135071427Y-73638142D02*
X136499999Y-73638142D01*
X136499999Y-73638142D02*
X136499999Y-76638142D01*
X136499999Y-76638142D02*
X135071427Y-76638142D01*
X134214284Y-76638142D02*
X132499999Y-76638142D01*
X133357141Y-73638142D02*
X133357141Y-76638142D01*
D10*
X79535713Y-53071671D02*
X78678571Y-53071671D01*
X79107142Y-51571671D02*
X79107142Y-53071671D01*
X78178571Y-52357385D02*
X77678571Y-52357385D01*
X77464285Y-51571671D02*
X78178571Y-51571671D01*
X78178571Y-51571671D02*
X78178571Y-53071671D01*
X78178571Y-53071671D02*
X77464285Y-53071671D01*
X75964285Y-51571671D02*
X76464285Y-52285957D01*
X76821428Y-51571671D02*
X76821428Y-53071671D01*
X76821428Y-53071671D02*
X76249999Y-53071671D01*
X76249999Y-53071671D02*
X76107142Y-53000242D01*
X76107142Y-53000242D02*
X76035713Y-52928814D01*
X76035713Y-52928814D02*
X75964285Y-52785957D01*
X75964285Y-52785957D02*
X75964285Y-52571671D01*
X75964285Y-52571671D02*
X76035713Y-52428814D01*
X76035713Y-52428814D02*
X76107142Y-52357385D01*
X76107142Y-52357385D02*
X76249999Y-52285957D01*
X76249999Y-52285957D02*
X76821428Y-52285957D01*
X74464285Y-51714528D02*
X74535713Y-51643100D01*
X74535713Y-51643100D02*
X74749999Y-51571671D01*
X74749999Y-51571671D02*
X74892856Y-51571671D01*
X74892856Y-51571671D02*
X75107142Y-51643100D01*
X75107142Y-51643100D02*
X75249999Y-51785957D01*
X75249999Y-51785957D02*
X75321428Y-51928814D01*
X75321428Y-51928814D02*
X75392856Y-52214528D01*
X75392856Y-52214528D02*
X75392856Y-52428814D01*
X75392856Y-52428814D02*
X75321428Y-52714528D01*
X75321428Y-52714528D02*
X75249999Y-52857385D01*
X75249999Y-52857385D02*
X75107142Y-53000242D01*
X75107142Y-53000242D02*
X74892856Y-53071671D01*
X74892856Y-53071671D02*
X74749999Y-53071671D01*
X74749999Y-53071671D02*
X74535713Y-53000242D01*
X74535713Y-53000242D02*
X74464285Y-52928814D01*
X75107142Y-53643100D02*
X74821428Y-53428814D01*
X74821428Y-53428814D02*
X74535713Y-53643100D01*
X73821428Y-52357385D02*
X73321428Y-52357385D01*
X73107142Y-51571671D02*
X73821428Y-51571671D01*
X73821428Y-51571671D02*
X73821428Y-53071671D01*
X73821428Y-53071671D02*
X73107142Y-53071671D01*
D13*
X110928571Y-73781000D02*
X110500000Y-73638142D01*
X110500000Y-73638142D02*
X109785714Y-73638142D01*
X109785714Y-73638142D02*
X109500000Y-73781000D01*
X109500000Y-73781000D02*
X109357142Y-73923857D01*
X109357142Y-73923857D02*
X109214285Y-74209571D01*
X109214285Y-74209571D02*
X109214285Y-74495285D01*
X109214285Y-74495285D02*
X109357142Y-74781000D01*
X109357142Y-74781000D02*
X109500000Y-74923857D01*
X109500000Y-74923857D02*
X109785714Y-75066714D01*
X109785714Y-75066714D02*
X110357142Y-75209571D01*
X110357142Y-75209571D02*
X110642857Y-75352428D01*
X110642857Y-75352428D02*
X110785714Y-75495285D01*
X110785714Y-75495285D02*
X110928571Y-75781000D01*
X110928571Y-75781000D02*
X110928571Y-76066714D01*
X110928571Y-76066714D02*
X110785714Y-76352428D01*
X110785714Y-76352428D02*
X110642857Y-76495285D01*
X110642857Y-76495285D02*
X110357142Y-76638142D01*
X110357142Y-76638142D02*
X109642857Y-76638142D01*
X109642857Y-76638142D02*
X109214285Y-76495285D01*
X108357142Y-76638142D02*
X106642857Y-76638142D01*
X107499999Y-73638142D02*
X107499999Y-76638142D01*
X105785714Y-74495285D02*
X104357143Y-74495285D01*
X106071428Y-73638142D02*
X105071428Y-76638142D01*
X105071428Y-76638142D02*
X104071428Y-73638142D01*
X101357142Y-73638142D02*
X102357142Y-75066714D01*
X103071428Y-73638142D02*
X103071428Y-76638142D01*
X103071428Y-76638142D02*
X101928571Y-76638142D01*
X101928571Y-76638142D02*
X101642856Y-76495285D01*
X101642856Y-76495285D02*
X101499999Y-76352428D01*
X101499999Y-76352428D02*
X101357142Y-76066714D01*
X101357142Y-76066714D02*
X101357142Y-75638142D01*
X101357142Y-75638142D02*
X101499999Y-75352428D01*
X101499999Y-75352428D02*
X101642856Y-75209571D01*
X101642856Y-75209571D02*
X101928571Y-75066714D01*
X101928571Y-75066714D02*
X103071428Y-75066714D01*
X100499999Y-76638142D02*
X98785714Y-76638142D01*
X99642856Y-73638142D02*
X99642856Y-76638142D01*
X76071428Y-73781000D02*
X75642857Y-73638142D01*
X75642857Y-73638142D02*
X74928571Y-73638142D01*
X74928571Y-73638142D02*
X74642857Y-73781000D01*
X74642857Y-73781000D02*
X74499999Y-73923857D01*
X74499999Y-73923857D02*
X74357142Y-74209571D01*
X74357142Y-74209571D02*
X74357142Y-74495285D01*
X74357142Y-74495285D02*
X74499999Y-74781000D01*
X74499999Y-74781000D02*
X74642857Y-74923857D01*
X74642857Y-74923857D02*
X74928571Y-75066714D01*
X74928571Y-75066714D02*
X75499999Y-75209571D01*
X75499999Y-75209571D02*
X75785714Y-75352428D01*
X75785714Y-75352428D02*
X75928571Y-75495285D01*
X75928571Y-75495285D02*
X76071428Y-75781000D01*
X76071428Y-75781000D02*
X76071428Y-76066714D01*
X76071428Y-76066714D02*
X75928571Y-76352428D01*
X75928571Y-76352428D02*
X75785714Y-76495285D01*
X75785714Y-76495285D02*
X75499999Y-76638142D01*
X75499999Y-76638142D02*
X74785714Y-76638142D01*
X74785714Y-76638142D02*
X74357142Y-76495285D01*
X73499999Y-76638142D02*
X71785714Y-76638142D01*
X72642856Y-73638142D02*
X72642856Y-76638142D01*
X70214285Y-76638142D02*
X69642857Y-76638142D01*
X69642857Y-76638142D02*
X69357142Y-76495285D01*
X69357142Y-76495285D02*
X69071428Y-76209571D01*
X69071428Y-76209571D02*
X68928571Y-75638142D01*
X68928571Y-75638142D02*
X68928571Y-74638142D01*
X68928571Y-74638142D02*
X69071428Y-74066714D01*
X69071428Y-74066714D02*
X69357142Y-73781000D01*
X69357142Y-73781000D02*
X69642857Y-73638142D01*
X69642857Y-73638142D02*
X70214285Y-73638142D01*
X70214285Y-73638142D02*
X70500000Y-73781000D01*
X70500000Y-73781000D02*
X70785714Y-74066714D01*
X70785714Y-74066714D02*
X70928571Y-74638142D01*
X70928571Y-74638142D02*
X70928571Y-75638142D01*
X70928571Y-75638142D02*
X70785714Y-76209571D01*
X70785714Y-76209571D02*
X70500000Y-76495285D01*
X70500000Y-76495285D02*
X70214285Y-76638142D01*
X67642857Y-73638142D02*
X67642857Y-76638142D01*
X67642857Y-76638142D02*
X66500000Y-76638142D01*
X66500000Y-76638142D02*
X66214285Y-76495285D01*
X66214285Y-76495285D02*
X66071428Y-76352428D01*
X66071428Y-76352428D02*
X65928571Y-76066714D01*
X65928571Y-76066714D02*
X65928571Y-75638142D01*
X65928571Y-75638142D02*
X66071428Y-75352428D01*
X66071428Y-75352428D02*
X66214285Y-75209571D01*
X66214285Y-75209571D02*
X66500000Y-75066714D01*
X66500000Y-75066714D02*
X67642857Y-75066714D01*
D14*
%TO.C,START*%
X88300000Y-102800000D02*
X89700000Y-102800000D01*
X88300000Y-104200000D02*
X88300000Y-102800000D01*
X89700000Y-102800000D02*
X89700000Y-104200000D01*
X89700000Y-104200000D02*
X88300000Y-104200000D01*
%TO.C,RESET*%
X91300000Y-102800000D02*
X92700000Y-102800000D01*
X91300000Y-104200000D02*
X91300000Y-102800000D01*
X92700000Y-102800000D02*
X92700000Y-104200000D01*
X92700000Y-104200000D02*
X91300000Y-104200000D01*
%TO.C,STOP*%
X94300000Y-102800000D02*
X95700000Y-102800000D01*
X94300000Y-104200000D02*
X94300000Y-102800000D01*
X95700000Y-102800000D02*
X95700000Y-104200000D01*
X95700000Y-104200000D02*
X94300000Y-104200000D01*
%TO.C,R*%
X90300000Y-115800000D02*
X91700000Y-115800000D01*
X90300000Y-117200000D02*
X90300000Y-115800000D01*
X91700000Y-115800000D02*
X91700000Y-117200000D01*
X91700000Y-117200000D02*
X90300000Y-117200000D01*
%TO.C,L*%
X90300000Y-111822000D02*
X91700000Y-111822000D01*
X90300000Y-113222000D02*
X90300000Y-111822000D01*
X91700000Y-111822000D02*
X91700000Y-113222000D01*
X91700000Y-113222000D02*
X90300000Y-113222000D01*
%TO.C,TX*%
X111314000Y-103948000D02*
X112714000Y-103948000D01*
X111314000Y-105348000D02*
X111314000Y-103948000D01*
X112714000Y-103948000D02*
X112714000Y-105348000D01*
X112714000Y-105348000D02*
X111314000Y-105348000D01*
%TO.C,RX*%
X111314000Y-101027000D02*
X112714000Y-101027000D01*
X111314000Y-102427000D02*
X111314000Y-101027000D01*
X112714000Y-101027000D02*
X112714000Y-102427000D01*
X112714000Y-102427000D02*
X111314000Y-102427000D01*
D15*
%TO.C,G\u002A\u002A\u002A*%
G36*
X54157154Y-90501218D02*
G01*
X54157154Y-90907154D01*
X53751218Y-90907154D01*
X53345282Y-90907154D01*
X53345282Y-90501218D01*
X53345282Y-90095282D01*
X53751218Y-90095282D01*
X54157154Y-90095282D01*
X54157154Y-90501218D01*
G37*
G36*
X54157154Y-97537443D02*
G01*
X54157154Y-97943379D01*
X53751218Y-97943379D01*
X53345282Y-97943379D01*
X53345282Y-97537443D01*
X53345282Y-97131507D01*
X53751218Y-97131507D01*
X54157154Y-97131507D01*
X54157154Y-97537443D01*
G37*
G36*
X54969026Y-93478082D02*
G01*
X54969026Y-93613394D01*
X54698402Y-93613394D01*
X54427778Y-93613394D01*
X54427778Y-93478082D01*
X54427778Y-93342770D01*
X54698402Y-93342770D01*
X54969026Y-93342770D01*
X54969026Y-93478082D01*
G37*
G36*
X61193379Y-90501218D02*
G01*
X61193379Y-90907154D01*
X60787443Y-90907154D01*
X60381507Y-90907154D01*
X60381507Y-90501218D01*
X60381507Y-90095282D01*
X60787443Y-90095282D01*
X61193379Y-90095282D01*
X61193379Y-90501218D01*
G37*
G36*
X55736277Y-95243123D02*
G01*
X55773469Y-95276889D01*
X55780881Y-95362151D01*
X55780898Y-95372451D01*
X55774913Y-95463141D01*
X55741148Y-95500334D01*
X55655885Y-95507746D01*
X55645586Y-95507763D01*
X55554896Y-95501778D01*
X55517703Y-95468013D01*
X55510291Y-95382750D01*
X55510274Y-95372451D01*
X55516259Y-95281760D01*
X55550024Y-95244567D01*
X55635287Y-95237155D01*
X55645586Y-95237139D01*
X55736277Y-95243123D01*
G37*
G36*
X56006901Y-94701875D02*
G01*
X56044093Y-94735641D01*
X56051505Y-94820903D01*
X56051522Y-94831203D01*
X56045537Y-94921893D01*
X56011772Y-94959086D01*
X55926509Y-94966498D01*
X55916210Y-94966515D01*
X55825520Y-94960530D01*
X55788327Y-94926764D01*
X55780915Y-94841502D01*
X55780898Y-94831203D01*
X55786883Y-94740512D01*
X55820648Y-94703319D01*
X55905911Y-94695907D01*
X55916210Y-94695891D01*
X56006901Y-94701875D01*
G37*
G36*
X57630645Y-93078131D02*
G01*
X57667838Y-93111896D01*
X57675250Y-93197159D01*
X57675266Y-93207458D01*
X57669282Y-93298149D01*
X57635516Y-93335341D01*
X57550254Y-93342753D01*
X57539954Y-93342770D01*
X57449264Y-93336786D01*
X57412071Y-93303020D01*
X57404659Y-93217757D01*
X57404642Y-93207458D01*
X57410627Y-93116768D01*
X57444393Y-93079575D01*
X57529655Y-93072163D01*
X57539954Y-93072146D01*
X57630645Y-93078131D01*
G37*
G36*
X58983765Y-96054996D02*
G01*
X59020958Y-96088761D01*
X59028370Y-96174024D01*
X59028387Y-96184323D01*
X59022402Y-96275013D01*
X58988637Y-96312206D01*
X58903374Y-96319618D01*
X58893075Y-96319635D01*
X58802384Y-96313650D01*
X58765191Y-96279885D01*
X58757779Y-96194622D01*
X58757763Y-96184323D01*
X58763747Y-96093632D01*
X58797513Y-96056440D01*
X58882775Y-96049028D01*
X58893075Y-96049011D01*
X58983765Y-96054996D01*
G37*
G36*
X60066261Y-96596244D02*
G01*
X60103454Y-96630009D01*
X60110866Y-96715272D01*
X60110883Y-96725571D01*
X60104898Y-96816261D01*
X60071133Y-96853454D01*
X59985870Y-96860866D01*
X59975571Y-96860883D01*
X59884880Y-96854898D01*
X59847688Y-96821133D01*
X59840276Y-96735870D01*
X59840259Y-96725571D01*
X59846244Y-96634880D01*
X59880009Y-96597688D01*
X59965272Y-96590276D01*
X59975571Y-96590259D01*
X60066261Y-96596244D01*
G37*
G36*
X60336885Y-93078131D02*
G01*
X60374078Y-93111896D01*
X60381490Y-93197159D01*
X60381507Y-93207458D01*
X60375522Y-93298149D01*
X60341757Y-93335341D01*
X60256494Y-93342753D01*
X60246195Y-93342770D01*
X60155505Y-93336786D01*
X60118312Y-93303020D01*
X60110900Y-93217757D01*
X60110883Y-93207458D01*
X60116868Y-93116768D01*
X60150633Y-93079575D01*
X60235896Y-93072163D01*
X60246195Y-93072146D01*
X60336885Y-93078131D01*
G37*
G36*
X60336885Y-94972499D02*
G01*
X60374078Y-95006265D01*
X60381490Y-95091527D01*
X60381507Y-95101827D01*
X60375522Y-95192517D01*
X60341757Y-95229710D01*
X60256494Y-95237122D01*
X60246195Y-95237139D01*
X60155505Y-95231154D01*
X60118312Y-95197389D01*
X60110900Y-95112126D01*
X60110883Y-95101827D01*
X60116868Y-95011136D01*
X60150633Y-94973943D01*
X60235896Y-94966531D01*
X60246195Y-94966515D01*
X60336885Y-94972499D01*
G37*
G36*
X61690006Y-97949364D02*
G01*
X61727198Y-97983129D01*
X61734610Y-98068392D01*
X61734627Y-98078691D01*
X61728642Y-98169382D01*
X61694877Y-98206574D01*
X61609614Y-98213986D01*
X61599315Y-98214003D01*
X61508625Y-98208018D01*
X61471432Y-98174253D01*
X61464020Y-98088990D01*
X61464003Y-98078691D01*
X61469988Y-97988001D01*
X61503753Y-97950808D01*
X61589016Y-97943396D01*
X61599315Y-97943379D01*
X61690006Y-97949364D01*
G37*
G36*
X54698402Y-90501218D02*
G01*
X54698402Y-91448402D01*
X53751218Y-91448402D01*
X52804034Y-91448402D01*
X52804034Y-90501218D01*
X52804034Y-89863318D01*
X53113318Y-89863318D01*
X53113318Y-90501218D01*
X53113318Y-91139117D01*
X53751218Y-91139117D01*
X54389117Y-91139117D01*
X54389117Y-90501218D01*
X54389117Y-89863318D01*
X53751218Y-89863318D01*
X53113318Y-89863318D01*
X52804034Y-89863318D01*
X52804034Y-89554034D01*
X53751218Y-89554034D01*
X54698402Y-89554034D01*
X54698402Y-90501218D01*
G37*
G36*
X54698402Y-97537443D02*
G01*
X54698402Y-98484627D01*
X53751218Y-98484627D01*
X52804034Y-98484627D01*
X52804034Y-97537443D01*
X52804034Y-96899543D01*
X53113318Y-96899543D01*
X53113318Y-97537443D01*
X53113318Y-98175343D01*
X53751218Y-98175343D01*
X54389117Y-98175343D01*
X54389117Y-97537443D01*
X54389117Y-96899543D01*
X53751218Y-96899543D01*
X53113318Y-96899543D01*
X52804034Y-96899543D01*
X52804034Y-96590259D01*
X53751218Y-96590259D01*
X54698402Y-96590259D01*
X54698402Y-97537443D01*
G37*
G36*
X61734627Y-90501218D02*
G01*
X61734627Y-91448402D01*
X60787443Y-91448402D01*
X59840259Y-91448402D01*
X59840259Y-90501218D01*
X59840259Y-89863318D01*
X60149543Y-89863318D01*
X60149543Y-90501218D01*
X60149543Y-91139117D01*
X60787443Y-91139117D01*
X61425343Y-91139117D01*
X61425343Y-90501218D01*
X61425343Y-89863318D01*
X60787443Y-89863318D01*
X60149543Y-89863318D01*
X59840259Y-89863318D01*
X59840259Y-89554034D01*
X60787443Y-89554034D01*
X61734627Y-89554034D01*
X61734627Y-90501218D01*
G37*
G36*
X53300660Y-95784371D02*
G01*
X53337853Y-95818137D01*
X53345265Y-95903400D01*
X53345282Y-95913699D01*
X53339297Y-96004389D01*
X53305532Y-96041582D01*
X53220269Y-96048994D01*
X53209970Y-96049011D01*
X53119279Y-96054996D01*
X53082086Y-96088761D01*
X53074674Y-96174024D01*
X53074658Y-96184323D01*
X53068673Y-96275013D01*
X53034908Y-96312206D01*
X52949645Y-96319618D01*
X52939346Y-96319635D01*
X52848655Y-96313650D01*
X52811462Y-96279885D01*
X52804050Y-96194622D01*
X52804034Y-96184323D01*
X52810018Y-96093632D01*
X52843784Y-96056440D01*
X52929046Y-96049028D01*
X52939346Y-96049011D01*
X53030036Y-96043026D01*
X53067229Y-96009261D01*
X53074641Y-95923998D01*
X53074658Y-95913699D01*
X53080642Y-95823008D01*
X53114408Y-95785816D01*
X53199670Y-95778404D01*
X53209970Y-95778387D01*
X53300660Y-95784371D01*
G37*
G36*
X57901269Y-95784371D02*
G01*
X57938462Y-95818137D01*
X57945874Y-95903400D01*
X57945891Y-95913699D01*
X57939906Y-96004389D01*
X57906140Y-96041582D01*
X57820878Y-96048994D01*
X57810578Y-96049011D01*
X57719888Y-96054996D01*
X57682695Y-96088761D01*
X57675283Y-96174024D01*
X57675266Y-96184323D01*
X57669282Y-96275013D01*
X57635516Y-96312206D01*
X57550254Y-96319618D01*
X57539954Y-96319635D01*
X57449264Y-96313650D01*
X57412071Y-96279885D01*
X57404659Y-96194622D01*
X57404642Y-96184323D01*
X57410627Y-96093632D01*
X57444393Y-96056440D01*
X57529655Y-96049028D01*
X57539954Y-96049011D01*
X57630645Y-96043026D01*
X57667838Y-96009261D01*
X57675250Y-95923998D01*
X57675266Y-95913699D01*
X57681251Y-95823008D01*
X57715017Y-95785816D01*
X57800279Y-95778404D01*
X57810578Y-95778387D01*
X57901269Y-95784371D01*
G37*
G36*
X58442517Y-91183763D02*
G01*
X58479710Y-91217528D01*
X58487122Y-91302791D01*
X58487139Y-91313090D01*
X58481154Y-91403780D01*
X58447389Y-91440973D01*
X58362126Y-91448385D01*
X58351827Y-91448402D01*
X58261136Y-91454387D01*
X58223943Y-91488152D01*
X58216531Y-91573415D01*
X58216515Y-91583714D01*
X58210530Y-91674404D01*
X58176764Y-91711597D01*
X58091502Y-91719009D01*
X58081203Y-91719026D01*
X57990512Y-91713041D01*
X57953319Y-91679276D01*
X57945907Y-91594013D01*
X57945891Y-91583714D01*
X57951875Y-91493024D01*
X57985641Y-91455831D01*
X58070903Y-91448419D01*
X58081203Y-91448402D01*
X58171893Y-91442417D01*
X58209086Y-91408652D01*
X58216498Y-91323389D01*
X58216515Y-91313090D01*
X58222499Y-91222400D01*
X58256265Y-91185207D01*
X58341527Y-91177795D01*
X58351827Y-91177778D01*
X58442517Y-91183763D01*
G37*
G36*
X55239650Y-91448402D02*
G01*
X55239650Y-91719026D01*
X55104338Y-91719026D01*
X55013648Y-91725011D01*
X54976455Y-91758776D01*
X54969043Y-91844039D01*
X54969026Y-91854338D01*
X54969026Y-91989650D01*
X55239650Y-91989650D01*
X55510274Y-91989650D01*
X55510274Y-91854338D01*
X55516259Y-91763648D01*
X55550024Y-91726455D01*
X55635287Y-91719043D01*
X55645586Y-91719026D01*
X55736277Y-91725011D01*
X55773469Y-91758776D01*
X55780881Y-91844039D01*
X55780898Y-91854338D01*
X55774913Y-91945028D01*
X55741148Y-91982221D01*
X55655885Y-91989633D01*
X55645586Y-91989650D01*
X55554896Y-91995635D01*
X55517703Y-92029400D01*
X55510291Y-92114663D01*
X55510274Y-92124962D01*
X55504289Y-92215652D01*
X55470524Y-92252845D01*
X55385261Y-92260257D01*
X55374962Y-92260274D01*
X55284272Y-92266259D01*
X55247079Y-92300024D01*
X55239667Y-92385287D01*
X55239650Y-92395586D01*
X55239650Y-92530898D01*
X54833714Y-92530898D01*
X54427778Y-92530898D01*
X54427778Y-92666210D01*
X54427778Y-92801522D01*
X54969026Y-92801522D01*
X55510274Y-92801522D01*
X55510274Y-92666210D01*
X55516259Y-92575520D01*
X55550024Y-92538327D01*
X55635287Y-92530915D01*
X55645586Y-92530898D01*
X55780898Y-92530898D01*
X55780898Y-92801522D01*
X55780898Y-93072146D01*
X55645586Y-93072146D01*
X55510274Y-93072146D01*
X55510274Y-93342770D01*
X55510274Y-93613394D01*
X55374962Y-93613394D01*
X55239650Y-93613394D01*
X55239650Y-93342770D01*
X55239650Y-93072146D01*
X54833714Y-93072146D01*
X54427778Y-93072146D01*
X54427778Y-92936834D01*
X54421793Y-92846144D01*
X54388028Y-92808951D01*
X54302765Y-92801539D01*
X54292466Y-92801522D01*
X54157154Y-92801522D01*
X54157154Y-92260274D01*
X54157154Y-91989650D01*
X54427778Y-91989650D01*
X54427778Y-92124962D01*
X54427778Y-92260274D01*
X54698402Y-92260274D01*
X54969026Y-92260274D01*
X54969026Y-92124962D01*
X54969026Y-91989650D01*
X54698402Y-91989650D01*
X54427778Y-91989650D01*
X54157154Y-91989650D01*
X54157154Y-91719026D01*
X54563090Y-91719026D01*
X54969026Y-91719026D01*
X54969026Y-91448402D01*
X54969026Y-91177778D01*
X55104338Y-91177778D01*
X55239650Y-91177778D01*
X55239650Y-91448402D01*
G37*
G36*
X57901269Y-93890003D02*
G01*
X57938462Y-93923768D01*
X57945874Y-94009031D01*
X57945891Y-94019330D01*
X57945891Y-94154642D01*
X58216515Y-94154642D01*
X58487139Y-94154642D01*
X58487139Y-94289954D01*
X58493123Y-94380645D01*
X58526889Y-94417838D01*
X58612151Y-94425250D01*
X58622451Y-94425266D01*
X58713141Y-94431251D01*
X58750334Y-94465017D01*
X58757746Y-94550279D01*
X58757763Y-94560578D01*
X58757763Y-94695891D01*
X58487139Y-94695891D01*
X58216515Y-94695891D01*
X58216515Y-94831203D01*
X58216515Y-94966515D01*
X57810578Y-94966515D01*
X57404642Y-94966515D01*
X57404642Y-95101827D01*
X57410627Y-95192517D01*
X57444393Y-95229710D01*
X57529655Y-95237122D01*
X57539954Y-95237139D01*
X57630645Y-95243123D01*
X57667838Y-95276889D01*
X57675250Y-95362151D01*
X57675266Y-95372451D01*
X57675266Y-95507763D01*
X57404642Y-95507763D01*
X57134018Y-95507763D01*
X57134018Y-95778387D01*
X57134018Y-96049011D01*
X56998706Y-96049011D01*
X56863394Y-96049011D01*
X56863394Y-95643075D01*
X56863394Y-95237139D01*
X56998706Y-95237139D01*
X57089397Y-95231154D01*
X57126590Y-95197389D01*
X57134002Y-95112126D01*
X57134018Y-95101827D01*
X57140003Y-95011136D01*
X57173768Y-94973943D01*
X57259031Y-94966531D01*
X57269330Y-94966515D01*
X57360021Y-94960530D01*
X57397214Y-94926764D01*
X57404626Y-94841502D01*
X57404642Y-94831203D01*
X57404642Y-94695891D01*
X57134018Y-94695891D01*
X56863394Y-94695891D01*
X56863394Y-94425266D01*
X56863394Y-94154642D01*
X56998706Y-94154642D01*
X57089397Y-94160627D01*
X57126590Y-94194393D01*
X57134002Y-94279655D01*
X57134018Y-94289954D01*
X57140003Y-94380645D01*
X57173768Y-94417838D01*
X57259031Y-94425250D01*
X57269330Y-94425266D01*
X57360021Y-94431251D01*
X57397214Y-94465017D01*
X57404626Y-94550279D01*
X57404642Y-94560578D01*
X57410627Y-94651269D01*
X57444393Y-94688462D01*
X57529655Y-94695874D01*
X57539954Y-94695891D01*
X57630645Y-94689906D01*
X57667838Y-94656140D01*
X57675250Y-94570878D01*
X57675266Y-94560578D01*
X57945891Y-94560578D01*
X57951875Y-94651269D01*
X57985641Y-94688462D01*
X58070903Y-94695874D01*
X58081203Y-94695891D01*
X58171893Y-94689906D01*
X58209086Y-94656140D01*
X58216498Y-94570878D01*
X58216515Y-94560578D01*
X58210530Y-94469888D01*
X58176764Y-94432695D01*
X58091502Y-94425283D01*
X58081203Y-94425266D01*
X57990512Y-94431251D01*
X57953319Y-94465017D01*
X57945907Y-94550279D01*
X57945891Y-94560578D01*
X57675266Y-94560578D01*
X57681251Y-94469888D01*
X57715017Y-94432695D01*
X57800279Y-94425283D01*
X57810578Y-94425266D01*
X57901269Y-94419282D01*
X57938462Y-94385516D01*
X57945874Y-94300254D01*
X57945891Y-94289954D01*
X57939906Y-94199264D01*
X57906140Y-94162071D01*
X57820878Y-94154659D01*
X57810578Y-94154642D01*
X57719888Y-94148658D01*
X57682695Y-94114892D01*
X57675283Y-94029630D01*
X57675266Y-94019330D01*
X57681251Y-93928640D01*
X57715017Y-93891447D01*
X57800279Y-93884035D01*
X57810578Y-93884018D01*
X57901269Y-93890003D01*
G37*
G36*
X55510274Y-89689346D02*
G01*
X55516259Y-89780036D01*
X55550024Y-89817229D01*
X55635287Y-89824641D01*
X55645586Y-89824658D01*
X55736277Y-89818673D01*
X55773469Y-89784908D01*
X55780881Y-89699645D01*
X55780898Y-89689346D01*
X55780898Y-89554034D01*
X56051522Y-89554034D01*
X56322146Y-89554034D01*
X56322146Y-89824658D01*
X56322146Y-90095282D01*
X56457458Y-90095282D01*
X56548149Y-90089297D01*
X56585341Y-90055532D01*
X56592753Y-89970269D01*
X56592770Y-89959970D01*
X56863394Y-89959970D01*
X56869379Y-90050660D01*
X56903144Y-90087853D01*
X56988407Y-90095265D01*
X56998706Y-90095282D01*
X57089397Y-90089297D01*
X57126590Y-90055532D01*
X57134002Y-89970269D01*
X57134018Y-89959970D01*
X57128034Y-89869279D01*
X57094268Y-89832086D01*
X57009006Y-89824674D01*
X56998706Y-89824658D01*
X56908016Y-89830642D01*
X56870823Y-89864408D01*
X56863411Y-89949670D01*
X56863394Y-89959970D01*
X56592770Y-89959970D01*
X56598755Y-89869279D01*
X56632520Y-89832086D01*
X56717783Y-89824674D01*
X56728082Y-89824658D01*
X56818773Y-89818673D01*
X56855966Y-89784908D01*
X56863378Y-89699645D01*
X56863394Y-89689346D01*
X56863394Y-89554034D01*
X57134018Y-89554034D01*
X57404642Y-89554034D01*
X57404642Y-89689346D01*
X57410627Y-89780036D01*
X57444393Y-89817229D01*
X57529655Y-89824641D01*
X57539954Y-89824658D01*
X57630645Y-89818673D01*
X57667838Y-89784908D01*
X57675250Y-89699645D01*
X57675266Y-89689346D01*
X57675266Y-89554034D01*
X58216515Y-89554034D01*
X58757763Y-89554034D01*
X58757763Y-89689346D01*
X58757763Y-89824658D01*
X58216515Y-89824658D01*
X57675266Y-89824658D01*
X57675266Y-89959970D01*
X57675266Y-90095282D01*
X57404642Y-90095282D01*
X57134018Y-90095282D01*
X57134018Y-90230594D01*
X57134018Y-90365906D01*
X56728082Y-90365906D01*
X56322146Y-90365906D01*
X56322146Y-90636530D01*
X56322146Y-90907154D01*
X56186834Y-90907154D01*
X56096144Y-90913139D01*
X56058951Y-90946904D01*
X56051539Y-91032167D01*
X56051522Y-91042466D01*
X56057507Y-91133156D01*
X56091272Y-91170349D01*
X56176535Y-91177761D01*
X56186834Y-91177778D01*
X56277525Y-91183763D01*
X56314717Y-91217528D01*
X56322129Y-91302791D01*
X56322146Y-91313090D01*
X56316161Y-91403780D01*
X56282396Y-91440973D01*
X56197133Y-91448385D01*
X56186834Y-91448402D01*
X56096144Y-91442417D01*
X56058951Y-91408652D01*
X56051539Y-91323389D01*
X56051522Y-91313090D01*
X56045537Y-91222400D01*
X56011772Y-91185207D01*
X55926509Y-91177795D01*
X55916210Y-91177778D01*
X55825520Y-91183763D01*
X55788327Y-91217528D01*
X55780915Y-91302791D01*
X55780898Y-91313090D01*
X55774913Y-91403780D01*
X55741148Y-91440973D01*
X55655885Y-91448385D01*
X55645586Y-91448402D01*
X55554896Y-91442417D01*
X55517703Y-91408652D01*
X55510291Y-91323389D01*
X55510274Y-91313090D01*
X55516259Y-91222400D01*
X55550024Y-91185207D01*
X55635287Y-91177795D01*
X55645586Y-91177778D01*
X55780898Y-91177778D01*
X55780898Y-90907154D01*
X55780898Y-90636530D01*
X55645586Y-90636530D01*
X55554896Y-90630545D01*
X55517703Y-90596780D01*
X55510291Y-90511517D01*
X55510274Y-90501218D01*
X55504289Y-90410527D01*
X55470524Y-90373335D01*
X55385261Y-90365923D01*
X55374962Y-90365906D01*
X55510274Y-90365906D01*
X55916210Y-90365906D01*
X56322146Y-90365906D01*
X56322146Y-90230594D01*
X56316161Y-90139903D01*
X56282396Y-90102710D01*
X56197133Y-90095299D01*
X56186834Y-90095282D01*
X56096144Y-90089297D01*
X56058951Y-90055532D01*
X56051539Y-89970269D01*
X56051522Y-89959970D01*
X56045537Y-89869279D01*
X56011772Y-89832086D01*
X55926509Y-89824674D01*
X55916210Y-89824658D01*
X55825520Y-89830642D01*
X55788327Y-89864408D01*
X55780915Y-89949670D01*
X55780898Y-89959970D01*
X55774913Y-90050660D01*
X55741148Y-90087853D01*
X55655885Y-90095265D01*
X55645586Y-90095282D01*
X55554896Y-90101266D01*
X55517703Y-90135032D01*
X55510291Y-90220294D01*
X55510274Y-90230594D01*
X55510274Y-90365906D01*
X55374962Y-90365906D01*
X55284272Y-90371890D01*
X55247079Y-90405656D01*
X55239667Y-90490919D01*
X55239650Y-90501218D01*
X55233665Y-90591908D01*
X55199900Y-90629101D01*
X55114637Y-90636513D01*
X55104338Y-90636530D01*
X55013648Y-90630545D01*
X54976455Y-90596780D01*
X54969043Y-90511517D01*
X54969026Y-90501218D01*
X54975011Y-90410527D01*
X55008776Y-90373335D01*
X55094039Y-90365923D01*
X55104338Y-90365906D01*
X55195028Y-90359921D01*
X55232221Y-90326156D01*
X55239633Y-90240893D01*
X55239650Y-90230594D01*
X55233665Y-90139903D01*
X55199900Y-90102710D01*
X55114637Y-90095299D01*
X55104338Y-90095282D01*
X54969026Y-90095282D01*
X54969026Y-89824658D01*
X54969026Y-89554034D01*
X55239650Y-89554034D01*
X55510274Y-89554034D01*
X55510274Y-89689346D01*
G37*
G36*
X59254389Y-89560018D02*
G01*
X59291582Y-89593784D01*
X59298994Y-89679046D01*
X59299011Y-89689346D01*
X59304996Y-89780036D01*
X59338761Y-89817229D01*
X59424024Y-89824641D01*
X59434323Y-89824658D01*
X59569635Y-89824658D01*
X59569635Y-90365906D01*
X59569635Y-90907154D01*
X59434323Y-90907154D01*
X59343632Y-90913139D01*
X59306440Y-90946904D01*
X59299028Y-91032167D01*
X59299011Y-91042466D01*
X59304996Y-91133156D01*
X59338761Y-91170349D01*
X59424024Y-91177761D01*
X59434323Y-91177778D01*
X59569635Y-91177778D01*
X59569635Y-91583714D01*
X59569635Y-91989650D01*
X59434323Y-91989650D01*
X59299011Y-91989650D01*
X59299011Y-92260274D01*
X59299011Y-92530898D01*
X59163699Y-92530898D01*
X59073008Y-92536883D01*
X59035816Y-92570648D01*
X59028404Y-92655911D01*
X59028387Y-92666210D01*
X59028387Y-92801522D01*
X59299011Y-92801522D01*
X59569635Y-92801522D01*
X59569635Y-92530898D01*
X59569635Y-92260274D01*
X59704947Y-92260274D01*
X59840259Y-92260274D01*
X59840259Y-91989650D01*
X59840259Y-91719026D01*
X59975571Y-91719026D01*
X60066261Y-91725011D01*
X60103454Y-91758776D01*
X60110866Y-91844039D01*
X60110883Y-91854338D01*
X60116868Y-91945028D01*
X60150633Y-91982221D01*
X60235896Y-91989633D01*
X60246195Y-91989650D01*
X60336885Y-91995635D01*
X60374078Y-92029400D01*
X60381490Y-92114663D01*
X60381507Y-92124962D01*
X60387492Y-92215652D01*
X60421257Y-92252845D01*
X60506520Y-92260257D01*
X60516819Y-92260274D01*
X60652131Y-92260274D01*
X60652131Y-91989650D01*
X60652131Y-91719026D01*
X60787443Y-91719026D01*
X60878133Y-91725011D01*
X60915326Y-91758776D01*
X60922738Y-91844039D01*
X60922755Y-91854338D01*
X60928740Y-91945028D01*
X60962505Y-91982221D01*
X61047768Y-91989633D01*
X61058067Y-91989650D01*
X61148757Y-91983665D01*
X61185950Y-91949900D01*
X61193362Y-91864637D01*
X61193379Y-91854338D01*
X61193379Y-91719026D01*
X61464003Y-91719026D01*
X61734627Y-91719026D01*
X61734627Y-92124962D01*
X61734627Y-92530898D01*
X61464003Y-92530898D01*
X61193379Y-92530898D01*
X61193379Y-92395586D01*
X61187394Y-92304896D01*
X61153629Y-92267703D01*
X61068366Y-92260291D01*
X61058067Y-92260274D01*
X60922755Y-92260274D01*
X60922755Y-92801522D01*
X60922755Y-93342770D01*
X61058067Y-93342770D01*
X61193379Y-93342770D01*
X61193379Y-93072146D01*
X61193379Y-92801522D01*
X61328691Y-92801522D01*
X61464003Y-92801522D01*
X61464003Y-93072146D01*
X61464003Y-93342770D01*
X61328691Y-93342770D01*
X61193379Y-93342770D01*
X61193379Y-93748706D01*
X61193379Y-94154642D01*
X61464003Y-94154642D01*
X61734627Y-94154642D01*
X61734627Y-94289954D01*
X61728642Y-94380645D01*
X61694877Y-94417838D01*
X61609614Y-94425250D01*
X61599315Y-94425266D01*
X61508625Y-94431251D01*
X61471432Y-94465017D01*
X61464020Y-94550279D01*
X61464003Y-94560578D01*
X61464003Y-94695891D01*
X61193379Y-94695891D01*
X60922755Y-94695891D01*
X60922755Y-94560578D01*
X60916770Y-94469888D01*
X60883005Y-94432695D01*
X60797742Y-94425283D01*
X60787443Y-94425266D01*
X60652131Y-94425266D01*
X60652131Y-94695891D01*
X60652131Y-94966515D01*
X61058067Y-94966515D01*
X61464003Y-94966515D01*
X61464003Y-95101827D01*
X61469988Y-95192517D01*
X61503753Y-95229710D01*
X61589016Y-95237122D01*
X61599315Y-95237139D01*
X61734627Y-95237139D01*
X61734627Y-95778387D01*
X61734627Y-96319635D01*
X61599315Y-96319635D01*
X61508625Y-96325620D01*
X61471432Y-96359385D01*
X61464020Y-96444648D01*
X61464003Y-96454947D01*
X61458018Y-96545637D01*
X61424253Y-96582830D01*
X61338990Y-96590242D01*
X61328691Y-96590259D01*
X61238001Y-96584274D01*
X61200808Y-96550509D01*
X61193396Y-96465246D01*
X61193379Y-96454947D01*
X61199364Y-96364256D01*
X61233129Y-96327064D01*
X61318392Y-96319652D01*
X61328691Y-96319635D01*
X61464003Y-96319635D01*
X61464003Y-96049011D01*
X61464003Y-95778387D01*
X61328691Y-95778387D01*
X61238001Y-95772402D01*
X61200808Y-95738637D01*
X61193396Y-95653374D01*
X61193379Y-95643075D01*
X61187394Y-95552384D01*
X61153629Y-95515191D01*
X61068366Y-95507779D01*
X61058067Y-95507763D01*
X60922755Y-95507763D01*
X60922755Y-95778387D01*
X60922755Y-96049011D01*
X60787443Y-96049011D01*
X60696753Y-96054996D01*
X60659560Y-96088761D01*
X60652148Y-96174024D01*
X60652131Y-96184323D01*
X60658116Y-96275013D01*
X60691881Y-96312206D01*
X60777144Y-96319618D01*
X60787443Y-96319635D01*
X60878133Y-96325620D01*
X60915326Y-96359385D01*
X60922738Y-96444648D01*
X60922755Y-96454947D01*
X60916770Y-96545637D01*
X60883005Y-96582830D01*
X60797742Y-96590242D01*
X60787443Y-96590259D01*
X60696753Y-96596244D01*
X60659560Y-96630009D01*
X60652148Y-96715272D01*
X60652131Y-96725571D01*
X60652131Y-96860883D01*
X61058067Y-96860883D01*
X61464003Y-96860883D01*
X61464003Y-96996195D01*
X61458018Y-97086885D01*
X61424253Y-97124078D01*
X61338990Y-97131490D01*
X61328691Y-97131507D01*
X61238001Y-97137492D01*
X61200808Y-97171257D01*
X61193396Y-97256520D01*
X61193379Y-97266819D01*
X61193379Y-97402131D01*
X61464003Y-97402131D01*
X61734627Y-97402131D01*
X61734627Y-97537443D01*
X61734627Y-97672755D01*
X61328691Y-97672755D01*
X60922755Y-97672755D01*
X60922755Y-97808067D01*
X60916770Y-97898757D01*
X60883005Y-97935950D01*
X60797742Y-97943362D01*
X60787443Y-97943379D01*
X60696753Y-97949364D01*
X60659560Y-97983129D01*
X60652148Y-98068392D01*
X60652131Y-98078691D01*
X60652131Y-98214003D01*
X60922755Y-98214003D01*
X61193379Y-98214003D01*
X61193379Y-98349315D01*
X61193379Y-98484627D01*
X60787443Y-98484627D01*
X60381507Y-98484627D01*
X60381507Y-98349315D01*
X60375522Y-98258625D01*
X60341757Y-98221432D01*
X60256494Y-98214020D01*
X60246195Y-98214003D01*
X60155505Y-98208018D01*
X60118312Y-98174253D01*
X60110900Y-98088990D01*
X60110883Y-98078691D01*
X60104898Y-97988001D01*
X60071133Y-97950808D01*
X59985870Y-97943396D01*
X59975571Y-97943379D01*
X60381507Y-97943379D01*
X60516819Y-97943379D01*
X60652131Y-97943379D01*
X60652131Y-97672755D01*
X60652131Y-97402131D01*
X60787443Y-97402131D01*
X60878133Y-97396146D01*
X60915326Y-97362381D01*
X60922738Y-97277118D01*
X60922755Y-97266819D01*
X60916770Y-97176129D01*
X60883005Y-97138936D01*
X60797742Y-97131524D01*
X60787443Y-97131507D01*
X60696753Y-97137492D01*
X60659560Y-97171257D01*
X60652148Y-97256520D01*
X60652131Y-97266819D01*
X60646146Y-97357509D01*
X60612381Y-97394702D01*
X60527118Y-97402114D01*
X60516819Y-97402131D01*
X60381507Y-97402131D01*
X60381507Y-97672755D01*
X60381507Y-97943379D01*
X59975571Y-97943379D01*
X59884880Y-97949364D01*
X59847688Y-97983129D01*
X59840276Y-98068392D01*
X59840259Y-98078691D01*
X59840259Y-98214003D01*
X59569635Y-98214003D01*
X59299011Y-98214003D01*
X59299011Y-98349315D01*
X59293026Y-98440006D01*
X59259261Y-98477198D01*
X59173998Y-98484610D01*
X59163699Y-98484627D01*
X59073008Y-98478642D01*
X59035816Y-98444877D01*
X59028404Y-98359614D01*
X59028387Y-98349315D01*
X59022402Y-98258625D01*
X58988637Y-98221432D01*
X58903374Y-98214020D01*
X58893075Y-98214003D01*
X58802384Y-98219988D01*
X58765191Y-98253753D01*
X58757779Y-98339016D01*
X58757763Y-98349315D01*
X58751778Y-98440006D01*
X58718013Y-98477198D01*
X58632750Y-98484610D01*
X58622451Y-98484627D01*
X58531760Y-98478642D01*
X58494567Y-98444877D01*
X58487155Y-98359614D01*
X58487139Y-98349315D01*
X58481154Y-98258625D01*
X58447389Y-98221432D01*
X58362126Y-98214020D01*
X58351827Y-98214003D01*
X58261136Y-98219988D01*
X58223943Y-98253753D01*
X58216531Y-98339016D01*
X58216515Y-98349315D01*
X58216515Y-98484627D01*
X57675266Y-98484627D01*
X57134018Y-98484627D01*
X57134018Y-98349315D01*
X57140003Y-98258625D01*
X57173768Y-98221432D01*
X57259031Y-98214020D01*
X57269330Y-98214003D01*
X57360021Y-98208018D01*
X57397214Y-98174253D01*
X57404626Y-98088990D01*
X57404642Y-98078691D01*
X57404642Y-97943379D01*
X56998706Y-97943379D01*
X56592770Y-97943379D01*
X56592770Y-98078691D01*
X56598755Y-98169382D01*
X56632520Y-98206574D01*
X56717783Y-98213986D01*
X56728082Y-98214003D01*
X56818773Y-98219988D01*
X56855966Y-98253753D01*
X56863378Y-98339016D01*
X56863394Y-98349315D01*
X56857410Y-98440006D01*
X56823644Y-98477198D01*
X56738382Y-98484610D01*
X56728082Y-98484627D01*
X56637392Y-98478642D01*
X56600199Y-98444877D01*
X56592787Y-98359614D01*
X56592770Y-98349315D01*
X56592770Y-98214003D01*
X56051522Y-98214003D01*
X55510274Y-98214003D01*
X55510274Y-98349315D01*
X55510274Y-98484627D01*
X55239650Y-98484627D01*
X54969026Y-98484627D01*
X54969026Y-98349315D01*
X54975011Y-98258625D01*
X55008776Y-98221432D01*
X55094039Y-98214020D01*
X55104338Y-98214003D01*
X55195028Y-98208018D01*
X55232221Y-98174253D01*
X55239633Y-98088990D01*
X55239650Y-98078691D01*
X55233665Y-97988001D01*
X55199900Y-97950808D01*
X55114637Y-97943396D01*
X55104338Y-97943379D01*
X54969026Y-97943379D01*
X54969026Y-97672755D01*
X54969026Y-97402131D01*
X55239650Y-97402131D01*
X55510274Y-97402131D01*
X55510274Y-97266819D01*
X55510274Y-97131507D01*
X55239650Y-97131507D01*
X54969026Y-97131507D01*
X54969026Y-96725571D01*
X55239650Y-96725571D01*
X55245635Y-96816261D01*
X55279400Y-96853454D01*
X55364663Y-96860866D01*
X55374962Y-96860883D01*
X55465652Y-96866868D01*
X55502845Y-96900633D01*
X55510257Y-96985896D01*
X55510274Y-96996195D01*
X55516259Y-97086885D01*
X55550024Y-97124078D01*
X55635287Y-97131490D01*
X55645586Y-97131507D01*
X55736277Y-97137492D01*
X55773469Y-97171257D01*
X55780881Y-97256520D01*
X55780898Y-97266819D01*
X55786883Y-97357509D01*
X55820648Y-97394702D01*
X55905911Y-97402114D01*
X55916210Y-97402131D01*
X56006901Y-97408116D01*
X56044093Y-97441881D01*
X56051505Y-97527144D01*
X56051522Y-97537443D01*
X56051522Y-97672755D01*
X55780898Y-97672755D01*
X55510274Y-97672755D01*
X55510274Y-97808067D01*
X55510274Y-97943379D01*
X56051522Y-97943379D01*
X56592770Y-97943379D01*
X56592770Y-97672755D01*
X56592770Y-97537443D01*
X56863394Y-97537443D01*
X56869379Y-97628133D01*
X56903144Y-97665326D01*
X56988407Y-97672738D01*
X56998706Y-97672755D01*
X57089397Y-97666770D01*
X57126590Y-97633005D01*
X57134002Y-97547742D01*
X57134018Y-97537443D01*
X57128034Y-97446753D01*
X57094268Y-97409560D01*
X57009006Y-97402148D01*
X56998706Y-97402131D01*
X56908016Y-97408116D01*
X56870823Y-97441881D01*
X56863411Y-97527144D01*
X56863394Y-97537443D01*
X56592770Y-97537443D01*
X56592770Y-97402131D01*
X56322146Y-97402131D01*
X56051522Y-97402131D01*
X56051522Y-97266819D01*
X56045537Y-97176129D01*
X56011772Y-97138936D01*
X55926509Y-97131524D01*
X55916210Y-97131507D01*
X55825520Y-97125522D01*
X55788327Y-97091757D01*
X55780915Y-97006494D01*
X55780898Y-96996195D01*
X55774913Y-96905505D01*
X55741148Y-96868312D01*
X55655885Y-96860900D01*
X55645586Y-96860883D01*
X55554896Y-96854898D01*
X55517703Y-96821133D01*
X55510291Y-96735870D01*
X55510274Y-96725571D01*
X56051522Y-96725571D01*
X56057507Y-96816261D01*
X56091272Y-96853454D01*
X56176535Y-96860866D01*
X56186834Y-96860883D01*
X56277525Y-96866868D01*
X56314717Y-96900633D01*
X56322129Y-96985896D01*
X56322146Y-96996195D01*
X56322146Y-97131507D01*
X56592770Y-97131507D01*
X56863394Y-97131507D01*
X56863394Y-96996195D01*
X56863394Y-96860883D01*
X57134018Y-96860883D01*
X57404642Y-96860883D01*
X57404642Y-96725571D01*
X57404642Y-96590259D01*
X57675266Y-96590259D01*
X57945891Y-96590259D01*
X57945891Y-96319635D01*
X57945891Y-96049011D01*
X58081203Y-96049011D01*
X58171893Y-96054996D01*
X58209086Y-96088761D01*
X58216498Y-96174024D01*
X58216515Y-96184323D01*
X58216515Y-96319635D01*
X58487139Y-96319635D01*
X58757763Y-96319635D01*
X58757763Y-96590259D01*
X58757763Y-96860883D01*
X58622451Y-96860883D01*
X58531760Y-96866868D01*
X58494567Y-96900633D01*
X58487155Y-96985896D01*
X58487139Y-96996195D01*
X58481154Y-97086885D01*
X58447389Y-97124078D01*
X58362126Y-97131490D01*
X58351827Y-97131507D01*
X58261136Y-97125522D01*
X58223943Y-97091757D01*
X58216531Y-97006494D01*
X58216515Y-96996195D01*
X58210530Y-96905505D01*
X58176764Y-96868312D01*
X58091502Y-96860900D01*
X58081203Y-96860883D01*
X57990512Y-96866868D01*
X57953319Y-96900633D01*
X57945907Y-96985896D01*
X57945891Y-96996195D01*
X57951875Y-97086885D01*
X57985641Y-97124078D01*
X58070903Y-97131490D01*
X58081203Y-97131507D01*
X58216515Y-97131507D01*
X58216515Y-97402131D01*
X58216515Y-97672755D01*
X58081203Y-97672755D01*
X57990512Y-97666770D01*
X57953319Y-97633005D01*
X57945907Y-97547742D01*
X57945891Y-97537443D01*
X57939906Y-97446753D01*
X57906140Y-97409560D01*
X57820878Y-97402148D01*
X57810578Y-97402131D01*
X57675266Y-97402131D01*
X57675266Y-97672755D01*
X57675266Y-97943379D01*
X57810578Y-97943379D01*
X57901269Y-97949364D01*
X57938462Y-97983129D01*
X57945874Y-98068392D01*
X57945891Y-98078691D01*
X57951875Y-98169382D01*
X57985641Y-98206574D01*
X58070903Y-98213986D01*
X58081203Y-98214003D01*
X58216515Y-98214003D01*
X58216515Y-97943379D01*
X58216515Y-97672755D01*
X58351827Y-97672755D01*
X58487139Y-97672755D01*
X58487139Y-97943379D01*
X58487139Y-98214003D01*
X58622451Y-98214003D01*
X58757763Y-98214003D01*
X58757763Y-97943379D01*
X59028387Y-97943379D01*
X59434323Y-97943379D01*
X59840259Y-97943379D01*
X59840259Y-97808067D01*
X59846244Y-97717377D01*
X59880009Y-97680184D01*
X59965272Y-97672772D01*
X59975571Y-97672755D01*
X60066261Y-97666770D01*
X60103454Y-97633005D01*
X60110866Y-97547742D01*
X60110883Y-97537443D01*
X60110883Y-97402131D01*
X59704947Y-97402131D01*
X59299011Y-97402131D01*
X59299011Y-97537443D01*
X59293026Y-97628133D01*
X59259261Y-97665326D01*
X59173998Y-97672738D01*
X59163699Y-97672755D01*
X59073008Y-97678740D01*
X59035816Y-97712505D01*
X59028404Y-97797768D01*
X59028387Y-97808067D01*
X59028387Y-97943379D01*
X58757763Y-97943379D01*
X58757763Y-97672755D01*
X58622451Y-97672755D01*
X58531760Y-97666770D01*
X58494567Y-97633005D01*
X58487155Y-97547742D01*
X58487139Y-97537443D01*
X58493123Y-97446753D01*
X58526889Y-97409560D01*
X58612151Y-97402148D01*
X58622451Y-97402131D01*
X58713141Y-97396146D01*
X58750334Y-97362381D01*
X58757746Y-97277118D01*
X58757763Y-97266819D01*
X58763747Y-97176129D01*
X58797513Y-97138936D01*
X58882775Y-97131524D01*
X58893075Y-97131507D01*
X59028387Y-97131507D01*
X59028387Y-96860883D01*
X59028387Y-96590259D01*
X59163699Y-96590259D01*
X59299011Y-96590259D01*
X59299011Y-96319635D01*
X59569635Y-96319635D01*
X59569635Y-96725571D01*
X59569635Y-97131507D01*
X59975571Y-97131507D01*
X60381507Y-97131507D01*
X60381507Y-96725571D01*
X60381507Y-96319635D01*
X59975571Y-96319635D01*
X59569635Y-96319635D01*
X59299011Y-96319635D01*
X59299011Y-96184323D01*
X59299011Y-95913699D01*
X59569635Y-95913699D01*
X59575620Y-96004389D01*
X59609385Y-96041582D01*
X59694648Y-96048994D01*
X59704947Y-96049011D01*
X59795637Y-96043026D01*
X59832830Y-96009261D01*
X59840242Y-95923998D01*
X59840259Y-95913699D01*
X59834274Y-95823008D01*
X59800509Y-95785816D01*
X59715246Y-95778404D01*
X59704947Y-95778387D01*
X59614256Y-95784371D01*
X59577064Y-95818137D01*
X59569652Y-95903400D01*
X59569635Y-95913699D01*
X59299011Y-95913699D01*
X59299011Y-95778387D01*
X59163699Y-95778387D01*
X59073008Y-95772402D01*
X59035816Y-95738637D01*
X59028404Y-95653374D01*
X59028387Y-95643075D01*
X59022402Y-95552384D01*
X58988637Y-95515191D01*
X58903374Y-95507779D01*
X58893075Y-95507763D01*
X58802384Y-95513747D01*
X58765191Y-95547513D01*
X58757779Y-95632775D01*
X58757763Y-95643075D01*
X58751778Y-95733765D01*
X58718013Y-95770958D01*
X58632750Y-95778370D01*
X58622451Y-95778387D01*
X58531760Y-95784371D01*
X58494567Y-95818137D01*
X58487155Y-95903400D01*
X58487139Y-95913699D01*
X58481154Y-96004389D01*
X58447389Y-96041582D01*
X58362126Y-96048994D01*
X58351827Y-96049011D01*
X58261136Y-96043026D01*
X58223943Y-96009261D01*
X58216531Y-95923998D01*
X58216515Y-95913699D01*
X58210530Y-95823008D01*
X58176764Y-95785816D01*
X58091502Y-95778404D01*
X58081203Y-95778387D01*
X57990512Y-95772402D01*
X57953319Y-95738637D01*
X57945907Y-95653374D01*
X57945891Y-95643075D01*
X57951875Y-95552384D01*
X57985641Y-95515191D01*
X58070903Y-95507779D01*
X58081203Y-95507763D01*
X58171893Y-95501778D01*
X58209086Y-95468013D01*
X58216498Y-95382750D01*
X58216515Y-95372451D01*
X58216515Y-95237139D01*
X58487139Y-95237139D01*
X58757763Y-95237139D01*
X58757763Y-95101827D01*
X59028387Y-95101827D01*
X59034371Y-95192517D01*
X59068137Y-95229710D01*
X59153400Y-95237122D01*
X59163699Y-95237139D01*
X59254389Y-95243123D01*
X59291582Y-95276889D01*
X59298994Y-95362151D01*
X59299011Y-95372451D01*
X59299011Y-95507763D01*
X59569635Y-95507763D01*
X59840259Y-95507763D01*
X59840259Y-95372451D01*
X59846244Y-95281760D01*
X59880009Y-95244567D01*
X59965272Y-95237155D01*
X59975571Y-95237139D01*
X60110883Y-95237139D01*
X60110883Y-95643075D01*
X60110883Y-96049011D01*
X60246195Y-96049011D01*
X60381507Y-96049011D01*
X60381507Y-95778387D01*
X60381507Y-95507763D01*
X60652131Y-95507763D01*
X60922755Y-95507763D01*
X60922755Y-95372451D01*
X61193379Y-95372451D01*
X61199364Y-95463141D01*
X61233129Y-95500334D01*
X61318392Y-95507746D01*
X61328691Y-95507763D01*
X61419382Y-95501778D01*
X61456574Y-95468013D01*
X61463986Y-95382750D01*
X61464003Y-95372451D01*
X61458018Y-95281760D01*
X61424253Y-95244567D01*
X61338990Y-95237155D01*
X61328691Y-95237139D01*
X61238001Y-95243123D01*
X61200808Y-95276889D01*
X61193396Y-95362151D01*
X61193379Y-95372451D01*
X60922755Y-95372451D01*
X60916770Y-95281760D01*
X60883005Y-95244567D01*
X60797742Y-95237155D01*
X60787443Y-95237139D01*
X60696753Y-95231154D01*
X60659560Y-95197389D01*
X60652148Y-95112126D01*
X60652131Y-95101827D01*
X60646146Y-95011136D01*
X60612381Y-94973943D01*
X60527118Y-94966531D01*
X60516819Y-94966515D01*
X60426129Y-94960530D01*
X60388936Y-94926764D01*
X60381524Y-94841502D01*
X60381507Y-94831203D01*
X60375522Y-94740512D01*
X60341757Y-94703319D01*
X60256494Y-94695907D01*
X60246195Y-94695891D01*
X60155505Y-94701875D01*
X60118312Y-94735641D01*
X60110900Y-94820903D01*
X60110883Y-94831203D01*
X60110883Y-94966515D01*
X59840259Y-94966515D01*
X59569635Y-94966515D01*
X59569635Y-95101827D01*
X59563650Y-95192517D01*
X59529885Y-95229710D01*
X59444622Y-95237122D01*
X59434323Y-95237139D01*
X59343632Y-95231154D01*
X59306440Y-95197389D01*
X59299028Y-95112126D01*
X59299011Y-95101827D01*
X59293026Y-95011136D01*
X59259261Y-94973943D01*
X59173998Y-94966531D01*
X59163699Y-94966515D01*
X59073008Y-94972499D01*
X59035816Y-95006265D01*
X59028404Y-95091527D01*
X59028387Y-95101827D01*
X58757763Y-95101827D01*
X58757763Y-94966515D01*
X58757763Y-94695891D01*
X59028387Y-94695891D01*
X59299011Y-94695891D01*
X59299011Y-94560578D01*
X59569635Y-94560578D01*
X59575620Y-94651269D01*
X59609385Y-94688462D01*
X59694648Y-94695874D01*
X59704947Y-94695891D01*
X59795637Y-94689906D01*
X59832830Y-94656140D01*
X59840242Y-94570878D01*
X59840259Y-94560578D01*
X59834274Y-94469888D01*
X59800509Y-94432695D01*
X59715246Y-94425283D01*
X59704947Y-94425266D01*
X59614256Y-94431251D01*
X59577064Y-94465017D01*
X59569652Y-94550279D01*
X59569635Y-94560578D01*
X59299011Y-94560578D01*
X59299011Y-94425266D01*
X59028387Y-94425266D01*
X58757763Y-94425266D01*
X58757763Y-94289954D01*
X58751778Y-94199264D01*
X58718013Y-94162071D01*
X58632750Y-94154659D01*
X58622451Y-94154642D01*
X58487139Y-94154642D01*
X58487139Y-94019330D01*
X59299011Y-94019330D01*
X59304996Y-94110021D01*
X59338761Y-94147214D01*
X59424024Y-94154626D01*
X59434323Y-94154642D01*
X59525013Y-94148658D01*
X59562206Y-94114892D01*
X59569618Y-94029630D01*
X59569635Y-94019330D01*
X59563650Y-93928640D01*
X59529885Y-93891447D01*
X59444622Y-93884035D01*
X59434323Y-93884018D01*
X59343632Y-93890003D01*
X59306440Y-93923768D01*
X59299028Y-94009031D01*
X59299011Y-94019330D01*
X58487139Y-94019330D01*
X58487139Y-93884018D01*
X58757763Y-93884018D01*
X58893075Y-93884018D01*
X58983765Y-93878034D01*
X59020958Y-93844268D01*
X59028370Y-93759006D01*
X59028387Y-93748706D01*
X59028387Y-93613394D01*
X59434323Y-93613394D01*
X59840259Y-93613394D01*
X59840259Y-93478082D01*
X59846244Y-93387392D01*
X59880009Y-93350199D01*
X59965272Y-93342787D01*
X59975571Y-93342770D01*
X60110883Y-93342770D01*
X60110883Y-93884018D01*
X60110883Y-94425266D01*
X60246195Y-94425266D01*
X60381507Y-94425266D01*
X60381507Y-94154642D01*
X60381507Y-93884018D01*
X60516819Y-93884018D01*
X60607509Y-93890003D01*
X60644702Y-93923768D01*
X60652114Y-94009031D01*
X60652131Y-94019330D01*
X60658116Y-94110021D01*
X60691881Y-94147214D01*
X60777144Y-94154626D01*
X60787443Y-94154642D01*
X60878133Y-94160627D01*
X60915326Y-94194393D01*
X60922738Y-94279655D01*
X60922755Y-94289954D01*
X60928740Y-94380645D01*
X60962505Y-94417838D01*
X61047768Y-94425250D01*
X61058067Y-94425266D01*
X61148757Y-94419282D01*
X61185950Y-94385516D01*
X61193362Y-94300254D01*
X61193379Y-94289954D01*
X61187394Y-94199264D01*
X61153629Y-94162071D01*
X61068366Y-94154659D01*
X61058067Y-94154642D01*
X60967377Y-94148658D01*
X60930184Y-94114892D01*
X60922772Y-94029630D01*
X60922755Y-94019330D01*
X60916770Y-93928640D01*
X60883005Y-93891447D01*
X60797742Y-93884035D01*
X60787443Y-93884018D01*
X60696753Y-93878034D01*
X60659560Y-93844268D01*
X60652148Y-93759006D01*
X60652131Y-93748706D01*
X60646146Y-93658016D01*
X60612381Y-93620823D01*
X60527118Y-93613411D01*
X60516819Y-93613394D01*
X60426129Y-93607410D01*
X60388936Y-93573644D01*
X60381524Y-93488382D01*
X60381507Y-93478082D01*
X60387492Y-93387392D01*
X60421257Y-93350199D01*
X60506520Y-93342787D01*
X60516819Y-93342770D01*
X60652131Y-93342770D01*
X60652131Y-92936834D01*
X60652131Y-92530898D01*
X60516819Y-92530898D01*
X60426129Y-92536883D01*
X60388936Y-92570648D01*
X60381524Y-92655911D01*
X60381507Y-92666210D01*
X60375522Y-92756901D01*
X60341757Y-92794093D01*
X60256494Y-92801505D01*
X60246195Y-92801522D01*
X60155505Y-92795537D01*
X60118312Y-92761772D01*
X60110900Y-92676509D01*
X60110883Y-92666210D01*
X60104898Y-92575520D01*
X60071133Y-92538327D01*
X59985870Y-92530915D01*
X59975571Y-92530898D01*
X59840259Y-92530898D01*
X59840259Y-92801522D01*
X59840259Y-93072146D01*
X59569635Y-93072146D01*
X59299011Y-93072146D01*
X59299011Y-93207458D01*
X59293026Y-93298149D01*
X59259261Y-93335341D01*
X59173998Y-93342753D01*
X59163699Y-93342770D01*
X59073008Y-93336786D01*
X59035816Y-93303020D01*
X59028404Y-93217757D01*
X59028387Y-93207458D01*
X59022402Y-93116768D01*
X58988637Y-93079575D01*
X58903374Y-93072163D01*
X58893075Y-93072146D01*
X58757763Y-93072146D01*
X58757763Y-93478082D01*
X58757763Y-93884018D01*
X58487139Y-93884018D01*
X58487139Y-93613394D01*
X58081203Y-93613394D01*
X57675266Y-93613394D01*
X57675266Y-93478082D01*
X57675266Y-93342770D01*
X57945891Y-93342770D01*
X58216515Y-93342770D01*
X58216515Y-93072146D01*
X58216515Y-92801522D01*
X58081203Y-92801522D01*
X57990512Y-92795537D01*
X57953319Y-92761772D01*
X57945907Y-92676509D01*
X57945891Y-92666210D01*
X57951875Y-92575520D01*
X57985641Y-92538327D01*
X58070903Y-92530915D01*
X58081203Y-92530898D01*
X58171893Y-92524913D01*
X58209086Y-92491148D01*
X58216498Y-92405885D01*
X58216515Y-92395586D01*
X58210530Y-92304896D01*
X58176764Y-92267703D01*
X58091502Y-92260291D01*
X58081203Y-92260274D01*
X57990512Y-92266259D01*
X57953319Y-92300024D01*
X57945907Y-92385287D01*
X57945891Y-92395586D01*
X57939906Y-92486277D01*
X57906140Y-92523469D01*
X57820878Y-92530881D01*
X57810578Y-92530898D01*
X57719888Y-92524913D01*
X57682695Y-92491148D01*
X57675283Y-92405885D01*
X57675266Y-92395586D01*
X57669282Y-92304896D01*
X57635516Y-92267703D01*
X57550254Y-92260291D01*
X57539954Y-92260274D01*
X57449264Y-92266259D01*
X57412071Y-92300024D01*
X57404659Y-92385287D01*
X57404642Y-92395586D01*
X57410627Y-92486277D01*
X57444393Y-92523469D01*
X57529655Y-92530881D01*
X57539954Y-92530898D01*
X57630645Y-92536883D01*
X57667838Y-92570648D01*
X57675250Y-92655911D01*
X57675266Y-92666210D01*
X57669282Y-92756901D01*
X57635516Y-92794093D01*
X57550254Y-92801505D01*
X57539954Y-92801522D01*
X57449264Y-92807507D01*
X57412071Y-92841272D01*
X57404659Y-92926535D01*
X57404642Y-92936834D01*
X57398658Y-93027525D01*
X57364892Y-93064717D01*
X57279630Y-93072129D01*
X57269330Y-93072146D01*
X57178640Y-93066161D01*
X57141447Y-93032396D01*
X57134035Y-92947133D01*
X57134018Y-92936834D01*
X57128034Y-92846144D01*
X57094268Y-92808951D01*
X57009006Y-92801539D01*
X56998706Y-92801522D01*
X56863394Y-92801522D01*
X56863394Y-93207458D01*
X56863394Y-93613394D01*
X56998706Y-93613394D01*
X57089397Y-93619379D01*
X57126590Y-93653144D01*
X57134002Y-93738407D01*
X57134018Y-93748706D01*
X57128034Y-93839397D01*
X57094268Y-93876590D01*
X57009006Y-93884002D01*
X56998706Y-93884018D01*
X56908016Y-93890003D01*
X56870823Y-93923768D01*
X56863411Y-94009031D01*
X56863394Y-94019330D01*
X56857410Y-94110021D01*
X56823644Y-94147214D01*
X56738382Y-94154626D01*
X56728082Y-94154642D01*
X56592770Y-94154642D01*
X56592770Y-94425266D01*
X56592770Y-94695891D01*
X56728082Y-94695891D01*
X56818773Y-94701875D01*
X56855966Y-94735641D01*
X56863378Y-94820903D01*
X56863394Y-94831203D01*
X56857410Y-94921893D01*
X56823644Y-94959086D01*
X56738382Y-94966498D01*
X56728082Y-94966515D01*
X56592770Y-94966515D01*
X56592770Y-95507763D01*
X56592770Y-96049011D01*
X56728082Y-96049011D01*
X56818773Y-96054996D01*
X56855966Y-96088761D01*
X56863378Y-96174024D01*
X56863394Y-96184323D01*
X56863394Y-96319635D01*
X57134018Y-96319635D01*
X57404642Y-96319635D01*
X57404642Y-96454947D01*
X57404642Y-96590259D01*
X56998706Y-96590259D01*
X56592770Y-96590259D01*
X56592770Y-96725571D01*
X56586786Y-96816261D01*
X56553020Y-96853454D01*
X56467757Y-96860866D01*
X56457458Y-96860883D01*
X56366768Y-96854898D01*
X56329575Y-96821133D01*
X56322163Y-96735870D01*
X56322146Y-96725571D01*
X56316161Y-96634880D01*
X56282396Y-96597688D01*
X56197133Y-96590276D01*
X56186834Y-96590259D01*
X56096144Y-96596244D01*
X56058951Y-96630009D01*
X56051539Y-96715272D01*
X56051522Y-96725571D01*
X55510274Y-96725571D01*
X55504289Y-96634880D01*
X55470524Y-96597688D01*
X55385261Y-96590276D01*
X55374962Y-96590259D01*
X55284272Y-96596244D01*
X55247079Y-96630009D01*
X55239667Y-96715272D01*
X55239650Y-96725571D01*
X54969026Y-96725571D01*
X54969026Y-96319635D01*
X54698402Y-96319635D01*
X54427778Y-96319635D01*
X54427778Y-96184323D01*
X54427778Y-96049011D01*
X54157154Y-96049011D01*
X53886530Y-96049011D01*
X53886530Y-96184323D01*
X53880545Y-96275013D01*
X53846780Y-96312206D01*
X53761517Y-96319618D01*
X53751218Y-96319635D01*
X53660527Y-96313650D01*
X53623335Y-96279885D01*
X53615923Y-96194622D01*
X53615906Y-96184323D01*
X53621890Y-96093632D01*
X53655656Y-96056440D01*
X53740919Y-96049028D01*
X53751218Y-96049011D01*
X53841908Y-96043026D01*
X53879101Y-96009261D01*
X53886513Y-95923998D01*
X53886530Y-95913699D01*
X54427778Y-95913699D01*
X54433763Y-96004389D01*
X54467528Y-96041582D01*
X54552791Y-96048994D01*
X54563090Y-96049011D01*
X54653780Y-96043026D01*
X54690973Y-96009261D01*
X54698385Y-95923998D01*
X54698402Y-95913699D01*
X54692417Y-95823008D01*
X54658652Y-95785816D01*
X54573389Y-95778404D01*
X54563090Y-95778387D01*
X54472400Y-95784371D01*
X54435207Y-95818137D01*
X54427795Y-95903400D01*
X54427778Y-95913699D01*
X53886530Y-95913699D01*
X53886530Y-95778387D01*
X54157154Y-95778387D01*
X54427778Y-95778387D01*
X54427778Y-95643075D01*
X54427778Y-95507763D01*
X54157154Y-95507763D01*
X53886530Y-95507763D01*
X53886530Y-95372451D01*
X53880545Y-95281760D01*
X53846780Y-95244567D01*
X53761517Y-95237155D01*
X53751218Y-95237139D01*
X53660527Y-95243123D01*
X53623335Y-95276889D01*
X53615923Y-95362151D01*
X53615906Y-95372451D01*
X53615906Y-95507763D01*
X53209970Y-95507763D01*
X52804034Y-95507763D01*
X52804034Y-95372451D01*
X52810018Y-95281760D01*
X52843784Y-95244567D01*
X52929046Y-95237155D01*
X52939346Y-95237139D01*
X53074658Y-95237139D01*
X53074658Y-94966515D01*
X53074658Y-94695891D01*
X53209970Y-94695891D01*
X53300660Y-94701875D01*
X53337853Y-94735641D01*
X53345265Y-94820903D01*
X53345282Y-94831203D01*
X53345282Y-94966515D01*
X53615906Y-94966515D01*
X53886530Y-94966515D01*
X54157154Y-94966515D01*
X54427778Y-94966515D01*
X54698402Y-94966515D01*
X54698402Y-95101827D01*
X54692417Y-95192517D01*
X54658652Y-95229710D01*
X54573389Y-95237122D01*
X54563090Y-95237139D01*
X54472400Y-95243123D01*
X54435207Y-95276889D01*
X54427795Y-95362151D01*
X54427778Y-95372451D01*
X54427778Y-95507763D01*
X54698402Y-95507763D01*
X54969026Y-95507763D01*
X54969026Y-95372451D01*
X54975011Y-95281760D01*
X55008776Y-95244567D01*
X55094039Y-95237155D01*
X55104338Y-95237139D01*
X55195028Y-95243123D01*
X55232221Y-95276889D01*
X55239633Y-95362151D01*
X55239650Y-95372451D01*
X55245635Y-95463141D01*
X55279400Y-95500334D01*
X55364663Y-95507746D01*
X55374962Y-95507763D01*
X55465652Y-95513747D01*
X55502845Y-95547513D01*
X55510257Y-95632775D01*
X55510274Y-95643075D01*
X55510274Y-95778387D01*
X55239650Y-95778387D01*
X54969026Y-95778387D01*
X54969026Y-95913699D01*
X54969026Y-96049011D01*
X55239650Y-96049011D01*
X55510274Y-96049011D01*
X55510274Y-96184323D01*
X55510274Y-96319635D01*
X55780898Y-96319635D01*
X56051522Y-96319635D01*
X56051522Y-96184323D01*
X56045537Y-96093632D01*
X56011772Y-96056440D01*
X55926509Y-96049028D01*
X55916210Y-96049011D01*
X55825520Y-96043026D01*
X55788327Y-96009261D01*
X55780915Y-95923998D01*
X55780898Y-95913699D01*
X55780898Y-95778387D01*
X56051522Y-95778387D01*
X56322146Y-95778387D01*
X56322146Y-95643075D01*
X56316161Y-95552384D01*
X56282396Y-95515191D01*
X56197133Y-95507779D01*
X56186834Y-95507763D01*
X56096144Y-95501778D01*
X56058951Y-95468013D01*
X56051539Y-95382750D01*
X56051522Y-95372451D01*
X56057507Y-95281760D01*
X56091272Y-95244567D01*
X56176535Y-95237155D01*
X56186834Y-95237139D01*
X56322146Y-95237139D01*
X56322146Y-94966515D01*
X56322146Y-94695891D01*
X56186834Y-94695891D01*
X56096144Y-94689906D01*
X56058951Y-94656140D01*
X56051539Y-94570878D01*
X56051522Y-94560578D01*
X56045537Y-94469888D01*
X56011772Y-94432695D01*
X55926509Y-94425283D01*
X55916210Y-94425266D01*
X55825520Y-94431251D01*
X55788327Y-94465017D01*
X55780915Y-94550279D01*
X55780898Y-94560578D01*
X55774913Y-94651269D01*
X55741148Y-94688462D01*
X55655885Y-94695874D01*
X55645586Y-94695891D01*
X55554896Y-94689906D01*
X55517703Y-94656140D01*
X55510291Y-94570878D01*
X55510274Y-94560578D01*
X55504289Y-94469888D01*
X55470524Y-94432695D01*
X55385261Y-94425283D01*
X55374962Y-94425266D01*
X55239650Y-94425266D01*
X55239650Y-94695891D01*
X55239650Y-94966515D01*
X55104338Y-94966515D01*
X55013648Y-94960530D01*
X54976455Y-94926764D01*
X54969043Y-94841502D01*
X54969026Y-94831203D01*
X54969026Y-94695891D01*
X54563090Y-94695891D01*
X54157154Y-94695891D01*
X54157154Y-94831203D01*
X54157154Y-94966515D01*
X53886530Y-94966515D01*
X53886530Y-94695891D01*
X53886530Y-94425266D01*
X53480594Y-94425266D01*
X53074658Y-94425266D01*
X53074658Y-94289954D01*
X54427778Y-94289954D01*
X54433763Y-94380645D01*
X54467528Y-94417838D01*
X54552791Y-94425250D01*
X54563090Y-94425266D01*
X54653780Y-94419282D01*
X54690973Y-94385516D01*
X54698385Y-94300254D01*
X54698402Y-94289954D01*
X54692417Y-94199264D01*
X54658652Y-94162071D01*
X54573389Y-94154659D01*
X54563090Y-94154642D01*
X54472400Y-94160627D01*
X54435207Y-94194393D01*
X54427795Y-94279655D01*
X54427778Y-94289954D01*
X53074658Y-94289954D01*
X53068673Y-94199264D01*
X53034908Y-94162071D01*
X52949645Y-94154659D01*
X52939346Y-94154642D01*
X52848655Y-94148658D01*
X52811462Y-94114892D01*
X52804050Y-94029630D01*
X52804034Y-94019330D01*
X52810018Y-93928640D01*
X52843784Y-93891447D01*
X52929046Y-93884035D01*
X52939346Y-93884018D01*
X53030036Y-93878034D01*
X53067229Y-93844268D01*
X53074641Y-93759006D01*
X53074658Y-93748706D01*
X53068673Y-93658016D01*
X53034908Y-93620823D01*
X52949645Y-93613411D01*
X52939346Y-93613394D01*
X52804034Y-93613394D01*
X52804034Y-93072146D01*
X52804034Y-92530898D01*
X52939346Y-92530898D01*
X53030036Y-92524913D01*
X53067229Y-92491148D01*
X53074641Y-92405885D01*
X53074658Y-92395586D01*
X53068673Y-92304896D01*
X53034908Y-92267703D01*
X52949645Y-92260291D01*
X52939346Y-92260274D01*
X52804034Y-92260274D01*
X52804034Y-91989650D01*
X52804034Y-91719026D01*
X52939346Y-91719026D01*
X53074658Y-91719026D01*
X53074658Y-91989650D01*
X53074658Y-92260274D01*
X53209970Y-92260274D01*
X53345282Y-92260274D01*
X53345282Y-91989650D01*
X53345282Y-91719026D01*
X53615906Y-91719026D01*
X53886530Y-91719026D01*
X53886530Y-92395586D01*
X53886530Y-93072146D01*
X53751218Y-93072146D01*
X53615906Y-93072146D01*
X53615906Y-92666210D01*
X53615906Y-92260274D01*
X53480594Y-92260274D01*
X53345282Y-92260274D01*
X53345282Y-92801522D01*
X53345282Y-93342770D01*
X53209970Y-93342770D01*
X53119279Y-93348755D01*
X53082086Y-93382520D01*
X53074674Y-93467783D01*
X53074658Y-93478082D01*
X53080642Y-93568773D01*
X53114408Y-93605966D01*
X53199670Y-93613378D01*
X53209970Y-93613394D01*
X53300660Y-93619379D01*
X53337853Y-93653144D01*
X53345265Y-93738407D01*
X53345282Y-93748706D01*
X53339297Y-93839397D01*
X53305532Y-93876590D01*
X53220269Y-93884002D01*
X53209970Y-93884018D01*
X53119279Y-93890003D01*
X53082086Y-93923768D01*
X53074674Y-94009031D01*
X53074658Y-94019330D01*
X53074658Y-94154642D01*
X53345282Y-94154642D01*
X53615906Y-94154642D01*
X53615906Y-94019330D01*
X53621890Y-93928640D01*
X53655656Y-93891447D01*
X53740919Y-93884035D01*
X53751218Y-93884018D01*
X53886530Y-93884018D01*
X53886530Y-93613394D01*
X53886530Y-93342770D01*
X54021842Y-93342770D01*
X54157154Y-93342770D01*
X54157154Y-93748706D01*
X54157154Y-94154642D01*
X54292466Y-94154642D01*
X54383156Y-94148658D01*
X54420349Y-94114892D01*
X54427761Y-94029630D01*
X54427778Y-94019330D01*
X54427778Y-93884018D01*
X54698402Y-93884018D01*
X54969026Y-93884018D01*
X54969026Y-94154642D01*
X54969026Y-94425266D01*
X55104338Y-94425266D01*
X55239650Y-94425266D01*
X55239650Y-94154642D01*
X55239650Y-93884018D01*
X55374962Y-93884018D01*
X55510274Y-93884018D01*
X55510274Y-94154642D01*
X55510274Y-94425266D01*
X55645586Y-94425266D01*
X55780898Y-94425266D01*
X55780898Y-94154642D01*
X55780898Y-93884018D01*
X55916210Y-93884018D01*
X56051522Y-93884018D01*
X56051522Y-94154642D01*
X56051522Y-94425266D01*
X56186834Y-94425266D01*
X56277525Y-94419282D01*
X56314717Y-94385516D01*
X56322129Y-94300254D01*
X56322146Y-94289954D01*
X56328131Y-94199264D01*
X56361896Y-94162071D01*
X56447159Y-94154659D01*
X56457458Y-94154642D01*
X56548149Y-94148658D01*
X56585341Y-94114892D01*
X56592753Y-94029630D01*
X56592770Y-94019330D01*
X56586786Y-93928640D01*
X56553020Y-93891447D01*
X56467757Y-93884035D01*
X56457458Y-93884018D01*
X56366768Y-93878034D01*
X56329575Y-93844268D01*
X56322163Y-93759006D01*
X56322146Y-93748706D01*
X56322146Y-93613394D01*
X56051522Y-93613394D01*
X55780898Y-93613394D01*
X55780898Y-93478082D01*
X56322146Y-93478082D01*
X56328131Y-93568773D01*
X56361896Y-93605966D01*
X56447159Y-93613378D01*
X56457458Y-93613394D01*
X56548149Y-93607410D01*
X56585341Y-93573644D01*
X56592753Y-93488382D01*
X56592770Y-93478082D01*
X56586786Y-93387392D01*
X56553020Y-93350199D01*
X56467757Y-93342787D01*
X56457458Y-93342770D01*
X56366768Y-93348755D01*
X56329575Y-93382520D01*
X56322163Y-93467783D01*
X56322146Y-93478082D01*
X55780898Y-93478082D01*
X55780898Y-93342770D01*
X55780898Y-93072146D01*
X55916210Y-93072146D01*
X56006901Y-93078131D01*
X56044093Y-93111896D01*
X56051505Y-93197159D01*
X56051522Y-93207458D01*
X56057507Y-93298149D01*
X56091272Y-93335341D01*
X56176535Y-93342753D01*
X56186834Y-93342770D01*
X56277525Y-93336786D01*
X56314717Y-93303020D01*
X56322129Y-93217757D01*
X56322146Y-93207458D01*
X56328131Y-93116768D01*
X56361896Y-93079575D01*
X56447159Y-93072163D01*
X56457458Y-93072146D01*
X56548149Y-93066161D01*
X56585341Y-93032396D01*
X56592753Y-92947133D01*
X56592770Y-92936834D01*
X56598755Y-92846144D01*
X56632520Y-92808951D01*
X56717783Y-92801539D01*
X56728082Y-92801522D01*
X56818773Y-92795537D01*
X56855966Y-92761772D01*
X56863378Y-92676509D01*
X56863394Y-92666210D01*
X56869379Y-92575520D01*
X56903144Y-92538327D01*
X56988407Y-92530915D01*
X56998706Y-92530898D01*
X57089397Y-92524913D01*
X57126590Y-92491148D01*
X57134002Y-92405885D01*
X57134018Y-92395586D01*
X57140003Y-92304896D01*
X57173768Y-92267703D01*
X57259031Y-92260291D01*
X57269330Y-92260274D01*
X57360021Y-92254289D01*
X57397214Y-92220524D01*
X57404626Y-92135261D01*
X57404642Y-92124962D01*
X57404642Y-91989650D01*
X56998706Y-91989650D01*
X56592770Y-91989650D01*
X56592770Y-92260274D01*
X56592770Y-92530898D01*
X56322146Y-92530898D01*
X56051522Y-92530898D01*
X56051522Y-92124962D01*
X56051522Y-91719026D01*
X56186834Y-91719026D01*
X56277525Y-91725011D01*
X56314717Y-91758776D01*
X56322129Y-91844039D01*
X56322146Y-91854338D01*
X56328131Y-91945028D01*
X56361896Y-91982221D01*
X56447159Y-91989633D01*
X56457458Y-91989650D01*
X56592770Y-91989650D01*
X56592770Y-91583714D01*
X57675266Y-91583714D01*
X57681251Y-91674404D01*
X57715017Y-91711597D01*
X57800279Y-91719009D01*
X57810578Y-91719026D01*
X57901269Y-91725011D01*
X57938462Y-91758776D01*
X57945874Y-91844039D01*
X57945891Y-91854338D01*
X57945891Y-91989650D01*
X58216515Y-91989650D01*
X58487139Y-91989650D01*
X58487139Y-92124962D01*
X58487139Y-92260274D01*
X58757763Y-92260274D01*
X59028387Y-92260274D01*
X59028387Y-92124962D01*
X59028387Y-91989650D01*
X58757763Y-91989650D01*
X58487139Y-91989650D01*
X58487139Y-91854338D01*
X58487139Y-91719026D01*
X58893075Y-91719026D01*
X59299011Y-91719026D01*
X59299011Y-91448402D01*
X59299011Y-91177778D01*
X59163699Y-91177778D01*
X59073008Y-91183763D01*
X59035816Y-91217528D01*
X59028404Y-91302791D01*
X59028387Y-91313090D01*
X59022402Y-91403780D01*
X58988637Y-91440973D01*
X58903374Y-91448385D01*
X58893075Y-91448402D01*
X58802384Y-91442417D01*
X58765191Y-91408652D01*
X58757779Y-91323389D01*
X58757763Y-91313090D01*
X58751778Y-91222400D01*
X58718013Y-91185207D01*
X58632750Y-91177795D01*
X58622451Y-91177778D01*
X58531760Y-91171793D01*
X58494567Y-91138028D01*
X58487155Y-91052765D01*
X58487139Y-91042466D01*
X58493123Y-90951775D01*
X58526889Y-90914583D01*
X58612151Y-90907171D01*
X58622451Y-90907154D01*
X58713141Y-90901169D01*
X58750334Y-90867404D01*
X58757746Y-90782141D01*
X58757763Y-90771842D01*
X58751778Y-90681151D01*
X58718013Y-90643959D01*
X58632750Y-90636547D01*
X58622451Y-90636530D01*
X58531760Y-90630545D01*
X58494567Y-90596780D01*
X58487155Y-90511517D01*
X58487139Y-90501218D01*
X58487139Y-90365906D01*
X58216515Y-90365906D01*
X57945891Y-90365906D01*
X57945891Y-90907154D01*
X57945891Y-91448402D01*
X57810578Y-91448402D01*
X57719888Y-91454387D01*
X57682695Y-91488152D01*
X57675283Y-91573415D01*
X57675266Y-91583714D01*
X56592770Y-91583714D01*
X56592770Y-91448402D01*
X56592770Y-91313090D01*
X56863394Y-91313090D01*
X56869379Y-91403780D01*
X56903144Y-91440973D01*
X56988407Y-91448385D01*
X56998706Y-91448402D01*
X57089397Y-91442417D01*
X57126590Y-91408652D01*
X57134002Y-91323389D01*
X57134018Y-91313090D01*
X57128034Y-91222400D01*
X57094268Y-91185207D01*
X57009006Y-91177795D01*
X56998706Y-91177778D01*
X56908016Y-91183763D01*
X56870823Y-91217528D01*
X56863411Y-91302791D01*
X56863394Y-91313090D01*
X56592770Y-91313090D01*
X56592770Y-90907154D01*
X56863394Y-90907154D01*
X57134018Y-90907154D01*
X57134018Y-90771842D01*
X57140003Y-90681151D01*
X57173768Y-90643959D01*
X57259031Y-90636547D01*
X57269330Y-90636530D01*
X57404642Y-90636530D01*
X57404642Y-91042466D01*
X57404642Y-91448402D01*
X57539954Y-91448402D01*
X57675266Y-91448402D01*
X57675266Y-90771842D01*
X57675266Y-90095282D01*
X58081203Y-90095282D01*
X58487139Y-90095282D01*
X58487139Y-90230594D01*
X58493123Y-90321284D01*
X58526889Y-90358477D01*
X58612151Y-90365889D01*
X58622451Y-90365906D01*
X58713141Y-90371890D01*
X58750334Y-90405656D01*
X58757746Y-90490919D01*
X58757763Y-90501218D01*
X58757763Y-90636530D01*
X59028387Y-90636530D01*
X59299011Y-90636530D01*
X59299011Y-90365906D01*
X59299011Y-90095282D01*
X59163699Y-90095282D01*
X59028387Y-90095282D01*
X59028387Y-89824658D01*
X59028387Y-89554034D01*
X59163699Y-89554034D01*
X59254389Y-89560018D01*
G37*
D14*
%TO.C,RV1*%
X148530000Y-107950000D02*
X148530000Y-102810000D01*
X151190000Y-102810000D02*
X148530000Y-102810000D01*
X151190000Y-107950000D02*
X148530000Y-107950000D01*
X151190000Y-107950000D02*
X151190000Y-102810000D01*
X151190000Y-109220000D02*
X151190000Y-110550000D01*
X151190000Y-110550000D02*
X149860000Y-110550000D01*
%TO.C,SW1*%
X99140000Y-58390000D02*
X99140000Y-60900000D01*
X99140000Y-58390000D02*
X111360000Y-58390000D01*
X99140000Y-63200000D02*
X99140000Y-65800000D01*
X99140000Y-68100000D02*
X99140000Y-70610000D01*
X111360000Y-58390000D02*
X111360000Y-60900000D01*
X111360000Y-63200000D02*
X111360000Y-65800000D01*
X111360000Y-68100000D02*
X111360000Y-70610000D01*
X111360000Y-70610000D02*
X99140000Y-70610000D01*
X108800000Y-64500000D02*
G75*
G02*
X101700000Y-64500000I-3550000J0D01*
G01*
X101700000Y-64500000D02*
G75*
G02*
X108800000Y-64500000I3550000J0D01*
G01*
%TO.C,SW3*%
X133140000Y-58390000D02*
X133140000Y-60900000D01*
X133140000Y-58390000D02*
X145360000Y-58390000D01*
X133140000Y-63200000D02*
X133140000Y-65800000D01*
X133140000Y-68100000D02*
X133140000Y-70610000D01*
X145360000Y-58390000D02*
X145360000Y-60900000D01*
X145360000Y-63200000D02*
X145360000Y-65800000D01*
X145360000Y-68100000D02*
X145360000Y-70610000D01*
X145360000Y-70610000D02*
X133140000Y-70610000D01*
X142800000Y-64500000D02*
G75*
G02*
X135700000Y-64500000I-3550000J0D01*
G01*
X135700000Y-64500000D02*
G75*
G02*
X142800000Y-64500000I3550000J0D01*
G01*
%TO.C,SW2*%
X65140000Y-58390000D02*
X65140000Y-60900000D01*
X65140000Y-58390000D02*
X77360000Y-58390000D01*
X65140000Y-63200000D02*
X65140000Y-65800000D01*
X65140000Y-68100000D02*
X65140000Y-70610000D01*
X77360000Y-58390000D02*
X77360000Y-60900000D01*
X77360000Y-63200000D02*
X77360000Y-65800000D01*
X77360000Y-68100000D02*
X77360000Y-70610000D01*
X77360000Y-70610000D02*
X65140000Y-70610000D01*
X74800000Y-64500000D02*
G75*
G02*
X67700000Y-64500000I-3550000J0D01*
G01*
X67700000Y-64500000D02*
G75*
G02*
X74800000Y-64500000I3550000J0D01*
G01*
%TO.C,HDR1*%
X98570000Y-116670000D02*
X98570000Y-119330000D01*
X136730000Y-116670000D02*
X98570000Y-116670000D01*
X136730000Y-116670000D02*
X136730000Y-119330000D01*
X136730000Y-119330000D02*
X98570000Y-119330000D01*
X138000000Y-116670000D02*
X139330000Y-116670000D01*
X139330000Y-116670000D02*
X139330000Y-118000000D01*
%TD*%
M02*
