%TF.GenerationSoftware,KiCad,Pcbnew,8.0.1*%
%TF.CreationDate,2024-08-04T22:51:27+02:00*%
%TF.ProjectId,FT_MainBoard,46545f4d-6169-46e4-926f-6172642e6b69,rev?*%
%TF.SameCoordinates,Original*%
%TF.FileFunction,Soldermask,Bot*%
%TF.FilePolarity,Negative*%
%FSLAX46Y46*%
G04 Gerber Fmt 4.6, Leading zero omitted, Abs format (unit mm)*
G04 Created by KiCad (PCBNEW 8.0.1) date 2024-08-04 22:51:27*
%MOMM*%
%LPD*%
G01*
G04 APERTURE LIST*
G04 APERTURE END LIST*
G36*
X138850000Y-118850000D02*
G01*
X137150000Y-118850000D01*
X137150000Y-117150000D01*
X138850000Y-117150000D01*
X138850000Y-118850000D01*
G37*
G36*
X100162664Y-117191602D02*
G01*
X100325000Y-117263878D01*
X100468761Y-117368327D01*
X100587664Y-117500383D01*
X100676514Y-117654274D01*
X100731425Y-117823275D01*
X100750000Y-118000000D01*
X100731425Y-118176725D01*
X100676514Y-118345726D01*
X100587664Y-118499617D01*
X100468761Y-118631673D01*
X100325000Y-118736122D01*
X100162664Y-118808398D01*
X99988849Y-118845344D01*
X99811151Y-118845344D01*
X99637336Y-118808398D01*
X99475000Y-118736122D01*
X99331239Y-118631673D01*
X99212336Y-118499617D01*
X99123486Y-118345726D01*
X99068575Y-118176725D01*
X99050000Y-118000000D01*
X99068575Y-117823275D01*
X99123486Y-117654274D01*
X99212336Y-117500383D01*
X99331239Y-117368327D01*
X99475000Y-117263878D01*
X99637336Y-117191602D01*
X99811151Y-117154656D01*
X99988849Y-117154656D01*
X100162664Y-117191602D01*
G37*
G36*
X102702664Y-117191602D02*
G01*
X102865000Y-117263878D01*
X103008761Y-117368327D01*
X103127664Y-117500383D01*
X103216514Y-117654274D01*
X103271425Y-117823275D01*
X103290000Y-118000000D01*
X103271425Y-118176725D01*
X103216514Y-118345726D01*
X103127664Y-118499617D01*
X103008761Y-118631673D01*
X102865000Y-118736122D01*
X102702664Y-118808398D01*
X102528849Y-118845344D01*
X102351151Y-118845344D01*
X102177336Y-118808398D01*
X102015000Y-118736122D01*
X101871239Y-118631673D01*
X101752336Y-118499617D01*
X101663486Y-118345726D01*
X101608575Y-118176725D01*
X101590000Y-118000000D01*
X101608575Y-117823275D01*
X101663486Y-117654274D01*
X101752336Y-117500383D01*
X101871239Y-117368327D01*
X102015000Y-117263878D01*
X102177336Y-117191602D01*
X102351151Y-117154656D01*
X102528849Y-117154656D01*
X102702664Y-117191602D01*
G37*
G36*
X105242664Y-117191602D02*
G01*
X105405000Y-117263878D01*
X105548761Y-117368327D01*
X105667664Y-117500383D01*
X105756514Y-117654274D01*
X105811425Y-117823275D01*
X105830000Y-118000000D01*
X105811425Y-118176725D01*
X105756514Y-118345726D01*
X105667664Y-118499617D01*
X105548761Y-118631673D01*
X105405000Y-118736122D01*
X105242664Y-118808398D01*
X105068849Y-118845344D01*
X104891151Y-118845344D01*
X104717336Y-118808398D01*
X104555000Y-118736122D01*
X104411239Y-118631673D01*
X104292336Y-118499617D01*
X104203486Y-118345726D01*
X104148575Y-118176725D01*
X104130000Y-118000000D01*
X104148575Y-117823275D01*
X104203486Y-117654274D01*
X104292336Y-117500383D01*
X104411239Y-117368327D01*
X104555000Y-117263878D01*
X104717336Y-117191602D01*
X104891151Y-117154656D01*
X105068849Y-117154656D01*
X105242664Y-117191602D01*
G37*
G36*
X107782664Y-117191602D02*
G01*
X107945000Y-117263878D01*
X108088761Y-117368327D01*
X108207664Y-117500383D01*
X108296514Y-117654274D01*
X108351425Y-117823275D01*
X108370000Y-118000000D01*
X108351425Y-118176725D01*
X108296514Y-118345726D01*
X108207664Y-118499617D01*
X108088761Y-118631673D01*
X107945000Y-118736122D01*
X107782664Y-118808398D01*
X107608849Y-118845344D01*
X107431151Y-118845344D01*
X107257336Y-118808398D01*
X107095000Y-118736122D01*
X106951239Y-118631673D01*
X106832336Y-118499617D01*
X106743486Y-118345726D01*
X106688575Y-118176725D01*
X106670000Y-118000000D01*
X106688575Y-117823275D01*
X106743486Y-117654274D01*
X106832336Y-117500383D01*
X106951239Y-117368327D01*
X107095000Y-117263878D01*
X107257336Y-117191602D01*
X107431151Y-117154656D01*
X107608849Y-117154656D01*
X107782664Y-117191602D01*
G37*
G36*
X110322664Y-117191602D02*
G01*
X110485000Y-117263878D01*
X110628761Y-117368327D01*
X110747664Y-117500383D01*
X110836514Y-117654274D01*
X110891425Y-117823275D01*
X110910000Y-118000000D01*
X110891425Y-118176725D01*
X110836514Y-118345726D01*
X110747664Y-118499617D01*
X110628761Y-118631673D01*
X110485000Y-118736122D01*
X110322664Y-118808398D01*
X110148849Y-118845344D01*
X109971151Y-118845344D01*
X109797336Y-118808398D01*
X109635000Y-118736122D01*
X109491239Y-118631673D01*
X109372336Y-118499617D01*
X109283486Y-118345726D01*
X109228575Y-118176725D01*
X109210000Y-118000000D01*
X109228575Y-117823275D01*
X109283486Y-117654274D01*
X109372336Y-117500383D01*
X109491239Y-117368327D01*
X109635000Y-117263878D01*
X109797336Y-117191602D01*
X109971151Y-117154656D01*
X110148849Y-117154656D01*
X110322664Y-117191602D01*
G37*
G36*
X112862664Y-117191602D02*
G01*
X113025000Y-117263878D01*
X113168761Y-117368327D01*
X113287664Y-117500383D01*
X113376514Y-117654274D01*
X113431425Y-117823275D01*
X113450000Y-118000000D01*
X113431425Y-118176725D01*
X113376514Y-118345726D01*
X113287664Y-118499617D01*
X113168761Y-118631673D01*
X113025000Y-118736122D01*
X112862664Y-118808398D01*
X112688849Y-118845344D01*
X112511151Y-118845344D01*
X112337336Y-118808398D01*
X112175000Y-118736122D01*
X112031239Y-118631673D01*
X111912336Y-118499617D01*
X111823486Y-118345726D01*
X111768575Y-118176725D01*
X111750000Y-118000000D01*
X111768575Y-117823275D01*
X111823486Y-117654274D01*
X111912336Y-117500383D01*
X112031239Y-117368327D01*
X112175000Y-117263878D01*
X112337336Y-117191602D01*
X112511151Y-117154656D01*
X112688849Y-117154656D01*
X112862664Y-117191602D01*
G37*
G36*
X115402664Y-117191602D02*
G01*
X115565000Y-117263878D01*
X115708761Y-117368327D01*
X115827664Y-117500383D01*
X115916514Y-117654274D01*
X115971425Y-117823275D01*
X115990000Y-118000000D01*
X115971425Y-118176725D01*
X115916514Y-118345726D01*
X115827664Y-118499617D01*
X115708761Y-118631673D01*
X115565000Y-118736122D01*
X115402664Y-118808398D01*
X115228849Y-118845344D01*
X115051151Y-118845344D01*
X114877336Y-118808398D01*
X114715000Y-118736122D01*
X114571239Y-118631673D01*
X114452336Y-118499617D01*
X114363486Y-118345726D01*
X114308575Y-118176725D01*
X114290000Y-118000000D01*
X114308575Y-117823275D01*
X114363486Y-117654274D01*
X114452336Y-117500383D01*
X114571239Y-117368327D01*
X114715000Y-117263878D01*
X114877336Y-117191602D01*
X115051151Y-117154656D01*
X115228849Y-117154656D01*
X115402664Y-117191602D01*
G37*
G36*
X117942664Y-117191602D02*
G01*
X118105000Y-117263878D01*
X118248761Y-117368327D01*
X118367664Y-117500383D01*
X118456514Y-117654274D01*
X118511425Y-117823275D01*
X118530000Y-118000000D01*
X118511425Y-118176725D01*
X118456514Y-118345726D01*
X118367664Y-118499617D01*
X118248761Y-118631673D01*
X118105000Y-118736122D01*
X117942664Y-118808398D01*
X117768849Y-118845344D01*
X117591151Y-118845344D01*
X117417336Y-118808398D01*
X117255000Y-118736122D01*
X117111239Y-118631673D01*
X116992336Y-118499617D01*
X116903486Y-118345726D01*
X116848575Y-118176725D01*
X116830000Y-118000000D01*
X116848575Y-117823275D01*
X116903486Y-117654274D01*
X116992336Y-117500383D01*
X117111239Y-117368327D01*
X117255000Y-117263878D01*
X117417336Y-117191602D01*
X117591151Y-117154656D01*
X117768849Y-117154656D01*
X117942664Y-117191602D01*
G37*
G36*
X120482664Y-117191602D02*
G01*
X120645000Y-117263878D01*
X120788761Y-117368327D01*
X120907664Y-117500383D01*
X120996514Y-117654274D01*
X121051425Y-117823275D01*
X121070000Y-118000000D01*
X121051425Y-118176725D01*
X120996514Y-118345726D01*
X120907664Y-118499617D01*
X120788761Y-118631673D01*
X120645000Y-118736122D01*
X120482664Y-118808398D01*
X120308849Y-118845344D01*
X120131151Y-118845344D01*
X119957336Y-118808398D01*
X119795000Y-118736122D01*
X119651239Y-118631673D01*
X119532336Y-118499617D01*
X119443486Y-118345726D01*
X119388575Y-118176725D01*
X119370000Y-118000000D01*
X119388575Y-117823275D01*
X119443486Y-117654274D01*
X119532336Y-117500383D01*
X119651239Y-117368327D01*
X119795000Y-117263878D01*
X119957336Y-117191602D01*
X120131151Y-117154656D01*
X120308849Y-117154656D01*
X120482664Y-117191602D01*
G37*
G36*
X123022664Y-117191602D02*
G01*
X123185000Y-117263878D01*
X123328761Y-117368327D01*
X123447664Y-117500383D01*
X123536514Y-117654274D01*
X123591425Y-117823275D01*
X123610000Y-118000000D01*
X123591425Y-118176725D01*
X123536514Y-118345726D01*
X123447664Y-118499617D01*
X123328761Y-118631673D01*
X123185000Y-118736122D01*
X123022664Y-118808398D01*
X122848849Y-118845344D01*
X122671151Y-118845344D01*
X122497336Y-118808398D01*
X122335000Y-118736122D01*
X122191239Y-118631673D01*
X122072336Y-118499617D01*
X121983486Y-118345726D01*
X121928575Y-118176725D01*
X121910000Y-118000000D01*
X121928575Y-117823275D01*
X121983486Y-117654274D01*
X122072336Y-117500383D01*
X122191239Y-117368327D01*
X122335000Y-117263878D01*
X122497336Y-117191602D01*
X122671151Y-117154656D01*
X122848849Y-117154656D01*
X123022664Y-117191602D01*
G37*
G36*
X125562664Y-117191602D02*
G01*
X125725000Y-117263878D01*
X125868761Y-117368327D01*
X125987664Y-117500383D01*
X126076514Y-117654274D01*
X126131425Y-117823275D01*
X126150000Y-118000000D01*
X126131425Y-118176725D01*
X126076514Y-118345726D01*
X125987664Y-118499617D01*
X125868761Y-118631673D01*
X125725000Y-118736122D01*
X125562664Y-118808398D01*
X125388849Y-118845344D01*
X125211151Y-118845344D01*
X125037336Y-118808398D01*
X124875000Y-118736122D01*
X124731239Y-118631673D01*
X124612336Y-118499617D01*
X124523486Y-118345726D01*
X124468575Y-118176725D01*
X124450000Y-118000000D01*
X124468575Y-117823275D01*
X124523486Y-117654274D01*
X124612336Y-117500383D01*
X124731239Y-117368327D01*
X124875000Y-117263878D01*
X125037336Y-117191602D01*
X125211151Y-117154656D01*
X125388849Y-117154656D01*
X125562664Y-117191602D01*
G37*
G36*
X128102664Y-117191602D02*
G01*
X128265000Y-117263878D01*
X128408761Y-117368327D01*
X128527664Y-117500383D01*
X128616514Y-117654274D01*
X128671425Y-117823275D01*
X128690000Y-118000000D01*
X128671425Y-118176725D01*
X128616514Y-118345726D01*
X128527664Y-118499617D01*
X128408761Y-118631673D01*
X128265000Y-118736122D01*
X128102664Y-118808398D01*
X127928849Y-118845344D01*
X127751151Y-118845344D01*
X127577336Y-118808398D01*
X127415000Y-118736122D01*
X127271239Y-118631673D01*
X127152336Y-118499617D01*
X127063486Y-118345726D01*
X127008575Y-118176725D01*
X126990000Y-118000000D01*
X127008575Y-117823275D01*
X127063486Y-117654274D01*
X127152336Y-117500383D01*
X127271239Y-117368327D01*
X127415000Y-117263878D01*
X127577336Y-117191602D01*
X127751151Y-117154656D01*
X127928849Y-117154656D01*
X128102664Y-117191602D01*
G37*
G36*
X130642664Y-117191602D02*
G01*
X130805000Y-117263878D01*
X130948761Y-117368327D01*
X131067664Y-117500383D01*
X131156514Y-117654274D01*
X131211425Y-117823275D01*
X131230000Y-118000000D01*
X131211425Y-118176725D01*
X131156514Y-118345726D01*
X131067664Y-118499617D01*
X130948761Y-118631673D01*
X130805000Y-118736122D01*
X130642664Y-118808398D01*
X130468849Y-118845344D01*
X130291151Y-118845344D01*
X130117336Y-118808398D01*
X129955000Y-118736122D01*
X129811239Y-118631673D01*
X129692336Y-118499617D01*
X129603486Y-118345726D01*
X129548575Y-118176725D01*
X129530000Y-118000000D01*
X129548575Y-117823275D01*
X129603486Y-117654274D01*
X129692336Y-117500383D01*
X129811239Y-117368327D01*
X129955000Y-117263878D01*
X130117336Y-117191602D01*
X130291151Y-117154656D01*
X130468849Y-117154656D01*
X130642664Y-117191602D01*
G37*
G36*
X133182664Y-117191602D02*
G01*
X133345000Y-117263878D01*
X133488761Y-117368327D01*
X133607664Y-117500383D01*
X133696514Y-117654274D01*
X133751425Y-117823275D01*
X133770000Y-118000000D01*
X133751425Y-118176725D01*
X133696514Y-118345726D01*
X133607664Y-118499617D01*
X133488761Y-118631673D01*
X133345000Y-118736122D01*
X133182664Y-118808398D01*
X133008849Y-118845344D01*
X132831151Y-118845344D01*
X132657336Y-118808398D01*
X132495000Y-118736122D01*
X132351239Y-118631673D01*
X132232336Y-118499617D01*
X132143486Y-118345726D01*
X132088575Y-118176725D01*
X132070000Y-118000000D01*
X132088575Y-117823275D01*
X132143486Y-117654274D01*
X132232336Y-117500383D01*
X132351239Y-117368327D01*
X132495000Y-117263878D01*
X132657336Y-117191602D01*
X132831151Y-117154656D01*
X133008849Y-117154656D01*
X133182664Y-117191602D01*
G37*
G36*
X135722664Y-117191602D02*
G01*
X135885000Y-117263878D01*
X136028761Y-117368327D01*
X136147664Y-117500383D01*
X136236514Y-117654274D01*
X136291425Y-117823275D01*
X136310000Y-118000000D01*
X136291425Y-118176725D01*
X136236514Y-118345726D01*
X136147664Y-118499617D01*
X136028761Y-118631673D01*
X135885000Y-118736122D01*
X135722664Y-118808398D01*
X135548849Y-118845344D01*
X135371151Y-118845344D01*
X135197336Y-118808398D01*
X135035000Y-118736122D01*
X134891239Y-118631673D01*
X134772336Y-118499617D01*
X134683486Y-118345726D01*
X134628575Y-118176725D01*
X134610000Y-118000000D01*
X134628575Y-117823275D01*
X134683486Y-117654274D01*
X134772336Y-117500383D01*
X134891239Y-117368327D01*
X135035000Y-117263878D01*
X135197336Y-117191602D01*
X135371151Y-117154656D01*
X135548849Y-117154656D01*
X135722664Y-117191602D01*
G37*
G36*
X103451537Y-114040224D02*
G01*
X103516421Y-114083579D01*
X103559776Y-114148463D01*
X103575000Y-114225000D01*
X103575000Y-114775000D01*
X103559776Y-114851537D01*
X103516421Y-114916421D01*
X103451537Y-114959776D01*
X103375000Y-114975000D01*
X102975000Y-114975000D01*
X102898463Y-114959776D01*
X102833579Y-114916421D01*
X102790224Y-114851537D01*
X102775000Y-114775000D01*
X102775000Y-114225000D01*
X102790224Y-114148463D01*
X102833579Y-114083579D01*
X102898463Y-114040224D01*
X102975000Y-114025000D01*
X103375000Y-114025000D01*
X103451537Y-114040224D01*
G37*
G36*
X105101537Y-114040224D02*
G01*
X105166421Y-114083579D01*
X105209776Y-114148463D01*
X105225000Y-114225000D01*
X105225000Y-114775000D01*
X105209776Y-114851537D01*
X105166421Y-114916421D01*
X105101537Y-114959776D01*
X105025000Y-114975000D01*
X104625000Y-114975000D01*
X104548463Y-114959776D01*
X104483579Y-114916421D01*
X104440224Y-114851537D01*
X104425000Y-114775000D01*
X104425000Y-114225000D01*
X104440224Y-114148463D01*
X104483579Y-114083579D01*
X104548463Y-114040224D01*
X104625000Y-114025000D01*
X105025000Y-114025000D01*
X105101537Y-114040224D01*
G37*
G36*
X68787403Y-111463418D02*
G01*
X68836066Y-111495934D01*
X68868582Y-111544597D01*
X68880000Y-111602000D01*
X68880000Y-112777000D01*
X68868582Y-112834403D01*
X68836066Y-112883066D01*
X68787403Y-112915582D01*
X68730000Y-112927000D01*
X68430000Y-112927000D01*
X68372597Y-112915582D01*
X68323934Y-112883066D01*
X68291418Y-112834403D01*
X68280000Y-112777000D01*
X68280000Y-111602000D01*
X68291418Y-111544597D01*
X68323934Y-111495934D01*
X68372597Y-111463418D01*
X68430000Y-111452000D01*
X68730000Y-111452000D01*
X68787403Y-111463418D01*
G37*
G36*
X73359403Y-111463418D02*
G01*
X73408066Y-111495934D01*
X73440582Y-111544597D01*
X73452000Y-111602000D01*
X73452000Y-112777000D01*
X73440582Y-112834403D01*
X73408066Y-112883066D01*
X73359403Y-112915582D01*
X73302000Y-112927000D01*
X73002000Y-112927000D01*
X72944597Y-112915582D01*
X72895934Y-112883066D01*
X72863418Y-112834403D01*
X72852000Y-112777000D01*
X72852000Y-111602000D01*
X72863418Y-111544597D01*
X72895934Y-111495934D01*
X72944597Y-111463418D01*
X73002000Y-111452000D01*
X73302000Y-111452000D01*
X73359403Y-111463418D01*
G37*
G36*
X79347268Y-112232612D02*
G01*
X79379711Y-112254289D01*
X79401388Y-112286732D01*
X79409000Y-112325000D01*
X79409000Y-112525000D01*
X79401388Y-112563268D01*
X79379711Y-112595711D01*
X79347268Y-112617388D01*
X79309000Y-112625000D01*
X77884000Y-112625000D01*
X77845732Y-112617388D01*
X77813289Y-112595711D01*
X77791612Y-112563268D01*
X77784000Y-112525000D01*
X77784000Y-112325000D01*
X77791612Y-112286732D01*
X77813289Y-112254289D01*
X77845732Y-112232612D01*
X77884000Y-112225000D01*
X79309000Y-112225000D01*
X79347268Y-112232612D01*
G37*
G36*
X83572268Y-112232612D02*
G01*
X83604711Y-112254289D01*
X83626388Y-112286732D01*
X83634000Y-112325000D01*
X83634000Y-112525000D01*
X83626388Y-112563268D01*
X83604711Y-112595711D01*
X83572268Y-112617388D01*
X83534000Y-112625000D01*
X82109000Y-112625000D01*
X82070732Y-112617388D01*
X82038289Y-112595711D01*
X82016612Y-112563268D01*
X82009000Y-112525000D01*
X82009000Y-112325000D01*
X82016612Y-112286732D01*
X82038289Y-112254289D01*
X82070732Y-112232612D01*
X82109000Y-112225000D01*
X83534000Y-112225000D01*
X83572268Y-112232612D01*
G37*
G36*
X79347268Y-111582612D02*
G01*
X79379711Y-111604289D01*
X79401388Y-111636732D01*
X79409000Y-111675000D01*
X79409000Y-111875000D01*
X79401388Y-111913268D01*
X79379711Y-111945711D01*
X79347268Y-111967388D01*
X79309000Y-111975000D01*
X77884000Y-111975000D01*
X77845732Y-111967388D01*
X77813289Y-111945711D01*
X77791612Y-111913268D01*
X77784000Y-111875000D01*
X77784000Y-111675000D01*
X77791612Y-111636732D01*
X77813289Y-111604289D01*
X77845732Y-111582612D01*
X77884000Y-111575000D01*
X79309000Y-111575000D01*
X79347268Y-111582612D01*
G37*
G36*
X83572268Y-111582612D02*
G01*
X83604711Y-111604289D01*
X83626388Y-111636732D01*
X83634000Y-111675000D01*
X83634000Y-111875000D01*
X83626388Y-111913268D01*
X83604711Y-111945711D01*
X83572268Y-111967388D01*
X83534000Y-111975000D01*
X82109000Y-111975000D01*
X82070732Y-111967388D01*
X82038289Y-111945711D01*
X82016612Y-111913268D01*
X82009000Y-111875000D01*
X82009000Y-111675000D01*
X82016612Y-111636732D01*
X82038289Y-111604289D01*
X82070732Y-111582612D01*
X82109000Y-111575000D01*
X83534000Y-111575000D01*
X83572268Y-111582612D01*
G37*
G36*
X94864104Y-110484127D02*
G01*
X94937099Y-110532901D01*
X94985873Y-110605896D01*
X95003000Y-110692000D01*
X95003000Y-111192000D01*
X94985873Y-111278104D01*
X94937099Y-111351099D01*
X94864104Y-111399873D01*
X94778000Y-111417000D01*
X94328000Y-111417000D01*
X94241896Y-111399873D01*
X94168901Y-111351099D01*
X94120127Y-111278104D01*
X94103000Y-111192000D01*
X94103000Y-110692000D01*
X94120127Y-110605896D01*
X94168901Y-110532901D01*
X94241896Y-110484127D01*
X94328000Y-110467000D01*
X94778000Y-110467000D01*
X94864104Y-110484127D01*
G37*
G36*
X96414104Y-110484127D02*
G01*
X96487099Y-110532901D01*
X96535873Y-110605896D01*
X96553000Y-110692000D01*
X96553000Y-111192000D01*
X96535873Y-111278104D01*
X96487099Y-111351099D01*
X96414104Y-111399873D01*
X96328000Y-111417000D01*
X95878000Y-111417000D01*
X95791896Y-111399873D01*
X95718901Y-111351099D01*
X95670127Y-111278104D01*
X95653000Y-111192000D01*
X95653000Y-110692000D01*
X95670127Y-110605896D01*
X95718901Y-110532901D01*
X95791896Y-110484127D01*
X95878000Y-110467000D01*
X96328000Y-110467000D01*
X96414104Y-110484127D01*
G37*
G36*
X79347268Y-110932612D02*
G01*
X79379711Y-110954289D01*
X79401388Y-110986732D01*
X79409000Y-111025000D01*
X79409000Y-111225000D01*
X79401388Y-111263268D01*
X79379711Y-111295711D01*
X79347268Y-111317388D01*
X79309000Y-111325000D01*
X77884000Y-111325000D01*
X77845732Y-111317388D01*
X77813289Y-111295711D01*
X77791612Y-111263268D01*
X77784000Y-111225000D01*
X77784000Y-111025000D01*
X77791612Y-110986732D01*
X77813289Y-110954289D01*
X77845732Y-110932612D01*
X77884000Y-110925000D01*
X79309000Y-110925000D01*
X79347268Y-110932612D01*
G37*
G36*
X83572268Y-110932612D02*
G01*
X83604711Y-110954289D01*
X83626388Y-110986732D01*
X83634000Y-111025000D01*
X83634000Y-111225000D01*
X83626388Y-111263268D01*
X83604711Y-111295711D01*
X83572268Y-111317388D01*
X83534000Y-111325000D01*
X82109000Y-111325000D01*
X82070732Y-111317388D01*
X82038289Y-111295711D01*
X82016612Y-111263268D01*
X82009000Y-111225000D01*
X82009000Y-111025000D01*
X82016612Y-110986732D01*
X82038289Y-110954289D01*
X82070732Y-110932612D01*
X82109000Y-110925000D01*
X83534000Y-110925000D01*
X83572268Y-110932612D01*
G37*
G36*
X67837403Y-109588418D02*
G01*
X67886066Y-109620934D01*
X67918582Y-109669597D01*
X67930000Y-109727000D01*
X67930000Y-110902000D01*
X67918582Y-110959403D01*
X67886066Y-111008066D01*
X67837403Y-111040582D01*
X67780000Y-111052000D01*
X67480000Y-111052000D01*
X67422597Y-111040582D01*
X67373934Y-111008066D01*
X67341418Y-110959403D01*
X67330000Y-110902000D01*
X67330000Y-109727000D01*
X67341418Y-109669597D01*
X67373934Y-109620934D01*
X67422597Y-109588418D01*
X67480000Y-109577000D01*
X67780000Y-109577000D01*
X67837403Y-109588418D01*
G37*
G36*
X69737403Y-109588418D02*
G01*
X69786066Y-109620934D01*
X69818582Y-109669597D01*
X69830000Y-109727000D01*
X69830000Y-110902000D01*
X69818582Y-110959403D01*
X69786066Y-111008066D01*
X69737403Y-111040582D01*
X69680000Y-111052000D01*
X69380000Y-111052000D01*
X69322597Y-111040582D01*
X69273934Y-111008066D01*
X69241418Y-110959403D01*
X69230000Y-110902000D01*
X69230000Y-109727000D01*
X69241418Y-109669597D01*
X69273934Y-109620934D01*
X69322597Y-109588418D01*
X69380000Y-109577000D01*
X69680000Y-109577000D01*
X69737403Y-109588418D01*
G37*
G36*
X72409403Y-109588418D02*
G01*
X72458066Y-109620934D01*
X72490582Y-109669597D01*
X72502000Y-109727000D01*
X72502000Y-110902000D01*
X72490582Y-110959403D01*
X72458066Y-111008066D01*
X72409403Y-111040582D01*
X72352000Y-111052000D01*
X72052000Y-111052000D01*
X71994597Y-111040582D01*
X71945934Y-111008066D01*
X71913418Y-110959403D01*
X71902000Y-110902000D01*
X71902000Y-109727000D01*
X71913418Y-109669597D01*
X71945934Y-109620934D01*
X71994597Y-109588418D01*
X72052000Y-109577000D01*
X72352000Y-109577000D01*
X72409403Y-109588418D01*
G37*
G36*
X74309403Y-109588418D02*
G01*
X74358066Y-109620934D01*
X74390582Y-109669597D01*
X74402000Y-109727000D01*
X74402000Y-110902000D01*
X74390582Y-110959403D01*
X74358066Y-111008066D01*
X74309403Y-111040582D01*
X74252000Y-111052000D01*
X73952000Y-111052000D01*
X73894597Y-111040582D01*
X73845934Y-111008066D01*
X73813418Y-110959403D01*
X73802000Y-110902000D01*
X73802000Y-109727000D01*
X73813418Y-109669597D01*
X73845934Y-109620934D01*
X73894597Y-109588418D01*
X73952000Y-109577000D01*
X74252000Y-109577000D01*
X74309403Y-109588418D01*
G37*
G36*
X79347268Y-110282612D02*
G01*
X79379711Y-110304289D01*
X79401388Y-110336732D01*
X79409000Y-110375000D01*
X79409000Y-110575000D01*
X79401388Y-110613268D01*
X79379711Y-110645711D01*
X79347268Y-110667388D01*
X79309000Y-110675000D01*
X77884000Y-110675000D01*
X77845732Y-110667388D01*
X77813289Y-110645711D01*
X77791612Y-110613268D01*
X77784000Y-110575000D01*
X77784000Y-110375000D01*
X77791612Y-110336732D01*
X77813289Y-110304289D01*
X77845732Y-110282612D01*
X77884000Y-110275000D01*
X79309000Y-110275000D01*
X79347268Y-110282612D01*
G37*
G36*
X83572268Y-110282612D02*
G01*
X83604711Y-110304289D01*
X83626388Y-110336732D01*
X83634000Y-110375000D01*
X83634000Y-110575000D01*
X83626388Y-110613268D01*
X83604711Y-110645711D01*
X83572268Y-110667388D01*
X83534000Y-110675000D01*
X82109000Y-110675000D01*
X82070732Y-110667388D01*
X82038289Y-110645711D01*
X82016612Y-110613268D01*
X82009000Y-110575000D01*
X82009000Y-110375000D01*
X82016612Y-110336732D01*
X82038289Y-110304289D01*
X82070732Y-110282612D01*
X82109000Y-110275000D01*
X83534000Y-110275000D01*
X83572268Y-110282612D01*
G37*
G36*
X112428104Y-109360127D02*
G01*
X112501099Y-109408901D01*
X112549873Y-109481896D01*
X112567000Y-109568000D01*
X112567000Y-110018000D01*
X112549873Y-110104104D01*
X112501099Y-110177099D01*
X112428104Y-110225873D01*
X112342000Y-110243000D01*
X111842000Y-110243000D01*
X111755896Y-110225873D01*
X111682901Y-110177099D01*
X111634127Y-110104104D01*
X111617000Y-110018000D01*
X111617000Y-109568000D01*
X111634127Y-109481896D01*
X111682901Y-109408901D01*
X111755896Y-109360127D01*
X111842000Y-109343000D01*
X112342000Y-109343000D01*
X112428104Y-109360127D01*
G37*
G36*
X108577367Y-108519161D02*
G01*
X108619593Y-108519161D01*
X108667228Y-108529286D01*
X108714017Y-108534558D01*
X108748039Y-108546462D01*
X108783127Y-108553921D01*
X108833695Y-108576435D01*
X108883107Y-108593725D01*
X108908823Y-108609883D01*
X108935860Y-108621921D01*
X108986275Y-108658550D01*
X109034792Y-108689035D01*
X109052214Y-108706457D01*
X109071117Y-108720191D01*
X109117844Y-108772087D01*
X109161465Y-108815708D01*
X109171499Y-108831677D01*
X109182986Y-108844435D01*
X109222285Y-108912503D01*
X109256775Y-108967393D01*
X109261080Y-108979697D01*
X109266580Y-108989223D01*
X109294740Y-109075892D01*
X109315942Y-109136483D01*
X109316746Y-109143618D01*
X109318244Y-109148229D01*
X109331820Y-109277404D01*
X109336000Y-109314500D01*
X109331819Y-109351598D01*
X109318244Y-109480770D01*
X109316746Y-109485379D01*
X109315942Y-109492517D01*
X109294736Y-109553120D01*
X109266580Y-109639776D01*
X109261081Y-109649299D01*
X109256775Y-109661607D01*
X109222278Y-109716507D01*
X109182986Y-109784564D01*
X109171501Y-109797318D01*
X109161465Y-109813292D01*
X109117835Y-109856921D01*
X109071117Y-109908808D01*
X109052218Y-109922538D01*
X109034792Y-109939965D01*
X108986265Y-109970456D01*
X108935860Y-110007078D01*
X108908829Y-110019112D01*
X108883107Y-110035275D01*
X108833685Y-110052568D01*
X108783127Y-110075078D01*
X108748045Y-110082535D01*
X108714017Y-110094442D01*
X108667225Y-110099714D01*
X108619593Y-110109839D01*
X108577367Y-110109839D01*
X108536000Y-110114500D01*
X108494633Y-110109839D01*
X108452407Y-110109839D01*
X108404774Y-110099714D01*
X108357983Y-110094442D01*
X108323955Y-110082535D01*
X108288872Y-110075078D01*
X108238309Y-110052566D01*
X108188893Y-110035275D01*
X108163173Y-110019114D01*
X108136139Y-110007078D01*
X108085726Y-109970451D01*
X108037208Y-109939965D01*
X108019784Y-109922541D01*
X108000882Y-109908808D01*
X107954154Y-109856911D01*
X107910535Y-109813292D01*
X107900500Y-109797322D01*
X107889013Y-109784564D01*
X107849709Y-109716487D01*
X107815225Y-109661607D01*
X107810919Y-109649303D01*
X107805419Y-109639776D01*
X107777249Y-109553080D01*
X107756058Y-109492517D01*
X107755254Y-109485384D01*
X107753755Y-109480770D01*
X107740165Y-109351466D01*
X107736000Y-109314500D01*
X107740164Y-109277536D01*
X107753755Y-109148229D01*
X107755254Y-109143613D01*
X107756058Y-109136483D01*
X107777245Y-109075932D01*
X107805419Y-108989223D01*
X107810920Y-108979693D01*
X107815225Y-108967393D01*
X107849701Y-108912523D01*
X107889013Y-108844435D01*
X107900502Y-108831674D01*
X107910535Y-108815708D01*
X107954145Y-108772097D01*
X108000882Y-108720191D01*
X108019787Y-108706455D01*
X108037208Y-108689035D01*
X108085721Y-108658552D01*
X108136140Y-108621921D01*
X108163176Y-108609883D01*
X108188893Y-108593725D01*
X108238301Y-108576436D01*
X108288872Y-108553921D01*
X108323961Y-108546462D01*
X108357983Y-108534558D01*
X108404771Y-108529286D01*
X108452407Y-108519161D01*
X108494633Y-108519161D01*
X108536000Y-108514500D01*
X108577367Y-108519161D01*
G37*
G36*
X129955119Y-103678818D02*
G01*
X130006381Y-103684766D01*
X130023895Y-103692499D01*
X130046673Y-103697030D01*
X130071056Y-103713322D01*
X130091790Y-103722477D01*
X130105950Y-103736637D01*
X130127778Y-103751222D01*
X130142362Y-103773049D01*
X130156522Y-103787209D01*
X130165675Y-103807940D01*
X130181970Y-103832327D01*
X130186500Y-103855105D01*
X130194233Y-103872618D01*
X130200182Y-103923894D01*
X130200999Y-103927998D01*
X130200999Y-103930928D01*
X130201000Y-103930937D01*
X130201000Y-106894000D01*
X130201000Y-109828003D01*
X130200180Y-109832120D01*
X130194233Y-109883381D01*
X130186501Y-109900891D01*
X130181970Y-109923673D01*
X130165674Y-109948061D01*
X130156522Y-109968790D01*
X130142364Y-109982947D01*
X130127778Y-110004778D01*
X130105947Y-110019364D01*
X130091790Y-110033522D01*
X130071061Y-110042674D01*
X130046673Y-110058970D01*
X130023892Y-110063501D01*
X130006381Y-110071233D01*
X129955106Y-110077182D01*
X129951002Y-110077999D01*
X129948070Y-110077999D01*
X129948062Y-110078000D01*
X124653938Y-110078000D01*
X124653937Y-110077999D01*
X124650997Y-110078000D01*
X124646879Y-110077181D01*
X124595618Y-110071233D01*
X124578106Y-110063501D01*
X124555327Y-110058970D01*
X124530940Y-110042675D01*
X124510209Y-110033522D01*
X124496049Y-110019362D01*
X124474222Y-110004778D01*
X124459637Y-109982950D01*
X124445477Y-109968790D01*
X124436322Y-109948056D01*
X124420030Y-109923673D01*
X124415499Y-109900896D01*
X124407766Y-109883381D01*
X124401817Y-109832105D01*
X124401001Y-109828002D01*
X124401000Y-109825070D01*
X124401000Y-109825062D01*
X124401000Y-103930937D01*
X124401000Y-103930936D01*
X124401000Y-103927997D01*
X124401818Y-103923882D01*
X124407766Y-103872618D01*
X124415499Y-103855102D01*
X124420030Y-103832327D01*
X124436321Y-103807944D01*
X124445477Y-103787209D01*
X124459639Y-103773046D01*
X124474222Y-103751222D01*
X124496046Y-103736639D01*
X124510209Y-103722477D01*
X124530944Y-103713321D01*
X124555327Y-103697030D01*
X124578101Y-103692500D01*
X124595618Y-103684766D01*
X124646894Y-103678817D01*
X124650998Y-103678001D01*
X124653929Y-103678000D01*
X124653938Y-103678000D01*
X129948062Y-103678000D01*
X129951003Y-103678000D01*
X129955119Y-103678818D01*
G37*
G36*
X150710000Y-110070000D02*
G01*
X149010000Y-110070000D01*
X149010000Y-108370000D01*
X150710000Y-108370000D01*
X150710000Y-110070000D01*
G37*
G36*
X123078037Y-109282224D02*
G01*
X123142921Y-109325579D01*
X123186276Y-109390463D01*
X123201500Y-109467000D01*
X123201500Y-109867000D01*
X123186276Y-109943537D01*
X123142921Y-110008421D01*
X123078037Y-110051776D01*
X123001500Y-110067000D01*
X122451500Y-110067000D01*
X122374963Y-110051776D01*
X122310079Y-110008421D01*
X122266724Y-109943537D01*
X122251500Y-109867000D01*
X122251500Y-109467000D01*
X122266724Y-109390463D01*
X122310079Y-109325579D01*
X122374963Y-109282224D01*
X122451500Y-109267000D01*
X123001500Y-109267000D01*
X123078037Y-109282224D01*
G37*
G36*
X114146962Y-109067651D02*
G01*
X114217930Y-109115070D01*
X114265349Y-109186038D01*
X114282000Y-109269750D01*
X114282000Y-109782250D01*
X114265349Y-109865962D01*
X114217930Y-109936930D01*
X114146962Y-109984349D01*
X114063250Y-110001000D01*
X113625750Y-110001000D01*
X113542038Y-109984349D01*
X113471070Y-109936930D01*
X113423651Y-109865962D01*
X113407000Y-109782250D01*
X113407000Y-109269750D01*
X113423651Y-109186038D01*
X113471070Y-109115070D01*
X113542038Y-109067651D01*
X113625750Y-109051000D01*
X114063250Y-109051000D01*
X114146962Y-109067651D01*
G37*
G36*
X115721962Y-109067651D02*
G01*
X115792930Y-109115070D01*
X115840349Y-109186038D01*
X115857000Y-109269750D01*
X115857000Y-109782250D01*
X115840349Y-109865962D01*
X115792930Y-109936930D01*
X115721962Y-109984349D01*
X115638250Y-110001000D01*
X115200750Y-110001000D01*
X115117038Y-109984349D01*
X115046070Y-109936930D01*
X114998651Y-109865962D01*
X114982000Y-109782250D01*
X114982000Y-109269750D01*
X114998651Y-109186038D01*
X115046070Y-109115070D01*
X115117038Y-109067651D01*
X115200750Y-109051000D01*
X115638250Y-109051000D01*
X115721962Y-109067651D01*
G37*
G36*
X117639537Y-109066224D02*
G01*
X117704421Y-109109579D01*
X117747776Y-109174463D01*
X117763000Y-109251000D01*
X117763000Y-109801000D01*
X117747776Y-109877537D01*
X117704421Y-109942421D01*
X117639537Y-109985776D01*
X117563000Y-110001000D01*
X117163000Y-110001000D01*
X117086463Y-109985776D01*
X117021579Y-109942421D01*
X116978224Y-109877537D01*
X116963000Y-109801000D01*
X116963000Y-109251000D01*
X116978224Y-109174463D01*
X117021579Y-109109579D01*
X117086463Y-109066224D01*
X117163000Y-109051000D01*
X117563000Y-109051000D01*
X117639537Y-109066224D01*
G37*
G36*
X119289537Y-109066224D02*
G01*
X119354421Y-109109579D01*
X119397776Y-109174463D01*
X119413000Y-109251000D01*
X119413000Y-109801000D01*
X119397776Y-109877537D01*
X119354421Y-109942421D01*
X119289537Y-109985776D01*
X119213000Y-110001000D01*
X118813000Y-110001000D01*
X118736463Y-109985776D01*
X118671579Y-109942421D01*
X118628224Y-109877537D01*
X118613000Y-109801000D01*
X118613000Y-109251000D01*
X118628224Y-109174463D01*
X118671579Y-109109579D01*
X118736463Y-109066224D01*
X118813000Y-109051000D01*
X119213000Y-109051000D01*
X119289537Y-109066224D01*
G37*
G36*
X94928000Y-109344000D02*
G01*
X93528000Y-109344000D01*
X93528000Y-108144000D01*
X94928000Y-108144000D01*
X94928000Y-109344000D01*
G37*
G36*
X97128000Y-109344000D02*
G01*
X95728000Y-109344000D01*
X95728000Y-108144000D01*
X97128000Y-108144000D01*
X97128000Y-109344000D01*
G37*
G36*
X92108104Y-108236127D02*
G01*
X92181099Y-108284901D01*
X92229873Y-108357896D01*
X92247000Y-108444000D01*
X92247000Y-108894000D01*
X92229873Y-108980104D01*
X92181099Y-109053099D01*
X92108104Y-109101873D01*
X92022000Y-109119000D01*
X91522000Y-109119000D01*
X91435896Y-109101873D01*
X91362901Y-109053099D01*
X91314127Y-108980104D01*
X91297000Y-108894000D01*
X91297000Y-108444000D01*
X91314127Y-108357896D01*
X91362901Y-108284901D01*
X91435896Y-108236127D01*
X91522000Y-108219000D01*
X92022000Y-108219000D01*
X92108104Y-108236127D01*
G37*
G36*
X78467104Y-107944127D02*
G01*
X78540099Y-107992901D01*
X78588873Y-108065896D01*
X78606000Y-108152000D01*
X78606000Y-108652000D01*
X78588873Y-108738104D01*
X78540099Y-108811099D01*
X78467104Y-108859873D01*
X78381000Y-108877000D01*
X77931000Y-108877000D01*
X77844896Y-108859873D01*
X77771901Y-108811099D01*
X77723127Y-108738104D01*
X77706000Y-108652000D01*
X77706000Y-108152000D01*
X77723127Y-108065896D01*
X77771901Y-107992901D01*
X77844896Y-107944127D01*
X77931000Y-107927000D01*
X78381000Y-107927000D01*
X78467104Y-107944127D01*
G37*
G36*
X80017104Y-107944127D02*
G01*
X80090099Y-107992901D01*
X80138873Y-108065896D01*
X80156000Y-108152000D01*
X80156000Y-108652000D01*
X80138873Y-108738104D01*
X80090099Y-108811099D01*
X80017104Y-108859873D01*
X79931000Y-108877000D01*
X79481000Y-108877000D01*
X79394896Y-108859873D01*
X79321901Y-108811099D01*
X79273127Y-108738104D01*
X79256000Y-108652000D01*
X79256000Y-108152000D01*
X79273127Y-108065896D01*
X79321901Y-107992901D01*
X79394896Y-107944127D01*
X79481000Y-107927000D01*
X79931000Y-107927000D01*
X80017104Y-107944127D01*
G37*
G36*
X82446537Y-107942224D02*
G01*
X82511421Y-107985579D01*
X82554776Y-108050463D01*
X82570000Y-108127000D01*
X82570000Y-108677000D01*
X82554776Y-108753537D01*
X82511421Y-108818421D01*
X82446537Y-108861776D01*
X82370000Y-108877000D01*
X81970000Y-108877000D01*
X81893463Y-108861776D01*
X81828579Y-108818421D01*
X81785224Y-108753537D01*
X81770000Y-108677000D01*
X81770000Y-108127000D01*
X81785224Y-108050463D01*
X81828579Y-107985579D01*
X81893463Y-107942224D01*
X81970000Y-107927000D01*
X82370000Y-107927000D01*
X82446537Y-107942224D01*
G37*
G36*
X84096537Y-107942224D02*
G01*
X84161421Y-107985579D01*
X84204776Y-108050463D01*
X84220000Y-108127000D01*
X84220000Y-108677000D01*
X84204776Y-108753537D01*
X84161421Y-108818421D01*
X84096537Y-108861776D01*
X84020000Y-108877000D01*
X83620000Y-108877000D01*
X83543463Y-108861776D01*
X83478579Y-108818421D01*
X83435224Y-108753537D01*
X83420000Y-108677000D01*
X83420000Y-108127000D01*
X83435224Y-108050463D01*
X83478579Y-107985579D01*
X83543463Y-107942224D01*
X83620000Y-107927000D01*
X84020000Y-107927000D01*
X84096537Y-107942224D01*
G37*
G36*
X112428104Y-107810127D02*
G01*
X112501099Y-107858901D01*
X112549873Y-107931896D01*
X112567000Y-108018000D01*
X112567000Y-108468000D01*
X112549873Y-108554104D01*
X112501099Y-108627099D01*
X112428104Y-108675873D01*
X112342000Y-108693000D01*
X111842000Y-108693000D01*
X111755896Y-108675873D01*
X111682901Y-108627099D01*
X111634127Y-108554104D01*
X111617000Y-108468000D01*
X111617000Y-108018000D01*
X111634127Y-107931896D01*
X111682901Y-107858901D01*
X111755896Y-107810127D01*
X111842000Y-107793000D01*
X112342000Y-107793000D01*
X112428104Y-107810127D01*
G37*
G36*
X68116104Y-107746127D02*
G01*
X68189099Y-107794901D01*
X68237873Y-107867896D01*
X68255000Y-107954000D01*
X68255000Y-108454000D01*
X68237873Y-108540104D01*
X68189099Y-108613099D01*
X68116104Y-108661873D01*
X68030000Y-108679000D01*
X67580000Y-108679000D01*
X67493896Y-108661873D01*
X67420901Y-108613099D01*
X67372127Y-108540104D01*
X67355000Y-108454000D01*
X67355000Y-107954000D01*
X67372127Y-107867896D01*
X67420901Y-107794901D01*
X67493896Y-107746127D01*
X67580000Y-107729000D01*
X68030000Y-107729000D01*
X68116104Y-107746127D01*
G37*
G36*
X69666104Y-107746127D02*
G01*
X69739099Y-107794901D01*
X69787873Y-107867896D01*
X69805000Y-107954000D01*
X69805000Y-108454000D01*
X69787873Y-108540104D01*
X69739099Y-108613099D01*
X69666104Y-108661873D01*
X69580000Y-108679000D01*
X69130000Y-108679000D01*
X69043896Y-108661873D01*
X68970901Y-108613099D01*
X68922127Y-108540104D01*
X68905000Y-108454000D01*
X68905000Y-107954000D01*
X68922127Y-107867896D01*
X68970901Y-107794901D01*
X69043896Y-107746127D01*
X69130000Y-107729000D01*
X69580000Y-107729000D01*
X69666104Y-107746127D01*
G37*
G36*
X72688104Y-107746127D02*
G01*
X72761099Y-107794901D01*
X72809873Y-107867896D01*
X72827000Y-107954000D01*
X72827000Y-108454000D01*
X72809873Y-108540104D01*
X72761099Y-108613099D01*
X72688104Y-108661873D01*
X72602000Y-108679000D01*
X72152000Y-108679000D01*
X72065896Y-108661873D01*
X71992901Y-108613099D01*
X71944127Y-108540104D01*
X71927000Y-108454000D01*
X71927000Y-107954000D01*
X71944127Y-107867896D01*
X71992901Y-107794901D01*
X72065896Y-107746127D01*
X72152000Y-107729000D01*
X72602000Y-107729000D01*
X72688104Y-107746127D01*
G37*
G36*
X74238104Y-107746127D02*
G01*
X74311099Y-107794901D01*
X74359873Y-107867896D01*
X74377000Y-107954000D01*
X74377000Y-108454000D01*
X74359873Y-108540104D01*
X74311099Y-108613099D01*
X74238104Y-108661873D01*
X74152000Y-108679000D01*
X73702000Y-108679000D01*
X73615896Y-108661873D01*
X73542901Y-108613099D01*
X73494127Y-108540104D01*
X73477000Y-108454000D01*
X73477000Y-107954000D01*
X73494127Y-107867896D01*
X73542901Y-107794901D01*
X73615896Y-107746127D01*
X73702000Y-107729000D01*
X74152000Y-107729000D01*
X74238104Y-107746127D01*
G37*
G36*
X123078037Y-107632224D02*
G01*
X123142921Y-107675579D01*
X123186276Y-107740463D01*
X123201500Y-107817000D01*
X123201500Y-108217000D01*
X123186276Y-108293537D01*
X123142921Y-108358421D01*
X123078037Y-108401776D01*
X123001500Y-108417000D01*
X122451500Y-108417000D01*
X122374963Y-108401776D01*
X122310079Y-108358421D01*
X122266724Y-108293537D01*
X122251500Y-108217000D01*
X122251500Y-107817000D01*
X122266724Y-107740463D01*
X122310079Y-107675579D01*
X122374963Y-107632224D01*
X122451500Y-107617000D01*
X123001500Y-107617000D01*
X123078037Y-107632224D01*
G37*
G36*
X94928000Y-107644000D02*
G01*
X93528000Y-107644000D01*
X93528000Y-106444000D01*
X94928000Y-106444000D01*
X94928000Y-107644000D01*
G37*
G36*
X97128000Y-107644000D02*
G01*
X95728000Y-107644000D01*
X95728000Y-106444000D01*
X97128000Y-106444000D01*
X97128000Y-107644000D01*
G37*
G36*
X92108104Y-106686127D02*
G01*
X92181099Y-106734901D01*
X92229873Y-106807896D01*
X92247000Y-106894000D01*
X92247000Y-107344000D01*
X92229873Y-107430104D01*
X92181099Y-107503099D01*
X92108104Y-107551873D01*
X92022000Y-107569000D01*
X91522000Y-107569000D01*
X91435896Y-107551873D01*
X91362901Y-107503099D01*
X91314127Y-107430104D01*
X91297000Y-107344000D01*
X91297000Y-106894000D01*
X91314127Y-106807896D01*
X91362901Y-106734901D01*
X91435896Y-106686127D01*
X91522000Y-106669000D01*
X92022000Y-106669000D01*
X92108104Y-106686127D01*
G37*
G36*
X150122664Y-105871602D02*
G01*
X150285000Y-105943878D01*
X150428761Y-106048327D01*
X150547664Y-106180383D01*
X150636514Y-106334274D01*
X150691425Y-106503275D01*
X150710000Y-106680000D01*
X150691425Y-106856725D01*
X150636514Y-107025726D01*
X150547664Y-107179617D01*
X150428761Y-107311673D01*
X150285000Y-107416122D01*
X150122664Y-107488398D01*
X149948849Y-107525344D01*
X149771151Y-107525344D01*
X149597336Y-107488398D01*
X149435000Y-107416122D01*
X149291239Y-107311673D01*
X149172336Y-107179617D01*
X149083486Y-107025726D01*
X149028575Y-106856725D01*
X149010000Y-106680000D01*
X149028575Y-106503275D01*
X149083486Y-106334274D01*
X149172336Y-106180383D01*
X149291239Y-106048327D01*
X149435000Y-105943878D01*
X149597336Y-105871602D01*
X149771151Y-105834656D01*
X149948849Y-105834656D01*
X150122664Y-105871602D01*
G37*
G36*
X114146962Y-106527651D02*
G01*
X114217930Y-106575070D01*
X114265349Y-106646038D01*
X114282000Y-106729750D01*
X114282000Y-107242250D01*
X114265349Y-107325962D01*
X114217930Y-107396930D01*
X114146962Y-107444349D01*
X114063250Y-107461000D01*
X113625750Y-107461000D01*
X113542038Y-107444349D01*
X113471070Y-107396930D01*
X113423651Y-107325962D01*
X113407000Y-107242250D01*
X113407000Y-106729750D01*
X113423651Y-106646038D01*
X113471070Y-106575070D01*
X113542038Y-106527651D01*
X113625750Y-106511000D01*
X114063250Y-106511000D01*
X114146962Y-106527651D01*
G37*
G36*
X115721962Y-106527651D02*
G01*
X115792930Y-106575070D01*
X115840349Y-106646038D01*
X115857000Y-106729750D01*
X115857000Y-107242250D01*
X115840349Y-107325962D01*
X115792930Y-107396930D01*
X115721962Y-107444349D01*
X115638250Y-107461000D01*
X115200750Y-107461000D01*
X115117038Y-107444349D01*
X115046070Y-107396930D01*
X114998651Y-107325962D01*
X114982000Y-107242250D01*
X114982000Y-106729750D01*
X114998651Y-106646038D01*
X115046070Y-106575070D01*
X115117038Y-106527651D01*
X115200750Y-106511000D01*
X115638250Y-106511000D01*
X115721962Y-106527651D01*
G37*
G36*
X117639537Y-106526224D02*
G01*
X117704421Y-106569579D01*
X117747776Y-106634463D01*
X117763000Y-106711000D01*
X117763000Y-107261000D01*
X117747776Y-107337537D01*
X117704421Y-107402421D01*
X117639537Y-107445776D01*
X117563000Y-107461000D01*
X117163000Y-107461000D01*
X117086463Y-107445776D01*
X117021579Y-107402421D01*
X116978224Y-107337537D01*
X116963000Y-107261000D01*
X116963000Y-106711000D01*
X116978224Y-106634463D01*
X117021579Y-106569579D01*
X117086463Y-106526224D01*
X117163000Y-106511000D01*
X117563000Y-106511000D01*
X117639537Y-106526224D01*
G37*
G36*
X119289537Y-106526224D02*
G01*
X119354421Y-106569579D01*
X119397776Y-106634463D01*
X119413000Y-106711000D01*
X119413000Y-107261000D01*
X119397776Y-107337537D01*
X119354421Y-107402421D01*
X119289537Y-107445776D01*
X119213000Y-107461000D01*
X118813000Y-107461000D01*
X118736463Y-107445776D01*
X118671579Y-107402421D01*
X118628224Y-107337537D01*
X118613000Y-107261000D01*
X118613000Y-106711000D01*
X118628224Y-106634463D01*
X118671579Y-106569579D01*
X118736463Y-106526224D01*
X118813000Y-106511000D01*
X119213000Y-106511000D01*
X119289537Y-106526224D01*
G37*
G36*
X78382537Y-106418224D02*
G01*
X78447421Y-106461579D01*
X78490776Y-106526463D01*
X78506000Y-106603000D01*
X78506000Y-107153000D01*
X78490776Y-107229537D01*
X78447421Y-107294421D01*
X78382537Y-107337776D01*
X78306000Y-107353000D01*
X77906000Y-107353000D01*
X77829463Y-107337776D01*
X77764579Y-107294421D01*
X77721224Y-107229537D01*
X77706000Y-107153000D01*
X77706000Y-106603000D01*
X77721224Y-106526463D01*
X77764579Y-106461579D01*
X77829463Y-106418224D01*
X77906000Y-106403000D01*
X78306000Y-106403000D01*
X78382537Y-106418224D01*
G37*
G36*
X80032537Y-106418224D02*
G01*
X80097421Y-106461579D01*
X80140776Y-106526463D01*
X80156000Y-106603000D01*
X80156000Y-107153000D01*
X80140776Y-107229537D01*
X80097421Y-107294421D01*
X80032537Y-107337776D01*
X79956000Y-107353000D01*
X79556000Y-107353000D01*
X79479463Y-107337776D01*
X79414579Y-107294421D01*
X79371224Y-107229537D01*
X79356000Y-107153000D01*
X79356000Y-106603000D01*
X79371224Y-106526463D01*
X79414579Y-106461579D01*
X79479463Y-106418224D01*
X79556000Y-106403000D01*
X79956000Y-106403000D01*
X80032537Y-106418224D01*
G37*
G36*
X82531104Y-106420127D02*
G01*
X82604099Y-106468901D01*
X82652873Y-106541896D01*
X82670000Y-106628000D01*
X82670000Y-107128000D01*
X82652873Y-107214104D01*
X82604099Y-107287099D01*
X82531104Y-107335873D01*
X82445000Y-107353000D01*
X81995000Y-107353000D01*
X81908896Y-107335873D01*
X81835901Y-107287099D01*
X81787127Y-107214104D01*
X81770000Y-107128000D01*
X81770000Y-106628000D01*
X81787127Y-106541896D01*
X81835901Y-106468901D01*
X81908896Y-106420127D01*
X81995000Y-106403000D01*
X82445000Y-106403000D01*
X82531104Y-106420127D01*
G37*
G36*
X84081104Y-106420127D02*
G01*
X84154099Y-106468901D01*
X84202873Y-106541896D01*
X84220000Y-106628000D01*
X84220000Y-107128000D01*
X84202873Y-107214104D01*
X84154099Y-107287099D01*
X84081104Y-107335873D01*
X83995000Y-107353000D01*
X83545000Y-107353000D01*
X83458896Y-107335873D01*
X83385901Y-107287099D01*
X83337127Y-107214104D01*
X83320000Y-107128000D01*
X83320000Y-106628000D01*
X83337127Y-106541896D01*
X83385901Y-106468901D01*
X83458896Y-106420127D01*
X83545000Y-106403000D01*
X83995000Y-106403000D01*
X84081104Y-106420127D01*
G37*
G36*
X68031537Y-106220224D02*
G01*
X68096421Y-106263579D01*
X68139776Y-106328463D01*
X68155000Y-106405000D01*
X68155000Y-106955000D01*
X68139776Y-107031537D01*
X68096421Y-107096421D01*
X68031537Y-107139776D01*
X67955000Y-107155000D01*
X67555000Y-107155000D01*
X67478463Y-107139776D01*
X67413579Y-107096421D01*
X67370224Y-107031537D01*
X67355000Y-106955000D01*
X67355000Y-106405000D01*
X67370224Y-106328463D01*
X67413579Y-106263579D01*
X67478463Y-106220224D01*
X67555000Y-106205000D01*
X67955000Y-106205000D01*
X68031537Y-106220224D01*
G37*
G36*
X69681537Y-106220224D02*
G01*
X69746421Y-106263579D01*
X69789776Y-106328463D01*
X69805000Y-106405000D01*
X69805000Y-106955000D01*
X69789776Y-107031537D01*
X69746421Y-107096421D01*
X69681537Y-107139776D01*
X69605000Y-107155000D01*
X69205000Y-107155000D01*
X69128463Y-107139776D01*
X69063579Y-107096421D01*
X69020224Y-107031537D01*
X69005000Y-106955000D01*
X69005000Y-106405000D01*
X69020224Y-106328463D01*
X69063579Y-106263579D01*
X69128463Y-106220224D01*
X69205000Y-106205000D01*
X69605000Y-106205000D01*
X69681537Y-106220224D01*
G37*
G36*
X72603537Y-106220224D02*
G01*
X72668421Y-106263579D01*
X72711776Y-106328463D01*
X72727000Y-106405000D01*
X72727000Y-106955000D01*
X72711776Y-107031537D01*
X72668421Y-107096421D01*
X72603537Y-107139776D01*
X72527000Y-107155000D01*
X72127000Y-107155000D01*
X72050463Y-107139776D01*
X71985579Y-107096421D01*
X71942224Y-107031537D01*
X71927000Y-106955000D01*
X71927000Y-106405000D01*
X71942224Y-106328463D01*
X71985579Y-106263579D01*
X72050463Y-106220224D01*
X72127000Y-106205000D01*
X72527000Y-106205000D01*
X72603537Y-106220224D01*
G37*
G36*
X74253537Y-106220224D02*
G01*
X74318421Y-106263579D01*
X74361776Y-106328463D01*
X74377000Y-106405000D01*
X74377000Y-106955000D01*
X74361776Y-107031537D01*
X74318421Y-107096421D01*
X74253537Y-107139776D01*
X74177000Y-107155000D01*
X73777000Y-107155000D01*
X73700463Y-107139776D01*
X73635579Y-107096421D01*
X73592224Y-107031537D01*
X73577000Y-106955000D01*
X73577000Y-106405000D01*
X73592224Y-106328463D01*
X73635579Y-106263579D01*
X73700463Y-106220224D01*
X73777000Y-106205000D01*
X74177000Y-106205000D01*
X74253537Y-106220224D01*
G37*
G36*
X123066462Y-105652651D02*
G01*
X123137430Y-105700070D01*
X123184849Y-105771038D01*
X123201500Y-105854750D01*
X123201500Y-106292250D01*
X123184849Y-106375962D01*
X123137430Y-106446930D01*
X123066462Y-106494349D01*
X122982750Y-106511000D01*
X122470250Y-106511000D01*
X122386538Y-106494349D01*
X122315570Y-106446930D01*
X122268151Y-106375962D01*
X122251500Y-106292250D01*
X122251500Y-105854750D01*
X122268151Y-105771038D01*
X122315570Y-105700070D01*
X122386538Y-105652651D01*
X122470250Y-105636000D01*
X122982750Y-105636000D01*
X123066462Y-105652651D01*
G37*
G36*
X99436104Y-105404127D02*
G01*
X99509099Y-105452901D01*
X99557873Y-105525896D01*
X99575000Y-105612000D01*
X99575000Y-106112000D01*
X99557873Y-106198104D01*
X99509099Y-106271099D01*
X99436104Y-106319873D01*
X99350000Y-106337000D01*
X98900000Y-106337000D01*
X98813896Y-106319873D01*
X98740901Y-106271099D01*
X98692127Y-106198104D01*
X98675000Y-106112000D01*
X98675000Y-105612000D01*
X98692127Y-105525896D01*
X98740901Y-105452901D01*
X98813896Y-105404127D01*
X98900000Y-105387000D01*
X99350000Y-105387000D01*
X99436104Y-105404127D01*
G37*
G36*
X100986104Y-105404127D02*
G01*
X101059099Y-105452901D01*
X101107873Y-105525896D01*
X101125000Y-105612000D01*
X101125000Y-106112000D01*
X101107873Y-106198104D01*
X101059099Y-106271099D01*
X100986104Y-106319873D01*
X100900000Y-106337000D01*
X100450000Y-106337000D01*
X100363896Y-106319873D01*
X100290901Y-106271099D01*
X100242127Y-106198104D01*
X100225000Y-106112000D01*
X100225000Y-105612000D01*
X100242127Y-105525896D01*
X100290901Y-105452901D01*
X100363896Y-105404127D01*
X100450000Y-105387000D01*
X100900000Y-105387000D01*
X100986104Y-105404127D01*
G37*
G36*
X78382537Y-104894224D02*
G01*
X78447421Y-104937579D01*
X78490776Y-105002463D01*
X78506000Y-105079000D01*
X78506000Y-105629000D01*
X78490776Y-105705537D01*
X78447421Y-105770421D01*
X78382537Y-105813776D01*
X78306000Y-105829000D01*
X77906000Y-105829000D01*
X77829463Y-105813776D01*
X77764579Y-105770421D01*
X77721224Y-105705537D01*
X77706000Y-105629000D01*
X77706000Y-105079000D01*
X77721224Y-105002463D01*
X77764579Y-104937579D01*
X77829463Y-104894224D01*
X77906000Y-104879000D01*
X78306000Y-104879000D01*
X78382537Y-104894224D01*
G37*
G36*
X80032537Y-104894224D02*
G01*
X80097421Y-104937579D01*
X80140776Y-105002463D01*
X80156000Y-105079000D01*
X80156000Y-105629000D01*
X80140776Y-105705537D01*
X80097421Y-105770421D01*
X80032537Y-105813776D01*
X79956000Y-105829000D01*
X79556000Y-105829000D01*
X79479463Y-105813776D01*
X79414579Y-105770421D01*
X79371224Y-105705537D01*
X79356000Y-105629000D01*
X79356000Y-105079000D01*
X79371224Y-105002463D01*
X79414579Y-104937579D01*
X79479463Y-104894224D01*
X79556000Y-104879000D01*
X79956000Y-104879000D01*
X80032537Y-104894224D01*
G37*
G36*
X82531104Y-104896127D02*
G01*
X82604099Y-104944901D01*
X82652873Y-105017896D01*
X82670000Y-105104000D01*
X82670000Y-105604000D01*
X82652873Y-105690104D01*
X82604099Y-105763099D01*
X82531104Y-105811873D01*
X82445000Y-105829000D01*
X81995000Y-105829000D01*
X81908896Y-105811873D01*
X81835901Y-105763099D01*
X81787127Y-105690104D01*
X81770000Y-105604000D01*
X81770000Y-105104000D01*
X81787127Y-105017896D01*
X81835901Y-104944901D01*
X81908896Y-104896127D01*
X81995000Y-104879000D01*
X82445000Y-104879000D01*
X82531104Y-104896127D01*
G37*
G36*
X84081104Y-104896127D02*
G01*
X84154099Y-104944901D01*
X84202873Y-105017896D01*
X84220000Y-105104000D01*
X84220000Y-105604000D01*
X84202873Y-105690104D01*
X84154099Y-105763099D01*
X84081104Y-105811873D01*
X83995000Y-105829000D01*
X83545000Y-105829000D01*
X83458896Y-105811873D01*
X83385901Y-105763099D01*
X83337127Y-105690104D01*
X83320000Y-105604000D01*
X83320000Y-105104000D01*
X83337127Y-105017896D01*
X83385901Y-104944901D01*
X83458896Y-104896127D01*
X83545000Y-104879000D01*
X83995000Y-104879000D01*
X84081104Y-104896127D01*
G37*
G36*
X114006500Y-104998000D02*
G01*
X113606500Y-104998000D01*
X113606500Y-103798000D01*
X114006500Y-103798000D01*
X114006500Y-104998000D01*
G37*
G36*
X114641500Y-104998000D02*
G01*
X114241500Y-104998000D01*
X114241500Y-103798000D01*
X114641500Y-103798000D01*
X114641500Y-104998000D01*
G37*
G36*
X115276500Y-104998000D02*
G01*
X114876500Y-104998000D01*
X114876500Y-103798000D01*
X115276500Y-103798000D01*
X115276500Y-104998000D01*
G37*
G36*
X115911500Y-104998000D02*
G01*
X115511500Y-104998000D01*
X115511500Y-103798000D01*
X115911500Y-103798000D01*
X115911500Y-104998000D01*
G37*
G36*
X116546500Y-104998000D02*
G01*
X116146500Y-104998000D01*
X116146500Y-103798000D01*
X116546500Y-103798000D01*
X116546500Y-104998000D01*
G37*
G36*
X117181500Y-104998000D02*
G01*
X116781500Y-104998000D01*
X116781500Y-103798000D01*
X117181500Y-103798000D01*
X117181500Y-104998000D01*
G37*
G36*
X117816500Y-104998000D02*
G01*
X117416500Y-104998000D01*
X117416500Y-103798000D01*
X117816500Y-103798000D01*
X117816500Y-104998000D01*
G37*
G36*
X118451500Y-104998000D02*
G01*
X118051500Y-104998000D01*
X118051500Y-103798000D01*
X118451500Y-103798000D01*
X118451500Y-104998000D01*
G37*
G36*
X119086500Y-104998000D02*
G01*
X118686500Y-104998000D01*
X118686500Y-103798000D01*
X119086500Y-103798000D01*
X119086500Y-104998000D01*
G37*
G36*
X119721500Y-104998000D02*
G01*
X119321500Y-104998000D01*
X119321500Y-103798000D01*
X119721500Y-103798000D01*
X119721500Y-104998000D01*
G37*
G36*
X150122664Y-103331602D02*
G01*
X150285000Y-103403878D01*
X150428761Y-103508327D01*
X150547664Y-103640383D01*
X150636514Y-103794274D01*
X150691425Y-103963275D01*
X150710000Y-104140000D01*
X150691425Y-104316725D01*
X150636514Y-104485726D01*
X150547664Y-104639617D01*
X150428761Y-104771673D01*
X150285000Y-104876122D01*
X150122664Y-104948398D01*
X149948849Y-104985344D01*
X149771151Y-104985344D01*
X149597336Y-104948398D01*
X149435000Y-104876122D01*
X149291239Y-104771673D01*
X149172336Y-104639617D01*
X149083486Y-104485726D01*
X149028575Y-104316725D01*
X149010000Y-104140000D01*
X149028575Y-103963275D01*
X149083486Y-103794274D01*
X149172336Y-103640383D01*
X149291239Y-103508327D01*
X149435000Y-103403878D01*
X149597336Y-103331602D01*
X149771151Y-103294656D01*
X149948849Y-103294656D01*
X150122664Y-103331602D01*
G37*
G36*
X123066462Y-104077651D02*
G01*
X123137430Y-104125070D01*
X123184849Y-104196038D01*
X123201500Y-104279750D01*
X123201500Y-104717250D01*
X123184849Y-104800962D01*
X123137430Y-104871930D01*
X123066462Y-104919349D01*
X122982750Y-104936000D01*
X122470250Y-104936000D01*
X122386538Y-104919349D01*
X122315570Y-104871930D01*
X122268151Y-104800962D01*
X122251500Y-104717250D01*
X122251500Y-104279750D01*
X122268151Y-104196038D01*
X122315570Y-104125070D01*
X122386538Y-104077651D01*
X122470250Y-104061000D01*
X122982750Y-104061000D01*
X123066462Y-104077651D01*
G37*
G36*
X67794552Y-104431564D02*
G01*
X67831050Y-104455950D01*
X67855436Y-104492448D01*
X67864000Y-104535500D01*
X67864000Y-104760500D01*
X67855436Y-104803552D01*
X67831050Y-104840050D01*
X67794552Y-104864436D01*
X67751500Y-104873000D01*
X67376500Y-104873000D01*
X67333448Y-104864436D01*
X67296950Y-104840050D01*
X67272564Y-104803552D01*
X67264000Y-104760500D01*
X67264000Y-104535500D01*
X67272564Y-104492448D01*
X67296950Y-104455950D01*
X67333448Y-104431564D01*
X67376500Y-104423000D01*
X67751500Y-104423000D01*
X67794552Y-104431564D01*
G37*
G36*
X69894552Y-104431564D02*
G01*
X69931050Y-104455950D01*
X69955436Y-104492448D01*
X69964000Y-104535500D01*
X69964000Y-104760500D01*
X69955436Y-104803552D01*
X69931050Y-104840050D01*
X69894552Y-104864436D01*
X69851500Y-104873000D01*
X69476500Y-104873000D01*
X69433448Y-104864436D01*
X69396950Y-104840050D01*
X69372564Y-104803552D01*
X69364000Y-104760500D01*
X69364000Y-104535500D01*
X69372564Y-104492448D01*
X69396950Y-104455950D01*
X69433448Y-104431564D01*
X69476500Y-104423000D01*
X69851500Y-104423000D01*
X69894552Y-104431564D01*
G37*
G36*
X72332552Y-104431564D02*
G01*
X72369050Y-104455950D01*
X72393436Y-104492448D01*
X72402000Y-104535500D01*
X72402000Y-104760500D01*
X72393436Y-104803552D01*
X72369050Y-104840050D01*
X72332552Y-104864436D01*
X72289500Y-104873000D01*
X71914500Y-104873000D01*
X71871448Y-104864436D01*
X71834950Y-104840050D01*
X71810564Y-104803552D01*
X71802000Y-104760500D01*
X71802000Y-104535500D01*
X71810564Y-104492448D01*
X71834950Y-104455950D01*
X71871448Y-104431564D01*
X71914500Y-104423000D01*
X72289500Y-104423000D01*
X72332552Y-104431564D01*
G37*
G36*
X74432552Y-104431564D02*
G01*
X74469050Y-104455950D01*
X74493436Y-104492448D01*
X74502000Y-104535500D01*
X74502000Y-104760500D01*
X74493436Y-104803552D01*
X74469050Y-104840050D01*
X74432552Y-104864436D01*
X74389500Y-104873000D01*
X74014500Y-104873000D01*
X73971448Y-104864436D01*
X73934950Y-104840050D01*
X73910564Y-104803552D01*
X73902000Y-104760500D01*
X73902000Y-104535500D01*
X73910564Y-104492448D01*
X73934950Y-104455950D01*
X73971448Y-104431564D01*
X74014500Y-104423000D01*
X74389500Y-104423000D01*
X74432552Y-104431564D01*
G37*
G36*
X97375000Y-104308000D02*
G01*
X96825000Y-104308000D01*
X96825000Y-102708000D01*
X97375000Y-102708000D01*
X97375000Y-104308000D01*
G37*
G36*
X98175000Y-104308000D02*
G01*
X97625000Y-104308000D01*
X97625000Y-102708000D01*
X98175000Y-102708000D01*
X98175000Y-104308000D01*
G37*
G36*
X98975000Y-104308000D02*
G01*
X98425000Y-104308000D01*
X98425000Y-102708000D01*
X98975000Y-102708000D01*
X98975000Y-104308000D01*
G37*
G36*
X99775000Y-104308000D02*
G01*
X99225000Y-104308000D01*
X99225000Y-102708000D01*
X99775000Y-102708000D01*
X99775000Y-104308000D01*
G37*
G36*
X100575000Y-104308000D02*
G01*
X100025000Y-104308000D01*
X100025000Y-102708000D01*
X100575000Y-102708000D01*
X100575000Y-104308000D01*
G37*
G36*
X101375000Y-104308000D02*
G01*
X100825000Y-104308000D01*
X100825000Y-102708000D01*
X101375000Y-102708000D01*
X101375000Y-104308000D01*
G37*
G36*
X102175000Y-104308000D02*
G01*
X101625000Y-104308000D01*
X101625000Y-102708000D01*
X102175000Y-102708000D01*
X102175000Y-104308000D01*
G37*
G36*
X102975000Y-104308000D02*
G01*
X102425000Y-104308000D01*
X102425000Y-102708000D01*
X102975000Y-102708000D01*
X102975000Y-104308000D01*
G37*
G36*
X78583537Y-103056224D02*
G01*
X78648421Y-103099579D01*
X78691776Y-103164463D01*
X78707000Y-103241000D01*
X78707000Y-103641000D01*
X78691776Y-103717537D01*
X78648421Y-103782421D01*
X78583537Y-103825776D01*
X78507000Y-103841000D01*
X77957000Y-103841000D01*
X77880463Y-103825776D01*
X77815579Y-103782421D01*
X77772224Y-103717537D01*
X77757000Y-103641000D01*
X77757000Y-103241000D01*
X77772224Y-103164463D01*
X77815579Y-103099579D01*
X77880463Y-103056224D01*
X77957000Y-103041000D01*
X78507000Y-103041000D01*
X78583537Y-103056224D01*
G37*
G36*
X80107537Y-103056224D02*
G01*
X80172421Y-103099579D01*
X80215776Y-103164463D01*
X80231000Y-103241000D01*
X80231000Y-103641000D01*
X80215776Y-103717537D01*
X80172421Y-103782421D01*
X80107537Y-103825776D01*
X80031000Y-103841000D01*
X79481000Y-103841000D01*
X79404463Y-103825776D01*
X79339579Y-103782421D01*
X79296224Y-103717537D01*
X79281000Y-103641000D01*
X79281000Y-103241000D01*
X79296224Y-103164463D01*
X79339579Y-103099579D01*
X79404463Y-103056224D01*
X79481000Y-103041000D01*
X80031000Y-103041000D01*
X80107537Y-103056224D01*
G37*
G36*
X81631537Y-103056224D02*
G01*
X81696421Y-103099579D01*
X81739776Y-103164463D01*
X81755000Y-103241000D01*
X81755000Y-103641000D01*
X81739776Y-103717537D01*
X81696421Y-103782421D01*
X81631537Y-103825776D01*
X81555000Y-103841000D01*
X81005000Y-103841000D01*
X80928463Y-103825776D01*
X80863579Y-103782421D01*
X80820224Y-103717537D01*
X80805000Y-103641000D01*
X80805000Y-103241000D01*
X80820224Y-103164463D01*
X80863579Y-103099579D01*
X80928463Y-103056224D01*
X81005000Y-103041000D01*
X81555000Y-103041000D01*
X81631537Y-103056224D01*
G37*
G36*
X68116104Y-102158127D02*
G01*
X68189099Y-102206901D01*
X68237873Y-102279896D01*
X68255000Y-102366000D01*
X68255000Y-102866000D01*
X68237873Y-102952104D01*
X68189099Y-103025099D01*
X68116104Y-103073873D01*
X68030000Y-103091000D01*
X67580000Y-103091000D01*
X67493896Y-103073873D01*
X67420901Y-103025099D01*
X67372127Y-102952104D01*
X67355000Y-102866000D01*
X67355000Y-102366000D01*
X67372127Y-102279896D01*
X67420901Y-102206901D01*
X67493896Y-102158127D01*
X67580000Y-102141000D01*
X68030000Y-102141000D01*
X68116104Y-102158127D01*
G37*
G36*
X69666104Y-102158127D02*
G01*
X69739099Y-102206901D01*
X69787873Y-102279896D01*
X69805000Y-102366000D01*
X69805000Y-102866000D01*
X69787873Y-102952104D01*
X69739099Y-103025099D01*
X69666104Y-103073873D01*
X69580000Y-103091000D01*
X69130000Y-103091000D01*
X69043896Y-103073873D01*
X68970901Y-103025099D01*
X68922127Y-102952104D01*
X68905000Y-102866000D01*
X68905000Y-102366000D01*
X68922127Y-102279896D01*
X68970901Y-102206901D01*
X69043896Y-102158127D01*
X69130000Y-102141000D01*
X69580000Y-102141000D01*
X69666104Y-102158127D01*
G37*
G36*
X72688104Y-102158127D02*
G01*
X72761099Y-102206901D01*
X72809873Y-102279896D01*
X72827000Y-102366000D01*
X72827000Y-102866000D01*
X72809873Y-102952104D01*
X72761099Y-103025099D01*
X72688104Y-103073873D01*
X72602000Y-103091000D01*
X72152000Y-103091000D01*
X72065896Y-103073873D01*
X71992901Y-103025099D01*
X71944127Y-102952104D01*
X71927000Y-102866000D01*
X71927000Y-102366000D01*
X71944127Y-102279896D01*
X71992901Y-102206901D01*
X72065896Y-102158127D01*
X72152000Y-102141000D01*
X72602000Y-102141000D01*
X72688104Y-102158127D01*
G37*
G36*
X74238104Y-102158127D02*
G01*
X74311099Y-102206901D01*
X74359873Y-102279896D01*
X74377000Y-102366000D01*
X74377000Y-102866000D01*
X74359873Y-102952104D01*
X74311099Y-103025099D01*
X74238104Y-103073873D01*
X74152000Y-103091000D01*
X73702000Y-103091000D01*
X73615896Y-103073873D01*
X73542901Y-103025099D01*
X73494127Y-102952104D01*
X73477000Y-102866000D01*
X73477000Y-102366000D01*
X73494127Y-102279896D01*
X73542901Y-102206901D01*
X73615896Y-102158127D01*
X73702000Y-102141000D01*
X74152000Y-102141000D01*
X74238104Y-102158127D01*
G37*
G36*
X109336000Y-102494500D02*
G01*
X107736000Y-102494500D01*
X107736000Y-100894500D01*
X109336000Y-100894500D01*
X109336000Y-102494500D01*
G37*
G36*
X96450000Y-102333000D02*
G01*
X94850000Y-102333000D01*
X94850000Y-101783000D01*
X96450000Y-101783000D01*
X96450000Y-102333000D01*
G37*
G36*
X104950000Y-102333000D02*
G01*
X103350000Y-102333000D01*
X103350000Y-101783000D01*
X104950000Y-101783000D01*
X104950000Y-102333000D01*
G37*
G36*
X78583537Y-101406224D02*
G01*
X78648421Y-101449579D01*
X78691776Y-101514463D01*
X78707000Y-101591000D01*
X78707000Y-101991000D01*
X78691776Y-102067537D01*
X78648421Y-102132421D01*
X78583537Y-102175776D01*
X78507000Y-102191000D01*
X77957000Y-102191000D01*
X77880463Y-102175776D01*
X77815579Y-102132421D01*
X77772224Y-102067537D01*
X77757000Y-101991000D01*
X77757000Y-101591000D01*
X77772224Y-101514463D01*
X77815579Y-101449579D01*
X77880463Y-101406224D01*
X77957000Y-101391000D01*
X78507000Y-101391000D01*
X78583537Y-101406224D01*
G37*
G36*
X80107537Y-101406224D02*
G01*
X80172421Y-101449579D01*
X80215776Y-101514463D01*
X80231000Y-101591000D01*
X80231000Y-101991000D01*
X80215776Y-102067537D01*
X80172421Y-102132421D01*
X80107537Y-102175776D01*
X80031000Y-102191000D01*
X79481000Y-102191000D01*
X79404463Y-102175776D01*
X79339579Y-102132421D01*
X79296224Y-102067537D01*
X79281000Y-101991000D01*
X79281000Y-101591000D01*
X79296224Y-101514463D01*
X79339579Y-101449579D01*
X79404463Y-101406224D01*
X79481000Y-101391000D01*
X80031000Y-101391000D01*
X80107537Y-101406224D01*
G37*
G36*
X81631537Y-101406224D02*
G01*
X81696421Y-101449579D01*
X81739776Y-101514463D01*
X81755000Y-101591000D01*
X81755000Y-101991000D01*
X81739776Y-102067537D01*
X81696421Y-102132421D01*
X81631537Y-102175776D01*
X81555000Y-102191000D01*
X81005000Y-102191000D01*
X80928463Y-102175776D01*
X80863579Y-102132421D01*
X80820224Y-102067537D01*
X80805000Y-101991000D01*
X80805000Y-101591000D01*
X80820224Y-101514463D01*
X80863579Y-101449579D01*
X80928463Y-101406224D01*
X81005000Y-101391000D01*
X81555000Y-101391000D01*
X81631537Y-101406224D01*
G37*
G36*
X125375116Y-99478818D02*
G01*
X125426379Y-99484766D01*
X125443892Y-99492499D01*
X125466671Y-99497030D01*
X125491057Y-99513324D01*
X125511788Y-99522478D01*
X125525946Y-99536636D01*
X125547777Y-99551223D01*
X125562363Y-99573053D01*
X125576521Y-99587211D01*
X125585673Y-99607939D01*
X125601970Y-99632329D01*
X125606501Y-99655109D01*
X125614233Y-99672620D01*
X125620178Y-99723872D01*
X125621000Y-99728000D01*
X125621000Y-101428000D01*
X125620178Y-101432128D01*
X125614233Y-101483379D01*
X125606501Y-101500888D01*
X125601970Y-101523671D01*
X125585672Y-101548062D01*
X125576521Y-101568788D01*
X125562365Y-101582943D01*
X125547777Y-101604777D01*
X125525943Y-101619365D01*
X125511788Y-101633521D01*
X125491062Y-101642672D01*
X125466671Y-101658970D01*
X125443888Y-101663501D01*
X125426379Y-101671233D01*
X125375129Y-101677178D01*
X125371000Y-101678000D01*
X124671000Y-101678000D01*
X124666873Y-101677179D01*
X124615620Y-101671233D01*
X124598109Y-101663501D01*
X124575329Y-101658970D01*
X124550939Y-101642673D01*
X124530211Y-101633521D01*
X124516053Y-101619363D01*
X124494223Y-101604777D01*
X124479636Y-101582946D01*
X124465478Y-101568788D01*
X124456324Y-101548057D01*
X124440030Y-101523671D01*
X124435499Y-101500892D01*
X124427766Y-101483379D01*
X124421818Y-101432117D01*
X124421000Y-101428000D01*
X124421000Y-99728000D01*
X124421818Y-99723885D01*
X124427766Y-99672620D01*
X124435499Y-99655105D01*
X124440030Y-99632329D01*
X124456323Y-99607944D01*
X124465478Y-99587211D01*
X124479638Y-99573050D01*
X124494223Y-99551223D01*
X124516050Y-99536638D01*
X124530211Y-99522478D01*
X124550944Y-99513323D01*
X124575329Y-99497030D01*
X124598105Y-99492499D01*
X124615620Y-99484766D01*
X124666884Y-99478818D01*
X124671000Y-99478000D01*
X125371000Y-99478000D01*
X125375116Y-99478818D01*
G37*
G36*
X129935116Y-99478818D02*
G01*
X129986379Y-99484766D01*
X130003892Y-99492499D01*
X130026671Y-99497030D01*
X130051057Y-99513324D01*
X130071788Y-99522478D01*
X130085946Y-99536636D01*
X130107777Y-99551223D01*
X130122363Y-99573053D01*
X130136521Y-99587211D01*
X130145673Y-99607939D01*
X130161970Y-99632329D01*
X130166501Y-99655109D01*
X130174233Y-99672620D01*
X130180178Y-99723872D01*
X130181000Y-99728000D01*
X130181000Y-101428000D01*
X130180178Y-101432128D01*
X130174233Y-101483379D01*
X130166501Y-101500888D01*
X130161970Y-101523671D01*
X130145672Y-101548062D01*
X130136521Y-101568788D01*
X130122365Y-101582943D01*
X130107777Y-101604777D01*
X130085943Y-101619365D01*
X130071788Y-101633521D01*
X130051062Y-101642672D01*
X130026671Y-101658970D01*
X130003888Y-101663501D01*
X129986379Y-101671233D01*
X129935129Y-101677178D01*
X129931000Y-101678000D01*
X129231000Y-101678000D01*
X129226873Y-101677179D01*
X129175620Y-101671233D01*
X129158109Y-101663501D01*
X129135329Y-101658970D01*
X129110939Y-101642673D01*
X129090211Y-101633521D01*
X129076053Y-101619363D01*
X129054223Y-101604777D01*
X129039636Y-101582946D01*
X129025478Y-101568788D01*
X129016324Y-101548057D01*
X129000030Y-101523671D01*
X128995499Y-101500892D01*
X128987766Y-101483379D01*
X128981818Y-101432117D01*
X128981000Y-101428000D01*
X128981000Y-99728000D01*
X128981818Y-99723885D01*
X128987766Y-99672620D01*
X128995499Y-99655105D01*
X129000030Y-99632329D01*
X129016323Y-99607944D01*
X129025478Y-99587211D01*
X129039638Y-99573050D01*
X129054223Y-99551223D01*
X129076050Y-99536638D01*
X129090211Y-99522478D01*
X129110944Y-99513323D01*
X129135329Y-99497030D01*
X129158105Y-99492499D01*
X129175620Y-99484766D01*
X129226884Y-99478818D01*
X129231000Y-99478000D01*
X129931000Y-99478000D01*
X129935116Y-99478818D01*
G37*
G36*
X68116104Y-100634127D02*
G01*
X68189099Y-100682901D01*
X68237873Y-100755896D01*
X68255000Y-100842000D01*
X68255000Y-101342000D01*
X68237873Y-101428104D01*
X68189099Y-101501099D01*
X68116104Y-101549873D01*
X68030000Y-101567000D01*
X67580000Y-101567000D01*
X67493896Y-101549873D01*
X67420901Y-101501099D01*
X67372127Y-101428104D01*
X67355000Y-101342000D01*
X67355000Y-100842000D01*
X67372127Y-100755896D01*
X67420901Y-100682901D01*
X67493896Y-100634127D01*
X67580000Y-100617000D01*
X68030000Y-100617000D01*
X68116104Y-100634127D01*
G37*
G36*
X69666104Y-100634127D02*
G01*
X69739099Y-100682901D01*
X69787873Y-100755896D01*
X69805000Y-100842000D01*
X69805000Y-101342000D01*
X69787873Y-101428104D01*
X69739099Y-101501099D01*
X69666104Y-101549873D01*
X69580000Y-101567000D01*
X69130000Y-101567000D01*
X69043896Y-101549873D01*
X68970901Y-101501099D01*
X68922127Y-101428104D01*
X68905000Y-101342000D01*
X68905000Y-100842000D01*
X68922127Y-100755896D01*
X68970901Y-100682901D01*
X69043896Y-100634127D01*
X69130000Y-100617000D01*
X69580000Y-100617000D01*
X69666104Y-100634127D01*
G37*
G36*
X72688104Y-100634127D02*
G01*
X72761099Y-100682901D01*
X72809873Y-100755896D01*
X72827000Y-100842000D01*
X72827000Y-101342000D01*
X72809873Y-101428104D01*
X72761099Y-101501099D01*
X72688104Y-101549873D01*
X72602000Y-101567000D01*
X72152000Y-101567000D01*
X72065896Y-101549873D01*
X71992901Y-101501099D01*
X71944127Y-101428104D01*
X71927000Y-101342000D01*
X71927000Y-100842000D01*
X71944127Y-100755896D01*
X71992901Y-100682901D01*
X72065896Y-100634127D01*
X72152000Y-100617000D01*
X72602000Y-100617000D01*
X72688104Y-100634127D01*
G37*
G36*
X74238104Y-100634127D02*
G01*
X74311099Y-100682901D01*
X74359873Y-100755896D01*
X74377000Y-100842000D01*
X74377000Y-101342000D01*
X74359873Y-101428104D01*
X74311099Y-101501099D01*
X74238104Y-101549873D01*
X74152000Y-101567000D01*
X73702000Y-101567000D01*
X73615896Y-101549873D01*
X73542901Y-101501099D01*
X73494127Y-101428104D01*
X73477000Y-101342000D01*
X73477000Y-100842000D01*
X73494127Y-100755896D01*
X73542901Y-100682901D01*
X73615896Y-100634127D01*
X73702000Y-100617000D01*
X74152000Y-100617000D01*
X74238104Y-100634127D01*
G37*
G36*
X96450000Y-101533000D02*
G01*
X94850000Y-101533000D01*
X94850000Y-100983000D01*
X96450000Y-100983000D01*
X96450000Y-101533000D01*
G37*
G36*
X104950000Y-101533000D02*
G01*
X103350000Y-101533000D01*
X103350000Y-100983000D01*
X104950000Y-100983000D01*
X104950000Y-101533000D01*
G37*
G36*
X96450000Y-100733000D02*
G01*
X94850000Y-100733000D01*
X94850000Y-100183000D01*
X96450000Y-100183000D01*
X96450000Y-100733000D01*
G37*
G36*
X104950000Y-100733000D02*
G01*
X103350000Y-100733000D01*
X103350000Y-100183000D01*
X104950000Y-100183000D01*
X104950000Y-100733000D01*
G37*
G36*
X96450000Y-99933000D02*
G01*
X94850000Y-99933000D01*
X94850000Y-99383000D01*
X96450000Y-99383000D01*
X96450000Y-99933000D01*
G37*
G36*
X104950000Y-99933000D02*
G01*
X103350000Y-99933000D01*
X103350000Y-99383000D01*
X104950000Y-99383000D01*
X104950000Y-99933000D01*
G37*
G36*
X114006500Y-99798000D02*
G01*
X113606500Y-99798000D01*
X113606500Y-98598000D01*
X114006500Y-98598000D01*
X114006500Y-99798000D01*
G37*
G36*
X114641500Y-99798000D02*
G01*
X114241500Y-99798000D01*
X114241500Y-98598000D01*
X114641500Y-98598000D01*
X114641500Y-99798000D01*
G37*
G36*
X115276500Y-99798000D02*
G01*
X114876500Y-99798000D01*
X114876500Y-98598000D01*
X115276500Y-98598000D01*
X115276500Y-99798000D01*
G37*
G36*
X115911500Y-99798000D02*
G01*
X115511500Y-99798000D01*
X115511500Y-98598000D01*
X115911500Y-98598000D01*
X115911500Y-99798000D01*
G37*
G36*
X116546500Y-99798000D02*
G01*
X116146500Y-99798000D01*
X116146500Y-98598000D01*
X116546500Y-98598000D01*
X116546500Y-99798000D01*
G37*
G36*
X117181500Y-99798000D02*
G01*
X116781500Y-99798000D01*
X116781500Y-98598000D01*
X117181500Y-98598000D01*
X117181500Y-99798000D01*
G37*
G36*
X117816500Y-99798000D02*
G01*
X117416500Y-99798000D01*
X117416500Y-98598000D01*
X117816500Y-98598000D01*
X117816500Y-99798000D01*
G37*
G36*
X118451500Y-99798000D02*
G01*
X118051500Y-99798000D01*
X118051500Y-98598000D01*
X118451500Y-98598000D01*
X118451500Y-99798000D01*
G37*
G36*
X119086500Y-99798000D02*
G01*
X118686500Y-99798000D01*
X118686500Y-98598000D01*
X119086500Y-98598000D01*
X119086500Y-99798000D01*
G37*
G36*
X119721500Y-99798000D02*
G01*
X119321500Y-99798000D01*
X119321500Y-98598000D01*
X119721500Y-98598000D01*
X119721500Y-99798000D01*
G37*
G36*
X106840104Y-98692127D02*
G01*
X106913099Y-98740901D01*
X106961873Y-98813896D01*
X106979000Y-98900000D01*
X106979000Y-99350000D01*
X106961873Y-99436104D01*
X106913099Y-99509099D01*
X106840104Y-99557873D01*
X106754000Y-99575000D01*
X106254000Y-99575000D01*
X106167896Y-99557873D01*
X106094901Y-99509099D01*
X106046127Y-99436104D01*
X106029000Y-99350000D01*
X106029000Y-98900000D01*
X106046127Y-98813896D01*
X106094901Y-98740901D01*
X106167896Y-98692127D01*
X106254000Y-98675000D01*
X106754000Y-98675000D01*
X106840104Y-98692127D01*
G37*
G36*
X108887537Y-98790224D02*
G01*
X108952421Y-98833579D01*
X108995776Y-98898463D01*
X109011000Y-98975000D01*
X109011000Y-99375000D01*
X108995776Y-99451537D01*
X108952421Y-99516421D01*
X108887537Y-99559776D01*
X108811000Y-99575000D01*
X108261000Y-99575000D01*
X108184463Y-99559776D01*
X108119579Y-99516421D01*
X108076224Y-99451537D01*
X108061000Y-99375000D01*
X108061000Y-98975000D01*
X108076224Y-98898463D01*
X108119579Y-98833579D01*
X108184463Y-98790224D01*
X108261000Y-98775000D01*
X108811000Y-98775000D01*
X108887537Y-98790224D01*
G37*
G36*
X96450000Y-99133000D02*
G01*
X94850000Y-99133000D01*
X94850000Y-98583000D01*
X96450000Y-98583000D01*
X96450000Y-99133000D01*
G37*
G36*
X104950000Y-99133000D02*
G01*
X103350000Y-99133000D01*
X103350000Y-98583000D01*
X104950000Y-98583000D01*
X104950000Y-99133000D01*
G37*
G36*
X124786104Y-97792127D02*
G01*
X124859099Y-97840901D01*
X124907873Y-97913896D01*
X124925000Y-98000000D01*
X124925000Y-98500000D01*
X124907873Y-98586104D01*
X124859099Y-98659099D01*
X124786104Y-98707873D01*
X124700000Y-98725000D01*
X124250000Y-98725000D01*
X124163896Y-98707873D01*
X124090901Y-98659099D01*
X124042127Y-98586104D01*
X124025000Y-98500000D01*
X124025000Y-98000000D01*
X124042127Y-97913896D01*
X124090901Y-97840901D01*
X124163896Y-97792127D01*
X124250000Y-97775000D01*
X124700000Y-97775000D01*
X124786104Y-97792127D01*
G37*
G36*
X126336104Y-97792127D02*
G01*
X126409099Y-97840901D01*
X126457873Y-97913896D01*
X126475000Y-98000000D01*
X126475000Y-98500000D01*
X126457873Y-98586104D01*
X126409099Y-98659099D01*
X126336104Y-98707873D01*
X126250000Y-98725000D01*
X125800000Y-98725000D01*
X125713896Y-98707873D01*
X125640901Y-98659099D01*
X125592127Y-98586104D01*
X125575000Y-98500000D01*
X125575000Y-98000000D01*
X125592127Y-97913896D01*
X125640901Y-97840901D01*
X125713896Y-97792127D01*
X125800000Y-97775000D01*
X126250000Y-97775000D01*
X126336104Y-97792127D01*
G37*
G36*
X128869104Y-97784127D02*
G01*
X128942099Y-97832901D01*
X128990873Y-97905896D01*
X129008000Y-97992000D01*
X129008000Y-98492000D01*
X128990873Y-98578104D01*
X128942099Y-98651099D01*
X128869104Y-98699873D01*
X128783000Y-98717000D01*
X128333000Y-98717000D01*
X128246896Y-98699873D01*
X128173901Y-98651099D01*
X128125127Y-98578104D01*
X128108000Y-98492000D01*
X128108000Y-97992000D01*
X128125127Y-97905896D01*
X128173901Y-97832901D01*
X128246896Y-97784127D01*
X128333000Y-97767000D01*
X128783000Y-97767000D01*
X128869104Y-97784127D01*
G37*
G36*
X130419104Y-97784127D02*
G01*
X130492099Y-97832901D01*
X130540873Y-97905896D01*
X130558000Y-97992000D01*
X130558000Y-98492000D01*
X130540873Y-98578104D01*
X130492099Y-98651099D01*
X130419104Y-98699873D01*
X130333000Y-98717000D01*
X129883000Y-98717000D01*
X129796896Y-98699873D01*
X129723901Y-98651099D01*
X129675127Y-98578104D01*
X129658000Y-98492000D01*
X129658000Y-97992000D01*
X129675127Y-97905896D01*
X129723901Y-97832901D01*
X129796896Y-97784127D01*
X129883000Y-97767000D01*
X130333000Y-97767000D01*
X130419104Y-97784127D01*
G37*
G36*
X96450000Y-98333000D02*
G01*
X94850000Y-98333000D01*
X94850000Y-97783000D01*
X96450000Y-97783000D01*
X96450000Y-98333000D01*
G37*
G36*
X104950000Y-98333000D02*
G01*
X103350000Y-98333000D01*
X103350000Y-97783000D01*
X104950000Y-97783000D01*
X104950000Y-98333000D01*
G37*
G36*
X106840104Y-97142127D02*
G01*
X106913099Y-97190901D01*
X106961873Y-97263896D01*
X106979000Y-97350000D01*
X106979000Y-97800000D01*
X106961873Y-97886104D01*
X106913099Y-97959099D01*
X106840104Y-98007873D01*
X106754000Y-98025000D01*
X106254000Y-98025000D01*
X106167896Y-98007873D01*
X106094901Y-97959099D01*
X106046127Y-97886104D01*
X106029000Y-97800000D01*
X106029000Y-97350000D01*
X106046127Y-97263896D01*
X106094901Y-97190901D01*
X106167896Y-97142127D01*
X106254000Y-97125000D01*
X106754000Y-97125000D01*
X106840104Y-97142127D01*
G37*
G36*
X108887537Y-97140224D02*
G01*
X108952421Y-97183579D01*
X108995776Y-97248463D01*
X109011000Y-97325000D01*
X109011000Y-97725000D01*
X108995776Y-97801537D01*
X108952421Y-97866421D01*
X108887537Y-97909776D01*
X108811000Y-97925000D01*
X108261000Y-97925000D01*
X108184463Y-97909776D01*
X108119579Y-97866421D01*
X108076224Y-97801537D01*
X108061000Y-97725000D01*
X108061000Y-97325000D01*
X108076224Y-97248463D01*
X108119579Y-97183579D01*
X108184463Y-97140224D01*
X108261000Y-97125000D01*
X108811000Y-97125000D01*
X108887537Y-97140224D01*
G37*
G36*
X115868104Y-96824127D02*
G01*
X115941099Y-96872901D01*
X115989873Y-96945896D01*
X116007000Y-97032000D01*
X116007000Y-97532000D01*
X115989873Y-97618104D01*
X115941099Y-97691099D01*
X115868104Y-97739873D01*
X115782000Y-97757000D01*
X115332000Y-97757000D01*
X115245896Y-97739873D01*
X115172901Y-97691099D01*
X115124127Y-97618104D01*
X115107000Y-97532000D01*
X115107000Y-97032000D01*
X115124127Y-96945896D01*
X115172901Y-96872901D01*
X115245896Y-96824127D01*
X115332000Y-96807000D01*
X115782000Y-96807000D01*
X115868104Y-96824127D01*
G37*
G36*
X117418104Y-96824127D02*
G01*
X117491099Y-96872901D01*
X117539873Y-96945896D01*
X117557000Y-97032000D01*
X117557000Y-97532000D01*
X117539873Y-97618104D01*
X117491099Y-97691099D01*
X117418104Y-97739873D01*
X117332000Y-97757000D01*
X116882000Y-97757000D01*
X116795896Y-97739873D01*
X116722901Y-97691099D01*
X116674127Y-97618104D01*
X116657000Y-97532000D01*
X116657000Y-97032000D01*
X116674127Y-96945896D01*
X116722901Y-96872901D01*
X116795896Y-96824127D01*
X116882000Y-96807000D01*
X117332000Y-96807000D01*
X117418104Y-96824127D01*
G37*
G36*
X96450000Y-97533000D02*
G01*
X94850000Y-97533000D01*
X94850000Y-96983000D01*
X96450000Y-96983000D01*
X96450000Y-97533000D01*
G37*
G36*
X104950000Y-97533000D02*
G01*
X103350000Y-97533000D01*
X103350000Y-96983000D01*
X104950000Y-96983000D01*
X104950000Y-97533000D01*
G37*
G36*
X119339537Y-96060224D02*
G01*
X119404421Y-96103579D01*
X119447776Y-96168463D01*
X119463000Y-96245000D01*
X119463000Y-96795000D01*
X119447776Y-96871537D01*
X119404421Y-96936421D01*
X119339537Y-96979776D01*
X119263000Y-96995000D01*
X118863000Y-96995000D01*
X118786463Y-96979776D01*
X118721579Y-96936421D01*
X118678224Y-96871537D01*
X118663000Y-96795000D01*
X118663000Y-96245000D01*
X118678224Y-96168463D01*
X118721579Y-96103579D01*
X118786463Y-96060224D01*
X118863000Y-96045000D01*
X119263000Y-96045000D01*
X119339537Y-96060224D01*
G37*
G36*
X120989537Y-96060224D02*
G01*
X121054421Y-96103579D01*
X121097776Y-96168463D01*
X121113000Y-96245000D01*
X121113000Y-96795000D01*
X121097776Y-96871537D01*
X121054421Y-96936421D01*
X120989537Y-96979776D01*
X120913000Y-96995000D01*
X120513000Y-96995000D01*
X120436463Y-96979776D01*
X120371579Y-96936421D01*
X120328224Y-96871537D01*
X120313000Y-96795000D01*
X120313000Y-96245000D01*
X120328224Y-96168463D01*
X120371579Y-96103579D01*
X120436463Y-96060224D01*
X120513000Y-96045000D01*
X120913000Y-96045000D01*
X120989537Y-96060224D01*
G37*
G36*
X96450000Y-96733000D02*
G01*
X94850000Y-96733000D01*
X94850000Y-96183000D01*
X96450000Y-96183000D01*
X96450000Y-96733000D01*
G37*
G36*
X104950000Y-96733000D02*
G01*
X103350000Y-96733000D01*
X103350000Y-96183000D01*
X104950000Y-96183000D01*
X104950000Y-96733000D01*
G37*
G36*
X106855537Y-95742224D02*
G01*
X106920421Y-95785579D01*
X106963776Y-95850463D01*
X106979000Y-95927000D01*
X106979000Y-96327000D01*
X106963776Y-96403537D01*
X106920421Y-96468421D01*
X106855537Y-96511776D01*
X106779000Y-96527000D01*
X106229000Y-96527000D01*
X106152463Y-96511776D01*
X106087579Y-96468421D01*
X106044224Y-96403537D01*
X106029000Y-96327000D01*
X106029000Y-95927000D01*
X106044224Y-95850463D01*
X106087579Y-95785579D01*
X106152463Y-95742224D01*
X106229000Y-95727000D01*
X106779000Y-95727000D01*
X106855537Y-95742224D01*
G37*
G36*
X110791507Y-95195294D02*
G01*
X110854937Y-95203644D01*
X110870895Y-95211085D01*
X110890238Y-95214933D01*
X110915859Y-95232052D01*
X110942286Y-95244376D01*
X110958363Y-95260453D01*
X110979454Y-95274546D01*
X110993546Y-95295636D01*
X111009623Y-95311713D01*
X111021944Y-95338136D01*
X111039067Y-95363762D01*
X111042915Y-95383108D01*
X111050353Y-95399059D01*
X111058699Y-95462460D01*
X111060000Y-95469000D01*
X111060000Y-96019000D01*
X111058702Y-96025522D01*
X111050355Y-96088937D01*
X111042915Y-96104891D01*
X111039067Y-96124238D01*
X111021943Y-96149864D01*
X111009623Y-96176286D01*
X110993548Y-96192360D01*
X110979454Y-96213454D01*
X110958360Y-96227548D01*
X110942286Y-96243623D01*
X110915865Y-96255943D01*
X110890238Y-96273067D01*
X110870889Y-96276915D01*
X110854940Y-96284353D01*
X110791541Y-96292698D01*
X110785000Y-96294000D01*
X109335000Y-96294000D01*
X109328479Y-96292702D01*
X109265062Y-96284355D01*
X109249106Y-96276914D01*
X109229762Y-96273067D01*
X109204137Y-96255945D01*
X109177713Y-96243623D01*
X109161636Y-96227546D01*
X109140546Y-96213454D01*
X109126453Y-96192363D01*
X109110376Y-96176286D01*
X109098053Y-96149860D01*
X109080933Y-96124238D01*
X109077085Y-96104893D01*
X109069646Y-96088940D01*
X109061298Y-96025526D01*
X109060000Y-96019000D01*
X109060000Y-95469000D01*
X109061294Y-95462494D01*
X109069644Y-95399062D01*
X109077085Y-95383103D01*
X109080933Y-95363762D01*
X109098051Y-95338142D01*
X109110376Y-95311713D01*
X109126455Y-95295633D01*
X109140546Y-95274546D01*
X109161633Y-95260455D01*
X109177713Y-95244376D01*
X109204141Y-95232052D01*
X109229762Y-95214933D01*
X109249104Y-95211085D01*
X109265059Y-95203646D01*
X109328475Y-95195297D01*
X109335000Y-95194000D01*
X110785000Y-95194000D01*
X110791507Y-95195294D01*
G37*
G36*
X115868104Y-95300127D02*
G01*
X115941099Y-95348901D01*
X115989873Y-95421896D01*
X116007000Y-95508000D01*
X116007000Y-96008000D01*
X115989873Y-96094104D01*
X115941099Y-96167099D01*
X115868104Y-96215873D01*
X115782000Y-96233000D01*
X115332000Y-96233000D01*
X115245896Y-96215873D01*
X115172901Y-96167099D01*
X115124127Y-96094104D01*
X115107000Y-96008000D01*
X115107000Y-95508000D01*
X115124127Y-95421896D01*
X115172901Y-95348901D01*
X115245896Y-95300127D01*
X115332000Y-95283000D01*
X115782000Y-95283000D01*
X115868104Y-95300127D01*
G37*
G36*
X117418104Y-95300127D02*
G01*
X117491099Y-95348901D01*
X117539873Y-95421896D01*
X117557000Y-95508000D01*
X117557000Y-96008000D01*
X117539873Y-96094104D01*
X117491099Y-96167099D01*
X117418104Y-96215873D01*
X117332000Y-96233000D01*
X116882000Y-96233000D01*
X116795896Y-96215873D01*
X116722901Y-96167099D01*
X116674127Y-96094104D01*
X116657000Y-96008000D01*
X116657000Y-95508000D01*
X116674127Y-95421896D01*
X116722901Y-95348901D01*
X116795896Y-95300127D01*
X116882000Y-95283000D01*
X117332000Y-95283000D01*
X117418104Y-95300127D01*
G37*
G36*
X97375000Y-95808000D02*
G01*
X96825000Y-95808000D01*
X96825000Y-94208000D01*
X97375000Y-94208000D01*
X97375000Y-95808000D01*
G37*
G36*
X98175000Y-95808000D02*
G01*
X97625000Y-95808000D01*
X97625000Y-94208000D01*
X98175000Y-94208000D01*
X98175000Y-95808000D01*
G37*
G36*
X98975000Y-95808000D02*
G01*
X98425000Y-95808000D01*
X98425000Y-94208000D01*
X98975000Y-94208000D01*
X98975000Y-95808000D01*
G37*
G36*
X99775000Y-95808000D02*
G01*
X99225000Y-95808000D01*
X99225000Y-94208000D01*
X99775000Y-94208000D01*
X99775000Y-95808000D01*
G37*
G36*
X100575000Y-95808000D02*
G01*
X100025000Y-95808000D01*
X100025000Y-94208000D01*
X100575000Y-94208000D01*
X100575000Y-95808000D01*
G37*
G36*
X101375000Y-95808000D02*
G01*
X100825000Y-95808000D01*
X100825000Y-94208000D01*
X101375000Y-94208000D01*
X101375000Y-95808000D01*
G37*
G36*
X102175000Y-95808000D02*
G01*
X101625000Y-95808000D01*
X101625000Y-94208000D01*
X102175000Y-94208000D01*
X102175000Y-95808000D01*
G37*
G36*
X102975000Y-95808000D02*
G01*
X102425000Y-95808000D01*
X102425000Y-94208000D01*
X102975000Y-94208000D01*
X102975000Y-95808000D01*
G37*
G36*
X119339537Y-94536224D02*
G01*
X119404421Y-94579579D01*
X119447776Y-94644463D01*
X119463000Y-94721000D01*
X119463000Y-95271000D01*
X119447776Y-95347537D01*
X119404421Y-95412421D01*
X119339537Y-95455776D01*
X119263000Y-95471000D01*
X118863000Y-95471000D01*
X118786463Y-95455776D01*
X118721579Y-95412421D01*
X118678224Y-95347537D01*
X118663000Y-95271000D01*
X118663000Y-94721000D01*
X118678224Y-94644463D01*
X118721579Y-94579579D01*
X118786463Y-94536224D01*
X118863000Y-94521000D01*
X119263000Y-94521000D01*
X119339537Y-94536224D01*
G37*
G36*
X120989537Y-94536224D02*
G01*
X121054421Y-94579579D01*
X121097776Y-94644463D01*
X121113000Y-94721000D01*
X121113000Y-95271000D01*
X121097776Y-95347537D01*
X121054421Y-95412421D01*
X120989537Y-95455776D01*
X120913000Y-95471000D01*
X120513000Y-95471000D01*
X120436463Y-95455776D01*
X120371579Y-95412421D01*
X120328224Y-95347537D01*
X120313000Y-95271000D01*
X120313000Y-94721000D01*
X120328224Y-94644463D01*
X120371579Y-94579579D01*
X120436463Y-94536224D01*
X120513000Y-94521000D01*
X120913000Y-94521000D01*
X120989537Y-94536224D01*
G37*
G36*
X150351616Y-93695818D02*
G01*
X150402879Y-93701766D01*
X150420392Y-93709499D01*
X150443171Y-93714030D01*
X150467557Y-93730324D01*
X150488288Y-93739478D01*
X150502446Y-93753636D01*
X150524277Y-93768223D01*
X150538863Y-93790053D01*
X150553021Y-93804211D01*
X150562173Y-93824939D01*
X150578470Y-93849329D01*
X150583001Y-93872109D01*
X150590733Y-93889620D01*
X150596678Y-93940872D01*
X150597500Y-93945000D01*
X150597500Y-95145000D01*
X150596678Y-95149128D01*
X150590733Y-95200379D01*
X150583001Y-95217888D01*
X150578470Y-95240671D01*
X150562172Y-95265062D01*
X150553021Y-95285788D01*
X150538865Y-95299943D01*
X150524277Y-95321777D01*
X150502443Y-95336365D01*
X150488288Y-95350521D01*
X150467562Y-95359672D01*
X150443171Y-95375970D01*
X150420388Y-95380501D01*
X150402879Y-95388233D01*
X150351629Y-95394178D01*
X150347500Y-95395000D01*
X149147500Y-95395000D01*
X149143373Y-95394179D01*
X149092120Y-95388233D01*
X149074609Y-95380501D01*
X149051829Y-95375970D01*
X149027439Y-95359673D01*
X149006711Y-95350521D01*
X148992553Y-95336363D01*
X148970723Y-95321777D01*
X148956136Y-95299946D01*
X148941978Y-95285788D01*
X148932824Y-95265057D01*
X148916530Y-95240671D01*
X148911999Y-95217892D01*
X148904266Y-95200379D01*
X148898318Y-95149117D01*
X148897500Y-95145000D01*
X148897500Y-93945000D01*
X148898318Y-93940885D01*
X148904266Y-93889620D01*
X148911999Y-93872105D01*
X148916530Y-93849329D01*
X148932823Y-93824944D01*
X148941978Y-93804211D01*
X148956138Y-93790050D01*
X148970723Y-93768223D01*
X148992550Y-93753638D01*
X149006711Y-93739478D01*
X149027444Y-93730323D01*
X149051829Y-93714030D01*
X149074605Y-93709499D01*
X149092120Y-93701766D01*
X149143384Y-93695818D01*
X149147500Y-93695000D01*
X150347500Y-93695000D01*
X150351616Y-93695818D01*
G37*
G36*
X152550164Y-93736602D02*
G01*
X152712500Y-93808878D01*
X152856261Y-93913327D01*
X152975164Y-94045383D01*
X153064014Y-94199274D01*
X153118925Y-94368275D01*
X153137500Y-94545000D01*
X153118925Y-94721725D01*
X153064014Y-94890726D01*
X152975164Y-95044617D01*
X152856261Y-95176673D01*
X152712500Y-95281122D01*
X152550164Y-95353398D01*
X152376349Y-95390344D01*
X152198651Y-95390344D01*
X152024836Y-95353398D01*
X151862500Y-95281122D01*
X151718739Y-95176673D01*
X151599836Y-95044617D01*
X151510986Y-94890726D01*
X151456075Y-94721725D01*
X151437500Y-94545000D01*
X151456075Y-94368275D01*
X151510986Y-94199274D01*
X151599836Y-94045383D01*
X151718739Y-93913327D01*
X151862500Y-93808878D01*
X152024836Y-93736602D01*
X152198651Y-93699656D01*
X152376349Y-93699656D01*
X152550164Y-93736602D01*
G37*
G36*
X106855537Y-94092224D02*
G01*
X106920421Y-94135579D01*
X106963776Y-94200463D01*
X106979000Y-94277000D01*
X106979000Y-94677000D01*
X106963776Y-94753537D01*
X106920421Y-94818421D01*
X106855537Y-94861776D01*
X106779000Y-94877000D01*
X106229000Y-94877000D01*
X106152463Y-94861776D01*
X106087579Y-94818421D01*
X106044224Y-94753537D01*
X106029000Y-94677000D01*
X106029000Y-94277000D01*
X106044224Y-94200463D01*
X106087579Y-94135579D01*
X106152463Y-94092224D01*
X106229000Y-94077000D01*
X106779000Y-94077000D01*
X106855537Y-94092224D01*
G37*
G36*
X115783537Y-93774224D02*
G01*
X115848421Y-93817579D01*
X115891776Y-93882463D01*
X115907000Y-93959000D01*
X115907000Y-94509000D01*
X115891776Y-94585537D01*
X115848421Y-94650421D01*
X115783537Y-94693776D01*
X115707000Y-94709000D01*
X115307000Y-94709000D01*
X115230463Y-94693776D01*
X115165579Y-94650421D01*
X115122224Y-94585537D01*
X115107000Y-94509000D01*
X115107000Y-93959000D01*
X115122224Y-93882463D01*
X115165579Y-93817579D01*
X115230463Y-93774224D01*
X115307000Y-93759000D01*
X115707000Y-93759000D01*
X115783537Y-93774224D01*
G37*
G36*
X117433537Y-93774224D02*
G01*
X117498421Y-93817579D01*
X117541776Y-93882463D01*
X117557000Y-93959000D01*
X117557000Y-94509000D01*
X117541776Y-94585537D01*
X117498421Y-94650421D01*
X117433537Y-94693776D01*
X117357000Y-94709000D01*
X116957000Y-94709000D01*
X116880463Y-94693776D01*
X116815579Y-94650421D01*
X116772224Y-94585537D01*
X116757000Y-94509000D01*
X116757000Y-93959000D01*
X116772224Y-93882463D01*
X116815579Y-93817579D01*
X116880463Y-93774224D01*
X116957000Y-93759000D01*
X117357000Y-93759000D01*
X117433537Y-93774224D01*
G37*
G36*
X98420104Y-92304127D02*
G01*
X98493099Y-92352901D01*
X98541873Y-92425896D01*
X98559000Y-92512000D01*
X98559000Y-93012000D01*
X98541873Y-93098104D01*
X98493099Y-93171099D01*
X98420104Y-93219873D01*
X98334000Y-93237000D01*
X97884000Y-93237000D01*
X97797896Y-93219873D01*
X97724901Y-93171099D01*
X97676127Y-93098104D01*
X97659000Y-93012000D01*
X97659000Y-92512000D01*
X97676127Y-92425896D01*
X97724901Y-92352901D01*
X97797896Y-92304127D01*
X97884000Y-92287000D01*
X98334000Y-92287000D01*
X98420104Y-92304127D01*
G37*
G36*
X99970104Y-92304127D02*
G01*
X100043099Y-92352901D01*
X100091873Y-92425896D01*
X100109000Y-92512000D01*
X100109000Y-93012000D01*
X100091873Y-93098104D01*
X100043099Y-93171099D01*
X99970104Y-93219873D01*
X99884000Y-93237000D01*
X99434000Y-93237000D01*
X99347896Y-93219873D01*
X99274901Y-93171099D01*
X99226127Y-93098104D01*
X99209000Y-93012000D01*
X99209000Y-92512000D01*
X99226127Y-92425896D01*
X99274901Y-92352901D01*
X99347896Y-92304127D01*
X99434000Y-92287000D01*
X99884000Y-92287000D01*
X99970104Y-92304127D01*
G37*
G36*
X115783537Y-92250224D02*
G01*
X115848421Y-92293579D01*
X115891776Y-92358463D01*
X115907000Y-92435000D01*
X115907000Y-92985000D01*
X115891776Y-93061537D01*
X115848421Y-93126421D01*
X115783537Y-93169776D01*
X115707000Y-93185000D01*
X115307000Y-93185000D01*
X115230463Y-93169776D01*
X115165579Y-93126421D01*
X115122224Y-93061537D01*
X115107000Y-92985000D01*
X115107000Y-92435000D01*
X115122224Y-92358463D01*
X115165579Y-92293579D01*
X115230463Y-92250224D01*
X115307000Y-92235000D01*
X115707000Y-92235000D01*
X115783537Y-92250224D01*
G37*
G36*
X117433537Y-92250224D02*
G01*
X117498421Y-92293579D01*
X117541776Y-92358463D01*
X117557000Y-92435000D01*
X117557000Y-92985000D01*
X117541776Y-93061537D01*
X117498421Y-93126421D01*
X117433537Y-93169776D01*
X117357000Y-93185000D01*
X116957000Y-93185000D01*
X116880463Y-93169776D01*
X116815579Y-93126421D01*
X116772224Y-93061537D01*
X116757000Y-92985000D01*
X116757000Y-92435000D01*
X116772224Y-92358463D01*
X116815579Y-92293579D01*
X116880463Y-92250224D01*
X116957000Y-92235000D01*
X117357000Y-92235000D01*
X117433537Y-92250224D01*
G37*
G36*
X150010164Y-91196602D02*
G01*
X150172500Y-91268878D01*
X150316261Y-91373327D01*
X150435164Y-91505383D01*
X150524014Y-91659274D01*
X150578925Y-91828275D01*
X150597500Y-92005000D01*
X150578925Y-92181725D01*
X150524014Y-92350726D01*
X150435164Y-92504617D01*
X150316261Y-92636673D01*
X150172500Y-92741122D01*
X150010164Y-92813398D01*
X149836349Y-92850344D01*
X149658651Y-92850344D01*
X149484836Y-92813398D01*
X149322500Y-92741122D01*
X149178739Y-92636673D01*
X149059836Y-92504617D01*
X148970986Y-92350726D01*
X148916075Y-92181725D01*
X148897500Y-92005000D01*
X148916075Y-91828275D01*
X148970986Y-91659274D01*
X149059836Y-91505383D01*
X149178739Y-91373327D01*
X149322500Y-91268878D01*
X149484836Y-91196602D01*
X149658651Y-91159656D01*
X149836349Y-91159656D01*
X150010164Y-91196602D01*
G37*
G36*
X152550164Y-91196602D02*
G01*
X152712500Y-91268878D01*
X152856261Y-91373327D01*
X152975164Y-91505383D01*
X153064014Y-91659274D01*
X153118925Y-91828275D01*
X153137500Y-92005000D01*
X153118925Y-92181725D01*
X153064014Y-92350726D01*
X152975164Y-92504617D01*
X152856261Y-92636673D01*
X152712500Y-92741122D01*
X152550164Y-92813398D01*
X152376349Y-92850344D01*
X152198651Y-92850344D01*
X152024836Y-92813398D01*
X151862500Y-92741122D01*
X151718739Y-92636673D01*
X151599836Y-92504617D01*
X151510986Y-92350726D01*
X151456075Y-92181725D01*
X151437500Y-92005000D01*
X151456075Y-91828275D01*
X151510986Y-91659274D01*
X151599836Y-91505383D01*
X151718739Y-91373327D01*
X151862500Y-91268878D01*
X152024836Y-91196602D01*
X152198651Y-91159656D01*
X152376349Y-91159656D01*
X152550164Y-91196602D01*
G37*
G36*
X110791507Y-90695294D02*
G01*
X110854937Y-90703644D01*
X110870895Y-90711085D01*
X110890238Y-90714933D01*
X110915859Y-90732052D01*
X110942286Y-90744376D01*
X110958363Y-90760453D01*
X110979454Y-90774546D01*
X110993546Y-90795636D01*
X111009623Y-90811713D01*
X111021944Y-90838136D01*
X111039067Y-90863762D01*
X111042915Y-90883108D01*
X111050353Y-90899059D01*
X111058699Y-90962460D01*
X111060000Y-90969000D01*
X111060000Y-91519000D01*
X111058702Y-91525522D01*
X111050355Y-91588937D01*
X111042915Y-91604891D01*
X111039067Y-91624238D01*
X111021943Y-91649864D01*
X111009623Y-91676286D01*
X110993548Y-91692360D01*
X110979454Y-91713454D01*
X110958360Y-91727548D01*
X110942286Y-91743623D01*
X110915865Y-91755943D01*
X110890238Y-91773067D01*
X110870889Y-91776915D01*
X110854940Y-91784353D01*
X110791541Y-91792698D01*
X110785000Y-91794000D01*
X109335000Y-91794000D01*
X109328479Y-91792702D01*
X109265062Y-91784355D01*
X109249106Y-91776914D01*
X109229762Y-91773067D01*
X109204137Y-91755945D01*
X109177713Y-91743623D01*
X109161636Y-91727546D01*
X109140546Y-91713454D01*
X109126453Y-91692363D01*
X109110376Y-91676286D01*
X109098053Y-91649860D01*
X109080933Y-91624238D01*
X109077085Y-91604893D01*
X109069646Y-91588940D01*
X109061298Y-91525526D01*
X109060000Y-91519000D01*
X109060000Y-90969000D01*
X109061294Y-90962494D01*
X109069644Y-90899062D01*
X109077085Y-90883103D01*
X109080933Y-90863762D01*
X109098051Y-90838142D01*
X109110376Y-90811713D01*
X109126455Y-90795633D01*
X109140546Y-90774546D01*
X109161633Y-90760455D01*
X109177713Y-90744376D01*
X109204141Y-90732052D01*
X109229762Y-90714933D01*
X109249104Y-90711085D01*
X109265059Y-90703646D01*
X109328475Y-90695297D01*
X109335000Y-90694000D01*
X110785000Y-90694000D01*
X110791507Y-90695294D01*
G37*
G36*
X115868104Y-90728127D02*
G01*
X115941099Y-90776901D01*
X115989873Y-90849896D01*
X116007000Y-90936000D01*
X116007000Y-91436000D01*
X115989873Y-91522104D01*
X115941099Y-91595099D01*
X115868104Y-91643873D01*
X115782000Y-91661000D01*
X115332000Y-91661000D01*
X115245896Y-91643873D01*
X115172901Y-91595099D01*
X115124127Y-91522104D01*
X115107000Y-91436000D01*
X115107000Y-90936000D01*
X115124127Y-90849896D01*
X115172901Y-90776901D01*
X115245896Y-90728127D01*
X115332000Y-90711000D01*
X115782000Y-90711000D01*
X115868104Y-90728127D01*
G37*
G36*
X117418104Y-90728127D02*
G01*
X117491099Y-90776901D01*
X117539873Y-90849896D01*
X117557000Y-90936000D01*
X117557000Y-91436000D01*
X117539873Y-91522104D01*
X117491099Y-91595099D01*
X117418104Y-91643873D01*
X117332000Y-91661000D01*
X116882000Y-91661000D01*
X116795896Y-91643873D01*
X116722901Y-91595099D01*
X116674127Y-91522104D01*
X116657000Y-91436000D01*
X116657000Y-90936000D01*
X116674127Y-90849896D01*
X116722901Y-90776901D01*
X116795896Y-90728127D01*
X116882000Y-90711000D01*
X117332000Y-90711000D01*
X117418104Y-90728127D01*
G37*
G36*
X150010164Y-88656602D02*
G01*
X150172500Y-88728878D01*
X150316261Y-88833327D01*
X150435164Y-88965383D01*
X150524014Y-89119274D01*
X150578925Y-89288275D01*
X150597500Y-89465000D01*
X150578925Y-89641725D01*
X150524014Y-89810726D01*
X150435164Y-89964617D01*
X150316261Y-90096673D01*
X150172500Y-90201122D01*
X150010164Y-90273398D01*
X149836349Y-90310344D01*
X149658651Y-90310344D01*
X149484836Y-90273398D01*
X149322500Y-90201122D01*
X149178739Y-90096673D01*
X149059836Y-89964617D01*
X148970986Y-89810726D01*
X148916075Y-89641725D01*
X148897500Y-89465000D01*
X148916075Y-89288275D01*
X148970986Y-89119274D01*
X149059836Y-88965383D01*
X149178739Y-88833327D01*
X149322500Y-88728878D01*
X149484836Y-88656602D01*
X149658651Y-88619656D01*
X149836349Y-88619656D01*
X150010164Y-88656602D01*
G37*
G36*
X152550164Y-88656602D02*
G01*
X152712500Y-88728878D01*
X152856261Y-88833327D01*
X152975164Y-88965383D01*
X153064014Y-89119274D01*
X153118925Y-89288275D01*
X153137500Y-89465000D01*
X153118925Y-89641725D01*
X153064014Y-89810726D01*
X152975164Y-89964617D01*
X152856261Y-90096673D01*
X152712500Y-90201122D01*
X152550164Y-90273398D01*
X152376349Y-90310344D01*
X152198651Y-90310344D01*
X152024836Y-90273398D01*
X151862500Y-90201122D01*
X151718739Y-90096673D01*
X151599836Y-89964617D01*
X151510986Y-89810726D01*
X151456075Y-89641725D01*
X151437500Y-89465000D01*
X151456075Y-89288275D01*
X151510986Y-89119274D01*
X151599836Y-88965383D01*
X151718739Y-88833327D01*
X151862500Y-88728878D01*
X152024836Y-88656602D01*
X152198651Y-88619656D01*
X152376349Y-88619656D01*
X152550164Y-88656602D01*
G37*
G36*
X126160000Y-80850000D02*
G01*
X124460000Y-80850000D01*
X124460000Y-79150000D01*
X126160000Y-79150000D01*
X126160000Y-80850000D01*
G37*
G36*
X117952664Y-79191602D02*
G01*
X118115000Y-79263878D01*
X118258761Y-79368327D01*
X118377664Y-79500383D01*
X118466514Y-79654274D01*
X118521425Y-79823275D01*
X118540000Y-80000000D01*
X118521425Y-80176725D01*
X118466514Y-80345726D01*
X118377664Y-80499617D01*
X118258761Y-80631673D01*
X118115000Y-80736122D01*
X117952664Y-80808398D01*
X117778849Y-80845344D01*
X117601151Y-80845344D01*
X117427336Y-80808398D01*
X117265000Y-80736122D01*
X117121239Y-80631673D01*
X117002336Y-80499617D01*
X116913486Y-80345726D01*
X116858575Y-80176725D01*
X116840000Y-80000000D01*
X116858575Y-79823275D01*
X116913486Y-79654274D01*
X117002336Y-79500383D01*
X117121239Y-79368327D01*
X117265000Y-79263878D01*
X117427336Y-79191602D01*
X117601151Y-79154656D01*
X117778849Y-79154656D01*
X117952664Y-79191602D01*
G37*
G36*
X120492664Y-79191602D02*
G01*
X120655000Y-79263878D01*
X120798761Y-79368327D01*
X120917664Y-79500383D01*
X121006514Y-79654274D01*
X121061425Y-79823275D01*
X121080000Y-80000000D01*
X121061425Y-80176725D01*
X121006514Y-80345726D01*
X120917664Y-80499617D01*
X120798761Y-80631673D01*
X120655000Y-80736122D01*
X120492664Y-80808398D01*
X120318849Y-80845344D01*
X120141151Y-80845344D01*
X119967336Y-80808398D01*
X119805000Y-80736122D01*
X119661239Y-80631673D01*
X119542336Y-80499617D01*
X119453486Y-80345726D01*
X119398575Y-80176725D01*
X119380000Y-80000000D01*
X119398575Y-79823275D01*
X119453486Y-79654274D01*
X119542336Y-79500383D01*
X119661239Y-79368327D01*
X119805000Y-79263878D01*
X119967336Y-79191602D01*
X120141151Y-79154656D01*
X120318849Y-79154656D01*
X120492664Y-79191602D01*
G37*
G36*
X123032664Y-79191602D02*
G01*
X123195000Y-79263878D01*
X123338761Y-79368327D01*
X123457664Y-79500383D01*
X123546514Y-79654274D01*
X123601425Y-79823275D01*
X123620000Y-80000000D01*
X123601425Y-80176725D01*
X123546514Y-80345726D01*
X123457664Y-80499617D01*
X123338761Y-80631673D01*
X123195000Y-80736122D01*
X123032664Y-80808398D01*
X122858849Y-80845344D01*
X122681151Y-80845344D01*
X122507336Y-80808398D01*
X122345000Y-80736122D01*
X122201239Y-80631673D01*
X122082336Y-80499617D01*
X121993486Y-80345726D01*
X121938575Y-80176725D01*
X121920000Y-80000000D01*
X121938575Y-79823275D01*
X121993486Y-79654274D01*
X122082336Y-79500383D01*
X122201239Y-79368327D01*
X122345000Y-79263878D01*
X122507336Y-79191602D01*
X122681151Y-79154656D01*
X122858849Y-79154656D01*
X123032664Y-79191602D01*
G37*
G36*
X80660000Y-80804000D02*
G01*
X78960000Y-80804000D01*
X78960000Y-79104000D01*
X80660000Y-79104000D01*
X80660000Y-80804000D01*
G37*
G36*
X107120000Y-80804000D02*
G01*
X105420000Y-80804000D01*
X105420000Y-79104000D01*
X107120000Y-79104000D01*
X107120000Y-80804000D01*
G37*
G36*
X136120000Y-80804000D02*
G01*
X134420000Y-80804000D01*
X134420000Y-79104000D01*
X136120000Y-79104000D01*
X136120000Y-80804000D01*
G37*
G36*
X72452664Y-79145602D02*
G01*
X72615000Y-79217878D01*
X72758761Y-79322327D01*
X72877664Y-79454383D01*
X72966514Y-79608274D01*
X73021425Y-79777275D01*
X73040000Y-79954000D01*
X73021425Y-80130725D01*
X72966514Y-80299726D01*
X72877664Y-80453617D01*
X72758761Y-80585673D01*
X72615000Y-80690122D01*
X72452664Y-80762398D01*
X72278849Y-80799344D01*
X72101151Y-80799344D01*
X71927336Y-80762398D01*
X71765000Y-80690122D01*
X71621239Y-80585673D01*
X71502336Y-80453617D01*
X71413486Y-80299726D01*
X71358575Y-80130725D01*
X71340000Y-79954000D01*
X71358575Y-79777275D01*
X71413486Y-79608274D01*
X71502336Y-79454383D01*
X71621239Y-79322327D01*
X71765000Y-79217878D01*
X71927336Y-79145602D01*
X72101151Y-79108656D01*
X72278849Y-79108656D01*
X72452664Y-79145602D01*
G37*
G36*
X74992664Y-79145602D02*
G01*
X75155000Y-79217878D01*
X75298761Y-79322327D01*
X75417664Y-79454383D01*
X75506514Y-79608274D01*
X75561425Y-79777275D01*
X75580000Y-79954000D01*
X75561425Y-80130725D01*
X75506514Y-80299726D01*
X75417664Y-80453617D01*
X75298761Y-80585673D01*
X75155000Y-80690122D01*
X74992664Y-80762398D01*
X74818849Y-80799344D01*
X74641151Y-80799344D01*
X74467336Y-80762398D01*
X74305000Y-80690122D01*
X74161239Y-80585673D01*
X74042336Y-80453617D01*
X73953486Y-80299726D01*
X73898575Y-80130725D01*
X73880000Y-79954000D01*
X73898575Y-79777275D01*
X73953486Y-79608274D01*
X74042336Y-79454383D01*
X74161239Y-79322327D01*
X74305000Y-79217878D01*
X74467336Y-79145602D01*
X74641151Y-79108656D01*
X74818849Y-79108656D01*
X74992664Y-79145602D01*
G37*
G36*
X77532664Y-79145602D02*
G01*
X77695000Y-79217878D01*
X77838761Y-79322327D01*
X77957664Y-79454383D01*
X78046514Y-79608274D01*
X78101425Y-79777275D01*
X78120000Y-79954000D01*
X78101425Y-80130725D01*
X78046514Y-80299726D01*
X77957664Y-80453617D01*
X77838761Y-80585673D01*
X77695000Y-80690122D01*
X77532664Y-80762398D01*
X77358849Y-80799344D01*
X77181151Y-80799344D01*
X77007336Y-80762398D01*
X76845000Y-80690122D01*
X76701239Y-80585673D01*
X76582336Y-80453617D01*
X76493486Y-80299726D01*
X76438575Y-80130725D01*
X76420000Y-79954000D01*
X76438575Y-79777275D01*
X76493486Y-79608274D01*
X76582336Y-79454383D01*
X76701239Y-79322327D01*
X76845000Y-79217878D01*
X77007336Y-79145602D01*
X77181151Y-79108656D01*
X77358849Y-79108656D01*
X77532664Y-79145602D01*
G37*
G36*
X103992664Y-79145602D02*
G01*
X104155000Y-79217878D01*
X104298761Y-79322327D01*
X104417664Y-79454383D01*
X104506514Y-79608274D01*
X104561425Y-79777275D01*
X104580000Y-79954000D01*
X104561425Y-80130725D01*
X104506514Y-80299726D01*
X104417664Y-80453617D01*
X104298761Y-80585673D01*
X104155000Y-80690122D01*
X103992664Y-80762398D01*
X103818849Y-80799344D01*
X103641151Y-80799344D01*
X103467336Y-80762398D01*
X103305000Y-80690122D01*
X103161239Y-80585673D01*
X103042336Y-80453617D01*
X102953486Y-80299726D01*
X102898575Y-80130725D01*
X102880000Y-79954000D01*
X102898575Y-79777275D01*
X102953486Y-79608274D01*
X103042336Y-79454383D01*
X103161239Y-79322327D01*
X103305000Y-79217878D01*
X103467336Y-79145602D01*
X103641151Y-79108656D01*
X103818849Y-79108656D01*
X103992664Y-79145602D01*
G37*
G36*
X132992664Y-79145602D02*
G01*
X133155000Y-79217878D01*
X133298761Y-79322327D01*
X133417664Y-79454383D01*
X133506514Y-79608274D01*
X133561425Y-79777275D01*
X133580000Y-79954000D01*
X133561425Y-80130725D01*
X133506514Y-80299726D01*
X133417664Y-80453617D01*
X133298761Y-80585673D01*
X133155000Y-80690122D01*
X132992664Y-80762398D01*
X132818849Y-80799344D01*
X132641151Y-80799344D01*
X132467336Y-80762398D01*
X132305000Y-80690122D01*
X132161239Y-80585673D01*
X132042336Y-80453617D01*
X131953486Y-80299726D01*
X131898575Y-80130725D01*
X131880000Y-79954000D01*
X131898575Y-79777275D01*
X131953486Y-79608274D01*
X132042336Y-79454383D01*
X132161239Y-79322327D01*
X132305000Y-79217878D01*
X132467336Y-79145602D01*
X132641151Y-79108656D01*
X132818849Y-79108656D01*
X132992664Y-79145602D01*
G37*
G36*
X65743116Y-66054575D02*
G01*
X65925770Y-66090907D01*
X66097827Y-66162175D01*
X66252674Y-66265640D01*
X66384360Y-66397326D01*
X66487825Y-66552173D01*
X66559093Y-66724230D01*
X66595425Y-66906884D01*
X66595425Y-67093116D01*
X66559093Y-67275770D01*
X66487825Y-67447827D01*
X66384360Y-67602674D01*
X66252674Y-67734360D01*
X66097827Y-67837825D01*
X65925770Y-67909093D01*
X65743116Y-67945425D01*
X64350000Y-67950000D01*
X64256884Y-67945425D01*
X64074230Y-67909093D01*
X63902173Y-67837825D01*
X63747326Y-67734360D01*
X63615640Y-67602674D01*
X63512175Y-67447827D01*
X63440907Y-67275770D01*
X63404575Y-67093116D01*
X63404575Y-66906884D01*
X63440907Y-66724230D01*
X63512175Y-66552173D01*
X63615640Y-66397326D01*
X63747326Y-66265640D01*
X63902173Y-66162175D01*
X64074230Y-66090907D01*
X64256884Y-66054575D01*
X65650000Y-66050000D01*
X65743116Y-66054575D01*
G37*
G36*
X78243116Y-66054575D02*
G01*
X78425770Y-66090907D01*
X78597827Y-66162175D01*
X78752674Y-66265640D01*
X78884360Y-66397326D01*
X78987825Y-66552173D01*
X79059093Y-66724230D01*
X79095425Y-66906884D01*
X79095425Y-67093116D01*
X79059093Y-67275770D01*
X78987825Y-67447827D01*
X78884360Y-67602674D01*
X78752674Y-67734360D01*
X78597827Y-67837825D01*
X78425770Y-67909093D01*
X78243116Y-67945425D01*
X76850000Y-67950000D01*
X76756884Y-67945425D01*
X76574230Y-67909093D01*
X76402173Y-67837825D01*
X76247326Y-67734360D01*
X76115640Y-67602674D01*
X76012175Y-67447827D01*
X75940907Y-67275770D01*
X75904575Y-67093116D01*
X75904575Y-66906884D01*
X75940907Y-66724230D01*
X76012175Y-66552173D01*
X76115640Y-66397326D01*
X76247326Y-66265640D01*
X76402173Y-66162175D01*
X76574230Y-66090907D01*
X76756884Y-66054575D01*
X78150000Y-66050000D01*
X78243116Y-66054575D01*
G37*
G36*
X99743116Y-66054575D02*
G01*
X99925770Y-66090907D01*
X100097827Y-66162175D01*
X100252674Y-66265640D01*
X100384360Y-66397326D01*
X100487825Y-66552173D01*
X100559093Y-66724230D01*
X100595425Y-66906884D01*
X100595425Y-67093116D01*
X100559093Y-67275770D01*
X100487825Y-67447827D01*
X100384360Y-67602674D01*
X100252674Y-67734360D01*
X100097827Y-67837825D01*
X99925770Y-67909093D01*
X99743116Y-67945425D01*
X98350000Y-67950000D01*
X98256884Y-67945425D01*
X98074230Y-67909093D01*
X97902173Y-67837825D01*
X97747326Y-67734360D01*
X97615640Y-67602674D01*
X97512175Y-67447827D01*
X97440907Y-67275770D01*
X97404575Y-67093116D01*
X97404575Y-66906884D01*
X97440907Y-66724230D01*
X97512175Y-66552173D01*
X97615640Y-66397326D01*
X97747326Y-66265640D01*
X97902173Y-66162175D01*
X98074230Y-66090907D01*
X98256884Y-66054575D01*
X99650000Y-66050000D01*
X99743116Y-66054575D01*
G37*
G36*
X112243116Y-66054575D02*
G01*
X112425770Y-66090907D01*
X112597827Y-66162175D01*
X112752674Y-66265640D01*
X112884360Y-66397326D01*
X112987825Y-66552173D01*
X113059093Y-66724230D01*
X113095425Y-66906884D01*
X113095425Y-67093116D01*
X113059093Y-67275770D01*
X112987825Y-67447827D01*
X112884360Y-67602674D01*
X112752674Y-67734360D01*
X112597827Y-67837825D01*
X112425770Y-67909093D01*
X112243116Y-67945425D01*
X110850000Y-67950000D01*
X110756884Y-67945425D01*
X110574230Y-67909093D01*
X110402173Y-67837825D01*
X110247326Y-67734360D01*
X110115640Y-67602674D01*
X110012175Y-67447827D01*
X109940907Y-67275770D01*
X109904575Y-67093116D01*
X109904575Y-66906884D01*
X109940907Y-66724230D01*
X110012175Y-66552173D01*
X110115640Y-66397326D01*
X110247326Y-66265640D01*
X110402173Y-66162175D01*
X110574230Y-66090907D01*
X110756884Y-66054575D01*
X112150000Y-66050000D01*
X112243116Y-66054575D01*
G37*
G36*
X133743116Y-66054575D02*
G01*
X133925770Y-66090907D01*
X134097827Y-66162175D01*
X134252674Y-66265640D01*
X134384360Y-66397326D01*
X134487825Y-66552173D01*
X134559093Y-66724230D01*
X134595425Y-66906884D01*
X134595425Y-67093116D01*
X134559093Y-67275770D01*
X134487825Y-67447827D01*
X134384360Y-67602674D01*
X134252674Y-67734360D01*
X134097827Y-67837825D01*
X133925770Y-67909093D01*
X133743116Y-67945425D01*
X132350000Y-67950000D01*
X132256884Y-67945425D01*
X132074230Y-67909093D01*
X131902173Y-67837825D01*
X131747326Y-67734360D01*
X131615640Y-67602674D01*
X131512175Y-67447827D01*
X131440907Y-67275770D01*
X131404575Y-67093116D01*
X131404575Y-66906884D01*
X131440907Y-66724230D01*
X131512175Y-66552173D01*
X131615640Y-66397326D01*
X131747326Y-66265640D01*
X131902173Y-66162175D01*
X132074230Y-66090907D01*
X132256884Y-66054575D01*
X133650000Y-66050000D01*
X133743116Y-66054575D01*
G37*
G36*
X146243116Y-66054575D02*
G01*
X146425770Y-66090907D01*
X146597827Y-66162175D01*
X146752674Y-66265640D01*
X146884360Y-66397326D01*
X146987825Y-66552173D01*
X147059093Y-66724230D01*
X147095425Y-66906884D01*
X147095425Y-67093116D01*
X147059093Y-67275770D01*
X146987825Y-67447827D01*
X146884360Y-67602674D01*
X146752674Y-67734360D01*
X146597827Y-67837825D01*
X146425770Y-67909093D01*
X146243116Y-67945425D01*
X144850000Y-67950000D01*
X144756884Y-67945425D01*
X144574230Y-67909093D01*
X144402173Y-67837825D01*
X144247326Y-67734360D01*
X144115640Y-67602674D01*
X144012175Y-67447827D01*
X143940907Y-67275770D01*
X143904575Y-67093116D01*
X143904575Y-66906884D01*
X143940907Y-66724230D01*
X144012175Y-66552173D01*
X144115640Y-66397326D01*
X144247326Y-66265640D01*
X144402173Y-66162175D01*
X144574230Y-66090907D01*
X144756884Y-66054575D01*
X146150000Y-66050000D01*
X146243116Y-66054575D01*
G37*
G36*
X65743116Y-61054575D02*
G01*
X65925770Y-61090907D01*
X66097827Y-61162175D01*
X66252674Y-61265640D01*
X66384360Y-61397326D01*
X66487825Y-61552173D01*
X66559093Y-61724230D01*
X66595425Y-61906884D01*
X66595425Y-62093116D01*
X66559093Y-62275770D01*
X66487825Y-62447827D01*
X66384360Y-62602674D01*
X66252674Y-62734360D01*
X66097827Y-62837825D01*
X65925770Y-62909093D01*
X65743116Y-62945425D01*
X64350000Y-62950000D01*
X64256884Y-62945425D01*
X64074230Y-62909093D01*
X63902173Y-62837825D01*
X63747326Y-62734360D01*
X63615640Y-62602674D01*
X63512175Y-62447827D01*
X63440907Y-62275770D01*
X63404575Y-62093116D01*
X63404575Y-61906884D01*
X63440907Y-61724230D01*
X63512175Y-61552173D01*
X63615640Y-61397326D01*
X63747326Y-61265640D01*
X63902173Y-61162175D01*
X64074230Y-61090907D01*
X64256884Y-61054575D01*
X65650000Y-61050000D01*
X65743116Y-61054575D01*
G37*
G36*
X78243116Y-61054575D02*
G01*
X78425770Y-61090907D01*
X78597827Y-61162175D01*
X78752674Y-61265640D01*
X78884360Y-61397326D01*
X78987825Y-61552173D01*
X79059093Y-61724230D01*
X79095425Y-61906884D01*
X79095425Y-62093116D01*
X79059093Y-62275770D01*
X78987825Y-62447827D01*
X78884360Y-62602674D01*
X78752674Y-62734360D01*
X78597827Y-62837825D01*
X78425770Y-62909093D01*
X78243116Y-62945425D01*
X76850000Y-62950000D01*
X76756884Y-62945425D01*
X76574230Y-62909093D01*
X76402173Y-62837825D01*
X76247326Y-62734360D01*
X76115640Y-62602674D01*
X76012175Y-62447827D01*
X75940907Y-62275770D01*
X75904575Y-62093116D01*
X75904575Y-61906884D01*
X75940907Y-61724230D01*
X76012175Y-61552173D01*
X76115640Y-61397326D01*
X76247326Y-61265640D01*
X76402173Y-61162175D01*
X76574230Y-61090907D01*
X76756884Y-61054575D01*
X78150000Y-61050000D01*
X78243116Y-61054575D01*
G37*
G36*
X99743116Y-61054575D02*
G01*
X99925770Y-61090907D01*
X100097827Y-61162175D01*
X100252674Y-61265640D01*
X100384360Y-61397326D01*
X100487825Y-61552173D01*
X100559093Y-61724230D01*
X100595425Y-61906884D01*
X100595425Y-62093116D01*
X100559093Y-62275770D01*
X100487825Y-62447827D01*
X100384360Y-62602674D01*
X100252674Y-62734360D01*
X100097827Y-62837825D01*
X99925770Y-62909093D01*
X99743116Y-62945425D01*
X98350000Y-62950000D01*
X98256884Y-62945425D01*
X98074230Y-62909093D01*
X97902173Y-62837825D01*
X97747326Y-62734360D01*
X97615640Y-62602674D01*
X97512175Y-62447827D01*
X97440907Y-62275770D01*
X97404575Y-62093116D01*
X97404575Y-61906884D01*
X97440907Y-61724230D01*
X97512175Y-61552173D01*
X97615640Y-61397326D01*
X97747326Y-61265640D01*
X97902173Y-61162175D01*
X98074230Y-61090907D01*
X98256884Y-61054575D01*
X99650000Y-61050000D01*
X99743116Y-61054575D01*
G37*
G36*
X112243116Y-61054575D02*
G01*
X112425770Y-61090907D01*
X112597827Y-61162175D01*
X112752674Y-61265640D01*
X112884360Y-61397326D01*
X112987825Y-61552173D01*
X113059093Y-61724230D01*
X113095425Y-61906884D01*
X113095425Y-62093116D01*
X113059093Y-62275770D01*
X112987825Y-62447827D01*
X112884360Y-62602674D01*
X112752674Y-62734360D01*
X112597827Y-62837825D01*
X112425770Y-62909093D01*
X112243116Y-62945425D01*
X110850000Y-62950000D01*
X110756884Y-62945425D01*
X110574230Y-62909093D01*
X110402173Y-62837825D01*
X110247326Y-62734360D01*
X110115640Y-62602674D01*
X110012175Y-62447827D01*
X109940907Y-62275770D01*
X109904575Y-62093116D01*
X109904575Y-61906884D01*
X109940907Y-61724230D01*
X110012175Y-61552173D01*
X110115640Y-61397326D01*
X110247326Y-61265640D01*
X110402173Y-61162175D01*
X110574230Y-61090907D01*
X110756884Y-61054575D01*
X112150000Y-61050000D01*
X112243116Y-61054575D01*
G37*
G36*
X133743116Y-61054575D02*
G01*
X133925770Y-61090907D01*
X134097827Y-61162175D01*
X134252674Y-61265640D01*
X134384360Y-61397326D01*
X134487825Y-61552173D01*
X134559093Y-61724230D01*
X134595425Y-61906884D01*
X134595425Y-62093116D01*
X134559093Y-62275770D01*
X134487825Y-62447827D01*
X134384360Y-62602674D01*
X134252674Y-62734360D01*
X134097827Y-62837825D01*
X133925770Y-62909093D01*
X133743116Y-62945425D01*
X132350000Y-62950000D01*
X132256884Y-62945425D01*
X132074230Y-62909093D01*
X131902173Y-62837825D01*
X131747326Y-62734360D01*
X131615640Y-62602674D01*
X131512175Y-62447827D01*
X131440907Y-62275770D01*
X131404575Y-62093116D01*
X131404575Y-61906884D01*
X131440907Y-61724230D01*
X131512175Y-61552173D01*
X131615640Y-61397326D01*
X131747326Y-61265640D01*
X131902173Y-61162175D01*
X132074230Y-61090907D01*
X132256884Y-61054575D01*
X133650000Y-61050000D01*
X133743116Y-61054575D01*
G37*
G36*
X146243116Y-61054575D02*
G01*
X146425770Y-61090907D01*
X146597827Y-61162175D01*
X146752674Y-61265640D01*
X146884360Y-61397326D01*
X146987825Y-61552173D01*
X147059093Y-61724230D01*
X147095425Y-61906884D01*
X147095425Y-62093116D01*
X147059093Y-62275770D01*
X146987825Y-62447827D01*
X146884360Y-62602674D01*
X146752674Y-62734360D01*
X146597827Y-62837825D01*
X146425770Y-62909093D01*
X146243116Y-62945425D01*
X144850000Y-62950000D01*
X144756884Y-62945425D01*
X144574230Y-62909093D01*
X144402173Y-62837825D01*
X144247326Y-62734360D01*
X144115640Y-62602674D01*
X144012175Y-62447827D01*
X143940907Y-62275770D01*
X143904575Y-62093116D01*
X143904575Y-61906884D01*
X143940907Y-61724230D01*
X144012175Y-61552173D01*
X144115640Y-61397326D01*
X144247326Y-61265640D01*
X144402173Y-61162175D01*
X144574230Y-61090907D01*
X144756884Y-61054575D01*
X146150000Y-61050000D01*
X146243116Y-61054575D01*
G37*
M02*
