%TF.GenerationSoftware,KiCad,Pcbnew,8.0.1*%
%TF.CreationDate,2024-08-04T22:51:27+02:00*%
%TF.ProjectId,FT_MainBoard,46545f4d-6169-46e4-926f-6172642e6b69,rev?*%
%TF.SameCoordinates,Original*%
%TF.FileFunction,Copper,L1,Top*%
%TF.FilePolarity,Positive*%
%FSLAX46Y46*%
G04 Gerber Fmt 4.6, Leading zero omitted, Abs format (unit mm)*
G04 Created by KiCad (PCBNEW 8.0.1) date 2024-08-04 22:51:27*
%MOMM*%
%LPD*%
G01*
G04 APERTURE LIST*
G04 Aperture macros list*
%AMRoundRect*
0 Rectangle with rounded corners*
0 $1 Rounding radius*
0 $2 $3 $4 $5 $6 $7 $8 $9 X,Y pos of 4 corners*
0 Add a 4 corners polygon primitive as box body*
4,1,4,$2,$3,$4,$5,$6,$7,$8,$9,$2,$3,0*
0 Add four circle primitives for the rounded corners*
1,1,$1+$1,$2,$3*
1,1,$1+$1,$4,$5*
1,1,$1+$1,$6,$7*
1,1,$1+$1,$8,$9*
0 Add four rect primitives between the rounded corners*
20,1,$1+$1,$2,$3,$4,$5,0*
20,1,$1+$1,$4,$5,$6,$7,0*
20,1,$1+$1,$6,$7,$8,$9,0*
20,1,$1+$1,$8,$9,$2,$3,0*%
G04 Aperture macros list end*
%TA.AperFunction,SMDPad,CuDef*%
%ADD10R,1.000000X1.000000*%
%TD*%
%TA.AperFunction,ComponentPad*%
%ADD11R,1.700000X1.700000*%
%TD*%
%TA.AperFunction,ComponentPad*%
%ADD12O,1.700000X1.700000*%
%TD*%
%TA.AperFunction,ComponentPad*%
%ADD13O,3.200000X1.900000*%
%TD*%
%TA.AperFunction,ComponentPad*%
%ADD14RoundRect,0.250000X-0.600000X-0.600000X0.600000X-0.600000X0.600000X0.600000X-0.600000X0.600000X0*%
%TD*%
%TA.AperFunction,ComponentPad*%
%ADD15C,1.700000*%
%TD*%
%TA.AperFunction,ComponentPad*%
%ADD16R,1.600000X1.600000*%
%TD*%
%TA.AperFunction,ComponentPad*%
%ADD17O,1.600000X1.600000*%
%TD*%
%TA.AperFunction,ViaPad*%
%ADD18C,0.457200*%
%TD*%
%TA.AperFunction,ViaPad*%
%ADD19C,0.610000*%
%TD*%
%TA.AperFunction,Conductor*%
%ADD20C,0.304800*%
%TD*%
%TA.AperFunction,Conductor*%
%ADD21C,0.762000*%
%TD*%
%TA.AperFunction,Conductor*%
%ADD22C,0.508000*%
%TD*%
G04 APERTURE END LIST*
D10*
%TO.P,START,1*%
%TO.N,START*%
X89000000Y-103500000D03*
%TD*%
%TO.P,RESET,1*%
%TO.N,RESET*%
X92000000Y-103500000D03*
%TD*%
%TO.P,STOP,1*%
%TO.N,STOP*%
X95000000Y-103500000D03*
%TD*%
%TO.P,R,1*%
%TO.N,RIGHT*%
X91000000Y-116500000D03*
%TD*%
%TO.P,L,1*%
%TO.N,LEFT*%
X91000000Y-112522000D03*
%TD*%
%TO.P,TX,1*%
%TO.N,MCU_TX*%
X112014000Y-104648000D03*
%TD*%
%TO.P,RX,1*%
%TO.N,MCU_RX*%
X112014000Y-101727000D03*
%TD*%
D11*
%TO.P,CON3,1,Pin_1*%
%TO.N,Net-(CON3-Pin_1)*%
X125310000Y-80000000D03*
D12*
%TO.P,CON3,2,Pin_2*%
%TO.N,/USB_D+*%
X122770000Y-80000000D03*
%TO.P,CON3,3,Pin_3*%
%TO.N,/USB_D-*%
X120230000Y-80000000D03*
%TO.P,CON3,4,Pin_4*%
%TO.N,GND*%
X117690000Y-80000000D03*
%TD*%
D11*
%TO.P,RV1,1,1*%
%TO.N,GND*%
X149860000Y-109220000D03*
D12*
%TO.P,RV1,2,2*%
%TO.N,Net-(HDR1-Pin_3)*%
X149860000Y-106680000D03*
%TO.P,RV1,3,3*%
%TO.N,+5V*%
X149860000Y-104140000D03*
%TD*%
D13*
%TO.P,SW1,1,1*%
%TO.N,GND*%
X99000000Y-62000000D03*
X111500000Y-62000000D03*
%TO.P,SW1,2,2*%
%TO.N,Net-(CON1-Pin_1)*%
X99000000Y-67000000D03*
X111500000Y-67000000D03*
%TD*%
%TO.P,SW3,1,1*%
%TO.N,GND*%
X133000000Y-62000000D03*
X145500000Y-62000000D03*
%TO.P,SW3,2,2*%
%TO.N,Net-(R11-Pad1)*%
X133000000Y-67000000D03*
X145500000Y-67000000D03*
%TD*%
%TO.P,SW2,1,1*%
%TO.N,GND*%
X65000000Y-62000000D03*
X77500000Y-62000000D03*
%TO.P,SW2,2,2*%
%TO.N,Net-(R10-Pad1)*%
X65000000Y-67000000D03*
X77500000Y-67000000D03*
%TD*%
D11*
%TO.P,HDR1,1,Pin_1*%
%TO.N,GND*%
X138000000Y-118000000D03*
D12*
%TO.P,HDR1,2,Pin_2*%
%TO.N,+5V*%
X135460000Y-118000000D03*
%TO.P,HDR1,3,Pin_3*%
%TO.N,Net-(HDR1-Pin_3)*%
X132920000Y-118000000D03*
%TO.P,HDR1,4,Pin_4*%
%TO.N,DISPLAY_RS*%
X130380000Y-118000000D03*
%TO.P,HDR1,5,Pin_5*%
%TO.N,GND*%
X127840000Y-118000000D03*
%TO.P,HDR1,6,Pin_6*%
%TO.N,DISPLAY_EN*%
X125300000Y-118000000D03*
%TO.P,HDR1,7,Pin_7*%
%TO.N,unconnected-(HDR1-Pin_7-Pad7)*%
X122760000Y-118000000D03*
%TO.P,HDR1,8,Pin_8*%
%TO.N,unconnected-(HDR1-Pin_8-Pad8)*%
X120220000Y-118000000D03*
%TO.P,HDR1,9,Pin_9*%
%TO.N,unconnected-(HDR1-Pin_9-Pad9)*%
X117680000Y-118000000D03*
%TO.P,HDR1,10,Pin_10*%
%TO.N,unconnected-(HDR1-Pin_10-Pad10)*%
X115140000Y-118000000D03*
%TO.P,HDR1,11,Pin_11*%
%TO.N,DISPLAY_D0*%
X112600000Y-118000000D03*
%TO.P,HDR1,12,Pin_12*%
%TO.N,DISPLAY_D1*%
X110060000Y-118000000D03*
%TO.P,HDR1,13,Pin_13*%
%TO.N,DISPLAY_D2*%
X107520000Y-118000000D03*
%TO.P,HDR1,14,Pin_14*%
%TO.N,DISPLAY_D3*%
X104980000Y-118000000D03*
%TO.P,HDR1,15,Pin_15*%
%TO.N,Net-(HDR1-Pin_15)*%
X102440000Y-118000000D03*
%TO.P,HDR1,16,Pin_16*%
%TO.N,GND*%
X99900000Y-118000000D03*
%TD*%
D14*
%TO.P,CON6,1,MISO*%
%TO.N,DISPLAY_EN*%
X149747500Y-94545000D03*
D15*
%TO.P,CON6,2,VCC*%
%TO.N,+5V*%
X152287500Y-94545000D03*
%TO.P,CON6,3,SCK*%
%TO.N,DISPLAY_RS*%
X149747500Y-92005000D03*
%TO.P,CON6,4,MOSI*%
%TO.N,DISPLAY_D0*%
X152287500Y-92005000D03*
%TO.P,CON6,5,~{RST}*%
%TO.N,RES*%
X149747500Y-89465000D03*
%TO.P,CON6,6,GND*%
%TO.N,GND*%
X152287500Y-89465000D03*
%TD*%
D11*
%TO.P,CON4,1,Pin_1*%
%TO.N,+12V*%
X135270000Y-79954000D03*
D12*
%TO.P,CON4,2,Pin_2*%
%TO.N,GND*%
X132730000Y-79954000D03*
%TD*%
D16*
%TO.P,SW5,1,A*%
%TO.N,RES*%
X108536000Y-101694500D03*
D17*
%TO.P,SW5,2,B*%
%TO.N,Net-(SW5-B)*%
X108536000Y-109314500D03*
%TD*%
D11*
%TO.P,CON1,1,Pin_1*%
%TO.N,Net-(CON1-Pin_1)*%
X106270000Y-79954000D03*
D12*
%TO.P,CON1,2,Pin_2*%
%TO.N,GND*%
X103730000Y-79954000D03*
%TD*%
D11*
%TO.P,CON5,1,Pin_1*%
%TO.N,+12V*%
X79810000Y-79954000D03*
D12*
%TO.P,CON5,2,Pin_2*%
%TO.N,GND*%
X77270000Y-79954000D03*
%TO.P,CON5,3,Pin_3*%
%TO.N,Net-(CON5-Pin_3)*%
X74730000Y-79954000D03*
%TO.P,CON5,4,Pin_4*%
%TO.N,Net-(CON5-Pin_4)*%
X72190000Y-79954000D03*
%TD*%
D18*
%TO.N,Net-(IC2-3V3OUT)*%
X115062000Y-100203000D03*
%TO.N,GND*%
X116332000Y-104394000D03*
%TO.N,Net-(IC2-3V3OUT)*%
X118237000Y-103378000D03*
D19*
%TO.N,GND*%
X118055000Y-95445000D03*
X91694000Y-110998000D03*
%TO.N,+12V*%
X67818000Y-100076000D03*
X73927000Y-100076000D03*
%TO.N,GND*%
X125776000Y-108553000D03*
X128826000Y-108553000D03*
X128826000Y-105203000D03*
X125776000Y-105203000D03*
X98750000Y-102250000D03*
X83820000Y-104140000D03*
%TO.N,STOP*%
X94250000Y-101245600D03*
D18*
X84074000Y-110484800D03*
D19*
%TO.N,START*%
X94250000Y-102058400D03*
D18*
X84074000Y-111780200D03*
D19*
%TO.N,RESET*%
X94250000Y-100432800D03*
D18*
X80010000Y-111760000D03*
D19*
%TO.N,MCU_TX*%
X112014000Y-104648000D03*
%TO.N,MCU_RX*%
X112014000Y-101727000D03*
%TO.N,Net-(CON1-Pin_1)*%
X79756000Y-102648400D03*
%TO.N,Net-(R10-Pad1)*%
X78232000Y-102648400D03*
%TO.N,Net-(R11-Pad1)*%
X81280000Y-102648400D03*
%TO.N,LEFT*%
X73152000Y-113538000D03*
X102750000Y-102058400D03*
%TO.N,RIGHT*%
X68580000Y-113538000D03*
X102719400Y-105000000D03*
%TD*%
D20*
%TO.N,RESET*%
X96000000Y-105000000D02*
X93500000Y-105000000D01*
X93500000Y-105000000D02*
X92000000Y-103500000D01*
X96500000Y-104500000D02*
X96000000Y-105000000D01*
X95682800Y-100432800D02*
X96500000Y-101250000D01*
X96500000Y-101250000D02*
X96500000Y-104500000D01*
X94250000Y-100432800D02*
X95682800Y-100432800D01*
%TO.N,START*%
X90441600Y-102058400D02*
X90750000Y-102058400D01*
X89000000Y-103500000D02*
X90441600Y-102058400D01*
%TO.N,STOP*%
X95000000Y-101500000D02*
X95000000Y-103500000D01*
X94745600Y-101245600D02*
X95000000Y-101500000D01*
X94250000Y-101245600D02*
X94745600Y-101245600D01*
%TO.N,RIGHT*%
X91000000Y-115308000D02*
X90500000Y-114808000D01*
X91000000Y-116500000D02*
X91000000Y-115308000D01*
X90500000Y-114808000D02*
X91000000Y-114808000D01*
X69850000Y-114808000D02*
X90500000Y-114808000D01*
%TO.N,LEFT*%
X91000000Y-113800000D02*
X90500000Y-114300000D01*
X91000000Y-112522000D02*
X91000000Y-113800000D01*
X90500000Y-114300000D02*
X91000000Y-114300000D01*
X73914000Y-114300000D02*
X90500000Y-114300000D01*
%TO.N,Net-(IC2-3V3OUT)*%
X115062000Y-100203000D02*
X118237000Y-103378000D01*
D21*
%TO.N,+12V*%
X67818000Y-100076000D02*
X73927000Y-100076000D01*
D20*
%TO.N,RIGHT*%
X68580000Y-113538000D02*
X69850000Y-114808000D01*
%TO.N,LEFT*%
X73152000Y-113538000D02*
X73914000Y-114300000D01*
%TO.N,RESET*%
X84328000Y-109728000D02*
X85090000Y-108966000D01*
X82042000Y-109728000D02*
X84328000Y-109728000D01*
X80010000Y-111760000D02*
X82042000Y-109728000D01*
X85090000Y-108966000D02*
X85090000Y-102011844D01*
X86669044Y-100432800D02*
X94250000Y-100432800D01*
X85090000Y-102011844D02*
X86669044Y-100432800D01*
%TO.N,START*%
X85323800Y-111780200D02*
X86152000Y-110952000D01*
X86152000Y-110952000D02*
X86152000Y-102814000D01*
X84074000Y-111780200D02*
X85323800Y-111780200D01*
X86152000Y-102814000D02*
X86907600Y-102058400D01*
X86907600Y-102058400D02*
X90750000Y-102058400D01*
%TO.N,STOP*%
X87073822Y-101245600D02*
X94250000Y-101245600D01*
X84074000Y-110484800D02*
X85025778Y-110484800D01*
X85644000Y-102675422D02*
X87073822Y-101245600D01*
X85025778Y-110484800D02*
X85644000Y-109866578D01*
X85644000Y-109866578D02*
X85644000Y-102675422D01*
D22*
%TO.N,Net-(R10-Pad1)*%
X65000000Y-83796000D02*
X65000000Y-67000000D01*
X78232000Y-87630000D02*
X76962000Y-86360000D01*
X67564000Y-86360000D02*
X65000000Y-83796000D01*
X78232000Y-102648400D02*
X78232000Y-87630000D01*
X76962000Y-86360000D02*
X67564000Y-86360000D01*
%TO.N,Net-(CON1-Pin_1)*%
X106270000Y-82706000D02*
X106270000Y-79954000D01*
X81026000Y-86360000D02*
X102616000Y-86360000D01*
X79756000Y-102648400D02*
X79756000Y-87630000D01*
X79756000Y-87630000D02*
X81026000Y-86360000D01*
X102616000Y-86360000D02*
X106270000Y-82706000D01*
%TO.N,Net-(R11-Pad1)*%
X123500000Y-67000000D02*
X133000000Y-67000000D01*
X81280000Y-88900000D02*
X82804000Y-87376000D01*
X103124000Y-87376000D02*
X123500000Y-67000000D01*
X81280000Y-102648400D02*
X81280000Y-88900000D01*
X82804000Y-87376000D02*
X103124000Y-87376000D01*
D20*
%TO.N,LEFT*%
X102750000Y-102058400D02*
X102665600Y-102058400D01*
X100076000Y-114300000D02*
X91000000Y-114300000D01*
X102108000Y-112268000D02*
X100076000Y-114300000D01*
X102750000Y-102058400D02*
X102108000Y-102700400D01*
X102108000Y-102700400D02*
X102108000Y-112268000D01*
%TO.N,RIGHT*%
X100214578Y-114808000D02*
X91000000Y-114808000D01*
X102719400Y-112303178D02*
X100214578Y-114808000D01*
X102719400Y-105000000D02*
X102719400Y-112303178D01*
%TO.N,START*%
X94250000Y-102058400D02*
X90750000Y-102058400D01*
D22*
%TO.N,DISPLAY_RS*%
X144000000Y-113000000D02*
X142000000Y-115000000D01*
X149747500Y-92005000D02*
X149495000Y-92005000D01*
X142000000Y-115000000D02*
X131500000Y-115000000D01*
X131500000Y-115000000D02*
X130380000Y-116120000D01*
X130380000Y-116120000D02*
X130380000Y-118000000D01*
X144000000Y-97500000D02*
X144000000Y-113000000D01*
X149495000Y-92005000D02*
X144000000Y-97500000D01*
%TO.N,DISPLAY_D0*%
X115000000Y-122000000D02*
X144000000Y-122000000D01*
X152505000Y-92005000D02*
X152287500Y-92005000D01*
X112600000Y-119600000D02*
X115000000Y-122000000D01*
X154500000Y-94000000D02*
X152505000Y-92005000D01*
X154500000Y-110500000D02*
X154500000Y-94000000D01*
X144000000Y-122000000D02*
X147000000Y-119000000D01*
X147000000Y-113250000D02*
X148250000Y-112000000D01*
X153000000Y-112000000D02*
X154500000Y-110500000D01*
X147000000Y-119000000D02*
X147000000Y-113250000D01*
X148250000Y-112000000D02*
X153000000Y-112000000D01*
X112600000Y-118000000D02*
X112600000Y-119600000D01*
D21*
%TO.N,+5V*%
X152287500Y-94545000D02*
X152287500Y-101712500D01*
X152287500Y-101712500D02*
X149860000Y-104140000D01*
D22*
%TO.N,RES*%
X149747500Y-89465000D02*
X149712500Y-89500000D01*
X120730500Y-89500000D02*
X108536000Y-101694500D01*
X149712500Y-89500000D02*
X120730500Y-89500000D01*
%TO.N,DISPLAY_EN*%
X125300000Y-119800000D02*
X125300000Y-118000000D01*
X143000000Y-121000000D02*
X126500000Y-121000000D01*
X126500000Y-121000000D02*
X125300000Y-119800000D01*
X149747500Y-94545000D02*
X145500000Y-98792500D01*
X145500000Y-118500000D02*
X143000000Y-121000000D01*
X145500000Y-98792500D02*
X145500000Y-118500000D01*
%TO.N,Net-(CON1-Pin_1)*%
X111500000Y-67000000D02*
X99000000Y-67000000D01*
X111500000Y-67000000D02*
X111500000Y-74724000D01*
X111500000Y-74724000D02*
X106270000Y-79954000D01*
%TO.N,Net-(R10-Pad1)*%
X65000000Y-67000000D02*
X77500000Y-67000000D01*
%TO.N,Net-(R11-Pad1)*%
X133000000Y-67000000D02*
X145500000Y-67000000D01*
%TD*%
%TA.AperFunction,Conductor*%
%TO.N,GND*%
G36*
X153513133Y-93801522D02*
G01*
X153536189Y-93820370D01*
X153901859Y-94186040D01*
X153940423Y-94252835D01*
X153945500Y-94291399D01*
X153945500Y-110208601D01*
X153925538Y-110283101D01*
X153901859Y-110313960D01*
X152813960Y-111401859D01*
X152747165Y-111440423D01*
X152708601Y-111445500D01*
X148176992Y-111445500D01*
X148146043Y-111453794D01*
X148146041Y-111453795D01*
X148035970Y-111483288D01*
X147909528Y-111556289D01*
X146556289Y-112909528D01*
X146534029Y-112948085D01*
X146483287Y-113035972D01*
X146483286Y-113035975D01*
X146445890Y-113175545D01*
X146445877Y-113175595D01*
X146445500Y-113176999D01*
X146445500Y-118708601D01*
X146425538Y-118783101D01*
X146401859Y-118813960D01*
X143813960Y-121401859D01*
X143747165Y-121440423D01*
X143708601Y-121445500D01*
X143698398Y-121445500D01*
X143623898Y-121425538D01*
X143569360Y-121371000D01*
X143549398Y-121296500D01*
X143569360Y-121222000D01*
X143593039Y-121191141D01*
X144643709Y-120140471D01*
X145828203Y-118955977D01*
X145828208Y-118955973D01*
X145840469Y-118943711D01*
X145840471Y-118943711D01*
X145943711Y-118840471D01*
X146016712Y-118714029D01*
X146031315Y-118659529D01*
X146054500Y-118573002D01*
X146054500Y-118426998D01*
X146054500Y-99083899D01*
X146074462Y-99009399D01*
X146098141Y-98978540D01*
X149337540Y-95739141D01*
X149404335Y-95700577D01*
X149442899Y-95695500D01*
X150390601Y-95695500D01*
X150390602Y-95695500D01*
X150479064Y-95684877D01*
X150619842Y-95629361D01*
X150740422Y-95537922D01*
X150831861Y-95417342D01*
X150887377Y-95276564D01*
X150898000Y-95188102D01*
X150898000Y-94933636D01*
X150917962Y-94859136D01*
X150972500Y-94804598D01*
X151047000Y-94784636D01*
X151121500Y-94804598D01*
X151176038Y-94859136D01*
X151190312Y-94892860D01*
X151210093Y-94962385D01*
X151210094Y-94962387D01*
X151305136Y-95153259D01*
X151398253Y-95276564D01*
X151433628Y-95323407D01*
X151557381Y-95436224D01*
X151598988Y-95501165D01*
X151606000Y-95546335D01*
X151606000Y-101368494D01*
X151586038Y-101442994D01*
X151562359Y-101473853D01*
X150089378Y-102946833D01*
X150022583Y-102985397D01*
X149970284Y-102989840D01*
X149966611Y-102989500D01*
X149966610Y-102989500D01*
X149753390Y-102989500D01*
X149753385Y-102989500D01*
X149543802Y-103028679D01*
X149543795Y-103028681D01*
X149344983Y-103105700D01*
X149344977Y-103105703D01*
X149163698Y-103217947D01*
X149163697Y-103217948D01*
X149006127Y-103361593D01*
X148877636Y-103531740D01*
X148782594Y-103722612D01*
X148782593Y-103722614D01*
X148724243Y-103927694D01*
X148704571Y-104139995D01*
X148704571Y-104140004D01*
X148724243Y-104352305D01*
X148724243Y-104352307D01*
X148724244Y-104352310D01*
X148734762Y-104389275D01*
X148782593Y-104557385D01*
X148782594Y-104557387D01*
X148877636Y-104748259D01*
X149006127Y-104918406D01*
X149163697Y-105062051D01*
X149163698Y-105062052D01*
X149344977Y-105174296D01*
X149344983Y-105174299D01*
X149392893Y-105192859D01*
X149543802Y-105251321D01*
X149609152Y-105263537D01*
X149678716Y-105296849D01*
X149722303Y-105360480D01*
X149728236Y-105437379D01*
X149694924Y-105506943D01*
X149631293Y-105550530D01*
X149609153Y-105556462D01*
X149543802Y-105568679D01*
X149543795Y-105568681D01*
X149344983Y-105645700D01*
X149344977Y-105645703D01*
X149163698Y-105757947D01*
X149163697Y-105757948D01*
X149006127Y-105901593D01*
X148877636Y-106071740D01*
X148782594Y-106262612D01*
X148782593Y-106262614D01*
X148724243Y-106467694D01*
X148704571Y-106679995D01*
X148704571Y-106680004D01*
X148724243Y-106892305D01*
X148782593Y-107097385D01*
X148782594Y-107097387D01*
X148877636Y-107288259D01*
X149006127Y-107458406D01*
X149163699Y-107602053D01*
X149163756Y-107602096D01*
X149163779Y-107602126D01*
X149168789Y-107606693D01*
X149168007Y-107607549D01*
X149211178Y-107662923D01*
X149221834Y-107739311D01*
X149192867Y-107810793D01*
X149132040Y-107858215D01*
X149073963Y-107870000D01*
X148962177Y-107870000D01*
X148962157Y-107870001D01*
X148902622Y-107876401D01*
X148767915Y-107926645D01*
X148767905Y-107926650D01*
X148652812Y-108012809D01*
X148652809Y-108012812D01*
X148566650Y-108127905D01*
X148566645Y-108127915D01*
X148516401Y-108262622D01*
X148510001Y-108322157D01*
X148510000Y-108322177D01*
X148510000Y-108970000D01*
X149426988Y-108970000D01*
X149394075Y-109027007D01*
X149360000Y-109154174D01*
X149360000Y-109285826D01*
X149394075Y-109412993D01*
X149426988Y-109470000D01*
X148510000Y-109470000D01*
X148510000Y-110117822D01*
X148510001Y-110117842D01*
X148516401Y-110177377D01*
X148566645Y-110312084D01*
X148566650Y-110312094D01*
X148652809Y-110427187D01*
X148652812Y-110427190D01*
X148767905Y-110513349D01*
X148767915Y-110513354D01*
X148902623Y-110563598D01*
X148902621Y-110563598D01*
X148962157Y-110569998D01*
X148962177Y-110570000D01*
X149610000Y-110570000D01*
X149610000Y-109653012D01*
X149667007Y-109685925D01*
X149794174Y-109720000D01*
X149925826Y-109720000D01*
X150052993Y-109685925D01*
X150110000Y-109653012D01*
X150110000Y-110570000D01*
X150757823Y-110570000D01*
X150757842Y-110569998D01*
X150817377Y-110563598D01*
X150952084Y-110513354D01*
X150952094Y-110513349D01*
X151067187Y-110427190D01*
X151067190Y-110427187D01*
X151153349Y-110312094D01*
X151153354Y-110312084D01*
X151203598Y-110177377D01*
X151209998Y-110117842D01*
X151210000Y-110117822D01*
X151210000Y-109470000D01*
X150293012Y-109470000D01*
X150325925Y-109412993D01*
X150360000Y-109285826D01*
X150360000Y-109154174D01*
X150325925Y-109027007D01*
X150293012Y-108970000D01*
X151210000Y-108970000D01*
X151210000Y-108322177D01*
X151209998Y-108322157D01*
X151203598Y-108262622D01*
X151153354Y-108127915D01*
X151153349Y-108127905D01*
X151067190Y-108012812D01*
X151067187Y-108012809D01*
X150952094Y-107926650D01*
X150952084Y-107926645D01*
X150817376Y-107876401D01*
X150817378Y-107876401D01*
X150757842Y-107870001D01*
X150757823Y-107870000D01*
X150646037Y-107870000D01*
X150571537Y-107850038D01*
X150516999Y-107795500D01*
X150497037Y-107721000D01*
X150516999Y-107646500D01*
X150551703Y-107607233D01*
X150551211Y-107606693D01*
X150556204Y-107602141D01*
X150556244Y-107602096D01*
X150556300Y-107602053D01*
X150556299Y-107602053D01*
X150556302Y-107602052D01*
X150713872Y-107458407D01*
X150842366Y-107288255D01*
X150937405Y-107097389D01*
X150995756Y-106892310D01*
X151015429Y-106680000D01*
X150995756Y-106467690D01*
X150937405Y-106262611D01*
X150842366Y-106071745D01*
X150842364Y-106071743D01*
X150842363Y-106071740D01*
X150713872Y-105901593D01*
X150556302Y-105757948D01*
X150556301Y-105757947D01*
X150375022Y-105645703D01*
X150375016Y-105645700D01*
X150176204Y-105568681D01*
X150176200Y-105568680D01*
X150176198Y-105568679D01*
X150110846Y-105556462D01*
X150041284Y-105523151D01*
X149997696Y-105459521D01*
X149991763Y-105382621D01*
X150025075Y-105313058D01*
X150088705Y-105269470D01*
X150110843Y-105263537D01*
X150176198Y-105251321D01*
X150375019Y-105174298D01*
X150556302Y-105062052D01*
X150713872Y-104918407D01*
X150842366Y-104748255D01*
X150937405Y-104557389D01*
X150995756Y-104352310D01*
X151015429Y-104140000D01*
X151005630Y-104034255D01*
X151018632Y-103958234D01*
X151048632Y-103915153D01*
X152816855Y-102146931D01*
X152891437Y-102035312D01*
X152900961Y-102012316D01*
X152917221Y-101973064D01*
X152927819Y-101947475D01*
X152942810Y-101911286D01*
X152969000Y-101779622D01*
X152969000Y-95546335D01*
X152988962Y-95471835D01*
X153017617Y-95436224D01*
X153141372Y-95323407D01*
X153269866Y-95153255D01*
X153364905Y-94962389D01*
X153423256Y-94757310D01*
X153442929Y-94545000D01*
X153423256Y-94332690D01*
X153364905Y-94127611D01*
X153297450Y-93992143D01*
X153282113Y-93916556D01*
X153306623Y-93843426D01*
X153364415Y-93792350D01*
X153440003Y-93777012D01*
X153513133Y-93801522D01*
G37*
%TD.AperFunction*%
%TA.AperFunction,Conductor*%
G36*
X148553359Y-93941540D02*
G01*
X148591923Y-94008335D01*
X148597000Y-94046899D01*
X148597000Y-94849600D01*
X148577038Y-94924100D01*
X148553359Y-94954959D01*
X145056289Y-98452028D01*
X144983288Y-98578470D01*
X144945500Y-98719495D01*
X144945500Y-118208601D01*
X144925538Y-118283101D01*
X144901859Y-118313960D01*
X142813960Y-120401859D01*
X142747165Y-120440423D01*
X142708601Y-120445500D01*
X126791399Y-120445500D01*
X126716899Y-120425538D01*
X126686040Y-120401859D01*
X125898141Y-119613960D01*
X125859577Y-119547165D01*
X125854500Y-119508601D01*
X125854500Y-119092844D01*
X125874462Y-119018344D01*
X125925059Y-118966163D01*
X125996302Y-118922052D01*
X126153872Y-118778407D01*
X126282366Y-118608255D01*
X126326206Y-118520210D01*
X126377282Y-118462420D01*
X126450411Y-118437909D01*
X126525999Y-118453246D01*
X126583791Y-118504323D01*
X126594625Y-118523656D01*
X126666400Y-118677579D01*
X126666406Y-118677588D01*
X126801888Y-118871076D01*
X126968923Y-119038111D01*
X127162411Y-119173593D01*
X127162420Y-119173599D01*
X127376508Y-119273430D01*
X127376513Y-119273432D01*
X127590000Y-119330634D01*
X127590000Y-118433012D01*
X127647007Y-118465925D01*
X127774174Y-118500000D01*
X127905826Y-118500000D01*
X128032993Y-118465925D01*
X128090000Y-118433012D01*
X128090000Y-119330633D01*
X128303486Y-119273432D01*
X128303491Y-119273430D01*
X128517579Y-119173599D01*
X128517588Y-119173593D01*
X128711076Y-119038111D01*
X128878111Y-118871076D01*
X129013593Y-118677588D01*
X129013599Y-118677579D01*
X129085374Y-118523656D01*
X129134951Y-118464573D01*
X129207427Y-118438193D01*
X129283384Y-118451586D01*
X129342467Y-118501163D01*
X129353793Y-118520211D01*
X129397633Y-118608254D01*
X129397636Y-118608258D01*
X129526127Y-118778406D01*
X129683697Y-118922051D01*
X129683698Y-118922052D01*
X129864977Y-119034296D01*
X129864983Y-119034299D01*
X129952189Y-119068082D01*
X130063802Y-119111321D01*
X130273390Y-119150500D01*
X130273393Y-119150500D01*
X130486607Y-119150500D01*
X130486610Y-119150500D01*
X130696198Y-119111321D01*
X130895019Y-119034298D01*
X131076302Y-118922052D01*
X131233872Y-118778407D01*
X131362366Y-118608255D01*
X131457405Y-118417389D01*
X131506688Y-118244177D01*
X131546276Y-118177986D01*
X131613657Y-118140455D01*
X131690776Y-118141643D01*
X131756969Y-118181231D01*
X131793312Y-118244179D01*
X131842593Y-118417385D01*
X131842594Y-118417387D01*
X131937636Y-118608259D01*
X132066127Y-118778406D01*
X132223697Y-118922051D01*
X132223698Y-118922052D01*
X132404977Y-119034296D01*
X132404983Y-119034299D01*
X132492189Y-119068082D01*
X132603802Y-119111321D01*
X132813390Y-119150500D01*
X132813393Y-119150500D01*
X133026607Y-119150500D01*
X133026610Y-119150500D01*
X133236198Y-119111321D01*
X133435019Y-119034298D01*
X133616302Y-118922052D01*
X133773872Y-118778407D01*
X133902366Y-118608255D01*
X133997405Y-118417389D01*
X134046688Y-118244177D01*
X134086276Y-118177986D01*
X134153657Y-118140455D01*
X134230776Y-118141643D01*
X134296969Y-118181231D01*
X134333312Y-118244179D01*
X134382593Y-118417385D01*
X134382594Y-118417387D01*
X134477636Y-118608259D01*
X134606127Y-118778406D01*
X134763697Y-118922051D01*
X134763698Y-118922052D01*
X134944977Y-119034296D01*
X134944983Y-119034299D01*
X135032189Y-119068082D01*
X135143802Y-119111321D01*
X135353390Y-119150500D01*
X135353393Y-119150500D01*
X135566607Y-119150500D01*
X135566610Y-119150500D01*
X135776198Y-119111321D01*
X135975019Y-119034298D01*
X136156302Y-118922052D01*
X136313872Y-118778407D01*
X136382096Y-118688065D01*
X136442923Y-118640643D01*
X136519311Y-118629987D01*
X136590793Y-118658954D01*
X136638215Y-118719781D01*
X136650000Y-118777858D01*
X136650000Y-118897822D01*
X136650001Y-118897842D01*
X136656401Y-118957377D01*
X136706645Y-119092084D01*
X136706650Y-119092094D01*
X136792809Y-119207187D01*
X136792812Y-119207190D01*
X136907905Y-119293349D01*
X136907915Y-119293354D01*
X137042623Y-119343598D01*
X137042621Y-119343598D01*
X137102157Y-119349998D01*
X137102177Y-119350000D01*
X137750000Y-119350000D01*
X137750000Y-118433012D01*
X137807007Y-118465925D01*
X137934174Y-118500000D01*
X138065826Y-118500000D01*
X138192993Y-118465925D01*
X138250000Y-118433012D01*
X138250000Y-119350000D01*
X138897823Y-119350000D01*
X138897842Y-119349998D01*
X138957377Y-119343598D01*
X139092084Y-119293354D01*
X139092094Y-119293349D01*
X139207187Y-119207190D01*
X139207190Y-119207187D01*
X139293349Y-119092094D01*
X139293354Y-119092084D01*
X139343598Y-118957377D01*
X139349998Y-118897842D01*
X139350000Y-118897822D01*
X139350000Y-118250000D01*
X138433012Y-118250000D01*
X138465925Y-118192993D01*
X138500000Y-118065826D01*
X138500000Y-117934174D01*
X138465925Y-117807007D01*
X138433012Y-117750000D01*
X139350000Y-117750000D01*
X139350000Y-117102177D01*
X139349998Y-117102157D01*
X139343598Y-117042622D01*
X139293354Y-116907915D01*
X139293349Y-116907905D01*
X139207190Y-116792812D01*
X139207187Y-116792809D01*
X139092094Y-116706650D01*
X139092084Y-116706645D01*
X138957376Y-116656401D01*
X138957378Y-116656401D01*
X138897842Y-116650001D01*
X138897823Y-116650000D01*
X138250000Y-116650000D01*
X138250000Y-117566988D01*
X138192993Y-117534075D01*
X138065826Y-117500000D01*
X137934174Y-117500000D01*
X137807007Y-117534075D01*
X137750000Y-117566988D01*
X137750000Y-116650000D01*
X137102177Y-116650000D01*
X137102157Y-116650001D01*
X137042622Y-116656401D01*
X136907915Y-116706645D01*
X136907905Y-116706650D01*
X136792812Y-116792809D01*
X136792809Y-116792812D01*
X136706650Y-116907905D01*
X136706645Y-116907915D01*
X136656401Y-117042622D01*
X136650001Y-117102157D01*
X136650000Y-117102177D01*
X136650000Y-117222141D01*
X136630038Y-117296641D01*
X136575500Y-117351179D01*
X136501000Y-117371141D01*
X136426500Y-117351179D01*
X136382096Y-117311935D01*
X136335276Y-117249936D01*
X136313872Y-117221593D01*
X136260309Y-117172764D01*
X136156302Y-117077948D01*
X136156301Y-117077947D01*
X135975022Y-116965703D01*
X135975016Y-116965700D01*
X135776204Y-116888681D01*
X135776200Y-116888680D01*
X135776198Y-116888679D01*
X135734280Y-116880843D01*
X135566614Y-116849500D01*
X135566610Y-116849500D01*
X135353390Y-116849500D01*
X135353385Y-116849500D01*
X135143802Y-116888679D01*
X135143795Y-116888681D01*
X134944983Y-116965700D01*
X134944977Y-116965703D01*
X134763698Y-117077947D01*
X134763697Y-117077948D01*
X134606127Y-117221593D01*
X134477636Y-117391740D01*
X134382594Y-117582612D01*
X134382593Y-117582614D01*
X134333312Y-117755820D01*
X134293724Y-117822013D01*
X134226343Y-117859544D01*
X134149224Y-117858356D01*
X134083031Y-117818768D01*
X134046688Y-117755820D01*
X133997406Y-117582614D01*
X133997405Y-117582612D01*
X133997405Y-117582611D01*
X133902366Y-117391745D01*
X133902363Y-117391741D01*
X133902363Y-117391740D01*
X133773872Y-117221593D01*
X133616302Y-117077948D01*
X133616301Y-117077947D01*
X133435022Y-116965703D01*
X133435016Y-116965700D01*
X133236204Y-116888681D01*
X133236200Y-116888680D01*
X133236198Y-116888679D01*
X133194280Y-116880843D01*
X133026614Y-116849500D01*
X133026610Y-116849500D01*
X132813390Y-116849500D01*
X132813385Y-116849500D01*
X132603802Y-116888679D01*
X132603795Y-116888681D01*
X132404983Y-116965700D01*
X132404977Y-116965703D01*
X132223698Y-117077947D01*
X132223697Y-117077948D01*
X132066127Y-117221593D01*
X131937636Y-117391740D01*
X131842594Y-117582612D01*
X131842593Y-117582614D01*
X131793312Y-117755820D01*
X131753724Y-117822013D01*
X131686343Y-117859544D01*
X131609224Y-117858356D01*
X131543031Y-117818768D01*
X131506688Y-117755820D01*
X131457406Y-117582614D01*
X131457405Y-117582612D01*
X131457405Y-117582611D01*
X131362366Y-117391745D01*
X131362363Y-117391741D01*
X131362363Y-117391740D01*
X131233872Y-117221593D01*
X131076301Y-117077947D01*
X131005060Y-117033836D01*
X130952229Y-116977644D01*
X130934500Y-116907154D01*
X130934500Y-116411399D01*
X130954462Y-116336899D01*
X130978141Y-116306040D01*
X131686040Y-115598141D01*
X131752835Y-115559577D01*
X131791399Y-115554500D01*
X142073002Y-115554500D01*
X142214029Y-115516712D01*
X142340471Y-115443711D01*
X142443711Y-115340471D01*
X142443711Y-115340469D01*
X142455973Y-115328208D01*
X142455977Y-115328203D01*
X144328203Y-113455977D01*
X144328208Y-113455973D01*
X144340469Y-113443711D01*
X144340471Y-113443711D01*
X144443711Y-113340471D01*
X144516712Y-113214029D01*
X144542988Y-113115964D01*
X144554500Y-113073002D01*
X144554500Y-112926998D01*
X144554500Y-97791399D01*
X144574462Y-97716899D01*
X144598141Y-97686040D01*
X148342641Y-93941540D01*
X148409436Y-93902976D01*
X148486564Y-93902976D01*
X148553359Y-93941540D01*
G37*
%TD.AperFunction*%
%TA.AperFunction,Conductor*%
G36*
X151821575Y-89657993D02*
G01*
X151887401Y-89772007D01*
X151980493Y-89865099D01*
X152094507Y-89930925D01*
X152158090Y-89947962D01*
X151526125Y-90579926D01*
X151609919Y-90638598D01*
X151609920Y-90638599D01*
X151758661Y-90707958D01*
X151817745Y-90757535D01*
X151844124Y-90830012D01*
X151830731Y-90905968D01*
X151781154Y-90965052D01*
X151774130Y-90969680D01*
X151591198Y-91082947D01*
X151591197Y-91082948D01*
X151433627Y-91226593D01*
X151305136Y-91396740D01*
X151210094Y-91587612D01*
X151210093Y-91587614D01*
X151160812Y-91760820D01*
X151121224Y-91827013D01*
X151053843Y-91864544D01*
X150976724Y-91863356D01*
X150910531Y-91823768D01*
X150874188Y-91760820D01*
X150824906Y-91587614D01*
X150824905Y-91587612D01*
X150824905Y-91587611D01*
X150729866Y-91396745D01*
X150729864Y-91396743D01*
X150729863Y-91396740D01*
X150601372Y-91226593D01*
X150443802Y-91082948D01*
X150443801Y-91082947D01*
X150262522Y-90970703D01*
X150262516Y-90970700D01*
X150063704Y-90893681D01*
X150063700Y-90893680D01*
X150063698Y-90893679D01*
X149998346Y-90881462D01*
X149928784Y-90848151D01*
X149885196Y-90784521D01*
X149879263Y-90707621D01*
X149912575Y-90638058D01*
X149976205Y-90594470D01*
X149998343Y-90588537D01*
X150063698Y-90576321D01*
X150262519Y-90499298D01*
X150443802Y-90387052D01*
X150601372Y-90243407D01*
X150729866Y-90073255D01*
X150773706Y-89985210D01*
X150824782Y-89927420D01*
X150897911Y-89902909D01*
X150973499Y-89918246D01*
X151031291Y-89969323D01*
X151042125Y-89988656D01*
X151113897Y-90142573D01*
X151113899Y-90142578D01*
X151172573Y-90226372D01*
X151804537Y-89594407D01*
X151821575Y-89657993D01*
G37*
%TD.AperFunction*%
%TA.AperFunction,Conductor*%
G36*
X153500712Y-50000007D02*
G01*
X153504471Y-50000043D01*
X153750183Y-50002455D01*
X153760370Y-50002906D01*
X154258460Y-50042106D01*
X154270056Y-50043478D01*
X154762799Y-50121521D01*
X154774273Y-50123804D01*
X155259358Y-50240263D01*
X155270615Y-50243438D01*
X155745058Y-50397594D01*
X155756026Y-50401639D01*
X156216941Y-50592556D01*
X156227538Y-50597441D01*
X156604484Y-50789505D01*
X156672054Y-50823934D01*
X156682261Y-50829651D01*
X157107605Y-51090302D01*
X157117327Y-51096798D01*
X157520924Y-51390029D01*
X157530112Y-51397271D01*
X157909459Y-51721263D01*
X157918050Y-51729205D01*
X158270794Y-52081949D01*
X158278736Y-52090540D01*
X158602728Y-52469887D01*
X158609970Y-52479075D01*
X158903201Y-52882672D01*
X158909701Y-52892400D01*
X159170348Y-53317738D01*
X159176065Y-53327945D01*
X159402551Y-53772447D01*
X159407449Y-53783072D01*
X159598358Y-54243969D01*
X159602407Y-54254946D01*
X159756560Y-54729381D01*
X159759736Y-54740641D01*
X159876195Y-55225726D01*
X159878478Y-55237200D01*
X159956519Y-55729931D01*
X159957894Y-55741550D01*
X159997092Y-56239608D01*
X159997544Y-56249835D01*
X159999993Y-56499286D01*
X160000000Y-56500749D01*
X160000000Y-118499250D01*
X159999993Y-118500713D01*
X159997544Y-118750164D01*
X159997092Y-118760391D01*
X159957894Y-119258449D01*
X159956519Y-119270068D01*
X159878478Y-119762799D01*
X159876195Y-119774273D01*
X159759736Y-120259358D01*
X159756560Y-120270618D01*
X159602407Y-120745053D01*
X159598358Y-120756030D01*
X159407449Y-121216927D01*
X159402551Y-121227552D01*
X159176065Y-121672054D01*
X159170348Y-121682261D01*
X158909701Y-122107599D01*
X158903201Y-122117327D01*
X158609970Y-122520924D01*
X158602728Y-122530112D01*
X158278736Y-122909459D01*
X158270794Y-122918050D01*
X157918050Y-123270794D01*
X157909459Y-123278736D01*
X157530112Y-123602728D01*
X157520924Y-123609970D01*
X157117327Y-123903201D01*
X157107599Y-123909701D01*
X156682261Y-124170348D01*
X156672054Y-124176065D01*
X156227552Y-124402551D01*
X156216927Y-124407449D01*
X155756030Y-124598358D01*
X155745053Y-124602407D01*
X155270618Y-124756560D01*
X155259358Y-124759736D01*
X154774273Y-124876195D01*
X154762799Y-124878478D01*
X154270068Y-124956519D01*
X154258450Y-124957894D01*
X154150888Y-124966359D01*
X154135877Y-124967541D01*
X154124188Y-124968000D01*
X55875812Y-124968000D01*
X55864122Y-124967541D01*
X55846441Y-124966149D01*
X55741549Y-124957894D01*
X55729931Y-124956519D01*
X55237200Y-124878478D01*
X55225726Y-124876195D01*
X54740641Y-124759736D01*
X54729381Y-124756560D01*
X54254946Y-124602407D01*
X54243969Y-124598358D01*
X53783072Y-124407449D01*
X53772447Y-124402551D01*
X53327945Y-124176065D01*
X53317738Y-124170348D01*
X52892400Y-123909701D01*
X52882672Y-123903201D01*
X52479075Y-123609970D01*
X52469887Y-123602728D01*
X52090540Y-123278736D01*
X52081949Y-123270794D01*
X51729205Y-122918050D01*
X51721263Y-122909459D01*
X51397271Y-122530112D01*
X51390029Y-122520924D01*
X51096798Y-122117327D01*
X51090298Y-122107599D01*
X51025154Y-122001294D01*
X50829651Y-121682261D01*
X50823934Y-121672054D01*
X50789505Y-121604484D01*
X50597441Y-121227538D01*
X50592556Y-121216941D01*
X50401639Y-120756026D01*
X50397592Y-120745053D01*
X50389678Y-120720697D01*
X50243438Y-120270615D01*
X50240263Y-120259358D01*
X50123804Y-119774273D01*
X50121521Y-119762799D01*
X50087178Y-119545965D01*
X50043478Y-119270056D01*
X50042105Y-119258449D01*
X50002906Y-118760370D01*
X50002455Y-118750183D01*
X50000007Y-118500712D01*
X50000004Y-118500000D01*
X51997525Y-118500000D01*
X52014936Y-118871076D01*
X52017308Y-118921617D01*
X52017308Y-118921626D01*
X52076483Y-119339515D01*
X52076485Y-119339525D01*
X52076486Y-119339532D01*
X52174538Y-119750067D01*
X52310603Y-120149617D01*
X52310606Y-120149625D01*
X52483484Y-120534670D01*
X52691656Y-120901833D01*
X52691660Y-120901839D01*
X52691662Y-120901842D01*
X52933308Y-121247907D01*
X53206298Y-121569823D01*
X53508233Y-121864761D01*
X53508237Y-121864764D01*
X53836450Y-122130122D01*
X53836452Y-122130123D01*
X53836461Y-122130130D01*
X54188095Y-122363597D01*
X54188097Y-122363598D01*
X54560033Y-122563103D01*
X54560043Y-122563108D01*
X54560047Y-122563110D01*
X54949046Y-122726917D01*
X55351676Y-122853578D01*
X55351687Y-122853580D01*
X55351700Y-122853584D01*
X55764386Y-122941977D01*
X55764391Y-122941977D01*
X55764397Y-122941979D01*
X55764409Y-122941980D01*
X55764413Y-122941981D01*
X56183566Y-122991341D01*
X56183583Y-122991343D01*
X56605550Y-123001238D01*
X57026588Y-122971576D01*
X57443000Y-122902617D01*
X57851124Y-122794968D01*
X58247374Y-122649575D01*
X58628268Y-122467715D01*
X58990459Y-122250986D01*
X59330764Y-122001294D01*
X59646192Y-121720832D01*
X59933971Y-121412066D01*
X60191573Y-121077708D01*
X60416732Y-120720697D01*
X60607471Y-120344171D01*
X60762114Y-119951438D01*
X60879301Y-119545949D01*
X60958002Y-119131269D01*
X60997527Y-118711041D01*
X61000000Y-118500000D01*
X60997527Y-118288959D01*
X60993863Y-118250000D01*
X98569364Y-118250000D01*
X98626568Y-118463489D01*
X98626569Y-118463491D01*
X98726400Y-118677579D01*
X98726406Y-118677588D01*
X98861888Y-118871076D01*
X99028923Y-119038111D01*
X99222411Y-119173593D01*
X99222420Y-119173599D01*
X99436508Y-119273430D01*
X99436513Y-119273432D01*
X99650000Y-119330634D01*
X99650000Y-118433012D01*
X99707007Y-118465925D01*
X99834174Y-118500000D01*
X99965826Y-118500000D01*
X100092993Y-118465925D01*
X100150000Y-118433012D01*
X100150000Y-119330633D01*
X100363486Y-119273432D01*
X100363491Y-119273430D01*
X100577579Y-119173599D01*
X100577588Y-119173593D01*
X100771076Y-119038111D01*
X100938111Y-118871076D01*
X101073593Y-118677588D01*
X101073599Y-118677579D01*
X101145374Y-118523656D01*
X101194951Y-118464573D01*
X101267427Y-118438193D01*
X101343384Y-118451586D01*
X101402467Y-118501163D01*
X101413793Y-118520211D01*
X101457633Y-118608254D01*
X101457636Y-118608258D01*
X101586127Y-118778406D01*
X101743697Y-118922051D01*
X101743698Y-118922052D01*
X101924977Y-119034296D01*
X101924983Y-119034299D01*
X102012189Y-119068082D01*
X102123802Y-119111321D01*
X102333390Y-119150500D01*
X102333393Y-119150500D01*
X102546607Y-119150500D01*
X102546610Y-119150500D01*
X102756198Y-119111321D01*
X102955019Y-119034298D01*
X103136302Y-118922052D01*
X103293872Y-118778407D01*
X103422366Y-118608255D01*
X103517405Y-118417389D01*
X103566688Y-118244177D01*
X103606276Y-118177986D01*
X103673657Y-118140455D01*
X103750776Y-118141643D01*
X103816969Y-118181231D01*
X103853312Y-118244179D01*
X103902593Y-118417385D01*
X103902594Y-118417387D01*
X103997636Y-118608259D01*
X104126127Y-118778406D01*
X104283697Y-118922051D01*
X104283698Y-118922052D01*
X104464977Y-119034296D01*
X104464983Y-119034299D01*
X104552189Y-119068082D01*
X104663802Y-119111321D01*
X104873390Y-119150500D01*
X104873393Y-119150500D01*
X105086607Y-119150500D01*
X105086610Y-119150500D01*
X105296198Y-119111321D01*
X105495019Y-119034298D01*
X105676302Y-118922052D01*
X105833872Y-118778407D01*
X105962366Y-118608255D01*
X106057405Y-118417389D01*
X106106688Y-118244177D01*
X106146276Y-118177986D01*
X106213657Y-118140455D01*
X106290776Y-118141643D01*
X106356969Y-118181231D01*
X106393312Y-118244179D01*
X106442593Y-118417385D01*
X106442594Y-118417387D01*
X106537636Y-118608259D01*
X106666127Y-118778406D01*
X106823697Y-118922051D01*
X106823698Y-118922052D01*
X107004977Y-119034296D01*
X107004983Y-119034299D01*
X107092189Y-119068082D01*
X107203802Y-119111321D01*
X107413390Y-119150500D01*
X107413393Y-119150500D01*
X107626607Y-119150500D01*
X107626610Y-119150500D01*
X107836198Y-119111321D01*
X108035019Y-119034298D01*
X108216302Y-118922052D01*
X108373872Y-118778407D01*
X108502366Y-118608255D01*
X108597405Y-118417389D01*
X108646688Y-118244177D01*
X108686276Y-118177986D01*
X108753657Y-118140455D01*
X108830776Y-118141643D01*
X108896969Y-118181231D01*
X108933312Y-118244179D01*
X108982593Y-118417385D01*
X108982594Y-118417387D01*
X109077636Y-118608259D01*
X109206127Y-118778406D01*
X109363697Y-118922051D01*
X109363698Y-118922052D01*
X109544977Y-119034296D01*
X109544983Y-119034299D01*
X109632189Y-119068082D01*
X109743802Y-119111321D01*
X109953390Y-119150500D01*
X109953393Y-119150500D01*
X110166607Y-119150500D01*
X110166610Y-119150500D01*
X110376198Y-119111321D01*
X110575019Y-119034298D01*
X110756302Y-118922052D01*
X110913872Y-118778407D01*
X111042366Y-118608255D01*
X111137405Y-118417389D01*
X111186688Y-118244177D01*
X111226276Y-118177986D01*
X111293657Y-118140455D01*
X111370776Y-118141643D01*
X111436969Y-118181231D01*
X111473312Y-118244179D01*
X111522593Y-118417385D01*
X111522594Y-118417387D01*
X111617636Y-118608259D01*
X111740020Y-118770319D01*
X111746128Y-118778407D01*
X111903698Y-118922052D01*
X111974940Y-118966163D01*
X112027771Y-119022353D01*
X112045500Y-119092844D01*
X112045500Y-119673004D01*
X112083288Y-119814029D01*
X112156289Y-119940471D01*
X112268019Y-120052201D01*
X112268024Y-120052205D01*
X114659529Y-122443711D01*
X114785971Y-122516712D01*
X114926999Y-122554501D01*
X114927004Y-122554501D01*
X115082131Y-122554501D01*
X115082147Y-122554500D01*
X144073002Y-122554500D01*
X144214029Y-122516712D01*
X144340471Y-122443711D01*
X144443711Y-122340471D01*
X144443711Y-122340469D01*
X144455973Y-122328208D01*
X144455977Y-122328203D01*
X147328203Y-119455977D01*
X147328208Y-119455973D01*
X147340469Y-119443711D01*
X147340471Y-119443711D01*
X147443711Y-119340471D01*
X147516712Y-119214029D01*
X147532183Y-119156290D01*
X147554501Y-119073001D01*
X147554501Y-118926998D01*
X147554501Y-118917870D01*
X147554500Y-118917852D01*
X147554500Y-118500000D01*
X148997525Y-118500000D01*
X149014936Y-118871076D01*
X149017308Y-118921617D01*
X149017308Y-118921626D01*
X149076483Y-119339515D01*
X149076485Y-119339525D01*
X149076486Y-119339532D01*
X149174538Y-119750067D01*
X149310603Y-120149617D01*
X149310606Y-120149625D01*
X149483484Y-120534670D01*
X149691656Y-120901833D01*
X149691660Y-120901839D01*
X149691662Y-120901842D01*
X149933308Y-121247907D01*
X150206298Y-121569823D01*
X150508233Y-121864761D01*
X150508237Y-121864764D01*
X150836450Y-122130122D01*
X150836452Y-122130123D01*
X150836461Y-122130130D01*
X151188095Y-122363597D01*
X151188097Y-122363598D01*
X151560033Y-122563103D01*
X151560043Y-122563108D01*
X151560047Y-122563110D01*
X151949046Y-122726917D01*
X152351676Y-122853578D01*
X152351687Y-122853580D01*
X152351700Y-122853584D01*
X152764386Y-122941977D01*
X152764391Y-122941977D01*
X152764397Y-122941979D01*
X152764409Y-122941980D01*
X152764413Y-122941981D01*
X153183566Y-122991341D01*
X153183583Y-122991343D01*
X153605550Y-123001238D01*
X154026588Y-122971576D01*
X154443000Y-122902617D01*
X154851124Y-122794968D01*
X155247374Y-122649575D01*
X155628268Y-122467715D01*
X155990459Y-122250986D01*
X156330764Y-122001294D01*
X156646192Y-121720832D01*
X156933971Y-121412066D01*
X157191573Y-121077708D01*
X157416732Y-120720697D01*
X157607471Y-120344171D01*
X157762114Y-119951438D01*
X157879301Y-119545949D01*
X157958002Y-119131269D01*
X157997527Y-118711041D01*
X158000000Y-118500000D01*
X157997527Y-118288959D01*
X157958002Y-117868731D01*
X157879301Y-117454051D01*
X157768307Y-117069991D01*
X157762117Y-117048572D01*
X157762116Y-117048571D01*
X157762114Y-117048562D01*
X157607471Y-116655829D01*
X157416732Y-116279303D01*
X157191573Y-115922292D01*
X157191571Y-115922290D01*
X157191569Y-115922286D01*
X156933971Y-115587934D01*
X156904840Y-115556679D01*
X156646192Y-115279168D01*
X156330764Y-114998706D01*
X155990459Y-114749014D01*
X155990454Y-114749011D01*
X155990450Y-114749008D01*
X155769653Y-114616887D01*
X155628268Y-114532285D01*
X155507895Y-114474812D01*
X155247383Y-114350429D01*
X155247380Y-114350428D01*
X155247374Y-114350425D01*
X154987695Y-114255143D01*
X154851125Y-114205032D01*
X154443015Y-114097386D01*
X154443002Y-114097383D01*
X154026594Y-114028424D01*
X153832262Y-114014733D01*
X153605550Y-113998762D01*
X153605544Y-113998762D01*
X153605543Y-113998762D01*
X153183590Y-114008656D01*
X153183566Y-114008658D01*
X152764413Y-114058018D01*
X152764386Y-114058022D01*
X152351700Y-114146415D01*
X152351679Y-114146421D01*
X152351676Y-114146422D01*
X151980714Y-114263121D01*
X151949040Y-114273085D01*
X151560043Y-114436891D01*
X151560033Y-114436896D01*
X151188097Y-114636401D01*
X151018487Y-114749014D01*
X150836461Y-114869870D01*
X150836458Y-114869871D01*
X150836454Y-114869875D01*
X150836450Y-114869877D01*
X150508237Y-115135235D01*
X150206298Y-115430177D01*
X149933309Y-115752091D01*
X149691656Y-116098166D01*
X149483484Y-116465329D01*
X149310606Y-116850374D01*
X149174537Y-117249936D01*
X149076488Y-117660459D01*
X149076483Y-117660484D01*
X149017308Y-118078373D01*
X149017308Y-118078382D01*
X148999797Y-118451586D01*
X148997525Y-118500000D01*
X147554500Y-118500000D01*
X147554500Y-113541399D01*
X147574462Y-113466899D01*
X147598141Y-113436040D01*
X148436040Y-112598141D01*
X148502835Y-112559577D01*
X148541399Y-112554500D01*
X153073002Y-112554500D01*
X153214029Y-112516712D01*
X153271921Y-112483288D01*
X153340471Y-112443711D01*
X153443711Y-112340471D01*
X153443711Y-112340469D01*
X153455973Y-112328208D01*
X153455977Y-112328203D01*
X154828203Y-110955977D01*
X154828208Y-110955973D01*
X154840469Y-110943711D01*
X154840471Y-110943711D01*
X154943711Y-110840471D01*
X155016712Y-110714029D01*
X155054500Y-110573001D01*
X155054500Y-93926999D01*
X155016712Y-93785971D01*
X154943711Y-93659529D01*
X154943709Y-93659527D01*
X154943708Y-93659525D01*
X154835268Y-93551086D01*
X154835267Y-93551086D01*
X153479349Y-92195168D01*
X153440785Y-92128373D01*
X153436344Y-92076060D01*
X153442929Y-92005002D01*
X153442929Y-92004996D01*
X153426436Y-91827013D01*
X153423256Y-91792690D01*
X153364905Y-91587611D01*
X153269866Y-91396745D01*
X153269864Y-91396743D01*
X153269863Y-91396740D01*
X153141372Y-91226593D01*
X152983802Y-91082948D01*
X152983801Y-91082947D01*
X152800869Y-90969680D01*
X152748037Y-90913489D01*
X152730379Y-90838409D01*
X152752626Y-90764559D01*
X152808817Y-90711727D01*
X152816338Y-90707958D01*
X152965081Y-90638598D01*
X152965086Y-90638595D01*
X153048873Y-90579926D01*
X152416909Y-89947962D01*
X152480493Y-89930925D01*
X152594507Y-89865099D01*
X152687599Y-89772007D01*
X152753425Y-89657993D01*
X152770462Y-89594408D01*
X153402426Y-90226372D01*
X153461095Y-90142586D01*
X153461098Y-90142580D01*
X153560930Y-89928491D01*
X153560931Y-89928489D01*
X153622068Y-89700321D01*
X153642657Y-89465000D01*
X153642657Y-89464999D01*
X153622068Y-89229678D01*
X153560931Y-89001512D01*
X153461097Y-88787418D01*
X153402425Y-88703626D01*
X152770462Y-89335589D01*
X152753425Y-89272007D01*
X152687599Y-89157993D01*
X152594507Y-89064901D01*
X152480493Y-88999075D01*
X152416907Y-88982037D01*
X153048872Y-88350073D01*
X152965078Y-88291399D01*
X152965073Y-88291396D01*
X152750991Y-88191569D01*
X152750989Y-88191568D01*
X152522821Y-88130431D01*
X152522822Y-88130431D01*
X152287501Y-88109843D01*
X152287499Y-88109843D01*
X152052178Y-88130431D01*
X151824010Y-88191568D01*
X151824008Y-88191569D01*
X151609924Y-88291398D01*
X151526126Y-88350073D01*
X152158090Y-88982037D01*
X152094507Y-88999075D01*
X151980493Y-89064901D01*
X151887401Y-89157993D01*
X151821575Y-89272007D01*
X151804537Y-89335590D01*
X151172573Y-88703626D01*
X151113898Y-88787424D01*
X151042125Y-88941343D01*
X150992548Y-89000427D01*
X150920071Y-89026806D01*
X150844115Y-89013413D01*
X150785031Y-88963836D01*
X150773705Y-88944787D01*
X150761716Y-88920709D01*
X150729866Y-88856745D01*
X150729864Y-88856743D01*
X150729863Y-88856740D01*
X150601372Y-88686593D01*
X150443802Y-88542948D01*
X150443801Y-88542947D01*
X150262522Y-88430703D01*
X150262516Y-88430700D01*
X150063704Y-88353681D01*
X150063700Y-88353680D01*
X150063698Y-88353679D01*
X150021780Y-88345843D01*
X149854114Y-88314500D01*
X149854110Y-88314500D01*
X149640890Y-88314500D01*
X149640885Y-88314500D01*
X149431302Y-88353679D01*
X149431295Y-88353681D01*
X149232483Y-88430700D01*
X149232477Y-88430703D01*
X149051198Y-88542947D01*
X149051197Y-88542948D01*
X148893627Y-88686593D01*
X148765134Y-88856744D01*
X148762060Y-88862918D01*
X148710981Y-88920709D01*
X148637851Y-88945218D01*
X148628682Y-88945500D01*
X120803502Y-88945500D01*
X120657498Y-88945500D01*
X120554859Y-88973002D01*
X120542063Y-88976430D01*
X120516469Y-88983288D01*
X120390028Y-89056289D01*
X120286787Y-89159531D01*
X108895958Y-100550359D01*
X108829163Y-100588923D01*
X108790599Y-100594000D01*
X107691133Y-100594000D01*
X107666010Y-100596914D01*
X107666007Y-100596915D01*
X107563235Y-100642293D01*
X107483793Y-100721735D01*
X107438416Y-100824505D01*
X107438415Y-100824508D01*
X107438415Y-100824509D01*
X107435500Y-100849635D01*
X107435500Y-100849639D01*
X107435500Y-100849640D01*
X107435500Y-102539366D01*
X107438414Y-102564489D01*
X107438415Y-102564492D01*
X107483793Y-102667264D01*
X107483794Y-102667265D01*
X107563235Y-102746706D01*
X107666009Y-102792085D01*
X107691135Y-102795000D01*
X109380864Y-102794999D01*
X109380866Y-102794999D01*
X109393427Y-102793542D01*
X109405991Y-102792085D01*
X109508765Y-102746706D01*
X109588206Y-102667265D01*
X109633585Y-102564491D01*
X109636500Y-102539365D01*
X109636500Y-102271866D01*
X111213500Y-102271866D01*
X111216414Y-102296989D01*
X111216415Y-102296992D01*
X111261793Y-102399764D01*
X111261794Y-102399765D01*
X111341235Y-102479206D01*
X111444009Y-102524585D01*
X111469135Y-102527500D01*
X112558864Y-102527499D01*
X112558866Y-102527499D01*
X112571427Y-102526042D01*
X112583991Y-102524585D01*
X112686765Y-102479206D01*
X112766206Y-102399765D01*
X112811585Y-102296991D01*
X112814500Y-102271865D01*
X112814499Y-101182136D01*
X112811585Y-101157009D01*
X112766206Y-101054235D01*
X112686765Y-100974794D01*
X112686764Y-100974793D01*
X112583994Y-100929416D01*
X112583991Y-100929415D01*
X112583353Y-100929341D01*
X112558865Y-100926500D01*
X112558859Y-100926500D01*
X111469133Y-100926500D01*
X111444010Y-100929414D01*
X111444007Y-100929415D01*
X111341235Y-100974793D01*
X111261793Y-101054235D01*
X111216416Y-101157005D01*
X111216415Y-101157008D01*
X111216415Y-101157009D01*
X111213500Y-101182135D01*
X111213500Y-101182136D01*
X111213500Y-101182140D01*
X111213500Y-102271866D01*
X109636500Y-102271866D01*
X109636499Y-101439897D01*
X109656461Y-101365398D01*
X109680136Y-101334543D01*
X110811677Y-100203002D01*
X114528334Y-100203002D01*
X114546516Y-100341117D01*
X114546517Y-100341122D01*
X114599830Y-100469831D01*
X114684640Y-100580358D01*
X114684641Y-100580359D01*
X114795168Y-100665169D01*
X114830829Y-100679940D01*
X114918872Y-100716409D01*
X114967210Y-100748707D01*
X117691291Y-103472788D01*
X117723590Y-103521126D01*
X117774831Y-103644832D01*
X117859640Y-103755358D01*
X117859641Y-103755359D01*
X117970168Y-103840169D01*
X118098877Y-103893482D01*
X118098882Y-103893483D01*
X118236997Y-103911666D01*
X118237000Y-103911666D01*
X118237003Y-103911666D01*
X118375117Y-103893483D01*
X118375120Y-103893482D01*
X118375123Y-103893482D01*
X118466134Y-103855783D01*
X118503831Y-103840169D01*
X118503831Y-103840168D01*
X118503833Y-103840168D01*
X118614359Y-103755359D01*
X118699168Y-103644833D01*
X118752482Y-103516123D01*
X118752483Y-103516117D01*
X118770666Y-103378002D01*
X118770666Y-103377997D01*
X118752483Y-103239882D01*
X118752482Y-103239877D01*
X118699169Y-103111168D01*
X118614359Y-103000641D01*
X118614358Y-103000640D01*
X118503832Y-102915831D01*
X118380126Y-102864590D01*
X118331788Y-102832291D01*
X115607707Y-100108210D01*
X115575408Y-100059871D01*
X115524169Y-99936168D01*
X115439359Y-99825641D01*
X115439358Y-99825640D01*
X115328831Y-99740830D01*
X115200122Y-99687517D01*
X115200117Y-99687516D01*
X115062003Y-99669334D01*
X115061997Y-99669334D01*
X114923882Y-99687516D01*
X114923877Y-99687517D01*
X114795168Y-99740830D01*
X114684641Y-99825640D01*
X114684640Y-99825641D01*
X114599830Y-99936168D01*
X114546517Y-100064877D01*
X114546516Y-100064882D01*
X114528334Y-100202997D01*
X114528334Y-100203002D01*
X110811677Y-100203002D01*
X120916540Y-90098141D01*
X120983335Y-90059577D01*
X121021899Y-90054500D01*
X148676778Y-90054500D01*
X148751278Y-90074462D01*
X148795682Y-90113707D01*
X148893627Y-90243406D01*
X149051197Y-90387051D01*
X149051198Y-90387052D01*
X149232477Y-90499296D01*
X149232483Y-90499299D01*
X149319689Y-90533082D01*
X149431302Y-90576321D01*
X149496652Y-90588537D01*
X149566216Y-90621849D01*
X149609803Y-90685480D01*
X149615736Y-90762379D01*
X149582424Y-90831943D01*
X149518793Y-90875530D01*
X149496653Y-90881462D01*
X149431302Y-90893679D01*
X149431295Y-90893681D01*
X149232483Y-90970700D01*
X149232477Y-90970703D01*
X149051198Y-91082947D01*
X149051197Y-91082948D01*
X148893627Y-91226593D01*
X148765136Y-91396740D01*
X148670094Y-91587612D01*
X148670093Y-91587614D01*
X148611743Y-91792694D01*
X148592071Y-92004995D01*
X148592071Y-92005003D01*
X148595687Y-92044027D01*
X148582684Y-92120051D01*
X148552682Y-92163134D01*
X143659531Y-97056287D01*
X143556289Y-97159528D01*
X143483288Y-97285970D01*
X143445500Y-97426995D01*
X143445500Y-112708601D01*
X143425538Y-112783101D01*
X143401859Y-112813960D01*
X141813960Y-114401859D01*
X141747165Y-114440423D01*
X141708601Y-114445500D01*
X131426994Y-114445500D01*
X131317601Y-114474812D01*
X131317600Y-114474813D01*
X131285971Y-114483288D01*
X131285970Y-114483288D01*
X131285968Y-114483289D01*
X131159528Y-114556289D01*
X129936289Y-115779528D01*
X129863288Y-115905970D01*
X129825500Y-116046995D01*
X129825500Y-116907154D01*
X129805538Y-116981654D01*
X129754940Y-117033836D01*
X129683698Y-117077947D01*
X129526127Y-117221593D01*
X129397636Y-117391741D01*
X129353793Y-117479789D01*
X129302716Y-117537580D01*
X129229586Y-117562090D01*
X129153998Y-117546752D01*
X129096207Y-117495675D01*
X129085374Y-117476343D01*
X129013599Y-117322421D01*
X129013598Y-117322420D01*
X128878108Y-117128920D01*
X128711076Y-116961888D01*
X128517588Y-116826406D01*
X128517579Y-116826400D01*
X128303491Y-116726569D01*
X128303489Y-116726568D01*
X128090000Y-116669364D01*
X128090000Y-117566988D01*
X128032993Y-117534075D01*
X127905826Y-117500000D01*
X127774174Y-117500000D01*
X127647007Y-117534075D01*
X127590000Y-117566988D01*
X127590000Y-116669364D01*
X127589999Y-116669364D01*
X127376512Y-116726568D01*
X127162419Y-116826402D01*
X126968920Y-116961891D01*
X126801891Y-117128920D01*
X126666402Y-117322419D01*
X126594625Y-117476344D01*
X126545047Y-117535427D01*
X126472570Y-117561806D01*
X126396614Y-117548413D01*
X126337531Y-117498835D01*
X126326205Y-117479787D01*
X126313390Y-117454051D01*
X126282366Y-117391745D01*
X126282363Y-117391741D01*
X126282363Y-117391740D01*
X126153872Y-117221593D01*
X125996302Y-117077948D01*
X125996301Y-117077947D01*
X125815022Y-116965703D01*
X125815016Y-116965700D01*
X125616204Y-116888681D01*
X125616200Y-116888680D01*
X125616198Y-116888679D01*
X125574280Y-116880843D01*
X125406614Y-116849500D01*
X125406610Y-116849500D01*
X125193390Y-116849500D01*
X125193385Y-116849500D01*
X124983802Y-116888679D01*
X124983795Y-116888681D01*
X124784983Y-116965700D01*
X124784977Y-116965703D01*
X124603698Y-117077947D01*
X124603697Y-117077948D01*
X124446127Y-117221593D01*
X124317636Y-117391740D01*
X124222594Y-117582612D01*
X124222593Y-117582614D01*
X124173312Y-117755820D01*
X124133724Y-117822013D01*
X124066343Y-117859544D01*
X123989224Y-117858356D01*
X123923031Y-117818768D01*
X123886688Y-117755820D01*
X123837406Y-117582614D01*
X123837405Y-117582612D01*
X123837405Y-117582611D01*
X123742366Y-117391745D01*
X123742363Y-117391741D01*
X123742363Y-117391740D01*
X123613872Y-117221593D01*
X123456302Y-117077948D01*
X123456301Y-117077947D01*
X123275022Y-116965703D01*
X123275016Y-116965700D01*
X123076204Y-116888681D01*
X123076200Y-116888680D01*
X123076198Y-116888679D01*
X123034280Y-116880843D01*
X122866614Y-116849500D01*
X122866610Y-116849500D01*
X122653390Y-116849500D01*
X122653385Y-116849500D01*
X122443802Y-116888679D01*
X122443795Y-116888681D01*
X122244983Y-116965700D01*
X122244977Y-116965703D01*
X122063698Y-117077947D01*
X122063697Y-117077948D01*
X121906127Y-117221593D01*
X121777636Y-117391740D01*
X121682594Y-117582612D01*
X121682593Y-117582614D01*
X121633312Y-117755820D01*
X121593724Y-117822013D01*
X121526343Y-117859544D01*
X121449224Y-117858356D01*
X121383031Y-117818768D01*
X121346688Y-117755820D01*
X121297406Y-117582614D01*
X121297405Y-117582612D01*
X121297405Y-117582611D01*
X121202366Y-117391745D01*
X121202363Y-117391741D01*
X121202363Y-117391740D01*
X121073872Y-117221593D01*
X120916302Y-117077948D01*
X120916301Y-117077947D01*
X120735022Y-116965703D01*
X120735016Y-116965700D01*
X120536204Y-116888681D01*
X120536200Y-116888680D01*
X120536198Y-116888679D01*
X120494280Y-116880843D01*
X120326614Y-116849500D01*
X120326610Y-116849500D01*
X120113390Y-116849500D01*
X120113385Y-116849500D01*
X119903802Y-116888679D01*
X119903795Y-116888681D01*
X119704983Y-116965700D01*
X119704977Y-116965703D01*
X119523698Y-117077947D01*
X119523697Y-117077948D01*
X119366127Y-117221593D01*
X119237636Y-117391740D01*
X119142594Y-117582612D01*
X119142593Y-117582614D01*
X119093312Y-117755820D01*
X119053724Y-117822013D01*
X118986343Y-117859544D01*
X118909224Y-117858356D01*
X118843031Y-117818768D01*
X118806688Y-117755820D01*
X118757406Y-117582614D01*
X118757405Y-117582612D01*
X118757405Y-117582611D01*
X118662366Y-117391745D01*
X118662363Y-117391741D01*
X118662363Y-117391740D01*
X118533872Y-117221593D01*
X118376302Y-117077948D01*
X118376301Y-117077947D01*
X118195022Y-116965703D01*
X118195016Y-116965700D01*
X117996204Y-116888681D01*
X117996200Y-116888680D01*
X117996198Y-116888679D01*
X117954280Y-116880843D01*
X117786614Y-116849500D01*
X117786610Y-116849500D01*
X117573390Y-116849500D01*
X117573385Y-116849500D01*
X117363802Y-116888679D01*
X117363795Y-116888681D01*
X117164983Y-116965700D01*
X117164977Y-116965703D01*
X116983698Y-117077947D01*
X116983697Y-117077948D01*
X116826127Y-117221593D01*
X116697636Y-117391740D01*
X116602594Y-117582612D01*
X116602593Y-117582614D01*
X116553312Y-117755820D01*
X116513724Y-117822013D01*
X116446343Y-117859544D01*
X116369224Y-117858356D01*
X116303031Y-117818768D01*
X116266688Y-117755820D01*
X116217406Y-117582614D01*
X116217405Y-117582612D01*
X116217405Y-117582611D01*
X116122366Y-117391745D01*
X116122363Y-117391741D01*
X116122363Y-117391740D01*
X115993872Y-117221593D01*
X115836302Y-117077948D01*
X115836301Y-117077947D01*
X115655022Y-116965703D01*
X115655016Y-116965700D01*
X115456204Y-116888681D01*
X115456200Y-116888680D01*
X115456198Y-116888679D01*
X115414280Y-116880843D01*
X115246614Y-116849500D01*
X115246610Y-116849500D01*
X115033390Y-116849500D01*
X115033385Y-116849500D01*
X114823802Y-116888679D01*
X114823795Y-116888681D01*
X114624983Y-116965700D01*
X114624977Y-116965703D01*
X114443698Y-117077947D01*
X114443697Y-117077948D01*
X114286127Y-117221593D01*
X114157636Y-117391740D01*
X114062594Y-117582612D01*
X114062593Y-117582614D01*
X114013312Y-117755820D01*
X113973724Y-117822013D01*
X113906343Y-117859544D01*
X113829224Y-117858356D01*
X113763031Y-117818768D01*
X113726688Y-117755820D01*
X113677406Y-117582614D01*
X113677405Y-117582612D01*
X113677405Y-117582611D01*
X113582366Y-117391745D01*
X113582363Y-117391741D01*
X113582363Y-117391740D01*
X113453872Y-117221593D01*
X113296302Y-117077948D01*
X113296301Y-117077947D01*
X113115022Y-116965703D01*
X113115016Y-116965700D01*
X112916204Y-116888681D01*
X112916200Y-116888680D01*
X112916198Y-116888679D01*
X112874280Y-116880843D01*
X112706614Y-116849500D01*
X112706610Y-116849500D01*
X112493390Y-116849500D01*
X112493385Y-116849500D01*
X112283802Y-116888679D01*
X112283795Y-116888681D01*
X112084983Y-116965700D01*
X112084977Y-116965703D01*
X111903698Y-117077947D01*
X111903697Y-117077948D01*
X111746127Y-117221593D01*
X111617636Y-117391740D01*
X111522594Y-117582612D01*
X111522593Y-117582614D01*
X111473312Y-117755820D01*
X111433724Y-117822013D01*
X111366343Y-117859544D01*
X111289224Y-117858356D01*
X111223031Y-117818768D01*
X111186688Y-117755820D01*
X111137406Y-117582614D01*
X111137405Y-117582612D01*
X111137405Y-117582611D01*
X111042366Y-117391745D01*
X111042363Y-117391741D01*
X111042363Y-117391740D01*
X110913872Y-117221593D01*
X110756302Y-117077948D01*
X110756301Y-117077947D01*
X110575022Y-116965703D01*
X110575016Y-116965700D01*
X110376204Y-116888681D01*
X110376200Y-116888680D01*
X110376198Y-116888679D01*
X110334280Y-116880843D01*
X110166614Y-116849500D01*
X110166610Y-116849500D01*
X109953390Y-116849500D01*
X109953385Y-116849500D01*
X109743802Y-116888679D01*
X109743795Y-116888681D01*
X109544983Y-116965700D01*
X109544977Y-116965703D01*
X109363698Y-117077947D01*
X109363697Y-117077948D01*
X109206127Y-117221593D01*
X109077636Y-117391740D01*
X108982594Y-117582612D01*
X108982593Y-117582614D01*
X108933312Y-117755820D01*
X108893724Y-117822013D01*
X108826343Y-117859544D01*
X108749224Y-117858356D01*
X108683031Y-117818768D01*
X108646688Y-117755820D01*
X108597406Y-117582614D01*
X108597405Y-117582612D01*
X108597405Y-117582611D01*
X108502366Y-117391745D01*
X108502363Y-117391741D01*
X108502363Y-117391740D01*
X108373872Y-117221593D01*
X108216302Y-117077948D01*
X108216301Y-117077947D01*
X108035022Y-116965703D01*
X108035016Y-116965700D01*
X107836204Y-116888681D01*
X107836200Y-116888680D01*
X107836198Y-116888679D01*
X107794280Y-116880843D01*
X107626614Y-116849500D01*
X107626610Y-116849500D01*
X107413390Y-116849500D01*
X107413385Y-116849500D01*
X107203802Y-116888679D01*
X107203795Y-116888681D01*
X107004983Y-116965700D01*
X107004977Y-116965703D01*
X106823698Y-117077947D01*
X106823697Y-117077948D01*
X106666127Y-117221593D01*
X106537636Y-117391740D01*
X106442594Y-117582612D01*
X106442593Y-117582614D01*
X106393312Y-117755820D01*
X106353724Y-117822013D01*
X106286343Y-117859544D01*
X106209224Y-117858356D01*
X106143031Y-117818768D01*
X106106688Y-117755820D01*
X106057406Y-117582614D01*
X106057405Y-117582612D01*
X106057405Y-117582611D01*
X105962366Y-117391745D01*
X105962363Y-117391741D01*
X105962363Y-117391740D01*
X105833872Y-117221593D01*
X105676302Y-117077948D01*
X105676301Y-117077947D01*
X105495022Y-116965703D01*
X105495016Y-116965700D01*
X105296204Y-116888681D01*
X105296200Y-116888680D01*
X105296198Y-116888679D01*
X105254280Y-116880843D01*
X105086614Y-116849500D01*
X105086610Y-116849500D01*
X104873390Y-116849500D01*
X104873385Y-116849500D01*
X104663802Y-116888679D01*
X104663795Y-116888681D01*
X104464983Y-116965700D01*
X104464977Y-116965703D01*
X104283698Y-117077947D01*
X104283697Y-117077948D01*
X104126127Y-117221593D01*
X103997636Y-117391740D01*
X103902594Y-117582612D01*
X103902593Y-117582614D01*
X103853312Y-117755820D01*
X103813724Y-117822013D01*
X103746343Y-117859544D01*
X103669224Y-117858356D01*
X103603031Y-117818768D01*
X103566688Y-117755820D01*
X103517406Y-117582614D01*
X103517405Y-117582612D01*
X103517405Y-117582611D01*
X103422366Y-117391745D01*
X103422363Y-117391741D01*
X103422363Y-117391740D01*
X103293872Y-117221593D01*
X103136302Y-117077948D01*
X103136301Y-117077947D01*
X102955022Y-116965703D01*
X102955016Y-116965700D01*
X102756204Y-116888681D01*
X102756200Y-116888680D01*
X102756198Y-116888679D01*
X102714280Y-116880843D01*
X102546614Y-116849500D01*
X102546610Y-116849500D01*
X102333390Y-116849500D01*
X102333385Y-116849500D01*
X102123802Y-116888679D01*
X102123795Y-116888681D01*
X101924983Y-116965700D01*
X101924977Y-116965703D01*
X101743698Y-117077947D01*
X101743697Y-117077948D01*
X101586127Y-117221593D01*
X101457636Y-117391741D01*
X101413793Y-117479789D01*
X101362716Y-117537580D01*
X101289586Y-117562090D01*
X101213998Y-117546752D01*
X101156207Y-117495675D01*
X101145374Y-117476343D01*
X101073599Y-117322421D01*
X101073598Y-117322420D01*
X100938108Y-117128920D01*
X100771076Y-116961888D01*
X100577588Y-116826406D01*
X100577579Y-116826400D01*
X100363491Y-116726569D01*
X100363489Y-116726568D01*
X100150000Y-116669364D01*
X100150000Y-117566988D01*
X100092993Y-117534075D01*
X99965826Y-117500000D01*
X99834174Y-117500000D01*
X99707007Y-117534075D01*
X99650000Y-117566988D01*
X99650000Y-116669364D01*
X99649999Y-116669364D01*
X99436512Y-116726568D01*
X99222419Y-116826402D01*
X99028920Y-116961891D01*
X98861891Y-117128920D01*
X98726402Y-117322419D01*
X98626568Y-117536512D01*
X98569364Y-117749999D01*
X98569364Y-117750000D01*
X99466988Y-117750000D01*
X99434075Y-117807007D01*
X99400000Y-117934174D01*
X99400000Y-118065826D01*
X99434075Y-118192993D01*
X99466988Y-118250000D01*
X98569364Y-118250000D01*
X60993863Y-118250000D01*
X60958002Y-117868731D01*
X60879301Y-117454051D01*
X60768307Y-117069991D01*
X60762117Y-117048572D01*
X60762116Y-117048571D01*
X60762114Y-117048562D01*
X60607471Y-116655829D01*
X60416732Y-116279303D01*
X60191573Y-115922292D01*
X60191571Y-115922290D01*
X60191569Y-115922286D01*
X59933971Y-115587934D01*
X59904840Y-115556679D01*
X59646192Y-115279168D01*
X59330764Y-114998706D01*
X58990459Y-114749014D01*
X58990454Y-114749011D01*
X58990450Y-114749008D01*
X58769653Y-114616887D01*
X58628268Y-114532285D01*
X58507895Y-114474812D01*
X58247383Y-114350429D01*
X58247380Y-114350428D01*
X58247374Y-114350425D01*
X57987695Y-114255143D01*
X57851125Y-114205032D01*
X57443015Y-114097386D01*
X57443002Y-114097383D01*
X57026594Y-114028424D01*
X56832262Y-114014733D01*
X56605550Y-113998762D01*
X56605544Y-113998762D01*
X56605543Y-113998762D01*
X56183590Y-114008656D01*
X56183566Y-114008658D01*
X55764413Y-114058018D01*
X55764386Y-114058022D01*
X55351700Y-114146415D01*
X55351679Y-114146421D01*
X55351676Y-114146422D01*
X54980714Y-114263121D01*
X54949040Y-114273085D01*
X54560043Y-114436891D01*
X54560033Y-114436896D01*
X54188097Y-114636401D01*
X54018487Y-114749014D01*
X53836461Y-114869870D01*
X53836458Y-114869871D01*
X53836454Y-114869875D01*
X53836450Y-114869877D01*
X53508237Y-115135235D01*
X53206298Y-115430177D01*
X52933309Y-115752091D01*
X52691656Y-116098166D01*
X52483484Y-116465329D01*
X52310606Y-116850374D01*
X52174537Y-117249936D01*
X52076488Y-117660459D01*
X52076483Y-117660484D01*
X52017308Y-118078373D01*
X52017308Y-118078382D01*
X51999797Y-118451586D01*
X51997525Y-118500000D01*
X50000004Y-118500000D01*
X50000000Y-118499250D01*
X50000000Y-113538002D01*
X67969275Y-113538002D01*
X67990083Y-113696064D01*
X68051095Y-113843361D01*
X68148151Y-113969847D01*
X68148152Y-113969848D01*
X68274638Y-114066904D01*
X68421935Y-114127916D01*
X68495565Y-114137609D01*
X68566822Y-114167124D01*
X68581477Y-114179975D01*
X69571912Y-115170410D01*
X69675187Y-115230036D01*
X69790374Y-115260900D01*
X69790375Y-115260900D01*
X90250685Y-115260900D01*
X90325185Y-115280862D01*
X90356044Y-115304541D01*
X90502959Y-115451456D01*
X90541523Y-115518251D01*
X90541523Y-115595379D01*
X90502959Y-115662174D01*
X90436725Y-115700587D01*
X90430008Y-115702414D01*
X90327235Y-115747793D01*
X90247793Y-115827235D01*
X90202416Y-115930005D01*
X90202415Y-115930008D01*
X90202415Y-115930009D01*
X90199500Y-115955135D01*
X90199500Y-115955136D01*
X90199500Y-115955140D01*
X90199500Y-117044866D01*
X90202414Y-117069989D01*
X90202415Y-117069992D01*
X90247793Y-117172764D01*
X90247794Y-117172765D01*
X90327235Y-117252206D01*
X90430009Y-117297585D01*
X90455135Y-117300500D01*
X91544864Y-117300499D01*
X91544866Y-117300499D01*
X91557427Y-117299042D01*
X91569991Y-117297585D01*
X91672765Y-117252206D01*
X91752206Y-117172765D01*
X91797585Y-117069991D01*
X91800500Y-117044865D01*
X91800499Y-115955136D01*
X91797585Y-115930009D01*
X91752206Y-115827235D01*
X91672765Y-115747794D01*
X91672764Y-115747793D01*
X91569990Y-115702414D01*
X91562772Y-115700450D01*
X91496129Y-115661624D01*
X91457827Y-115594679D01*
X91452900Y-115556679D01*
X91452900Y-115409900D01*
X91472862Y-115335400D01*
X91527400Y-115280862D01*
X91601900Y-115260900D01*
X100274201Y-115260900D01*
X100274203Y-115260900D01*
X100389391Y-115230036D01*
X100492665Y-115170410D01*
X103081810Y-112581266D01*
X103141436Y-112477991D01*
X103172300Y-112362804D01*
X103172300Y-112243553D01*
X103172300Y-109314504D01*
X107430785Y-109314504D01*
X107449602Y-109517578D01*
X107449602Y-109517580D01*
X107449603Y-109517583D01*
X107473191Y-109600486D01*
X107505416Y-109713745D01*
X107505417Y-109713747D01*
X107505418Y-109713750D01*
X107596327Y-109896321D01*
X107596328Y-109896323D01*
X107677174Y-110003380D01*
X107719236Y-110059079D01*
X107858437Y-110185977D01*
X107869958Y-110196480D01*
X107869963Y-110196484D01*
X108043356Y-110303844D01*
X108043367Y-110303850D01*
X108110611Y-110329900D01*
X108233544Y-110377524D01*
X108434024Y-110415000D01*
X108434027Y-110415000D01*
X108637973Y-110415000D01*
X108637976Y-110415000D01*
X108838456Y-110377524D01*
X109028637Y-110303848D01*
X109202041Y-110196481D01*
X109352764Y-110059079D01*
X109475673Y-109896321D01*
X109566582Y-109713750D01*
X109622397Y-109517583D01*
X109641215Y-109314500D01*
X109640424Y-109305965D01*
X109622397Y-109111421D01*
X109622397Y-109111417D01*
X109566582Y-108915250D01*
X109475673Y-108732679D01*
X109352764Y-108569921D01*
X109202041Y-108432519D01*
X109202036Y-108432515D01*
X109028643Y-108325155D01*
X109028632Y-108325149D01*
X108838462Y-108251478D01*
X108838458Y-108251477D01*
X108838456Y-108251476D01*
X108798360Y-108243980D01*
X108637980Y-108214000D01*
X108637976Y-108214000D01*
X108434024Y-108214000D01*
X108434019Y-108214000D01*
X108233544Y-108251476D01*
X108233537Y-108251478D01*
X108043367Y-108325149D01*
X108043356Y-108325155D01*
X107869963Y-108432515D01*
X107869958Y-108432519D01*
X107719234Y-108569923D01*
X107596328Y-108732676D01*
X107505416Y-108915254D01*
X107449602Y-109111421D01*
X107430785Y-109314495D01*
X107430785Y-109314504D01*
X103172300Y-109314504D01*
X103172300Y-105454990D01*
X103192262Y-105380490D01*
X103203083Y-105364293D01*
X103248303Y-105305363D01*
X103254460Y-105290500D01*
X103294901Y-105192866D01*
X111213500Y-105192866D01*
X111216414Y-105217989D01*
X111216415Y-105217992D01*
X111261793Y-105320764D01*
X111261794Y-105320765D01*
X111341235Y-105400206D01*
X111444009Y-105445585D01*
X111469135Y-105448500D01*
X112558864Y-105448499D01*
X112558866Y-105448499D01*
X112571427Y-105447042D01*
X112583991Y-105445585D01*
X112686765Y-105400206D01*
X112766206Y-105320765D01*
X112811585Y-105217991D01*
X112814500Y-105192865D01*
X112814499Y-104103136D01*
X112811585Y-104078009D01*
X112766206Y-103975235D01*
X112686765Y-103895794D01*
X112686764Y-103895793D01*
X112583994Y-103850416D01*
X112583991Y-103850415D01*
X112583982Y-103850414D01*
X112558865Y-103847500D01*
X112558859Y-103847500D01*
X111469133Y-103847500D01*
X111444010Y-103850414D01*
X111444007Y-103850415D01*
X111341235Y-103895793D01*
X111261793Y-103975235D01*
X111216416Y-104078005D01*
X111216415Y-104078008D01*
X111216415Y-104078009D01*
X111213500Y-104103135D01*
X111213500Y-104103136D01*
X111213500Y-104103140D01*
X111213500Y-105192866D01*
X103294901Y-105192866D01*
X103294901Y-105192865D01*
X103309315Y-105158067D01*
X103309315Y-105158066D01*
X103309316Y-105158064D01*
X103330125Y-105000002D01*
X103330125Y-104999997D01*
X103309316Y-104841938D01*
X103309315Y-104841933D01*
X103248303Y-104694638D01*
X103151248Y-104568152D01*
X103151247Y-104568151D01*
X103024761Y-104471095D01*
X102877464Y-104410083D01*
X102719403Y-104389275D01*
X102709900Y-104389275D01*
X102635400Y-104369313D01*
X102580862Y-104314775D01*
X102560900Y-104240275D01*
X102560900Y-102949714D01*
X102580862Y-102875214D01*
X102604538Y-102844358D01*
X102748522Y-102700373D01*
X102815314Y-102661811D01*
X102834418Y-102658010D01*
X102908067Y-102648315D01*
X103055363Y-102587303D01*
X103181848Y-102490248D01*
X103278903Y-102363763D01*
X103339915Y-102216467D01*
X103339915Y-102216466D01*
X103339916Y-102216464D01*
X103360725Y-102058402D01*
X103360725Y-102058397D01*
X103339916Y-101900338D01*
X103339915Y-101900333D01*
X103278903Y-101753038D01*
X103181848Y-101626552D01*
X103181847Y-101626551D01*
X103055361Y-101529495D01*
X102908064Y-101468483D01*
X102750003Y-101447675D01*
X102749997Y-101447675D01*
X102591938Y-101468483D01*
X102591933Y-101468484D01*
X102444638Y-101529496D01*
X102318152Y-101626551D01*
X102318151Y-101626552D01*
X102221096Y-101753038D01*
X102160085Y-101900332D01*
X102150390Y-101973968D01*
X102120873Y-102045225D01*
X102108024Y-102059877D01*
X101829913Y-102337990D01*
X101829912Y-102337989D01*
X101745595Y-102422307D01*
X101745587Y-102422317D01*
X101685965Y-102525583D01*
X101655100Y-102640772D01*
X101655100Y-112018685D01*
X101635138Y-112093185D01*
X101611459Y-112124044D01*
X99932044Y-113803459D01*
X99865249Y-113842023D01*
X99826685Y-113847100D01*
X91601900Y-113847100D01*
X91527400Y-113827138D01*
X91472862Y-113772600D01*
X91452900Y-113698100D01*
X91452900Y-113465319D01*
X91472862Y-113390819D01*
X91527400Y-113336281D01*
X91562791Y-113321543D01*
X91569986Y-113319585D01*
X91569991Y-113319585D01*
X91672765Y-113274206D01*
X91752206Y-113194765D01*
X91797585Y-113091991D01*
X91800500Y-113066865D01*
X91800499Y-111977136D01*
X91797585Y-111952009D01*
X91752206Y-111849235D01*
X91672765Y-111769794D01*
X91672764Y-111769793D01*
X91569994Y-111724416D01*
X91569991Y-111724415D01*
X91569982Y-111724414D01*
X91544865Y-111721500D01*
X91544859Y-111721500D01*
X90455133Y-111721500D01*
X90430010Y-111724414D01*
X90430007Y-111724415D01*
X90327235Y-111769793D01*
X90247793Y-111849235D01*
X90202416Y-111952005D01*
X90202415Y-111952008D01*
X90202415Y-111952009D01*
X90199500Y-111977135D01*
X90199500Y-111977136D01*
X90199500Y-111977140D01*
X90199500Y-113066866D01*
X90202414Y-113091989D01*
X90202415Y-113091992D01*
X90247793Y-113194764D01*
X90327235Y-113274206D01*
X90430006Y-113319584D01*
X90430007Y-113319584D01*
X90430009Y-113319585D01*
X90430010Y-113319585D01*
X90437220Y-113321547D01*
X90503865Y-113360369D01*
X90542171Y-113427313D01*
X90547100Y-113465320D01*
X90547100Y-113550685D01*
X90527138Y-113625185D01*
X90503459Y-113656044D01*
X90356044Y-113803459D01*
X90289249Y-113842023D01*
X90250685Y-113847100D01*
X74163315Y-113847100D01*
X74088815Y-113827138D01*
X74057956Y-113803459D01*
X73793975Y-113539478D01*
X73755411Y-113472683D01*
X73751609Y-113453566D01*
X73741916Y-113379937D01*
X73741915Y-113379935D01*
X73741915Y-113379933D01*
X73680903Y-113232638D01*
X73583848Y-113106152D01*
X73565397Y-113091994D01*
X73457361Y-113009095D01*
X73310064Y-112948083D01*
X73152003Y-112927275D01*
X73151997Y-112927275D01*
X72993938Y-112948083D01*
X72993933Y-112948084D01*
X72846638Y-113009096D01*
X72720152Y-113106151D01*
X72720151Y-113106152D01*
X72623096Y-113232638D01*
X72562084Y-113379933D01*
X72562083Y-113379938D01*
X72541275Y-113537997D01*
X72541275Y-113538002D01*
X72562083Y-113696064D01*
X72623095Y-113843361D01*
X72720151Y-113969847D01*
X72720152Y-113969848D01*
X72846638Y-114066904D01*
X72846640Y-114066905D01*
X72850353Y-114068443D01*
X72853540Y-114070889D01*
X72855096Y-114071787D01*
X72854977Y-114071991D01*
X72911543Y-114115396D01*
X72941057Y-114186653D01*
X72930989Y-114263121D01*
X72884036Y-114324311D01*
X72812779Y-114353825D01*
X72793332Y-114355100D01*
X70099316Y-114355100D01*
X70024816Y-114335138D01*
X69993957Y-114311459D01*
X69221975Y-113539477D01*
X69183411Y-113472682D01*
X69179609Y-113453565D01*
X69169916Y-113379938D01*
X69169915Y-113379933D01*
X69108903Y-113232638D01*
X69011848Y-113106152D01*
X69011847Y-113106151D01*
X68885361Y-113009095D01*
X68738064Y-112948083D01*
X68580003Y-112927275D01*
X68579997Y-112927275D01*
X68421938Y-112948083D01*
X68421933Y-112948084D01*
X68274638Y-113009096D01*
X68148152Y-113106151D01*
X68148151Y-113106152D01*
X68051096Y-113232638D01*
X67990084Y-113379933D01*
X67990083Y-113379938D01*
X67969275Y-113537997D01*
X67969275Y-113538002D01*
X50000000Y-113538002D01*
X50000000Y-111760002D01*
X79476334Y-111760002D01*
X79494516Y-111898117D01*
X79494517Y-111898122D01*
X79547830Y-112026831D01*
X79632640Y-112137358D01*
X79632641Y-112137359D01*
X79743168Y-112222169D01*
X79871877Y-112275482D01*
X79871882Y-112275483D01*
X80009997Y-112293666D01*
X80010000Y-112293666D01*
X80010003Y-112293666D01*
X80148117Y-112275483D01*
X80148120Y-112275482D01*
X80148123Y-112275482D01*
X80276833Y-112222168D01*
X80387359Y-112137359D01*
X80472168Y-112026833D01*
X80523410Y-111903124D01*
X80555706Y-111854789D01*
X82185956Y-110224541D01*
X82252751Y-110185977D01*
X82291315Y-110180900D01*
X83410441Y-110180900D01*
X83484941Y-110200862D01*
X83539479Y-110255400D01*
X83559441Y-110329900D01*
X83558166Y-110349348D01*
X83540334Y-110484797D01*
X83540334Y-110484802D01*
X83558516Y-110622917D01*
X83558517Y-110622922D01*
X83611830Y-110751631D01*
X83696640Y-110862158D01*
X83696641Y-110862159D01*
X83807168Y-110946969D01*
X83922743Y-110994842D01*
X83983933Y-111041795D01*
X84013448Y-111113052D01*
X84003381Y-111189520D01*
X83956428Y-111250710D01*
X83922743Y-111270158D01*
X83807168Y-111318030D01*
X83696641Y-111402840D01*
X83696640Y-111402841D01*
X83611830Y-111513368D01*
X83558517Y-111642077D01*
X83558516Y-111642082D01*
X83540334Y-111780197D01*
X83540334Y-111780202D01*
X83558516Y-111918317D01*
X83558517Y-111918322D01*
X83611830Y-112047031D01*
X83696640Y-112157558D01*
X83696641Y-112157559D01*
X83807168Y-112242369D01*
X83935877Y-112295682D01*
X83935882Y-112295683D01*
X84073997Y-112313866D01*
X84074000Y-112313866D01*
X84074003Y-112313866D01*
X84212117Y-112295683D01*
X84212119Y-112295683D01*
X84212120Y-112295682D01*
X84212123Y-112295682D01*
X84335827Y-112244441D01*
X84392845Y-112233100D01*
X85383423Y-112233100D01*
X85383425Y-112233100D01*
X85498613Y-112202236D01*
X85601887Y-112142610D01*
X86514410Y-111230087D01*
X86574036Y-111126813D01*
X86604900Y-111011625D01*
X86604900Y-110892374D01*
X86604900Y-103063315D01*
X86624862Y-102988815D01*
X86648541Y-102957956D01*
X87051556Y-102554941D01*
X87118351Y-102516377D01*
X87156915Y-102511300D01*
X88204011Y-102511300D01*
X88278511Y-102531262D01*
X88333049Y-102585800D01*
X88353011Y-102660300D01*
X88333049Y-102734800D01*
X88309370Y-102765659D01*
X88247793Y-102827235D01*
X88202416Y-102930005D01*
X88202415Y-102930008D01*
X88202415Y-102930009D01*
X88199500Y-102955135D01*
X88199500Y-102955136D01*
X88199500Y-102955140D01*
X88199500Y-104044866D01*
X88202414Y-104069989D01*
X88202415Y-104069992D01*
X88247793Y-104172764D01*
X88247794Y-104172765D01*
X88327235Y-104252206D01*
X88430009Y-104297585D01*
X88455135Y-104300500D01*
X89544864Y-104300499D01*
X89544866Y-104300499D01*
X89557427Y-104299042D01*
X89569991Y-104297585D01*
X89672765Y-104252206D01*
X89752206Y-104172765D01*
X89797585Y-104069991D01*
X89800500Y-104044865D01*
X89800499Y-103401714D01*
X89820461Y-103327215D01*
X89844140Y-103296356D01*
X90029329Y-103111168D01*
X90398216Y-102742281D01*
X90585557Y-102554941D01*
X90652352Y-102516377D01*
X90690916Y-102511300D01*
X91204011Y-102511300D01*
X91278511Y-102531262D01*
X91333049Y-102585800D01*
X91353011Y-102660300D01*
X91333049Y-102734800D01*
X91309370Y-102765659D01*
X91247793Y-102827235D01*
X91202416Y-102930005D01*
X91202415Y-102930008D01*
X91202415Y-102930009D01*
X91199500Y-102955135D01*
X91199500Y-102955136D01*
X91199500Y-102955140D01*
X91199500Y-104044866D01*
X91202414Y-104069989D01*
X91202415Y-104069992D01*
X91247793Y-104172764D01*
X91247794Y-104172765D01*
X91327235Y-104252206D01*
X91430009Y-104297585D01*
X91455135Y-104300500D01*
X92098284Y-104300499D01*
X92172784Y-104320461D01*
X92203642Y-104344139D01*
X93221912Y-105362410D01*
X93325187Y-105422036D01*
X93440374Y-105452900D01*
X96059623Y-105452900D01*
X96059625Y-105452900D01*
X96174813Y-105422036D01*
X96278087Y-105362410D01*
X96862410Y-104778087D01*
X96922036Y-104674813D01*
X96952900Y-104559625D01*
X96952900Y-104440374D01*
X96952900Y-101190375D01*
X96950692Y-101182136D01*
X96943959Y-101157009D01*
X96922037Y-101075191D01*
X96922036Y-101075188D01*
X96922036Y-101075187D01*
X96864074Y-100974794D01*
X96862412Y-100971915D01*
X96862411Y-100971914D01*
X96862410Y-100971912D01*
X95960887Y-100070390D01*
X95951347Y-100064882D01*
X95857616Y-100010765D01*
X95857613Y-100010764D01*
X95826749Y-100002494D01*
X95742427Y-99979900D01*
X95742425Y-99979900D01*
X94704991Y-99979900D01*
X94630491Y-99959938D01*
X94614285Y-99949109D01*
X94555363Y-99903896D01*
X94408064Y-99842883D01*
X94250003Y-99822075D01*
X94249997Y-99822075D01*
X94091938Y-99842883D01*
X94091933Y-99842884D01*
X93944638Y-99903896D01*
X93885715Y-99949110D01*
X93814458Y-99978625D01*
X93795010Y-99979900D01*
X86609415Y-99979900D01*
X86530851Y-100000952D01*
X86530849Y-100000952D01*
X86494235Y-100010762D01*
X86494232Y-100010763D01*
X86390959Y-100070387D01*
X86390958Y-100070388D01*
X86390956Y-100070389D01*
X86390956Y-100070390D01*
X84811913Y-101649434D01*
X84811912Y-101649433D01*
X84727595Y-101733751D01*
X84727587Y-101733761D01*
X84667965Y-101837027D01*
X84637100Y-101952216D01*
X84637100Y-108716685D01*
X84617138Y-108791185D01*
X84593459Y-108822044D01*
X84184044Y-109231459D01*
X84117249Y-109270023D01*
X84078685Y-109275100D01*
X81982372Y-109275100D01*
X81867183Y-109305965D01*
X81763917Y-109365587D01*
X81763912Y-109365591D01*
X79915209Y-111214292D01*
X79866871Y-111246591D01*
X79743167Y-111297831D01*
X79632641Y-111382640D01*
X79632640Y-111382641D01*
X79547830Y-111493168D01*
X79494517Y-111621877D01*
X79494516Y-111621882D01*
X79476334Y-111759997D01*
X79476334Y-111760002D01*
X50000000Y-111760002D01*
X50000000Y-100143125D01*
X67136500Y-100143125D01*
X67162689Y-100274785D01*
X67162690Y-100274787D01*
X67214059Y-100398803D01*
X67214061Y-100398807D01*
X67214063Y-100398811D01*
X67288645Y-100510431D01*
X67383569Y-100605355D01*
X67495189Y-100679937D01*
X67619214Y-100731310D01*
X67750878Y-100757500D01*
X67750882Y-100757500D01*
X73994118Y-100757500D01*
X73994122Y-100757500D01*
X74125786Y-100731310D01*
X74249811Y-100679937D01*
X74361431Y-100605355D01*
X74456355Y-100510431D01*
X74530937Y-100398811D01*
X74582310Y-100274786D01*
X74608500Y-100143122D01*
X74608500Y-100008878D01*
X74582310Y-99877214D01*
X74530937Y-99753189D01*
X74456355Y-99641569D01*
X74361431Y-99546645D01*
X74249811Y-99472063D01*
X74249807Y-99472061D01*
X74249803Y-99472059D01*
X74125787Y-99420690D01*
X74125785Y-99420689D01*
X73994125Y-99394500D01*
X73994122Y-99394500D01*
X67750878Y-99394500D01*
X67750874Y-99394500D01*
X67619214Y-99420689D01*
X67619212Y-99420690D01*
X67495196Y-99472059D01*
X67495189Y-99472063D01*
X67383565Y-99546648D01*
X67288648Y-99641565D01*
X67214063Y-99753189D01*
X67214059Y-99753196D01*
X67162690Y-99877212D01*
X67162689Y-99877214D01*
X67136500Y-100008874D01*
X67136500Y-100143125D01*
X50000000Y-100143125D01*
X50000000Y-67098417D01*
X63099500Y-67098417D01*
X63130291Y-67292826D01*
X63191116Y-67480025D01*
X63191119Y-67480030D01*
X63191121Y-67480036D01*
X63241311Y-67578539D01*
X63280476Y-67655405D01*
X63396172Y-67814646D01*
X63535354Y-67953828D01*
X63694595Y-68069524D01*
X63869975Y-68158884D01*
X64057174Y-68219709D01*
X64251583Y-68250500D01*
X64296500Y-68250500D01*
X64371000Y-68270462D01*
X64425538Y-68325000D01*
X64445500Y-68399500D01*
X64445500Y-83869004D01*
X64483288Y-84010029D01*
X64556289Y-84136471D01*
X64668019Y-84248201D01*
X64668024Y-84248205D01*
X67223529Y-86803711D01*
X67349971Y-86876712D01*
X67490999Y-86914501D01*
X67491004Y-86914501D01*
X67646131Y-86914501D01*
X67646147Y-86914500D01*
X76670601Y-86914500D01*
X76745101Y-86934462D01*
X76775960Y-86958141D01*
X77633859Y-87816040D01*
X77672423Y-87882835D01*
X77677500Y-87921399D01*
X77677500Y-102375196D01*
X77666158Y-102432215D01*
X77642083Y-102490335D01*
X77621275Y-102648397D01*
X77621275Y-102648402D01*
X77642083Y-102806464D01*
X77703095Y-102953761D01*
X77800151Y-103080247D01*
X77800152Y-103080248D01*
X77926638Y-103177304D01*
X78073935Y-103238316D01*
X78231997Y-103259125D01*
X78232000Y-103259125D01*
X78232003Y-103259125D01*
X78390064Y-103238316D01*
X78390066Y-103238315D01*
X78390067Y-103238315D01*
X78537363Y-103177303D01*
X78663848Y-103080248D01*
X78760903Y-102953763D01*
X78763774Y-102946833D01*
X78811218Y-102832291D01*
X78821915Y-102806467D01*
X78821915Y-102806466D01*
X78821916Y-102806464D01*
X78842725Y-102648402D01*
X79145275Y-102648402D01*
X79166083Y-102806464D01*
X79227095Y-102953761D01*
X79324151Y-103080247D01*
X79324152Y-103080248D01*
X79450638Y-103177304D01*
X79597935Y-103238316D01*
X79755997Y-103259125D01*
X79756000Y-103259125D01*
X79756003Y-103259125D01*
X79914064Y-103238316D01*
X79914066Y-103238315D01*
X79914067Y-103238315D01*
X80061363Y-103177303D01*
X80187848Y-103080248D01*
X80284903Y-102953763D01*
X80287774Y-102946833D01*
X80335218Y-102832291D01*
X80345915Y-102806467D01*
X80345915Y-102806466D01*
X80345916Y-102806464D01*
X80366725Y-102648402D01*
X80366725Y-102648397D01*
X80345916Y-102490335D01*
X80321842Y-102432215D01*
X80310500Y-102375196D01*
X80310500Y-87921399D01*
X80330462Y-87846899D01*
X80354141Y-87816040D01*
X81212040Y-86958141D01*
X81278835Y-86919577D01*
X81317399Y-86914500D01*
X82121600Y-86914500D01*
X82196100Y-86934462D01*
X82250638Y-86989000D01*
X82270600Y-87063500D01*
X82250638Y-87138000D01*
X82226959Y-87168859D01*
X80836289Y-88559528D01*
X80836285Y-88559533D01*
X80775684Y-88664498D01*
X80775685Y-88664499D01*
X80763288Y-88685971D01*
X80763285Y-88685976D01*
X80744630Y-88755604D01*
X80725500Y-88826996D01*
X80725500Y-102375196D01*
X80714158Y-102432215D01*
X80690083Y-102490335D01*
X80669275Y-102648397D01*
X80669275Y-102648402D01*
X80690083Y-102806464D01*
X80751095Y-102953761D01*
X80848151Y-103080247D01*
X80848152Y-103080248D01*
X80974638Y-103177304D01*
X81121935Y-103238316D01*
X81279997Y-103259125D01*
X81280000Y-103259125D01*
X81280003Y-103259125D01*
X81438064Y-103238316D01*
X81438066Y-103238315D01*
X81438067Y-103238315D01*
X81585363Y-103177303D01*
X81711848Y-103080248D01*
X81808903Y-102953763D01*
X81811774Y-102946833D01*
X81859218Y-102832291D01*
X81869915Y-102806467D01*
X81869915Y-102806466D01*
X81869916Y-102806464D01*
X81890725Y-102648402D01*
X81890725Y-102648397D01*
X81869916Y-102490335D01*
X81845842Y-102432215D01*
X81834500Y-102375196D01*
X81834500Y-89191399D01*
X81854462Y-89116899D01*
X81878141Y-89086040D01*
X82990041Y-87974141D01*
X83056836Y-87935577D01*
X83095400Y-87930500D01*
X103197002Y-87930500D01*
X103338029Y-87892712D01*
X103464471Y-87819711D01*
X103567711Y-87716471D01*
X103567711Y-87716469D01*
X103579973Y-87704208D01*
X103579976Y-87704203D01*
X111034180Y-80250000D01*
X116359364Y-80250000D01*
X116416568Y-80463489D01*
X116416569Y-80463491D01*
X116516400Y-80677579D01*
X116516406Y-80677588D01*
X116651888Y-80871076D01*
X116818923Y-81038111D01*
X117012411Y-81173593D01*
X117012420Y-81173599D01*
X117226508Y-81273430D01*
X117226513Y-81273432D01*
X117440000Y-81330634D01*
X117440000Y-80433012D01*
X117497007Y-80465925D01*
X117624174Y-80500000D01*
X117755826Y-80500000D01*
X117882993Y-80465925D01*
X117940000Y-80433012D01*
X117940000Y-81330633D01*
X118153486Y-81273432D01*
X118153491Y-81273430D01*
X118367579Y-81173599D01*
X118367588Y-81173593D01*
X118561076Y-81038111D01*
X118728111Y-80871076D01*
X118863593Y-80677588D01*
X118863599Y-80677579D01*
X118935374Y-80523656D01*
X118984951Y-80464573D01*
X119057427Y-80438193D01*
X119133384Y-80451586D01*
X119192467Y-80501163D01*
X119203793Y-80520211D01*
X119247633Y-80608254D01*
X119247636Y-80608258D01*
X119299992Y-80677588D01*
X119376128Y-80778407D01*
X119531441Y-80919994D01*
X119533697Y-80922051D01*
X119533698Y-80922052D01*
X119714977Y-81034296D01*
X119714983Y-81034299D01*
X119795059Y-81065320D01*
X119913802Y-81111321D01*
X120123390Y-81150500D01*
X120123393Y-81150500D01*
X120336607Y-81150500D01*
X120336610Y-81150500D01*
X120546198Y-81111321D01*
X120745019Y-81034298D01*
X120926302Y-80922052D01*
X121083872Y-80778407D01*
X121212366Y-80608255D01*
X121307405Y-80417389D01*
X121356688Y-80244177D01*
X121396276Y-80177986D01*
X121463657Y-80140455D01*
X121540776Y-80141643D01*
X121606969Y-80181231D01*
X121643312Y-80244179D01*
X121692593Y-80417385D01*
X121692594Y-80417387D01*
X121787636Y-80608259D01*
X121839992Y-80677588D01*
X121916128Y-80778407D01*
X122071441Y-80919994D01*
X122073697Y-80922051D01*
X122073698Y-80922052D01*
X122254977Y-81034296D01*
X122254983Y-81034299D01*
X122335059Y-81065320D01*
X122453802Y-81111321D01*
X122663390Y-81150500D01*
X122663393Y-81150500D01*
X122876607Y-81150500D01*
X122876610Y-81150500D01*
X123086198Y-81111321D01*
X123285019Y-81034298D01*
X123466302Y-80922052D01*
X123623872Y-80778407D01*
X123752366Y-80608255D01*
X123847405Y-80417389D01*
X123867188Y-80347857D01*
X123906775Y-80281665D01*
X123974155Y-80244134D01*
X124051274Y-80245321D01*
X124117468Y-80284908D01*
X124154999Y-80352288D01*
X124159500Y-80388633D01*
X124159500Y-80894866D01*
X124162414Y-80919989D01*
X124162415Y-80919992D01*
X124207793Y-81022764D01*
X124207794Y-81022765D01*
X124287235Y-81102206D01*
X124390009Y-81147585D01*
X124415135Y-81150500D01*
X126204864Y-81150499D01*
X126204866Y-81150499D01*
X126217427Y-81149042D01*
X126229991Y-81147585D01*
X126332765Y-81102206D01*
X126412206Y-81022765D01*
X126457585Y-80919991D01*
X126460500Y-80894865D01*
X126460500Y-80204000D01*
X131399364Y-80204000D01*
X131456568Y-80417489D01*
X131456569Y-80417491D01*
X131556400Y-80631579D01*
X131556406Y-80631588D01*
X131691888Y-80825076D01*
X131858923Y-80992111D01*
X132052411Y-81127593D01*
X132052420Y-81127599D01*
X132266508Y-81227430D01*
X132266513Y-81227432D01*
X132480000Y-81284634D01*
X132480000Y-80387012D01*
X132537007Y-80419925D01*
X132664174Y-80454000D01*
X132795826Y-80454000D01*
X132922993Y-80419925D01*
X132980000Y-80387012D01*
X132980000Y-81284633D01*
X133193486Y-81227432D01*
X133193491Y-81227430D01*
X133407579Y-81127599D01*
X133407588Y-81127593D01*
X133601076Y-80992111D01*
X133768110Y-80825077D01*
X133848446Y-80710345D01*
X133907529Y-80660767D01*
X133983485Y-80647374D01*
X134055962Y-80673753D01*
X134105540Y-80732836D01*
X134119500Y-80795804D01*
X134119500Y-80848866D01*
X134122414Y-80873989D01*
X134122415Y-80873992D01*
X134167793Y-80976764D01*
X134167794Y-80976765D01*
X134247235Y-81056206D01*
X134350009Y-81101585D01*
X134375135Y-81104500D01*
X136164864Y-81104499D01*
X136164866Y-81104499D01*
X136177427Y-81103042D01*
X136189991Y-81101585D01*
X136292765Y-81056206D01*
X136372206Y-80976765D01*
X136417585Y-80873991D01*
X136420500Y-80848865D01*
X136420499Y-79059136D01*
X136417585Y-79034009D01*
X136372206Y-78931235D01*
X136292765Y-78851794D01*
X136292764Y-78851793D01*
X136189994Y-78806416D01*
X136189991Y-78806415D01*
X136189982Y-78806414D01*
X136164865Y-78803500D01*
X136164859Y-78803500D01*
X134375133Y-78803500D01*
X134350010Y-78806414D01*
X134350007Y-78806415D01*
X134247235Y-78851793D01*
X134167793Y-78931235D01*
X134122416Y-79034005D01*
X134122415Y-79034008D01*
X134122415Y-79034009D01*
X134119500Y-79059135D01*
X134119500Y-79059136D01*
X134119500Y-79059140D01*
X134119500Y-79112191D01*
X134099538Y-79186691D01*
X134045000Y-79241229D01*
X133970500Y-79261191D01*
X133896000Y-79241229D01*
X133848447Y-79197654D01*
X133768111Y-79082923D01*
X133601076Y-78915888D01*
X133407588Y-78780406D01*
X133407579Y-78780400D01*
X133193491Y-78680569D01*
X133193489Y-78680568D01*
X132980000Y-78623364D01*
X132980000Y-79520988D01*
X132922993Y-79488075D01*
X132795826Y-79454000D01*
X132664174Y-79454000D01*
X132537007Y-79488075D01*
X132480000Y-79520988D01*
X132480000Y-78623364D01*
X132479999Y-78623364D01*
X132266512Y-78680568D01*
X132052419Y-78780402D01*
X131858920Y-78915891D01*
X131691891Y-79082920D01*
X131556402Y-79276419D01*
X131456568Y-79490512D01*
X131399364Y-79703999D01*
X131399364Y-79704000D01*
X132296988Y-79704000D01*
X132264075Y-79761007D01*
X132230000Y-79888174D01*
X132230000Y-80019826D01*
X132264075Y-80146993D01*
X132296988Y-80204000D01*
X131399364Y-80204000D01*
X126460500Y-80204000D01*
X126460499Y-79105136D01*
X126457585Y-79080009D01*
X126412206Y-78977235D01*
X126332765Y-78897794D01*
X126332764Y-78897793D01*
X126229994Y-78852416D01*
X126229991Y-78852415D01*
X126229982Y-78852414D01*
X126204865Y-78849500D01*
X126204859Y-78849500D01*
X124415133Y-78849500D01*
X124390010Y-78852414D01*
X124390007Y-78852415D01*
X124287235Y-78897793D01*
X124207793Y-78977235D01*
X124162416Y-79080005D01*
X124162415Y-79080008D01*
X124162415Y-79080009D01*
X124159500Y-79105135D01*
X124159500Y-79105136D01*
X124159500Y-79105140D01*
X124159500Y-79611364D01*
X124139538Y-79685864D01*
X124085000Y-79740402D01*
X124010500Y-79760364D01*
X123936000Y-79740402D01*
X123881462Y-79685864D01*
X123867188Y-79652140D01*
X123847406Y-79582614D01*
X123847405Y-79582612D01*
X123843564Y-79574898D01*
X123752366Y-79391745D01*
X123752363Y-79391741D01*
X123752363Y-79391740D01*
X123623872Y-79221593D01*
X123466302Y-79077948D01*
X123466301Y-79077947D01*
X123285022Y-78965703D01*
X123285016Y-78965700D01*
X123086204Y-78888681D01*
X123086200Y-78888680D01*
X123086198Y-78888679D01*
X123044280Y-78880843D01*
X122876614Y-78849500D01*
X122876610Y-78849500D01*
X122663390Y-78849500D01*
X122663385Y-78849500D01*
X122453802Y-78888679D01*
X122453795Y-78888681D01*
X122254983Y-78965700D01*
X122254977Y-78965703D01*
X122073698Y-79077947D01*
X122073697Y-79077948D01*
X121916127Y-79221593D01*
X121787636Y-79391740D01*
X121692594Y-79582612D01*
X121692593Y-79582614D01*
X121643312Y-79755820D01*
X121603724Y-79822013D01*
X121536343Y-79859544D01*
X121459224Y-79858356D01*
X121393031Y-79818768D01*
X121356688Y-79755820D01*
X121307406Y-79582614D01*
X121307405Y-79582612D01*
X121303564Y-79574898D01*
X121212366Y-79391745D01*
X121212363Y-79391741D01*
X121212363Y-79391740D01*
X121083872Y-79221593D01*
X120926302Y-79077948D01*
X120926301Y-79077947D01*
X120745022Y-78965703D01*
X120745016Y-78965700D01*
X120546204Y-78888681D01*
X120546200Y-78888680D01*
X120546198Y-78888679D01*
X120504280Y-78880843D01*
X120336614Y-78849500D01*
X120336610Y-78849500D01*
X120123390Y-78849500D01*
X120123385Y-78849500D01*
X119913802Y-78888679D01*
X119913795Y-78888681D01*
X119714983Y-78965700D01*
X119714977Y-78965703D01*
X119533698Y-79077947D01*
X119533697Y-79077948D01*
X119376127Y-79221593D01*
X119247636Y-79391741D01*
X119203793Y-79479789D01*
X119152716Y-79537580D01*
X119079586Y-79562090D01*
X119003998Y-79546752D01*
X118946207Y-79495675D01*
X118935374Y-79476343D01*
X118863599Y-79322421D01*
X118863598Y-79322420D01*
X118728108Y-79128920D01*
X118561076Y-78961888D01*
X118367588Y-78826406D01*
X118367579Y-78826400D01*
X118153491Y-78726569D01*
X118153489Y-78726568D01*
X117940000Y-78669364D01*
X117940000Y-79566988D01*
X117882993Y-79534075D01*
X117755826Y-79500000D01*
X117624174Y-79500000D01*
X117497007Y-79534075D01*
X117440000Y-79566988D01*
X117440000Y-78669364D01*
X117439999Y-78669364D01*
X117226512Y-78726568D01*
X117012419Y-78826402D01*
X116818920Y-78961891D01*
X116651891Y-79128920D01*
X116516402Y-79322419D01*
X116416568Y-79536512D01*
X116359364Y-79749999D01*
X116359364Y-79750000D01*
X117256988Y-79750000D01*
X117224075Y-79807007D01*
X117190000Y-79934174D01*
X117190000Y-80065826D01*
X117224075Y-80192993D01*
X117256988Y-80250000D01*
X116359364Y-80250000D01*
X111034180Y-80250000D01*
X123686041Y-67598141D01*
X123752836Y-67559577D01*
X123791400Y-67554500D01*
X131137756Y-67554500D01*
X131212256Y-67574462D01*
X131266794Y-67629000D01*
X131270499Y-67635824D01*
X131280474Y-67655401D01*
X131280479Y-67655410D01*
X131338324Y-67735025D01*
X131396172Y-67814646D01*
X131535354Y-67953828D01*
X131694595Y-68069524D01*
X131869975Y-68158884D01*
X132057174Y-68219709D01*
X132251583Y-68250500D01*
X132251588Y-68250500D01*
X133748412Y-68250500D01*
X133748417Y-68250500D01*
X133942826Y-68219709D01*
X134130025Y-68158884D01*
X134305405Y-68069524D01*
X134464646Y-67953828D01*
X134603828Y-67814646D01*
X134719524Y-67655405D01*
X134729485Y-67635854D01*
X134781091Y-67578539D01*
X134854444Y-67554704D01*
X134862244Y-67554500D01*
X143637756Y-67554500D01*
X143712256Y-67574462D01*
X143766794Y-67629000D01*
X143770499Y-67635824D01*
X143780474Y-67655401D01*
X143780479Y-67655410D01*
X143838324Y-67735025D01*
X143896172Y-67814646D01*
X144035354Y-67953828D01*
X144194595Y-68069524D01*
X144369975Y-68158884D01*
X144557174Y-68219709D01*
X144751583Y-68250500D01*
X144751588Y-68250500D01*
X146248412Y-68250500D01*
X146248417Y-68250500D01*
X146442826Y-68219709D01*
X146630025Y-68158884D01*
X146805405Y-68069524D01*
X146964646Y-67953828D01*
X147103828Y-67814646D01*
X147219524Y-67655405D01*
X147308884Y-67480025D01*
X147369709Y-67292826D01*
X147400500Y-67098417D01*
X147400500Y-66901583D01*
X147369709Y-66707174D01*
X147308884Y-66519975D01*
X147219524Y-66344595D01*
X147103828Y-66185354D01*
X146964646Y-66046172D01*
X146805405Y-65930476D01*
X146795010Y-65925179D01*
X146630036Y-65841121D01*
X146630030Y-65841119D01*
X146630025Y-65841116D01*
X146442826Y-65780291D01*
X146248417Y-65749500D01*
X144751583Y-65749500D01*
X144557174Y-65780291D01*
X144369975Y-65841116D01*
X144369972Y-65841117D01*
X144369963Y-65841121D01*
X144194598Y-65930474D01*
X144194593Y-65930477D01*
X144035363Y-66046165D01*
X144035352Y-66046174D01*
X143896174Y-66185352D01*
X143896169Y-66185358D01*
X143780479Y-66344589D01*
X143780477Y-66344593D01*
X143780476Y-66344595D01*
X143770514Y-66364145D01*
X143718909Y-66421461D01*
X143645556Y-66445296D01*
X143637756Y-66445500D01*
X134862244Y-66445500D01*
X134787744Y-66425538D01*
X134733206Y-66371000D01*
X134729500Y-66364175D01*
X134719524Y-66344595D01*
X134603828Y-66185354D01*
X134464646Y-66046172D01*
X134305405Y-65930476D01*
X134295010Y-65925179D01*
X134130036Y-65841121D01*
X134130030Y-65841119D01*
X134130025Y-65841116D01*
X133942826Y-65780291D01*
X133748417Y-65749500D01*
X132251583Y-65749500D01*
X132057174Y-65780291D01*
X131869975Y-65841116D01*
X131869972Y-65841117D01*
X131869963Y-65841121D01*
X131694598Y-65930474D01*
X131694593Y-65930477D01*
X131535363Y-66046165D01*
X131535352Y-66046174D01*
X131396174Y-66185352D01*
X131396169Y-66185358D01*
X131280479Y-66344589D01*
X131280477Y-66344593D01*
X131280476Y-66344595D01*
X131270514Y-66364145D01*
X131218909Y-66421461D01*
X131145556Y-66445296D01*
X131137756Y-66445500D01*
X123582147Y-66445500D01*
X123582131Y-66445499D01*
X123573002Y-66445499D01*
X123426999Y-66445499D01*
X123426998Y-66445499D01*
X123285971Y-66483288D01*
X123159528Y-66556289D01*
X107078859Y-82636959D01*
X107012064Y-82675523D01*
X106934936Y-82675523D01*
X106868141Y-82636959D01*
X106829577Y-82570164D01*
X106824500Y-82531600D01*
X106824500Y-81253499D01*
X106844462Y-81178999D01*
X106899000Y-81124461D01*
X106973500Y-81104499D01*
X107164867Y-81104499D01*
X107179940Y-81102750D01*
X107189991Y-81101585D01*
X107292765Y-81056206D01*
X107372206Y-80976765D01*
X107417585Y-80873991D01*
X107420500Y-80848865D01*
X107420499Y-79649397D01*
X107440461Y-79574898D01*
X107464136Y-79544043D01*
X111828203Y-75179977D01*
X111828208Y-75179973D01*
X111840469Y-75167711D01*
X111840471Y-75167711D01*
X111943711Y-75064471D01*
X112016712Y-74938029D01*
X112054500Y-74797001D01*
X112054500Y-68399500D01*
X112074462Y-68325000D01*
X112129000Y-68270462D01*
X112203500Y-68250500D01*
X112248412Y-68250500D01*
X112248417Y-68250500D01*
X112442826Y-68219709D01*
X112630025Y-68158884D01*
X112805405Y-68069524D01*
X112964646Y-67953828D01*
X113103828Y-67814646D01*
X113219524Y-67655405D01*
X113308884Y-67480025D01*
X113369709Y-67292826D01*
X113400500Y-67098417D01*
X113400500Y-66901583D01*
X113369709Y-66707174D01*
X113308884Y-66519975D01*
X113219524Y-66344595D01*
X113103828Y-66185354D01*
X112964646Y-66046172D01*
X112805405Y-65930476D01*
X112795010Y-65925179D01*
X112630036Y-65841121D01*
X112630030Y-65841119D01*
X112630025Y-65841116D01*
X112442826Y-65780291D01*
X112248417Y-65749500D01*
X110751583Y-65749500D01*
X110557174Y-65780291D01*
X110369975Y-65841116D01*
X110369972Y-65841117D01*
X110369963Y-65841121D01*
X110194598Y-65930474D01*
X110194593Y-65930477D01*
X110035363Y-66046165D01*
X110035352Y-66046174D01*
X109896174Y-66185352D01*
X109896169Y-66185358D01*
X109780479Y-66344589D01*
X109780477Y-66344593D01*
X109780476Y-66344595D01*
X109770514Y-66364145D01*
X109718909Y-66421461D01*
X109645556Y-66445296D01*
X109637756Y-66445500D01*
X100862244Y-66445500D01*
X100787744Y-66425538D01*
X100733206Y-66371000D01*
X100729500Y-66364175D01*
X100719524Y-66344595D01*
X100603828Y-66185354D01*
X100464646Y-66046172D01*
X100305405Y-65930476D01*
X100295010Y-65925179D01*
X100130036Y-65841121D01*
X100130030Y-65841119D01*
X100130025Y-65841116D01*
X99942826Y-65780291D01*
X99748417Y-65749500D01*
X98251583Y-65749500D01*
X98057174Y-65780291D01*
X97869975Y-65841116D01*
X97869972Y-65841117D01*
X97869963Y-65841121D01*
X97694598Y-65930474D01*
X97694593Y-65930477D01*
X97535363Y-66046165D01*
X97535352Y-66046174D01*
X97396174Y-66185352D01*
X97396165Y-66185363D01*
X97280477Y-66344593D01*
X97280474Y-66344598D01*
X97191121Y-66519963D01*
X97191117Y-66519972D01*
X97191116Y-66519975D01*
X97130291Y-66707174D01*
X97099500Y-66901583D01*
X97099500Y-67098417D01*
X97130291Y-67292826D01*
X97191116Y-67480025D01*
X97191119Y-67480030D01*
X97191121Y-67480036D01*
X97241311Y-67578539D01*
X97280476Y-67655405D01*
X97396172Y-67814646D01*
X97535354Y-67953828D01*
X97694595Y-68069524D01*
X97869975Y-68158884D01*
X98057174Y-68219709D01*
X98251583Y-68250500D01*
X98251588Y-68250500D01*
X99748412Y-68250500D01*
X99748417Y-68250500D01*
X99942826Y-68219709D01*
X100130025Y-68158884D01*
X100305405Y-68069524D01*
X100464646Y-67953828D01*
X100603828Y-67814646D01*
X100719524Y-67655405D01*
X100729485Y-67635854D01*
X100781091Y-67578539D01*
X100854444Y-67554704D01*
X100862244Y-67554500D01*
X109637756Y-67554500D01*
X109712256Y-67574462D01*
X109766794Y-67629000D01*
X109770499Y-67635824D01*
X109780474Y-67655401D01*
X109780479Y-67655410D01*
X109838324Y-67735025D01*
X109896172Y-67814646D01*
X110035354Y-67953828D01*
X110194595Y-68069524D01*
X110369975Y-68158884D01*
X110557174Y-68219709D01*
X110751583Y-68250500D01*
X110796500Y-68250500D01*
X110871000Y-68270462D01*
X110925538Y-68325000D01*
X110945500Y-68399500D01*
X110945500Y-74432600D01*
X110925538Y-74507100D01*
X110901859Y-74537959D01*
X106679958Y-78759859D01*
X106613163Y-78798423D01*
X106574599Y-78803500D01*
X105375133Y-78803500D01*
X105350010Y-78806414D01*
X105350007Y-78806415D01*
X105247235Y-78851793D01*
X105167793Y-78931235D01*
X105122416Y-79034005D01*
X105122415Y-79034008D01*
X105122415Y-79034009D01*
X105119500Y-79059135D01*
X105119500Y-79059136D01*
X105119500Y-79059140D01*
X105119500Y-79112191D01*
X105099538Y-79186691D01*
X105045000Y-79241229D01*
X104970500Y-79261191D01*
X104896000Y-79241229D01*
X104848447Y-79197654D01*
X104768111Y-79082923D01*
X104601076Y-78915888D01*
X104407588Y-78780406D01*
X104407579Y-78780400D01*
X104193491Y-78680569D01*
X104193489Y-78680568D01*
X103980000Y-78623364D01*
X103980000Y-79520988D01*
X103922993Y-79488075D01*
X103795826Y-79454000D01*
X103664174Y-79454000D01*
X103537007Y-79488075D01*
X103480000Y-79520988D01*
X103480000Y-78623364D01*
X103479999Y-78623364D01*
X103266512Y-78680568D01*
X103052419Y-78780402D01*
X102858920Y-78915891D01*
X102691891Y-79082920D01*
X102556402Y-79276419D01*
X102456568Y-79490512D01*
X102399364Y-79703999D01*
X102399364Y-79704000D01*
X103296988Y-79704000D01*
X103264075Y-79761007D01*
X103230000Y-79888174D01*
X103230000Y-80019826D01*
X103264075Y-80146993D01*
X103296988Y-80204000D01*
X102399364Y-80204000D01*
X102456568Y-80417489D01*
X102456569Y-80417491D01*
X102556400Y-80631579D01*
X102556406Y-80631588D01*
X102691888Y-80825076D01*
X102858923Y-80992111D01*
X103052411Y-81127593D01*
X103052420Y-81127599D01*
X103266508Y-81227430D01*
X103266513Y-81227432D01*
X103480000Y-81284634D01*
X103480000Y-80387012D01*
X103537007Y-80419925D01*
X103664174Y-80454000D01*
X103795826Y-80454000D01*
X103922993Y-80419925D01*
X103980000Y-80387012D01*
X103980000Y-81284633D01*
X104193486Y-81227432D01*
X104193491Y-81227430D01*
X104407579Y-81127599D01*
X104407588Y-81127593D01*
X104601076Y-80992111D01*
X104768110Y-80825077D01*
X104848446Y-80710345D01*
X104907529Y-80660767D01*
X104983485Y-80647374D01*
X105055962Y-80673753D01*
X105105540Y-80732836D01*
X105119500Y-80795804D01*
X105119500Y-80848866D01*
X105122414Y-80873989D01*
X105122415Y-80873992D01*
X105167793Y-80976764D01*
X105167794Y-80976765D01*
X105247235Y-81056206D01*
X105350009Y-81101585D01*
X105375135Y-81104500D01*
X105566500Y-81104499D01*
X105640999Y-81124461D01*
X105695537Y-81178998D01*
X105715500Y-81253498D01*
X105715500Y-82414601D01*
X105695538Y-82489101D01*
X105671859Y-82519960D01*
X102429960Y-85761859D01*
X102363165Y-85800423D01*
X102324601Y-85805500D01*
X81099002Y-85805500D01*
X80952998Y-85805500D01*
X80811971Y-85843288D01*
X80811969Y-85843288D01*
X80811969Y-85843289D01*
X80685528Y-85916289D01*
X79312289Y-87289528D01*
X79239288Y-87415970D01*
X79201500Y-87556995D01*
X79201500Y-102375196D01*
X79190158Y-102432215D01*
X79166083Y-102490335D01*
X79145275Y-102648397D01*
X79145275Y-102648402D01*
X78842725Y-102648402D01*
X78842725Y-102648397D01*
X78821916Y-102490335D01*
X78797842Y-102432215D01*
X78786500Y-102375196D01*
X78786500Y-87556999D01*
X78786499Y-87556995D01*
X78783124Y-87544400D01*
X78748712Y-87415971D01*
X78675711Y-87289529D01*
X78675709Y-87289527D01*
X78675708Y-87289525D01*
X78567268Y-87181086D01*
X78567267Y-87181086D01*
X77414206Y-86028025D01*
X77414204Y-86028022D01*
X77302471Y-85916289D01*
X77176029Y-85843288D01*
X77035002Y-85805500D01*
X67855400Y-85805500D01*
X67780900Y-85785538D01*
X67750041Y-85761859D01*
X65598141Y-83609959D01*
X65559577Y-83543164D01*
X65554500Y-83504600D01*
X65554500Y-79954004D01*
X71034571Y-79954004D01*
X71054243Y-80166305D01*
X71054243Y-80166307D01*
X71054244Y-80166310D01*
X71061836Y-80192993D01*
X71112593Y-80371385D01*
X71112594Y-80371387D01*
X71207636Y-80562259D01*
X71259992Y-80631588D01*
X71336128Y-80732407D01*
X71491441Y-80873994D01*
X71493697Y-80876051D01*
X71493698Y-80876052D01*
X71674977Y-80988296D01*
X71674983Y-80988299D01*
X71762189Y-81022082D01*
X71873802Y-81065321D01*
X72083390Y-81104500D01*
X72083393Y-81104500D01*
X72296607Y-81104500D01*
X72296610Y-81104500D01*
X72506198Y-81065321D01*
X72705019Y-80988298D01*
X72886302Y-80876052D01*
X73043872Y-80732407D01*
X73172366Y-80562255D01*
X73267405Y-80371389D01*
X73316688Y-80198177D01*
X73356276Y-80131986D01*
X73423657Y-80094455D01*
X73500776Y-80095643D01*
X73566969Y-80135231D01*
X73603311Y-80198177D01*
X73616387Y-80244134D01*
X73652593Y-80371385D01*
X73652594Y-80371387D01*
X73747636Y-80562259D01*
X73799992Y-80631588D01*
X73876128Y-80732407D01*
X74031441Y-80873994D01*
X74033697Y-80876051D01*
X74033698Y-80876052D01*
X74214977Y-80988296D01*
X74214983Y-80988299D01*
X74302189Y-81022082D01*
X74413802Y-81065321D01*
X74623390Y-81104500D01*
X74623393Y-81104500D01*
X74836607Y-81104500D01*
X74836610Y-81104500D01*
X75046198Y-81065321D01*
X75245019Y-80988298D01*
X75426302Y-80876052D01*
X75583872Y-80732407D01*
X75712366Y-80562255D01*
X75756206Y-80474210D01*
X75807282Y-80416420D01*
X75880411Y-80391909D01*
X75955999Y-80407246D01*
X76013791Y-80458323D01*
X76024625Y-80477656D01*
X76096400Y-80631579D01*
X76096406Y-80631588D01*
X76231888Y-80825076D01*
X76398923Y-80992111D01*
X76592411Y-81127593D01*
X76592420Y-81127599D01*
X76806508Y-81227430D01*
X76806513Y-81227432D01*
X77020000Y-81284634D01*
X77020000Y-80387012D01*
X77077007Y-80419925D01*
X77204174Y-80454000D01*
X77335826Y-80454000D01*
X77462993Y-80419925D01*
X77520000Y-80387012D01*
X77520000Y-81284633D01*
X77733486Y-81227432D01*
X77733491Y-81227430D01*
X77947579Y-81127599D01*
X77947588Y-81127593D01*
X78141076Y-80992111D01*
X78308110Y-80825077D01*
X78388446Y-80710345D01*
X78447529Y-80660767D01*
X78523485Y-80647374D01*
X78595962Y-80673753D01*
X78645540Y-80732836D01*
X78659500Y-80795804D01*
X78659500Y-80848866D01*
X78662414Y-80873989D01*
X78662415Y-80873992D01*
X78707793Y-80976764D01*
X78707794Y-80976765D01*
X78787235Y-81056206D01*
X78890009Y-81101585D01*
X78915135Y-81104500D01*
X80704864Y-81104499D01*
X80704866Y-81104499D01*
X80717427Y-81103042D01*
X80729991Y-81101585D01*
X80832765Y-81056206D01*
X80912206Y-80976765D01*
X80957585Y-80873991D01*
X80960500Y-80848865D01*
X80960499Y-79059136D01*
X80957585Y-79034009D01*
X80912206Y-78931235D01*
X80832765Y-78851794D01*
X80832764Y-78851793D01*
X80729994Y-78806416D01*
X80729991Y-78806415D01*
X80729982Y-78806414D01*
X80704865Y-78803500D01*
X80704859Y-78803500D01*
X78915133Y-78803500D01*
X78890010Y-78806414D01*
X78890007Y-78806415D01*
X78787235Y-78851793D01*
X78707793Y-78931235D01*
X78662416Y-79034005D01*
X78662415Y-79034008D01*
X78662415Y-79034009D01*
X78659500Y-79059135D01*
X78659500Y-79059136D01*
X78659500Y-79059140D01*
X78659500Y-79112191D01*
X78639538Y-79186691D01*
X78585000Y-79241229D01*
X78510500Y-79261191D01*
X78436000Y-79241229D01*
X78388447Y-79197654D01*
X78308111Y-79082923D01*
X78141076Y-78915888D01*
X77947588Y-78780406D01*
X77947579Y-78780400D01*
X77733491Y-78680569D01*
X77733489Y-78680568D01*
X77520000Y-78623364D01*
X77520000Y-79520988D01*
X77462993Y-79488075D01*
X77335826Y-79454000D01*
X77204174Y-79454000D01*
X77077007Y-79488075D01*
X77020000Y-79520988D01*
X77020000Y-78623364D01*
X77019999Y-78623364D01*
X76806512Y-78680568D01*
X76592419Y-78780402D01*
X76398920Y-78915891D01*
X76231891Y-79082920D01*
X76096402Y-79276419D01*
X76024625Y-79430344D01*
X75975047Y-79489427D01*
X75902570Y-79515806D01*
X75826614Y-79502413D01*
X75767531Y-79452835D01*
X75756205Y-79433787D01*
X75735269Y-79391741D01*
X75712366Y-79345745D01*
X75712364Y-79345743D01*
X75712363Y-79345740D01*
X75583872Y-79175593D01*
X75426302Y-79031948D01*
X75426301Y-79031947D01*
X75245022Y-78919703D01*
X75245016Y-78919700D01*
X75046204Y-78842681D01*
X75046200Y-78842680D01*
X75046198Y-78842679D01*
X75004280Y-78834843D01*
X74836614Y-78803500D01*
X74836610Y-78803500D01*
X74623390Y-78803500D01*
X74623385Y-78803500D01*
X74413802Y-78842679D01*
X74413795Y-78842681D01*
X74214983Y-78919700D01*
X74214977Y-78919703D01*
X74033698Y-79031947D01*
X74033697Y-79031948D01*
X73876127Y-79175593D01*
X73747636Y-79345740D01*
X73652594Y-79536612D01*
X73652593Y-79536614D01*
X73603312Y-79709820D01*
X73563724Y-79776013D01*
X73496343Y-79813544D01*
X73419224Y-79812356D01*
X73353031Y-79772768D01*
X73316688Y-79709820D01*
X73267406Y-79536614D01*
X73267405Y-79536612D01*
X73267405Y-79536611D01*
X73172366Y-79345745D01*
X73172364Y-79345743D01*
X73172363Y-79345740D01*
X73043872Y-79175593D01*
X72886302Y-79031948D01*
X72886301Y-79031947D01*
X72705022Y-78919703D01*
X72705016Y-78919700D01*
X72506204Y-78842681D01*
X72506200Y-78842680D01*
X72506198Y-78842679D01*
X72464280Y-78834843D01*
X72296614Y-78803500D01*
X72296610Y-78803500D01*
X72083390Y-78803500D01*
X72083385Y-78803500D01*
X71873802Y-78842679D01*
X71873795Y-78842681D01*
X71674983Y-78919700D01*
X71674977Y-78919703D01*
X71493698Y-79031947D01*
X71493697Y-79031948D01*
X71336127Y-79175593D01*
X71207636Y-79345740D01*
X71112594Y-79536612D01*
X71112593Y-79536614D01*
X71070128Y-79685864D01*
X71054611Y-79740402D01*
X71054243Y-79741694D01*
X71034571Y-79953995D01*
X71034571Y-79954004D01*
X65554500Y-79954004D01*
X65554500Y-68399500D01*
X65574462Y-68325000D01*
X65629000Y-68270462D01*
X65703500Y-68250500D01*
X65748412Y-68250500D01*
X65748417Y-68250500D01*
X65942826Y-68219709D01*
X66130025Y-68158884D01*
X66305405Y-68069524D01*
X66464646Y-67953828D01*
X66603828Y-67814646D01*
X66719524Y-67655405D01*
X66729485Y-67635854D01*
X66781091Y-67578539D01*
X66854444Y-67554704D01*
X66862244Y-67554500D01*
X75637756Y-67554500D01*
X75712256Y-67574462D01*
X75766794Y-67629000D01*
X75770499Y-67635824D01*
X75780474Y-67655401D01*
X75780479Y-67655410D01*
X75838324Y-67735025D01*
X75896172Y-67814646D01*
X76035354Y-67953828D01*
X76194595Y-68069524D01*
X76369975Y-68158884D01*
X76557174Y-68219709D01*
X76751583Y-68250500D01*
X76751588Y-68250500D01*
X78248412Y-68250500D01*
X78248417Y-68250500D01*
X78442826Y-68219709D01*
X78630025Y-68158884D01*
X78805405Y-68069524D01*
X78964646Y-67953828D01*
X79103828Y-67814646D01*
X79219524Y-67655405D01*
X79308884Y-67480025D01*
X79369709Y-67292826D01*
X79400500Y-67098417D01*
X79400500Y-66901583D01*
X79369709Y-66707174D01*
X79308884Y-66519975D01*
X79219524Y-66344595D01*
X79103828Y-66185354D01*
X78964646Y-66046172D01*
X78805405Y-65930476D01*
X78795010Y-65925179D01*
X78630036Y-65841121D01*
X78630030Y-65841119D01*
X78630025Y-65841116D01*
X78442826Y-65780291D01*
X78248417Y-65749500D01*
X76751583Y-65749500D01*
X76557174Y-65780291D01*
X76369975Y-65841116D01*
X76369972Y-65841117D01*
X76369963Y-65841121D01*
X76194598Y-65930474D01*
X76194593Y-65930477D01*
X76035363Y-66046165D01*
X76035352Y-66046174D01*
X75896174Y-66185352D01*
X75896169Y-66185358D01*
X75780479Y-66344589D01*
X75780477Y-66344593D01*
X75780476Y-66344595D01*
X75770514Y-66364145D01*
X75718909Y-66421461D01*
X75645556Y-66445296D01*
X75637756Y-66445500D01*
X66862244Y-66445500D01*
X66787744Y-66425538D01*
X66733206Y-66371000D01*
X66729500Y-66364175D01*
X66719524Y-66344595D01*
X66603828Y-66185354D01*
X66464646Y-66046172D01*
X66305405Y-65930476D01*
X66295010Y-65925179D01*
X66130036Y-65841121D01*
X66130030Y-65841119D01*
X66130025Y-65841116D01*
X65942826Y-65780291D01*
X65748417Y-65749500D01*
X64251583Y-65749500D01*
X64057174Y-65780291D01*
X63869975Y-65841116D01*
X63869972Y-65841117D01*
X63869963Y-65841121D01*
X63694598Y-65930474D01*
X63694593Y-65930477D01*
X63535363Y-66046165D01*
X63535352Y-66046174D01*
X63396174Y-66185352D01*
X63396165Y-66185363D01*
X63280477Y-66344593D01*
X63280474Y-66344598D01*
X63191121Y-66519963D01*
X63191117Y-66519972D01*
X63191116Y-66519975D01*
X63130291Y-66707174D01*
X63099500Y-66901583D01*
X63099500Y-67098417D01*
X50000000Y-67098417D01*
X50000000Y-62250000D01*
X62921522Y-62250000D01*
X62935704Y-62339548D01*
X63006232Y-62556609D01*
X63109850Y-62759967D01*
X63243999Y-62944608D01*
X63405391Y-63106000D01*
X63590032Y-63240149D01*
X63793390Y-63343767D01*
X64010451Y-63414294D01*
X64010451Y-63414295D01*
X64235887Y-63450000D01*
X64750000Y-63450000D01*
X64750000Y-62600001D01*
X64810402Y-62625021D01*
X64935981Y-62650000D01*
X65064019Y-62650000D01*
X65189598Y-62625021D01*
X65250000Y-62600001D01*
X65250000Y-63450000D01*
X65764113Y-63450000D01*
X65989548Y-63414295D01*
X65989548Y-63414294D01*
X66206609Y-63343767D01*
X66409967Y-63240149D01*
X66594608Y-63106000D01*
X66756000Y-62944608D01*
X66890149Y-62759967D01*
X66993767Y-62556609D01*
X67064294Y-62339548D01*
X67064295Y-62339548D01*
X67078478Y-62250000D01*
X75421522Y-62250000D01*
X75435704Y-62339548D01*
X75506232Y-62556609D01*
X75609850Y-62759967D01*
X75743999Y-62944608D01*
X75905391Y-63106000D01*
X76090032Y-63240149D01*
X76293390Y-63343767D01*
X76510451Y-63414294D01*
X76510451Y-63414295D01*
X76735887Y-63450000D01*
X77250000Y-63450000D01*
X77250000Y-62600001D01*
X77310402Y-62625021D01*
X77435981Y-62650000D01*
X77564019Y-62650000D01*
X77689598Y-62625021D01*
X77750000Y-62600001D01*
X77750000Y-63450000D01*
X78264113Y-63450000D01*
X78489548Y-63414295D01*
X78489548Y-63414294D01*
X78706609Y-63343767D01*
X78909967Y-63240149D01*
X79094608Y-63106000D01*
X79256000Y-62944608D01*
X79390149Y-62759967D01*
X79493767Y-62556609D01*
X79564294Y-62339548D01*
X79564295Y-62339548D01*
X79578478Y-62250000D01*
X96921522Y-62250000D01*
X96935704Y-62339548D01*
X97006232Y-62556609D01*
X97109850Y-62759967D01*
X97243999Y-62944608D01*
X97405391Y-63106000D01*
X97590032Y-63240149D01*
X97793390Y-63343767D01*
X98010451Y-63414294D01*
X98010451Y-63414295D01*
X98235887Y-63450000D01*
X98750000Y-63450000D01*
X98750000Y-62600001D01*
X98810402Y-62625021D01*
X98935981Y-62650000D01*
X99064019Y-62650000D01*
X99189598Y-62625021D01*
X99250000Y-62600001D01*
X99250000Y-63450000D01*
X99764113Y-63450000D01*
X99989548Y-63414295D01*
X99989548Y-63414294D01*
X100206609Y-63343767D01*
X100409967Y-63240149D01*
X100594608Y-63106000D01*
X100756000Y-62944608D01*
X100890149Y-62759967D01*
X100993767Y-62556609D01*
X101064294Y-62339548D01*
X101064295Y-62339548D01*
X101078478Y-62250000D01*
X109421522Y-62250000D01*
X109435704Y-62339548D01*
X109506232Y-62556609D01*
X109609850Y-62759967D01*
X109743999Y-62944608D01*
X109905391Y-63106000D01*
X110090032Y-63240149D01*
X110293390Y-63343767D01*
X110510451Y-63414294D01*
X110510451Y-63414295D01*
X110735887Y-63450000D01*
X111250000Y-63450000D01*
X111250000Y-62600001D01*
X111310402Y-62625021D01*
X111435981Y-62650000D01*
X111564019Y-62650000D01*
X111689598Y-62625021D01*
X111750000Y-62600001D01*
X111750000Y-63450000D01*
X112264113Y-63450000D01*
X112489548Y-63414295D01*
X112489548Y-63414294D01*
X112706609Y-63343767D01*
X112909967Y-63240149D01*
X113094608Y-63106000D01*
X113256000Y-62944608D01*
X113390149Y-62759967D01*
X113493767Y-62556609D01*
X113564294Y-62339548D01*
X113564295Y-62339548D01*
X113578478Y-62250000D01*
X130921522Y-62250000D01*
X130935704Y-62339548D01*
X131006232Y-62556609D01*
X131109850Y-62759967D01*
X131243999Y-62944608D01*
X131405391Y-63106000D01*
X131590032Y-63240149D01*
X131793390Y-63343767D01*
X132010451Y-63414294D01*
X132010451Y-63414295D01*
X132235887Y-63450000D01*
X132750000Y-63450000D01*
X132750000Y-62600001D01*
X132810402Y-62625021D01*
X132935981Y-62650000D01*
X133064019Y-62650000D01*
X133189598Y-62625021D01*
X133250000Y-62600001D01*
X133250000Y-63450000D01*
X133764113Y-63450000D01*
X133989548Y-63414295D01*
X133989548Y-63414294D01*
X134206609Y-63343767D01*
X134409967Y-63240149D01*
X134594608Y-63106000D01*
X134756000Y-62944608D01*
X134890149Y-62759967D01*
X134993767Y-62556609D01*
X135064294Y-62339548D01*
X135064295Y-62339548D01*
X135078478Y-62250000D01*
X143421522Y-62250000D01*
X143435704Y-62339548D01*
X143506232Y-62556609D01*
X143609850Y-62759967D01*
X143743999Y-62944608D01*
X143905391Y-63106000D01*
X144090032Y-63240149D01*
X144293390Y-63343767D01*
X144510451Y-63414294D01*
X144510451Y-63414295D01*
X144735887Y-63450000D01*
X145250000Y-63450000D01*
X145250000Y-62600001D01*
X145310402Y-62625021D01*
X145435981Y-62650000D01*
X145564019Y-62650000D01*
X145689598Y-62625021D01*
X145750000Y-62600001D01*
X145750000Y-63450000D01*
X146264113Y-63450000D01*
X146489548Y-63414295D01*
X146489548Y-63414294D01*
X146706609Y-63343767D01*
X146909967Y-63240149D01*
X147094608Y-63106000D01*
X147256000Y-62944608D01*
X147390149Y-62759967D01*
X147493767Y-62556609D01*
X147564294Y-62339548D01*
X147564295Y-62339548D01*
X147578478Y-62250000D01*
X146100001Y-62250000D01*
X146125021Y-62189598D01*
X146150000Y-62064019D01*
X146150000Y-61935981D01*
X146125021Y-61810402D01*
X146100001Y-61750000D01*
X147578477Y-61750000D01*
X147564295Y-61660451D01*
X147493767Y-61443390D01*
X147390149Y-61240032D01*
X147256000Y-61055391D01*
X147094608Y-60893999D01*
X146909967Y-60759850D01*
X146706609Y-60656232D01*
X146489548Y-60585705D01*
X146489548Y-60585704D01*
X146264113Y-60550000D01*
X145750000Y-60550000D01*
X145750000Y-61399998D01*
X145689598Y-61374979D01*
X145564019Y-61350000D01*
X145435981Y-61350000D01*
X145310402Y-61374979D01*
X145250000Y-61399998D01*
X145250000Y-60550000D01*
X144735887Y-60550000D01*
X144510451Y-60585704D01*
X144510451Y-60585705D01*
X144293390Y-60656232D01*
X144090032Y-60759850D01*
X143905391Y-60893999D01*
X143743999Y-61055391D01*
X143609850Y-61240032D01*
X143506232Y-61443390D01*
X143435705Y-61660451D01*
X143435704Y-61660451D01*
X143421522Y-61750000D01*
X144899999Y-61750000D01*
X144874979Y-61810402D01*
X144850000Y-61935981D01*
X144850000Y-62064019D01*
X144874979Y-62189598D01*
X144899999Y-62250000D01*
X143421522Y-62250000D01*
X135078478Y-62250000D01*
X133600001Y-62250000D01*
X133625021Y-62189598D01*
X133650000Y-62064019D01*
X133650000Y-61935981D01*
X133625021Y-61810402D01*
X133600001Y-61750000D01*
X135078477Y-61750000D01*
X135064295Y-61660451D01*
X134993767Y-61443390D01*
X134890149Y-61240032D01*
X134756000Y-61055391D01*
X134594608Y-60893999D01*
X134409967Y-60759850D01*
X134206609Y-60656232D01*
X133989548Y-60585705D01*
X133989548Y-60585704D01*
X133764113Y-60550000D01*
X133250000Y-60550000D01*
X133250000Y-61399998D01*
X133189598Y-61374979D01*
X133064019Y-61350000D01*
X132935981Y-61350000D01*
X132810402Y-61374979D01*
X132750000Y-61399998D01*
X132750000Y-60550000D01*
X132235887Y-60550000D01*
X132010451Y-60585704D01*
X132010451Y-60585705D01*
X131793390Y-60656232D01*
X131590032Y-60759850D01*
X131405391Y-60893999D01*
X131243999Y-61055391D01*
X131109850Y-61240032D01*
X131006232Y-61443390D01*
X130935705Y-61660451D01*
X130935704Y-61660451D01*
X130921522Y-61750000D01*
X132399999Y-61750000D01*
X132374979Y-61810402D01*
X132350000Y-61935981D01*
X132350000Y-62064019D01*
X132374979Y-62189598D01*
X132399999Y-62250000D01*
X130921522Y-62250000D01*
X113578478Y-62250000D01*
X112100001Y-62250000D01*
X112125021Y-62189598D01*
X112150000Y-62064019D01*
X112150000Y-61935981D01*
X112125021Y-61810402D01*
X112100001Y-61750000D01*
X113578477Y-61750000D01*
X113564295Y-61660451D01*
X113493767Y-61443390D01*
X113390149Y-61240032D01*
X113256000Y-61055391D01*
X113094608Y-60893999D01*
X112909967Y-60759850D01*
X112706609Y-60656232D01*
X112489548Y-60585705D01*
X112489548Y-60585704D01*
X112264113Y-60550000D01*
X111750000Y-60550000D01*
X111750000Y-61399998D01*
X111689598Y-61374979D01*
X111564019Y-61350000D01*
X111435981Y-61350000D01*
X111310402Y-61374979D01*
X111250000Y-61399998D01*
X111250000Y-60550000D01*
X110735887Y-60550000D01*
X110510451Y-60585704D01*
X110510451Y-60585705D01*
X110293390Y-60656232D01*
X110090032Y-60759850D01*
X109905391Y-60893999D01*
X109743999Y-61055391D01*
X109609850Y-61240032D01*
X109506232Y-61443390D01*
X109435705Y-61660451D01*
X109435704Y-61660451D01*
X109421522Y-61750000D01*
X110899999Y-61750000D01*
X110874979Y-61810402D01*
X110850000Y-61935981D01*
X110850000Y-62064019D01*
X110874979Y-62189598D01*
X110899999Y-62250000D01*
X109421522Y-62250000D01*
X101078478Y-62250000D01*
X99600001Y-62250000D01*
X99625021Y-62189598D01*
X99650000Y-62064019D01*
X99650000Y-61935981D01*
X99625021Y-61810402D01*
X99600001Y-61750000D01*
X101078477Y-61750000D01*
X101064295Y-61660451D01*
X100993767Y-61443390D01*
X100890149Y-61240032D01*
X100756000Y-61055391D01*
X100594608Y-60893999D01*
X100409967Y-60759850D01*
X100206609Y-60656232D01*
X99989548Y-60585705D01*
X99989548Y-60585704D01*
X99764113Y-60550000D01*
X99250000Y-60550000D01*
X99250000Y-61399998D01*
X99189598Y-61374979D01*
X99064019Y-61350000D01*
X98935981Y-61350000D01*
X98810402Y-61374979D01*
X98750000Y-61399998D01*
X98750000Y-60550000D01*
X98235887Y-60550000D01*
X98010451Y-60585704D01*
X98010451Y-60585705D01*
X97793390Y-60656232D01*
X97590032Y-60759850D01*
X97405391Y-60893999D01*
X97243999Y-61055391D01*
X97109850Y-61240032D01*
X97006232Y-61443390D01*
X96935705Y-61660451D01*
X96935704Y-61660451D01*
X96921522Y-61750000D01*
X98399999Y-61750000D01*
X98374979Y-61810402D01*
X98350000Y-61935981D01*
X98350000Y-62064019D01*
X98374979Y-62189598D01*
X98399999Y-62250000D01*
X96921522Y-62250000D01*
X79578478Y-62250000D01*
X78100001Y-62250000D01*
X78125021Y-62189598D01*
X78150000Y-62064019D01*
X78150000Y-61935981D01*
X78125021Y-61810402D01*
X78100001Y-61750000D01*
X79578477Y-61750000D01*
X79564295Y-61660451D01*
X79493767Y-61443390D01*
X79390149Y-61240032D01*
X79256000Y-61055391D01*
X79094608Y-60893999D01*
X78909967Y-60759850D01*
X78706609Y-60656232D01*
X78489548Y-60585705D01*
X78489548Y-60585704D01*
X78264113Y-60550000D01*
X77750000Y-60550000D01*
X77750000Y-61399998D01*
X77689598Y-61374979D01*
X77564019Y-61350000D01*
X77435981Y-61350000D01*
X77310402Y-61374979D01*
X77250000Y-61399998D01*
X77250000Y-60550000D01*
X76735887Y-60550000D01*
X76510451Y-60585704D01*
X76510451Y-60585705D01*
X76293390Y-60656232D01*
X76090032Y-60759850D01*
X75905391Y-60893999D01*
X75743999Y-61055391D01*
X75609850Y-61240032D01*
X75506232Y-61443390D01*
X75435705Y-61660451D01*
X75435704Y-61660451D01*
X75421522Y-61750000D01*
X76899999Y-61750000D01*
X76874979Y-61810402D01*
X76850000Y-61935981D01*
X76850000Y-62064019D01*
X76874979Y-62189598D01*
X76899999Y-62250000D01*
X75421522Y-62250000D01*
X67078478Y-62250000D01*
X65600001Y-62250000D01*
X65625021Y-62189598D01*
X65650000Y-62064019D01*
X65650000Y-61935981D01*
X65625021Y-61810402D01*
X65600001Y-61750000D01*
X67078477Y-61750000D01*
X67064295Y-61660451D01*
X66993767Y-61443390D01*
X66890149Y-61240032D01*
X66756000Y-61055391D01*
X66594608Y-60893999D01*
X66409967Y-60759850D01*
X66206609Y-60656232D01*
X65989548Y-60585705D01*
X65989548Y-60585704D01*
X65764113Y-60550000D01*
X65250000Y-60550000D01*
X65250000Y-61399998D01*
X65189598Y-61374979D01*
X65064019Y-61350000D01*
X64935981Y-61350000D01*
X64810402Y-61374979D01*
X64750000Y-61399998D01*
X64750000Y-60550000D01*
X64235887Y-60550000D01*
X64010451Y-60585704D01*
X64010451Y-60585705D01*
X63793390Y-60656232D01*
X63590032Y-60759850D01*
X63405391Y-60893999D01*
X63243999Y-61055391D01*
X63109850Y-61240032D01*
X63006232Y-61443390D01*
X62935705Y-61660451D01*
X62935704Y-61660451D01*
X62921522Y-61750000D01*
X64399999Y-61750000D01*
X64374979Y-61810402D01*
X64350000Y-61935981D01*
X64350000Y-62064019D01*
X64374979Y-62189598D01*
X64399999Y-62250000D01*
X62921522Y-62250000D01*
X50000000Y-62250000D01*
X50000000Y-56500749D01*
X50000004Y-56500000D01*
X51997525Y-56500000D01*
X52017308Y-56921617D01*
X52017308Y-56921626D01*
X52076483Y-57339515D01*
X52076485Y-57339525D01*
X52076486Y-57339532D01*
X52174538Y-57750067D01*
X52310603Y-58149617D01*
X52310606Y-58149625D01*
X52483484Y-58534670D01*
X52691656Y-58901833D01*
X52691660Y-58901839D01*
X52691662Y-58901842D01*
X52933308Y-59247907D01*
X53206298Y-59569823D01*
X53508233Y-59864761D01*
X53508237Y-59864764D01*
X53836450Y-60130122D01*
X53836452Y-60130123D01*
X53836461Y-60130130D01*
X54188095Y-60363597D01*
X54188097Y-60363598D01*
X54560033Y-60563103D01*
X54560043Y-60563108D01*
X54560047Y-60563110D01*
X54949046Y-60726917D01*
X55351676Y-60853578D01*
X55351687Y-60853580D01*
X55351700Y-60853584D01*
X55764386Y-60941977D01*
X55764391Y-60941977D01*
X55764397Y-60941979D01*
X55764409Y-60941980D01*
X55764413Y-60941981D01*
X56183566Y-60991341D01*
X56183583Y-60991343D01*
X56605550Y-61001238D01*
X57026588Y-60971576D01*
X57443000Y-60902617D01*
X57851124Y-60794968D01*
X58247374Y-60649575D01*
X58628268Y-60467715D01*
X58990459Y-60250986D01*
X59330764Y-60001294D01*
X59646192Y-59720832D01*
X59933971Y-59412066D01*
X60191573Y-59077708D01*
X60416732Y-58720697D01*
X60607471Y-58344171D01*
X60762114Y-57951438D01*
X60879301Y-57545949D01*
X60958002Y-57131269D01*
X60997527Y-56711041D01*
X61000000Y-56500000D01*
X148997525Y-56500000D01*
X149017308Y-56921617D01*
X149017308Y-56921626D01*
X149076483Y-57339515D01*
X149076485Y-57339525D01*
X149076486Y-57339532D01*
X149174538Y-57750067D01*
X149310603Y-58149617D01*
X149310606Y-58149625D01*
X149483484Y-58534670D01*
X149691656Y-58901833D01*
X149691660Y-58901839D01*
X149691662Y-58901842D01*
X149933308Y-59247907D01*
X150206298Y-59569823D01*
X150508233Y-59864761D01*
X150508237Y-59864764D01*
X150836450Y-60130122D01*
X150836452Y-60130123D01*
X150836461Y-60130130D01*
X151188095Y-60363597D01*
X151188097Y-60363598D01*
X151560033Y-60563103D01*
X151560043Y-60563108D01*
X151560047Y-60563110D01*
X151949046Y-60726917D01*
X152351676Y-60853578D01*
X152351687Y-60853580D01*
X152351700Y-60853584D01*
X152764386Y-60941977D01*
X152764391Y-60941977D01*
X152764397Y-60941979D01*
X152764409Y-60941980D01*
X152764413Y-60941981D01*
X153183566Y-60991341D01*
X153183583Y-60991343D01*
X153605550Y-61001238D01*
X154026588Y-60971576D01*
X154443000Y-60902617D01*
X154851124Y-60794968D01*
X155247374Y-60649575D01*
X155628268Y-60467715D01*
X155990459Y-60250986D01*
X156330764Y-60001294D01*
X156646192Y-59720832D01*
X156933971Y-59412066D01*
X157191573Y-59077708D01*
X157416732Y-58720697D01*
X157607471Y-58344171D01*
X157762114Y-57951438D01*
X157879301Y-57545949D01*
X157958002Y-57131269D01*
X157997527Y-56711041D01*
X158000000Y-56500000D01*
X157997527Y-56288959D01*
X157958002Y-55868731D01*
X157879301Y-55454051D01*
X157762114Y-55048562D01*
X157607471Y-54655829D01*
X157416732Y-54279303D01*
X157191573Y-53922292D01*
X157191571Y-53922290D01*
X157191569Y-53922286D01*
X156933971Y-53587934D01*
X156646192Y-53279168D01*
X156330764Y-52998706D01*
X155990459Y-52749014D01*
X155990454Y-52749011D01*
X155990450Y-52749008D01*
X155769653Y-52616887D01*
X155628268Y-52532285D01*
X155506900Y-52474337D01*
X155247383Y-52350429D01*
X155247380Y-52350428D01*
X155247374Y-52350425D01*
X154987695Y-52255143D01*
X154851125Y-52205032D01*
X154443015Y-52097386D01*
X154443002Y-52097383D01*
X154026594Y-52028424D01*
X153832262Y-52014733D01*
X153605550Y-51998762D01*
X153605544Y-51998762D01*
X153605543Y-51998762D01*
X153183590Y-52008656D01*
X153183566Y-52008658D01*
X152764413Y-52058018D01*
X152764386Y-52058022D01*
X152351700Y-52146415D01*
X152351679Y-52146421D01*
X151949040Y-52273085D01*
X151560043Y-52436891D01*
X151560033Y-52436896D01*
X151188097Y-52636401D01*
X151018487Y-52749014D01*
X150836461Y-52869870D01*
X150836458Y-52869871D01*
X150836454Y-52869875D01*
X150836450Y-52869877D01*
X150508237Y-53135235D01*
X150206298Y-53430177D01*
X149933309Y-53752091D01*
X149691656Y-54098166D01*
X149483484Y-54465329D01*
X149310606Y-54850374D01*
X149174537Y-55249936D01*
X149076488Y-55660459D01*
X149076483Y-55660484D01*
X149017308Y-56078373D01*
X149017308Y-56078382D01*
X148997525Y-56499994D01*
X148997525Y-56500000D01*
X61000000Y-56500000D01*
X60997527Y-56288959D01*
X60958002Y-55868731D01*
X60879301Y-55454051D01*
X60762114Y-55048562D01*
X60607471Y-54655829D01*
X60416732Y-54279303D01*
X60191573Y-53922292D01*
X60191571Y-53922290D01*
X60191569Y-53922286D01*
X59933971Y-53587934D01*
X59646192Y-53279168D01*
X59330764Y-52998706D01*
X58990459Y-52749014D01*
X58990454Y-52749011D01*
X58990450Y-52749008D01*
X58769653Y-52616887D01*
X58628268Y-52532285D01*
X58506900Y-52474337D01*
X58247383Y-52350429D01*
X58247380Y-52350428D01*
X58247374Y-52350425D01*
X57987695Y-52255143D01*
X57851125Y-52205032D01*
X57443015Y-52097386D01*
X57443002Y-52097383D01*
X57026594Y-52028424D01*
X56832262Y-52014733D01*
X56605550Y-51998762D01*
X56605544Y-51998762D01*
X56605543Y-51998762D01*
X56183590Y-52008656D01*
X56183566Y-52008658D01*
X55764413Y-52058018D01*
X55764386Y-52058022D01*
X55351700Y-52146415D01*
X55351679Y-52146421D01*
X54949040Y-52273085D01*
X54560043Y-52436891D01*
X54560033Y-52436896D01*
X54188097Y-52636401D01*
X54018487Y-52749014D01*
X53836461Y-52869870D01*
X53836458Y-52869871D01*
X53836454Y-52869875D01*
X53836450Y-52869877D01*
X53508237Y-53135235D01*
X53206298Y-53430177D01*
X52933309Y-53752091D01*
X52691656Y-54098166D01*
X52483484Y-54465329D01*
X52310606Y-54850374D01*
X52174537Y-55249936D01*
X52076488Y-55660459D01*
X52076483Y-55660484D01*
X52017308Y-56078373D01*
X52017308Y-56078382D01*
X51997525Y-56499994D01*
X51997525Y-56500000D01*
X50000004Y-56500000D01*
X50000007Y-56499287D01*
X50000010Y-56498969D01*
X50002455Y-56249815D01*
X50002906Y-56239630D01*
X50042106Y-55741536D01*
X50043478Y-55729946D01*
X50121521Y-55237195D01*
X50123804Y-55225726D01*
X50240263Y-54740641D01*
X50243439Y-54729381D01*
X50397596Y-54254932D01*
X50401636Y-54243981D01*
X50592560Y-53783048D01*
X50597436Y-53772471D01*
X50823938Y-53327937D01*
X50829651Y-53317738D01*
X50853287Y-53279168D01*
X51090309Y-52892382D01*
X51096798Y-52882672D01*
X51390029Y-52479075D01*
X51397263Y-52469896D01*
X51721274Y-52090527D01*
X51729192Y-52081962D01*
X52081962Y-51729192D01*
X52090527Y-51721274D01*
X52469896Y-51397263D01*
X52479075Y-51390029D01*
X52882672Y-51096798D01*
X52892382Y-51090309D01*
X53317745Y-50829646D01*
X53327937Y-50823938D01*
X53772471Y-50597436D01*
X53783048Y-50592560D01*
X54243981Y-50401636D01*
X54254932Y-50397596D01*
X54729390Y-50243436D01*
X54740637Y-50240263D01*
X55225726Y-50123804D01*
X55237195Y-50121521D01*
X55729946Y-50043478D01*
X55741536Y-50042106D01*
X56239630Y-50002906D01*
X56249815Y-50002455D01*
X56495580Y-50000043D01*
X56499288Y-50000007D01*
X56500750Y-50000000D01*
X153499250Y-50000000D01*
X153500712Y-50000007D01*
G37*
%TD.AperFunction*%
%TD*%
M02*
