%TF.GenerationSoftware,KiCad,Pcbnew,8.0.1*%
%TF.CreationDate,2024-08-04T22:51:27+02:00*%
%TF.ProjectId,FT_MainBoard,46545f4d-6169-46e4-926f-6172642e6b69,rev?*%
%TF.SameCoordinates,Original*%
%TF.FileFunction,Paste,Bot*%
%TF.FilePolarity,Positive*%
%FSLAX46Y46*%
G04 Gerber Fmt 4.6, Leading zero omitted, Abs format (unit mm)*
G04 Created by KiCad (PCBNEW 8.0.1) date 2024-08-04 22:51:27*
%MOMM*%
%LPD*%
G01*
G04 APERTURE LIST*
G04 Aperture macros list*
%AMRoundRect*
0 Rectangle with rounded corners*
0 $1 Rounding radius*
0 $2 $3 $4 $5 $6 $7 $8 $9 X,Y pos of 4 corners*
0 Add a 4 corners polygon primitive as box body*
4,1,4,$2,$3,$4,$5,$6,$7,$8,$9,$2,$3,0*
0 Add four circle primitives for the rounded corners*
1,1,$1+$1,$2,$3*
1,1,$1+$1,$4,$5*
1,1,$1+$1,$6,$7*
1,1,$1+$1,$8,$9*
0 Add four rect primitives between the rounded corners*
20,1,$1+$1,$2,$3,$4,$5,0*
20,1,$1+$1,$4,$5,$6,$7,0*
20,1,$1+$1,$6,$7,$8,$9,0*
20,1,$1+$1,$8,$9,$2,$3,0*%
G04 Aperture macros list end*
%ADD10RoundRect,0.200000X0.200000X0.275000X-0.200000X0.275000X-0.200000X-0.275000X0.200000X-0.275000X0*%
%ADD11RoundRect,0.225000X0.225000X0.250000X-0.225000X0.250000X-0.225000X-0.250000X0.225000X-0.250000X0*%
%ADD12RoundRect,0.275000X0.725000X-0.275000X0.725000X0.275000X-0.725000X0.275000X-0.725000X-0.275000X0*%
%ADD13RoundRect,0.200000X-0.200000X-0.275000X0.200000X-0.275000X0.200000X0.275000X-0.200000X0.275000X0*%
%ADD14RoundRect,0.225000X-0.225000X-0.250000X0.225000X-0.250000X0.225000X0.250000X-0.225000X0.250000X0*%
%ADD15RoundRect,0.250000X-0.350000X0.850000X-0.350000X-0.850000X0.350000X-0.850000X0.350000X0.850000X0*%
%ADD16RoundRect,0.250000X-1.125000X1.275000X-1.125000X-1.275000X1.125000X-1.275000X1.125000X1.275000X0*%
%ADD17RoundRect,0.218750X-0.256250X0.218750X-0.256250X-0.218750X0.256250X-0.218750X0.256250X0.218750X0*%
%ADD18RoundRect,0.112500X0.187500X0.112500X-0.187500X0.112500X-0.187500X-0.112500X0.187500X-0.112500X0*%
%ADD19RoundRect,0.218750X0.218750X0.256250X-0.218750X0.256250X-0.218750X-0.256250X0.218750X-0.256250X0*%
%ADD20RoundRect,0.150000X-0.150000X0.587500X-0.150000X-0.587500X0.150000X-0.587500X0.150000X0.587500X0*%
%ADD21RoundRect,0.100000X-0.712500X-0.100000X0.712500X-0.100000X0.712500X0.100000X-0.712500X0.100000X0*%
%ADD22RoundRect,0.225000X0.250000X-0.225000X0.250000X0.225000X-0.250000X0.225000X-0.250000X-0.225000X0*%
%ADD23RoundRect,0.225000X-0.250000X0.225000X-0.250000X-0.225000X0.250000X-0.225000X0.250000X0.225000X0*%
%ADD24R,0.400000X1.200000*%
%ADD25RoundRect,0.200000X0.275000X-0.200000X0.275000X0.200000X-0.275000X0.200000X-0.275000X-0.200000X0*%
%ADD26RoundRect,0.200000X-0.275000X0.200000X-0.275000X-0.200000X0.275000X-0.200000X0.275000X0.200000X0*%
%ADD27R,1.400000X1.200000*%
%ADD28R,0.550000X1.600000*%
%ADD29R,1.600000X0.550000*%
%ADD30RoundRect,0.112500X-0.187500X-0.112500X0.187500X-0.112500X0.187500X0.112500X-0.187500X0.112500X0*%
G04 APERTURE END LIST*
D10*
%TO.C,R22*%
X119063000Y-94996000D03*
X120713000Y-94996000D03*
%TD*%
%TO.C,R21*%
X119063000Y-96520000D03*
X120713000Y-96520000D03*
%TD*%
D11*
%TO.C,C3*%
X96103000Y-110942000D03*
X94553000Y-110942000D03*
%TD*%
D12*
%TO.C,SW4*%
X110060000Y-95744000D03*
X110060000Y-91244000D03*
%TD*%
D11*
%TO.C,R14*%
X69355000Y-101092000D03*
X67805000Y-101092000D03*
%TD*%
D13*
%TO.C,R1*%
X103175000Y-114500000D03*
X104825000Y-114500000D03*
%TD*%
D14*
%TO.C,C14*%
X72377000Y-108204000D03*
X73927000Y-108204000D03*
%TD*%
D15*
%TO.C,IC4*%
X125021000Y-100578000D03*
D16*
X128826000Y-105203000D03*
X125776000Y-105203000D03*
X128826000Y-108553000D03*
X125776000Y-108553000D03*
D15*
X129581000Y-100578000D03*
%TD*%
D13*
%TO.C,R10*%
X78106000Y-106878000D03*
X79756000Y-106878000D03*
%TD*%
D14*
%TO.C,C11*%
X124475000Y-98250000D03*
X126025000Y-98250000D03*
%TD*%
D17*
%TO.C,LED3*%
X122726500Y-104498500D03*
X122726500Y-106073500D03*
%TD*%
D18*
%TO.C,D1*%
X69664000Y-104648000D03*
X67564000Y-104648000D03*
%TD*%
D19*
%TO.C,LED1*%
X115419500Y-106986000D03*
X113844500Y-106986000D03*
%TD*%
D10*
%TO.C,R11*%
X83820000Y-108402000D03*
X82170000Y-108402000D03*
%TD*%
D13*
%TO.C,R17*%
X67755000Y-106680000D03*
X69405000Y-106680000D03*
%TD*%
D14*
%TO.C,C2*%
X98109000Y-92762000D03*
X99659000Y-92762000D03*
%TD*%
D13*
%TO.C,R2*%
X117363000Y-106986000D03*
X119013000Y-106986000D03*
%TD*%
D14*
%TO.C,R20*%
X72377000Y-101092000D03*
X73927000Y-101092000D03*
%TD*%
D19*
%TO.C,LED2*%
X115419500Y-109526000D03*
X113844500Y-109526000D03*
%TD*%
D14*
%TO.C,C8*%
X82220000Y-105354000D03*
X83770000Y-105354000D03*
%TD*%
D11*
%TO.C,C5*%
X117107000Y-97282000D03*
X115557000Y-97282000D03*
%TD*%
D20*
%TO.C,Q1*%
X72202000Y-110314500D03*
X74102000Y-110314500D03*
X73152000Y-112189500D03*
%TD*%
%TO.C,Q2*%
X67630000Y-110314500D03*
X69530000Y-110314500D03*
X68580000Y-112189500D03*
%TD*%
D11*
%TO.C,C9*%
X79706000Y-108402000D03*
X78156000Y-108402000D03*
%TD*%
D13*
%TO.C,R5*%
X115507000Y-94234000D03*
X117157000Y-94234000D03*
%TD*%
D21*
%TO.C,IC3*%
X82821500Y-112425000D03*
X82821500Y-111775000D03*
X82821500Y-111125000D03*
X82821500Y-110475000D03*
X78596500Y-110475000D03*
X78596500Y-111125000D03*
X78596500Y-111775000D03*
X78596500Y-112425000D03*
%TD*%
D14*
%TO.C,C10*%
X82220000Y-106878000D03*
X83770000Y-106878000D03*
%TD*%
D11*
%TO.C,C6*%
X117107000Y-91186000D03*
X115557000Y-91186000D03*
%TD*%
D14*
%TO.C,R19*%
X72377000Y-102616000D03*
X73927000Y-102616000D03*
%TD*%
D22*
%TO.C,C16*%
X106504000Y-99125000D03*
X106504000Y-97575000D03*
%TD*%
D23*
%TO.C,C4*%
X91772000Y-107119000D03*
X91772000Y-108669000D03*
%TD*%
D13*
%TO.C,R18*%
X72327000Y-106680000D03*
X73977000Y-106680000D03*
%TD*%
D24*
%TO.C,IC2*%
X119521500Y-104398000D03*
X118886500Y-104398000D03*
X118251500Y-104398000D03*
X117616500Y-104398000D03*
X116981500Y-104398000D03*
X116346500Y-104398000D03*
X115711500Y-104398000D03*
X115076500Y-104398000D03*
X114441500Y-104398000D03*
X113806500Y-104398000D03*
X113806500Y-99198000D03*
X114441500Y-99198000D03*
X115076500Y-99198000D03*
X115711500Y-99198000D03*
X116346500Y-99198000D03*
X116981500Y-99198000D03*
X117616500Y-99198000D03*
X118251500Y-99198000D03*
X118886500Y-99198000D03*
X119521500Y-99198000D03*
%TD*%
D25*
%TO.C,R15*%
X108536000Y-99175000D03*
X108536000Y-97525000D03*
%TD*%
%TO.C,R16*%
X122726500Y-109667000D03*
X122726500Y-108017000D03*
%TD*%
D26*
%TO.C,R8*%
X81280000Y-101791000D03*
X81280000Y-103441000D03*
%TD*%
D11*
%TO.C,C1*%
X100675000Y-105862000D03*
X99125000Y-105862000D03*
%TD*%
D27*
%TO.C,OSC1*%
X94228000Y-107044000D03*
X96428000Y-107044000D03*
X96428000Y-108744000D03*
X94228000Y-108744000D03*
%TD*%
D11*
%TO.C,C7*%
X117107000Y-95758000D03*
X115557000Y-95758000D03*
%TD*%
D10*
%TO.C,R3*%
X119013000Y-109526000D03*
X117363000Y-109526000D03*
%TD*%
D23*
%TO.C,C18*%
X112092000Y-108243000D03*
X112092000Y-109793000D03*
%TD*%
D28*
%TO.C,IC1*%
X102700000Y-103508000D03*
X101900000Y-103508000D03*
X101100000Y-103508000D03*
X100300000Y-103508000D03*
X99500000Y-103508000D03*
X98700000Y-103508000D03*
X97900000Y-103508000D03*
X97100000Y-103508000D03*
D29*
X95650000Y-102058000D03*
X95650000Y-101258000D03*
X95650000Y-100458000D03*
X95650000Y-99658000D03*
X95650000Y-98858000D03*
X95650000Y-98058000D03*
X95650000Y-97258000D03*
X95650000Y-96458000D03*
D28*
X97100000Y-95008000D03*
X97900000Y-95008000D03*
X98700000Y-95008000D03*
X99500000Y-95008000D03*
X100300000Y-95008000D03*
X101100000Y-95008000D03*
X101900000Y-95008000D03*
X102700000Y-95008000D03*
D29*
X104150000Y-96458000D03*
X104150000Y-97258000D03*
X104150000Y-98058000D03*
X104150000Y-98858000D03*
X104150000Y-99658000D03*
X104150000Y-100458000D03*
X104150000Y-101258000D03*
X104150000Y-102058000D03*
%TD*%
D26*
%TO.C,R6*%
X79756000Y-101791000D03*
X79756000Y-103441000D03*
%TD*%
D30*
%TO.C,D2*%
X72102000Y-104648000D03*
X74202000Y-104648000D03*
%TD*%
D13*
%TO.C,R9*%
X78106000Y-105354000D03*
X79756000Y-105354000D03*
%TD*%
D26*
%TO.C,R12*%
X106504000Y-94477000D03*
X106504000Y-96127000D03*
%TD*%
%TO.C,R7*%
X78232000Y-101791000D03*
X78232000Y-103441000D03*
%TD*%
D11*
%TO.C,R13*%
X69355000Y-102616000D03*
X67805000Y-102616000D03*
%TD*%
D14*
%TO.C,C15*%
X67805000Y-108204000D03*
X69355000Y-108204000D03*
%TD*%
D11*
%TO.C,C17*%
X130108000Y-98242000D03*
X128558000Y-98242000D03*
%TD*%
D13*
%TO.C,R4*%
X115507000Y-92710000D03*
X117157000Y-92710000D03*
%TD*%
M02*
