%TF.GenerationSoftware,KiCad,Pcbnew,8.0.1*%
%TF.CreationDate,2024-08-04T23:18:54+02:00*%
%TF.ProjectId,FT_USB,46545f55-5342-42e6-9b69-6361645f7063,rev?*%
%TF.SameCoordinates,Original*%
%TF.FileFunction,Copper,L2,Bot*%
%TF.FilePolarity,Positive*%
%FSLAX46Y46*%
G04 Gerber Fmt 4.6, Leading zero omitted, Abs format (unit mm)*
G04 Created by KiCad (PCBNEW 8.0.1) date 2024-08-04 23:18:54*
%MOMM*%
%LPD*%
G01*
G04 APERTURE LIST*
%TA.AperFunction,ComponentPad*%
%ADD10R,1.700000X1.700000*%
%TD*%
%TA.AperFunction,ComponentPad*%
%ADD11O,1.700000X1.700000*%
%TD*%
%TA.AperFunction,ComponentPad*%
%ADD12C,3.000000*%
%TD*%
%TA.AperFunction,ComponentPad*%
%ADD13C,1.400000*%
%TD*%
%TA.AperFunction,ComponentPad*%
%ADD14R,1.400000X1.400000*%
%TD*%
%TA.AperFunction,Conductor*%
%ADD15C,0.508000*%
%TD*%
G04 APERTURE END LIST*
D10*
%TO.P,J1,1,Pin_1*%
%TO.N,Net-(CON1-VBUS)*%
X116300000Y-122000000D03*
D11*
%TO.P,J1,2,Pin_2*%
%TO.N,/USB_D+*%
X113760000Y-122000000D03*
%TO.P,J1,3,Pin_3*%
%TO.N,/USB_D-*%
X111220000Y-122000000D03*
%TO.P,J1,4,Pin_4*%
%TO.N,GND*%
X108680000Y-122000000D03*
%TD*%
D12*
%TO.P,CON1,5,Shield*%
%TO.N,GND*%
X118520000Y-112727500D03*
X106480000Y-112727500D03*
D13*
%TO.P,CON1,4,GND*%
X113750000Y-113217500D03*
%TO.P,CON1,3,D+*%
%TO.N,/USB_D+*%
X111250000Y-113217500D03*
%TO.P,CON1,2,D-*%
%TO.N,/USB_D-*%
X111250000Y-110017500D03*
D14*
%TO.P,CON1,1,VBUS*%
%TO.N,Net-(CON1-VBUS)*%
X113750000Y-110017500D03*
%TD*%
D15*
%TO.N,/USB_D-*%
X111220000Y-120393947D02*
X111220000Y-122000000D01*
X109169800Y-112080200D02*
X109169800Y-118343747D01*
X111232500Y-110017500D02*
X109169800Y-112080200D01*
X111250000Y-110017500D02*
X111232500Y-110017500D01*
%TO.N,/USB_D+*%
X111250000Y-113217500D02*
X111250000Y-113250000D01*
X111250000Y-113250000D02*
X109830200Y-114669800D01*
X109830200Y-118070200D02*
X113760000Y-122000000D01*
%TO.N,/USB_D-*%
X109169800Y-118343747D02*
X111220000Y-120393947D01*
%TO.N,/USB_D+*%
X109830200Y-114669800D02*
X109830200Y-118070200D01*
%TO.N,Net-(CON1-VBUS)*%
X115750000Y-112017500D02*
X115750000Y-121450000D01*
X115750000Y-121450000D02*
X116300000Y-122000000D01*
X113750000Y-110017500D02*
X115750000Y-112017500D01*
%TD*%
%TA.AperFunction,Conductor*%
%TO.N,GND*%
G36*
X114758861Y-113872808D02*
G01*
X114772548Y-113854685D01*
X114828658Y-113813050D01*
X114898370Y-113808360D01*
X114959551Y-113842104D01*
X114992776Y-113903568D01*
X114995500Y-113929414D01*
X114995500Y-120913995D01*
X114987682Y-120957329D01*
X114957189Y-121039083D01*
X114915317Y-121095016D01*
X114849853Y-121119433D01*
X114781580Y-121104581D01*
X114753326Y-121083430D01*
X114631402Y-120961506D01*
X114631395Y-120961501D01*
X114437834Y-120825967D01*
X114437830Y-120825965D01*
X114414528Y-120815099D01*
X114223663Y-120726097D01*
X114223659Y-120726096D01*
X114223655Y-120726094D01*
X113995413Y-120664938D01*
X113995403Y-120664936D01*
X113760001Y-120644341D01*
X113759998Y-120644341D01*
X113552187Y-120662522D01*
X113483687Y-120648755D01*
X113453699Y-120626675D01*
X110621019Y-117793994D01*
X110587534Y-117732671D01*
X110584700Y-117706313D01*
X110584700Y-115033686D01*
X110604385Y-114966647D01*
X110621019Y-114946005D01*
X111112705Y-114454319D01*
X111174028Y-114420834D01*
X111200386Y-114418000D01*
X111361241Y-114418000D01*
X111361243Y-114418000D01*
X111579940Y-114377118D01*
X111787401Y-114296747D01*
X111976562Y-114179624D01*
X112140981Y-114029736D01*
X112275058Y-113852189D01*
X112374229Y-113653028D01*
X112380994Y-113629250D01*
X112418271Y-113570161D01*
X112481580Y-113540602D01*
X112550820Y-113549963D01*
X112604007Y-113595272D01*
X112619525Y-113629253D01*
X112626236Y-113652842D01*
X112626239Y-113652848D01*
X112725369Y-113851928D01*
X112741137Y-113872808D01*
X112741138Y-113872808D01*
X113299697Y-113314249D01*
X113321349Y-113395053D01*
X113381909Y-113499946D01*
X113467554Y-113585591D01*
X113572447Y-113646151D01*
X113653250Y-113667802D01*
X113096672Y-114224379D01*
X113096672Y-114224380D01*
X113212821Y-114296297D01*
X113212822Y-114296298D01*
X113420195Y-114376634D01*
X113638807Y-114417500D01*
X113861193Y-114417500D01*
X114079809Y-114376633D01*
X114287168Y-114296301D01*
X114287181Y-114296295D01*
X114403326Y-114224379D01*
X113846750Y-113667802D01*
X113927553Y-113646151D01*
X114032446Y-113585591D01*
X114118091Y-113499946D01*
X114178651Y-113395053D01*
X114200302Y-113314249D01*
X114758861Y-113872808D01*
G37*
%TD.AperFunction*%
%TA.AperFunction,Conductor*%
G36*
X112496005Y-110526245D02*
G01*
X112539961Y-110580556D01*
X112549500Y-110628249D01*
X112549500Y-110765369D01*
X112549501Y-110765376D01*
X112555908Y-110824983D01*
X112606202Y-110959828D01*
X112606206Y-110959835D01*
X112692452Y-111075044D01*
X112692455Y-111075047D01*
X112807664Y-111161293D01*
X112807671Y-111161297D01*
X112942517Y-111211591D01*
X112942516Y-111211591D01*
X112943921Y-111211742D01*
X113002127Y-111218000D01*
X113832112Y-111217999D01*
X113899151Y-111237683D01*
X113919793Y-111254318D01*
X114959181Y-112293705D01*
X114992666Y-112355028D01*
X114995500Y-112381386D01*
X114995500Y-112505585D01*
X114975815Y-112572624D01*
X114923011Y-112618379D01*
X114853853Y-112628323D01*
X114790297Y-112599298D01*
X114772547Y-112580313D01*
X114758860Y-112562190D01*
X114200302Y-113120749D01*
X114178651Y-113039947D01*
X114118091Y-112935054D01*
X114032446Y-112849409D01*
X113927553Y-112788849D01*
X113846750Y-112767197D01*
X114403327Y-112210619D01*
X114287178Y-112138702D01*
X114287177Y-112138701D01*
X114079804Y-112058365D01*
X113861193Y-112017500D01*
X113638807Y-112017500D01*
X113420195Y-112058365D01*
X113212824Y-112138700D01*
X113212823Y-112138701D01*
X113096671Y-112210619D01*
X113653250Y-112767197D01*
X113572447Y-112788849D01*
X113467554Y-112849409D01*
X113381909Y-112935054D01*
X113321349Y-113039947D01*
X113299697Y-113120750D01*
X112741138Y-112562191D01*
X112741137Y-112562191D01*
X112725368Y-112583074D01*
X112626239Y-112782151D01*
X112626238Y-112782152D01*
X112619525Y-112805748D01*
X112582245Y-112864840D01*
X112518935Y-112894398D01*
X112449696Y-112885035D01*
X112396510Y-112839724D01*
X112380995Y-112805753D01*
X112374229Y-112781972D01*
X112366213Y-112765873D01*
X112275061Y-112582816D01*
X112275056Y-112582808D01*
X112140979Y-112405261D01*
X111976562Y-112255376D01*
X111976560Y-112255374D01*
X111787404Y-112138254D01*
X111787398Y-112138252D01*
X111579940Y-112057882D01*
X111361243Y-112017000D01*
X111138757Y-112017000D01*
X110920060Y-112057882D01*
X110832477Y-112091812D01*
X110712601Y-112138252D01*
X110712595Y-112138254D01*
X110523439Y-112255374D01*
X110523437Y-112255376D01*
X110359020Y-112405261D01*
X110224943Y-112582808D01*
X110224938Y-112582816D01*
X110159300Y-112714636D01*
X110111797Y-112765873D01*
X110044134Y-112783294D01*
X109977794Y-112761368D01*
X109933839Y-112707057D01*
X109924300Y-112659364D01*
X109924300Y-112444085D01*
X109943985Y-112377046D01*
X109960614Y-112356408D01*
X111062704Y-111254318D01*
X111124027Y-111220834D01*
X111150385Y-111218000D01*
X111361241Y-111218000D01*
X111361243Y-111218000D01*
X111579940Y-111177118D01*
X111787401Y-111096747D01*
X111976562Y-110979624D01*
X112140981Y-110829736D01*
X112275058Y-110652189D01*
X112314501Y-110572976D01*
X112362002Y-110521742D01*
X112429665Y-110504320D01*
X112496005Y-110526245D01*
G37*
%TD.AperFunction*%
%TA.AperFunction,Conductor*%
G36*
X124943039Y-100019685D02*
G01*
X124988794Y-100072489D01*
X125000000Y-100124000D01*
X125000000Y-124876000D01*
X124980315Y-124943039D01*
X124927511Y-124988794D01*
X124876000Y-125000000D01*
X100124000Y-125000000D01*
X100056961Y-124980315D01*
X100011206Y-124927511D01*
X100000000Y-124876000D01*
X100000000Y-122000000D01*
X101447479Y-122000000D01*
X101467582Y-122249039D01*
X101467583Y-122249044D01*
X101527376Y-122491631D01*
X101625309Y-122721492D01*
X101625312Y-122721498D01*
X101758847Y-122932665D01*
X101924528Y-123119680D01*
X101990568Y-123173600D01*
X102113414Y-123273901D01*
X102118065Y-123277698D01*
X102118068Y-123277701D01*
X102233808Y-123344523D01*
X102334446Y-123402626D01*
X102568061Y-123491225D01*
X102812864Y-123541202D01*
X102880950Y-123543945D01*
X103062506Y-123551262D01*
X103062508Y-123551262D01*
X103062509Y-123551261D01*
X103062514Y-123551262D01*
X103275111Y-123525448D01*
X103310545Y-123521146D01*
X103378191Y-123501551D01*
X103550532Y-123451633D01*
X103776261Y-123344523D01*
X103981885Y-123202591D01*
X104162079Y-123029512D01*
X104312176Y-122829770D01*
X104428288Y-122608537D01*
X104507408Y-122371543D01*
X104527316Y-122249044D01*
X104547486Y-122124935D01*
X104547486Y-122124932D01*
X104547487Y-122124926D01*
X104550000Y-122000000D01*
X104547487Y-121875074D01*
X104547486Y-121875067D01*
X104547486Y-121875064D01*
X104507409Y-121628462D01*
X104507408Y-121628460D01*
X104507408Y-121628457D01*
X104428288Y-121391463D01*
X104312176Y-121170230D01*
X104312173Y-121170226D01*
X104312172Y-121170224D01*
X104162077Y-120970485D01*
X103981886Y-120797410D01*
X103981885Y-120797409D01*
X103776262Y-120655477D01*
X103653812Y-120597374D01*
X103550532Y-120548367D01*
X103550529Y-120548366D01*
X103550526Y-120548365D01*
X103310545Y-120478853D01*
X103062507Y-120448737D01*
X102812867Y-120458797D01*
X102812859Y-120458798D01*
X102568056Y-120508776D01*
X102334444Y-120597374D01*
X102118068Y-120722298D01*
X102118065Y-120722301D01*
X101924528Y-120880319D01*
X101758847Y-121067334D01*
X101625312Y-121278501D01*
X101625309Y-121278507D01*
X101527376Y-121508368D01*
X101467583Y-121750955D01*
X101467582Y-121750960D01*
X101447479Y-122000000D01*
X100000000Y-122000000D01*
X100000000Y-112727501D01*
X104474891Y-112727501D01*
X104495300Y-113012862D01*
X104556109Y-113292395D01*
X104656091Y-113560458D01*
X104793191Y-113811538D01*
X104793196Y-113811546D01*
X104899882Y-113954061D01*
X104899883Y-113954062D01*
X105507912Y-113346032D01*
X105602829Y-113476675D01*
X105730825Y-113604671D01*
X105861465Y-113699586D01*
X105253436Y-114307615D01*
X105395960Y-114414307D01*
X105395961Y-114414308D01*
X105647042Y-114551408D01*
X105647041Y-114551408D01*
X105915104Y-114651390D01*
X106194637Y-114712199D01*
X106479999Y-114732609D01*
X106480001Y-114732609D01*
X106765362Y-114712199D01*
X107044895Y-114651390D01*
X107312958Y-114551408D01*
X107564047Y-114414303D01*
X107706561Y-114307616D01*
X107706562Y-114307615D01*
X107098534Y-113699586D01*
X107229175Y-113604671D01*
X107357171Y-113476675D01*
X107452086Y-113346033D01*
X108060115Y-113954062D01*
X108060116Y-113954061D01*
X108166803Y-113811547D01*
X108182468Y-113782860D01*
X108231873Y-113733455D01*
X108300146Y-113718603D01*
X108365610Y-113743020D01*
X108407482Y-113798953D01*
X108415300Y-113842287D01*
X108415300Y-118264299D01*
X108415299Y-118264325D01*
X108415299Y-118269435D01*
X108415299Y-118418059D01*
X108415299Y-118418061D01*
X108415298Y-118418061D01*
X108444293Y-118563820D01*
X108444296Y-118563830D01*
X108501166Y-118701128D01*
X108501172Y-118701139D01*
X108583742Y-118824715D01*
X108583743Y-118824716D01*
X110429181Y-120670152D01*
X110462666Y-120731475D01*
X110465500Y-120757833D01*
X110465500Y-120815099D01*
X110445815Y-120882138D01*
X110412624Y-120916674D01*
X110348599Y-120961505D01*
X110348597Y-120961506D01*
X110181508Y-121128594D01*
X110051269Y-121314595D01*
X109996692Y-121358219D01*
X109927193Y-121365412D01*
X109864839Y-121333890D01*
X109848119Y-121314594D01*
X109718113Y-121128926D01*
X109718108Y-121128920D01*
X109551082Y-120961894D01*
X109357578Y-120826399D01*
X109143492Y-120726570D01*
X109143486Y-120726567D01*
X108930000Y-120669364D01*
X108930000Y-121566988D01*
X108872993Y-121534075D01*
X108745826Y-121500000D01*
X108614174Y-121500000D01*
X108487007Y-121534075D01*
X108430000Y-121566988D01*
X108430000Y-120669364D01*
X108429999Y-120669364D01*
X108216513Y-120726567D01*
X108216507Y-120726570D01*
X108002422Y-120826399D01*
X108002420Y-120826400D01*
X107808926Y-120961886D01*
X107808920Y-120961891D01*
X107641891Y-121128920D01*
X107641886Y-121128926D01*
X107506400Y-121322420D01*
X107506399Y-121322422D01*
X107406570Y-121536507D01*
X107406567Y-121536513D01*
X107349364Y-121749999D01*
X107349364Y-121750000D01*
X108246988Y-121750000D01*
X108214075Y-121807007D01*
X108180000Y-121934174D01*
X108180000Y-122065826D01*
X108214075Y-122192993D01*
X108246988Y-122250000D01*
X107349364Y-122250000D01*
X107406567Y-122463486D01*
X107406570Y-122463492D01*
X107506399Y-122677578D01*
X107641894Y-122871082D01*
X107808917Y-123038105D01*
X108002421Y-123173600D01*
X108216507Y-123273429D01*
X108216516Y-123273433D01*
X108430000Y-123330634D01*
X108430000Y-122433012D01*
X108487007Y-122465925D01*
X108614174Y-122500000D01*
X108745826Y-122500000D01*
X108872993Y-122465925D01*
X108930000Y-122433012D01*
X108930000Y-123330633D01*
X109143483Y-123273433D01*
X109143492Y-123273429D01*
X109357578Y-123173600D01*
X109551082Y-123038105D01*
X109718105Y-122871082D01*
X109848119Y-122685405D01*
X109902696Y-122641781D01*
X109972195Y-122634588D01*
X110034549Y-122666110D01*
X110051269Y-122685405D01*
X110181505Y-122871401D01*
X110348599Y-123038495D01*
X110445384Y-123106265D01*
X110542165Y-123174032D01*
X110542167Y-123174033D01*
X110542170Y-123174035D01*
X110756337Y-123273903D01*
X110756343Y-123273904D01*
X110756344Y-123273905D01*
X110811285Y-123288626D01*
X110984592Y-123335063D01*
X111161034Y-123350500D01*
X111219999Y-123355659D01*
X111220000Y-123355659D01*
X111220001Y-123355659D01*
X111278966Y-123350500D01*
X111455408Y-123335063D01*
X111683663Y-123273903D01*
X111897830Y-123174035D01*
X112091401Y-123038495D01*
X112258495Y-122871401D01*
X112388425Y-122685842D01*
X112443002Y-122642217D01*
X112512500Y-122635023D01*
X112574855Y-122666546D01*
X112591575Y-122685842D01*
X112721281Y-122871082D01*
X112721505Y-122871401D01*
X112888599Y-123038495D01*
X112985384Y-123106265D01*
X113082165Y-123174032D01*
X113082167Y-123174033D01*
X113082170Y-123174035D01*
X113296337Y-123273903D01*
X113296343Y-123273904D01*
X113296344Y-123273905D01*
X113351285Y-123288626D01*
X113524592Y-123335063D01*
X113701034Y-123350500D01*
X113759999Y-123355659D01*
X113760000Y-123355659D01*
X113760001Y-123355659D01*
X113818966Y-123350500D01*
X113995408Y-123335063D01*
X114223663Y-123273903D01*
X114437830Y-123174035D01*
X114631401Y-123038495D01*
X114753329Y-122916566D01*
X114814648Y-122883084D01*
X114884340Y-122888068D01*
X114940274Y-122929939D01*
X114957189Y-122960917D01*
X115006202Y-123092328D01*
X115006206Y-123092335D01*
X115092452Y-123207544D01*
X115092455Y-123207547D01*
X115207664Y-123293793D01*
X115207671Y-123293797D01*
X115342517Y-123344091D01*
X115342516Y-123344091D01*
X115346535Y-123344523D01*
X115402127Y-123350500D01*
X117197872Y-123350499D01*
X117257483Y-123344091D01*
X117392331Y-123293796D01*
X117507546Y-123207546D01*
X117593796Y-123092331D01*
X117644091Y-122957483D01*
X117650500Y-122897873D01*
X117650499Y-122000000D01*
X120447479Y-122000000D01*
X120467582Y-122249039D01*
X120467583Y-122249044D01*
X120527376Y-122491631D01*
X120625309Y-122721492D01*
X120625312Y-122721498D01*
X120758847Y-122932665D01*
X120924528Y-123119680D01*
X120990568Y-123173600D01*
X121113414Y-123273901D01*
X121118065Y-123277698D01*
X121118068Y-123277701D01*
X121233808Y-123344523D01*
X121334446Y-123402626D01*
X121568061Y-123491225D01*
X121812864Y-123541202D01*
X121880950Y-123543945D01*
X122062506Y-123551262D01*
X122062508Y-123551262D01*
X122062509Y-123551261D01*
X122062514Y-123551262D01*
X122275111Y-123525448D01*
X122310545Y-123521146D01*
X122378191Y-123501551D01*
X122550532Y-123451633D01*
X122776261Y-123344523D01*
X122981885Y-123202591D01*
X123162079Y-123029512D01*
X123312176Y-122829770D01*
X123428288Y-122608537D01*
X123507408Y-122371543D01*
X123527316Y-122249044D01*
X123547486Y-122124935D01*
X123547486Y-122124932D01*
X123547487Y-122124926D01*
X123550000Y-122000000D01*
X123547487Y-121875074D01*
X123547486Y-121875067D01*
X123547486Y-121875064D01*
X123507409Y-121628462D01*
X123507408Y-121628460D01*
X123507408Y-121628457D01*
X123428288Y-121391463D01*
X123312176Y-121170230D01*
X123312173Y-121170226D01*
X123312172Y-121170224D01*
X123162077Y-120970485D01*
X122981886Y-120797410D01*
X122981885Y-120797409D01*
X122776262Y-120655477D01*
X122653812Y-120597374D01*
X122550532Y-120548367D01*
X122550529Y-120548366D01*
X122550526Y-120548365D01*
X122310545Y-120478853D01*
X122062507Y-120448737D01*
X121812867Y-120458797D01*
X121812859Y-120458798D01*
X121568056Y-120508776D01*
X121334444Y-120597374D01*
X121118068Y-120722298D01*
X121118065Y-120722301D01*
X120924528Y-120880319D01*
X120758847Y-121067334D01*
X120625312Y-121278501D01*
X120625309Y-121278507D01*
X120527376Y-121508368D01*
X120467583Y-121750955D01*
X120467582Y-121750960D01*
X120447479Y-122000000D01*
X117650499Y-122000000D01*
X117650499Y-121102128D01*
X117644091Y-121042517D01*
X117642810Y-121039083D01*
X117593797Y-120907671D01*
X117593793Y-120907664D01*
X117507547Y-120792455D01*
X117507544Y-120792452D01*
X117392335Y-120706206D01*
X117392328Y-120706202D01*
X117257482Y-120655908D01*
X117257483Y-120655908D01*
X117197883Y-120649501D01*
X117197881Y-120649500D01*
X117197873Y-120649500D01*
X117197865Y-120649500D01*
X116628500Y-120649500D01*
X116561461Y-120629815D01*
X116515706Y-120577011D01*
X116504500Y-120525500D01*
X116504500Y-113695411D01*
X116524185Y-113628372D01*
X116576989Y-113582617D01*
X116646147Y-113572673D01*
X116709703Y-113601698D01*
X116737332Y-113635984D01*
X116833191Y-113811538D01*
X116833196Y-113811546D01*
X116939882Y-113954061D01*
X116939883Y-113954062D01*
X117547912Y-113346032D01*
X117642829Y-113476675D01*
X117770825Y-113604671D01*
X117901465Y-113699586D01*
X117293436Y-114307615D01*
X117435960Y-114414307D01*
X117435961Y-114414308D01*
X117687042Y-114551408D01*
X117687041Y-114551408D01*
X117955104Y-114651390D01*
X118234637Y-114712199D01*
X118519999Y-114732609D01*
X118520001Y-114732609D01*
X118805362Y-114712199D01*
X119084895Y-114651390D01*
X119352958Y-114551408D01*
X119604047Y-114414303D01*
X119746561Y-114307616D01*
X119746562Y-114307615D01*
X119138534Y-113699586D01*
X119269175Y-113604671D01*
X119397171Y-113476675D01*
X119492086Y-113346033D01*
X120100115Y-113954062D01*
X120100116Y-113954061D01*
X120206803Y-113811547D01*
X120343908Y-113560458D01*
X120443890Y-113292395D01*
X120504699Y-113012862D01*
X120525109Y-112727501D01*
X120525109Y-112727498D01*
X120504699Y-112442137D01*
X120443890Y-112162604D01*
X120343908Y-111894541D01*
X120206808Y-111643461D01*
X120206807Y-111643460D01*
X120100115Y-111500936D01*
X119492086Y-112108965D01*
X119397171Y-111978325D01*
X119269175Y-111850329D01*
X119138533Y-111755412D01*
X119746562Y-111147383D01*
X119746561Y-111147382D01*
X119604046Y-111040696D01*
X119604038Y-111040691D01*
X119352957Y-110903591D01*
X119352958Y-110903591D01*
X119084895Y-110803609D01*
X118805362Y-110742800D01*
X118520001Y-110722391D01*
X118519999Y-110722391D01*
X118234637Y-110742800D01*
X117955104Y-110803609D01*
X117687041Y-110903591D01*
X117435961Y-111040691D01*
X117435953Y-111040696D01*
X117293437Y-111147382D01*
X117293436Y-111147383D01*
X117901466Y-111755413D01*
X117770825Y-111850329D01*
X117642829Y-111978325D01*
X117547913Y-112108966D01*
X116939883Y-111500936D01*
X116939882Y-111500937D01*
X116833196Y-111643453D01*
X116833191Y-111643461D01*
X116712344Y-111864777D01*
X116662939Y-111914182D01*
X116594666Y-111929034D01*
X116529202Y-111904617D01*
X116487330Y-111848684D01*
X116481895Y-111829542D01*
X116475506Y-111797426D01*
X116475504Y-111797418D01*
X116418632Y-111660116D01*
X116418630Y-111660112D01*
X116418629Y-111660110D01*
X116377953Y-111599234D01*
X116336059Y-111536534D01*
X116336057Y-111536532D01*
X116336055Y-111536529D01*
X116226647Y-111427121D01*
X116226624Y-111427100D01*
X114986818Y-110187293D01*
X114953333Y-110125970D01*
X114950499Y-110099612D01*
X114950499Y-109269629D01*
X114950498Y-109269623D01*
X114950497Y-109269616D01*
X114944091Y-109210017D01*
X114942318Y-109205264D01*
X114893797Y-109075171D01*
X114893793Y-109075164D01*
X114807547Y-108959955D01*
X114807544Y-108959952D01*
X114692335Y-108873706D01*
X114692328Y-108873702D01*
X114557482Y-108823408D01*
X114557483Y-108823408D01*
X114497883Y-108817001D01*
X114497881Y-108817000D01*
X114497873Y-108817000D01*
X114497864Y-108817000D01*
X113002129Y-108817000D01*
X113002123Y-108817001D01*
X112942516Y-108823408D01*
X112807671Y-108873702D01*
X112807664Y-108873706D01*
X112692455Y-108959952D01*
X112692452Y-108959955D01*
X112606206Y-109075164D01*
X112606202Y-109075171D01*
X112555908Y-109210017D01*
X112549501Y-109269616D01*
X112549501Y-109269623D01*
X112549500Y-109269635D01*
X112549500Y-109406747D01*
X112529815Y-109473786D01*
X112477011Y-109519541D01*
X112407853Y-109529485D01*
X112344297Y-109500460D01*
X112314500Y-109462019D01*
X112275061Y-109382816D01*
X112275056Y-109382808D01*
X112140979Y-109205261D01*
X111976562Y-109055376D01*
X111976560Y-109055374D01*
X111787404Y-108938254D01*
X111787398Y-108938252D01*
X111579940Y-108857882D01*
X111361243Y-108817000D01*
X111138757Y-108817000D01*
X110920060Y-108857882D01*
X110879219Y-108873704D01*
X110712601Y-108938252D01*
X110712595Y-108938254D01*
X110523439Y-109055374D01*
X110523437Y-109055376D01*
X110359020Y-109205261D01*
X110224943Y-109382808D01*
X110224938Y-109382816D01*
X110125775Y-109581961D01*
X110125769Y-109581976D01*
X110064885Y-109795962D01*
X110064884Y-109795964D01*
X110044357Y-110017499D01*
X110044357Y-110017502D01*
X110049257Y-110070386D01*
X110035842Y-110138955D01*
X110013467Y-110169507D01*
X108583743Y-111599230D01*
X108583742Y-111599231D01*
X108501172Y-111722807D01*
X108501168Y-111722814D01*
X108474813Y-111786443D01*
X108430972Y-111840846D01*
X108364678Y-111862911D01*
X108296979Y-111845632D01*
X108251420Y-111798417D01*
X108166808Y-111643461D01*
X108166807Y-111643460D01*
X108060115Y-111500936D01*
X107452086Y-112108965D01*
X107357171Y-111978325D01*
X107229175Y-111850329D01*
X107098533Y-111755412D01*
X107706562Y-111147383D01*
X107706561Y-111147382D01*
X107564046Y-111040696D01*
X107564038Y-111040691D01*
X107312957Y-110903591D01*
X107312958Y-110903591D01*
X107044895Y-110803609D01*
X106765362Y-110742800D01*
X106480001Y-110722391D01*
X106479999Y-110722391D01*
X106194637Y-110742800D01*
X105915104Y-110803609D01*
X105647041Y-110903591D01*
X105395961Y-111040691D01*
X105395953Y-111040696D01*
X105253437Y-111147382D01*
X105253436Y-111147383D01*
X105861466Y-111755413D01*
X105730825Y-111850329D01*
X105602829Y-111978325D01*
X105507913Y-112108966D01*
X104899883Y-111500936D01*
X104899882Y-111500937D01*
X104793196Y-111643453D01*
X104793191Y-111643461D01*
X104656091Y-111894541D01*
X104556109Y-112162604D01*
X104495300Y-112442137D01*
X104474891Y-112727498D01*
X104474891Y-112727501D01*
X100000000Y-112727501D01*
X100000000Y-103000000D01*
X101447479Y-103000000D01*
X101467582Y-103249039D01*
X101467583Y-103249044D01*
X101527376Y-103491631D01*
X101625309Y-103721492D01*
X101625312Y-103721498D01*
X101758847Y-103932665D01*
X101924528Y-104119680D01*
X102118065Y-104277698D01*
X102118068Y-104277701D01*
X102233808Y-104344523D01*
X102334446Y-104402626D01*
X102568061Y-104491225D01*
X102812864Y-104541202D01*
X102880950Y-104543945D01*
X103062506Y-104551262D01*
X103062508Y-104551262D01*
X103062509Y-104551261D01*
X103062514Y-104551262D01*
X103275111Y-104525448D01*
X103310545Y-104521146D01*
X103378191Y-104501551D01*
X103550532Y-104451633D01*
X103776261Y-104344523D01*
X103981885Y-104202591D01*
X104162079Y-104029512D01*
X104312176Y-103829770D01*
X104428288Y-103608537D01*
X104507408Y-103371543D01*
X104527316Y-103249044D01*
X104547486Y-103124935D01*
X104547486Y-103124932D01*
X104547487Y-103124926D01*
X104550000Y-103000000D01*
X120447479Y-103000000D01*
X120467582Y-103249039D01*
X120467583Y-103249044D01*
X120527376Y-103491631D01*
X120625309Y-103721492D01*
X120625312Y-103721498D01*
X120758847Y-103932665D01*
X120924528Y-104119680D01*
X121118065Y-104277698D01*
X121118068Y-104277701D01*
X121233808Y-104344523D01*
X121334446Y-104402626D01*
X121568061Y-104491225D01*
X121812864Y-104541202D01*
X121880950Y-104543945D01*
X122062506Y-104551262D01*
X122062508Y-104551262D01*
X122062509Y-104551261D01*
X122062514Y-104551262D01*
X122275111Y-104525448D01*
X122310545Y-104521146D01*
X122378191Y-104501551D01*
X122550532Y-104451633D01*
X122776261Y-104344523D01*
X122981885Y-104202591D01*
X123162079Y-104029512D01*
X123312176Y-103829770D01*
X123428288Y-103608537D01*
X123507408Y-103371543D01*
X123527316Y-103249044D01*
X123547486Y-103124935D01*
X123547486Y-103124932D01*
X123547487Y-103124926D01*
X123550000Y-103000000D01*
X123547487Y-102875074D01*
X123547486Y-102875067D01*
X123547486Y-102875064D01*
X123507409Y-102628462D01*
X123507408Y-102628460D01*
X123507408Y-102628457D01*
X123428288Y-102391463D01*
X123312176Y-102170230D01*
X123312173Y-102170226D01*
X123312172Y-102170224D01*
X123162077Y-101970485D01*
X122981886Y-101797410D01*
X122981885Y-101797409D01*
X122776262Y-101655477D01*
X122653812Y-101597374D01*
X122550532Y-101548367D01*
X122550529Y-101548366D01*
X122550526Y-101548365D01*
X122310545Y-101478853D01*
X122062507Y-101448737D01*
X121812867Y-101458797D01*
X121812859Y-101458798D01*
X121568056Y-101508776D01*
X121334444Y-101597374D01*
X121118068Y-101722298D01*
X121118065Y-101722301D01*
X120924528Y-101880319D01*
X120758847Y-102067334D01*
X120625312Y-102278501D01*
X120625309Y-102278507D01*
X120527376Y-102508368D01*
X120467583Y-102750955D01*
X120467582Y-102750960D01*
X120447479Y-103000000D01*
X104550000Y-103000000D01*
X104547487Y-102875074D01*
X104547486Y-102875067D01*
X104547486Y-102875064D01*
X104507409Y-102628462D01*
X104507408Y-102628460D01*
X104507408Y-102628457D01*
X104428288Y-102391463D01*
X104312176Y-102170230D01*
X104312173Y-102170226D01*
X104312172Y-102170224D01*
X104162077Y-101970485D01*
X103981886Y-101797410D01*
X103981885Y-101797409D01*
X103776262Y-101655477D01*
X103653812Y-101597374D01*
X103550532Y-101548367D01*
X103550529Y-101548366D01*
X103550526Y-101548365D01*
X103310545Y-101478853D01*
X103062507Y-101448737D01*
X102812867Y-101458797D01*
X102812859Y-101458798D01*
X102568056Y-101508776D01*
X102334444Y-101597374D01*
X102118068Y-101722298D01*
X102118065Y-101722301D01*
X101924528Y-101880319D01*
X101758847Y-102067334D01*
X101625312Y-102278501D01*
X101625309Y-102278507D01*
X101527376Y-102508368D01*
X101467583Y-102750955D01*
X101467582Y-102750960D01*
X101447479Y-103000000D01*
X100000000Y-103000000D01*
X100000000Y-100124000D01*
X100019685Y-100056961D01*
X100072489Y-100011206D01*
X100124000Y-100000000D01*
X124876000Y-100000000D01*
X124943039Y-100019685D01*
G37*
%TD.AperFunction*%
%TD*%
M02*
