M48
; DRILL file {KiCad 8.0.1} date 2024-08-04T22:51:14+0200
; FORMAT={-:-/ absolute / inch / decimal}
; #@! TF.CreationDate,2024-08-04T22:51:14+02:00
; #@! TF.GenerationSoftware,Kicad,Pcbnew,8.0.1
; #@! TF.FileFunction,Plated,1,2,PTH
FMAT,2
INCH
; #@! TA.AperFunction,Plated,PTH,ViaDrill
T1C0.0100
; #@! TA.AperFunction,Plated,PTH,ViaDrill
T2C0.0118
; #@! TA.AperFunction,Plated,PTH,ComponentDrill
T3C0.0315
; #@! TA.AperFunction,Plated,PTH,ComponentDrill
T4C0.0394
; #@! TA.AperFunction,Plated,PTH,ComponentDrill
T5C0.0512
%
G90
G05
T1
X3.15Y-4.4
X3.31Y-4.3498
X3.31Y-4.4008
X4.53Y-3.945
X4.58Y-4.11
X4.655Y-4.07
T2
X2.67Y-3.94
X2.7Y-4.47
X2.88Y-4.47
X2.9105Y-3.94
X3.08Y-4.0413
X3.14Y-4.0413
X3.2Y-4.0413
X3.3Y-4.1
X3.61Y-4.37
X3.7106Y-3.954
X3.7106Y-3.986
X3.7106Y-4.018
X3.8878Y-4.0256
X4.0441Y-4.1339
X4.0453Y-4.018
X4.41Y-4.005
X4.41Y-4.12
X4.6478Y-3.7577
X4.9518Y-4.1419
X4.9518Y-4.2737
X5.0719Y-4.1419
X5.0719Y-4.2737
T3
X4.2731Y-4.0037
X4.2731Y-4.3037
T4
X2.8421Y-3.1478
X2.9421Y-3.1478
X3.0421Y-3.1478
X3.1421Y-3.1478
X3.9331Y-4.6457
X4.0331Y-4.6457
X4.0839Y-3.1478
X4.1331Y-4.6457
X4.1839Y-3.1478
X4.2331Y-4.6457
X4.3331Y-4.6457
X4.4331Y-4.6457
X4.5331Y-4.6457
X4.6331Y-4.6457
X4.6335Y-3.1496
X4.7331Y-4.6457
X4.7335Y-3.1496
X4.8331Y-4.6457
X4.8335Y-3.1496
X4.9331Y-4.6457
X4.9335Y-3.1496
X5.0331Y-4.6457
X5.1331Y-4.6457
X5.2256Y-3.1478
X5.2331Y-4.6457
X5.3256Y-3.1478
X5.3331Y-4.6457
X5.4331Y-4.6457
X5.8956Y-3.5222
X5.8956Y-3.6222
X5.8956Y-3.7222
X5.9Y-4.1
X5.9Y-4.2
X5.9Y-4.3
X5.9956Y-3.5222
X5.9956Y-3.6222
X5.9956Y-3.7222
T5
X2.5591Y-2.4409
X2.5591Y-2.6378
X3.0512Y-2.4409
X3.0512Y-2.6378
X3.8976Y-2.4409
X3.8976Y-2.6378
X4.3898Y-2.4409
X4.3898Y-2.6378
X5.2362Y-2.4409
X5.2362Y-2.6378
X5.7283Y-2.4409
X5.7283Y-2.6378
M30
