%TF.GenerationSoftware,KiCad,Pcbnew,8.0.1*%
%TF.CreationDate,2024-08-04T22:51:18+02:00*%
%TF.ProjectId,FT_MainBoard,46545f4d-6169-46e4-926f-6172642e6b69,rev?*%
%TF.SameCoordinates,Original*%
%TF.FileFunction,Drillmap*%
%TF.FilePolarity,Positive*%
%FSLAX45Y45*%
G04 Gerber Fmt 4.5, Leading zero omitted, Abs format (unit mm)*
G04 Created by KiCad (PCBNEW 8.0.1) date 2024-08-04 22:51:18*
%MOMM*%
%LPD*%
G01*
G04 APERTURE LIST*
%ADD10C,0.050000*%
%ADD11C,0.200000*%
%ADD12C,0.100000*%
%ADD13C,0.130000*%
G04 APERTURE END LIST*
D10*
X5650000Y-12500000D02*
G75*
G02*
X5000000Y-11850000I0J650000D01*
G01*
X6100000Y-11850000D02*
G75*
G02*
X5200000Y-11850000I-450000J0D01*
G01*
X5200000Y-11850000D02*
G75*
G02*
X6100000Y-11850000I450000J0D01*
G01*
X15350000Y-5000000D02*
G75*
G02*
X16000000Y-5650000I0J-650000D01*
G01*
X16000000Y-11850000D02*
G75*
G02*
X15350000Y-12500000I-650000J0D01*
G01*
X15800000Y-5650000D02*
G75*
G02*
X14900000Y-5650000I-450000J0D01*
G01*
X14900000Y-5650000D02*
G75*
G02*
X15800000Y-5650000I450000J0D01*
G01*
X5650000Y-5000000D02*
X15350000Y-5000000D01*
X6100000Y-5650000D02*
G75*
G02*
X5200000Y-5650000I-450000J0D01*
G01*
X5200000Y-5650000D02*
G75*
G02*
X6100000Y-5650000I450000J0D01*
G01*
X15350000Y-12500000D02*
X5650000Y-12500000D01*
X5000000Y-5650000D02*
G75*
G02*
X5650000Y-5000000I650000J0D01*
G01*
X15800000Y-11850000D02*
G75*
G02*
X14900000Y-11850000I-450000J0D01*
G01*
X14900000Y-11850000D02*
G75*
G02*
X15800000Y-11850000I450000J0D01*
G01*
X5000000Y-11850000D02*
X5000000Y-5650000D01*
X16000000Y-5650000D02*
X16000000Y-11850000D01*
D11*
D12*
X7988300Y-11163300D02*
X8013700Y-11188700D01*
X8013700Y-11163300D02*
X7988300Y-11188700D01*
X8394700Y-11035780D02*
X8420100Y-11061180D01*
X8420100Y-11035780D02*
X8394700Y-11061180D01*
X8394700Y-11165320D02*
X8420100Y-11190720D01*
X8420100Y-11165320D02*
X8394700Y-11190720D01*
X11493500Y-10007600D02*
X11518900Y-10033000D01*
X11518900Y-10007600D02*
X11493500Y-10033000D01*
X11620500Y-10426700D02*
X11645900Y-10452100D01*
X11645900Y-10426700D02*
X11620500Y-10452100D01*
X11811000Y-10325100D02*
X11836400Y-10350500D01*
X11836400Y-10325100D02*
X11811000Y-10350500D01*
X6796800Y-10007600D02*
G75*
G02*
X6766800Y-10007600I-15000J0D01*
G01*
X6766800Y-10007600D02*
G75*
G02*
X6796800Y-10007600I15000J0D01*
G01*
X6873000Y-11353800D02*
G75*
G02*
X6843000Y-11353800I-15000J0D01*
G01*
X6843000Y-11353800D02*
G75*
G02*
X6873000Y-11353800I15000J0D01*
G01*
X7330200Y-11353800D02*
G75*
G02*
X7300200Y-11353800I-15000J0D01*
G01*
X7300200Y-11353800D02*
G75*
G02*
X7330200Y-11353800I15000J0D01*
G01*
X7407700Y-10007600D02*
G75*
G02*
X7377700Y-10007600I-15000J0D01*
G01*
X7377700Y-10007600D02*
G75*
G02*
X7407700Y-10007600I15000J0D01*
G01*
X7838200Y-10264840D02*
G75*
G02*
X7808200Y-10264840I-15000J0D01*
G01*
X7808200Y-10264840D02*
G75*
G02*
X7838200Y-10264840I15000J0D01*
G01*
X7990600Y-10264840D02*
G75*
G02*
X7960600Y-10264840I-15000J0D01*
G01*
X7960600Y-10264840D02*
G75*
G02*
X7990600Y-10264840I15000J0D01*
G01*
X8143000Y-10264840D02*
G75*
G02*
X8113000Y-10264840I-15000J0D01*
G01*
X8113000Y-10264840D02*
G75*
G02*
X8143000Y-10264840I15000J0D01*
G01*
X8397000Y-10414000D02*
G75*
G02*
X8367000Y-10414000I-15000J0D01*
G01*
X8367000Y-10414000D02*
G75*
G02*
X8397000Y-10414000I15000J0D01*
G01*
X9184400Y-11099800D02*
G75*
G02*
X9154400Y-11099800I-15000J0D01*
G01*
X9154400Y-11099800D02*
G75*
G02*
X9184400Y-11099800I15000J0D01*
G01*
X9440000Y-10043280D02*
G75*
G02*
X9410000Y-10043280I-15000J0D01*
G01*
X9410000Y-10043280D02*
G75*
G02*
X9440000Y-10043280I15000J0D01*
G01*
X9440000Y-10124560D02*
G75*
G02*
X9410000Y-10124560I-15000J0D01*
G01*
X9410000Y-10124560D02*
G75*
G02*
X9440000Y-10124560I15000J0D01*
G01*
X9440000Y-10205840D02*
G75*
G02*
X9410000Y-10205840I-15000J0D01*
G01*
X9410000Y-10205840D02*
G75*
G02*
X9440000Y-10205840I15000J0D01*
G01*
X9890000Y-10225000D02*
G75*
G02*
X9860000Y-10225000I-15000J0D01*
G01*
X9860000Y-10225000D02*
G75*
G02*
X9890000Y-10225000I15000J0D01*
G01*
X10286940Y-10500000D02*
G75*
G02*
X10256940Y-10500000I-15000J0D01*
G01*
X10256940Y-10500000D02*
G75*
G02*
X10286940Y-10500000I15000J0D01*
G01*
X10290000Y-10205840D02*
G75*
G02*
X10260000Y-10205840I-15000J0D01*
G01*
X10260000Y-10205840D02*
G75*
G02*
X10290000Y-10205840I15000J0D01*
G01*
X11216400Y-10172700D02*
G75*
G02*
X11186400Y-10172700I-15000J0D01*
G01*
X11186400Y-10172700D02*
G75*
G02*
X11216400Y-10172700I15000J0D01*
G01*
X11216400Y-10464800D02*
G75*
G02*
X11186400Y-10464800I-15000J0D01*
G01*
X11186400Y-10464800D02*
G75*
G02*
X11216400Y-10464800I15000J0D01*
G01*
X11820500Y-9544500D02*
G75*
G02*
X11790500Y-9544500I-15000J0D01*
G01*
X11790500Y-9544500D02*
G75*
G02*
X11820500Y-9544500I15000J0D01*
G01*
X12592600Y-10520300D02*
G75*
G02*
X12562600Y-10520300I-15000J0D01*
G01*
X12562600Y-10520300D02*
G75*
G02*
X12592600Y-10520300I15000J0D01*
G01*
X12592600Y-10855300D02*
G75*
G02*
X12562600Y-10855300I-15000J0D01*
G01*
X12562600Y-10855300D02*
G75*
G02*
X12592600Y-10855300I15000J0D01*
G01*
X12897600Y-10520300D02*
G75*
G02*
X12867600Y-10520300I-15000J0D01*
G01*
X12867600Y-10520300D02*
G75*
G02*
X12897600Y-10520300I15000J0D01*
G01*
X12897600Y-10855300D02*
G75*
G02*
X12867600Y-10855300I-15000J0D01*
G01*
X12867600Y-10855300D02*
G75*
G02*
X12897600Y-10855300I15000J0D01*
G01*
X10853600Y-10129450D02*
X10853600Y-10209450D01*
X10813600Y-10169450D02*
X10893600Y-10169450D01*
X10853600Y-10891450D02*
X10853600Y-10971450D01*
X10813600Y-10931450D02*
X10893600Y-10931450D01*
X7254356Y-8030756D02*
X7254356Y-7960044D01*
X7183644Y-7960044D01*
X7183644Y-8030756D01*
X7254356Y-8030756D01*
X7508356Y-8030756D02*
X7508356Y-7960044D01*
X7437644Y-7960044D01*
X7437644Y-8030756D01*
X7508356Y-8030756D01*
X7762356Y-8030756D02*
X7762356Y-7960044D01*
X7691644Y-7960044D01*
X7691644Y-8030756D01*
X7762356Y-8030756D01*
X8016356Y-8030756D02*
X8016356Y-7960044D01*
X7945644Y-7960044D01*
X7945644Y-8030756D01*
X8016356Y-8030756D01*
X10025356Y-11835356D02*
X10025356Y-11764644D01*
X9954644Y-11764644D01*
X9954644Y-11835356D01*
X10025356Y-11835356D01*
X10279356Y-11835356D02*
X10279356Y-11764644D01*
X10208644Y-11764644D01*
X10208644Y-11835356D01*
X10279356Y-11835356D01*
X10408356Y-8030756D02*
X10408356Y-7960044D01*
X10337644Y-7960044D01*
X10337644Y-8030756D01*
X10408356Y-8030756D01*
X10533356Y-11835356D02*
X10533356Y-11764644D01*
X10462644Y-11764644D01*
X10462644Y-11835356D01*
X10533356Y-11835356D01*
X10662356Y-8030756D02*
X10662356Y-7960044D01*
X10591644Y-7960044D01*
X10591644Y-8030756D01*
X10662356Y-8030756D01*
X10787356Y-11835356D02*
X10787356Y-11764644D01*
X10716644Y-11764644D01*
X10716644Y-11835356D01*
X10787356Y-11835356D01*
X11041356Y-11835356D02*
X11041356Y-11764644D01*
X10970644Y-11764644D01*
X10970644Y-11835356D01*
X11041356Y-11835356D01*
X11295356Y-11835356D02*
X11295356Y-11764644D01*
X11224644Y-11764644D01*
X11224644Y-11835356D01*
X11295356Y-11835356D01*
X11549356Y-11835356D02*
X11549356Y-11764644D01*
X11478644Y-11764644D01*
X11478644Y-11835356D01*
X11549356Y-11835356D01*
X11803356Y-11835356D02*
X11803356Y-11764644D01*
X11732644Y-11764644D01*
X11732644Y-11835356D01*
X11803356Y-11835356D01*
X11804356Y-8035356D02*
X11804356Y-7964644D01*
X11733644Y-7964644D01*
X11733644Y-8035356D01*
X11804356Y-8035356D01*
X12057356Y-11835356D02*
X12057356Y-11764644D01*
X11986644Y-11764644D01*
X11986644Y-11835356D01*
X12057356Y-11835356D01*
X12058356Y-8035356D02*
X12058356Y-7964644D01*
X11987644Y-7964644D01*
X11987644Y-8035356D01*
X12058356Y-8035356D01*
X12311356Y-11835356D02*
X12311356Y-11764644D01*
X12240644Y-11764644D01*
X12240644Y-11835356D01*
X12311356Y-11835356D01*
X12312356Y-8035356D02*
X12312356Y-7964644D01*
X12241644Y-7964644D01*
X12241644Y-8035356D01*
X12312356Y-8035356D01*
X12565356Y-11835356D02*
X12565356Y-11764644D01*
X12494644Y-11764644D01*
X12494644Y-11835356D01*
X12565356Y-11835356D01*
X12566356Y-8035356D02*
X12566356Y-7964644D01*
X12495644Y-7964644D01*
X12495644Y-8035356D01*
X12566356Y-8035356D01*
X12819356Y-11835356D02*
X12819356Y-11764644D01*
X12748644Y-11764644D01*
X12748644Y-11835356D01*
X12819356Y-11835356D01*
X13073356Y-11835356D02*
X13073356Y-11764644D01*
X13002644Y-11764644D01*
X13002644Y-11835356D01*
X13073356Y-11835356D01*
X13308356Y-8030756D02*
X13308356Y-7960044D01*
X13237644Y-7960044D01*
X13237644Y-8030756D01*
X13308356Y-8030756D01*
X13327356Y-11835356D02*
X13327356Y-11764644D01*
X13256644Y-11764644D01*
X13256644Y-11835356D01*
X13327356Y-11835356D01*
X13562356Y-8030756D02*
X13562356Y-7960044D01*
X13491644Y-7960044D01*
X13491644Y-8030756D01*
X13562356Y-8030756D01*
X13581356Y-11835356D02*
X13581356Y-11764644D01*
X13510644Y-11764644D01*
X13510644Y-11835356D01*
X13581356Y-11835356D01*
X13835356Y-11835356D02*
X13835356Y-11764644D01*
X13764644Y-11764644D01*
X13764644Y-11835356D01*
X13835356Y-11835356D01*
X15010106Y-8981856D02*
X15010106Y-8911144D01*
X14939394Y-8911144D01*
X14939394Y-8981856D01*
X15010106Y-8981856D01*
X15010106Y-9235856D02*
X15010106Y-9165144D01*
X14939394Y-9165144D01*
X14939394Y-9235856D01*
X15010106Y-9235856D01*
X15010106Y-9489856D02*
X15010106Y-9419144D01*
X14939394Y-9419144D01*
X14939394Y-9489856D01*
X15010106Y-9489856D01*
X15021356Y-10449356D02*
X15021356Y-10378644D01*
X14950644Y-10378644D01*
X14950644Y-10449356D01*
X15021356Y-10449356D01*
X15021356Y-10703356D02*
X15021356Y-10632644D01*
X14950644Y-10632644D01*
X14950644Y-10703356D01*
X15021356Y-10703356D01*
X15021356Y-10957356D02*
X15021356Y-10886644D01*
X14950644Y-10886644D01*
X14950644Y-10957356D01*
X15021356Y-10957356D01*
X15264106Y-8981856D02*
X15264106Y-8911144D01*
X15193394Y-8911144D01*
X15193394Y-8981856D01*
X15264106Y-8981856D01*
X15264106Y-9235856D02*
X15264106Y-9165144D01*
X15193394Y-9165144D01*
X15193394Y-9235856D01*
X15264106Y-9235856D01*
X15264106Y-9489856D02*
X15264106Y-9419144D01*
X15193394Y-9419144D01*
X15193394Y-9489856D01*
X15264106Y-9489856D01*
D13*
X6500000Y-6265000D02*
X6565000Y-6200000D01*
X6500000Y-6135000D01*
X6435000Y-6200000D01*
X6500000Y-6265000D01*
X6500000Y-6765000D02*
X6565000Y-6700000D01*
X6500000Y-6635000D01*
X6435000Y-6700000D01*
X6500000Y-6765000D01*
X7750000Y-6265000D02*
X7815000Y-6200000D01*
X7750000Y-6135000D01*
X7685000Y-6200000D01*
X7750000Y-6265000D01*
X7750000Y-6765000D02*
X7815000Y-6700000D01*
X7750000Y-6635000D01*
X7685000Y-6700000D01*
X7750000Y-6765000D01*
X9900000Y-6265000D02*
X9965000Y-6200000D01*
X9900000Y-6135000D01*
X9835000Y-6200000D01*
X9900000Y-6265000D01*
X9900000Y-6765000D02*
X9965000Y-6700000D01*
X9900000Y-6635000D01*
X9835000Y-6700000D01*
X9900000Y-6765000D01*
X11150000Y-6265000D02*
X11215000Y-6200000D01*
X11150000Y-6135000D01*
X11085000Y-6200000D01*
X11150000Y-6265000D01*
X11150000Y-6765000D02*
X11215000Y-6700000D01*
X11150000Y-6635000D01*
X11085000Y-6700000D01*
X11150000Y-6765000D01*
X13300000Y-6265000D02*
X13365000Y-6200000D01*
X13300000Y-6135000D01*
X13235000Y-6200000D01*
X13300000Y-6265000D01*
X13300000Y-6765000D02*
X13365000Y-6700000D01*
X13300000Y-6635000D01*
X13235000Y-6700000D01*
X13300000Y-6765000D01*
X14550000Y-6265000D02*
X14615000Y-6200000D01*
X14550000Y-6135000D01*
X14485000Y-6200000D01*
X14550000Y-6265000D01*
X14550000Y-6765000D02*
X14615000Y-6700000D01*
X14550000Y-6635000D01*
X14485000Y-6700000D01*
X14550000Y-6765000D01*
D11*
X5258277Y-12813984D02*
X5258277Y-12613984D01*
X5258277Y-12613984D02*
X5305896Y-12613984D01*
X5305896Y-12613984D02*
X5334467Y-12623508D01*
X5334467Y-12623508D02*
X5353515Y-12642555D01*
X5353515Y-12642555D02*
X5363039Y-12661603D01*
X5363039Y-12661603D02*
X5372563Y-12699698D01*
X5372563Y-12699698D02*
X5372563Y-12728269D01*
X5372563Y-12728269D02*
X5363039Y-12766365D01*
X5363039Y-12766365D02*
X5353515Y-12785412D01*
X5353515Y-12785412D02*
X5334467Y-12804460D01*
X5334467Y-12804460D02*
X5305896Y-12813984D01*
X5305896Y-12813984D02*
X5258277Y-12813984D01*
X5458277Y-12813984D02*
X5458277Y-12680650D01*
X5458277Y-12718746D02*
X5467801Y-12699698D01*
X5467801Y-12699698D02*
X5477324Y-12690174D01*
X5477324Y-12690174D02*
X5496372Y-12680650D01*
X5496372Y-12680650D02*
X5515420Y-12680650D01*
X5582086Y-12813984D02*
X5582086Y-12680650D01*
X5582086Y-12613984D02*
X5572563Y-12623508D01*
X5572563Y-12623508D02*
X5582086Y-12633031D01*
X5582086Y-12633031D02*
X5591610Y-12623508D01*
X5591610Y-12623508D02*
X5582086Y-12613984D01*
X5582086Y-12613984D02*
X5582086Y-12633031D01*
X5705896Y-12813984D02*
X5686848Y-12804460D01*
X5686848Y-12804460D02*
X5677324Y-12785412D01*
X5677324Y-12785412D02*
X5677324Y-12613984D01*
X5810658Y-12813984D02*
X5791610Y-12804460D01*
X5791610Y-12804460D02*
X5782086Y-12785412D01*
X5782086Y-12785412D02*
X5782086Y-12613984D01*
X6039229Y-12813984D02*
X6039229Y-12613984D01*
X6039229Y-12613984D02*
X6105896Y-12756841D01*
X6105896Y-12756841D02*
X6172562Y-12613984D01*
X6172562Y-12613984D02*
X6172562Y-12813984D01*
X6353515Y-12813984D02*
X6353515Y-12709222D01*
X6353515Y-12709222D02*
X6343991Y-12690174D01*
X6343991Y-12690174D02*
X6324943Y-12680650D01*
X6324943Y-12680650D02*
X6286848Y-12680650D01*
X6286848Y-12680650D02*
X6267801Y-12690174D01*
X6353515Y-12804460D02*
X6334467Y-12813984D01*
X6334467Y-12813984D02*
X6286848Y-12813984D01*
X6286848Y-12813984D02*
X6267801Y-12804460D01*
X6267801Y-12804460D02*
X6258277Y-12785412D01*
X6258277Y-12785412D02*
X6258277Y-12766365D01*
X6258277Y-12766365D02*
X6267801Y-12747317D01*
X6267801Y-12747317D02*
X6286848Y-12737793D01*
X6286848Y-12737793D02*
X6334467Y-12737793D01*
X6334467Y-12737793D02*
X6353515Y-12728269D01*
X6448753Y-12680650D02*
X6448753Y-12880650D01*
X6448753Y-12690174D02*
X6467801Y-12680650D01*
X6467801Y-12680650D02*
X6505896Y-12680650D01*
X6505896Y-12680650D02*
X6524943Y-12690174D01*
X6524943Y-12690174D02*
X6534467Y-12699698D01*
X6534467Y-12699698D02*
X6543991Y-12718746D01*
X6543991Y-12718746D02*
X6543991Y-12775888D01*
X6543991Y-12775888D02*
X6534467Y-12794936D01*
X6534467Y-12794936D02*
X6524943Y-12804460D01*
X6524943Y-12804460D02*
X6505896Y-12813984D01*
X6505896Y-12813984D02*
X6467801Y-12813984D01*
X6467801Y-12813984D02*
X6448753Y-12804460D01*
X6629705Y-12794936D02*
X6639229Y-12804460D01*
X6639229Y-12804460D02*
X6629705Y-12813984D01*
X6629705Y-12813984D02*
X6620182Y-12804460D01*
X6620182Y-12804460D02*
X6629705Y-12794936D01*
X6629705Y-12794936D02*
X6629705Y-12813984D01*
X6629705Y-12690174D02*
X6639229Y-12699698D01*
X6639229Y-12699698D02*
X6629705Y-12709222D01*
X6629705Y-12709222D02*
X6620182Y-12699698D01*
X6620182Y-12699698D02*
X6629705Y-12690174D01*
X6629705Y-12690174D02*
X6629705Y-12709222D01*
D12*
X4972100Y-13129800D02*
X4997500Y-13155200D01*
X4997500Y-13129800D02*
X4972100Y-13155200D01*
D11*
X5296372Y-13033984D02*
X5315420Y-13033984D01*
X5315420Y-13033984D02*
X5334467Y-13043508D01*
X5334467Y-13043508D02*
X5343991Y-13053031D01*
X5343991Y-13053031D02*
X5353515Y-13072079D01*
X5353515Y-13072079D02*
X5363039Y-13110174D01*
X5363039Y-13110174D02*
X5363039Y-13157793D01*
X5363039Y-13157793D02*
X5353515Y-13195888D01*
X5353515Y-13195888D02*
X5343991Y-13214936D01*
X5343991Y-13214936D02*
X5334467Y-13224460D01*
X5334467Y-13224460D02*
X5315420Y-13233984D01*
X5315420Y-13233984D02*
X5296372Y-13233984D01*
X5296372Y-13233984D02*
X5277324Y-13224460D01*
X5277324Y-13224460D02*
X5267801Y-13214936D01*
X5267801Y-13214936D02*
X5258277Y-13195888D01*
X5258277Y-13195888D02*
X5248753Y-13157793D01*
X5248753Y-13157793D02*
X5248753Y-13110174D01*
X5248753Y-13110174D02*
X5258277Y-13072079D01*
X5258277Y-13072079D02*
X5267801Y-13053031D01*
X5267801Y-13053031D02*
X5277324Y-13043508D01*
X5277324Y-13043508D02*
X5296372Y-13033984D01*
X5448753Y-13214936D02*
X5458277Y-13224460D01*
X5458277Y-13224460D02*
X5448753Y-13233984D01*
X5448753Y-13233984D02*
X5439229Y-13224460D01*
X5439229Y-13224460D02*
X5448753Y-13214936D01*
X5448753Y-13214936D02*
X5448753Y-13233984D01*
X5534467Y-13053031D02*
X5543991Y-13043508D01*
X5543991Y-13043508D02*
X5563039Y-13033984D01*
X5563039Y-13033984D02*
X5610658Y-13033984D01*
X5610658Y-13033984D02*
X5629705Y-13043508D01*
X5629705Y-13043508D02*
X5639229Y-13053031D01*
X5639229Y-13053031D02*
X5648753Y-13072079D01*
X5648753Y-13072079D02*
X5648753Y-13091127D01*
X5648753Y-13091127D02*
X5639229Y-13119698D01*
X5639229Y-13119698D02*
X5524944Y-13233984D01*
X5524944Y-13233984D02*
X5648753Y-13233984D01*
X5829705Y-13033984D02*
X5734467Y-13033984D01*
X5734467Y-13033984D02*
X5724943Y-13129222D01*
X5724943Y-13129222D02*
X5734467Y-13119698D01*
X5734467Y-13119698D02*
X5753515Y-13110174D01*
X5753515Y-13110174D02*
X5801134Y-13110174D01*
X5801134Y-13110174D02*
X5820182Y-13119698D01*
X5820182Y-13119698D02*
X5829705Y-13129222D01*
X5829705Y-13129222D02*
X5839229Y-13148269D01*
X5839229Y-13148269D02*
X5839229Y-13195888D01*
X5839229Y-13195888D02*
X5829705Y-13214936D01*
X5829705Y-13214936D02*
X5820182Y-13224460D01*
X5820182Y-13224460D02*
X5801134Y-13233984D01*
X5801134Y-13233984D02*
X5753515Y-13233984D01*
X5753515Y-13233984D02*
X5734467Y-13224460D01*
X5734467Y-13224460D02*
X5724943Y-13214936D01*
X6010658Y-13100650D02*
X6010658Y-13233984D01*
X5963039Y-13024460D02*
X5915420Y-13167317D01*
X5915420Y-13167317D02*
X6039229Y-13167317D01*
X6115420Y-13233984D02*
X6115420Y-13100650D01*
X6115420Y-13119698D02*
X6124943Y-13110174D01*
X6124943Y-13110174D02*
X6143991Y-13100650D01*
X6143991Y-13100650D02*
X6172563Y-13100650D01*
X6172563Y-13100650D02*
X6191610Y-13110174D01*
X6191610Y-13110174D02*
X6201134Y-13129222D01*
X6201134Y-13129222D02*
X6201134Y-13233984D01*
X6201134Y-13129222D02*
X6210658Y-13110174D01*
X6210658Y-13110174D02*
X6229705Y-13100650D01*
X6229705Y-13100650D02*
X6258277Y-13100650D01*
X6258277Y-13100650D02*
X6277324Y-13110174D01*
X6277324Y-13110174D02*
X6286848Y-13129222D01*
X6286848Y-13129222D02*
X6286848Y-13233984D01*
X6382086Y-13233984D02*
X6382086Y-13100650D01*
X6382086Y-13119698D02*
X6391610Y-13110174D01*
X6391610Y-13110174D02*
X6410658Y-13100650D01*
X6410658Y-13100650D02*
X6439229Y-13100650D01*
X6439229Y-13100650D02*
X6458277Y-13110174D01*
X6458277Y-13110174D02*
X6467801Y-13129222D01*
X6467801Y-13129222D02*
X6467801Y-13233984D01*
X6467801Y-13129222D02*
X6477324Y-13110174D01*
X6477324Y-13110174D02*
X6496372Y-13100650D01*
X6496372Y-13100650D02*
X6524943Y-13100650D01*
X6524943Y-13100650D02*
X6543991Y-13110174D01*
X6543991Y-13110174D02*
X6553515Y-13129222D01*
X6553515Y-13129222D02*
X6553515Y-13233984D01*
X6943991Y-13024460D02*
X6772563Y-13281603D01*
X7201134Y-13033984D02*
X7220182Y-13033984D01*
X7220182Y-13033984D02*
X7239229Y-13043508D01*
X7239229Y-13043508D02*
X7248753Y-13053031D01*
X7248753Y-13053031D02*
X7258277Y-13072079D01*
X7258277Y-13072079D02*
X7267801Y-13110174D01*
X7267801Y-13110174D02*
X7267801Y-13157793D01*
X7267801Y-13157793D02*
X7258277Y-13195888D01*
X7258277Y-13195888D02*
X7248753Y-13214936D01*
X7248753Y-13214936D02*
X7239229Y-13224460D01*
X7239229Y-13224460D02*
X7220182Y-13233984D01*
X7220182Y-13233984D02*
X7201134Y-13233984D01*
X7201134Y-13233984D02*
X7182086Y-13224460D01*
X7182086Y-13224460D02*
X7172563Y-13214936D01*
X7172563Y-13214936D02*
X7163039Y-13195888D01*
X7163039Y-13195888D02*
X7153515Y-13157793D01*
X7153515Y-13157793D02*
X7153515Y-13110174D01*
X7153515Y-13110174D02*
X7163039Y-13072079D01*
X7163039Y-13072079D02*
X7172563Y-13053031D01*
X7172563Y-13053031D02*
X7182086Y-13043508D01*
X7182086Y-13043508D02*
X7201134Y-13033984D01*
X7353515Y-13214936D02*
X7363039Y-13224460D01*
X7363039Y-13224460D02*
X7353515Y-13233984D01*
X7353515Y-13233984D02*
X7343991Y-13224460D01*
X7343991Y-13224460D02*
X7353515Y-13214936D01*
X7353515Y-13214936D02*
X7353515Y-13233984D01*
X7486848Y-13033984D02*
X7505896Y-13033984D01*
X7505896Y-13033984D02*
X7524944Y-13043508D01*
X7524944Y-13043508D02*
X7534467Y-13053031D01*
X7534467Y-13053031D02*
X7543991Y-13072079D01*
X7543991Y-13072079D02*
X7553515Y-13110174D01*
X7553515Y-13110174D02*
X7553515Y-13157793D01*
X7553515Y-13157793D02*
X7543991Y-13195888D01*
X7543991Y-13195888D02*
X7534467Y-13214936D01*
X7534467Y-13214936D02*
X7524944Y-13224460D01*
X7524944Y-13224460D02*
X7505896Y-13233984D01*
X7505896Y-13233984D02*
X7486848Y-13233984D01*
X7486848Y-13233984D02*
X7467801Y-13224460D01*
X7467801Y-13224460D02*
X7458277Y-13214936D01*
X7458277Y-13214936D02*
X7448753Y-13195888D01*
X7448753Y-13195888D02*
X7439229Y-13157793D01*
X7439229Y-13157793D02*
X7439229Y-13110174D01*
X7439229Y-13110174D02*
X7448753Y-13072079D01*
X7448753Y-13072079D02*
X7458277Y-13053031D01*
X7458277Y-13053031D02*
X7467801Y-13043508D01*
X7467801Y-13043508D02*
X7486848Y-13033984D01*
X7743991Y-13233984D02*
X7629706Y-13233984D01*
X7686848Y-13233984D02*
X7686848Y-13033984D01*
X7686848Y-13033984D02*
X7667801Y-13062555D01*
X7667801Y-13062555D02*
X7648753Y-13081603D01*
X7648753Y-13081603D02*
X7629706Y-13091127D01*
X7867801Y-13033984D02*
X7886848Y-13033984D01*
X7886848Y-13033984D02*
X7905896Y-13043508D01*
X7905896Y-13043508D02*
X7915420Y-13053031D01*
X7915420Y-13053031D02*
X7924944Y-13072079D01*
X7924944Y-13072079D02*
X7934467Y-13110174D01*
X7934467Y-13110174D02*
X7934467Y-13157793D01*
X7934467Y-13157793D02*
X7924944Y-13195888D01*
X7924944Y-13195888D02*
X7915420Y-13214936D01*
X7915420Y-13214936D02*
X7905896Y-13224460D01*
X7905896Y-13224460D02*
X7886848Y-13233984D01*
X7886848Y-13233984D02*
X7867801Y-13233984D01*
X7867801Y-13233984D02*
X7848753Y-13224460D01*
X7848753Y-13224460D02*
X7839229Y-13214936D01*
X7839229Y-13214936D02*
X7829706Y-13195888D01*
X7829706Y-13195888D02*
X7820182Y-13157793D01*
X7820182Y-13157793D02*
X7820182Y-13110174D01*
X7820182Y-13110174D02*
X7829706Y-13072079D01*
X7829706Y-13072079D02*
X7839229Y-13053031D01*
X7839229Y-13053031D02*
X7848753Y-13043508D01*
X7848753Y-13043508D02*
X7867801Y-13033984D01*
X8058277Y-13033984D02*
X8077325Y-13033984D01*
X8077325Y-13033984D02*
X8096372Y-13043508D01*
X8096372Y-13043508D02*
X8105896Y-13053031D01*
X8105896Y-13053031D02*
X8115420Y-13072079D01*
X8115420Y-13072079D02*
X8124944Y-13110174D01*
X8124944Y-13110174D02*
X8124944Y-13157793D01*
X8124944Y-13157793D02*
X8115420Y-13195888D01*
X8115420Y-13195888D02*
X8105896Y-13214936D01*
X8105896Y-13214936D02*
X8096372Y-13224460D01*
X8096372Y-13224460D02*
X8077325Y-13233984D01*
X8077325Y-13233984D02*
X8058277Y-13233984D01*
X8058277Y-13233984D02*
X8039229Y-13224460D01*
X8039229Y-13224460D02*
X8029706Y-13214936D01*
X8029706Y-13214936D02*
X8020182Y-13195888D01*
X8020182Y-13195888D02*
X8010658Y-13157793D01*
X8010658Y-13157793D02*
X8010658Y-13110174D01*
X8010658Y-13110174D02*
X8020182Y-13072079D01*
X8020182Y-13072079D02*
X8029706Y-13053031D01*
X8029706Y-13053031D02*
X8039229Y-13043508D01*
X8039229Y-13043508D02*
X8058277Y-13033984D01*
X8201134Y-13033984D02*
X8201134Y-13072079D01*
X8277325Y-13033984D02*
X8277325Y-13072079D01*
X8572563Y-13310174D02*
X8563039Y-13300650D01*
X8563039Y-13300650D02*
X8543991Y-13272079D01*
X8543991Y-13272079D02*
X8534468Y-13253031D01*
X8534468Y-13253031D02*
X8524944Y-13224460D01*
X8524944Y-13224460D02*
X8515420Y-13176841D01*
X8515420Y-13176841D02*
X8515420Y-13138746D01*
X8515420Y-13138746D02*
X8524944Y-13091127D01*
X8524944Y-13091127D02*
X8534468Y-13062555D01*
X8534468Y-13062555D02*
X8543991Y-13043508D01*
X8543991Y-13043508D02*
X8563039Y-13014936D01*
X8563039Y-13014936D02*
X8572563Y-13005412D01*
X8734468Y-13033984D02*
X8696372Y-13033984D01*
X8696372Y-13033984D02*
X8677325Y-13043508D01*
X8677325Y-13043508D02*
X8667801Y-13053031D01*
X8667801Y-13053031D02*
X8648753Y-13081603D01*
X8648753Y-13081603D02*
X8639230Y-13119698D01*
X8639230Y-13119698D02*
X8639230Y-13195888D01*
X8639230Y-13195888D02*
X8648753Y-13214936D01*
X8648753Y-13214936D02*
X8658277Y-13224460D01*
X8658277Y-13224460D02*
X8677325Y-13233984D01*
X8677325Y-13233984D02*
X8715420Y-13233984D01*
X8715420Y-13233984D02*
X8734468Y-13224460D01*
X8734468Y-13224460D02*
X8743991Y-13214936D01*
X8743991Y-13214936D02*
X8753515Y-13195888D01*
X8753515Y-13195888D02*
X8753515Y-13148269D01*
X8753515Y-13148269D02*
X8743991Y-13129222D01*
X8743991Y-13129222D02*
X8734468Y-13119698D01*
X8734468Y-13119698D02*
X8715420Y-13110174D01*
X8715420Y-13110174D02*
X8677325Y-13110174D01*
X8677325Y-13110174D02*
X8658277Y-13119698D01*
X8658277Y-13119698D02*
X8648753Y-13129222D01*
X8648753Y-13129222D02*
X8639230Y-13148269D01*
X8991611Y-13233984D02*
X8991611Y-13033984D01*
X9077325Y-13233984D02*
X9077325Y-13129222D01*
X9077325Y-13129222D02*
X9067801Y-13110174D01*
X9067801Y-13110174D02*
X9048753Y-13100650D01*
X9048753Y-13100650D02*
X9020182Y-13100650D01*
X9020182Y-13100650D02*
X9001134Y-13110174D01*
X9001134Y-13110174D02*
X8991611Y-13119698D01*
X9201134Y-13233984D02*
X9182087Y-13224460D01*
X9182087Y-13224460D02*
X9172563Y-13214936D01*
X9172563Y-13214936D02*
X9163039Y-13195888D01*
X9163039Y-13195888D02*
X9163039Y-13138746D01*
X9163039Y-13138746D02*
X9172563Y-13119698D01*
X9172563Y-13119698D02*
X9182087Y-13110174D01*
X9182087Y-13110174D02*
X9201134Y-13100650D01*
X9201134Y-13100650D02*
X9229706Y-13100650D01*
X9229706Y-13100650D02*
X9248753Y-13110174D01*
X9248753Y-13110174D02*
X9258277Y-13119698D01*
X9258277Y-13119698D02*
X9267801Y-13138746D01*
X9267801Y-13138746D02*
X9267801Y-13195888D01*
X9267801Y-13195888D02*
X9258277Y-13214936D01*
X9258277Y-13214936D02*
X9248753Y-13224460D01*
X9248753Y-13224460D02*
X9229706Y-13233984D01*
X9229706Y-13233984D02*
X9201134Y-13233984D01*
X9382087Y-13233984D02*
X9363039Y-13224460D01*
X9363039Y-13224460D02*
X9353515Y-13205412D01*
X9353515Y-13205412D02*
X9353515Y-13033984D01*
X9534468Y-13224460D02*
X9515420Y-13233984D01*
X9515420Y-13233984D02*
X9477325Y-13233984D01*
X9477325Y-13233984D02*
X9458277Y-13224460D01*
X9458277Y-13224460D02*
X9448753Y-13205412D01*
X9448753Y-13205412D02*
X9448753Y-13129222D01*
X9448753Y-13129222D02*
X9458277Y-13110174D01*
X9458277Y-13110174D02*
X9477325Y-13100650D01*
X9477325Y-13100650D02*
X9515420Y-13100650D01*
X9515420Y-13100650D02*
X9534468Y-13110174D01*
X9534468Y-13110174D02*
X9543992Y-13129222D01*
X9543992Y-13129222D02*
X9543992Y-13148269D01*
X9543992Y-13148269D02*
X9448753Y-13167317D01*
X9620182Y-13224460D02*
X9639230Y-13233984D01*
X9639230Y-13233984D02*
X9677325Y-13233984D01*
X9677325Y-13233984D02*
X9696373Y-13224460D01*
X9696373Y-13224460D02*
X9705896Y-13205412D01*
X9705896Y-13205412D02*
X9705896Y-13195888D01*
X9705896Y-13195888D02*
X9696373Y-13176841D01*
X9696373Y-13176841D02*
X9677325Y-13167317D01*
X9677325Y-13167317D02*
X9648753Y-13167317D01*
X9648753Y-13167317D02*
X9629706Y-13157793D01*
X9629706Y-13157793D02*
X9620182Y-13138746D01*
X9620182Y-13138746D02*
X9620182Y-13129222D01*
X9620182Y-13129222D02*
X9629706Y-13110174D01*
X9629706Y-13110174D02*
X9648753Y-13100650D01*
X9648753Y-13100650D02*
X9677325Y-13100650D01*
X9677325Y-13100650D02*
X9696373Y-13110174D01*
X9772563Y-13310174D02*
X9782087Y-13300650D01*
X9782087Y-13300650D02*
X9801134Y-13272079D01*
X9801134Y-13272079D02*
X9810658Y-13253031D01*
X9810658Y-13253031D02*
X9820182Y-13224460D01*
X9820182Y-13224460D02*
X9829706Y-13176841D01*
X9829706Y-13176841D02*
X9829706Y-13138746D01*
X9829706Y-13138746D02*
X9820182Y-13091127D01*
X9820182Y-13091127D02*
X9810658Y-13062555D01*
X9810658Y-13062555D02*
X9801134Y-13043508D01*
X9801134Y-13043508D02*
X9782087Y-13014936D01*
X9782087Y-13014936D02*
X9772563Y-13005412D01*
D12*
X4997500Y-13406500D02*
G75*
G02*
X4967500Y-13406500I-15000J0D01*
G01*
X4967500Y-13406500D02*
G75*
G02*
X4997500Y-13406500I15000J0D01*
G01*
D11*
X5296372Y-13297984D02*
X5315420Y-13297984D01*
X5315420Y-13297984D02*
X5334467Y-13307508D01*
X5334467Y-13307508D02*
X5343991Y-13317031D01*
X5343991Y-13317031D02*
X5353515Y-13336079D01*
X5353515Y-13336079D02*
X5363039Y-13374174D01*
X5363039Y-13374174D02*
X5363039Y-13421793D01*
X5363039Y-13421793D02*
X5353515Y-13459888D01*
X5353515Y-13459888D02*
X5343991Y-13478936D01*
X5343991Y-13478936D02*
X5334467Y-13488460D01*
X5334467Y-13488460D02*
X5315420Y-13497984D01*
X5315420Y-13497984D02*
X5296372Y-13497984D01*
X5296372Y-13497984D02*
X5277324Y-13488460D01*
X5277324Y-13488460D02*
X5267801Y-13478936D01*
X5267801Y-13478936D02*
X5258277Y-13459888D01*
X5258277Y-13459888D02*
X5248753Y-13421793D01*
X5248753Y-13421793D02*
X5248753Y-13374174D01*
X5248753Y-13374174D02*
X5258277Y-13336079D01*
X5258277Y-13336079D02*
X5267801Y-13317031D01*
X5267801Y-13317031D02*
X5277324Y-13307508D01*
X5277324Y-13307508D02*
X5296372Y-13297984D01*
X5448753Y-13478936D02*
X5458277Y-13488460D01*
X5458277Y-13488460D02*
X5448753Y-13497984D01*
X5448753Y-13497984D02*
X5439229Y-13488460D01*
X5439229Y-13488460D02*
X5448753Y-13478936D01*
X5448753Y-13478936D02*
X5448753Y-13497984D01*
X5524944Y-13297984D02*
X5648753Y-13297984D01*
X5648753Y-13297984D02*
X5582086Y-13374174D01*
X5582086Y-13374174D02*
X5610658Y-13374174D01*
X5610658Y-13374174D02*
X5629705Y-13383698D01*
X5629705Y-13383698D02*
X5639229Y-13393222D01*
X5639229Y-13393222D02*
X5648753Y-13412269D01*
X5648753Y-13412269D02*
X5648753Y-13459888D01*
X5648753Y-13459888D02*
X5639229Y-13478936D01*
X5639229Y-13478936D02*
X5629705Y-13488460D01*
X5629705Y-13488460D02*
X5610658Y-13497984D01*
X5610658Y-13497984D02*
X5553515Y-13497984D01*
X5553515Y-13497984D02*
X5534467Y-13488460D01*
X5534467Y-13488460D02*
X5524944Y-13478936D01*
X5772562Y-13297984D02*
X5791610Y-13297984D01*
X5791610Y-13297984D02*
X5810658Y-13307508D01*
X5810658Y-13307508D02*
X5820182Y-13317031D01*
X5820182Y-13317031D02*
X5829705Y-13336079D01*
X5829705Y-13336079D02*
X5839229Y-13374174D01*
X5839229Y-13374174D02*
X5839229Y-13421793D01*
X5839229Y-13421793D02*
X5829705Y-13459888D01*
X5829705Y-13459888D02*
X5820182Y-13478936D01*
X5820182Y-13478936D02*
X5810658Y-13488460D01*
X5810658Y-13488460D02*
X5791610Y-13497984D01*
X5791610Y-13497984D02*
X5772562Y-13497984D01*
X5772562Y-13497984D02*
X5753515Y-13488460D01*
X5753515Y-13488460D02*
X5743991Y-13478936D01*
X5743991Y-13478936D02*
X5734467Y-13459888D01*
X5734467Y-13459888D02*
X5724943Y-13421793D01*
X5724943Y-13421793D02*
X5724943Y-13374174D01*
X5724943Y-13374174D02*
X5734467Y-13336079D01*
X5734467Y-13336079D02*
X5743991Y-13317031D01*
X5743991Y-13317031D02*
X5753515Y-13307508D01*
X5753515Y-13307508D02*
X5772562Y-13297984D01*
X5963039Y-13297984D02*
X5982086Y-13297984D01*
X5982086Y-13297984D02*
X6001134Y-13307508D01*
X6001134Y-13307508D02*
X6010658Y-13317031D01*
X6010658Y-13317031D02*
X6020182Y-13336079D01*
X6020182Y-13336079D02*
X6029705Y-13374174D01*
X6029705Y-13374174D02*
X6029705Y-13421793D01*
X6029705Y-13421793D02*
X6020182Y-13459888D01*
X6020182Y-13459888D02*
X6010658Y-13478936D01*
X6010658Y-13478936D02*
X6001134Y-13488460D01*
X6001134Y-13488460D02*
X5982086Y-13497984D01*
X5982086Y-13497984D02*
X5963039Y-13497984D01*
X5963039Y-13497984D02*
X5943991Y-13488460D01*
X5943991Y-13488460D02*
X5934467Y-13478936D01*
X5934467Y-13478936D02*
X5924943Y-13459888D01*
X5924943Y-13459888D02*
X5915420Y-13421793D01*
X5915420Y-13421793D02*
X5915420Y-13374174D01*
X5915420Y-13374174D02*
X5924943Y-13336079D01*
X5924943Y-13336079D02*
X5934467Y-13317031D01*
X5934467Y-13317031D02*
X5943991Y-13307508D01*
X5943991Y-13307508D02*
X5963039Y-13297984D01*
X6115420Y-13497984D02*
X6115420Y-13364650D01*
X6115420Y-13383698D02*
X6124943Y-13374174D01*
X6124943Y-13374174D02*
X6143991Y-13364650D01*
X6143991Y-13364650D02*
X6172563Y-13364650D01*
X6172563Y-13364650D02*
X6191610Y-13374174D01*
X6191610Y-13374174D02*
X6201134Y-13393222D01*
X6201134Y-13393222D02*
X6201134Y-13497984D01*
X6201134Y-13393222D02*
X6210658Y-13374174D01*
X6210658Y-13374174D02*
X6229705Y-13364650D01*
X6229705Y-13364650D02*
X6258277Y-13364650D01*
X6258277Y-13364650D02*
X6277324Y-13374174D01*
X6277324Y-13374174D02*
X6286848Y-13393222D01*
X6286848Y-13393222D02*
X6286848Y-13497984D01*
X6382086Y-13497984D02*
X6382086Y-13364650D01*
X6382086Y-13383698D02*
X6391610Y-13374174D01*
X6391610Y-13374174D02*
X6410658Y-13364650D01*
X6410658Y-13364650D02*
X6439229Y-13364650D01*
X6439229Y-13364650D02*
X6458277Y-13374174D01*
X6458277Y-13374174D02*
X6467801Y-13393222D01*
X6467801Y-13393222D02*
X6467801Y-13497984D01*
X6467801Y-13393222D02*
X6477324Y-13374174D01*
X6477324Y-13374174D02*
X6496372Y-13364650D01*
X6496372Y-13364650D02*
X6524943Y-13364650D01*
X6524943Y-13364650D02*
X6543991Y-13374174D01*
X6543991Y-13374174D02*
X6553515Y-13393222D01*
X6553515Y-13393222D02*
X6553515Y-13497984D01*
X6943991Y-13288460D02*
X6772563Y-13545603D01*
X7201134Y-13297984D02*
X7220182Y-13297984D01*
X7220182Y-13297984D02*
X7239229Y-13307508D01*
X7239229Y-13307508D02*
X7248753Y-13317031D01*
X7248753Y-13317031D02*
X7258277Y-13336079D01*
X7258277Y-13336079D02*
X7267801Y-13374174D01*
X7267801Y-13374174D02*
X7267801Y-13421793D01*
X7267801Y-13421793D02*
X7258277Y-13459888D01*
X7258277Y-13459888D02*
X7248753Y-13478936D01*
X7248753Y-13478936D02*
X7239229Y-13488460D01*
X7239229Y-13488460D02*
X7220182Y-13497984D01*
X7220182Y-13497984D02*
X7201134Y-13497984D01*
X7201134Y-13497984D02*
X7182086Y-13488460D01*
X7182086Y-13488460D02*
X7172563Y-13478936D01*
X7172563Y-13478936D02*
X7163039Y-13459888D01*
X7163039Y-13459888D02*
X7153515Y-13421793D01*
X7153515Y-13421793D02*
X7153515Y-13374174D01*
X7153515Y-13374174D02*
X7163039Y-13336079D01*
X7163039Y-13336079D02*
X7172563Y-13317031D01*
X7172563Y-13317031D02*
X7182086Y-13307508D01*
X7182086Y-13307508D02*
X7201134Y-13297984D01*
X7353515Y-13478936D02*
X7363039Y-13488460D01*
X7363039Y-13488460D02*
X7353515Y-13497984D01*
X7353515Y-13497984D02*
X7343991Y-13488460D01*
X7343991Y-13488460D02*
X7353515Y-13478936D01*
X7353515Y-13478936D02*
X7353515Y-13497984D01*
X7486848Y-13297984D02*
X7505896Y-13297984D01*
X7505896Y-13297984D02*
X7524944Y-13307508D01*
X7524944Y-13307508D02*
X7534467Y-13317031D01*
X7534467Y-13317031D02*
X7543991Y-13336079D01*
X7543991Y-13336079D02*
X7553515Y-13374174D01*
X7553515Y-13374174D02*
X7553515Y-13421793D01*
X7553515Y-13421793D02*
X7543991Y-13459888D01*
X7543991Y-13459888D02*
X7534467Y-13478936D01*
X7534467Y-13478936D02*
X7524944Y-13488460D01*
X7524944Y-13488460D02*
X7505896Y-13497984D01*
X7505896Y-13497984D02*
X7486848Y-13497984D01*
X7486848Y-13497984D02*
X7467801Y-13488460D01*
X7467801Y-13488460D02*
X7458277Y-13478936D01*
X7458277Y-13478936D02*
X7448753Y-13459888D01*
X7448753Y-13459888D02*
X7439229Y-13421793D01*
X7439229Y-13421793D02*
X7439229Y-13374174D01*
X7439229Y-13374174D02*
X7448753Y-13336079D01*
X7448753Y-13336079D02*
X7458277Y-13317031D01*
X7458277Y-13317031D02*
X7467801Y-13307508D01*
X7467801Y-13307508D02*
X7486848Y-13297984D01*
X7743991Y-13497984D02*
X7629706Y-13497984D01*
X7686848Y-13497984D02*
X7686848Y-13297984D01*
X7686848Y-13297984D02*
X7667801Y-13326555D01*
X7667801Y-13326555D02*
X7648753Y-13345603D01*
X7648753Y-13345603D02*
X7629706Y-13355127D01*
X7934467Y-13497984D02*
X7820182Y-13497984D01*
X7877325Y-13497984D02*
X7877325Y-13297984D01*
X7877325Y-13297984D02*
X7858277Y-13326555D01*
X7858277Y-13326555D02*
X7839229Y-13345603D01*
X7839229Y-13345603D02*
X7820182Y-13355127D01*
X8048753Y-13383698D02*
X8029706Y-13374174D01*
X8029706Y-13374174D02*
X8020182Y-13364650D01*
X8020182Y-13364650D02*
X8010658Y-13345603D01*
X8010658Y-13345603D02*
X8010658Y-13336079D01*
X8010658Y-13336079D02*
X8020182Y-13317031D01*
X8020182Y-13317031D02*
X8029706Y-13307508D01*
X8029706Y-13307508D02*
X8048753Y-13297984D01*
X8048753Y-13297984D02*
X8086848Y-13297984D01*
X8086848Y-13297984D02*
X8105896Y-13307508D01*
X8105896Y-13307508D02*
X8115420Y-13317031D01*
X8115420Y-13317031D02*
X8124944Y-13336079D01*
X8124944Y-13336079D02*
X8124944Y-13345603D01*
X8124944Y-13345603D02*
X8115420Y-13364650D01*
X8115420Y-13364650D02*
X8105896Y-13374174D01*
X8105896Y-13374174D02*
X8086848Y-13383698D01*
X8086848Y-13383698D02*
X8048753Y-13383698D01*
X8048753Y-13383698D02*
X8029706Y-13393222D01*
X8029706Y-13393222D02*
X8020182Y-13402746D01*
X8020182Y-13402746D02*
X8010658Y-13421793D01*
X8010658Y-13421793D02*
X8010658Y-13459888D01*
X8010658Y-13459888D02*
X8020182Y-13478936D01*
X8020182Y-13478936D02*
X8029706Y-13488460D01*
X8029706Y-13488460D02*
X8048753Y-13497984D01*
X8048753Y-13497984D02*
X8086848Y-13497984D01*
X8086848Y-13497984D02*
X8105896Y-13488460D01*
X8105896Y-13488460D02*
X8115420Y-13478936D01*
X8115420Y-13478936D02*
X8124944Y-13459888D01*
X8124944Y-13459888D02*
X8124944Y-13421793D01*
X8124944Y-13421793D02*
X8115420Y-13402746D01*
X8115420Y-13402746D02*
X8105896Y-13393222D01*
X8105896Y-13393222D02*
X8086848Y-13383698D01*
X8201134Y-13297984D02*
X8201134Y-13336079D01*
X8277325Y-13297984D02*
X8277325Y-13336079D01*
X8572563Y-13574174D02*
X8563039Y-13564650D01*
X8563039Y-13564650D02*
X8543991Y-13536079D01*
X8543991Y-13536079D02*
X8534468Y-13517031D01*
X8534468Y-13517031D02*
X8524944Y-13488460D01*
X8524944Y-13488460D02*
X8515420Y-13440841D01*
X8515420Y-13440841D02*
X8515420Y-13402746D01*
X8515420Y-13402746D02*
X8524944Y-13355127D01*
X8524944Y-13355127D02*
X8534468Y-13326555D01*
X8534468Y-13326555D02*
X8543991Y-13307508D01*
X8543991Y-13307508D02*
X8563039Y-13278936D01*
X8563039Y-13278936D02*
X8572563Y-13269412D01*
X8639230Y-13317031D02*
X8648753Y-13307508D01*
X8648753Y-13307508D02*
X8667801Y-13297984D01*
X8667801Y-13297984D02*
X8715420Y-13297984D01*
X8715420Y-13297984D02*
X8734468Y-13307508D01*
X8734468Y-13307508D02*
X8743991Y-13317031D01*
X8743991Y-13317031D02*
X8753515Y-13336079D01*
X8753515Y-13336079D02*
X8753515Y-13355127D01*
X8753515Y-13355127D02*
X8743991Y-13383698D01*
X8743991Y-13383698D02*
X8629706Y-13497984D01*
X8629706Y-13497984D02*
X8753515Y-13497984D01*
X8829706Y-13317031D02*
X8839230Y-13307508D01*
X8839230Y-13307508D02*
X8858277Y-13297984D01*
X8858277Y-13297984D02*
X8905896Y-13297984D01*
X8905896Y-13297984D02*
X8924944Y-13307508D01*
X8924944Y-13307508D02*
X8934468Y-13317031D01*
X8934468Y-13317031D02*
X8943991Y-13336079D01*
X8943991Y-13336079D02*
X8943991Y-13355127D01*
X8943991Y-13355127D02*
X8934468Y-13383698D01*
X8934468Y-13383698D02*
X8820182Y-13497984D01*
X8820182Y-13497984D02*
X8943991Y-13497984D01*
X9182087Y-13497984D02*
X9182087Y-13297984D01*
X9267801Y-13497984D02*
X9267801Y-13393222D01*
X9267801Y-13393222D02*
X9258277Y-13374174D01*
X9258277Y-13374174D02*
X9239230Y-13364650D01*
X9239230Y-13364650D02*
X9210658Y-13364650D01*
X9210658Y-13364650D02*
X9191611Y-13374174D01*
X9191611Y-13374174D02*
X9182087Y-13383698D01*
X9391611Y-13497984D02*
X9372563Y-13488460D01*
X9372563Y-13488460D02*
X9363039Y-13478936D01*
X9363039Y-13478936D02*
X9353515Y-13459888D01*
X9353515Y-13459888D02*
X9353515Y-13402746D01*
X9353515Y-13402746D02*
X9363039Y-13383698D01*
X9363039Y-13383698D02*
X9372563Y-13374174D01*
X9372563Y-13374174D02*
X9391611Y-13364650D01*
X9391611Y-13364650D02*
X9420182Y-13364650D01*
X9420182Y-13364650D02*
X9439230Y-13374174D01*
X9439230Y-13374174D02*
X9448753Y-13383698D01*
X9448753Y-13383698D02*
X9458277Y-13402746D01*
X9458277Y-13402746D02*
X9458277Y-13459888D01*
X9458277Y-13459888D02*
X9448753Y-13478936D01*
X9448753Y-13478936D02*
X9439230Y-13488460D01*
X9439230Y-13488460D02*
X9420182Y-13497984D01*
X9420182Y-13497984D02*
X9391611Y-13497984D01*
X9572563Y-13497984D02*
X9553515Y-13488460D01*
X9553515Y-13488460D02*
X9543992Y-13469412D01*
X9543992Y-13469412D02*
X9543992Y-13297984D01*
X9724944Y-13488460D02*
X9705896Y-13497984D01*
X9705896Y-13497984D02*
X9667801Y-13497984D01*
X9667801Y-13497984D02*
X9648753Y-13488460D01*
X9648753Y-13488460D02*
X9639230Y-13469412D01*
X9639230Y-13469412D02*
X9639230Y-13393222D01*
X9639230Y-13393222D02*
X9648753Y-13374174D01*
X9648753Y-13374174D02*
X9667801Y-13364650D01*
X9667801Y-13364650D02*
X9705896Y-13364650D01*
X9705896Y-13364650D02*
X9724944Y-13374174D01*
X9724944Y-13374174D02*
X9734468Y-13393222D01*
X9734468Y-13393222D02*
X9734468Y-13412269D01*
X9734468Y-13412269D02*
X9639230Y-13431317D01*
X9810658Y-13488460D02*
X9829706Y-13497984D01*
X9829706Y-13497984D02*
X9867801Y-13497984D01*
X9867801Y-13497984D02*
X9886849Y-13488460D01*
X9886849Y-13488460D02*
X9896373Y-13469412D01*
X9896373Y-13469412D02*
X9896373Y-13459888D01*
X9896373Y-13459888D02*
X9886849Y-13440841D01*
X9886849Y-13440841D02*
X9867801Y-13431317D01*
X9867801Y-13431317D02*
X9839230Y-13431317D01*
X9839230Y-13431317D02*
X9820182Y-13421793D01*
X9820182Y-13421793D02*
X9810658Y-13402746D01*
X9810658Y-13402746D02*
X9810658Y-13393222D01*
X9810658Y-13393222D02*
X9820182Y-13374174D01*
X9820182Y-13374174D02*
X9839230Y-13364650D01*
X9839230Y-13364650D02*
X9867801Y-13364650D01*
X9867801Y-13364650D02*
X9886849Y-13374174D01*
X9963039Y-13574174D02*
X9972563Y-13564650D01*
X9972563Y-13564650D02*
X9991611Y-13536079D01*
X9991611Y-13536079D02*
X10001134Y-13517031D01*
X10001134Y-13517031D02*
X10010658Y-13488460D01*
X10010658Y-13488460D02*
X10020182Y-13440841D01*
X10020182Y-13440841D02*
X10020182Y-13402746D01*
X10020182Y-13402746D02*
X10010658Y-13355127D01*
X10010658Y-13355127D02*
X10001134Y-13326555D01*
X10001134Y-13326555D02*
X9991611Y-13307508D01*
X9991611Y-13307508D02*
X9972563Y-13278936D01*
X9972563Y-13278936D02*
X9963039Y-13269412D01*
D12*
X4957500Y-13630500D02*
X4957500Y-13710500D01*
X4917500Y-13670500D02*
X4997500Y-13670500D01*
D11*
X5296372Y-13561984D02*
X5315420Y-13561984D01*
X5315420Y-13561984D02*
X5334467Y-13571508D01*
X5334467Y-13571508D02*
X5343991Y-13581031D01*
X5343991Y-13581031D02*
X5353515Y-13600079D01*
X5353515Y-13600079D02*
X5363039Y-13638174D01*
X5363039Y-13638174D02*
X5363039Y-13685793D01*
X5363039Y-13685793D02*
X5353515Y-13723888D01*
X5353515Y-13723888D02*
X5343991Y-13742936D01*
X5343991Y-13742936D02*
X5334467Y-13752460D01*
X5334467Y-13752460D02*
X5315420Y-13761984D01*
X5315420Y-13761984D02*
X5296372Y-13761984D01*
X5296372Y-13761984D02*
X5277324Y-13752460D01*
X5277324Y-13752460D02*
X5267801Y-13742936D01*
X5267801Y-13742936D02*
X5258277Y-13723888D01*
X5258277Y-13723888D02*
X5248753Y-13685793D01*
X5248753Y-13685793D02*
X5248753Y-13638174D01*
X5248753Y-13638174D02*
X5258277Y-13600079D01*
X5258277Y-13600079D02*
X5267801Y-13581031D01*
X5267801Y-13581031D02*
X5277324Y-13571508D01*
X5277324Y-13571508D02*
X5296372Y-13561984D01*
X5448753Y-13742936D02*
X5458277Y-13752460D01*
X5458277Y-13752460D02*
X5448753Y-13761984D01*
X5448753Y-13761984D02*
X5439229Y-13752460D01*
X5439229Y-13752460D02*
X5448753Y-13742936D01*
X5448753Y-13742936D02*
X5448753Y-13761984D01*
X5572563Y-13647698D02*
X5553515Y-13638174D01*
X5553515Y-13638174D02*
X5543991Y-13628650D01*
X5543991Y-13628650D02*
X5534467Y-13609603D01*
X5534467Y-13609603D02*
X5534467Y-13600079D01*
X5534467Y-13600079D02*
X5543991Y-13581031D01*
X5543991Y-13581031D02*
X5553515Y-13571508D01*
X5553515Y-13571508D02*
X5572563Y-13561984D01*
X5572563Y-13561984D02*
X5610658Y-13561984D01*
X5610658Y-13561984D02*
X5629705Y-13571508D01*
X5629705Y-13571508D02*
X5639229Y-13581031D01*
X5639229Y-13581031D02*
X5648753Y-13600079D01*
X5648753Y-13600079D02*
X5648753Y-13609603D01*
X5648753Y-13609603D02*
X5639229Y-13628650D01*
X5639229Y-13628650D02*
X5629705Y-13638174D01*
X5629705Y-13638174D02*
X5610658Y-13647698D01*
X5610658Y-13647698D02*
X5572563Y-13647698D01*
X5572563Y-13647698D02*
X5553515Y-13657222D01*
X5553515Y-13657222D02*
X5543991Y-13666746D01*
X5543991Y-13666746D02*
X5534467Y-13685793D01*
X5534467Y-13685793D02*
X5534467Y-13723888D01*
X5534467Y-13723888D02*
X5543991Y-13742936D01*
X5543991Y-13742936D02*
X5553515Y-13752460D01*
X5553515Y-13752460D02*
X5572563Y-13761984D01*
X5572563Y-13761984D02*
X5610658Y-13761984D01*
X5610658Y-13761984D02*
X5629705Y-13752460D01*
X5629705Y-13752460D02*
X5639229Y-13742936D01*
X5639229Y-13742936D02*
X5648753Y-13723888D01*
X5648753Y-13723888D02*
X5648753Y-13685793D01*
X5648753Y-13685793D02*
X5639229Y-13666746D01*
X5639229Y-13666746D02*
X5629705Y-13657222D01*
X5629705Y-13657222D02*
X5610658Y-13647698D01*
X5772562Y-13561984D02*
X5791610Y-13561984D01*
X5791610Y-13561984D02*
X5810658Y-13571508D01*
X5810658Y-13571508D02*
X5820182Y-13581031D01*
X5820182Y-13581031D02*
X5829705Y-13600079D01*
X5829705Y-13600079D02*
X5839229Y-13638174D01*
X5839229Y-13638174D02*
X5839229Y-13685793D01*
X5839229Y-13685793D02*
X5829705Y-13723888D01*
X5829705Y-13723888D02*
X5820182Y-13742936D01*
X5820182Y-13742936D02*
X5810658Y-13752460D01*
X5810658Y-13752460D02*
X5791610Y-13761984D01*
X5791610Y-13761984D02*
X5772562Y-13761984D01*
X5772562Y-13761984D02*
X5753515Y-13752460D01*
X5753515Y-13752460D02*
X5743991Y-13742936D01*
X5743991Y-13742936D02*
X5734467Y-13723888D01*
X5734467Y-13723888D02*
X5724943Y-13685793D01*
X5724943Y-13685793D02*
X5724943Y-13638174D01*
X5724943Y-13638174D02*
X5734467Y-13600079D01*
X5734467Y-13600079D02*
X5743991Y-13581031D01*
X5743991Y-13581031D02*
X5753515Y-13571508D01*
X5753515Y-13571508D02*
X5772562Y-13561984D01*
X5963039Y-13561984D02*
X5982086Y-13561984D01*
X5982086Y-13561984D02*
X6001134Y-13571508D01*
X6001134Y-13571508D02*
X6010658Y-13581031D01*
X6010658Y-13581031D02*
X6020182Y-13600079D01*
X6020182Y-13600079D02*
X6029705Y-13638174D01*
X6029705Y-13638174D02*
X6029705Y-13685793D01*
X6029705Y-13685793D02*
X6020182Y-13723888D01*
X6020182Y-13723888D02*
X6010658Y-13742936D01*
X6010658Y-13742936D02*
X6001134Y-13752460D01*
X6001134Y-13752460D02*
X5982086Y-13761984D01*
X5982086Y-13761984D02*
X5963039Y-13761984D01*
X5963039Y-13761984D02*
X5943991Y-13752460D01*
X5943991Y-13752460D02*
X5934467Y-13742936D01*
X5934467Y-13742936D02*
X5924943Y-13723888D01*
X5924943Y-13723888D02*
X5915420Y-13685793D01*
X5915420Y-13685793D02*
X5915420Y-13638174D01*
X5915420Y-13638174D02*
X5924943Y-13600079D01*
X5924943Y-13600079D02*
X5934467Y-13581031D01*
X5934467Y-13581031D02*
X5943991Y-13571508D01*
X5943991Y-13571508D02*
X5963039Y-13561984D01*
X6115420Y-13761984D02*
X6115420Y-13628650D01*
X6115420Y-13647698D02*
X6124943Y-13638174D01*
X6124943Y-13638174D02*
X6143991Y-13628650D01*
X6143991Y-13628650D02*
X6172563Y-13628650D01*
X6172563Y-13628650D02*
X6191610Y-13638174D01*
X6191610Y-13638174D02*
X6201134Y-13657222D01*
X6201134Y-13657222D02*
X6201134Y-13761984D01*
X6201134Y-13657222D02*
X6210658Y-13638174D01*
X6210658Y-13638174D02*
X6229705Y-13628650D01*
X6229705Y-13628650D02*
X6258277Y-13628650D01*
X6258277Y-13628650D02*
X6277324Y-13638174D01*
X6277324Y-13638174D02*
X6286848Y-13657222D01*
X6286848Y-13657222D02*
X6286848Y-13761984D01*
X6382086Y-13761984D02*
X6382086Y-13628650D01*
X6382086Y-13647698D02*
X6391610Y-13638174D01*
X6391610Y-13638174D02*
X6410658Y-13628650D01*
X6410658Y-13628650D02*
X6439229Y-13628650D01*
X6439229Y-13628650D02*
X6458277Y-13638174D01*
X6458277Y-13638174D02*
X6467801Y-13657222D01*
X6467801Y-13657222D02*
X6467801Y-13761984D01*
X6467801Y-13657222D02*
X6477324Y-13638174D01*
X6477324Y-13638174D02*
X6496372Y-13628650D01*
X6496372Y-13628650D02*
X6524943Y-13628650D01*
X6524943Y-13628650D02*
X6543991Y-13638174D01*
X6543991Y-13638174D02*
X6553515Y-13657222D01*
X6553515Y-13657222D02*
X6553515Y-13761984D01*
X6943991Y-13552460D02*
X6772563Y-13809603D01*
X7201134Y-13561984D02*
X7220182Y-13561984D01*
X7220182Y-13561984D02*
X7239229Y-13571508D01*
X7239229Y-13571508D02*
X7248753Y-13581031D01*
X7248753Y-13581031D02*
X7258277Y-13600079D01*
X7258277Y-13600079D02*
X7267801Y-13638174D01*
X7267801Y-13638174D02*
X7267801Y-13685793D01*
X7267801Y-13685793D02*
X7258277Y-13723888D01*
X7258277Y-13723888D02*
X7248753Y-13742936D01*
X7248753Y-13742936D02*
X7239229Y-13752460D01*
X7239229Y-13752460D02*
X7220182Y-13761984D01*
X7220182Y-13761984D02*
X7201134Y-13761984D01*
X7201134Y-13761984D02*
X7182086Y-13752460D01*
X7182086Y-13752460D02*
X7172563Y-13742936D01*
X7172563Y-13742936D02*
X7163039Y-13723888D01*
X7163039Y-13723888D02*
X7153515Y-13685793D01*
X7153515Y-13685793D02*
X7153515Y-13638174D01*
X7153515Y-13638174D02*
X7163039Y-13600079D01*
X7163039Y-13600079D02*
X7172563Y-13581031D01*
X7172563Y-13581031D02*
X7182086Y-13571508D01*
X7182086Y-13571508D02*
X7201134Y-13561984D01*
X7353515Y-13742936D02*
X7363039Y-13752460D01*
X7363039Y-13752460D02*
X7353515Y-13761984D01*
X7353515Y-13761984D02*
X7343991Y-13752460D01*
X7343991Y-13752460D02*
X7353515Y-13742936D01*
X7353515Y-13742936D02*
X7353515Y-13761984D01*
X7486848Y-13561984D02*
X7505896Y-13561984D01*
X7505896Y-13561984D02*
X7524944Y-13571508D01*
X7524944Y-13571508D02*
X7534467Y-13581031D01*
X7534467Y-13581031D02*
X7543991Y-13600079D01*
X7543991Y-13600079D02*
X7553515Y-13638174D01*
X7553515Y-13638174D02*
X7553515Y-13685793D01*
X7553515Y-13685793D02*
X7543991Y-13723888D01*
X7543991Y-13723888D02*
X7534467Y-13742936D01*
X7534467Y-13742936D02*
X7524944Y-13752460D01*
X7524944Y-13752460D02*
X7505896Y-13761984D01*
X7505896Y-13761984D02*
X7486848Y-13761984D01*
X7486848Y-13761984D02*
X7467801Y-13752460D01*
X7467801Y-13752460D02*
X7458277Y-13742936D01*
X7458277Y-13742936D02*
X7448753Y-13723888D01*
X7448753Y-13723888D02*
X7439229Y-13685793D01*
X7439229Y-13685793D02*
X7439229Y-13638174D01*
X7439229Y-13638174D02*
X7448753Y-13600079D01*
X7448753Y-13600079D02*
X7458277Y-13581031D01*
X7458277Y-13581031D02*
X7467801Y-13571508D01*
X7467801Y-13571508D02*
X7486848Y-13561984D01*
X7620182Y-13561984D02*
X7743991Y-13561984D01*
X7743991Y-13561984D02*
X7677325Y-13638174D01*
X7677325Y-13638174D02*
X7705896Y-13638174D01*
X7705896Y-13638174D02*
X7724944Y-13647698D01*
X7724944Y-13647698D02*
X7734467Y-13657222D01*
X7734467Y-13657222D02*
X7743991Y-13676269D01*
X7743991Y-13676269D02*
X7743991Y-13723888D01*
X7743991Y-13723888D02*
X7734467Y-13742936D01*
X7734467Y-13742936D02*
X7724944Y-13752460D01*
X7724944Y-13752460D02*
X7705896Y-13761984D01*
X7705896Y-13761984D02*
X7648753Y-13761984D01*
X7648753Y-13761984D02*
X7629706Y-13752460D01*
X7629706Y-13752460D02*
X7620182Y-13742936D01*
X7934467Y-13761984D02*
X7820182Y-13761984D01*
X7877325Y-13761984D02*
X7877325Y-13561984D01*
X7877325Y-13561984D02*
X7858277Y-13590555D01*
X7858277Y-13590555D02*
X7839229Y-13609603D01*
X7839229Y-13609603D02*
X7820182Y-13619127D01*
X8115420Y-13561984D02*
X8020182Y-13561984D01*
X8020182Y-13561984D02*
X8010658Y-13657222D01*
X8010658Y-13657222D02*
X8020182Y-13647698D01*
X8020182Y-13647698D02*
X8039229Y-13638174D01*
X8039229Y-13638174D02*
X8086848Y-13638174D01*
X8086848Y-13638174D02*
X8105896Y-13647698D01*
X8105896Y-13647698D02*
X8115420Y-13657222D01*
X8115420Y-13657222D02*
X8124944Y-13676269D01*
X8124944Y-13676269D02*
X8124944Y-13723888D01*
X8124944Y-13723888D02*
X8115420Y-13742936D01*
X8115420Y-13742936D02*
X8105896Y-13752460D01*
X8105896Y-13752460D02*
X8086848Y-13761984D01*
X8086848Y-13761984D02*
X8039229Y-13761984D01*
X8039229Y-13761984D02*
X8020182Y-13752460D01*
X8020182Y-13752460D02*
X8010658Y-13742936D01*
X8201134Y-13561984D02*
X8201134Y-13600079D01*
X8277325Y-13561984D02*
X8277325Y-13600079D01*
X8572563Y-13838174D02*
X8563039Y-13828650D01*
X8563039Y-13828650D02*
X8543991Y-13800079D01*
X8543991Y-13800079D02*
X8534468Y-13781031D01*
X8534468Y-13781031D02*
X8524944Y-13752460D01*
X8524944Y-13752460D02*
X8515420Y-13704841D01*
X8515420Y-13704841D02*
X8515420Y-13666746D01*
X8515420Y-13666746D02*
X8524944Y-13619127D01*
X8524944Y-13619127D02*
X8534468Y-13590555D01*
X8534468Y-13590555D02*
X8543991Y-13571508D01*
X8543991Y-13571508D02*
X8563039Y-13542936D01*
X8563039Y-13542936D02*
X8572563Y-13533412D01*
X8639230Y-13581031D02*
X8648753Y-13571508D01*
X8648753Y-13571508D02*
X8667801Y-13561984D01*
X8667801Y-13561984D02*
X8715420Y-13561984D01*
X8715420Y-13561984D02*
X8734468Y-13571508D01*
X8734468Y-13571508D02*
X8743991Y-13581031D01*
X8743991Y-13581031D02*
X8753515Y-13600079D01*
X8753515Y-13600079D02*
X8753515Y-13619127D01*
X8753515Y-13619127D02*
X8743991Y-13647698D01*
X8743991Y-13647698D02*
X8629706Y-13761984D01*
X8629706Y-13761984D02*
X8753515Y-13761984D01*
X8991611Y-13761984D02*
X8991611Y-13561984D01*
X9077325Y-13761984D02*
X9077325Y-13657222D01*
X9077325Y-13657222D02*
X9067801Y-13638174D01*
X9067801Y-13638174D02*
X9048753Y-13628650D01*
X9048753Y-13628650D02*
X9020182Y-13628650D01*
X9020182Y-13628650D02*
X9001134Y-13638174D01*
X9001134Y-13638174D02*
X8991611Y-13647698D01*
X9201134Y-13761984D02*
X9182087Y-13752460D01*
X9182087Y-13752460D02*
X9172563Y-13742936D01*
X9172563Y-13742936D02*
X9163039Y-13723888D01*
X9163039Y-13723888D02*
X9163039Y-13666746D01*
X9163039Y-13666746D02*
X9172563Y-13647698D01*
X9172563Y-13647698D02*
X9182087Y-13638174D01*
X9182087Y-13638174D02*
X9201134Y-13628650D01*
X9201134Y-13628650D02*
X9229706Y-13628650D01*
X9229706Y-13628650D02*
X9248753Y-13638174D01*
X9248753Y-13638174D02*
X9258277Y-13647698D01*
X9258277Y-13647698D02*
X9267801Y-13666746D01*
X9267801Y-13666746D02*
X9267801Y-13723888D01*
X9267801Y-13723888D02*
X9258277Y-13742936D01*
X9258277Y-13742936D02*
X9248753Y-13752460D01*
X9248753Y-13752460D02*
X9229706Y-13761984D01*
X9229706Y-13761984D02*
X9201134Y-13761984D01*
X9382087Y-13761984D02*
X9363039Y-13752460D01*
X9363039Y-13752460D02*
X9353515Y-13733412D01*
X9353515Y-13733412D02*
X9353515Y-13561984D01*
X9534468Y-13752460D02*
X9515420Y-13761984D01*
X9515420Y-13761984D02*
X9477325Y-13761984D01*
X9477325Y-13761984D02*
X9458277Y-13752460D01*
X9458277Y-13752460D02*
X9448753Y-13733412D01*
X9448753Y-13733412D02*
X9448753Y-13657222D01*
X9448753Y-13657222D02*
X9458277Y-13638174D01*
X9458277Y-13638174D02*
X9477325Y-13628650D01*
X9477325Y-13628650D02*
X9515420Y-13628650D01*
X9515420Y-13628650D02*
X9534468Y-13638174D01*
X9534468Y-13638174D02*
X9543992Y-13657222D01*
X9543992Y-13657222D02*
X9543992Y-13676269D01*
X9543992Y-13676269D02*
X9448753Y-13695317D01*
X9620182Y-13752460D02*
X9639230Y-13761984D01*
X9639230Y-13761984D02*
X9677325Y-13761984D01*
X9677325Y-13761984D02*
X9696373Y-13752460D01*
X9696373Y-13752460D02*
X9705896Y-13733412D01*
X9705896Y-13733412D02*
X9705896Y-13723888D01*
X9705896Y-13723888D02*
X9696373Y-13704841D01*
X9696373Y-13704841D02*
X9677325Y-13695317D01*
X9677325Y-13695317D02*
X9648753Y-13695317D01*
X9648753Y-13695317D02*
X9629706Y-13685793D01*
X9629706Y-13685793D02*
X9620182Y-13666746D01*
X9620182Y-13666746D02*
X9620182Y-13657222D01*
X9620182Y-13657222D02*
X9629706Y-13638174D01*
X9629706Y-13638174D02*
X9648753Y-13628650D01*
X9648753Y-13628650D02*
X9677325Y-13628650D01*
X9677325Y-13628650D02*
X9696373Y-13638174D01*
X9772563Y-13838174D02*
X9782087Y-13828650D01*
X9782087Y-13828650D02*
X9801134Y-13800079D01*
X9801134Y-13800079D02*
X9810658Y-13781031D01*
X9810658Y-13781031D02*
X9820182Y-13752460D01*
X9820182Y-13752460D02*
X9829706Y-13704841D01*
X9829706Y-13704841D02*
X9829706Y-13666746D01*
X9829706Y-13666746D02*
X9820182Y-13619127D01*
X9820182Y-13619127D02*
X9810658Y-13590555D01*
X9810658Y-13590555D02*
X9801134Y-13571508D01*
X9801134Y-13571508D02*
X9782087Y-13542936D01*
X9782087Y-13542936D02*
X9772563Y-13533412D01*
D12*
X4982856Y-13969856D02*
X4982856Y-13899144D01*
X4912144Y-13899144D01*
X4912144Y-13969856D01*
X4982856Y-13969856D01*
D11*
X5363039Y-14025984D02*
X5248753Y-14025984D01*
X5305896Y-14025984D02*
X5305896Y-13825984D01*
X5305896Y-13825984D02*
X5286848Y-13854555D01*
X5286848Y-13854555D02*
X5267801Y-13873603D01*
X5267801Y-13873603D02*
X5248753Y-13883127D01*
X5448753Y-14006936D02*
X5458277Y-14016460D01*
X5458277Y-14016460D02*
X5448753Y-14025984D01*
X5448753Y-14025984D02*
X5439229Y-14016460D01*
X5439229Y-14016460D02*
X5448753Y-14006936D01*
X5448753Y-14006936D02*
X5448753Y-14025984D01*
X5582086Y-13825984D02*
X5601134Y-13825984D01*
X5601134Y-13825984D02*
X5620182Y-13835508D01*
X5620182Y-13835508D02*
X5629705Y-13845031D01*
X5629705Y-13845031D02*
X5639229Y-13864079D01*
X5639229Y-13864079D02*
X5648753Y-13902174D01*
X5648753Y-13902174D02*
X5648753Y-13949793D01*
X5648753Y-13949793D02*
X5639229Y-13987888D01*
X5639229Y-13987888D02*
X5629705Y-14006936D01*
X5629705Y-14006936D02*
X5620182Y-14016460D01*
X5620182Y-14016460D02*
X5601134Y-14025984D01*
X5601134Y-14025984D02*
X5582086Y-14025984D01*
X5582086Y-14025984D02*
X5563039Y-14016460D01*
X5563039Y-14016460D02*
X5553515Y-14006936D01*
X5553515Y-14006936D02*
X5543991Y-13987888D01*
X5543991Y-13987888D02*
X5534467Y-13949793D01*
X5534467Y-13949793D02*
X5534467Y-13902174D01*
X5534467Y-13902174D02*
X5543991Y-13864079D01*
X5543991Y-13864079D02*
X5553515Y-13845031D01*
X5553515Y-13845031D02*
X5563039Y-13835508D01*
X5563039Y-13835508D02*
X5582086Y-13825984D01*
X5772562Y-13825984D02*
X5791610Y-13825984D01*
X5791610Y-13825984D02*
X5810658Y-13835508D01*
X5810658Y-13835508D02*
X5820182Y-13845031D01*
X5820182Y-13845031D02*
X5829705Y-13864079D01*
X5829705Y-13864079D02*
X5839229Y-13902174D01*
X5839229Y-13902174D02*
X5839229Y-13949793D01*
X5839229Y-13949793D02*
X5829705Y-13987888D01*
X5829705Y-13987888D02*
X5820182Y-14006936D01*
X5820182Y-14006936D02*
X5810658Y-14016460D01*
X5810658Y-14016460D02*
X5791610Y-14025984D01*
X5791610Y-14025984D02*
X5772562Y-14025984D01*
X5772562Y-14025984D02*
X5753515Y-14016460D01*
X5753515Y-14016460D02*
X5743991Y-14006936D01*
X5743991Y-14006936D02*
X5734467Y-13987888D01*
X5734467Y-13987888D02*
X5724943Y-13949793D01*
X5724943Y-13949793D02*
X5724943Y-13902174D01*
X5724943Y-13902174D02*
X5734467Y-13864079D01*
X5734467Y-13864079D02*
X5743991Y-13845031D01*
X5743991Y-13845031D02*
X5753515Y-13835508D01*
X5753515Y-13835508D02*
X5772562Y-13825984D01*
X5963039Y-13825984D02*
X5982086Y-13825984D01*
X5982086Y-13825984D02*
X6001134Y-13835508D01*
X6001134Y-13835508D02*
X6010658Y-13845031D01*
X6010658Y-13845031D02*
X6020182Y-13864079D01*
X6020182Y-13864079D02*
X6029705Y-13902174D01*
X6029705Y-13902174D02*
X6029705Y-13949793D01*
X6029705Y-13949793D02*
X6020182Y-13987888D01*
X6020182Y-13987888D02*
X6010658Y-14006936D01*
X6010658Y-14006936D02*
X6001134Y-14016460D01*
X6001134Y-14016460D02*
X5982086Y-14025984D01*
X5982086Y-14025984D02*
X5963039Y-14025984D01*
X5963039Y-14025984D02*
X5943991Y-14016460D01*
X5943991Y-14016460D02*
X5934467Y-14006936D01*
X5934467Y-14006936D02*
X5924943Y-13987888D01*
X5924943Y-13987888D02*
X5915420Y-13949793D01*
X5915420Y-13949793D02*
X5915420Y-13902174D01*
X5915420Y-13902174D02*
X5924943Y-13864079D01*
X5924943Y-13864079D02*
X5934467Y-13845031D01*
X5934467Y-13845031D02*
X5943991Y-13835508D01*
X5943991Y-13835508D02*
X5963039Y-13825984D01*
X6115420Y-14025984D02*
X6115420Y-13892650D01*
X6115420Y-13911698D02*
X6124943Y-13902174D01*
X6124943Y-13902174D02*
X6143991Y-13892650D01*
X6143991Y-13892650D02*
X6172563Y-13892650D01*
X6172563Y-13892650D02*
X6191610Y-13902174D01*
X6191610Y-13902174D02*
X6201134Y-13921222D01*
X6201134Y-13921222D02*
X6201134Y-14025984D01*
X6201134Y-13921222D02*
X6210658Y-13902174D01*
X6210658Y-13902174D02*
X6229705Y-13892650D01*
X6229705Y-13892650D02*
X6258277Y-13892650D01*
X6258277Y-13892650D02*
X6277324Y-13902174D01*
X6277324Y-13902174D02*
X6286848Y-13921222D01*
X6286848Y-13921222D02*
X6286848Y-14025984D01*
X6382086Y-14025984D02*
X6382086Y-13892650D01*
X6382086Y-13911698D02*
X6391610Y-13902174D01*
X6391610Y-13902174D02*
X6410658Y-13892650D01*
X6410658Y-13892650D02*
X6439229Y-13892650D01*
X6439229Y-13892650D02*
X6458277Y-13902174D01*
X6458277Y-13902174D02*
X6467801Y-13921222D01*
X6467801Y-13921222D02*
X6467801Y-14025984D01*
X6467801Y-13921222D02*
X6477324Y-13902174D01*
X6477324Y-13902174D02*
X6496372Y-13892650D01*
X6496372Y-13892650D02*
X6524943Y-13892650D01*
X6524943Y-13892650D02*
X6543991Y-13902174D01*
X6543991Y-13902174D02*
X6553515Y-13921222D01*
X6553515Y-13921222D02*
X6553515Y-14025984D01*
X6943991Y-13816460D02*
X6772563Y-14073603D01*
X7201134Y-13825984D02*
X7220182Y-13825984D01*
X7220182Y-13825984D02*
X7239229Y-13835508D01*
X7239229Y-13835508D02*
X7248753Y-13845031D01*
X7248753Y-13845031D02*
X7258277Y-13864079D01*
X7258277Y-13864079D02*
X7267801Y-13902174D01*
X7267801Y-13902174D02*
X7267801Y-13949793D01*
X7267801Y-13949793D02*
X7258277Y-13987888D01*
X7258277Y-13987888D02*
X7248753Y-14006936D01*
X7248753Y-14006936D02*
X7239229Y-14016460D01*
X7239229Y-14016460D02*
X7220182Y-14025984D01*
X7220182Y-14025984D02*
X7201134Y-14025984D01*
X7201134Y-14025984D02*
X7182086Y-14016460D01*
X7182086Y-14016460D02*
X7172563Y-14006936D01*
X7172563Y-14006936D02*
X7163039Y-13987888D01*
X7163039Y-13987888D02*
X7153515Y-13949793D01*
X7153515Y-13949793D02*
X7153515Y-13902174D01*
X7153515Y-13902174D02*
X7163039Y-13864079D01*
X7163039Y-13864079D02*
X7172563Y-13845031D01*
X7172563Y-13845031D02*
X7182086Y-13835508D01*
X7182086Y-13835508D02*
X7201134Y-13825984D01*
X7353515Y-14006936D02*
X7363039Y-14016460D01*
X7363039Y-14016460D02*
X7353515Y-14025984D01*
X7353515Y-14025984D02*
X7343991Y-14016460D01*
X7343991Y-14016460D02*
X7353515Y-14006936D01*
X7353515Y-14006936D02*
X7353515Y-14025984D01*
X7486848Y-13825984D02*
X7505896Y-13825984D01*
X7505896Y-13825984D02*
X7524944Y-13835508D01*
X7524944Y-13835508D02*
X7534467Y-13845031D01*
X7534467Y-13845031D02*
X7543991Y-13864079D01*
X7543991Y-13864079D02*
X7553515Y-13902174D01*
X7553515Y-13902174D02*
X7553515Y-13949793D01*
X7553515Y-13949793D02*
X7543991Y-13987888D01*
X7543991Y-13987888D02*
X7534467Y-14006936D01*
X7534467Y-14006936D02*
X7524944Y-14016460D01*
X7524944Y-14016460D02*
X7505896Y-14025984D01*
X7505896Y-14025984D02*
X7486848Y-14025984D01*
X7486848Y-14025984D02*
X7467801Y-14016460D01*
X7467801Y-14016460D02*
X7458277Y-14006936D01*
X7458277Y-14006936D02*
X7448753Y-13987888D01*
X7448753Y-13987888D02*
X7439229Y-13949793D01*
X7439229Y-13949793D02*
X7439229Y-13902174D01*
X7439229Y-13902174D02*
X7448753Y-13864079D01*
X7448753Y-13864079D02*
X7458277Y-13845031D01*
X7458277Y-13845031D02*
X7467801Y-13835508D01*
X7467801Y-13835508D02*
X7486848Y-13825984D01*
X7620182Y-13825984D02*
X7743991Y-13825984D01*
X7743991Y-13825984D02*
X7677325Y-13902174D01*
X7677325Y-13902174D02*
X7705896Y-13902174D01*
X7705896Y-13902174D02*
X7724944Y-13911698D01*
X7724944Y-13911698D02*
X7734467Y-13921222D01*
X7734467Y-13921222D02*
X7743991Y-13940269D01*
X7743991Y-13940269D02*
X7743991Y-13987888D01*
X7743991Y-13987888D02*
X7734467Y-14006936D01*
X7734467Y-14006936D02*
X7724944Y-14016460D01*
X7724944Y-14016460D02*
X7705896Y-14025984D01*
X7705896Y-14025984D02*
X7648753Y-14025984D01*
X7648753Y-14025984D02*
X7629706Y-14016460D01*
X7629706Y-14016460D02*
X7620182Y-14006936D01*
X7839229Y-14025984D02*
X7877325Y-14025984D01*
X7877325Y-14025984D02*
X7896372Y-14016460D01*
X7896372Y-14016460D02*
X7905896Y-14006936D01*
X7905896Y-14006936D02*
X7924944Y-13978365D01*
X7924944Y-13978365D02*
X7934467Y-13940269D01*
X7934467Y-13940269D02*
X7934467Y-13864079D01*
X7934467Y-13864079D02*
X7924944Y-13845031D01*
X7924944Y-13845031D02*
X7915420Y-13835508D01*
X7915420Y-13835508D02*
X7896372Y-13825984D01*
X7896372Y-13825984D02*
X7858277Y-13825984D01*
X7858277Y-13825984D02*
X7839229Y-13835508D01*
X7839229Y-13835508D02*
X7829706Y-13845031D01*
X7829706Y-13845031D02*
X7820182Y-13864079D01*
X7820182Y-13864079D02*
X7820182Y-13911698D01*
X7820182Y-13911698D02*
X7829706Y-13930746D01*
X7829706Y-13930746D02*
X7839229Y-13940269D01*
X7839229Y-13940269D02*
X7858277Y-13949793D01*
X7858277Y-13949793D02*
X7896372Y-13949793D01*
X7896372Y-13949793D02*
X7915420Y-13940269D01*
X7915420Y-13940269D02*
X7924944Y-13930746D01*
X7924944Y-13930746D02*
X7934467Y-13911698D01*
X8105896Y-13892650D02*
X8105896Y-14025984D01*
X8058277Y-13816460D02*
X8010658Y-13959317D01*
X8010658Y-13959317D02*
X8134467Y-13959317D01*
X8201134Y-13825984D02*
X8201134Y-13864079D01*
X8277325Y-13825984D02*
X8277325Y-13864079D01*
X8572563Y-14102174D02*
X8563039Y-14092650D01*
X8563039Y-14092650D02*
X8543991Y-14064079D01*
X8543991Y-14064079D02*
X8534468Y-14045031D01*
X8534468Y-14045031D02*
X8524944Y-14016460D01*
X8524944Y-14016460D02*
X8515420Y-13968841D01*
X8515420Y-13968841D02*
X8515420Y-13930746D01*
X8515420Y-13930746D02*
X8524944Y-13883127D01*
X8524944Y-13883127D02*
X8534468Y-13854555D01*
X8534468Y-13854555D02*
X8543991Y-13835508D01*
X8543991Y-13835508D02*
X8563039Y-13806936D01*
X8563039Y-13806936D02*
X8572563Y-13797412D01*
X8629706Y-13825984D02*
X8753515Y-13825984D01*
X8753515Y-13825984D02*
X8686849Y-13902174D01*
X8686849Y-13902174D02*
X8715420Y-13902174D01*
X8715420Y-13902174D02*
X8734468Y-13911698D01*
X8734468Y-13911698D02*
X8743991Y-13921222D01*
X8743991Y-13921222D02*
X8753515Y-13940269D01*
X8753515Y-13940269D02*
X8753515Y-13987888D01*
X8753515Y-13987888D02*
X8743991Y-14006936D01*
X8743991Y-14006936D02*
X8734468Y-14016460D01*
X8734468Y-14016460D02*
X8715420Y-14025984D01*
X8715420Y-14025984D02*
X8658277Y-14025984D01*
X8658277Y-14025984D02*
X8639230Y-14016460D01*
X8639230Y-14016460D02*
X8629706Y-14006936D01*
X8820182Y-13825984D02*
X8953515Y-13825984D01*
X8953515Y-13825984D02*
X8867801Y-14025984D01*
X9182087Y-14025984D02*
X9182087Y-13825984D01*
X9267801Y-14025984D02*
X9267801Y-13921222D01*
X9267801Y-13921222D02*
X9258277Y-13902174D01*
X9258277Y-13902174D02*
X9239230Y-13892650D01*
X9239230Y-13892650D02*
X9210658Y-13892650D01*
X9210658Y-13892650D02*
X9191611Y-13902174D01*
X9191611Y-13902174D02*
X9182087Y-13911698D01*
X9391611Y-14025984D02*
X9372563Y-14016460D01*
X9372563Y-14016460D02*
X9363039Y-14006936D01*
X9363039Y-14006936D02*
X9353515Y-13987888D01*
X9353515Y-13987888D02*
X9353515Y-13930746D01*
X9353515Y-13930746D02*
X9363039Y-13911698D01*
X9363039Y-13911698D02*
X9372563Y-13902174D01*
X9372563Y-13902174D02*
X9391611Y-13892650D01*
X9391611Y-13892650D02*
X9420182Y-13892650D01*
X9420182Y-13892650D02*
X9439230Y-13902174D01*
X9439230Y-13902174D02*
X9448753Y-13911698D01*
X9448753Y-13911698D02*
X9458277Y-13930746D01*
X9458277Y-13930746D02*
X9458277Y-13987888D01*
X9458277Y-13987888D02*
X9448753Y-14006936D01*
X9448753Y-14006936D02*
X9439230Y-14016460D01*
X9439230Y-14016460D02*
X9420182Y-14025984D01*
X9420182Y-14025984D02*
X9391611Y-14025984D01*
X9572563Y-14025984D02*
X9553515Y-14016460D01*
X9553515Y-14016460D02*
X9543992Y-13997412D01*
X9543992Y-13997412D02*
X9543992Y-13825984D01*
X9724944Y-14016460D02*
X9705896Y-14025984D01*
X9705896Y-14025984D02*
X9667801Y-14025984D01*
X9667801Y-14025984D02*
X9648753Y-14016460D01*
X9648753Y-14016460D02*
X9639230Y-13997412D01*
X9639230Y-13997412D02*
X9639230Y-13921222D01*
X9639230Y-13921222D02*
X9648753Y-13902174D01*
X9648753Y-13902174D02*
X9667801Y-13892650D01*
X9667801Y-13892650D02*
X9705896Y-13892650D01*
X9705896Y-13892650D02*
X9724944Y-13902174D01*
X9724944Y-13902174D02*
X9734468Y-13921222D01*
X9734468Y-13921222D02*
X9734468Y-13940269D01*
X9734468Y-13940269D02*
X9639230Y-13959317D01*
X9810658Y-14016460D02*
X9829706Y-14025984D01*
X9829706Y-14025984D02*
X9867801Y-14025984D01*
X9867801Y-14025984D02*
X9886849Y-14016460D01*
X9886849Y-14016460D02*
X9896373Y-13997412D01*
X9896373Y-13997412D02*
X9896373Y-13987888D01*
X9896373Y-13987888D02*
X9886849Y-13968841D01*
X9886849Y-13968841D02*
X9867801Y-13959317D01*
X9867801Y-13959317D02*
X9839230Y-13959317D01*
X9839230Y-13959317D02*
X9820182Y-13949793D01*
X9820182Y-13949793D02*
X9810658Y-13930746D01*
X9810658Y-13930746D02*
X9810658Y-13921222D01*
X9810658Y-13921222D02*
X9820182Y-13902174D01*
X9820182Y-13902174D02*
X9839230Y-13892650D01*
X9839230Y-13892650D02*
X9867801Y-13892650D01*
X9867801Y-13892650D02*
X9886849Y-13902174D01*
X9963039Y-14102174D02*
X9972563Y-14092650D01*
X9972563Y-14092650D02*
X9991611Y-14064079D01*
X9991611Y-14064079D02*
X10001134Y-14045031D01*
X10001134Y-14045031D02*
X10010658Y-14016460D01*
X10010658Y-14016460D02*
X10020182Y-13968841D01*
X10020182Y-13968841D02*
X10020182Y-13930746D01*
X10020182Y-13930746D02*
X10010658Y-13883127D01*
X10010658Y-13883127D02*
X10001134Y-13854555D01*
X10001134Y-13854555D02*
X9991611Y-13835508D01*
X9991611Y-13835508D02*
X9972563Y-13806936D01*
X9972563Y-13806936D02*
X9963039Y-13797412D01*
D13*
X4932500Y-14263500D02*
X4997500Y-14198500D01*
X4932500Y-14133500D01*
X4867500Y-14198500D01*
X4932500Y-14263500D01*
D11*
X5363039Y-14289984D02*
X5248753Y-14289984D01*
X5305896Y-14289984D02*
X5305896Y-14089984D01*
X5305896Y-14089984D02*
X5286848Y-14118555D01*
X5286848Y-14118555D02*
X5267801Y-14137603D01*
X5267801Y-14137603D02*
X5248753Y-14147127D01*
X5448753Y-14270936D02*
X5458277Y-14280460D01*
X5458277Y-14280460D02*
X5448753Y-14289984D01*
X5448753Y-14289984D02*
X5439229Y-14280460D01*
X5439229Y-14280460D02*
X5448753Y-14270936D01*
X5448753Y-14270936D02*
X5448753Y-14289984D01*
X5524944Y-14089984D02*
X5648753Y-14089984D01*
X5648753Y-14089984D02*
X5582086Y-14166174D01*
X5582086Y-14166174D02*
X5610658Y-14166174D01*
X5610658Y-14166174D02*
X5629705Y-14175698D01*
X5629705Y-14175698D02*
X5639229Y-14185222D01*
X5639229Y-14185222D02*
X5648753Y-14204269D01*
X5648753Y-14204269D02*
X5648753Y-14251888D01*
X5648753Y-14251888D02*
X5639229Y-14270936D01*
X5639229Y-14270936D02*
X5629705Y-14280460D01*
X5629705Y-14280460D02*
X5610658Y-14289984D01*
X5610658Y-14289984D02*
X5553515Y-14289984D01*
X5553515Y-14289984D02*
X5534467Y-14280460D01*
X5534467Y-14280460D02*
X5524944Y-14270936D01*
X5772562Y-14089984D02*
X5791610Y-14089984D01*
X5791610Y-14089984D02*
X5810658Y-14099508D01*
X5810658Y-14099508D02*
X5820182Y-14109031D01*
X5820182Y-14109031D02*
X5829705Y-14128079D01*
X5829705Y-14128079D02*
X5839229Y-14166174D01*
X5839229Y-14166174D02*
X5839229Y-14213793D01*
X5839229Y-14213793D02*
X5829705Y-14251888D01*
X5829705Y-14251888D02*
X5820182Y-14270936D01*
X5820182Y-14270936D02*
X5810658Y-14280460D01*
X5810658Y-14280460D02*
X5791610Y-14289984D01*
X5791610Y-14289984D02*
X5772562Y-14289984D01*
X5772562Y-14289984D02*
X5753515Y-14280460D01*
X5753515Y-14280460D02*
X5743991Y-14270936D01*
X5743991Y-14270936D02*
X5734467Y-14251888D01*
X5734467Y-14251888D02*
X5724943Y-14213793D01*
X5724943Y-14213793D02*
X5724943Y-14166174D01*
X5724943Y-14166174D02*
X5734467Y-14128079D01*
X5734467Y-14128079D02*
X5743991Y-14109031D01*
X5743991Y-14109031D02*
X5753515Y-14099508D01*
X5753515Y-14099508D02*
X5772562Y-14089984D01*
X5963039Y-14089984D02*
X5982086Y-14089984D01*
X5982086Y-14089984D02*
X6001134Y-14099508D01*
X6001134Y-14099508D02*
X6010658Y-14109031D01*
X6010658Y-14109031D02*
X6020182Y-14128079D01*
X6020182Y-14128079D02*
X6029705Y-14166174D01*
X6029705Y-14166174D02*
X6029705Y-14213793D01*
X6029705Y-14213793D02*
X6020182Y-14251888D01*
X6020182Y-14251888D02*
X6010658Y-14270936D01*
X6010658Y-14270936D02*
X6001134Y-14280460D01*
X6001134Y-14280460D02*
X5982086Y-14289984D01*
X5982086Y-14289984D02*
X5963039Y-14289984D01*
X5963039Y-14289984D02*
X5943991Y-14280460D01*
X5943991Y-14280460D02*
X5934467Y-14270936D01*
X5934467Y-14270936D02*
X5924943Y-14251888D01*
X5924943Y-14251888D02*
X5915420Y-14213793D01*
X5915420Y-14213793D02*
X5915420Y-14166174D01*
X5915420Y-14166174D02*
X5924943Y-14128079D01*
X5924943Y-14128079D02*
X5934467Y-14109031D01*
X5934467Y-14109031D02*
X5943991Y-14099508D01*
X5943991Y-14099508D02*
X5963039Y-14089984D01*
X6115420Y-14289984D02*
X6115420Y-14156650D01*
X6115420Y-14175698D02*
X6124943Y-14166174D01*
X6124943Y-14166174D02*
X6143991Y-14156650D01*
X6143991Y-14156650D02*
X6172563Y-14156650D01*
X6172563Y-14156650D02*
X6191610Y-14166174D01*
X6191610Y-14166174D02*
X6201134Y-14185222D01*
X6201134Y-14185222D02*
X6201134Y-14289984D01*
X6201134Y-14185222D02*
X6210658Y-14166174D01*
X6210658Y-14166174D02*
X6229705Y-14156650D01*
X6229705Y-14156650D02*
X6258277Y-14156650D01*
X6258277Y-14156650D02*
X6277324Y-14166174D01*
X6277324Y-14166174D02*
X6286848Y-14185222D01*
X6286848Y-14185222D02*
X6286848Y-14289984D01*
X6382086Y-14289984D02*
X6382086Y-14156650D01*
X6382086Y-14175698D02*
X6391610Y-14166174D01*
X6391610Y-14166174D02*
X6410658Y-14156650D01*
X6410658Y-14156650D02*
X6439229Y-14156650D01*
X6439229Y-14156650D02*
X6458277Y-14166174D01*
X6458277Y-14166174D02*
X6467801Y-14185222D01*
X6467801Y-14185222D02*
X6467801Y-14289984D01*
X6467801Y-14185222D02*
X6477324Y-14166174D01*
X6477324Y-14166174D02*
X6496372Y-14156650D01*
X6496372Y-14156650D02*
X6524943Y-14156650D01*
X6524943Y-14156650D02*
X6543991Y-14166174D01*
X6543991Y-14166174D02*
X6553515Y-14185222D01*
X6553515Y-14185222D02*
X6553515Y-14289984D01*
X6943991Y-14080460D02*
X6772563Y-14337603D01*
X7201134Y-14089984D02*
X7220182Y-14089984D01*
X7220182Y-14089984D02*
X7239229Y-14099508D01*
X7239229Y-14099508D02*
X7248753Y-14109031D01*
X7248753Y-14109031D02*
X7258277Y-14128079D01*
X7258277Y-14128079D02*
X7267801Y-14166174D01*
X7267801Y-14166174D02*
X7267801Y-14213793D01*
X7267801Y-14213793D02*
X7258277Y-14251888D01*
X7258277Y-14251888D02*
X7248753Y-14270936D01*
X7248753Y-14270936D02*
X7239229Y-14280460D01*
X7239229Y-14280460D02*
X7220182Y-14289984D01*
X7220182Y-14289984D02*
X7201134Y-14289984D01*
X7201134Y-14289984D02*
X7182086Y-14280460D01*
X7182086Y-14280460D02*
X7172563Y-14270936D01*
X7172563Y-14270936D02*
X7163039Y-14251888D01*
X7163039Y-14251888D02*
X7153515Y-14213793D01*
X7153515Y-14213793D02*
X7153515Y-14166174D01*
X7153515Y-14166174D02*
X7163039Y-14128079D01*
X7163039Y-14128079D02*
X7172563Y-14109031D01*
X7172563Y-14109031D02*
X7182086Y-14099508D01*
X7182086Y-14099508D02*
X7201134Y-14089984D01*
X7353515Y-14270936D02*
X7363039Y-14280460D01*
X7363039Y-14280460D02*
X7353515Y-14289984D01*
X7353515Y-14289984D02*
X7343991Y-14280460D01*
X7343991Y-14280460D02*
X7353515Y-14270936D01*
X7353515Y-14270936D02*
X7353515Y-14289984D01*
X7486848Y-14089984D02*
X7505896Y-14089984D01*
X7505896Y-14089984D02*
X7524944Y-14099508D01*
X7524944Y-14099508D02*
X7534467Y-14109031D01*
X7534467Y-14109031D02*
X7543991Y-14128079D01*
X7543991Y-14128079D02*
X7553515Y-14166174D01*
X7553515Y-14166174D02*
X7553515Y-14213793D01*
X7553515Y-14213793D02*
X7543991Y-14251888D01*
X7543991Y-14251888D02*
X7534467Y-14270936D01*
X7534467Y-14270936D02*
X7524944Y-14280460D01*
X7524944Y-14280460D02*
X7505896Y-14289984D01*
X7505896Y-14289984D02*
X7486848Y-14289984D01*
X7486848Y-14289984D02*
X7467801Y-14280460D01*
X7467801Y-14280460D02*
X7458277Y-14270936D01*
X7458277Y-14270936D02*
X7448753Y-14251888D01*
X7448753Y-14251888D02*
X7439229Y-14213793D01*
X7439229Y-14213793D02*
X7439229Y-14166174D01*
X7439229Y-14166174D02*
X7448753Y-14128079D01*
X7448753Y-14128079D02*
X7458277Y-14109031D01*
X7458277Y-14109031D02*
X7467801Y-14099508D01*
X7467801Y-14099508D02*
X7486848Y-14089984D01*
X7734467Y-14089984D02*
X7639229Y-14089984D01*
X7639229Y-14089984D02*
X7629706Y-14185222D01*
X7629706Y-14185222D02*
X7639229Y-14175698D01*
X7639229Y-14175698D02*
X7658277Y-14166174D01*
X7658277Y-14166174D02*
X7705896Y-14166174D01*
X7705896Y-14166174D02*
X7724944Y-14175698D01*
X7724944Y-14175698D02*
X7734467Y-14185222D01*
X7734467Y-14185222D02*
X7743991Y-14204269D01*
X7743991Y-14204269D02*
X7743991Y-14251888D01*
X7743991Y-14251888D02*
X7734467Y-14270936D01*
X7734467Y-14270936D02*
X7724944Y-14280460D01*
X7724944Y-14280460D02*
X7705896Y-14289984D01*
X7705896Y-14289984D02*
X7658277Y-14289984D01*
X7658277Y-14289984D02*
X7639229Y-14280460D01*
X7639229Y-14280460D02*
X7629706Y-14270936D01*
X7934467Y-14289984D02*
X7820182Y-14289984D01*
X7877325Y-14289984D02*
X7877325Y-14089984D01*
X7877325Y-14089984D02*
X7858277Y-14118555D01*
X7858277Y-14118555D02*
X7839229Y-14137603D01*
X7839229Y-14137603D02*
X7820182Y-14147127D01*
X8010658Y-14109031D02*
X8020182Y-14099508D01*
X8020182Y-14099508D02*
X8039229Y-14089984D01*
X8039229Y-14089984D02*
X8086848Y-14089984D01*
X8086848Y-14089984D02*
X8105896Y-14099508D01*
X8105896Y-14099508D02*
X8115420Y-14109031D01*
X8115420Y-14109031D02*
X8124944Y-14128079D01*
X8124944Y-14128079D02*
X8124944Y-14147127D01*
X8124944Y-14147127D02*
X8115420Y-14175698D01*
X8115420Y-14175698D02*
X8001134Y-14289984D01*
X8001134Y-14289984D02*
X8124944Y-14289984D01*
X8201134Y-14089984D02*
X8201134Y-14128079D01*
X8277325Y-14089984D02*
X8277325Y-14128079D01*
X8572563Y-14366174D02*
X8563039Y-14356650D01*
X8563039Y-14356650D02*
X8543991Y-14328079D01*
X8543991Y-14328079D02*
X8534468Y-14309031D01*
X8534468Y-14309031D02*
X8524944Y-14280460D01*
X8524944Y-14280460D02*
X8515420Y-14232841D01*
X8515420Y-14232841D02*
X8515420Y-14194746D01*
X8515420Y-14194746D02*
X8524944Y-14147127D01*
X8524944Y-14147127D02*
X8534468Y-14118555D01*
X8534468Y-14118555D02*
X8543991Y-14099508D01*
X8543991Y-14099508D02*
X8563039Y-14070936D01*
X8563039Y-14070936D02*
X8572563Y-14061412D01*
X8753515Y-14289984D02*
X8639230Y-14289984D01*
X8696372Y-14289984D02*
X8696372Y-14089984D01*
X8696372Y-14089984D02*
X8677325Y-14118555D01*
X8677325Y-14118555D02*
X8658277Y-14137603D01*
X8658277Y-14137603D02*
X8639230Y-14147127D01*
X8829706Y-14109031D02*
X8839230Y-14099508D01*
X8839230Y-14099508D02*
X8858277Y-14089984D01*
X8858277Y-14089984D02*
X8905896Y-14089984D01*
X8905896Y-14089984D02*
X8924944Y-14099508D01*
X8924944Y-14099508D02*
X8934468Y-14109031D01*
X8934468Y-14109031D02*
X8943991Y-14128079D01*
X8943991Y-14128079D02*
X8943991Y-14147127D01*
X8943991Y-14147127D02*
X8934468Y-14175698D01*
X8934468Y-14175698D02*
X8820182Y-14289984D01*
X8820182Y-14289984D02*
X8943991Y-14289984D01*
X9182087Y-14289984D02*
X9182087Y-14089984D01*
X9267801Y-14289984D02*
X9267801Y-14185222D01*
X9267801Y-14185222D02*
X9258277Y-14166174D01*
X9258277Y-14166174D02*
X9239230Y-14156650D01*
X9239230Y-14156650D02*
X9210658Y-14156650D01*
X9210658Y-14156650D02*
X9191611Y-14166174D01*
X9191611Y-14166174D02*
X9182087Y-14175698D01*
X9391611Y-14289984D02*
X9372563Y-14280460D01*
X9372563Y-14280460D02*
X9363039Y-14270936D01*
X9363039Y-14270936D02*
X9353515Y-14251888D01*
X9353515Y-14251888D02*
X9353515Y-14194746D01*
X9353515Y-14194746D02*
X9363039Y-14175698D01*
X9363039Y-14175698D02*
X9372563Y-14166174D01*
X9372563Y-14166174D02*
X9391611Y-14156650D01*
X9391611Y-14156650D02*
X9420182Y-14156650D01*
X9420182Y-14156650D02*
X9439230Y-14166174D01*
X9439230Y-14166174D02*
X9448753Y-14175698D01*
X9448753Y-14175698D02*
X9458277Y-14194746D01*
X9458277Y-14194746D02*
X9458277Y-14251888D01*
X9458277Y-14251888D02*
X9448753Y-14270936D01*
X9448753Y-14270936D02*
X9439230Y-14280460D01*
X9439230Y-14280460D02*
X9420182Y-14289984D01*
X9420182Y-14289984D02*
X9391611Y-14289984D01*
X9572563Y-14289984D02*
X9553515Y-14280460D01*
X9553515Y-14280460D02*
X9543992Y-14261412D01*
X9543992Y-14261412D02*
X9543992Y-14089984D01*
X9724944Y-14280460D02*
X9705896Y-14289984D01*
X9705896Y-14289984D02*
X9667801Y-14289984D01*
X9667801Y-14289984D02*
X9648753Y-14280460D01*
X9648753Y-14280460D02*
X9639230Y-14261412D01*
X9639230Y-14261412D02*
X9639230Y-14185222D01*
X9639230Y-14185222D02*
X9648753Y-14166174D01*
X9648753Y-14166174D02*
X9667801Y-14156650D01*
X9667801Y-14156650D02*
X9705896Y-14156650D01*
X9705896Y-14156650D02*
X9724944Y-14166174D01*
X9724944Y-14166174D02*
X9734468Y-14185222D01*
X9734468Y-14185222D02*
X9734468Y-14204269D01*
X9734468Y-14204269D02*
X9639230Y-14223317D01*
X9810658Y-14280460D02*
X9829706Y-14289984D01*
X9829706Y-14289984D02*
X9867801Y-14289984D01*
X9867801Y-14289984D02*
X9886849Y-14280460D01*
X9886849Y-14280460D02*
X9896373Y-14261412D01*
X9896373Y-14261412D02*
X9896373Y-14251888D01*
X9896373Y-14251888D02*
X9886849Y-14232841D01*
X9886849Y-14232841D02*
X9867801Y-14223317D01*
X9867801Y-14223317D02*
X9839230Y-14223317D01*
X9839230Y-14223317D02*
X9820182Y-14213793D01*
X9820182Y-14213793D02*
X9810658Y-14194746D01*
X9810658Y-14194746D02*
X9810658Y-14185222D01*
X9810658Y-14185222D02*
X9820182Y-14166174D01*
X9820182Y-14166174D02*
X9839230Y-14156650D01*
X9839230Y-14156650D02*
X9867801Y-14156650D01*
X9867801Y-14156650D02*
X9886849Y-14166174D01*
X9963039Y-14366174D02*
X9972563Y-14356650D01*
X9972563Y-14356650D02*
X9991611Y-14328079D01*
X9991611Y-14328079D02*
X10001134Y-14309031D01*
X10001134Y-14309031D02*
X10010658Y-14280460D01*
X10010658Y-14280460D02*
X10020182Y-14232841D01*
X10020182Y-14232841D02*
X10020182Y-14194746D01*
X10020182Y-14194746D02*
X10010658Y-14147127D01*
X10010658Y-14147127D02*
X10001134Y-14118555D01*
X10001134Y-14118555D02*
X9991611Y-14099508D01*
X9991611Y-14099508D02*
X9972563Y-14070936D01*
X9972563Y-14070936D02*
X9963039Y-14061412D01*
M02*
