%TF.GenerationSoftware,KiCad,Pcbnew,7.0.5*%
%TF.CreationDate,2023-08-11T08:16:59+02:00*%
%TF.ProjectId,FiresportTimer,46697265-7370-46f7-9274-54696d65722e,rev?*%
%TF.SameCoordinates,Original*%
%TF.FileFunction,Copper,L1,Top*%
%TF.FilePolarity,Positive*%
%FSLAX46Y46*%
G04 Gerber Fmt 4.6, Leading zero omitted, Abs format (unit mm)*
G04 Created by KiCad (PCBNEW 7.0.5) date 2023-08-11 08:16:59*
%MOMM*%
%LPD*%
G01*
G04 APERTURE LIST*
G04 Aperture macros list*
%AMRoundRect*
0 Rectangle with rounded corners*
0 $1 Rounding radius*
0 $2 $3 $4 $5 $6 $7 $8 $9 X,Y pos of 4 corners*
0 Add a 4 corners polygon primitive as box body*
4,1,4,$2,$3,$4,$5,$6,$7,$8,$9,$2,$3,0*
0 Add four circle primitives for the rounded corners*
1,1,$1+$1,$2,$3*
1,1,$1+$1,$4,$5*
1,1,$1+$1,$6,$7*
1,1,$1+$1,$8,$9*
0 Add four rect primitives between the rounded corners*
20,1,$1+$1,$2,$3,$4,$5,0*
20,1,$1+$1,$4,$5,$6,$7,0*
20,1,$1+$1,$6,$7,$8,$9,0*
20,1,$1+$1,$8,$9,$2,$3,0*%
G04 Aperture macros list end*
%TA.AperFunction,ComponentPad*%
%ADD10R,1.350000X1.350000*%
%TD*%
%TA.AperFunction,ComponentPad*%
%ADD11O,1.350000X1.350000*%
%TD*%
%TA.AperFunction,SMDPad,CuDef*%
%ADD12RoundRect,0.250000X1.000000X0.650000X-1.000000X0.650000X-1.000000X-0.650000X1.000000X-0.650000X0*%
%TD*%
%TA.AperFunction,SMDPad,CuDef*%
%ADD13RoundRect,0.250000X-1.000000X-0.650000X1.000000X-0.650000X1.000000X0.650000X-1.000000X0.650000X0*%
%TD*%
%TA.AperFunction,SMDPad,CuDef*%
%ADD14R,0.558000X1.454899*%
%TD*%
%TA.AperFunction,SMDPad,CuDef*%
%ADD15RoundRect,0.250000X0.362500X1.075000X-0.362500X1.075000X-0.362500X-1.075000X0.362500X-1.075000X0*%
%TD*%
%TA.AperFunction,ViaPad*%
%ADD16C,3.700000*%
%TD*%
%TA.AperFunction,Conductor*%
%ADD17C,0.250000*%
%TD*%
G04 APERTURE END LIST*
D10*
%TO.P,CON_LED_L1,1,+*%
%TO.N,/LED_L*%
X173355000Y-67580000D03*
D11*
%TO.P,CON_LED_L1,2,-*%
%TO.N,GND*%
X173355000Y-65580000D03*
%TD*%
D10*
%TO.P,CON_OUT1,1,+*%
%TO.N,+12V*%
X152210000Y-71120000D03*
D11*
%TO.P,CON_OUT1,2,-*%
%TO.N,GND*%
X154210000Y-71120000D03*
%TO.P,CON_OUT1,3,L*%
%TO.N,/L_OUT*%
X156210000Y-71120000D03*
%TO.P,CON_OUT1,4,R*%
%TO.N,/R_OUT*%
X158210000Y-71120000D03*
%TD*%
D12*
%TO.P,D_OUT_R1,1,K*%
%TO.N,/HAL_R*%
X156305000Y-67310000D03*
%TO.P,D_OUT_R1,2,A*%
%TO.N,/R_OUT*%
X152305000Y-67310000D03*
%TD*%
D13*
%TO.P,D_GATE_L1,1,K*%
%TO.N,/HAL_L*%
X159925000Y-63500000D03*
%TO.P,D_GATE_L1,2,A*%
%TO.N,/GATE_L*%
X163925000Y-63500000D03*
%TD*%
D10*
%TO.P,CON_HAL_L1,1,+*%
%TO.N,+12V*%
X169355000Y-71120000D03*
D11*
%TO.P,CON_HAL_L1,2,-*%
%TO.N,GND*%
X171355000Y-71120000D03*
%TO.P,CON_HAL_L1,3,Q*%
%TO.N,/HAL_L*%
X173355000Y-71120000D03*
%TD*%
D12*
%TO.P,D_OUT_L1,1,K*%
%TO.N,/HAL_L*%
X156305000Y-63500000D03*
%TO.P,D_OUT_L1,2,A*%
%TO.N,/L_OUT*%
X152305000Y-63500000D03*
%TD*%
D13*
%TO.P,D_GATE_R1,1,K*%
%TO.N,/HAL_R*%
X159925000Y-67310000D03*
%TO.P,D_GATE_R1,2,A*%
%TO.N,/GATE_R*%
X163925000Y-67310000D03*
%TD*%
D14*
%TO.P,Q1,1,1*%
%TO.N,+12V*%
X170815000Y-62048652D03*
%TO.P,Q1,2,2*%
%TO.N,/GATE_L*%
X169545000Y-62048652D03*
%TO.P,Q1,3,3*%
%TO.N,+12V*%
X168275000Y-62048652D03*
%TO.P,Q1,4,4*%
%TO.N,/GATE_R*%
X167005000Y-62048652D03*
%TO.P,Q1,5,5*%
%TO.N,/LED_R*%
X167005000Y-67491348D03*
%TO.P,Q1,6,6*%
X168275000Y-67491348D03*
%TO.P,Q1,7,7*%
%TO.N,/LED_L*%
X169545000Y-67491348D03*
%TO.P,Q1,8,8*%
X170815000Y-67491348D03*
%TD*%
D15*
%TO.P,R_PULLUP_R1,1*%
%TO.N,/GATE_R*%
X163602500Y-59055000D03*
%TO.P,R_PULLUP_R1,2*%
%TO.N,+12V*%
X158977500Y-59055000D03*
%TD*%
D10*
%TO.P,CON_LED_R1,1,+*%
%TO.N,/LED_R*%
X173355000Y-62230000D03*
D11*
%TO.P,CON_LED_R1,2,-*%
%TO.N,GND*%
X173355000Y-60230000D03*
%TD*%
D15*
%TO.P,R_PULLUP_L1,1*%
%TO.N,/GATE_L*%
X170587500Y-59055000D03*
%TO.P,R_PULLUP_L1,2*%
%TO.N,+12V*%
X165962500Y-59055000D03*
%TD*%
D10*
%TO.P,CON_HAL_R1,1,+*%
%TO.N,+12V*%
X161830000Y-71120000D03*
D11*
%TO.P,CON_HAL_R1,2,-*%
%TO.N,GND*%
X163830000Y-71120000D03*
%TO.P,CON_HAL_R1,3,Q*%
%TO.N,/HAL_R*%
X165830000Y-71120000D03*
%TD*%
D16*
%TO.N,*%
X153670000Y-58928000D03*
%TD*%
D17*
%TO.N,+12V*%
X169355000Y-71120000D02*
X169355000Y-72200000D01*
X168910000Y-57150000D02*
X166370000Y-57150000D01*
X168275000Y-62865000D02*
X168275000Y-62048652D01*
X158977500Y-57557500D02*
X158977500Y-59055000D01*
X152210000Y-71120000D02*
X152210000Y-72200000D01*
X153035000Y-73025000D02*
X162560000Y-73025000D01*
X168275000Y-57785000D02*
X168910000Y-57150000D01*
X169355000Y-72200000D02*
X170180000Y-73025000D01*
X166370000Y-57150000D02*
X159385000Y-57150000D01*
X152210000Y-72200000D02*
X153035000Y-73025000D01*
X162560000Y-73025000D02*
X170180000Y-73025000D01*
X159385000Y-57150000D02*
X158977500Y-57557500D01*
X175260000Y-72390000D02*
X175260000Y-57785000D01*
X165962500Y-59055000D02*
X165962500Y-57557500D01*
X170815000Y-62865000D02*
X170578899Y-63101101D01*
X168275000Y-62048652D02*
X168275000Y-57785000D01*
X161830000Y-71120000D02*
X161830000Y-72295000D01*
X174625000Y-57150000D02*
X168910000Y-57150000D01*
X170180000Y-73025000D02*
X174625000Y-73025000D01*
X174625000Y-73025000D02*
X175260000Y-72390000D01*
X170815000Y-62048652D02*
X170815000Y-62865000D01*
X168511101Y-63101101D02*
X168275000Y-62865000D01*
X175260000Y-57785000D02*
X174625000Y-57150000D01*
X165962500Y-57557500D02*
X166370000Y-57150000D01*
X170578899Y-63101101D02*
X168511101Y-63101101D01*
X161830000Y-72295000D02*
X162560000Y-73025000D01*
%TO.N,/HAL_L*%
X162010914Y-67945000D02*
X162010914Y-65585914D01*
X162010914Y-65585914D02*
X159925000Y-63500000D01*
X156305000Y-63500000D02*
X159925000Y-63500000D01*
X162830914Y-68765000D02*
X162010914Y-67945000D01*
X173355000Y-71120000D02*
X171000000Y-68765000D01*
X171000000Y-68765000D02*
X162830914Y-68765000D01*
%TO.N,/GATE_L*%
X170587500Y-59055000D02*
X169545000Y-60097500D01*
X163925000Y-63500000D02*
X163976101Y-63551101D01*
X169545000Y-60960000D02*
X169545000Y-62048652D01*
X171450000Y-59917500D02*
X170587500Y-59055000D01*
X171130402Y-63551101D02*
X171450000Y-63231503D01*
X171450000Y-63231503D02*
X171450000Y-59917500D01*
X169545000Y-60097500D02*
X169545000Y-60960000D01*
X163976101Y-63551101D02*
X171130402Y-63551101D01*
%TO.N,/HAL_R*%
X165830000Y-69933125D02*
X165830000Y-71120000D01*
X165111875Y-69215000D02*
X165830000Y-69933125D01*
X160655000Y-69215000D02*
X165111875Y-69215000D01*
X156305000Y-67310000D02*
X159925000Y-67310000D01*
X159925000Y-67310000D02*
X159925000Y-68485000D01*
X159925000Y-68485000D02*
X160655000Y-69215000D01*
%TO.N,/GATE_R*%
X163925000Y-66135000D02*
X161925000Y-64135000D01*
X163602500Y-59055000D02*
X163602500Y-61367500D01*
X161925000Y-64135000D02*
X161925000Y-59690000D01*
X163602500Y-61367500D02*
X164283652Y-62048652D01*
X164283652Y-62048652D02*
X167005000Y-62048652D01*
X163925000Y-67310000D02*
X163925000Y-66135000D01*
X161925000Y-59690000D02*
X162560000Y-59055000D01*
X162560000Y-59055000D02*
X163602500Y-59055000D01*
%TO.N,/L_OUT*%
X151765000Y-69850000D02*
X155575000Y-69850000D01*
X150730000Y-65075000D02*
X150730000Y-68815000D01*
X156210000Y-70485000D02*
X156210000Y-71120000D01*
X152305000Y-63500000D02*
X150730000Y-65075000D01*
X155575000Y-69850000D02*
X156210000Y-70485000D01*
X150730000Y-68815000D02*
X151765000Y-69850000D01*
%TO.N,/R_OUT*%
X154940000Y-69215000D02*
X157480000Y-69215000D01*
X158210000Y-69945000D02*
X158210000Y-71120000D01*
X152305000Y-67310000D02*
X154095000Y-67310000D01*
X154095000Y-67310000D02*
X154305000Y-67520000D01*
X157480000Y-69215000D02*
X158210000Y-69945000D01*
X154305000Y-68580000D02*
X154940000Y-69215000D01*
X154305000Y-67520000D02*
X154305000Y-68580000D01*
%TO.N,/LED_L*%
X169545000Y-67491348D02*
X170815000Y-67491348D01*
X173266348Y-67491348D02*
X173355000Y-67580000D01*
X170815000Y-67491348D02*
X173266348Y-67491348D01*
%TO.N,/LED_R*%
X173087899Y-62230000D02*
X168275000Y-67042899D01*
X167005000Y-67491348D02*
X168275000Y-67491348D01*
X168275000Y-67042899D02*
X168275000Y-67491348D01*
X173355000Y-62230000D02*
X173087899Y-62230000D01*
%TD*%
M02*
