%TF.GenerationSoftware,KiCad,Pcbnew,7.0.5*%
%TF.CreationDate,2023-08-11T08:16:59+02:00*%
%TF.ProjectId,FiresportTimer,46697265-7370-46f7-9274-54696d65722e,rev?*%
%TF.SameCoordinates,Original*%
%TF.FileFunction,Copper,L2,Bot*%
%TF.FilePolarity,Positive*%
%FSLAX46Y46*%
G04 Gerber Fmt 4.6, Leading zero omitted, Abs format (unit mm)*
G04 Created by KiCad (PCBNEW 7.0.5) date 2023-08-11 08:16:59*
%MOMM*%
%LPD*%
G01*
G04 APERTURE LIST*
%TA.AperFunction,ComponentPad*%
%ADD10R,1.350000X1.350000*%
%TD*%
%TA.AperFunction,ComponentPad*%
%ADD11O,1.350000X1.350000*%
%TD*%
%TA.AperFunction,ViaPad*%
%ADD12C,3.700000*%
%TD*%
G04 APERTURE END LIST*
D10*
%TO.P,CON_LED_L1,1,+*%
%TO.N,/LED_L*%
X173355000Y-67580000D03*
D11*
%TO.P,CON_LED_L1,2,-*%
%TO.N,GND*%
X173355000Y-65580000D03*
%TD*%
D10*
%TO.P,CON_OUT1,1,+*%
%TO.N,+12V*%
X152210000Y-71120000D03*
D11*
%TO.P,CON_OUT1,2,-*%
%TO.N,GND*%
X154210000Y-71120000D03*
%TO.P,CON_OUT1,3,L*%
%TO.N,/L_OUT*%
X156210000Y-71120000D03*
%TO.P,CON_OUT1,4,R*%
%TO.N,/R_OUT*%
X158210000Y-71120000D03*
%TD*%
D10*
%TO.P,CON_HAL_L1,1,+*%
%TO.N,+12V*%
X169355000Y-71120000D03*
D11*
%TO.P,CON_HAL_L1,2,-*%
%TO.N,GND*%
X171355000Y-71120000D03*
%TO.P,CON_HAL_L1,3,Q*%
%TO.N,/HAL_L*%
X173355000Y-71120000D03*
%TD*%
D10*
%TO.P,CON_LED_R1,1,+*%
%TO.N,/LED_R*%
X173355000Y-62230000D03*
D11*
%TO.P,CON_LED_R1,2,-*%
%TO.N,GND*%
X173355000Y-60230000D03*
%TD*%
D10*
%TO.P,CON_HAL_R1,1,+*%
%TO.N,+12V*%
X161830000Y-71120000D03*
D11*
%TO.P,CON_HAL_R1,2,-*%
%TO.N,GND*%
X163830000Y-71120000D03*
%TO.P,CON_HAL_R1,3,Q*%
%TO.N,/HAL_R*%
X165830000Y-71120000D03*
%TD*%
D12*
%TO.N,*%
X153670000Y-58928000D03*
%TD*%
%TA.AperFunction,Conductor*%
%TO.N,GND*%
G36*
X176442539Y-56026685D02*
G01*
X176488294Y-56079489D01*
X176499500Y-56131000D01*
X176499500Y-73875500D01*
X176479815Y-73942539D01*
X176427011Y-73988294D01*
X176375500Y-73999500D01*
X149624500Y-73999500D01*
X149557461Y-73979815D01*
X149511706Y-73927011D01*
X149500500Y-73875500D01*
X149500500Y-71842870D01*
X151034500Y-71842870D01*
X151034501Y-71842876D01*
X151040908Y-71902483D01*
X151091202Y-72037328D01*
X151091206Y-72037335D01*
X151177452Y-72152544D01*
X151177455Y-72152547D01*
X151292664Y-72238793D01*
X151292671Y-72238797D01*
X151427517Y-72289091D01*
X151427516Y-72289091D01*
X151434444Y-72289835D01*
X151487127Y-72295500D01*
X152932872Y-72295499D01*
X152992483Y-72289091D01*
X153127331Y-72238796D01*
X153242546Y-72152546D01*
X153269114Y-72117055D01*
X153305087Y-72069003D01*
X153361020Y-72027132D01*
X153430712Y-72022148D01*
X153487891Y-72051677D01*
X153498869Y-72061685D01*
X153498874Y-72061689D01*
X153684012Y-72176322D01*
X153684023Y-72176327D01*
X153887060Y-72254984D01*
X153960000Y-72268619D01*
X153960000Y-71435686D01*
X153971955Y-71447641D01*
X154084852Y-71505165D01*
X154178519Y-71520000D01*
X154241481Y-71520000D01*
X154335148Y-71505165D01*
X154448045Y-71447641D01*
X154460000Y-71435686D01*
X154460000Y-72268619D01*
X154532939Y-72254984D01*
X154735976Y-72176327D01*
X154735987Y-72176322D01*
X154921130Y-72061685D01*
X154921131Y-72061685D01*
X155082055Y-71914984D01*
X155110730Y-71877012D01*
X155166838Y-71835374D01*
X155236550Y-71830681D01*
X155297733Y-71864422D01*
X155308640Y-71877009D01*
X155327512Y-71902000D01*
X155337573Y-71915322D01*
X155498568Y-72062088D01*
X155498575Y-72062092D01*
X155498576Y-72062093D01*
X155683786Y-72176770D01*
X155683792Y-72176773D01*
X155706664Y-72185633D01*
X155886931Y-72255470D01*
X156101074Y-72295500D01*
X156101076Y-72295500D01*
X156318924Y-72295500D01*
X156318926Y-72295500D01*
X156533069Y-72255470D01*
X156736210Y-72176772D01*
X156921432Y-72062088D01*
X157082427Y-71915322D01*
X157111047Y-71877422D01*
X157167153Y-71835787D01*
X157236865Y-71831094D01*
X157298048Y-71864836D01*
X157308946Y-71877414D01*
X157337573Y-71915322D01*
X157498568Y-72062088D01*
X157498575Y-72062092D01*
X157498576Y-72062093D01*
X157683786Y-72176770D01*
X157683792Y-72176773D01*
X157706664Y-72185633D01*
X157886931Y-72255470D01*
X158101074Y-72295500D01*
X158101076Y-72295500D01*
X158318924Y-72295500D01*
X158318926Y-72295500D01*
X158533069Y-72255470D01*
X158736210Y-72176772D01*
X158921432Y-72062088D01*
X159082427Y-71915322D01*
X159137140Y-71842870D01*
X160654500Y-71842870D01*
X160654501Y-71842876D01*
X160660908Y-71902483D01*
X160711202Y-72037328D01*
X160711206Y-72037335D01*
X160797452Y-72152544D01*
X160797455Y-72152547D01*
X160912664Y-72238793D01*
X160912671Y-72238797D01*
X161047517Y-72289091D01*
X161047516Y-72289091D01*
X161054444Y-72289835D01*
X161107127Y-72295500D01*
X162552872Y-72295499D01*
X162612483Y-72289091D01*
X162747331Y-72238796D01*
X162862546Y-72152546D01*
X162889114Y-72117055D01*
X162925087Y-72069003D01*
X162981020Y-72027132D01*
X163050712Y-72022148D01*
X163107891Y-72051677D01*
X163118869Y-72061685D01*
X163118874Y-72061689D01*
X163304012Y-72176322D01*
X163304023Y-72176327D01*
X163507060Y-72254984D01*
X163580000Y-72268619D01*
X163580000Y-71435686D01*
X163591955Y-71447641D01*
X163704852Y-71505165D01*
X163798519Y-71520000D01*
X163861481Y-71520000D01*
X163955148Y-71505165D01*
X164068045Y-71447641D01*
X164080000Y-71435685D01*
X164080000Y-72268619D01*
X164152939Y-72254984D01*
X164355976Y-72176327D01*
X164355987Y-72176322D01*
X164541130Y-72061685D01*
X164541131Y-72061685D01*
X164702055Y-71914984D01*
X164730730Y-71877012D01*
X164786838Y-71835374D01*
X164856550Y-71830681D01*
X164917733Y-71864422D01*
X164928640Y-71877009D01*
X164947512Y-71902000D01*
X164957573Y-71915322D01*
X165118568Y-72062088D01*
X165118575Y-72062092D01*
X165118576Y-72062093D01*
X165303786Y-72176770D01*
X165303792Y-72176773D01*
X165326664Y-72185633D01*
X165506931Y-72255470D01*
X165721074Y-72295500D01*
X165721076Y-72295500D01*
X165938924Y-72295500D01*
X165938926Y-72295500D01*
X166153069Y-72255470D01*
X166356210Y-72176772D01*
X166541432Y-72062088D01*
X166702427Y-71915322D01*
X166757140Y-71842870D01*
X168179500Y-71842870D01*
X168179501Y-71842876D01*
X168185908Y-71902483D01*
X168236202Y-72037328D01*
X168236206Y-72037335D01*
X168322452Y-72152544D01*
X168322455Y-72152547D01*
X168437664Y-72238793D01*
X168437671Y-72238797D01*
X168572517Y-72289091D01*
X168572516Y-72289091D01*
X168579444Y-72289835D01*
X168632127Y-72295500D01*
X170077872Y-72295499D01*
X170137483Y-72289091D01*
X170272331Y-72238796D01*
X170387546Y-72152546D01*
X170414114Y-72117055D01*
X170450087Y-72069003D01*
X170506020Y-72027132D01*
X170575712Y-72022148D01*
X170632891Y-72051677D01*
X170643869Y-72061685D01*
X170643874Y-72061689D01*
X170829012Y-72176322D01*
X170829023Y-72176327D01*
X171032060Y-72254984D01*
X171105000Y-72268619D01*
X171105000Y-71435686D01*
X171116955Y-71447641D01*
X171229852Y-71505165D01*
X171323519Y-71520000D01*
X171386481Y-71520000D01*
X171480148Y-71505165D01*
X171593045Y-71447641D01*
X171605000Y-71435685D01*
X171605000Y-72268619D01*
X171677939Y-72254984D01*
X171880976Y-72176327D01*
X171880987Y-72176322D01*
X172066130Y-72061685D01*
X172066131Y-72061685D01*
X172227055Y-71914984D01*
X172255730Y-71877012D01*
X172311838Y-71835374D01*
X172381550Y-71830681D01*
X172442733Y-71864422D01*
X172453640Y-71877009D01*
X172472512Y-71902000D01*
X172482573Y-71915322D01*
X172643568Y-72062088D01*
X172643575Y-72062092D01*
X172643576Y-72062093D01*
X172828786Y-72176770D01*
X172828792Y-72176773D01*
X172851664Y-72185633D01*
X173031931Y-72255470D01*
X173246074Y-72295500D01*
X173246076Y-72295500D01*
X173463924Y-72295500D01*
X173463926Y-72295500D01*
X173678069Y-72255470D01*
X173881210Y-72176772D01*
X174066432Y-72062088D01*
X174227427Y-71915322D01*
X174358712Y-71741472D01*
X174455817Y-71546459D01*
X174515435Y-71336923D01*
X174535536Y-71120000D01*
X174515435Y-70903077D01*
X174455817Y-70693541D01*
X174358712Y-70498528D01*
X174227427Y-70324678D01*
X174066432Y-70177912D01*
X174066428Y-70177909D01*
X174066423Y-70177906D01*
X173881213Y-70063229D01*
X173881207Y-70063226D01*
X173796113Y-70030260D01*
X173678069Y-69984530D01*
X173463926Y-69944500D01*
X173246074Y-69944500D01*
X173031931Y-69984530D01*
X172988896Y-70001202D01*
X172828792Y-70063226D01*
X172828786Y-70063229D01*
X172643576Y-70177906D01*
X172643566Y-70177913D01*
X172482574Y-70324676D01*
X172453640Y-70362991D01*
X172397530Y-70404627D01*
X172327818Y-70409318D01*
X172266637Y-70375576D01*
X172255731Y-70362990D01*
X172227051Y-70325011D01*
X172227050Y-70325010D01*
X172066131Y-70178314D01*
X171880987Y-70063677D01*
X171880985Y-70063676D01*
X171677931Y-69985013D01*
X171677921Y-69985010D01*
X171605001Y-69971378D01*
X171605000Y-69971379D01*
X171605000Y-70804314D01*
X171593045Y-70792359D01*
X171480148Y-70734835D01*
X171386481Y-70720000D01*
X171323519Y-70720000D01*
X171229852Y-70734835D01*
X171116955Y-70792359D01*
X171105000Y-70804314D01*
X171105000Y-69971379D01*
X171104998Y-69971378D01*
X171032078Y-69985010D01*
X171032068Y-69985013D01*
X170829014Y-70063676D01*
X170829012Y-70063677D01*
X170643869Y-70178314D01*
X170643868Y-70178314D01*
X170632887Y-70188325D01*
X170570082Y-70218940D01*
X170500695Y-70210740D01*
X170450086Y-70170997D01*
X170387546Y-70087454D01*
X170355182Y-70063226D01*
X170272335Y-70001206D01*
X170272328Y-70001202D01*
X170137482Y-69950908D01*
X170137483Y-69950908D01*
X170077883Y-69944501D01*
X170077881Y-69944500D01*
X170077873Y-69944500D01*
X170077864Y-69944500D01*
X168632129Y-69944500D01*
X168632123Y-69944501D01*
X168572516Y-69950908D01*
X168437671Y-70001202D01*
X168437664Y-70001206D01*
X168322455Y-70087452D01*
X168322452Y-70087455D01*
X168236206Y-70202664D01*
X168236202Y-70202671D01*
X168185908Y-70337517D01*
X168179501Y-70397116D01*
X168179500Y-70397135D01*
X168179500Y-71842870D01*
X166757140Y-71842870D01*
X166833712Y-71741472D01*
X166930817Y-71546459D01*
X166990435Y-71336923D01*
X167010536Y-71120000D01*
X166990435Y-70903077D01*
X166930817Y-70693541D01*
X166833712Y-70498528D01*
X166702427Y-70324678D01*
X166541432Y-70177912D01*
X166541428Y-70177909D01*
X166541423Y-70177906D01*
X166356213Y-70063229D01*
X166356207Y-70063226D01*
X166271113Y-70030260D01*
X166153069Y-69984530D01*
X165938926Y-69944500D01*
X165721074Y-69944500D01*
X165506931Y-69984530D01*
X165463896Y-70001202D01*
X165303792Y-70063226D01*
X165303786Y-70063229D01*
X165118576Y-70177906D01*
X165118566Y-70177913D01*
X164957574Y-70324676D01*
X164928640Y-70362991D01*
X164872530Y-70404627D01*
X164802818Y-70409318D01*
X164741637Y-70375576D01*
X164730731Y-70362990D01*
X164702051Y-70325011D01*
X164702050Y-70325010D01*
X164541131Y-70178314D01*
X164355987Y-70063677D01*
X164355985Y-70063676D01*
X164152931Y-69985013D01*
X164152921Y-69985010D01*
X164080001Y-69971378D01*
X164080000Y-69971379D01*
X164080000Y-70804314D01*
X164068045Y-70792359D01*
X163955148Y-70734835D01*
X163861481Y-70720000D01*
X163798519Y-70720000D01*
X163704852Y-70734835D01*
X163591955Y-70792359D01*
X163580000Y-70804314D01*
X163580000Y-69971379D01*
X163579998Y-69971378D01*
X163507078Y-69985010D01*
X163507068Y-69985013D01*
X163304014Y-70063676D01*
X163304012Y-70063677D01*
X163118869Y-70178314D01*
X163118868Y-70178314D01*
X163107887Y-70188325D01*
X163045082Y-70218940D01*
X162975695Y-70210740D01*
X162925086Y-70170997D01*
X162862546Y-70087454D01*
X162830182Y-70063226D01*
X162747335Y-70001206D01*
X162747328Y-70001202D01*
X162612482Y-69950908D01*
X162612483Y-69950908D01*
X162552883Y-69944501D01*
X162552881Y-69944500D01*
X162552873Y-69944500D01*
X162552864Y-69944500D01*
X161107129Y-69944500D01*
X161107123Y-69944501D01*
X161047516Y-69950908D01*
X160912671Y-70001202D01*
X160912664Y-70001206D01*
X160797455Y-70087452D01*
X160797452Y-70087455D01*
X160711206Y-70202664D01*
X160711202Y-70202671D01*
X160660908Y-70337517D01*
X160654501Y-70397116D01*
X160654500Y-70397135D01*
X160654500Y-71842870D01*
X159137140Y-71842870D01*
X159213712Y-71741472D01*
X159310817Y-71546459D01*
X159370435Y-71336923D01*
X159390536Y-71120000D01*
X159370435Y-70903077D01*
X159310817Y-70693541D01*
X159213712Y-70498528D01*
X159082427Y-70324678D01*
X158921432Y-70177912D01*
X158921428Y-70177909D01*
X158921423Y-70177906D01*
X158736213Y-70063229D01*
X158736207Y-70063226D01*
X158651113Y-70030260D01*
X158533069Y-69984530D01*
X158318926Y-69944500D01*
X158101074Y-69944500D01*
X157886931Y-69984530D01*
X157843896Y-70001202D01*
X157683792Y-70063226D01*
X157683786Y-70063229D01*
X157498576Y-70177906D01*
X157498566Y-70177913D01*
X157337573Y-70324676D01*
X157308953Y-70362576D01*
X157252844Y-70404211D01*
X157183132Y-70408902D01*
X157121950Y-70375159D01*
X157111047Y-70362576D01*
X157082426Y-70324676D01*
X156921433Y-70177913D01*
X156921423Y-70177906D01*
X156736213Y-70063229D01*
X156736207Y-70063226D01*
X156651113Y-70030260D01*
X156533069Y-69984530D01*
X156318926Y-69944500D01*
X156101074Y-69944500D01*
X155886931Y-69984530D01*
X155843896Y-70001202D01*
X155683792Y-70063226D01*
X155683786Y-70063229D01*
X155498576Y-70177906D01*
X155498566Y-70177913D01*
X155337574Y-70324676D01*
X155308640Y-70362991D01*
X155252530Y-70404627D01*
X155182818Y-70409318D01*
X155121637Y-70375576D01*
X155110731Y-70362990D01*
X155082051Y-70325011D01*
X155082050Y-70325010D01*
X154921131Y-70178314D01*
X154735987Y-70063677D01*
X154735985Y-70063676D01*
X154532931Y-69985013D01*
X154532921Y-69985010D01*
X154460001Y-69971378D01*
X154460000Y-69971379D01*
X154460000Y-70804314D01*
X154448045Y-70792359D01*
X154335148Y-70734835D01*
X154241481Y-70720000D01*
X154178519Y-70720000D01*
X154084852Y-70734835D01*
X153971955Y-70792359D01*
X153960000Y-70804314D01*
X153960000Y-69971379D01*
X153959998Y-69971378D01*
X153887078Y-69985010D01*
X153887068Y-69985013D01*
X153684014Y-70063676D01*
X153684012Y-70063677D01*
X153498869Y-70178314D01*
X153498868Y-70178314D01*
X153487887Y-70188325D01*
X153425082Y-70218940D01*
X153355695Y-70210740D01*
X153305086Y-70170997D01*
X153242546Y-70087454D01*
X153210182Y-70063226D01*
X153127335Y-70001206D01*
X153127328Y-70001202D01*
X152992482Y-69950908D01*
X152992483Y-69950908D01*
X152932883Y-69944501D01*
X152932881Y-69944500D01*
X152932873Y-69944500D01*
X152932864Y-69944500D01*
X151487129Y-69944500D01*
X151487123Y-69944501D01*
X151427516Y-69950908D01*
X151292671Y-70001202D01*
X151292664Y-70001206D01*
X151177455Y-70087452D01*
X151177452Y-70087455D01*
X151091206Y-70202664D01*
X151091202Y-70202671D01*
X151040908Y-70337517D01*
X151034501Y-70397116D01*
X151034500Y-70397135D01*
X151034500Y-71842870D01*
X149500500Y-71842870D01*
X149500500Y-68302870D01*
X172179500Y-68302870D01*
X172179501Y-68302876D01*
X172185908Y-68362483D01*
X172236202Y-68497328D01*
X172236206Y-68497335D01*
X172322452Y-68612544D01*
X172322455Y-68612547D01*
X172437664Y-68698793D01*
X172437671Y-68698797D01*
X172572517Y-68749091D01*
X172572516Y-68749091D01*
X172579444Y-68749835D01*
X172632127Y-68755500D01*
X174077872Y-68755499D01*
X174137483Y-68749091D01*
X174272331Y-68698796D01*
X174387546Y-68612546D01*
X174473796Y-68497331D01*
X174524091Y-68362483D01*
X174530500Y-68302873D01*
X174530499Y-66857128D01*
X174524091Y-66797517D01*
X174473796Y-66662669D01*
X174473795Y-66662668D01*
X174473793Y-66662664D01*
X174387547Y-66547455D01*
X174301494Y-66483035D01*
X174259624Y-66427101D01*
X174254640Y-66357409D01*
X174276852Y-66309042D01*
X174358284Y-66201208D01*
X174455348Y-66006280D01*
X174505505Y-65830000D01*
X173670686Y-65830000D01*
X173682641Y-65818045D01*
X173740165Y-65705148D01*
X173759986Y-65580000D01*
X173740165Y-65454852D01*
X173682641Y-65341955D01*
X173670686Y-65330000D01*
X174505505Y-65330000D01*
X174505505Y-65329999D01*
X174455348Y-65153719D01*
X174358284Y-64958791D01*
X174227054Y-64785014D01*
X174066131Y-64638314D01*
X173880987Y-64523677D01*
X173880985Y-64523676D01*
X173677931Y-64445013D01*
X173677921Y-64445010D01*
X173605001Y-64431378D01*
X173605000Y-64431379D01*
X173605000Y-65264314D01*
X173593045Y-65252359D01*
X173480148Y-65194835D01*
X173386481Y-65180000D01*
X173323519Y-65180000D01*
X173229852Y-65194835D01*
X173116955Y-65252359D01*
X173105000Y-65264313D01*
X173105000Y-64431379D01*
X173104998Y-64431378D01*
X173032078Y-64445010D01*
X173032068Y-64445013D01*
X172829014Y-64523676D01*
X172829012Y-64523677D01*
X172643869Y-64638314D01*
X172643868Y-64638314D01*
X172482945Y-64785014D01*
X172351715Y-64958791D01*
X172254651Y-65153719D01*
X172204494Y-65329999D01*
X172204495Y-65330000D01*
X173039314Y-65330000D01*
X173027359Y-65341955D01*
X172969835Y-65454852D01*
X172950014Y-65580000D01*
X172969835Y-65705148D01*
X173027359Y-65818045D01*
X173039314Y-65830000D01*
X172204495Y-65830000D01*
X172254651Y-66006280D01*
X172351715Y-66201208D01*
X172433147Y-66309042D01*
X172457839Y-66374404D01*
X172443274Y-66442738D01*
X172408505Y-66483035D01*
X172322452Y-66547455D01*
X172236206Y-66662664D01*
X172236202Y-66662671D01*
X172185908Y-66797517D01*
X172179501Y-66857116D01*
X172179501Y-66857123D01*
X172179500Y-66857135D01*
X172179500Y-68302870D01*
X149500500Y-68302870D01*
X149500500Y-62952870D01*
X172179500Y-62952870D01*
X172179501Y-62952876D01*
X172185908Y-63012483D01*
X172236202Y-63147328D01*
X172236206Y-63147335D01*
X172322452Y-63262544D01*
X172322455Y-63262547D01*
X172437664Y-63348793D01*
X172437671Y-63348797D01*
X172572517Y-63399091D01*
X172572516Y-63399091D01*
X172579444Y-63399835D01*
X172632127Y-63405500D01*
X174077872Y-63405499D01*
X174137483Y-63399091D01*
X174272331Y-63348796D01*
X174387546Y-63262546D01*
X174473796Y-63147331D01*
X174524091Y-63012483D01*
X174530500Y-62952873D01*
X174530499Y-61507128D01*
X174524091Y-61447517D01*
X174473796Y-61312669D01*
X174473795Y-61312668D01*
X174473793Y-61312664D01*
X174387547Y-61197455D01*
X174301494Y-61133035D01*
X174259624Y-61077101D01*
X174254640Y-61007409D01*
X174276852Y-60959042D01*
X174358284Y-60851208D01*
X174455348Y-60656280D01*
X174505505Y-60480000D01*
X173670686Y-60480000D01*
X173682641Y-60468045D01*
X173740165Y-60355148D01*
X173759986Y-60230000D01*
X173740165Y-60104852D01*
X173682641Y-59991955D01*
X173670686Y-59980000D01*
X174505505Y-59980000D01*
X174505505Y-59979999D01*
X174455348Y-59803719D01*
X174358284Y-59608791D01*
X174227054Y-59435014D01*
X174066131Y-59288314D01*
X173880987Y-59173677D01*
X173880985Y-59173676D01*
X173677931Y-59095013D01*
X173677921Y-59095010D01*
X173605001Y-59081378D01*
X173605000Y-59081379D01*
X173605000Y-59914314D01*
X173593045Y-59902359D01*
X173480148Y-59844835D01*
X173386481Y-59830000D01*
X173323519Y-59830000D01*
X173229852Y-59844835D01*
X173116955Y-59902359D01*
X173105000Y-59914313D01*
X173105000Y-59081379D01*
X173104998Y-59081378D01*
X173032078Y-59095010D01*
X173032068Y-59095013D01*
X172829014Y-59173676D01*
X172829012Y-59173677D01*
X172643869Y-59288314D01*
X172643868Y-59288314D01*
X172482945Y-59435014D01*
X172351715Y-59608791D01*
X172254651Y-59803719D01*
X172204494Y-59979999D01*
X172204495Y-59980000D01*
X173039314Y-59980000D01*
X173027359Y-59991955D01*
X172969835Y-60104852D01*
X172950014Y-60230000D01*
X172969835Y-60355148D01*
X173027359Y-60468045D01*
X173039314Y-60480000D01*
X172204495Y-60480000D01*
X172254651Y-60656280D01*
X172351715Y-60851208D01*
X172433147Y-60959042D01*
X172457839Y-61024404D01*
X172443274Y-61092738D01*
X172408505Y-61133035D01*
X172322452Y-61197455D01*
X172236206Y-61312664D01*
X172236202Y-61312671D01*
X172185908Y-61447517D01*
X172179501Y-61507116D01*
X172179501Y-61507123D01*
X172179500Y-61507135D01*
X172179500Y-62952870D01*
X149500500Y-62952870D01*
X149500500Y-58928000D01*
X151314457Y-58928000D01*
X151330559Y-59173676D01*
X151334609Y-59235458D01*
X151334611Y-59235470D01*
X151394718Y-59537651D01*
X151394723Y-59537671D01*
X151493758Y-59829419D01*
X151493762Y-59829429D01*
X151630037Y-60105767D01*
X151630041Y-60105774D01*
X151801212Y-60361951D01*
X151801218Y-60361958D01*
X151801222Y-60361964D01*
X151894253Y-60468045D01*
X152004379Y-60593620D01*
X152112616Y-60688540D01*
X152236036Y-60796778D01*
X152236042Y-60796782D01*
X152236048Y-60796787D01*
X152492225Y-60967958D01*
X152492232Y-60967962D01*
X152768570Y-61104237D01*
X152768580Y-61104241D01*
X153060328Y-61203276D01*
X153060332Y-61203277D01*
X153060341Y-61203280D01*
X153362540Y-61263391D01*
X153670000Y-61283543D01*
X153977460Y-61263391D01*
X154279659Y-61203280D01*
X154296822Y-61197454D01*
X154571419Y-61104241D01*
X154571429Y-61104237D01*
X154594747Y-61092738D01*
X154847772Y-60967960D01*
X155103964Y-60796778D01*
X155335620Y-60593620D01*
X155538778Y-60361964D01*
X155543333Y-60355148D01*
X155593725Y-60279729D01*
X155709960Y-60105772D01*
X155846238Y-59829427D01*
X155945280Y-59537659D01*
X156005391Y-59235460D01*
X156025543Y-58928000D01*
X156005391Y-58620540D01*
X155945280Y-58318341D01*
X155846238Y-58026573D01*
X155846230Y-58026556D01*
X155709965Y-57750238D01*
X155709956Y-57750223D01*
X155707651Y-57746774D01*
X155538778Y-57494036D01*
X155494267Y-57443281D01*
X155335620Y-57262379D01*
X155212200Y-57154142D01*
X155103964Y-57059222D01*
X155103958Y-57059218D01*
X155103951Y-57059212D01*
X154847774Y-56888041D01*
X154847767Y-56888037D01*
X154571429Y-56751762D01*
X154571419Y-56751758D01*
X154279671Y-56652723D01*
X154279651Y-56652718D01*
X153977470Y-56592611D01*
X153977460Y-56592609D01*
X153670000Y-56572457D01*
X153362540Y-56592609D01*
X153362534Y-56592610D01*
X153362529Y-56592611D01*
X153060348Y-56652718D01*
X153060333Y-56652722D01*
X152768577Y-56751760D01*
X152768556Y-56751769D01*
X152492238Y-56888034D01*
X152492223Y-56888043D01*
X152236034Y-57059223D01*
X152004379Y-57262379D01*
X151801223Y-57494034D01*
X151630043Y-57750223D01*
X151630034Y-57750238D01*
X151493769Y-58026556D01*
X151493760Y-58026577D01*
X151394722Y-58318333D01*
X151394718Y-58318348D01*
X151334611Y-58620529D01*
X151334609Y-58620540D01*
X151314457Y-58928000D01*
X149500500Y-58928000D01*
X149500500Y-56131000D01*
X149520185Y-56063961D01*
X149572989Y-56018206D01*
X149624500Y-56007000D01*
X176375500Y-56007000D01*
X176442539Y-56026685D01*
G37*
%TD.AperFunction*%
%TD*%
M02*
