%TF.GenerationSoftware,KiCad,Pcbnew,7.0.5*%
%TF.CreationDate,2023-08-11T08:16:59+02:00*%
%TF.ProjectId,FiresportTimer,46697265-7370-46f7-9274-54696d65722e,rev?*%
%TF.SameCoordinates,Original*%
%TF.FileFunction,Legend,Top*%
%TF.FilePolarity,Positive*%
%FSLAX46Y46*%
G04 Gerber Fmt 4.6, Leading zero omitted, Abs format (unit mm)*
G04 Created by KiCad (PCBNEW 7.0.5) date 2023-08-11 08:16:59*
%MOMM*%
%LPD*%
G01*
G04 APERTURE LIST*
%ADD10C,0.358981*%
%ADD11C,0.250000*%
%ADD12C,0.120000*%
%ADD13C,0.152400*%
G04 APERTURE END LIST*
D10*
X170994490Y-63373000D02*
G75*
G03*
X170994490Y-63373000I-179490J0D01*
G01*
D11*
X168910048Y-72889666D02*
X169671953Y-72889666D01*
X169291000Y-73270619D02*
X169291000Y-72508714D01*
X163449048Y-72889666D02*
X164210953Y-72889666D01*
X170942048Y-72889666D02*
X171703953Y-72889666D01*
X174879048Y-65523666D02*
X175640953Y-65523666D01*
X174879048Y-67555666D02*
X175640953Y-67555666D01*
X175260000Y-67936619D02*
X175260000Y-67174714D01*
X156519523Y-73397619D02*
X156043333Y-73397619D01*
X156043333Y-73397619D02*
X156043333Y-72397619D01*
X153797048Y-72889666D02*
X154558953Y-72889666D01*
X174879048Y-60189666D02*
X175640953Y-60189666D01*
X173735952Y-73492857D02*
X173640714Y-73445238D01*
X173640714Y-73445238D02*
X173545476Y-73350000D01*
X173545476Y-73350000D02*
X173402619Y-73207142D01*
X173402619Y-73207142D02*
X173307381Y-73159523D01*
X173307381Y-73159523D02*
X173212143Y-73159523D01*
X173259762Y-73397619D02*
X173164524Y-73350000D01*
X173164524Y-73350000D02*
X173069286Y-73254761D01*
X173069286Y-73254761D02*
X173021667Y-73064285D01*
X173021667Y-73064285D02*
X173021667Y-72730952D01*
X173021667Y-72730952D02*
X173069286Y-72540476D01*
X173069286Y-72540476D02*
X173164524Y-72445238D01*
X173164524Y-72445238D02*
X173259762Y-72397619D01*
X173259762Y-72397619D02*
X173450238Y-72397619D01*
X173450238Y-72397619D02*
X173545476Y-72445238D01*
X173545476Y-72445238D02*
X173640714Y-72540476D01*
X173640714Y-72540476D02*
X173688333Y-72730952D01*
X173688333Y-72730952D02*
X173688333Y-73064285D01*
X173688333Y-73064285D02*
X173640714Y-73254761D01*
X173640714Y-73254761D02*
X173545476Y-73350000D01*
X173545476Y-73350000D02*
X173450238Y-73397619D01*
X173450238Y-73397619D02*
X173259762Y-73397619D01*
X174879048Y-62221666D02*
X175640953Y-62221666D01*
X175260000Y-62602619D02*
X175260000Y-61840714D01*
X161417048Y-72889666D02*
X162178953Y-72889666D01*
X161798000Y-73270619D02*
X161798000Y-72508714D01*
X151765048Y-72889666D02*
X152526953Y-72889666D01*
X152146000Y-73270619D02*
X152146000Y-72508714D01*
X158551523Y-73397619D02*
X158218190Y-72921428D01*
X157980095Y-73397619D02*
X157980095Y-72397619D01*
X157980095Y-72397619D02*
X158361047Y-72397619D01*
X158361047Y-72397619D02*
X158456285Y-72445238D01*
X158456285Y-72445238D02*
X158503904Y-72492857D01*
X158503904Y-72492857D02*
X158551523Y-72588095D01*
X158551523Y-72588095D02*
X158551523Y-72730952D01*
X158551523Y-72730952D02*
X158503904Y-72826190D01*
X158503904Y-72826190D02*
X158456285Y-72873809D01*
X158456285Y-72873809D02*
X158361047Y-72921428D01*
X158361047Y-72921428D02*
X157980095Y-72921428D01*
X166242952Y-73492857D02*
X166147714Y-73445238D01*
X166147714Y-73445238D02*
X166052476Y-73350000D01*
X166052476Y-73350000D02*
X165909619Y-73207142D01*
X165909619Y-73207142D02*
X165814381Y-73159523D01*
X165814381Y-73159523D02*
X165719143Y-73159523D01*
X165766762Y-73397619D02*
X165671524Y-73350000D01*
X165671524Y-73350000D02*
X165576286Y-73254761D01*
X165576286Y-73254761D02*
X165528667Y-73064285D01*
X165528667Y-73064285D02*
X165528667Y-72730952D01*
X165528667Y-72730952D02*
X165576286Y-72540476D01*
X165576286Y-72540476D02*
X165671524Y-72445238D01*
X165671524Y-72445238D02*
X165766762Y-72397619D01*
X165766762Y-72397619D02*
X165957238Y-72397619D01*
X165957238Y-72397619D02*
X166052476Y-72445238D01*
X166052476Y-72445238D02*
X166147714Y-72540476D01*
X166147714Y-72540476D02*
X166195333Y-72730952D01*
X166195333Y-72730952D02*
X166195333Y-73064285D01*
X166195333Y-73064285D02*
X166147714Y-73254761D01*
X166147714Y-73254761D02*
X166052476Y-73350000D01*
X166052476Y-73350000D02*
X165957238Y-73397619D01*
X165957238Y-73397619D02*
X165766762Y-73397619D01*
D12*
%TO.C,CON_LED_L1*%
X174415000Y-68640000D02*
X173355000Y-68640000D01*
X174415000Y-67580000D02*
X174415000Y-68640000D01*
X174415000Y-66580000D02*
X174415000Y-64520000D01*
X174415000Y-66580000D02*
X172295000Y-66580000D01*
X174415000Y-64520000D02*
X172295000Y-64520000D01*
X172295000Y-66580000D02*
X172295000Y-64520000D01*
%TO.C,CON_OUT1*%
X151150000Y-72180000D02*
X151150000Y-71120000D01*
X152210000Y-72180000D02*
X151150000Y-72180000D01*
X153210000Y-72180000D02*
X159270000Y-72180000D01*
X153210000Y-72180000D02*
X153210000Y-70060000D01*
X159270000Y-72180000D02*
X159270000Y-70060000D01*
X153210000Y-70060000D02*
X159270000Y-70060000D01*
%TO.C,D_OUT_R1*%
X157815000Y-68960000D02*
X157815000Y-65660000D01*
X157815000Y-68960000D02*
X152305000Y-68960000D01*
X157815000Y-65660000D02*
X152305000Y-65660000D01*
%TO.C,D_GATE_L1*%
X158415000Y-61850000D02*
X158415000Y-65150000D01*
X158415000Y-61850000D02*
X163925000Y-61850000D01*
X158415000Y-65150000D02*
X163925000Y-65150000D01*
%TO.C,CON_HAL_L1*%
X168295000Y-72180000D02*
X168295000Y-71120000D01*
X169355000Y-72180000D02*
X168295000Y-72180000D01*
X170355000Y-72180000D02*
X174415000Y-72180000D01*
X170355000Y-72180000D02*
X170355000Y-70060000D01*
X174415000Y-72180000D02*
X174415000Y-70060000D01*
X170355000Y-70060000D02*
X174415000Y-70060000D01*
%TO.C,D_OUT_L1*%
X157815000Y-65150000D02*
X157815000Y-61850000D01*
X157815000Y-65150000D02*
X152305000Y-65150000D01*
X157815000Y-61850000D02*
X152305000Y-61850000D01*
%TO.C,D_GATE_R1*%
X158415000Y-65660000D02*
X158415000Y-68960000D01*
X158415000Y-65660000D02*
X163925000Y-65660000D01*
X158415000Y-68960000D02*
X163925000Y-68960000D01*
D13*
%TO.C,Q1*%
X166281100Y-62649100D02*
X166281100Y-66890900D01*
X171538900Y-66890900D02*
X171538900Y-62649100D01*
D12*
%TO.C,R_PULLUP_R1*%
X162817064Y-60415000D02*
X159762936Y-60415000D01*
X162817064Y-57695000D02*
X159762936Y-57695000D01*
%TO.C,CON_LED_R1*%
X174415000Y-63290000D02*
X173355000Y-63290000D01*
X174415000Y-62230000D02*
X174415000Y-63290000D01*
X174415000Y-61230000D02*
X174415000Y-59170000D01*
X174415000Y-61230000D02*
X172295000Y-61230000D01*
X174415000Y-59170000D02*
X172295000Y-59170000D01*
X172295000Y-61230000D02*
X172295000Y-59170000D01*
%TO.C,R_PULLUP_L1*%
X169802064Y-60415000D02*
X166747936Y-60415000D01*
X169802064Y-57695000D02*
X166747936Y-57695000D01*
%TO.C,CON_HAL_R1*%
X160770000Y-72180000D02*
X160770000Y-71120000D01*
X161830000Y-72180000D02*
X160770000Y-72180000D01*
X162830000Y-72180000D02*
X166890000Y-72180000D01*
X162830000Y-72180000D02*
X162830000Y-70060000D01*
X166890000Y-72180000D02*
X166890000Y-70060000D01*
X162830000Y-70060000D02*
X166890000Y-70060000D01*
%TD*%
M02*
