%TF.GenerationSoftware,KiCad,Pcbnew,8.0.1*%
%TF.CreationDate,2024-08-03T11:03:16+02:00*%
%TF.ProjectId,FT_TargetSwitch,46545f54-6172-4676-9574-537769746368,rev?*%
%TF.SameCoordinates,Original*%
%TF.FileFunction,Drillmap*%
%TF.FilePolarity,Positive*%
%FSLAX45Y45*%
G04 Gerber Fmt 4.5, Leading zero omitted, Abs format (unit mm)*
G04 Created by KiCad (PCBNEW 8.0.1) date 2024-08-03 11:03:16*
%MOMM*%
%LPD*%
G01*
G04 APERTURE LIST*
%ADD10C,0.050000*%
%ADD11C,0.200000*%
%ADD12C,0.100000*%
G04 APERTURE END LIST*
D10*
X12250000Y-13300000D02*
G75*
G02*
X11750000Y-13300000I-250000J0D01*
G01*
X11750000Y-13300000D02*
G75*
G02*
X12250000Y-13300000I250000J0D01*
G01*
X10000000Y-10000000D02*
X14000000Y-10000000D01*
X14000000Y-14000000D01*
X10000000Y-14000000D01*
X10000000Y-10000000D01*
X12250000Y-10500000D02*
G75*
G02*
X11750000Y-10500000I-250000J0D01*
G01*
X11750000Y-10500000D02*
G75*
G02*
X12250000Y-10500000I250000J0D01*
G01*
D11*
D12*
X11735000Y-12185000D02*
X11765000Y-12215000D01*
X11765000Y-12185000D02*
X11735000Y-12215000D01*
X11735000Y-12435000D02*
X11765000Y-12465000D01*
X11765000Y-12435000D02*
X11735000Y-12465000D01*
X11735000Y-12685000D02*
X11765000Y-12715000D01*
X11765000Y-12685000D02*
X11735000Y-12715000D01*
X11985000Y-12185000D02*
X12015000Y-12215000D01*
X12015000Y-12185000D02*
X11985000Y-12215000D01*
X11985000Y-12435000D02*
X12015000Y-12465000D01*
X12015000Y-12435000D02*
X11985000Y-12465000D01*
X11985000Y-12685000D02*
X12015000Y-12715000D01*
X12015000Y-12685000D02*
X11985000Y-12715000D01*
X12185000Y-12185000D02*
X12215000Y-12215000D01*
X12215000Y-12185000D02*
X12185000Y-12215000D01*
X12185000Y-12435000D02*
X12215000Y-12465000D01*
X12215000Y-12435000D02*
X12185000Y-12465000D01*
X12185000Y-12685000D02*
X12215000Y-12715000D01*
X12215000Y-12685000D02*
X12185000Y-12715000D01*
X12195800Y-11628400D02*
X12225800Y-11658400D01*
X12225800Y-11628400D02*
X12195800Y-11658400D01*
X10770300Y-11410300D02*
G75*
G02*
X10670300Y-11410300I-50000J0D01*
G01*
X10670300Y-11410300D02*
G75*
G02*
X10770300Y-11410300I50000J0D01*
G01*
X10896000Y-12700000D02*
G75*
G02*
X10796000Y-12700000I-50000J0D01*
G01*
X10796000Y-12700000D02*
G75*
G02*
X10896000Y-12700000I50000J0D01*
G01*
X11024300Y-11410300D02*
G75*
G02*
X10924300Y-11410300I-50000J0D01*
G01*
X10924300Y-11410300D02*
G75*
G02*
X11024300Y-11410300I50000J0D01*
G01*
X11150000Y-12700000D02*
G75*
G02*
X11050000Y-12700000I-50000J0D01*
G01*
X11050000Y-12700000D02*
G75*
G02*
X11150000Y-12700000I50000J0D01*
G01*
X11278300Y-11410300D02*
G75*
G02*
X11178300Y-11410300I-50000J0D01*
G01*
X11178300Y-11410300D02*
G75*
G02*
X11278300Y-11410300I50000J0D01*
G01*
X12725600Y-11410300D02*
G75*
G02*
X12625600Y-11410300I-50000J0D01*
G01*
X12625600Y-11410300D02*
G75*
G02*
X12725600Y-11410300I50000J0D01*
G01*
X12942000Y-12700000D02*
G75*
G02*
X12842000Y-12700000I-50000J0D01*
G01*
X12842000Y-12700000D02*
G75*
G02*
X12942000Y-12700000I50000J0D01*
G01*
X12979600Y-11410300D02*
G75*
G02*
X12879600Y-11410300I-50000J0D01*
G01*
X12879600Y-11410300D02*
G75*
G02*
X12979600Y-11410300I50000J0D01*
G01*
X13196000Y-12700000D02*
G75*
G02*
X13096000Y-12700000I-50000J0D01*
G01*
X13096000Y-12700000D02*
G75*
G02*
X13196000Y-12700000I50000J0D01*
G01*
X13233600Y-11410300D02*
G75*
G02*
X13133600Y-11410300I-50000J0D01*
G01*
X13133600Y-11410300D02*
G75*
G02*
X13233600Y-11410300I50000J0D01*
G01*
X13450000Y-12700000D02*
G75*
G02*
X13350000Y-12700000I-50000J0D01*
G01*
X13350000Y-12700000D02*
G75*
G02*
X13450000Y-12700000I50000J0D01*
G01*
X13487600Y-11410300D02*
G75*
G02*
X13387600Y-11410300I-50000J0D01*
G01*
X13387600Y-11410300D02*
G75*
G02*
X13487600Y-11410300I50000J0D01*
G01*
D11*
X10258277Y-14313984D02*
X10258277Y-14113984D01*
X10258277Y-14113984D02*
X10305896Y-14113984D01*
X10305896Y-14113984D02*
X10334467Y-14123508D01*
X10334467Y-14123508D02*
X10353515Y-14142555D01*
X10353515Y-14142555D02*
X10363039Y-14161603D01*
X10363039Y-14161603D02*
X10372563Y-14199698D01*
X10372563Y-14199698D02*
X10372563Y-14228269D01*
X10372563Y-14228269D02*
X10363039Y-14266365D01*
X10363039Y-14266365D02*
X10353515Y-14285412D01*
X10353515Y-14285412D02*
X10334467Y-14304460D01*
X10334467Y-14304460D02*
X10305896Y-14313984D01*
X10305896Y-14313984D02*
X10258277Y-14313984D01*
X10458277Y-14313984D02*
X10458277Y-14180650D01*
X10458277Y-14218746D02*
X10467801Y-14199698D01*
X10467801Y-14199698D02*
X10477324Y-14190174D01*
X10477324Y-14190174D02*
X10496372Y-14180650D01*
X10496372Y-14180650D02*
X10515420Y-14180650D01*
X10582086Y-14313984D02*
X10582086Y-14180650D01*
X10582086Y-14113984D02*
X10572563Y-14123508D01*
X10572563Y-14123508D02*
X10582086Y-14133031D01*
X10582086Y-14133031D02*
X10591610Y-14123508D01*
X10591610Y-14123508D02*
X10582086Y-14113984D01*
X10582086Y-14113984D02*
X10582086Y-14133031D01*
X10705896Y-14313984D02*
X10686848Y-14304460D01*
X10686848Y-14304460D02*
X10677324Y-14285412D01*
X10677324Y-14285412D02*
X10677324Y-14113984D01*
X10810658Y-14313984D02*
X10791610Y-14304460D01*
X10791610Y-14304460D02*
X10782086Y-14285412D01*
X10782086Y-14285412D02*
X10782086Y-14113984D01*
X11039229Y-14313984D02*
X11039229Y-14113984D01*
X11039229Y-14113984D02*
X11105896Y-14256841D01*
X11105896Y-14256841D02*
X11172563Y-14113984D01*
X11172563Y-14113984D02*
X11172563Y-14313984D01*
X11353515Y-14313984D02*
X11353515Y-14209222D01*
X11353515Y-14209222D02*
X11343991Y-14190174D01*
X11343991Y-14190174D02*
X11324943Y-14180650D01*
X11324943Y-14180650D02*
X11286848Y-14180650D01*
X11286848Y-14180650D02*
X11267801Y-14190174D01*
X11353515Y-14304460D02*
X11334467Y-14313984D01*
X11334467Y-14313984D02*
X11286848Y-14313984D01*
X11286848Y-14313984D02*
X11267801Y-14304460D01*
X11267801Y-14304460D02*
X11258277Y-14285412D01*
X11258277Y-14285412D02*
X11258277Y-14266365D01*
X11258277Y-14266365D02*
X11267801Y-14247317D01*
X11267801Y-14247317D02*
X11286848Y-14237793D01*
X11286848Y-14237793D02*
X11334467Y-14237793D01*
X11334467Y-14237793D02*
X11353515Y-14228269D01*
X11448753Y-14180650D02*
X11448753Y-14380650D01*
X11448753Y-14190174D02*
X11467801Y-14180650D01*
X11467801Y-14180650D02*
X11505896Y-14180650D01*
X11505896Y-14180650D02*
X11524943Y-14190174D01*
X11524943Y-14190174D02*
X11534467Y-14199698D01*
X11534467Y-14199698D02*
X11543991Y-14218746D01*
X11543991Y-14218746D02*
X11543991Y-14275888D01*
X11543991Y-14275888D02*
X11534467Y-14294936D01*
X11534467Y-14294936D02*
X11524943Y-14304460D01*
X11524943Y-14304460D02*
X11505896Y-14313984D01*
X11505896Y-14313984D02*
X11467801Y-14313984D01*
X11467801Y-14313984D02*
X11448753Y-14304460D01*
X11629705Y-14294936D02*
X11639229Y-14304460D01*
X11639229Y-14304460D02*
X11629705Y-14313984D01*
X11629705Y-14313984D02*
X11620182Y-14304460D01*
X11620182Y-14304460D02*
X11629705Y-14294936D01*
X11629705Y-14294936D02*
X11629705Y-14313984D01*
X11629705Y-14190174D02*
X11639229Y-14199698D01*
X11639229Y-14199698D02*
X11629705Y-14209222D01*
X11629705Y-14209222D02*
X11620182Y-14199698D01*
X11620182Y-14199698D02*
X11629705Y-14190174D01*
X11629705Y-14190174D02*
X11629705Y-14209222D01*
D12*
X9967500Y-14627500D02*
X9997500Y-14657500D01*
X9997500Y-14627500D02*
X9967500Y-14657500D01*
D11*
X10296372Y-14533984D02*
X10315420Y-14533984D01*
X10315420Y-14533984D02*
X10334467Y-14543508D01*
X10334467Y-14543508D02*
X10343991Y-14553031D01*
X10343991Y-14553031D02*
X10353515Y-14572079D01*
X10353515Y-14572079D02*
X10363039Y-14610174D01*
X10363039Y-14610174D02*
X10363039Y-14657793D01*
X10363039Y-14657793D02*
X10353515Y-14695888D01*
X10353515Y-14695888D02*
X10343991Y-14714936D01*
X10343991Y-14714936D02*
X10334467Y-14724460D01*
X10334467Y-14724460D02*
X10315420Y-14733984D01*
X10315420Y-14733984D02*
X10296372Y-14733984D01*
X10296372Y-14733984D02*
X10277324Y-14724460D01*
X10277324Y-14724460D02*
X10267801Y-14714936D01*
X10267801Y-14714936D02*
X10258277Y-14695888D01*
X10258277Y-14695888D02*
X10248753Y-14657793D01*
X10248753Y-14657793D02*
X10248753Y-14610174D01*
X10248753Y-14610174D02*
X10258277Y-14572079D01*
X10258277Y-14572079D02*
X10267801Y-14553031D01*
X10267801Y-14553031D02*
X10277324Y-14543508D01*
X10277324Y-14543508D02*
X10296372Y-14533984D01*
X10448753Y-14714936D02*
X10458277Y-14724460D01*
X10458277Y-14724460D02*
X10448753Y-14733984D01*
X10448753Y-14733984D02*
X10439229Y-14724460D01*
X10439229Y-14724460D02*
X10448753Y-14714936D01*
X10448753Y-14714936D02*
X10448753Y-14733984D01*
X10524944Y-14533984D02*
X10648753Y-14533984D01*
X10648753Y-14533984D02*
X10582086Y-14610174D01*
X10582086Y-14610174D02*
X10610658Y-14610174D01*
X10610658Y-14610174D02*
X10629705Y-14619698D01*
X10629705Y-14619698D02*
X10639229Y-14629222D01*
X10639229Y-14629222D02*
X10648753Y-14648269D01*
X10648753Y-14648269D02*
X10648753Y-14695888D01*
X10648753Y-14695888D02*
X10639229Y-14714936D01*
X10639229Y-14714936D02*
X10629705Y-14724460D01*
X10629705Y-14724460D02*
X10610658Y-14733984D01*
X10610658Y-14733984D02*
X10553515Y-14733984D01*
X10553515Y-14733984D02*
X10534467Y-14724460D01*
X10534467Y-14724460D02*
X10524944Y-14714936D01*
X10772563Y-14533984D02*
X10791610Y-14533984D01*
X10791610Y-14533984D02*
X10810658Y-14543508D01*
X10810658Y-14543508D02*
X10820182Y-14553031D01*
X10820182Y-14553031D02*
X10829705Y-14572079D01*
X10829705Y-14572079D02*
X10839229Y-14610174D01*
X10839229Y-14610174D02*
X10839229Y-14657793D01*
X10839229Y-14657793D02*
X10829705Y-14695888D01*
X10829705Y-14695888D02*
X10820182Y-14714936D01*
X10820182Y-14714936D02*
X10810658Y-14724460D01*
X10810658Y-14724460D02*
X10791610Y-14733984D01*
X10791610Y-14733984D02*
X10772563Y-14733984D01*
X10772563Y-14733984D02*
X10753515Y-14724460D01*
X10753515Y-14724460D02*
X10743991Y-14714936D01*
X10743991Y-14714936D02*
X10734467Y-14695888D01*
X10734467Y-14695888D02*
X10724944Y-14657793D01*
X10724944Y-14657793D02*
X10724944Y-14610174D01*
X10724944Y-14610174D02*
X10734467Y-14572079D01*
X10734467Y-14572079D02*
X10743991Y-14553031D01*
X10743991Y-14553031D02*
X10753515Y-14543508D01*
X10753515Y-14543508D02*
X10772563Y-14533984D01*
X10963039Y-14533984D02*
X10982086Y-14533984D01*
X10982086Y-14533984D02*
X11001134Y-14543508D01*
X11001134Y-14543508D02*
X11010658Y-14553031D01*
X11010658Y-14553031D02*
X11020182Y-14572079D01*
X11020182Y-14572079D02*
X11029705Y-14610174D01*
X11029705Y-14610174D02*
X11029705Y-14657793D01*
X11029705Y-14657793D02*
X11020182Y-14695888D01*
X11020182Y-14695888D02*
X11010658Y-14714936D01*
X11010658Y-14714936D02*
X11001134Y-14724460D01*
X11001134Y-14724460D02*
X10982086Y-14733984D01*
X10982086Y-14733984D02*
X10963039Y-14733984D01*
X10963039Y-14733984D02*
X10943991Y-14724460D01*
X10943991Y-14724460D02*
X10934467Y-14714936D01*
X10934467Y-14714936D02*
X10924944Y-14695888D01*
X10924944Y-14695888D02*
X10915420Y-14657793D01*
X10915420Y-14657793D02*
X10915420Y-14610174D01*
X10915420Y-14610174D02*
X10924944Y-14572079D01*
X10924944Y-14572079D02*
X10934467Y-14553031D01*
X10934467Y-14553031D02*
X10943991Y-14543508D01*
X10943991Y-14543508D02*
X10963039Y-14533984D01*
X11115420Y-14733984D02*
X11115420Y-14600650D01*
X11115420Y-14619698D02*
X11124944Y-14610174D01*
X11124944Y-14610174D02*
X11143991Y-14600650D01*
X11143991Y-14600650D02*
X11172563Y-14600650D01*
X11172563Y-14600650D02*
X11191610Y-14610174D01*
X11191610Y-14610174D02*
X11201134Y-14629222D01*
X11201134Y-14629222D02*
X11201134Y-14733984D01*
X11201134Y-14629222D02*
X11210658Y-14610174D01*
X11210658Y-14610174D02*
X11229705Y-14600650D01*
X11229705Y-14600650D02*
X11258277Y-14600650D01*
X11258277Y-14600650D02*
X11277324Y-14610174D01*
X11277324Y-14610174D02*
X11286848Y-14629222D01*
X11286848Y-14629222D02*
X11286848Y-14733984D01*
X11382086Y-14733984D02*
X11382086Y-14600650D01*
X11382086Y-14619698D02*
X11391610Y-14610174D01*
X11391610Y-14610174D02*
X11410658Y-14600650D01*
X11410658Y-14600650D02*
X11439229Y-14600650D01*
X11439229Y-14600650D02*
X11458277Y-14610174D01*
X11458277Y-14610174D02*
X11467801Y-14629222D01*
X11467801Y-14629222D02*
X11467801Y-14733984D01*
X11467801Y-14629222D02*
X11477324Y-14610174D01*
X11477324Y-14610174D02*
X11496372Y-14600650D01*
X11496372Y-14600650D02*
X11524943Y-14600650D01*
X11524943Y-14600650D02*
X11543991Y-14610174D01*
X11543991Y-14610174D02*
X11553515Y-14629222D01*
X11553515Y-14629222D02*
X11553515Y-14733984D01*
X11943991Y-14524460D02*
X11772563Y-14781603D01*
X12201134Y-14533984D02*
X12220182Y-14533984D01*
X12220182Y-14533984D02*
X12239229Y-14543508D01*
X12239229Y-14543508D02*
X12248753Y-14553031D01*
X12248753Y-14553031D02*
X12258277Y-14572079D01*
X12258277Y-14572079D02*
X12267801Y-14610174D01*
X12267801Y-14610174D02*
X12267801Y-14657793D01*
X12267801Y-14657793D02*
X12258277Y-14695888D01*
X12258277Y-14695888D02*
X12248753Y-14714936D01*
X12248753Y-14714936D02*
X12239229Y-14724460D01*
X12239229Y-14724460D02*
X12220182Y-14733984D01*
X12220182Y-14733984D02*
X12201134Y-14733984D01*
X12201134Y-14733984D02*
X12182086Y-14724460D01*
X12182086Y-14724460D02*
X12172563Y-14714936D01*
X12172563Y-14714936D02*
X12163039Y-14695888D01*
X12163039Y-14695888D02*
X12153515Y-14657793D01*
X12153515Y-14657793D02*
X12153515Y-14610174D01*
X12153515Y-14610174D02*
X12163039Y-14572079D01*
X12163039Y-14572079D02*
X12172563Y-14553031D01*
X12172563Y-14553031D02*
X12182086Y-14543508D01*
X12182086Y-14543508D02*
X12201134Y-14533984D01*
X12353515Y-14714936D02*
X12363039Y-14724460D01*
X12363039Y-14724460D02*
X12353515Y-14733984D01*
X12353515Y-14733984D02*
X12343991Y-14724460D01*
X12343991Y-14724460D02*
X12353515Y-14714936D01*
X12353515Y-14714936D02*
X12353515Y-14733984D01*
X12486848Y-14533984D02*
X12505896Y-14533984D01*
X12505896Y-14533984D02*
X12524944Y-14543508D01*
X12524944Y-14543508D02*
X12534467Y-14553031D01*
X12534467Y-14553031D02*
X12543991Y-14572079D01*
X12543991Y-14572079D02*
X12553515Y-14610174D01*
X12553515Y-14610174D02*
X12553515Y-14657793D01*
X12553515Y-14657793D02*
X12543991Y-14695888D01*
X12543991Y-14695888D02*
X12534467Y-14714936D01*
X12534467Y-14714936D02*
X12524944Y-14724460D01*
X12524944Y-14724460D02*
X12505896Y-14733984D01*
X12505896Y-14733984D02*
X12486848Y-14733984D01*
X12486848Y-14733984D02*
X12467801Y-14724460D01*
X12467801Y-14724460D02*
X12458277Y-14714936D01*
X12458277Y-14714936D02*
X12448753Y-14695888D01*
X12448753Y-14695888D02*
X12439229Y-14657793D01*
X12439229Y-14657793D02*
X12439229Y-14610174D01*
X12439229Y-14610174D02*
X12448753Y-14572079D01*
X12448753Y-14572079D02*
X12458277Y-14553031D01*
X12458277Y-14553031D02*
X12467801Y-14543508D01*
X12467801Y-14543508D02*
X12486848Y-14533984D01*
X12743991Y-14733984D02*
X12629706Y-14733984D01*
X12686848Y-14733984D02*
X12686848Y-14533984D01*
X12686848Y-14533984D02*
X12667801Y-14562555D01*
X12667801Y-14562555D02*
X12648753Y-14581603D01*
X12648753Y-14581603D02*
X12629706Y-14591127D01*
X12934467Y-14733984D02*
X12820182Y-14733984D01*
X12877325Y-14733984D02*
X12877325Y-14533984D01*
X12877325Y-14533984D02*
X12858277Y-14562555D01*
X12858277Y-14562555D02*
X12839229Y-14581603D01*
X12839229Y-14581603D02*
X12820182Y-14591127D01*
X13048753Y-14619698D02*
X13029706Y-14610174D01*
X13029706Y-14610174D02*
X13020182Y-14600650D01*
X13020182Y-14600650D02*
X13010658Y-14581603D01*
X13010658Y-14581603D02*
X13010658Y-14572079D01*
X13010658Y-14572079D02*
X13020182Y-14553031D01*
X13020182Y-14553031D02*
X13029706Y-14543508D01*
X13029706Y-14543508D02*
X13048753Y-14533984D01*
X13048753Y-14533984D02*
X13086848Y-14533984D01*
X13086848Y-14533984D02*
X13105896Y-14543508D01*
X13105896Y-14543508D02*
X13115420Y-14553031D01*
X13115420Y-14553031D02*
X13124944Y-14572079D01*
X13124944Y-14572079D02*
X13124944Y-14581603D01*
X13124944Y-14581603D02*
X13115420Y-14600650D01*
X13115420Y-14600650D02*
X13105896Y-14610174D01*
X13105896Y-14610174D02*
X13086848Y-14619698D01*
X13086848Y-14619698D02*
X13048753Y-14619698D01*
X13048753Y-14619698D02*
X13029706Y-14629222D01*
X13029706Y-14629222D02*
X13020182Y-14638746D01*
X13020182Y-14638746D02*
X13010658Y-14657793D01*
X13010658Y-14657793D02*
X13010658Y-14695888D01*
X13010658Y-14695888D02*
X13020182Y-14714936D01*
X13020182Y-14714936D02*
X13029706Y-14724460D01*
X13029706Y-14724460D02*
X13048753Y-14733984D01*
X13048753Y-14733984D02*
X13086848Y-14733984D01*
X13086848Y-14733984D02*
X13105896Y-14724460D01*
X13105896Y-14724460D02*
X13115420Y-14714936D01*
X13115420Y-14714936D02*
X13124944Y-14695888D01*
X13124944Y-14695888D02*
X13124944Y-14657793D01*
X13124944Y-14657793D02*
X13115420Y-14638746D01*
X13115420Y-14638746D02*
X13105896Y-14629222D01*
X13105896Y-14629222D02*
X13086848Y-14619698D01*
X13201134Y-14533984D02*
X13201134Y-14572079D01*
X13277325Y-14533984D02*
X13277325Y-14572079D01*
X13572563Y-14810174D02*
X13563039Y-14800650D01*
X13563039Y-14800650D02*
X13543991Y-14772079D01*
X13543991Y-14772079D02*
X13534468Y-14753031D01*
X13534468Y-14753031D02*
X13524944Y-14724460D01*
X13524944Y-14724460D02*
X13515420Y-14676841D01*
X13515420Y-14676841D02*
X13515420Y-14638746D01*
X13515420Y-14638746D02*
X13524944Y-14591127D01*
X13524944Y-14591127D02*
X13534468Y-14562555D01*
X13534468Y-14562555D02*
X13543991Y-14543508D01*
X13543991Y-14543508D02*
X13563039Y-14514936D01*
X13563039Y-14514936D02*
X13572563Y-14505412D01*
X13753515Y-14733984D02*
X13639229Y-14733984D01*
X13696372Y-14733984D02*
X13696372Y-14533984D01*
X13696372Y-14533984D02*
X13677325Y-14562555D01*
X13677325Y-14562555D02*
X13658277Y-14581603D01*
X13658277Y-14581603D02*
X13639229Y-14591127D01*
X13877325Y-14533984D02*
X13896372Y-14533984D01*
X13896372Y-14533984D02*
X13915420Y-14543508D01*
X13915420Y-14543508D02*
X13924944Y-14553031D01*
X13924944Y-14553031D02*
X13934468Y-14572079D01*
X13934468Y-14572079D02*
X13943991Y-14610174D01*
X13943991Y-14610174D02*
X13943991Y-14657793D01*
X13943991Y-14657793D02*
X13934468Y-14695888D01*
X13934468Y-14695888D02*
X13924944Y-14714936D01*
X13924944Y-14714936D02*
X13915420Y-14724460D01*
X13915420Y-14724460D02*
X13896372Y-14733984D01*
X13896372Y-14733984D02*
X13877325Y-14733984D01*
X13877325Y-14733984D02*
X13858277Y-14724460D01*
X13858277Y-14724460D02*
X13848753Y-14714936D01*
X13848753Y-14714936D02*
X13839229Y-14695888D01*
X13839229Y-14695888D02*
X13829706Y-14657793D01*
X13829706Y-14657793D02*
X13829706Y-14610174D01*
X13829706Y-14610174D02*
X13839229Y-14572079D01*
X13839229Y-14572079D02*
X13848753Y-14553031D01*
X13848753Y-14553031D02*
X13858277Y-14543508D01*
X13858277Y-14543508D02*
X13877325Y-14533984D01*
X14182087Y-14733984D02*
X14182087Y-14533984D01*
X14267801Y-14733984D02*
X14267801Y-14629222D01*
X14267801Y-14629222D02*
X14258277Y-14610174D01*
X14258277Y-14610174D02*
X14239230Y-14600650D01*
X14239230Y-14600650D02*
X14210658Y-14600650D01*
X14210658Y-14600650D02*
X14191610Y-14610174D01*
X14191610Y-14610174D02*
X14182087Y-14619698D01*
X14391610Y-14733984D02*
X14372563Y-14724460D01*
X14372563Y-14724460D02*
X14363039Y-14714936D01*
X14363039Y-14714936D02*
X14353515Y-14695888D01*
X14353515Y-14695888D02*
X14353515Y-14638746D01*
X14353515Y-14638746D02*
X14363039Y-14619698D01*
X14363039Y-14619698D02*
X14372563Y-14610174D01*
X14372563Y-14610174D02*
X14391610Y-14600650D01*
X14391610Y-14600650D02*
X14420182Y-14600650D01*
X14420182Y-14600650D02*
X14439230Y-14610174D01*
X14439230Y-14610174D02*
X14448753Y-14619698D01*
X14448753Y-14619698D02*
X14458277Y-14638746D01*
X14458277Y-14638746D02*
X14458277Y-14695888D01*
X14458277Y-14695888D02*
X14448753Y-14714936D01*
X14448753Y-14714936D02*
X14439230Y-14724460D01*
X14439230Y-14724460D02*
X14420182Y-14733984D01*
X14420182Y-14733984D02*
X14391610Y-14733984D01*
X14572563Y-14733984D02*
X14553515Y-14724460D01*
X14553515Y-14724460D02*
X14543991Y-14705412D01*
X14543991Y-14705412D02*
X14543991Y-14533984D01*
X14724944Y-14724460D02*
X14705896Y-14733984D01*
X14705896Y-14733984D02*
X14667801Y-14733984D01*
X14667801Y-14733984D02*
X14648753Y-14724460D01*
X14648753Y-14724460D02*
X14639230Y-14705412D01*
X14639230Y-14705412D02*
X14639230Y-14629222D01*
X14639230Y-14629222D02*
X14648753Y-14610174D01*
X14648753Y-14610174D02*
X14667801Y-14600650D01*
X14667801Y-14600650D02*
X14705896Y-14600650D01*
X14705896Y-14600650D02*
X14724944Y-14610174D01*
X14724944Y-14610174D02*
X14734468Y-14629222D01*
X14734468Y-14629222D02*
X14734468Y-14648269D01*
X14734468Y-14648269D02*
X14639230Y-14667317D01*
X14810658Y-14724460D02*
X14829706Y-14733984D01*
X14829706Y-14733984D02*
X14867801Y-14733984D01*
X14867801Y-14733984D02*
X14886849Y-14724460D01*
X14886849Y-14724460D02*
X14896372Y-14705412D01*
X14896372Y-14705412D02*
X14896372Y-14695888D01*
X14896372Y-14695888D02*
X14886849Y-14676841D01*
X14886849Y-14676841D02*
X14867801Y-14667317D01*
X14867801Y-14667317D02*
X14839230Y-14667317D01*
X14839230Y-14667317D02*
X14820182Y-14657793D01*
X14820182Y-14657793D02*
X14810658Y-14638746D01*
X14810658Y-14638746D02*
X14810658Y-14629222D01*
X14810658Y-14629222D02*
X14820182Y-14610174D01*
X14820182Y-14610174D02*
X14839230Y-14600650D01*
X14839230Y-14600650D02*
X14867801Y-14600650D01*
X14867801Y-14600650D02*
X14886849Y-14610174D01*
X14963039Y-14810174D02*
X14972563Y-14800650D01*
X14972563Y-14800650D02*
X14991611Y-14772079D01*
X14991611Y-14772079D02*
X15001134Y-14753031D01*
X15001134Y-14753031D02*
X15010658Y-14724460D01*
X15010658Y-14724460D02*
X15020182Y-14676841D01*
X15020182Y-14676841D02*
X15020182Y-14638746D01*
X15020182Y-14638746D02*
X15010658Y-14591127D01*
X15010658Y-14591127D02*
X15001134Y-14562555D01*
X15001134Y-14562555D02*
X14991611Y-14543508D01*
X14991611Y-14543508D02*
X14972563Y-14514936D01*
X14972563Y-14514936D02*
X14963039Y-14505412D01*
D12*
X9997500Y-14906500D02*
G75*
G02*
X9897500Y-14906500I-50000J0D01*
G01*
X9897500Y-14906500D02*
G75*
G02*
X9997500Y-14906500I50000J0D01*
G01*
D11*
X10363039Y-14997984D02*
X10248753Y-14997984D01*
X10305896Y-14997984D02*
X10305896Y-14797984D01*
X10305896Y-14797984D02*
X10286848Y-14826555D01*
X10286848Y-14826555D02*
X10267801Y-14845603D01*
X10267801Y-14845603D02*
X10248753Y-14855127D01*
X10448753Y-14978936D02*
X10458277Y-14988460D01*
X10458277Y-14988460D02*
X10448753Y-14997984D01*
X10448753Y-14997984D02*
X10439229Y-14988460D01*
X10439229Y-14988460D02*
X10448753Y-14978936D01*
X10448753Y-14978936D02*
X10448753Y-14997984D01*
X10582086Y-14797984D02*
X10601134Y-14797984D01*
X10601134Y-14797984D02*
X10620182Y-14807508D01*
X10620182Y-14807508D02*
X10629705Y-14817031D01*
X10629705Y-14817031D02*
X10639229Y-14836079D01*
X10639229Y-14836079D02*
X10648753Y-14874174D01*
X10648753Y-14874174D02*
X10648753Y-14921793D01*
X10648753Y-14921793D02*
X10639229Y-14959888D01*
X10639229Y-14959888D02*
X10629705Y-14978936D01*
X10629705Y-14978936D02*
X10620182Y-14988460D01*
X10620182Y-14988460D02*
X10601134Y-14997984D01*
X10601134Y-14997984D02*
X10582086Y-14997984D01*
X10582086Y-14997984D02*
X10563039Y-14988460D01*
X10563039Y-14988460D02*
X10553515Y-14978936D01*
X10553515Y-14978936D02*
X10543991Y-14959888D01*
X10543991Y-14959888D02*
X10534467Y-14921793D01*
X10534467Y-14921793D02*
X10534467Y-14874174D01*
X10534467Y-14874174D02*
X10543991Y-14836079D01*
X10543991Y-14836079D02*
X10553515Y-14817031D01*
X10553515Y-14817031D02*
X10563039Y-14807508D01*
X10563039Y-14807508D02*
X10582086Y-14797984D01*
X10772563Y-14797984D02*
X10791610Y-14797984D01*
X10791610Y-14797984D02*
X10810658Y-14807508D01*
X10810658Y-14807508D02*
X10820182Y-14817031D01*
X10820182Y-14817031D02*
X10829705Y-14836079D01*
X10829705Y-14836079D02*
X10839229Y-14874174D01*
X10839229Y-14874174D02*
X10839229Y-14921793D01*
X10839229Y-14921793D02*
X10829705Y-14959888D01*
X10829705Y-14959888D02*
X10820182Y-14978936D01*
X10820182Y-14978936D02*
X10810658Y-14988460D01*
X10810658Y-14988460D02*
X10791610Y-14997984D01*
X10791610Y-14997984D02*
X10772563Y-14997984D01*
X10772563Y-14997984D02*
X10753515Y-14988460D01*
X10753515Y-14988460D02*
X10743991Y-14978936D01*
X10743991Y-14978936D02*
X10734467Y-14959888D01*
X10734467Y-14959888D02*
X10724944Y-14921793D01*
X10724944Y-14921793D02*
X10724944Y-14874174D01*
X10724944Y-14874174D02*
X10734467Y-14836079D01*
X10734467Y-14836079D02*
X10743991Y-14817031D01*
X10743991Y-14817031D02*
X10753515Y-14807508D01*
X10753515Y-14807508D02*
X10772563Y-14797984D01*
X10963039Y-14797984D02*
X10982086Y-14797984D01*
X10982086Y-14797984D02*
X11001134Y-14807508D01*
X11001134Y-14807508D02*
X11010658Y-14817031D01*
X11010658Y-14817031D02*
X11020182Y-14836079D01*
X11020182Y-14836079D02*
X11029705Y-14874174D01*
X11029705Y-14874174D02*
X11029705Y-14921793D01*
X11029705Y-14921793D02*
X11020182Y-14959888D01*
X11020182Y-14959888D02*
X11010658Y-14978936D01*
X11010658Y-14978936D02*
X11001134Y-14988460D01*
X11001134Y-14988460D02*
X10982086Y-14997984D01*
X10982086Y-14997984D02*
X10963039Y-14997984D01*
X10963039Y-14997984D02*
X10943991Y-14988460D01*
X10943991Y-14988460D02*
X10934467Y-14978936D01*
X10934467Y-14978936D02*
X10924944Y-14959888D01*
X10924944Y-14959888D02*
X10915420Y-14921793D01*
X10915420Y-14921793D02*
X10915420Y-14874174D01*
X10915420Y-14874174D02*
X10924944Y-14836079D01*
X10924944Y-14836079D02*
X10934467Y-14817031D01*
X10934467Y-14817031D02*
X10943991Y-14807508D01*
X10943991Y-14807508D02*
X10963039Y-14797984D01*
X11115420Y-14997984D02*
X11115420Y-14864650D01*
X11115420Y-14883698D02*
X11124944Y-14874174D01*
X11124944Y-14874174D02*
X11143991Y-14864650D01*
X11143991Y-14864650D02*
X11172563Y-14864650D01*
X11172563Y-14864650D02*
X11191610Y-14874174D01*
X11191610Y-14874174D02*
X11201134Y-14893222D01*
X11201134Y-14893222D02*
X11201134Y-14997984D01*
X11201134Y-14893222D02*
X11210658Y-14874174D01*
X11210658Y-14874174D02*
X11229705Y-14864650D01*
X11229705Y-14864650D02*
X11258277Y-14864650D01*
X11258277Y-14864650D02*
X11277324Y-14874174D01*
X11277324Y-14874174D02*
X11286848Y-14893222D01*
X11286848Y-14893222D02*
X11286848Y-14997984D01*
X11382086Y-14997984D02*
X11382086Y-14864650D01*
X11382086Y-14883698D02*
X11391610Y-14874174D01*
X11391610Y-14874174D02*
X11410658Y-14864650D01*
X11410658Y-14864650D02*
X11439229Y-14864650D01*
X11439229Y-14864650D02*
X11458277Y-14874174D01*
X11458277Y-14874174D02*
X11467801Y-14893222D01*
X11467801Y-14893222D02*
X11467801Y-14997984D01*
X11467801Y-14893222D02*
X11477324Y-14874174D01*
X11477324Y-14874174D02*
X11496372Y-14864650D01*
X11496372Y-14864650D02*
X11524943Y-14864650D01*
X11524943Y-14864650D02*
X11543991Y-14874174D01*
X11543991Y-14874174D02*
X11553515Y-14893222D01*
X11553515Y-14893222D02*
X11553515Y-14997984D01*
X11943991Y-14788460D02*
X11772563Y-15045603D01*
X12201134Y-14797984D02*
X12220182Y-14797984D01*
X12220182Y-14797984D02*
X12239229Y-14807508D01*
X12239229Y-14807508D02*
X12248753Y-14817031D01*
X12248753Y-14817031D02*
X12258277Y-14836079D01*
X12258277Y-14836079D02*
X12267801Y-14874174D01*
X12267801Y-14874174D02*
X12267801Y-14921793D01*
X12267801Y-14921793D02*
X12258277Y-14959888D01*
X12258277Y-14959888D02*
X12248753Y-14978936D01*
X12248753Y-14978936D02*
X12239229Y-14988460D01*
X12239229Y-14988460D02*
X12220182Y-14997984D01*
X12220182Y-14997984D02*
X12201134Y-14997984D01*
X12201134Y-14997984D02*
X12182086Y-14988460D01*
X12182086Y-14988460D02*
X12172563Y-14978936D01*
X12172563Y-14978936D02*
X12163039Y-14959888D01*
X12163039Y-14959888D02*
X12153515Y-14921793D01*
X12153515Y-14921793D02*
X12153515Y-14874174D01*
X12153515Y-14874174D02*
X12163039Y-14836079D01*
X12163039Y-14836079D02*
X12172563Y-14817031D01*
X12172563Y-14817031D02*
X12182086Y-14807508D01*
X12182086Y-14807508D02*
X12201134Y-14797984D01*
X12353515Y-14978936D02*
X12363039Y-14988460D01*
X12363039Y-14988460D02*
X12353515Y-14997984D01*
X12353515Y-14997984D02*
X12343991Y-14988460D01*
X12343991Y-14988460D02*
X12353515Y-14978936D01*
X12353515Y-14978936D02*
X12353515Y-14997984D01*
X12486848Y-14797984D02*
X12505896Y-14797984D01*
X12505896Y-14797984D02*
X12524944Y-14807508D01*
X12524944Y-14807508D02*
X12534467Y-14817031D01*
X12534467Y-14817031D02*
X12543991Y-14836079D01*
X12543991Y-14836079D02*
X12553515Y-14874174D01*
X12553515Y-14874174D02*
X12553515Y-14921793D01*
X12553515Y-14921793D02*
X12543991Y-14959888D01*
X12543991Y-14959888D02*
X12534467Y-14978936D01*
X12534467Y-14978936D02*
X12524944Y-14988460D01*
X12524944Y-14988460D02*
X12505896Y-14997984D01*
X12505896Y-14997984D02*
X12486848Y-14997984D01*
X12486848Y-14997984D02*
X12467801Y-14988460D01*
X12467801Y-14988460D02*
X12458277Y-14978936D01*
X12458277Y-14978936D02*
X12448753Y-14959888D01*
X12448753Y-14959888D02*
X12439229Y-14921793D01*
X12439229Y-14921793D02*
X12439229Y-14874174D01*
X12439229Y-14874174D02*
X12448753Y-14836079D01*
X12448753Y-14836079D02*
X12458277Y-14817031D01*
X12458277Y-14817031D02*
X12467801Y-14807508D01*
X12467801Y-14807508D02*
X12486848Y-14797984D01*
X12620182Y-14797984D02*
X12743991Y-14797984D01*
X12743991Y-14797984D02*
X12677325Y-14874174D01*
X12677325Y-14874174D02*
X12705896Y-14874174D01*
X12705896Y-14874174D02*
X12724944Y-14883698D01*
X12724944Y-14883698D02*
X12734467Y-14893222D01*
X12734467Y-14893222D02*
X12743991Y-14912269D01*
X12743991Y-14912269D02*
X12743991Y-14959888D01*
X12743991Y-14959888D02*
X12734467Y-14978936D01*
X12734467Y-14978936D02*
X12724944Y-14988460D01*
X12724944Y-14988460D02*
X12705896Y-14997984D01*
X12705896Y-14997984D02*
X12648753Y-14997984D01*
X12648753Y-14997984D02*
X12629706Y-14988460D01*
X12629706Y-14988460D02*
X12620182Y-14978936D01*
X12839229Y-14997984D02*
X12877325Y-14997984D01*
X12877325Y-14997984D02*
X12896372Y-14988460D01*
X12896372Y-14988460D02*
X12905896Y-14978936D01*
X12905896Y-14978936D02*
X12924944Y-14950365D01*
X12924944Y-14950365D02*
X12934467Y-14912269D01*
X12934467Y-14912269D02*
X12934467Y-14836079D01*
X12934467Y-14836079D02*
X12924944Y-14817031D01*
X12924944Y-14817031D02*
X12915420Y-14807508D01*
X12915420Y-14807508D02*
X12896372Y-14797984D01*
X12896372Y-14797984D02*
X12858277Y-14797984D01*
X12858277Y-14797984D02*
X12839229Y-14807508D01*
X12839229Y-14807508D02*
X12829706Y-14817031D01*
X12829706Y-14817031D02*
X12820182Y-14836079D01*
X12820182Y-14836079D02*
X12820182Y-14883698D01*
X12820182Y-14883698D02*
X12829706Y-14902746D01*
X12829706Y-14902746D02*
X12839229Y-14912269D01*
X12839229Y-14912269D02*
X12858277Y-14921793D01*
X12858277Y-14921793D02*
X12896372Y-14921793D01*
X12896372Y-14921793D02*
X12915420Y-14912269D01*
X12915420Y-14912269D02*
X12924944Y-14902746D01*
X12924944Y-14902746D02*
X12934467Y-14883698D01*
X13105896Y-14864650D02*
X13105896Y-14997984D01*
X13058277Y-14788460D02*
X13010658Y-14931317D01*
X13010658Y-14931317D02*
X13134467Y-14931317D01*
X13201134Y-14797984D02*
X13201134Y-14836079D01*
X13277325Y-14797984D02*
X13277325Y-14836079D01*
X13572563Y-15074174D02*
X13563039Y-15064650D01*
X13563039Y-15064650D02*
X13543991Y-15036079D01*
X13543991Y-15036079D02*
X13534468Y-15017031D01*
X13534468Y-15017031D02*
X13524944Y-14988460D01*
X13524944Y-14988460D02*
X13515420Y-14940841D01*
X13515420Y-14940841D02*
X13515420Y-14902746D01*
X13515420Y-14902746D02*
X13524944Y-14855127D01*
X13524944Y-14855127D02*
X13534468Y-14826555D01*
X13534468Y-14826555D02*
X13543991Y-14807508D01*
X13543991Y-14807508D02*
X13563039Y-14778936D01*
X13563039Y-14778936D02*
X13572563Y-14769412D01*
X13753515Y-14997984D02*
X13639229Y-14997984D01*
X13696372Y-14997984D02*
X13696372Y-14797984D01*
X13696372Y-14797984D02*
X13677325Y-14826555D01*
X13677325Y-14826555D02*
X13658277Y-14845603D01*
X13658277Y-14845603D02*
X13639229Y-14855127D01*
X13829706Y-14817031D02*
X13839229Y-14807508D01*
X13839229Y-14807508D02*
X13858277Y-14797984D01*
X13858277Y-14797984D02*
X13905896Y-14797984D01*
X13905896Y-14797984D02*
X13924944Y-14807508D01*
X13924944Y-14807508D02*
X13934468Y-14817031D01*
X13934468Y-14817031D02*
X13943991Y-14836079D01*
X13943991Y-14836079D02*
X13943991Y-14855127D01*
X13943991Y-14855127D02*
X13934468Y-14883698D01*
X13934468Y-14883698D02*
X13820182Y-14997984D01*
X13820182Y-14997984D02*
X13943991Y-14997984D01*
X14182087Y-14997984D02*
X14182087Y-14797984D01*
X14267801Y-14997984D02*
X14267801Y-14893222D01*
X14267801Y-14893222D02*
X14258277Y-14874174D01*
X14258277Y-14874174D02*
X14239230Y-14864650D01*
X14239230Y-14864650D02*
X14210658Y-14864650D01*
X14210658Y-14864650D02*
X14191610Y-14874174D01*
X14191610Y-14874174D02*
X14182087Y-14883698D01*
X14391610Y-14997984D02*
X14372563Y-14988460D01*
X14372563Y-14988460D02*
X14363039Y-14978936D01*
X14363039Y-14978936D02*
X14353515Y-14959888D01*
X14353515Y-14959888D02*
X14353515Y-14902746D01*
X14353515Y-14902746D02*
X14363039Y-14883698D01*
X14363039Y-14883698D02*
X14372563Y-14874174D01*
X14372563Y-14874174D02*
X14391610Y-14864650D01*
X14391610Y-14864650D02*
X14420182Y-14864650D01*
X14420182Y-14864650D02*
X14439230Y-14874174D01*
X14439230Y-14874174D02*
X14448753Y-14883698D01*
X14448753Y-14883698D02*
X14458277Y-14902746D01*
X14458277Y-14902746D02*
X14458277Y-14959888D01*
X14458277Y-14959888D02*
X14448753Y-14978936D01*
X14448753Y-14978936D02*
X14439230Y-14988460D01*
X14439230Y-14988460D02*
X14420182Y-14997984D01*
X14420182Y-14997984D02*
X14391610Y-14997984D01*
X14572563Y-14997984D02*
X14553515Y-14988460D01*
X14553515Y-14988460D02*
X14543991Y-14969412D01*
X14543991Y-14969412D02*
X14543991Y-14797984D01*
X14724944Y-14988460D02*
X14705896Y-14997984D01*
X14705896Y-14997984D02*
X14667801Y-14997984D01*
X14667801Y-14997984D02*
X14648753Y-14988460D01*
X14648753Y-14988460D02*
X14639230Y-14969412D01*
X14639230Y-14969412D02*
X14639230Y-14893222D01*
X14639230Y-14893222D02*
X14648753Y-14874174D01*
X14648753Y-14874174D02*
X14667801Y-14864650D01*
X14667801Y-14864650D02*
X14705896Y-14864650D01*
X14705896Y-14864650D02*
X14724944Y-14874174D01*
X14724944Y-14874174D02*
X14734468Y-14893222D01*
X14734468Y-14893222D02*
X14734468Y-14912269D01*
X14734468Y-14912269D02*
X14639230Y-14931317D01*
X14810658Y-14988460D02*
X14829706Y-14997984D01*
X14829706Y-14997984D02*
X14867801Y-14997984D01*
X14867801Y-14997984D02*
X14886849Y-14988460D01*
X14886849Y-14988460D02*
X14896372Y-14969412D01*
X14896372Y-14969412D02*
X14896372Y-14959888D01*
X14896372Y-14959888D02*
X14886849Y-14940841D01*
X14886849Y-14940841D02*
X14867801Y-14931317D01*
X14867801Y-14931317D02*
X14839230Y-14931317D01*
X14839230Y-14931317D02*
X14820182Y-14921793D01*
X14820182Y-14921793D02*
X14810658Y-14902746D01*
X14810658Y-14902746D02*
X14810658Y-14893222D01*
X14810658Y-14893222D02*
X14820182Y-14874174D01*
X14820182Y-14874174D02*
X14839230Y-14864650D01*
X14839230Y-14864650D02*
X14867801Y-14864650D01*
X14867801Y-14864650D02*
X14886849Y-14874174D01*
X14963039Y-15074174D02*
X14972563Y-15064650D01*
X14972563Y-15064650D02*
X14991611Y-15036079D01*
X14991611Y-15036079D02*
X15001134Y-15017031D01*
X15001134Y-15017031D02*
X15010658Y-14988460D01*
X15010658Y-14988460D02*
X15020182Y-14940841D01*
X15020182Y-14940841D02*
X15020182Y-14902746D01*
X15020182Y-14902746D02*
X15010658Y-14855127D01*
X15010658Y-14855127D02*
X15001134Y-14826555D01*
X15001134Y-14826555D02*
X14991611Y-14807508D01*
X14991611Y-14807508D02*
X14972563Y-14778936D01*
X14972563Y-14778936D02*
X14963039Y-14769412D01*
M02*
