M48
; DRILL file {KiCad 8.0.1} date 2024-08-03T11:03:15+0200
; FORMAT={-:-/ absolute / inch / decimal}
; #@! TF.CreationDate,2024-08-03T11:03:15+02:00
; #@! TF.GenerationSoftware,Kicad,Pcbnew,8.0.1
; #@! TF.FileFunction,Plated,1,2,PTH
FMAT,2
INCH
; #@! TA.AperFunction,Plated,PTH,ViaDrill
T1C0.0118
; #@! TA.AperFunction,Plated,PTH,ComponentDrill
T2C0.0394
%
G90
G05
T1
X4.626Y-4.8031
X4.626Y-4.9016
X4.626Y-5.0
X4.7244Y-4.8031
X4.7244Y-4.9016
X4.7244Y-5.0
X4.8031Y-4.8031
X4.8031Y-4.9016
X4.8031Y-5.0
X4.8074Y-4.584
T2
X4.2206Y-4.4922
X4.2701Y-5.0
X4.3206Y-4.4922
X4.3701Y-5.0
X4.4206Y-4.4922
X4.9904Y-4.4922
X5.0756Y-5.0
X5.0904Y-4.4922
X5.1756Y-5.0
X5.1904Y-4.4922
X5.2756Y-5.0
X5.2904Y-4.4922
M30
